ISO-10303-21;
HEADER;
/*Generated by software containing ST-Developer
 * from STEP Tools, Inc. (www.steptools.com) 
 */
/*OPTION: using custom renumber hook */
/*description */
/*implementation_level */
FILE_DESCRIPTION(('STEP AP242 Edition 2','STEP AP242 Edition 2''CAx-IF Rec.Pracs.---Representation and Presentation of Product Manufa
cturing Information (PMI)---4.0---2014-10-13','STEP AP242 Edition 2''CAx-IF Rec.Pracs.---Representation and Presentation of Product Manufa
cturing Information (PMI)---4.0---2014-10-13''CAx-IF Rec.Pracs.---3D Tessellated Geometry---0.4---2014-09-14','STEP AP242 Edition 2''CAx-IF Rec.Pracs.---Representation and Presentation of Product Manufa
cturing Information (PMI)---4.0---2014-10-13''CAx-IF Rec.Pracs.---3D Tessellated Geometry---0.4---2014-09-14''2;1','STEP AP242 Edition 2''CAx-IF Rec.Pracs.---Representation and Presentation of Product Manufa
cturing Information (PMI)---4.0---2014-10-13''CAx-IF Rec.Pracs.---3D Tessellated Geometry---0.4---2014-09-14''2;1''CAx-IF Rec.Pracs.---User Defined Attributes---1.5---2016-08-15'),'2;1');
/*name */
/*time_stamp */
/*author */
/*organization */
/*preprocessor_version */
/*originating_system */
/*authorisation */
FILE_NAME('/vol/tmp/translate-1373401458670436276/Part Studio 1 - Part 4.step','2026-03-16T23:13:35',(''),(''),'ST-DEVELOPER v20','ONSHAPE BY PTC INC, 1.212','  ');
FILE_SCHEMA(('AP242_MANAGED_MODEL_BASED_3D_ENGINEERING_MIM_LF { 1 0 10303 442 3 1 4 }'));
ENDSEC;
DATA;
#10=SHAPE_REPRESENTATION_RELATIONSHIP('','',#723,#11);
#11=ADVANCED_BREP_SHAPE_REPRESENTATION('',(#721),#1253);
#12=PLANE('',#728);
#13=PLANE('',#732);
#14=PLANE('',#736);
#15=PLANE('',#740);
#16=PLANE('',#744);
#17=PLANE('',#748);
#18=PLANE('',#752);
#19=PLANE('',#756);
#20=PLANE('',#760);
#21=PLANE('',#764);
#22=PLANE('',#768);
#23=PLANE('',#772);
#24=PLANE('',#776);
#25=PLANE('',#777);
#26=PLANE('',#782);
#27=PLANE('',#788);
#28=PLANE('',#789);
#29=PLANE('',#795);
#30=PLANE('',#796);
#31=PLANE('',#802);
#32=PLANE('',#803);
#33=PLANE('',#809);
#34=PLANE('',#810);
#35=LINE('',#1045,#83);
#36=LINE('',#1047,#84);
#37=LINE('',#1049,#85);
#38=LINE('',#1051,#86);
#39=LINE('',#1057,#87);
#40=LINE('',#1059,#88);
#41=LINE('',#1061,#89);
#42=LINE('',#1072,#90);
#43=LINE('',#1074,#91);
#44=LINE('',#1076,#92);
#45=LINE('',#1078,#93);
#46=LINE('',#1084,#94);
#47=LINE('',#1086,#95);
#48=LINE('',#1088,#96);
#49=LINE('',#1099,#97);
#50=LINE('',#1101,#98);
#51=LINE('',#1103,#99);
#52=LINE('',#1105,#100);
#53=LINE('',#1111,#101);
#54=LINE('',#1113,#102);
#55=LINE('',#1115,#103);
#56=LINE('',#1117,#104);
#57=LINE('',#1123,#105);
#58=LINE('',#1125,#106);
#59=LINE('',#1127,#107);
#60=LINE('',#1129,#108);
#61=LINE('',#1135,#109);
#62=LINE('',#1137,#110);
#63=LINE('',#1139,#111);
#64=LINE('',#1141,#112);
#65=LINE('',#1147,#113);
#66=LINE('',#1149,#114);
#67=LINE('',#1151,#115);
#68=LINE('',#1153,#116);
#69=LINE('',#1159,#117);
#70=LINE('',#1161,#118);
#71=LINE('',#1163,#119);
#72=LINE('',#1174,#120);
#73=LINE('',#1176,#121);
#74=LINE('',#1178,#122);
#75=LINE('',#1180,#123);
#76=LINE('',#1186,#124);
#77=LINE('',#1188,#125);
#78=LINE('',#1190,#126);
#79=LINE('',#1192,#127);
#80=LINE('',#1198,#128);
#81=LINE('',#1200,#129);
#82=LINE('',#1201,#130);
#83=VECTOR('',#819,1.);
#84=VECTOR('',#822,1.);
#85=VECTOR('',#823,1.);
#86=VECTOR('',#824,1.);
#87=VECTOR('',#831,1.);
#88=VECTOR('',#834,1.);
#89=VECTOR('',#835,1.);
#90=VECTOR('',#842,1.);
#91=VECTOR('',#845,1.);
#92=VECTOR('',#846,1.);
#93=VECTOR('',#847,1.);
#94=VECTOR('',#854,1.);
#95=VECTOR('',#857,1.);
#96=VECTOR('',#858,1.);
#97=VECTOR('',#865,1.);
#98=VECTOR('',#868,1.);
#99=VECTOR('',#869,1.);
#100=VECTOR('',#870,1.);
#101=VECTOR('',#877,1.);
#102=VECTOR('',#880,1.);
#103=VECTOR('',#881,1.);
#104=VECTOR('',#882,1.);
#105=VECTOR('',#889,1.);
#106=VECTOR('',#892,1.);
#107=VECTOR('',#893,1.);
#108=VECTOR('',#894,1.);
#109=VECTOR('',#901,1.);
#110=VECTOR('',#904,1.);
#111=VECTOR('',#905,1.);
#112=VECTOR('',#906,1.);
#113=VECTOR('',#913,1.);
#114=VECTOR('',#916,1.);
#115=VECTOR('',#917,1.);
#116=VECTOR('',#918,1.);
#117=VECTOR('',#925,1.);
#118=VECTOR('',#928,1.);
#119=VECTOR('',#929,1.);
#120=VECTOR('',#936,1.);
#121=VECTOR('',#939,1.);
#122=VECTOR('',#940,1.);
#123=VECTOR('',#941,1.);
#124=VECTOR('',#948,1.);
#125=VECTOR('',#951,1.);
#126=VECTOR('',#952,1.);
#127=VECTOR('',#953,1.);
#128=VECTOR('',#960,1.);
#129=VECTOR('',#963,1.);
#130=VECTOR('',#964,1.);
#131=B_SPLINE_CURVE_WITH_KNOTS('',3,(#1038,#1039,#1040,#1041),.UNSPECIFIED.,.F.,.F.,(4,4),(0.,1.),.UNSPECIFIED.);
#132=B_SPLINE_CURVE_WITH_KNOTS('',3,(#1063,#1064,#1065,#1066),.UNSPECIFIED.,.F.,.F.,(4,4),(0.,1.),.UNSPECIFIED.);
#133=B_SPLINE_CURVE_WITH_KNOTS('',3,(#1090,#1091,#1092,#1093),.UNSPECIFIED.,.F.,.F.,(4,4),(0.,1.),.UNSPECIFIED.);
#134=B_SPLINE_CURVE_WITH_KNOTS('',3,(#1165,#1166,#1167,#1168),.UNSPECIFIED.,.F.,.F.,(4,4),(0.,1.),.UNSPECIFIED.);
#135=ORIENTED_EDGE('',*,*,#323,.F.);
#136=ORIENTED_EDGE('',*,*,#324,.F.);
#137=ORIENTED_EDGE('',*,*,#325,.T.);
#138=ORIENTED_EDGE('',*,*,#326,.T.);
#139=ORIENTED_EDGE('',*,*,#327,.T.);
#140=ORIENTED_EDGE('',*,*,#326,.F.);
#141=ORIENTED_EDGE('',*,*,#328,.F.);
#142=ORIENTED_EDGE('',*,*,#329,.T.);
#143=ORIENTED_EDGE('',*,*,#330,.F.);
#144=ORIENTED_EDGE('',*,*,#329,.F.);
#145=ORIENTED_EDGE('',*,*,#331,.T.);
#146=ORIENTED_EDGE('',*,*,#332,.T.);
#147=ORIENTED_EDGE('',*,*,#333,.T.);
#148=ORIENTED_EDGE('',*,*,#332,.F.);
#149=ORIENTED_EDGE('',*,*,#334,.F.);
#150=ORIENTED_EDGE('',*,*,#335,.T.);
#151=ORIENTED_EDGE('',*,*,#336,.F.);
#152=ORIENTED_EDGE('',*,*,#335,.F.);
#153=ORIENTED_EDGE('',*,*,#337,.T.);
#154=ORIENTED_EDGE('',*,*,#338,.T.);
#155=ORIENTED_EDGE('',*,*,#339,.T.);
#156=ORIENTED_EDGE('',*,*,#338,.F.);
#157=ORIENTED_EDGE('',*,*,#340,.F.);
#158=ORIENTED_EDGE('',*,*,#341,.T.);
#159=ORIENTED_EDGE('',*,*,#342,.F.);
#160=ORIENTED_EDGE('',*,*,#341,.F.);
#161=ORIENTED_EDGE('',*,*,#343,.T.);
#162=ORIENTED_EDGE('',*,*,#344,.T.);
#163=ORIENTED_EDGE('',*,*,#345,.T.);
#164=ORIENTED_EDGE('',*,*,#344,.F.);
#165=ORIENTED_EDGE('',*,*,#346,.F.);
#166=ORIENTED_EDGE('',*,*,#347,.T.);
#167=ORIENTED_EDGE('',*,*,#348,.F.);
#168=ORIENTED_EDGE('',*,*,#347,.F.);
#169=ORIENTED_EDGE('',*,*,#349,.T.);
#170=ORIENTED_EDGE('',*,*,#350,.T.);
#171=ORIENTED_EDGE('',*,*,#351,.T.);
#172=ORIENTED_EDGE('',*,*,#350,.F.);
#173=ORIENTED_EDGE('',*,*,#352,.F.);
#174=ORIENTED_EDGE('',*,*,#353,.T.);
#175=ORIENTED_EDGE('',*,*,#354,.F.);
#176=ORIENTED_EDGE('',*,*,#353,.F.);
#177=ORIENTED_EDGE('',*,*,#355,.T.);
#178=ORIENTED_EDGE('',*,*,#356,.T.);
#179=ORIENTED_EDGE('',*,*,#357,.T.);
#180=ORIENTED_EDGE('',*,*,#356,.F.);
#181=ORIENTED_EDGE('',*,*,#358,.F.);
#182=ORIENTED_EDGE('',*,*,#359,.T.);
#183=ORIENTED_EDGE('',*,*,#360,.T.);
#184=ORIENTED_EDGE('',*,*,#359,.F.);
#185=ORIENTED_EDGE('',*,*,#361,.F.);
#186=ORIENTED_EDGE('',*,*,#362,.T.);
#187=ORIENTED_EDGE('',*,*,#363,.T.);
#188=ORIENTED_EDGE('',*,*,#362,.F.);
#189=ORIENTED_EDGE('',*,*,#364,.F.);
#190=ORIENTED_EDGE('',*,*,#365,.T.);
#191=ORIENTED_EDGE('',*,*,#366,.T.);
#192=ORIENTED_EDGE('',*,*,#365,.F.);
#193=ORIENTED_EDGE('',*,*,#367,.F.);
#194=ORIENTED_EDGE('',*,*,#368,.T.);
#195=ORIENTED_EDGE('',*,*,#369,.T.);
#196=ORIENTED_EDGE('',*,*,#368,.F.);
#197=ORIENTED_EDGE('',*,*,#370,.F.);
#198=ORIENTED_EDGE('',*,*,#371,.T.);
#199=ORIENTED_EDGE('',*,*,#372,.F.);
#200=ORIENTED_EDGE('',*,*,#371,.F.);
#201=ORIENTED_EDGE('',*,*,#373,.T.);
#202=ORIENTED_EDGE('',*,*,#374,.T.);
#203=ORIENTED_EDGE('',*,*,#375,.T.);
#204=ORIENTED_EDGE('',*,*,#374,.F.);
#205=ORIENTED_EDGE('',*,*,#376,.F.);
#206=ORIENTED_EDGE('',*,*,#377,.T.);
#207=ORIENTED_EDGE('',*,*,#378,.F.);
#208=ORIENTED_EDGE('',*,*,#377,.F.);
#209=ORIENTED_EDGE('',*,*,#379,.T.);
#210=ORIENTED_EDGE('',*,*,#380,.T.);
#211=ORIENTED_EDGE('',*,*,#381,.T.);
#212=ORIENTED_EDGE('',*,*,#380,.F.);
#213=ORIENTED_EDGE('',*,*,#382,.F.);
#214=ORIENTED_EDGE('',*,*,#383,.T.);
#215=ORIENTED_EDGE('',*,*,#384,.F.);
#216=ORIENTED_EDGE('',*,*,#383,.F.);
#217=ORIENTED_EDGE('',*,*,#385,.T.);
#218=ORIENTED_EDGE('',*,*,#386,.T.);
#219=ORIENTED_EDGE('',*,*,#387,.T.);
#220=ORIENTED_EDGE('',*,*,#386,.F.);
#221=ORIENTED_EDGE('',*,*,#388,.F.);
#222=ORIENTED_EDGE('',*,*,#389,.T.);
#223=ORIENTED_EDGE('',*,*,#390,.T.);
#224=ORIENTED_EDGE('',*,*,#389,.F.);
#225=ORIENTED_EDGE('',*,*,#391,.F.);
#226=ORIENTED_EDGE('',*,*,#392,.T.);
#227=ORIENTED_EDGE('',*,*,#393,.T.);
#228=ORIENTED_EDGE('',*,*,#392,.F.);
#229=ORIENTED_EDGE('',*,*,#394,.F.);
#230=ORIENTED_EDGE('',*,*,#395,.T.);
#231=ORIENTED_EDGE('',*,*,#396,.F.);
#232=ORIENTED_EDGE('',*,*,#395,.F.);
#233=ORIENTED_EDGE('',*,*,#397,.T.);
#234=ORIENTED_EDGE('',*,*,#398,.T.);
#235=ORIENTED_EDGE('',*,*,#399,.T.);
#236=ORIENTED_EDGE('',*,*,#398,.F.);
#237=ORIENTED_EDGE('',*,*,#400,.F.);
#238=ORIENTED_EDGE('',*,*,#324,.T.);
#239=ORIENTED_EDGE('',*,*,#401,.F.);
#240=ORIENTED_EDGE('',*,*,#402,.F.);
#241=ORIENTED_EDGE('',*,*,#403,.F.);
#242=ORIENTED_EDGE('',*,*,#404,.F.);
#243=ORIENTED_EDGE('',*,*,#325,.F.);
#244=ORIENTED_EDGE('',*,*,#400,.T.);
#245=ORIENTED_EDGE('',*,*,#397,.F.);
#246=ORIENTED_EDGE('',*,*,#394,.T.);
#247=ORIENTED_EDGE('',*,*,#391,.T.);
#248=ORIENTED_EDGE('',*,*,#388,.T.);
#249=ORIENTED_EDGE('',*,*,#385,.F.);
#250=ORIENTED_EDGE('',*,*,#382,.T.);
#251=ORIENTED_EDGE('',*,*,#379,.F.);
#252=ORIENTED_EDGE('',*,*,#376,.T.);
#253=ORIENTED_EDGE('',*,*,#373,.F.);
#254=ORIENTED_EDGE('',*,*,#370,.T.);
#255=ORIENTED_EDGE('',*,*,#367,.T.);
#256=ORIENTED_EDGE('',*,*,#364,.T.);
#257=ORIENTED_EDGE('',*,*,#361,.T.);
#258=ORIENTED_EDGE('',*,*,#358,.T.);
#259=ORIENTED_EDGE('',*,*,#355,.F.);
#260=ORIENTED_EDGE('',*,*,#352,.T.);
#261=ORIENTED_EDGE('',*,*,#349,.F.);
#262=ORIENTED_EDGE('',*,*,#346,.T.);
#263=ORIENTED_EDGE('',*,*,#343,.F.);
#264=ORIENTED_EDGE('',*,*,#340,.T.);
#265=ORIENTED_EDGE('',*,*,#337,.F.);
#266=ORIENTED_EDGE('',*,*,#334,.T.);
#267=ORIENTED_EDGE('',*,*,#331,.F.);
#268=ORIENTED_EDGE('',*,*,#328,.T.);
#269=ORIENTED_EDGE('',*,*,#323,.T.);
#270=ORIENTED_EDGE('',*,*,#327,.F.);
#271=ORIENTED_EDGE('',*,*,#330,.T.);
#272=ORIENTED_EDGE('',*,*,#333,.F.);
#273=ORIENTED_EDGE('',*,*,#336,.T.);
#274=ORIENTED_EDGE('',*,*,#339,.F.);
#275=ORIENTED_EDGE('',*,*,#342,.T.);
#276=ORIENTED_EDGE('',*,*,#345,.F.);
#277=ORIENTED_EDGE('',*,*,#348,.T.);
#278=ORIENTED_EDGE('',*,*,#351,.F.);
#279=ORIENTED_EDGE('',*,*,#354,.T.);
#280=ORIENTED_EDGE('',*,*,#357,.F.);
#281=ORIENTED_EDGE('',*,*,#360,.F.);
#282=ORIENTED_EDGE('',*,*,#363,.F.);
#283=ORIENTED_EDGE('',*,*,#366,.F.);
#284=ORIENTED_EDGE('',*,*,#369,.F.);
#285=ORIENTED_EDGE('',*,*,#372,.T.);
#286=ORIENTED_EDGE('',*,*,#375,.F.);
#287=ORIENTED_EDGE('',*,*,#378,.T.);
#288=ORIENTED_EDGE('',*,*,#381,.F.);
#289=ORIENTED_EDGE('',*,*,#384,.T.);
#290=ORIENTED_EDGE('',*,*,#387,.F.);
#291=ORIENTED_EDGE('',*,*,#390,.F.);
#292=ORIENTED_EDGE('',*,*,#393,.F.);
#293=ORIENTED_EDGE('',*,*,#396,.T.);
#294=ORIENTED_EDGE('',*,*,#399,.F.);
#295=ORIENTED_EDGE('',*,*,#405,.F.);
#296=ORIENTED_EDGE('',*,*,#406,.F.);
#297=ORIENTED_EDGE('',*,*,#404,.T.);
#298=ORIENTED_EDGE('',*,*,#407,.T.);
#299=ORIENTED_EDGE('',*,*,#406,.T.);
#300=ORIENTED_EDGE('',*,*,#407,.F.);
#301=ORIENTED_EDGE('',*,*,#405,.T.);
#302=ORIENTED_EDGE('',*,*,#408,.F.);
#303=ORIENTED_EDGE('',*,*,#409,.F.);
#304=ORIENTED_EDGE('',*,*,#403,.T.);
#305=ORIENTED_EDGE('',*,*,#410,.T.);
#306=ORIENTED_EDGE('',*,*,#409,.T.);
#307=ORIENTED_EDGE('',*,*,#410,.F.);
#308=ORIENTED_EDGE('',*,*,#408,.T.);
#309=ORIENTED_EDGE('',*,*,#411,.F.);
#310=ORIENTED_EDGE('',*,*,#412,.F.);
#311=ORIENTED_EDGE('',*,*,#402,.T.);
#312=ORIENTED_EDGE('',*,*,#413,.T.);
#313=ORIENTED_EDGE('',*,*,#412,.T.);
#314=ORIENTED_EDGE('',*,*,#413,.F.);
#315=ORIENTED_EDGE('',*,*,#411,.T.);
#316=ORIENTED_EDGE('',*,*,#414,.F.);
#317=ORIENTED_EDGE('',*,*,#415,.F.);
#318=ORIENTED_EDGE('',*,*,#401,.T.);
#319=ORIENTED_EDGE('',*,*,#416,.T.);
#320=ORIENTED_EDGE('',*,*,#415,.T.);
#321=ORIENTED_EDGE('',*,*,#416,.F.);
#322=ORIENTED_EDGE('',*,*,#414,.T.);
#323=EDGE_CURVE('',#417,#418,#485,.T.);
#324=EDGE_CURVE('',#419,#417,#131,.F.);
#325=EDGE_CURVE('',#419,#420,#486,.T.);
#326=EDGE_CURVE('',#420,#418,#35,.T.);
#327=EDGE_CURVE('',#421,#418,#36,.T.);
#328=EDGE_CURVE('',#422,#420,#37,.T.);
#329=EDGE_CURVE('',#422,#421,#38,.T.);
#330=EDGE_CURVE('',#421,#423,#487,.T.);
#331=EDGE_CURVE('',#422,#424,#488,.T.);
#332=EDGE_CURVE('',#424,#423,#39,.T.);
#333=EDGE_CURVE('',#425,#423,#40,.T.);
#334=EDGE_CURVE('',#426,#424,#41,.T.);
#335=EDGE_CURVE('',#426,#425,#132,.F.);
#336=EDGE_CURVE('',#425,#427,#489,.T.);
#337=EDGE_CURVE('',#426,#428,#490,.T.);
#338=EDGE_CURVE('',#428,#427,#42,.T.);
#339=EDGE_CURVE('',#429,#427,#43,.T.);
#340=EDGE_CURVE('',#430,#428,#44,.T.);
#341=EDGE_CURVE('',#430,#429,#45,.T.);
#342=EDGE_CURVE('',#429,#431,#491,.T.);
#343=EDGE_CURVE('',#430,#432,#492,.T.);
#344=EDGE_CURVE('',#432,#431,#46,.T.);
#345=EDGE_CURVE('',#433,#431,#47,.T.);
#346=EDGE_CURVE('',#434,#432,#48,.T.);
#347=EDGE_CURVE('',#434,#433,#133,.F.);
#348=EDGE_CURVE('',#433,#435,#493,.T.);
#349=EDGE_CURVE('',#434,#436,#494,.T.);
#350=EDGE_CURVE('',#436,#435,#49,.T.);
#351=EDGE_CURVE('',#437,#435,#50,.T.);
#352=EDGE_CURVE('',#438,#436,#51,.T.);
#353=EDGE_CURVE('',#438,#437,#52,.T.);
#354=EDGE_CURVE('',#437,#439,#495,.T.);
#355=EDGE_CURVE('',#438,#440,#496,.T.);
#356=EDGE_CURVE('',#440,#439,#53,.T.);
#357=EDGE_CURVE('',#441,#439,#54,.T.);
#358=EDGE_CURVE('',#442,#440,#55,.T.);
#359=EDGE_CURVE('',#442,#441,#56,.T.);
#360=EDGE_CURVE('',#443,#441,#497,.T.);
#361=EDGE_CURVE('',#444,#442,#498,.T.);
#362=EDGE_CURVE('',#444,#443,#57,.T.);
#363=EDGE_CURVE('',#445,#443,#58,.T.);
#364=EDGE_CURVE('',#446,#444,#59,.T.);
#365=EDGE_CURVE('',#446,#445,#60,.T.);
#366=EDGE_CURVE('',#447,#445,#499,.T.);
#367=EDGE_CURVE('',#448,#446,#500,.T.);
#368=EDGE_CURVE('',#448,#447,#61,.T.);
#369=EDGE_CURVE('',#449,#447,#62,.T.);
#370=EDGE_CURVE('',#450,#448,#63,.T.);
#371=EDGE_CURVE('',#450,#449,#64,.T.);
#372=EDGE_CURVE('',#449,#451,#501,.T.);
#373=EDGE_CURVE('',#450,#452,#502,.T.);
#374=EDGE_CURVE('',#452,#451,#65,.T.);
#375=EDGE_CURVE('',#453,#451,#66,.T.);
#376=EDGE_CURVE('',#454,#452,#67,.T.);
#377=EDGE_CURVE('',#454,#453,#68,.T.);
#378=EDGE_CURVE('',#453,#455,#503,.T.);
#379=EDGE_CURVE('',#454,#456,#504,.T.);
#380=EDGE_CURVE('',#456,#455,#69,.T.);
#381=EDGE_CURVE('',#457,#455,#70,.T.);
#382=EDGE_CURVE('',#458,#456,#71,.T.);
#383=EDGE_CURVE('',#458,#457,#134,.F.);
#384=EDGE_CURVE('',#457,#459,#505,.T.);
#385=EDGE_CURVE('',#458,#460,#506,.T.);
#386=EDGE_CURVE('',#460,#459,#72,.T.);
#387=EDGE_CURVE('',#461,#459,#73,.T.);
#388=EDGE_CURVE('',#462,#460,#74,.T.);
#389=EDGE_CURVE('',#462,#461,#75,.T.);
#390=EDGE_CURVE('',#463,#461,#507,.T.);
#391=EDGE_CURVE('',#464,#462,#508,.T.);
#392=EDGE_CURVE('',#464,#463,#76,.T.);
#393=EDGE_CURVE('',#465,#463,#77,.T.);
#394=EDGE_CURVE('',#466,#464,#78,.T.);
#395=EDGE_CURVE('',#466,#465,#79,.T.);
#396=EDGE_CURVE('',#465,#467,#509,.T.);
#397=EDGE_CURVE('',#466,#468,#510,.T.);
#398=EDGE_CURVE('',#468,#467,#80,.T.);
#399=EDGE_CURVE('',#417,#467,#81,.T.);
#400=EDGE_CURVE('',#419,#468,#82,.T.);
#401=EDGE_CURVE('',#469,#469,#511,.F.);
#402=EDGE_CURVE('',#470,#470,#512,.F.);
#403=EDGE_CURVE('',#471,#471,#513,.F.);
#404=EDGE_CURVE('',#472,#472,#514,.F.);
#405=EDGE_CURVE('',#473,#473,#515,.F.);
#406=EDGE_CURVE('',#474,#474,#516,.T.);
#407=EDGE_CURVE('',#475,#475,#517,.T.);
#408=EDGE_CURVE('',#476,#476,#518,.F.);
#409=EDGE_CURVE('',#477,#477,#519,.T.);
#410=EDGE_CURVE('',#478,#478,#520,.T.);
#411=EDGE_CURVE('',#479,#479,#521,.F.);
#412=EDGE_CURVE('',#480,#480,#522,.T.);
#413=EDGE_CURVE('',#481,#481,#523,.T.);
#414=EDGE_CURVE('',#482,#482,#524,.F.);
#415=EDGE_CURVE('',#483,#483,#525,.T.);
#416=EDGE_CURVE('',#484,#484,#526,.T.);
#417=VERTEX_POINT('',#1036);
#418=VERTEX_POINT('',#1037);
#419=VERTEX_POINT('',#1042);
#420=VERTEX_POINT('',#1044);
#421=VERTEX_POINT('',#1048);
#422=VERTEX_POINT('',#1050);
#423=VERTEX_POINT('',#1054);
#424=VERTEX_POINT('',#1056);
#425=VERTEX_POINT('',#1060);
#426=VERTEX_POINT('',#1062);
#427=VERTEX_POINT('',#1069);
#428=VERTEX_POINT('',#1071);
#429=VERTEX_POINT('',#1075);
#430=VERTEX_POINT('',#1077);
#431=VERTEX_POINT('',#1081);
#432=VERTEX_POINT('',#1083);
#433=VERTEX_POINT('',#1087);
#434=VERTEX_POINT('',#1089);
#435=VERTEX_POINT('',#1096);
#436=VERTEX_POINT('',#1098);
#437=VERTEX_POINT('',#1102);
#438=VERTEX_POINT('',#1104);
#439=VERTEX_POINT('',#1108);
#440=VERTEX_POINT('',#1110);
#441=VERTEX_POINT('',#1114);
#442=VERTEX_POINT('',#1116);
#443=VERTEX_POINT('',#1120);
#444=VERTEX_POINT('',#1122);
#445=VERTEX_POINT('',#1126);
#446=VERTEX_POINT('',#1128);
#447=VERTEX_POINT('',#1132);
#448=VERTEX_POINT('',#1134);
#449=VERTEX_POINT('',#1138);
#450=VERTEX_POINT('',#1140);
#451=VERTEX_POINT('',#1144);
#452=VERTEX_POINT('',#1146);
#453=VERTEX_POINT('',#1150);
#454=VERTEX_POINT('',#1152);
#455=VERTEX_POINT('',#1156);
#456=VERTEX_POINT('',#1158);
#457=VERTEX_POINT('',#1162);
#458=VERTEX_POINT('',#1164);
#459=VERTEX_POINT('',#1171);
#460=VERTEX_POINT('',#1173);
#461=VERTEX_POINT('',#1177);
#462=VERTEX_POINT('',#1179);
#463=VERTEX_POINT('',#1183);
#464=VERTEX_POINT('',#1185);
#465=VERTEX_POINT('',#1189);
#466=VERTEX_POINT('',#1191);
#467=VERTEX_POINT('',#1195);
#468=VERTEX_POINT('',#1197);
#469=VERTEX_POINT('',#1204);
#470=VERTEX_POINT('',#1206);
#471=VERTEX_POINT('',#1208);
#472=VERTEX_POINT('',#1210);
#473=VERTEX_POINT('',#1214);
#474=VERTEX_POINT('',#1216);
#475=VERTEX_POINT('',#1219);
#476=VERTEX_POINT('',#1224);
#477=VERTEX_POINT('',#1226);
#478=VERTEX_POINT('',#1229);
#479=VERTEX_POINT('',#1234);
#480=VERTEX_POINT('',#1236);
#481=VERTEX_POINT('',#1239);
#482=VERTEX_POINT('',#1244);
#483=VERTEX_POINT('',#1246);
#484=VERTEX_POINT('',#1249);
#485=CIRCLE('',#726,0.00600001021235972);
#486=CIRCLE('',#727,0.00600001021235972);
#487=CIRCLE('',#730,0.00599940000007059);
#488=CIRCLE('',#731,0.00599940000007059);
#489=CIRCLE('',#734,0.00600001006599332);
#490=CIRCLE('',#735,0.00600001006599332);
#491=CIRCLE('',#738,0.00599994337904301);
#492=CIRCLE('',#739,0.00599994337904301);
#493=CIRCLE('',#742,0.00599996276287192);
#494=CIRCLE('',#743,0.00599996276287192);
#495=CIRCLE('',#746,0.00600000000002383);
#496=CIRCLE('',#747,0.00600000000002383);
#497=CIRCLE('',#750,0.00600040000009613);
#498=CIRCLE('',#751,0.00600040000009613);
#499=CIRCLE('',#754,0.00599996279424643);
#500=CIRCLE('',#755,0.00599996279424643);
#501=CIRCLE('',#758,0.00599990000000338);
#502=CIRCLE('',#759,0.00599990000000338);
#503=CIRCLE('',#762,0.00600000949091333);
#504=CIRCLE('',#763,0.00600000949091333);
#505=CIRCLE('',#766,0.00600005660948638);
#506=CIRCLE('',#767,0.00600005660948638);
#507=CIRCLE('',#770,0.00599997117644554);
#508=CIRCLE('',#771,0.00599997117644554);
#509=CIRCLE('',#774,0.00600050000025815);
#510=CIRCLE('',#775,0.00600050000025815);
#511=CIRCLE('',#778,0.002);
#512=CIRCLE('',#779,0.002);
#513=CIRCLE('',#780,0.002);
#514=CIRCLE('',#781,0.002);
#515=CIRCLE('',#784,0.001);
#516=CIRCLE('',#785,0.001);
#517=CIRCLE('',#787,0.002);
#518=CIRCLE('',#791,0.001);
#519=CIRCLE('',#792,0.001);
#520=CIRCLE('',#794,0.002);
#521=CIRCLE('',#798,0.001);
#522=CIRCLE('',#799,0.001);
#523=CIRCLE('',#801,0.002);
#524=CIRCLE('',#805,0.001);
#525=CIRCLE('',#806,0.001);
#526=CIRCLE('',#808,0.002);
#527=EDGE_LOOP('',(#135,#136,#137,#138));
#528=EDGE_LOOP('',(#139,#140,#141,#142));
#529=EDGE_LOOP('',(#143,#144,#145,#146));
#530=EDGE_LOOP('',(#147,#148,#149,#150));
#531=EDGE_LOOP('',(#151,#152,#153,#154));
#532=EDGE_LOOP('',(#155,#156,#157,#158));
#533=EDGE_LOOP('',(#159,#160,#161,#162));
#534=EDGE_LOOP('',(#163,#164,#165,#166));
#535=EDGE_LOOP('',(#167,#168,#169,#170));
#536=EDGE_LOOP('',(#171,#172,#173,#174));
#537=EDGE_LOOP('',(#175,#176,#177,#178));
#538=EDGE_LOOP('',(#179,#180,#181,#182));
#539=EDGE_LOOP('',(#183,#184,#185,#186));
#540=EDGE_LOOP('',(#187,#188,#189,#190));
#541=EDGE_LOOP('',(#191,#192,#193,#194));
#542=EDGE_LOOP('',(#195,#196,#197,#198));
#543=EDGE_LOOP('',(#199,#200,#201,#202));
#544=EDGE_LOOP('',(#203,#204,#205,#206));
#545=EDGE_LOOP('',(#207,#208,#209,#210));
#546=EDGE_LOOP('',(#211,#212,#213,#214));
#547=EDGE_LOOP('',(#215,#216,#217,#218));
#548=EDGE_LOOP('',(#219,#220,#221,#222));
#549=EDGE_LOOP('',(#223,#224,#225,#226));
#550=EDGE_LOOP('',(#227,#228,#229,#230));
#551=EDGE_LOOP('',(#231,#232,#233,#234));
#552=EDGE_LOOP('',(#235,#236,#237,#238));
#553=EDGE_LOOP('',(#239));
#554=EDGE_LOOP('',(#240));
#555=EDGE_LOOP('',(#241));
#556=EDGE_LOOP('',(#242));
#557=EDGE_LOOP('',(#243,#244,#245,#246,#247,#248,#249,#250,#251,#252,#253,#254,#255,#256,#257,#258,#259,#260,#261,#262,#263,#264,#265,#266,#267,#268));
#558=EDGE_LOOP('',(#269,#270,#271,#272,#273,#274,#275,#276,#277,#278,#279,#280,#281,#282,#283,#284,#285,#286,#287,#288,#289,#290,#291,#292,#293,#294));
#559=EDGE_LOOP('',(#295));
#560=EDGE_LOOP('',(#296));
#561=EDGE_LOOP('',(#297));
#562=EDGE_LOOP('',(#298));
#563=EDGE_LOOP('',(#299));
#564=EDGE_LOOP('',(#300));
#565=EDGE_LOOP('',(#301));
#566=EDGE_LOOP('',(#302));
#567=EDGE_LOOP('',(#303));
#568=EDGE_LOOP('',(#304));
#569=EDGE_LOOP('',(#305));
#570=EDGE_LOOP('',(#306));
#571=EDGE_LOOP('',(#307));
#572=EDGE_LOOP('',(#308));
#573=EDGE_LOOP('',(#309));
#574=EDGE_LOOP('',(#310));
#575=EDGE_LOOP('',(#311));
#576=EDGE_LOOP('',(#312));
#577=EDGE_LOOP('',(#313));
#578=EDGE_LOOP('',(#314));
#579=EDGE_LOOP('',(#315));
#580=EDGE_LOOP('',(#316));
#581=EDGE_LOOP('',(#317));
#582=EDGE_LOOP('',(#318));
#583=EDGE_LOOP('',(#319));
#584=EDGE_LOOP('',(#320));
#585=EDGE_LOOP('',(#321));
#586=EDGE_LOOP('',(#322));
#587=FACE_BOUND('',#527,.T.);
#588=FACE_BOUND('',#528,.T.);
#589=FACE_BOUND('',#529,.T.);
#590=FACE_BOUND('',#530,.T.);
#591=FACE_BOUND('',#531,.T.);
#592=FACE_BOUND('',#532,.T.);
#593=FACE_BOUND('',#533,.T.);
#594=FACE_BOUND('',#534,.T.);
#595=FACE_BOUND('',#535,.T.);
#596=FACE_BOUND('',#536,.T.);
#597=FACE_BOUND('',#537,.T.);
#598=FACE_BOUND('',#538,.T.);
#599=FACE_BOUND('',#539,.T.);
#600=FACE_BOUND('',#540,.T.);
#601=FACE_BOUND('',#541,.T.);
#602=FACE_BOUND('',#542,.T.);
#603=FACE_BOUND('',#543,.T.);
#604=FACE_BOUND('',#544,.T.);
#605=FACE_BOUND('',#545,.T.);
#606=FACE_BOUND('',#546,.T.);
#607=FACE_BOUND('',#547,.T.);
#608=FACE_BOUND('',#548,.T.);
#609=FACE_BOUND('',#549,.T.);
#610=FACE_BOUND('',#550,.T.);
#611=FACE_BOUND('',#551,.T.);
#612=FACE_BOUND('',#552,.T.);
#613=FACE_BOUND('',#553,.T.);
#614=FACE_BOUND('',#554,.T.);
#615=FACE_BOUND('',#555,.T.);
#616=FACE_BOUND('',#556,.T.);
#617=FACE_BOUND('',#557,.T.);
#618=FACE_BOUND('',#558,.T.);
#619=FACE_BOUND('',#559,.T.);
#620=FACE_BOUND('',#560,.T.);
#621=FACE_BOUND('',#561,.T.);
#622=FACE_BOUND('',#562,.T.);
#623=FACE_BOUND('',#563,.T.);
#624=FACE_BOUND('',#564,.T.);
#625=FACE_BOUND('',#565,.T.);
#626=FACE_BOUND('',#566,.T.);
#627=FACE_BOUND('',#567,.T.);
#628=FACE_BOUND('',#568,.T.);
#629=FACE_BOUND('',#569,.T.);
#630=FACE_BOUND('',#570,.T.);
#631=FACE_BOUND('',#571,.T.);
#632=FACE_BOUND('',#572,.T.);
#633=FACE_BOUND('',#573,.T.);
#634=FACE_BOUND('',#574,.T.);
#635=FACE_BOUND('',#575,.T.);
#636=FACE_BOUND('',#576,.T.);
#637=FACE_BOUND('',#577,.T.);
#638=FACE_BOUND('',#578,.T.);
#639=FACE_BOUND('',#579,.T.);
#640=FACE_BOUND('',#580,.T.);
#641=FACE_BOUND('',#581,.T.);
#642=FACE_BOUND('',#582,.T.);
#643=FACE_BOUND('',#583,.T.);
#644=FACE_BOUND('',#584,.T.);
#645=FACE_BOUND('',#585,.T.);
#646=FACE_BOUND('',#586,.T.);
#647=CYLINDRICAL_SURFACE('',#725,0.00600001021235972);
#648=CYLINDRICAL_SURFACE('',#729,0.00599940000007059);
#649=CYLINDRICAL_SURFACE('',#733,0.00600001006599332);
#650=CYLINDRICAL_SURFACE('',#737,0.00599994337904301);
#651=CYLINDRICAL_SURFACE('',#741,0.00599996276287192);
#652=CYLINDRICAL_SURFACE('',#745,0.00600000000002383);
#653=CYLINDRICAL_SURFACE('',#749,0.00600040000009613);
#654=CYLINDRICAL_SURFACE('',#753,0.00599996279424643);
#655=CYLINDRICAL_SURFACE('',#757,0.00599990000000338);
#656=CYLINDRICAL_SURFACE('',#761,0.00600000949091333);
#657=CYLINDRICAL_SURFACE('',#765,0.00600005660948638);
#658=CYLINDRICAL_SURFACE('',#769,0.00599997117644554);
#659=CYLINDRICAL_SURFACE('',#773,0.00600050000025815);
#660=CYLINDRICAL_SURFACE('',#783,0.001);
#661=CYLINDRICAL_SURFACE('',#786,0.002);
#662=CYLINDRICAL_SURFACE('',#790,0.001);
#663=CYLINDRICAL_SURFACE('',#793,0.002);
#664=CYLINDRICAL_SURFACE('',#797,0.001);
#665=CYLINDRICAL_SURFACE('',#800,0.002);
#666=CYLINDRICAL_SURFACE('',#804,0.001);
#667=CYLINDRICAL_SURFACE('',#807,0.002);
#668=ADVANCED_FACE('',(#587),#647,.T.);
#669=ADVANCED_FACE('',(#588),#12,.T.);
#670=ADVANCED_FACE('',(#589),#648,.T.);
#671=ADVANCED_FACE('',(#590),#13,.T.);
#672=ADVANCED_FACE('',(#591),#649,.T.);
#673=ADVANCED_FACE('',(#592),#14,.T.);
#674=ADVANCED_FACE('',(#593),#650,.T.);
#675=ADVANCED_FACE('',(#594),#15,.T.);
#676=ADVANCED_FACE('',(#595),#651,.T.);
#677=ADVANCED_FACE('',(#596),#16,.T.);
#678=ADVANCED_FACE('',(#597),#652,.T.);
#679=ADVANCED_FACE('',(#598),#17,.T.);
#680=ADVANCED_FACE('',(#599),#653,.F.);
#681=ADVANCED_FACE('',(#600),#18,.T.);
#682=ADVANCED_FACE('',(#601),#654,.F.);
#683=ADVANCED_FACE('',(#602),#19,.T.);
#684=ADVANCED_FACE('',(#603),#655,.T.);
#685=ADVANCED_FACE('',(#604),#20,.T.);
#686=ADVANCED_FACE('',(#605),#656,.T.);
#687=ADVANCED_FACE('',(#606),#21,.T.);
#688=ADVANCED_FACE('',(#607),#657,.T.);
#689=ADVANCED_FACE('',(#608),#22,.T.);
#690=ADVANCED_FACE('',(#609),#658,.F.);
#691=ADVANCED_FACE('',(#610),#23,.T.);
#692=ADVANCED_FACE('',(#611),#659,.T.);
#693=ADVANCED_FACE('',(#612),#24,.T.);
#694=ADVANCED_FACE('',(#613,#614,#615,#616,#617),#25,.T.);
#695=ADVANCED_FACE('',(#618),#26,.F.);
#696=ADVANCED_FACE('',(#619,#620),#660,.F.);
#697=ADVANCED_FACE('',(#621,#622),#661,.T.);
#698=ADVANCED_FACE('',(#623,#624),#27,.T.);
#699=ADVANCED_FACE('',(#625),#28,.T.);
#700=ADVANCED_FACE('',(#626,#627),#662,.F.);
#701=ADVANCED_FACE('',(#628,#629),#663,.T.);
#702=ADVANCED_FACE('',(#630,#631),#29,.T.);
#703=ADVANCED_FACE('',(#632),#30,.T.);
#704=ADVANCED_FACE('',(#633,#634),#664,.F.);
#705=ADVANCED_FACE('',(#635,#636),#665,.T.);
#706=ADVANCED_FACE('',(#637,#638),#31,.T.);
#707=ADVANCED_FACE('',(#639),#32,.T.);
#708=ADVANCED_FACE('',(#640,#641),#666,.F.);
#709=ADVANCED_FACE('',(#642,#643),#667,.T.);
#710=ADVANCED_FACE('',(#644,#645),#33,.T.);
#711=ADVANCED_FACE('',(#646),#34,.T.);
#712=CLOSED_SHELL('',(#668,#669,#670,#671,#672,#673,#674,#675,#676,#677,#678,#679,#680,#681,#682,#683,#684,#685,#686,#687,#688,#689,#690,#691,#692,#693,#694,#695,#696,#697,#698,#699,#700,#701,#702,#703,#704,#705,#706,#707,#708,#709,#710,#711));
#713=STYLED_ITEM('',(#714),#721);
#714=PRESENTATION_STYLE_ASSIGNMENT((#715));
#715=SURFACE_STYLE_USAGE(.BOTH.,#716);
#716=SURFACE_SIDE_STYLE('',(#717));
#717=SURFACE_STYLE_FILL_AREA(#718);
#718=FILL_AREA_STYLE('',(#719));
#719=FILL_AREA_STYLE_COLOUR('',#720);
#720=COLOUR_RGB('',0.615686274509804,0.811764705882353,0.929411764705882);
#721=MANIFOLD_SOLID_BREP('Part 4',#712);
#722=SHAPE_DEFINITION_REPRESENTATION(#1258,#723);
#723=SHAPE_REPRESENTATION('Part 4',(#724),#1253);
#724=AXIS2_PLACEMENT_3D('',#1033,#811,#812);
#725=AXIS2_PLACEMENT_3D('',#1034,#813,#814);
#726=AXIS2_PLACEMENT_3D('',#1035,#815,#816);
#727=AXIS2_PLACEMENT_3D('',#1043,#817,#818);
#728=AXIS2_PLACEMENT_3D('',#1046,#820,#821);
#729=AXIS2_PLACEMENT_3D('',#1052,#825,#826);
#730=AXIS2_PLACEMENT_3D('',#1053,#827,#828);
#731=AXIS2_PLACEMENT_3D('',#1055,#829,#830);
#732=AXIS2_PLACEMENT_3D('',#1058,#832,#833);
#733=AXIS2_PLACEMENT_3D('',#1067,#836,#837);
#734=AXIS2_PLACEMENT_3D('',#1068,#838,#839);
#735=AXIS2_PLACEMENT_3D('',#1070,#840,#841);
#736=AXIS2_PLACEMENT_3D('',#1073,#843,#844);
#737=AXIS2_PLACEMENT_3D('',#1079,#848,#849);
#738=AXIS2_PLACEMENT_3D('',#1080,#850,#851);
#739=AXIS2_PLACEMENT_3D('',#1082,#852,#853);
#740=AXIS2_PLACEMENT_3D('',#1085,#855,#856);
#741=AXIS2_PLACEMENT_3D('',#1094,#859,#860);
#742=AXIS2_PLACEMENT_3D('',#1095,#861,#862);
#743=AXIS2_PLACEMENT_3D('',#1097,#863,#864);
#744=AXIS2_PLACEMENT_3D('',#1100,#866,#867);
#745=AXIS2_PLACEMENT_3D('',#1106,#871,#872);
#746=AXIS2_PLACEMENT_3D('',#1107,#873,#874);
#747=AXIS2_PLACEMENT_3D('',#1109,#875,#876);
#748=AXIS2_PLACEMENT_3D('',#1112,#878,#879);
#749=AXIS2_PLACEMENT_3D('',#1118,#883,#884);
#750=AXIS2_PLACEMENT_3D('',#1119,#885,#886);
#751=AXIS2_PLACEMENT_3D('',#1121,#887,#888);
#752=AXIS2_PLACEMENT_3D('',#1124,#890,#891);
#753=AXIS2_PLACEMENT_3D('',#1130,#895,#896);
#754=AXIS2_PLACEMENT_3D('',#1131,#897,#898);
#755=AXIS2_PLACEMENT_3D('',#1133,#899,#900);
#756=AXIS2_PLACEMENT_3D('',#1136,#902,#903);
#757=AXIS2_PLACEMENT_3D('',#1142,#907,#908);
#758=AXIS2_PLACEMENT_3D('',#1143,#909,#910);
#759=AXIS2_PLACEMENT_3D('',#1145,#911,#912);
#760=AXIS2_PLACEMENT_3D('',#1148,#914,#915);
#761=AXIS2_PLACEMENT_3D('',#1154,#919,#920);
#762=AXIS2_PLACEMENT_3D('',#1155,#921,#922);
#763=AXIS2_PLACEMENT_3D('',#1157,#923,#924);
#764=AXIS2_PLACEMENT_3D('',#1160,#926,#927);
#765=AXIS2_PLACEMENT_3D('',#1169,#930,#931);
#766=AXIS2_PLACEMENT_3D('',#1170,#932,#933);
#767=AXIS2_PLACEMENT_3D('',#1172,#934,#935);
#768=AXIS2_PLACEMENT_3D('',#1175,#937,#938);
#769=AXIS2_PLACEMENT_3D('',#1181,#942,#943);
#770=AXIS2_PLACEMENT_3D('',#1182,#944,#945);
#771=AXIS2_PLACEMENT_3D('',#1184,#946,#947);
#772=AXIS2_PLACEMENT_3D('',#1187,#949,#950);
#773=AXIS2_PLACEMENT_3D('',#1193,#954,#955);
#774=AXIS2_PLACEMENT_3D('',#1194,#956,#957);
#775=AXIS2_PLACEMENT_3D('',#1196,#958,#959);
#776=AXIS2_PLACEMENT_3D('',#1199,#961,#962);
#777=AXIS2_PLACEMENT_3D('',#1202,#965,#966);
#778=AXIS2_PLACEMENT_3D('',#1203,#967,#968);
#779=AXIS2_PLACEMENT_3D('',#1205,#969,#970);
#780=AXIS2_PLACEMENT_3D('',#1207,#971,#972);
#781=AXIS2_PLACEMENT_3D('',#1209,#973,#974);
#782=AXIS2_PLACEMENT_3D('',#1211,#975,#976);
#783=AXIS2_PLACEMENT_3D('',#1212,#977,#978);
#784=AXIS2_PLACEMENT_3D('',#1213,#979,#980);
#785=AXIS2_PLACEMENT_3D('',#1215,#981,#982);
#786=AXIS2_PLACEMENT_3D('',#1217,#983,#984);
#787=AXIS2_PLACEMENT_3D('',#1218,#985,#986);
#788=AXIS2_PLACEMENT_3D('',#1220,#987,#988);
#789=AXIS2_PLACEMENT_3D('',#1221,#989,#990);
#790=AXIS2_PLACEMENT_3D('',#1222,#991,#992);
#791=AXIS2_PLACEMENT_3D('',#1223,#993,#994);
#792=AXIS2_PLACEMENT_3D('',#1225,#995,#996);
#793=AXIS2_PLACEMENT_3D('',#1227,#997,#998);
#794=AXIS2_PLACEMENT_3D('',#1228,#999,#1000);
#795=AXIS2_PLACEMENT_3D('',#1230,#1001,#1002);
#796=AXIS2_PLACEMENT_3D('',#1231,#1003,#1004);
#797=AXIS2_PLACEMENT_3D('',#1232,#1005,#1006);
#798=AXIS2_PLACEMENT_3D('',#1233,#1007,#1008);
#799=AXIS2_PLACEMENT_3D('',#1235,#1009,#1010);
#800=AXIS2_PLACEMENT_3D('',#1237,#1011,#1012);
#801=AXIS2_PLACEMENT_3D('',#1238,#1013,#1014);
#802=AXIS2_PLACEMENT_3D('',#1240,#1015,#1016);
#803=AXIS2_PLACEMENT_3D('',#1241,#1017,#1018);
#804=AXIS2_PLACEMENT_3D('',#1242,#1019,#1020);
#805=AXIS2_PLACEMENT_3D('',#1243,#1021,#1022);
#806=AXIS2_PLACEMENT_3D('',#1245,#1023,#1024);
#807=AXIS2_PLACEMENT_3D('',#1247,#1025,#1026);
#808=AXIS2_PLACEMENT_3D('',#1248,#1027,#1028);
#809=AXIS2_PLACEMENT_3D('',#1250,#1029,#1030);
#810=AXIS2_PLACEMENT_3D('',#1251,#1031,#1032);
#811=DIRECTION('',(0.,0.,1.));
#812=DIRECTION('',(1.,0.,0.));
#813=DIRECTION('',(0.,0.,-1.));
#814=DIRECTION('',(1.,0.,0.));
#815=DIRECTION('',(0.,0.,-1.));
#816=DIRECTION('',(-1.,0.,0.));
#817=DIRECTION('',(0.,0.,-1.));
#818=DIRECTION('',(-1.,0.,0.));
#819=DIRECTION('',(0.,0.,-1.));
#820=DIRECTION('',(-0.175731582801066,0.984438119338251,0.));
#821=DIRECTION('',(0.984438119338251,0.175731582801066,0.));
#822=DIRECTION('',(-0.984438119338251,-0.175731582801066,0.));
#823=DIRECTION('',(-0.984438119338251,-0.175731582801066,0.));
#824=DIRECTION('',(0.,0.,-1.));
#825=DIRECTION('',(0.,0.,-1.));
#826=DIRECTION('',(1.,0.,0.));
#827=DIRECTION('',(0.,0.,-1.));
#828=DIRECTION('',(-1.,0.,0.));
#829=DIRECTION('',(0.,0.,-1.));
#830=DIRECTION('',(-1.,0.,0.));
#831=DIRECTION('',(0.,0.,-1.));
#832=DIRECTION('',(0.,1.,0.));
#833=DIRECTION('',(0.,0.,1.));
#834=DIRECTION('',(-1.,0.,0.));
#835=DIRECTION('',(-1.,0.,0.));
#836=DIRECTION('',(0.,0.,-1.));
#837=DIRECTION('',(1.,0.,0.));
#838=DIRECTION('',(0.,0.,-1.));
#839=DIRECTION('',(-1.,0.,0.));
#840=DIRECTION('',(0.,0.,-1.));
#841=DIRECTION('',(-1.,0.,0.));
#842=DIRECTION('',(0.,0.,-1.));
#843=DIRECTION('',(0.234152207073905,0.972199950587542,0.));
#844=DIRECTION('',(0.972199950587542,-0.234152207073905,0.));
#845=DIRECTION('',(-0.972199950587542,0.234152207073905,0.));
#846=DIRECTION('',(-0.972199950587542,0.234152207073905,0.));
#847=DIRECTION('',(0.,0.,-1.));
#848=DIRECTION('',(0.,0.,-1.));
#849=DIRECTION('',(1.,0.,0.));
#850=DIRECTION('',(0.,0.,-1.));
#851=DIRECTION('',(-1.,0.,0.));
#852=DIRECTION('',(0.,0.,-1.));
#853=DIRECTION('',(-1.,0.,0.));
#854=DIRECTION('',(0.,0.,-1.));
#855=DIRECTION('',(0.999999279423201,-0.00120048035361513,0.));
#856=DIRECTION('',(-0.00120048035361513,-0.999999279423201,0.));
#857=DIRECTION('',(0.00120048035361513,0.999999279423201,0.));
#858=DIRECTION('',(0.00120048035361513,0.999999279423201,0.));
#859=DIRECTION('',(0.,0.,-1.));
#860=DIRECTION('',(1.,0.,0.));
#861=DIRECTION('',(0.,0.,-1.));
#862=DIRECTION('',(-1.,0.,0.));
#863=DIRECTION('',(0.,0.,-1.));
#864=DIRECTION('',(-1.,0.,0.));
#865=DIRECTION('',(0.,0.,-1.));
#866=DIRECTION('',(0.442292485979019,-0.896870869661012,0.));
#867=DIRECTION('',(-0.896870869661012,-0.442292485979019,0.));
#868=DIRECTION('',(0.896870869661012,0.442292485979019,0.));
#869=DIRECTION('',(0.896870869661012,0.442292485979019,0.));
#870=DIRECTION('',(0.,0.,-1.));
#871=DIRECTION('',(0.,0.,-1.));
#872=DIRECTION('',(1.,0.,0.));
#873=DIRECTION('',(0.,0.,-1.));
#874=DIRECTION('',(-1.,0.,0.));
#875=DIRECTION('',(0.,0.,-1.));
#876=DIRECTION('',(-1.,0.,0.));
#877=DIRECTION('',(0.,0.,-1.));
#878=DIRECTION('',(0.,-1.,0.));
#879=DIRECTION('',(0.,0.,-1.));
#880=DIRECTION('',(1.,0.,0.));
#881=DIRECTION('',(1.,0.,0.));
#882=DIRECTION('',(0.,0.,-1.));
#883=DIRECTION('',(0.,0.,-1.));
#884=DIRECTION('',(1.,0.,0.));
#885=DIRECTION('',(0.,0.,-1.));
#886=DIRECTION('',(-1.,0.,0.));
#887=DIRECTION('',(0.,0.,-1.));
#888=DIRECTION('',(-1.,0.,0.));
#889=DIRECTION('',(0.,0.,-1.));
#890=DIRECTION('',(0.29827497816818,-0.954479982712457,0.));
#891=DIRECTION('',(-0.954479982712457,-0.29827497816818,0.));
#892=DIRECTION('',(0.954479982712457,0.29827497816818,0.));
#893=DIRECTION('',(0.954479982712457,0.29827497816818,0.));
#894=DIRECTION('',(0.,0.,-1.));
#895=DIRECTION('',(0.,0.,-1.));
#896=DIRECTION('',(1.,0.,0.));
#897=DIRECTION('',(0.,0.,-1.));
#898=DIRECTION('',(-1.,0.,0.));
#899=DIRECTION('',(0.,0.,-1.));
#900=DIRECTION('',(-1.,0.,0.));
#901=DIRECTION('',(0.,0.,-1.));
#902=DIRECTION('',(0.490261210243729,-0.871575553655765,0.));
#903=DIRECTION('',(-0.871575553655765,-0.490261210243729,0.));
#904=DIRECTION('',(0.871575553655765,0.490261210243729,0.));
#905=DIRECTION('',(0.871575553655765,0.490261210243729,0.));
#906=DIRECTION('',(0.,0.,-1.));
#907=DIRECTION('',(0.,0.,-1.));
#908=DIRECTION('',(1.,0.,0.));
#909=DIRECTION('',(0.,0.,-1.));
#910=DIRECTION('',(-1.,0.,0.));
#911=DIRECTION('',(0.,0.,-1.));
#912=DIRECTION('',(-1.,0.,0.));
#913=DIRECTION('',(0.,0.,-1.));
#914=DIRECTION('',(0.,-1.,0.));
#915=DIRECTION('',(0.,0.,-1.));
#916=DIRECTION('',(1.,0.,0.));
#917=DIRECTION('',(1.,0.,0.));
#918=DIRECTION('',(0.,0.,-1.));
#919=DIRECTION('',(0.,0.,-1.));
#920=DIRECTION('',(1.,0.,0.));
#921=DIRECTION('',(0.,0.,-1.));
#922=DIRECTION('',(-1.,0.,0.));
#923=DIRECTION('',(0.,0.,-1.));
#924=DIRECTION('',(-1.,0.,0.));
#925=DIRECTION('',(0.,0.,-1.));
#926=DIRECTION('',(-0.88318032570084,-0.469033593994033,0.));
#927=DIRECTION('',(-0.469033593994033,0.88318032570084,0.));
#928=DIRECTION('',(0.469033593994033,-0.88318032570084,0.));
#929=DIRECTION('',(0.469033593994033,-0.88318032570084,0.));
#930=DIRECTION('',(0.,0.,-1.));
#931=DIRECTION('',(1.,0.,0.));
#932=DIRECTION('',(0.,0.,-1.));
#933=DIRECTION('',(-1.,0.,0.));
#934=DIRECTION('',(0.,0.,-1.));
#935=DIRECTION('',(-1.,0.,0.));
#936=DIRECTION('',(0.,0.,-1.));
#937=DIRECTION('',(-0.965443969309978,0.260610709916141,0.));
#938=DIRECTION('',(0.260610709916141,0.965443969309978,0.));
#939=DIRECTION('',(-0.260610709916141,-0.965443969309978,0.));
#940=DIRECTION('',(-0.260610709916141,-0.965443969309978,0.));
#941=DIRECTION('',(0.,0.,-1.));
#942=DIRECTION('',(0.,0.,-1.));
#943=DIRECTION('',(1.,0.,0.));
#944=DIRECTION('',(0.,0.,-1.));
#945=DIRECTION('',(-1.,0.,0.));
#946=DIRECTION('',(0.,0.,-1.));
#947=DIRECTION('',(-1.,0.,0.));
#948=DIRECTION('',(0.,0.,-1.));
#949=DIRECTION('',(-0.998542273110113,-0.0539752611118108,0.));
#950=DIRECTION('',(-0.0539752611118108,0.998542273110113,0.));
#951=DIRECTION('',(0.0539752611118108,-0.998542273110113,0.));
#952=DIRECTION('',(0.0539752611118108,-0.998542273110113,0.));
#953=DIRECTION('',(0.,0.,-1.));
#954=DIRECTION('',(0.,0.,-1.));
#955=DIRECTION('',(1.,0.,0.));
#956=DIRECTION('',(0.,0.,-1.));
#957=DIRECTION('',(-1.,0.,0.));
#958=DIRECTION('',(0.,0.,-1.));
#959=DIRECTION('',(-1.,0.,0.));
#960=DIRECTION('',(0.,0.,-1.));
#961=DIRECTION('',(-1.,0.,0.));
#962=DIRECTION('',(0.,0.,-1.));
#963=DIRECTION('',(0.,-1.,0.));
#964=DIRECTION('',(0.,-1.,0.));
#965=DIRECTION('',(0.,0.,1.));
#966=DIRECTION('',(-1.,0.,0.));
#967=DIRECTION('',(0.,0.,-1.));
#968=DIRECTION('',(-1.,0.,0.));
#969=DIRECTION('',(0.,0.,-1.));
#970=DIRECTION('',(-1.,0.,0.));
#971=DIRECTION('',(0.,0.,-1.));
#972=DIRECTION('',(-1.,0.,0.));
#973=DIRECTION('',(0.,0.,-1.));
#974=DIRECTION('',(-1.,0.,0.));
#975=DIRECTION('',(0.,0.,1.));
#976=DIRECTION('',(-1.,0.,0.));
#977=DIRECTION('',(0.,0.,-1.));
#978=DIRECTION('',(1.,0.,0.));
#979=DIRECTION('',(0.,0.,-1.));
#980=DIRECTION('',(-1.,0.,0.));
#981=DIRECTION('',(0.,0.,-1.));
#982=DIRECTION('',(-1.,0.,0.));
#983=DIRECTION('',(0.,0.,-1.));
#984=DIRECTION('',(1.,0.,0.));
#985=DIRECTION('',(0.,0.,-1.));
#986=DIRECTION('',(-1.,0.,0.));
#987=DIRECTION('',(0.,0.,1.));
#988=DIRECTION('',(-1.,0.,0.));
#989=DIRECTION('',(0.,0.,1.));
#990=DIRECTION('',(-1.,0.,0.));
#991=DIRECTION('',(0.,0.,-1.));
#992=DIRECTION('',(1.,0.,0.));
#993=DIRECTION('',(0.,0.,-1.));
#994=DIRECTION('',(-1.,0.,0.));
#995=DIRECTION('',(0.,0.,-1.));
#996=DIRECTION('',(-1.,0.,0.));
#997=DIRECTION('',(0.,0.,-1.));
#998=DIRECTION('',(1.,0.,0.));
#999=DIRECTION('',(0.,0.,-1.));
#1000=DIRECTION('',(-1.,0.,0.));
#1001=DIRECTION('',(0.,0.,1.));
#1002=DIRECTION('',(-1.,0.,0.));
#1003=DIRECTION('',(0.,0.,1.));
#1004=DIRECTION('',(-1.,0.,0.));
#1005=DIRECTION('',(0.,0.,-1.));
#1006=DIRECTION('',(1.,0.,0.));
#1007=DIRECTION('',(0.,0.,-1.));
#1008=DIRECTION('',(-1.,0.,0.));
#1009=DIRECTION('',(0.,0.,-1.));
#1010=DIRECTION('',(-1.,0.,0.));
#1011=DIRECTION('',(0.,0.,-1.));
#1012=DIRECTION('',(1.,0.,0.));
#1013=DIRECTION('',(0.,0.,-1.));
#1014=DIRECTION('',(-1.,0.,0.));
#1015=DIRECTION('',(0.,0.,1.));
#1016=DIRECTION('',(-1.,0.,0.));
#1017=DIRECTION('',(0.,0.,1.));
#1018=DIRECTION('',(-1.,0.,0.));
#1019=DIRECTION('',(0.,0.,-1.));
#1020=DIRECTION('',(1.,0.,0.));
#1021=DIRECTION('',(0.,0.,-1.));
#1022=DIRECTION('',(-1.,0.,0.));
#1023=DIRECTION('',(0.,0.,-1.));
#1024=DIRECTION('',(-1.,0.,0.));
#1025=DIRECTION('',(0.,0.,-1.));
#1026=DIRECTION('',(1.,0.,0.));
#1027=DIRECTION('',(0.,0.,-1.));
#1028=DIRECTION('',(-1.,0.,0.));
#1029=DIRECTION('',(0.,0.,1.));
#1030=DIRECTION('',(-1.,0.,0.));
#1031=DIRECTION('',(0.,0.,1.));
#1032=DIRECTION('',(-1.,0.,0.));
#1033=CARTESIAN_POINT('',(0.,0.,0.));
#1034=CARTESIAN_POINT('',(0.01800001677295,0.0485783317963369,-0.0105));
#1035=CARTESIAN_POINT('',(0.01800001677295,0.0485783317963369,-0.0125));
#1036=CARTESIAN_POINT('',(0.0120000116667702,0.0485783367962635,-0.0125));
#1037=CARTESIAN_POINT('',(0.0169456267729652,0.0544849707963396,-0.0125));
#1038=CARTESIAN_POINT('',(0.01200001677295,0.0485783417961901,-0.0125));
#1039=CARTESIAN_POINT('',(0.01200001677295,0.0485783417961901,-0.0118333333333333));
#1040=CARTESIAN_POINT('',(0.01200001677295,0.0485783417961901,-0.0111666666666667));
#1041=CARTESIAN_POINT('',(0.01200001677295,0.0485783417961901,-0.0105));
#1042=CARTESIAN_POINT('',(0.0120000116667702,0.0485783367962635,-0.0105));
#1043=CARTESIAN_POINT('',(0.01800001677295,0.0485783317963369,-0.0105));
#1044=CARTESIAN_POINT('',(0.0169456267729652,0.0544849707963396,-0.0105));
#1045=CARTESIAN_POINT('',(0.0169456267729652,0.0544849707963396,-0.0105));
#1046=CARTESIAN_POINT('',(0.04838848677295,0.0600978208547099,-0.0105));
#1047=CARTESIAN_POINT('',(0.04838848677295,0.0600978208547099,-0.0125));
#1048=CARTESIAN_POINT('',(0.06917695677295,0.0638087607963369,-0.0125));
#1049=CARTESIAN_POINT('',(0.04838848677295,0.0600978208547099,-0.0105));
#1050=CARTESIAN_POINT('',(0.06917695677295,0.0638087607963369,-0.0105));
#1051=CARTESIAN_POINT('',(0.06917695677295,0.0638087607963369,-0.0105));
#1052=CARTESIAN_POINT('',(0.0702313167729502,0.0579027317963364,-0.0105));
#1053=CARTESIAN_POINT('',(0.0702313167729502,0.0579027317963364,-0.0125));
#1054=CARTESIAN_POINT('',(0.0702313457732331,0.0639021317963369,-0.0125));
#1055=CARTESIAN_POINT('',(0.0702313167729502,0.0579027317963364,-0.0105));
#1056=CARTESIAN_POINT('',(0.0702313457732331,0.0639021317963369,-0.0105));
#1057=CARTESIAN_POINT('',(0.0702313457732331,0.0639021317963369,-0.0105));
#1058=CARTESIAN_POINT('',(0.08710950227295,0.0639021317963369,-0.0105));
#1059=CARTESIAN_POINT('',(0.08710950227295,0.0639021317963369,-0.0125));
#1060=CARTESIAN_POINT('',(0.103987658772973,0.0639021368292602,-0.0125));
#1061=CARTESIAN_POINT('',(0.08710950227295,0.0639021317963369,-0.0105));
#1062=CARTESIAN_POINT('',(0.103987658772973,0.0639021368292602,-0.0105));
#1063=CARTESIAN_POINT('',(0.103987658772961,0.0639021317963369,-0.0125));
#1064=CARTESIAN_POINT('',(0.103987658772961,0.0639021317963369,-0.0118333333333333));
#1065=CARTESIAN_POINT('',(0.103987658772961,0.0639021317963369,-0.0111666666666667));
#1066=CARTESIAN_POINT('',(0.103987658772961,0.0639021317963369,-0.0105));
#1067=CARTESIAN_POINT('',(0.10398761677295,0.0579021317963372,-0.0105));
#1068=CARTESIAN_POINT('',(0.10398761677295,0.0579021317963372,-0.0125));
#1069=CARTESIAN_POINT('',(0.105392571773065,0.0637353317963092,-0.0125));
#1070=CARTESIAN_POINT('',(0.10398761677295,0.0579021317963372,-0.0105));
#1071=CARTESIAN_POINT('',(0.105392571773065,0.0637353317963092,-0.0105));
#1072=CARTESIAN_POINT('',(0.105392571773065,0.0637353317963092,-0.0105));
#1073=CARTESIAN_POINT('',(0.12869591227295,0.0581227737963369,-0.0105));
#1074=CARTESIAN_POINT('',(0.12869591227295,0.0581227737963369,-0.0125));
#1075=CARTESIAN_POINT('',(0.15199925277295,0.0525102157963369,-0.0125));
#1076=CARTESIAN_POINT('',(0.12869591227295,0.0581227737963369,-0.0105));
#1077=CARTESIAN_POINT('',(0.15199925277295,0.0525102157963369,-0.0105));
#1078=CARTESIAN_POINT('',(0.15199925277295,0.0525102157963369,-0.0105));
#1079=CARTESIAN_POINT('',(0.15059439677295,0.0466770617963369,-0.0105));
#1080=CARTESIAN_POINT('',(0.15059439677295,0.0466770617963369,-0.0125));
#1081=CARTESIAN_POINT('',(0.15659433577295,0.0466698127964457,-0.0125));
#1082=CARTESIAN_POINT('',(0.15059439677295,0.0466770617963369,-0.0105));
#1083=CARTESIAN_POINT('',(0.15659433577295,0.0466698127964457,-0.0105));
#1084=CARTESIAN_POINT('',(0.15659433577295,0.0466698127964457,-0.0105));
#1085=CARTESIAN_POINT('',(0.15654941277295,0.00924898579633686,-0.0105));
#1086=CARTESIAN_POINT('',(0.15654941277295,0.00924898579633686,-0.0125));
#1087=CARTESIAN_POINT('',(0.156504482510552,-0.0281718411949982,-0.0125));
#1088=CARTESIAN_POINT('',(0.15654941277295,0.00924898579633686,-0.0105));
#1089=CARTESIAN_POINT('',(0.156504482510552,-0.0281718411949982,-0.0105));
#1090=CARTESIAN_POINT('',(0.15650448977295,-0.0281718412036986,-0.0125));
#1091=CARTESIAN_POINT('',(0.15650448977295,-0.0281718412036986,-0.0118333333333333));
#1092=CARTESIAN_POINT('',(0.15650448977295,-0.0281718412036986,-0.0111666666666667));
#1093=CARTESIAN_POINT('',(0.15650448977295,-0.0281718412036986,-0.0105));
#1094=CARTESIAN_POINT('',(0.15050451677295,-0.0281646682036631,-0.0105));
#1095=CARTESIAN_POINT('',(0.15050451677295,-0.0281646682036631,-0.0125));
#1096=CARTESIAN_POINT('',(0.153158248772633,-0.0335458632038195,-0.0125));
#1097=CARTESIAN_POINT('',(0.15050451677295,-0.0281646682036631,-0.0105));
#1098=CARTESIAN_POINT('',(0.153158248772633,-0.0335458632038195,-0.0105));
#1099=CARTESIAN_POINT('',(0.153158248772633,-0.0335458632038195,-0.0105));
#1100=CARTESIAN_POINT('',(0.13720650177295,-0.0414124782036632,-0.0105));
#1101=CARTESIAN_POINT('',(0.13720650177295,-0.0414124782036632,-0.0125));
#1102=CARTESIAN_POINT('',(0.12125475477295,-0.0492790932036631,-0.0125));
#1103=CARTESIAN_POINT('',(0.13720650177295,-0.0414124782036632,-0.0105));
#1104=CARTESIAN_POINT('',(0.12125475477295,-0.0492790932036631,-0.0105));
#1105=CARTESIAN_POINT('',(0.12125475477295,-0.0492790932036631,-0.0105));
#1106=CARTESIAN_POINT('',(0.11860101677295,-0.0438978682036634,-0.0105));
#1107=CARTESIAN_POINT('',(0.11860101677295,-0.0438978682036634,-0.0125));
#1108=CARTESIAN_POINT('',(0.118600999772745,-0.0498978682036631,-0.0125));
#1109=CARTESIAN_POINT('',(0.11860101677295,-0.0438978682036634,-0.0105));
#1110=CARTESIAN_POINT('',(0.118600999772745,-0.0498978682036631,-0.0105));
#1111=CARTESIAN_POINT('',(0.118600999772745,-0.0498978682036631,-0.0105));
#1112=CARTESIAN_POINT('',(0.09025834127295,-0.0498978682036631,-0.0105));
#1113=CARTESIAN_POINT('',(0.09025834127295,-0.0498978682036631,-0.0125));
#1114=CARTESIAN_POINT('',(0.06191568277295,-0.0498978682036631,-0.0125));
#1115=CARTESIAN_POINT('',(0.09025834127295,-0.0498978682036631,-0.0105));
#1116=CARTESIAN_POINT('',(0.06191568277295,-0.0498978682036631,-0.0105));
#1117=CARTESIAN_POINT('',(0.06191568277295,-0.0498978682036631,-0.0105));
#1118=CARTESIAN_POINT('',(0.06191571677295,-0.0558982682036629,-0.0105));
#1119=CARTESIAN_POINT('',(0.06191571677295,-0.0558982682036629,-0.0125));
#1120=CARTESIAN_POINT('',(0.0601260304083929,-0.0501709806364395,-0.0125));
#1121=CARTESIAN_POINT('',(0.06191571677295,-0.0558982682036629,-0.0105));
#1122=CARTESIAN_POINT('',(0.0601260304083929,-0.0501709806364395,-0.0105));
#1123=CARTESIAN_POINT('',(0.0601260304083929,-0.0501709806364395,-0.0105));
#1124=CARTESIAN_POINT('',(0.0528640787729501,-0.0524403487036631,-0.0105));
#1125=CARTESIAN_POINT('',(0.0528640787729501,-0.0524403487036631,-0.0125));
#1126=CARTESIAN_POINT('',(0.0456021247729501,-0.0547097092036631,-0.0125));
#1127=CARTESIAN_POINT('',(0.0528640787729501,-0.0524403487036631,-0.0105));
#1128=CARTESIAN_POINT('',(0.0456021247729501,-0.0547097092036631,-0.0105));
#1129=CARTESIAN_POINT('',(0.0456021247729501,-0.0547097092036631,-0.0105));
#1130=CARTESIAN_POINT('',(0.0473917167729499,-0.0604365682036629,-0.0105));
#1131=CARTESIAN_POINT('',(0.0473917167729499,-0.0604365682036629,-0.0125));
#1132=CARTESIAN_POINT('',(0.0444502028995671,-0.0552071275390184,-0.0125));
#1133=CARTESIAN_POINT('',(0.0473917167729499,-0.0604365682036629,-0.0105));
#1134=CARTESIAN_POINT('',(0.0444502028995671,-0.0552071275390184,-0.0105));
#1135=CARTESIAN_POINT('',(0.0444502028995671,-0.0552071275390184,-0.0105));
#1136=CARTESIAN_POINT('',(0.03741004277295,-0.0591672287036631,-0.0105));
#1137=CARTESIAN_POINT('',(0.03741004277295,-0.0591672287036631,-0.0125));
#1138=CARTESIAN_POINT('',(0.03036987777295,-0.0631273212036631,-0.0125));
#1139=CARTESIAN_POINT('',(0.03741004277295,-0.0591672287036631,-0.0105));
#1140=CARTESIAN_POINT('',(0.03036987777295,-0.0631273212036631,-0.0105));
#1141=CARTESIAN_POINT('',(0.03036987777295,-0.0631273212036631,-0.0105));
#1142=CARTESIAN_POINT('',(0.0274283167729499,-0.0578979682036628,-0.0105));
#1143=CARTESIAN_POINT('',(0.0274283167729499,-0.0578979682036628,-0.0125));
#1144=CARTESIAN_POINT('',(0.0274283107726081,-0.0638978682036631,-0.0125));
#1145=CARTESIAN_POINT('',(0.0274283167729499,-0.0578979682036628,-0.0105));
#1146=CARTESIAN_POINT('',(0.0274283107726081,-0.0638978682036631,-0.0105));
#1147=CARTESIAN_POINT('',(0.0274283107726081,-0.0638978682036631,-0.0105));
#1148=CARTESIAN_POINT('',(0.02451775827295,-0.0638978682036631,-0.0105));
#1149=CARTESIAN_POINT('',(0.02451775827295,-0.0638978682036631,-0.0125));
#1150=CARTESIAN_POINT('',(0.02160720577295,-0.0638978682036631,-0.0125));
#1151=CARTESIAN_POINT('',(0.02451775827295,-0.0638978682036631,-0.0105));
#1152=CARTESIAN_POINT('',(0.02160720577295,-0.0638978682036631,-0.0105));
#1153=CARTESIAN_POINT('',(0.02160720577295,-0.0638978682036631,-0.0105));
#1154=CARTESIAN_POINT('',(0.02160721677295,-0.0578978682036631,-0.0105));
#1155=CARTESIAN_POINT('',(0.02160721677295,-0.0578978682036631,-0.0125));
#1156=CARTESIAN_POINT('',(0.0163081237728916,-0.0607120692035532,-0.0125));
#1157=CARTESIAN_POINT('',(0.02160721677295,-0.0578978682036631,-0.0105));
#1158=CARTESIAN_POINT('',(0.0163081237728916,-0.0607120692035532,-0.0105));
#1159=CARTESIAN_POINT('',(0.0163081237728916,-0.0607120692035532,-0.0105));
#1160=CARTESIAN_POINT('',(0.01300944727295,-0.0545007312036631,-0.0105));
#1161=CARTESIAN_POINT('',(0.01300944727295,-0.0545007312036631,-0.0125));
#1162=CARTESIAN_POINT('',(0.00971077560699577,-0.0482893906365476,-0.0125));
#1163=CARTESIAN_POINT('',(0.01300944727295,-0.0545007312036631,-0.0105));
#1164=CARTESIAN_POINT('',(0.00971077560699577,-0.0482893906365476,-0.0105));
#1165=CARTESIAN_POINT('',(0.00971077077299675,-0.0482893932037511,-0.0125));
#1166=CARTESIAN_POINT('',(0.00971077077299675,-0.0482893932037511,-0.0118333333333333));
#1167=CARTESIAN_POINT('',(0.00971077077299675,-0.0482893932037511,-0.0111666666666667));
#1168=CARTESIAN_POINT('',(0.00971077077299675,-0.0482893932037511,-0.0105));
#1169=CARTESIAN_POINT('',(0.01500991677295,-0.0454751682036632,-0.0105));
#1170=CARTESIAN_POINT('',(0.01500991677295,-0.0454751682036632,-0.0125));
#1171=CARTESIAN_POINT('',(0.00921718777283645,-0.043911528204084,-0.0125));
#1172=CARTESIAN_POINT('',(0.01500991677295,-0.0454751682036632,-0.0105));
#1173=CARTESIAN_POINT('',(0.00921718777283645,-0.043911528204084,-0.0105));
#1174=CARTESIAN_POINT('',(0.00921718777283645,-0.043911528204084,-0.0105));
#1175=CARTESIAN_POINT('',(0.01098337077295,-0.0373686247036632,-0.0105));
#1176=CARTESIAN_POINT('',(0.01098337077295,-0.0373686247036632,-0.0125));
#1177=CARTESIAN_POINT('',(0.01274955377295,-0.0308257212036631,-0.0125));
#1178=CARTESIAN_POINT('',(0.01098337077295,-0.0373686247036632,-0.0105));
#1179=CARTESIAN_POINT('',(0.01274955377295,-0.0308257212036631,-0.0105));
#1180=CARTESIAN_POINT('',(0.01274955377295,-0.0308257212036631,-0.0105));
#1181=CARTESIAN_POINT('',(0.00695691677295011,-0.0292620682036632,-0.0105));
#1182=CARTESIAN_POINT('',(0.00695691677295011,-0.0292620682036632,-0.0125));
#1183=CARTESIAN_POINT('',(0.012948140933344,-0.0289382053035183,-0.0125));
#1184=CARTESIAN_POINT('',(0.00695691677295011,-0.0292620682036632,-0.0105));
#1185=CARTESIAN_POINT('',(0.012948140933344,-0.0289382053035183,-0.0105));
#1186=CARTESIAN_POINT('',(0.012948140933344,-0.0289382053035183,-0.0105));
#1187=CARTESIAN_POINT('',(0.01247845277295,-0.0202489407036631,-0.0105));
#1188=CARTESIAN_POINT('',(0.01247845277295,-0.0202489407036631,-0.0125));
#1189=CARTESIAN_POINT('',(0.01200876277295,-0.0115596762036631,-0.0125));
#1190=CARTESIAN_POINT('',(0.01247845277295,-0.0202489407036631,-0.0105));
#1191=CARTESIAN_POINT('',(0.01200876277295,-0.0115596762036631,-0.0105));
#1192=CARTESIAN_POINT('',(0.01200876277295,-0.0115596762036631,-0.0105));
#1193=CARTESIAN_POINT('',(0.0180005167729469,-0.0112357682036632,-0.0105));
#1194=CARTESIAN_POINT('',(0.0180005167729469,-0.0112357682036632,-0.0125));
#1195=CARTESIAN_POINT('',(0.01200001677295,-0.0112358242040769,-0.0125));
#1196=CARTESIAN_POINT('',(0.0180005167729469,-0.0112357682036632,-0.0105));
#1197=CARTESIAN_POINT('',(0.01200001677295,-0.0112358242040769,-0.0105));
#1198=CARTESIAN_POINT('',(0.01200001677295,-0.0112358242040769,-0.0105));
#1199=CARTESIAN_POINT('',(0.01200001677295,-0.00476684620366313,-0.0105));
#1200=CARTESIAN_POINT('',(0.01200001677295,-0.00476684620366313,-0.0125));
#1201=CARTESIAN_POINT('',(0.01200001677295,-0.00476684620366313,-0.0105));
#1202=CARTESIAN_POINT('',(0.0828021001577284,2.12705091524878E-06,-0.0105));
#1203=CARTESIAN_POINT('',(0.03700001677295,-0.0396978682036632,-0.0105));
#1204=CARTESIAN_POINT('',(0.03500001677295,-0.0396978682036632,-0.0105));
#1205=CARTESIAN_POINT('',(0.12460001677295,-0.0318978682036632,-0.0105));
#1206=CARTESIAN_POINT('',(0.12260001677295,-0.0318978682036632,-0.0105));
#1207=CARTESIAN_POINT('',(0.05770001677295,0.0561021317963369,-0.0105));
#1208=CARTESIAN_POINT('',(0.05570001677295,0.0561021317963369,-0.0105));
#1209=CARTESIAN_POINT('',(0.11430001677295,0.0551021317963369,-0.0105));
#1210=CARTESIAN_POINT('',(0.11230001677295,0.0551021317963369,-0.0105));
#1211=CARTESIAN_POINT('',(0.0828021001577284,2.12705091524878E-06,-0.0125));
#1212=CARTESIAN_POINT('',(0.11430001677295,0.0551021317963369,-0.0025));
#1213=CARTESIAN_POINT('',(0.11430001677295,0.0551021317963369,-0.0105));
#1214=CARTESIAN_POINT('',(0.11330001677295,0.0551021317963369,-0.0105));
#1215=CARTESIAN_POINT('',(0.11430001677295,0.0551021317963369,-0.0025));
#1216=CARTESIAN_POINT('',(0.11330001677295,0.0551021317963369,-0.0025));
#1217=CARTESIAN_POINT('',(0.11430001677295,0.0551021317963369,-0.0025));
#1218=CARTESIAN_POINT('',(0.11430001677295,0.0551021317963369,-0.0025));
#1219=CARTESIAN_POINT('',(0.11230001677295,0.0551021317963369,-0.0025));
#1220=CARTESIAN_POINT('',(0.0828021001577284,2.12705091524878E-06,-0.0025));
#1221=CARTESIAN_POINT('',(0.0828021001577284,2.12705091524878E-06,-0.0105));
#1222=CARTESIAN_POINT('',(0.05770001677295,0.0561021317963369,-0.0025));
#1223=CARTESIAN_POINT('',(0.05770001677295,0.0561021317963369,-0.0105));
#1224=CARTESIAN_POINT('',(0.05670001677295,0.0561021317963369,-0.0105));
#1225=CARTESIAN_POINT('',(0.05770001677295,0.0561021317963369,-0.0025));
#1226=CARTESIAN_POINT('',(0.05670001677295,0.0561021317963369,-0.0025));
#1227=CARTESIAN_POINT('',(0.05770001677295,0.0561021317963369,-0.0025));
#1228=CARTESIAN_POINT('',(0.05770001677295,0.0561021317963369,-0.0025));
#1229=CARTESIAN_POINT('',(0.05570001677295,0.0561021317963369,-0.0025));
#1230=CARTESIAN_POINT('',(0.0828021001577284,2.12705091524878E-06,-0.0025));
#1231=CARTESIAN_POINT('',(0.0828021001577284,2.12705091524878E-06,-0.0105));
#1232=CARTESIAN_POINT('',(0.12460001677295,-0.0318978682036632,-0.0025));
#1233=CARTESIAN_POINT('',(0.12460001677295,-0.0318978682036632,-0.0105));
#1234=CARTESIAN_POINT('',(0.12360001677295,-0.0318978682036632,-0.0105));
#1235=CARTESIAN_POINT('',(0.12460001677295,-0.0318978682036632,-0.0025));
#1236=CARTESIAN_POINT('',(0.12360001677295,-0.0318978682036632,-0.0025));
#1237=CARTESIAN_POINT('',(0.12460001677295,-0.0318978682036632,-0.0025));
#1238=CARTESIAN_POINT('',(0.12460001677295,-0.0318978682036632,-0.0025));
#1239=CARTESIAN_POINT('',(0.12260001677295,-0.0318978682036632,-0.0025));
#1240=CARTESIAN_POINT('',(0.0828021001577284,2.12705091524878E-06,-0.0025));
#1241=CARTESIAN_POINT('',(0.0828021001577284,2.12705091524878E-06,-0.0105));
#1242=CARTESIAN_POINT('',(0.03700001677295,-0.0396978682036632,-0.0025));
#1243=CARTESIAN_POINT('',(0.03700001677295,-0.0396978682036632,-0.0105));
#1244=CARTESIAN_POINT('',(0.03600001677295,-0.0396978682036632,-0.0105));
#1245=CARTESIAN_POINT('',(0.03700001677295,-0.0396978682036632,-0.0025));
#1246=CARTESIAN_POINT('',(0.03600001677295,-0.0396978682036632,-0.0025));
#1247=CARTESIAN_POINT('',(0.03700001677295,-0.0396978682036632,-0.0025));
#1248=CARTESIAN_POINT('',(0.03700001677295,-0.0396978682036632,-0.0025));
#1249=CARTESIAN_POINT('',(0.03500001677295,-0.0396978682036632,-0.0025));
#1250=CARTESIAN_POINT('',(0.0828021001577284,2.12705091524878E-06,-0.0025));
#1251=CARTESIAN_POINT('',(0.0828021001577284,2.12705091524878E-06,-0.0105));
#1252=MECHANICAL_DESIGN_GEOMETRIC_PRESENTATION_REPRESENTATION('',(#713),#1253);
#1253=(
GEOMETRIC_REPRESENTATION_CONTEXT(3)
GLOBAL_UNCERTAINTY_ASSIGNED_CONTEXT((#1254))
GLOBAL_UNIT_ASSIGNED_CONTEXT((#1257,#1256,#1255))
REPRESENTATION_CONTEXT('Part 4','TOP_LEVEL_ASSEMBLY_PART')
);
#1254=UNCERTAINTY_MEASURE_WITH_UNIT(LENGTH_MEASURE(2.E-05),#1257,'DISTANCE_ACCURACY_VALUE','Maximum Tolerance applied to model');
#1255=(
NAMED_UNIT(*)
SI_UNIT($,.STERADIAN.)
SOLID_ANGLE_UNIT()
);
#1256=(
NAMED_UNIT(*)
PLANE_ANGLE_UNIT()
SI_UNIT($,.RADIAN.)
);
#1257=(
LENGTH_UNIT()
NAMED_UNIT(*)
SI_UNIT($,.METRE.)
);
#1258=PRODUCT_DEFINITION_SHAPE('','',#1259);
#1259=PRODUCT_DEFINITION('','',#1261,#1260);
#1260=PRODUCT_DEFINITION_CONTEXT('',#1267,'design');
#1261=PRODUCT_DEFINITION_FORMATION_WITH_SPECIFIED_SOURCE('','',#1263,.NOT_KNOWN.);
#1262=PRODUCT_RELATED_PRODUCT_CATEGORY('','',(#1263));
#1263=PRODUCT('Part 4','Part 4','Part 4',(#1265));
#1264=PRODUCT_CATEGORY('','');
#1265=PRODUCT_CONTEXT('',#1267,'mechanical');
#1266=APPLICATION_PROTOCOL_DEFINITION('international standard','ap242_managed_model_based_3d_engineering',2020,#1267);
#1267=APPLICATION_CONTEXT('managed model based 3d engineering');
ENDSEC;
END-ISO-10303-21;
