ISO-10303-21;
HEADER;
/*Generated by software containing ST-Developer
 * from STEP Tools, Inc. (www.steptools.com) 
 */
/*OPTION: using custom renumber hook */
/*description */
/*implementation_level */
FILE_DESCRIPTION(('STEP AP242 Edition 2','STEP AP242 Edition 2''CAx-IF Rec.Pracs.---Representation and Presentation of Product Manufa
cturing Information (PMI)---4.0---2014-10-13','STEP AP242 Edition 2''CAx-IF Rec.Pracs.---Representation and Presentation of Product Manufa
cturing Information (PMI)---4.0---2014-10-13''CAx-IF Rec.Pracs.---3D Tessellated Geometry---0.4---2014-09-14','STEP AP242 Edition 2''CAx-IF Rec.Pracs.---Representation and Presentation of Product Manufa
cturing Information (PMI)---4.0---2014-10-13''CAx-IF Rec.Pracs.---3D Tessellated Geometry---0.4---2014-09-14''2;1','STEP AP242 Edition 2''CAx-IF Rec.Pracs.---Representation and Presentation of Product Manufa
cturing Information (PMI)---4.0---2014-10-13''CAx-IF Rec.Pracs.---3D Tessellated Geometry---0.4---2014-09-14''2;1''CAx-IF Rec.Pracs.---User Defined Attributes---1.5---2016-08-15'),'2;1');
/*name */
/*time_stamp */
/*author */
/*organization */
/*preprocessor_version */
/*originating_system */
/*authorisation */
FILE_NAME('/vol/tmp/translate-14475109969411231799/Part Studio 1 - Part 2.step','2026-03-16T23:13:04',(''),(''),'ST-DEVELOPER v20','ONSHAPE BY PTC INC, 1.212','  ');
FILE_SCHEMA(('AP242_MANAGED_MODEL_BASED_3D_ENGINEERING_MIM_LF { 1 0 10303 442 3 1 4 }'));
ENDSEC;
DATA;
#10=SHAPE_REPRESENTATION_RELATIONSHIP('','',#727,#11);
#11=ADVANCED_BREP_SHAPE_REPRESENTATION('',(#725),#1249);
#12=PLANE('',#732);
#13=PLANE('',#736);
#14=PLANE('',#740);
#15=PLANE('',#744);
#16=PLANE('',#748);
#17=PLANE('',#752);
#18=PLANE('',#756);
#19=PLANE('',#760);
#20=PLANE('',#764);
#21=PLANE('',#768);
#22=PLANE('',#772);
#23=PLANE('',#776);
#24=PLANE('',#780);
#25=PLANE('',#781);
#26=PLANE('',#786);
#27=PLANE('',#792);
#28=PLANE('',#793);
#29=PLANE('',#799);
#30=PLANE('',#800);
#31=PLANE('',#806);
#32=PLANE('',#807);
#33=PLANE('',#813);
#34=PLANE('',#814);
#35=LINE('',#1046,#87);
#36=LINE('',#1050,#88);
#37=LINE('',#1052,#89);
#38=LINE('',#1054,#90);
#39=LINE('',#1056,#91);
#40=LINE('',#1060,#92);
#41=LINE('',#1064,#93);
#42=LINE('',#1066,#94);
#43=LINE('',#1068,#95);
#44=LINE('',#1072,#96);
#45=LINE('',#1076,#97);
#46=LINE('',#1078,#98);
#47=LINE('',#1080,#99);
#48=LINE('',#1084,#100);
#49=LINE('',#1088,#101);
#50=LINE('',#1090,#102);
#51=LINE('',#1092,#103);
#52=LINE('',#1096,#104);
#53=LINE('',#1100,#105);
#54=LINE('',#1102,#106);
#55=LINE('',#1104,#107);
#56=LINE('',#1108,#108);
#57=LINE('',#1112,#109);
#58=LINE('',#1114,#110);
#59=LINE('',#1116,#111);
#60=LINE('',#1120,#112);
#61=LINE('',#1124,#113);
#62=LINE('',#1126,#114);
#63=LINE('',#1128,#115);
#64=LINE('',#1132,#116);
#65=LINE('',#1136,#117);
#66=LINE('',#1138,#118);
#67=LINE('',#1140,#119);
#68=LINE('',#1144,#120);
#69=LINE('',#1148,#121);
#70=LINE('',#1150,#122);
#71=LINE('',#1152,#123);
#72=LINE('',#1156,#124);
#73=LINE('',#1160,#125);
#74=LINE('',#1162,#126);
#75=LINE('',#1164,#127);
#76=LINE('',#1168,#128);
#77=LINE('',#1172,#129);
#78=LINE('',#1174,#130);
#79=LINE('',#1176,#131);
#80=LINE('',#1180,#132);
#81=LINE('',#1184,#133);
#82=LINE('',#1186,#134);
#83=LINE('',#1188,#135);
#84=LINE('',#1192,#136);
#85=LINE('',#1196,#137);
#86=LINE('',#1197,#138);
#87=VECTOR('',#821,1.);
#88=VECTOR('',#824,1.);
#89=VECTOR('',#827,1.);
#90=VECTOR('',#828,1.);
#91=VECTOR('',#829,1.);
#92=VECTOR('',#834,1.);
#93=VECTOR('',#839,1.);
#94=VECTOR('',#840,1.);
#95=VECTOR('',#841,1.);
#96=VECTOR('',#846,1.);
#97=VECTOR('',#851,1.);
#98=VECTOR('',#852,1.);
#99=VECTOR('',#853,1.);
#100=VECTOR('',#858,1.);
#101=VECTOR('',#863,1.);
#102=VECTOR('',#864,1.);
#103=VECTOR('',#865,1.);
#104=VECTOR('',#870,1.);
#105=VECTOR('',#875,1.);
#106=VECTOR('',#876,1.);
#107=VECTOR('',#877,1.);
#108=VECTOR('',#882,1.);
#109=VECTOR('',#887,1.);
#110=VECTOR('',#888,1.);
#111=VECTOR('',#889,1.);
#112=VECTOR('',#894,1.);
#113=VECTOR('',#899,1.);
#114=VECTOR('',#900,1.);
#115=VECTOR('',#901,1.);
#116=VECTOR('',#906,1.);
#117=VECTOR('',#911,1.);
#118=VECTOR('',#912,1.);
#119=VECTOR('',#913,1.);
#120=VECTOR('',#918,1.);
#121=VECTOR('',#923,1.);
#122=VECTOR('',#924,1.);
#123=VECTOR('',#925,1.);
#124=VECTOR('',#930,1.);
#125=VECTOR('',#935,1.);
#126=VECTOR('',#936,1.);
#127=VECTOR('',#937,1.);
#128=VECTOR('',#942,1.);
#129=VECTOR('',#947,1.);
#130=VECTOR('',#948,1.);
#131=VECTOR('',#949,1.);
#132=VECTOR('',#954,1.);
#133=VECTOR('',#959,1.);
#134=VECTOR('',#960,1.);
#135=VECTOR('',#961,1.);
#136=VECTOR('',#966,1.);
#137=VECTOR('',#971,1.);
#138=VECTOR('',#972,1.);
#139=ORIENTED_EDGE('',*,*,#327,.T.);
#140=ORIENTED_EDGE('',*,*,#328,.F.);
#141=ORIENTED_EDGE('',*,*,#329,.F.);
#142=ORIENTED_EDGE('',*,*,#330,.T.);
#143=ORIENTED_EDGE('',*,*,#331,.F.);
#144=ORIENTED_EDGE('',*,*,#332,.F.);
#145=ORIENTED_EDGE('',*,*,#333,.T.);
#146=ORIENTED_EDGE('',*,*,#328,.T.);
#147=ORIENTED_EDGE('',*,*,#334,.T.);
#148=ORIENTED_EDGE('',*,*,#335,.F.);
#149=ORIENTED_EDGE('',*,*,#336,.F.);
#150=ORIENTED_EDGE('',*,*,#332,.T.);
#151=ORIENTED_EDGE('',*,*,#337,.F.);
#152=ORIENTED_EDGE('',*,*,#338,.F.);
#153=ORIENTED_EDGE('',*,*,#339,.T.);
#154=ORIENTED_EDGE('',*,*,#335,.T.);
#155=ORIENTED_EDGE('',*,*,#340,.T.);
#156=ORIENTED_EDGE('',*,*,#341,.F.);
#157=ORIENTED_EDGE('',*,*,#342,.F.);
#158=ORIENTED_EDGE('',*,*,#338,.T.);
#159=ORIENTED_EDGE('',*,*,#343,.F.);
#160=ORIENTED_EDGE('',*,*,#344,.F.);
#161=ORIENTED_EDGE('',*,*,#345,.T.);
#162=ORIENTED_EDGE('',*,*,#341,.T.);
#163=ORIENTED_EDGE('',*,*,#346,.T.);
#164=ORIENTED_EDGE('',*,*,#347,.F.);
#165=ORIENTED_EDGE('',*,*,#348,.F.);
#166=ORIENTED_EDGE('',*,*,#344,.T.);
#167=ORIENTED_EDGE('',*,*,#349,.F.);
#168=ORIENTED_EDGE('',*,*,#350,.F.);
#169=ORIENTED_EDGE('',*,*,#351,.T.);
#170=ORIENTED_EDGE('',*,*,#347,.T.);
#171=ORIENTED_EDGE('',*,*,#352,.T.);
#172=ORIENTED_EDGE('',*,*,#353,.F.);
#173=ORIENTED_EDGE('',*,*,#354,.F.);
#174=ORIENTED_EDGE('',*,*,#350,.T.);
#175=ORIENTED_EDGE('',*,*,#355,.F.);
#176=ORIENTED_EDGE('',*,*,#356,.F.);
#177=ORIENTED_EDGE('',*,*,#357,.T.);
#178=ORIENTED_EDGE('',*,*,#353,.T.);
#179=ORIENTED_EDGE('',*,*,#358,.T.);
#180=ORIENTED_EDGE('',*,*,#359,.F.);
#181=ORIENTED_EDGE('',*,*,#360,.F.);
#182=ORIENTED_EDGE('',*,*,#356,.T.);
#183=ORIENTED_EDGE('',*,*,#361,.F.);
#184=ORIENTED_EDGE('',*,*,#362,.F.);
#185=ORIENTED_EDGE('',*,*,#363,.T.);
#186=ORIENTED_EDGE('',*,*,#359,.T.);
#187=ORIENTED_EDGE('',*,*,#364,.F.);
#188=ORIENTED_EDGE('',*,*,#365,.F.);
#189=ORIENTED_EDGE('',*,*,#366,.T.);
#190=ORIENTED_EDGE('',*,*,#362,.T.);
#191=ORIENTED_EDGE('',*,*,#367,.F.);
#192=ORIENTED_EDGE('',*,*,#368,.F.);
#193=ORIENTED_EDGE('',*,*,#369,.T.);
#194=ORIENTED_EDGE('',*,*,#365,.T.);
#195=ORIENTED_EDGE('',*,*,#370,.F.);
#196=ORIENTED_EDGE('',*,*,#371,.F.);
#197=ORIENTED_EDGE('',*,*,#372,.T.);
#198=ORIENTED_EDGE('',*,*,#368,.T.);
#199=ORIENTED_EDGE('',*,*,#373,.F.);
#200=ORIENTED_EDGE('',*,*,#374,.F.);
#201=ORIENTED_EDGE('',*,*,#375,.T.);
#202=ORIENTED_EDGE('',*,*,#371,.T.);
#203=ORIENTED_EDGE('',*,*,#376,.T.);
#204=ORIENTED_EDGE('',*,*,#377,.F.);
#205=ORIENTED_EDGE('',*,*,#378,.F.);
#206=ORIENTED_EDGE('',*,*,#374,.T.);
#207=ORIENTED_EDGE('',*,*,#379,.F.);
#208=ORIENTED_EDGE('',*,*,#380,.F.);
#209=ORIENTED_EDGE('',*,*,#381,.T.);
#210=ORIENTED_EDGE('',*,*,#377,.T.);
#211=ORIENTED_EDGE('',*,*,#382,.T.);
#212=ORIENTED_EDGE('',*,*,#383,.F.);
#213=ORIENTED_EDGE('',*,*,#384,.F.);
#214=ORIENTED_EDGE('',*,*,#380,.T.);
#215=ORIENTED_EDGE('',*,*,#385,.F.);
#216=ORIENTED_EDGE('',*,*,#386,.F.);
#217=ORIENTED_EDGE('',*,*,#387,.T.);
#218=ORIENTED_EDGE('',*,*,#383,.T.);
#219=ORIENTED_EDGE('',*,*,#388,.T.);
#220=ORIENTED_EDGE('',*,*,#389,.F.);
#221=ORIENTED_EDGE('',*,*,#390,.F.);
#222=ORIENTED_EDGE('',*,*,#386,.T.);
#223=ORIENTED_EDGE('',*,*,#391,.F.);
#224=ORIENTED_EDGE('',*,*,#392,.F.);
#225=ORIENTED_EDGE('',*,*,#393,.T.);
#226=ORIENTED_EDGE('',*,*,#389,.T.);
#227=ORIENTED_EDGE('',*,*,#394,.F.);
#228=ORIENTED_EDGE('',*,*,#395,.F.);
#229=ORIENTED_EDGE('',*,*,#396,.T.);
#230=ORIENTED_EDGE('',*,*,#392,.T.);
#231=ORIENTED_EDGE('',*,*,#397,.F.);
#232=ORIENTED_EDGE('',*,*,#398,.F.);
#233=ORIENTED_EDGE('',*,*,#399,.T.);
#234=ORIENTED_EDGE('',*,*,#395,.T.);
#235=ORIENTED_EDGE('',*,*,#400,.T.);
#236=ORIENTED_EDGE('',*,*,#401,.F.);
#237=ORIENTED_EDGE('',*,*,#402,.F.);
#238=ORIENTED_EDGE('',*,*,#398,.T.);
#239=ORIENTED_EDGE('',*,*,#403,.F.);
#240=ORIENTED_EDGE('',*,*,#330,.F.);
#241=ORIENTED_EDGE('',*,*,#404,.T.);
#242=ORIENTED_EDGE('',*,*,#401,.T.);
#243=ORIENTED_EDGE('',*,*,#405,.T.);
#244=ORIENTED_EDGE('',*,*,#406,.T.);
#245=ORIENTED_EDGE('',*,*,#407,.T.);
#246=ORIENTED_EDGE('',*,*,#408,.T.);
#247=ORIENTED_EDGE('',*,*,#329,.T.);
#248=ORIENTED_EDGE('',*,*,#333,.F.);
#249=ORIENTED_EDGE('',*,*,#336,.T.);
#250=ORIENTED_EDGE('',*,*,#339,.F.);
#251=ORIENTED_EDGE('',*,*,#342,.T.);
#252=ORIENTED_EDGE('',*,*,#345,.F.);
#253=ORIENTED_EDGE('',*,*,#348,.T.);
#254=ORIENTED_EDGE('',*,*,#351,.F.);
#255=ORIENTED_EDGE('',*,*,#354,.T.);
#256=ORIENTED_EDGE('',*,*,#357,.F.);
#257=ORIENTED_EDGE('',*,*,#360,.T.);
#258=ORIENTED_EDGE('',*,*,#363,.F.);
#259=ORIENTED_EDGE('',*,*,#366,.F.);
#260=ORIENTED_EDGE('',*,*,#369,.F.);
#261=ORIENTED_EDGE('',*,*,#372,.F.);
#262=ORIENTED_EDGE('',*,*,#375,.F.);
#263=ORIENTED_EDGE('',*,*,#378,.T.);
#264=ORIENTED_EDGE('',*,*,#381,.F.);
#265=ORIENTED_EDGE('',*,*,#384,.T.);
#266=ORIENTED_EDGE('',*,*,#387,.F.);
#267=ORIENTED_EDGE('',*,*,#390,.T.);
#268=ORIENTED_EDGE('',*,*,#393,.F.);
#269=ORIENTED_EDGE('',*,*,#396,.F.);
#270=ORIENTED_EDGE('',*,*,#399,.F.);
#271=ORIENTED_EDGE('',*,*,#402,.T.);
#272=ORIENTED_EDGE('',*,*,#404,.F.);
#273=ORIENTED_EDGE('',*,*,#327,.F.);
#274=ORIENTED_EDGE('',*,*,#403,.T.);
#275=ORIENTED_EDGE('',*,*,#400,.F.);
#276=ORIENTED_EDGE('',*,*,#397,.T.);
#277=ORIENTED_EDGE('',*,*,#394,.T.);
#278=ORIENTED_EDGE('',*,*,#391,.T.);
#279=ORIENTED_EDGE('',*,*,#388,.F.);
#280=ORIENTED_EDGE('',*,*,#385,.T.);
#281=ORIENTED_EDGE('',*,*,#382,.F.);
#282=ORIENTED_EDGE('',*,*,#379,.T.);
#283=ORIENTED_EDGE('',*,*,#376,.F.);
#284=ORIENTED_EDGE('',*,*,#373,.T.);
#285=ORIENTED_EDGE('',*,*,#370,.T.);
#286=ORIENTED_EDGE('',*,*,#367,.T.);
#287=ORIENTED_EDGE('',*,*,#364,.T.);
#288=ORIENTED_EDGE('',*,*,#361,.T.);
#289=ORIENTED_EDGE('',*,*,#358,.F.);
#290=ORIENTED_EDGE('',*,*,#355,.T.);
#291=ORIENTED_EDGE('',*,*,#352,.F.);
#292=ORIENTED_EDGE('',*,*,#349,.T.);
#293=ORIENTED_EDGE('',*,*,#346,.F.);
#294=ORIENTED_EDGE('',*,*,#343,.T.);
#295=ORIENTED_EDGE('',*,*,#340,.F.);
#296=ORIENTED_EDGE('',*,*,#337,.T.);
#297=ORIENTED_EDGE('',*,*,#334,.F.);
#298=ORIENTED_EDGE('',*,*,#331,.T.);
#299=ORIENTED_EDGE('',*,*,#409,.T.);
#300=ORIENTED_EDGE('',*,*,#410,.T.);
#301=ORIENTED_EDGE('',*,*,#408,.F.);
#302=ORIENTED_EDGE('',*,*,#411,.F.);
#303=ORIENTED_EDGE('',*,*,#410,.F.);
#304=ORIENTED_EDGE('',*,*,#411,.T.);
#305=ORIENTED_EDGE('',*,*,#409,.F.);
#306=ORIENTED_EDGE('',*,*,#412,.T.);
#307=ORIENTED_EDGE('',*,*,#413,.T.);
#308=ORIENTED_EDGE('',*,*,#407,.F.);
#309=ORIENTED_EDGE('',*,*,#414,.F.);
#310=ORIENTED_EDGE('',*,*,#413,.F.);
#311=ORIENTED_EDGE('',*,*,#414,.T.);
#312=ORIENTED_EDGE('',*,*,#412,.F.);
#313=ORIENTED_EDGE('',*,*,#415,.T.);
#314=ORIENTED_EDGE('',*,*,#416,.T.);
#315=ORIENTED_EDGE('',*,*,#406,.F.);
#316=ORIENTED_EDGE('',*,*,#417,.F.);
#317=ORIENTED_EDGE('',*,*,#416,.F.);
#318=ORIENTED_EDGE('',*,*,#417,.T.);
#319=ORIENTED_EDGE('',*,*,#415,.F.);
#320=ORIENTED_EDGE('',*,*,#418,.T.);
#321=ORIENTED_EDGE('',*,*,#419,.T.);
#322=ORIENTED_EDGE('',*,*,#405,.F.);
#323=ORIENTED_EDGE('',*,*,#420,.F.);
#324=ORIENTED_EDGE('',*,*,#419,.F.);
#325=ORIENTED_EDGE('',*,*,#420,.T.);
#326=ORIENTED_EDGE('',*,*,#418,.F.);
#327=EDGE_CURVE('',#421,#422,#489,.T.);
#328=EDGE_CURVE('',#423,#422,#35,.T.);
#329=EDGE_CURVE('',#424,#423,#490,.T.);
#330=EDGE_CURVE('',#424,#421,#36,.T.);
#331=EDGE_CURVE('',#425,#422,#37,.T.);
#332=EDGE_CURVE('',#426,#425,#38,.T.);
#333=EDGE_CURVE('',#426,#423,#39,.T.);
#334=EDGE_CURVE('',#425,#427,#491,.T.);
#335=EDGE_CURVE('',#428,#427,#40,.T.);
#336=EDGE_CURVE('',#426,#428,#492,.T.);
#337=EDGE_CURVE('',#429,#427,#41,.T.);
#338=EDGE_CURVE('',#430,#429,#42,.T.);
#339=EDGE_CURVE('',#430,#428,#43,.T.);
#340=EDGE_CURVE('',#429,#431,#493,.T.);
#341=EDGE_CURVE('',#432,#431,#44,.T.);
#342=EDGE_CURVE('',#430,#432,#494,.T.);
#343=EDGE_CURVE('',#433,#431,#45,.T.);
#344=EDGE_CURVE('',#434,#433,#46,.T.);
#345=EDGE_CURVE('',#434,#432,#47,.T.);
#346=EDGE_CURVE('',#433,#435,#495,.T.);
#347=EDGE_CURVE('',#436,#435,#48,.T.);
#348=EDGE_CURVE('',#434,#436,#496,.T.);
#349=EDGE_CURVE('',#437,#435,#49,.T.);
#350=EDGE_CURVE('',#438,#437,#50,.T.);
#351=EDGE_CURVE('',#438,#436,#51,.T.);
#352=EDGE_CURVE('',#437,#439,#497,.T.);
#353=EDGE_CURVE('',#440,#439,#52,.T.);
#354=EDGE_CURVE('',#438,#440,#498,.T.);
#355=EDGE_CURVE('',#441,#439,#53,.T.);
#356=EDGE_CURVE('',#442,#441,#54,.T.);
#357=EDGE_CURVE('',#442,#440,#55,.T.);
#358=EDGE_CURVE('',#441,#443,#499,.T.);
#359=EDGE_CURVE('',#444,#443,#56,.T.);
#360=EDGE_CURVE('',#442,#444,#500,.T.);
#361=EDGE_CURVE('',#445,#443,#57,.T.);
#362=EDGE_CURVE('',#446,#445,#58,.T.);
#363=EDGE_CURVE('',#446,#444,#59,.T.);
#364=EDGE_CURVE('',#447,#445,#501,.T.);
#365=EDGE_CURVE('',#448,#447,#60,.T.);
#366=EDGE_CURVE('',#448,#446,#502,.T.);
#367=EDGE_CURVE('',#449,#447,#61,.T.);
#368=EDGE_CURVE('',#450,#449,#62,.T.);
#369=EDGE_CURVE('',#450,#448,#63,.T.);
#370=EDGE_CURVE('',#451,#449,#503,.T.);
#371=EDGE_CURVE('',#452,#451,#64,.T.);
#372=EDGE_CURVE('',#452,#450,#504,.T.);
#373=EDGE_CURVE('',#453,#451,#65,.T.);
#374=EDGE_CURVE('',#454,#453,#66,.T.);
#375=EDGE_CURVE('',#454,#452,#67,.T.);
#376=EDGE_CURVE('',#453,#455,#505,.T.);
#377=EDGE_CURVE('',#456,#455,#68,.T.);
#378=EDGE_CURVE('',#454,#456,#506,.T.);
#379=EDGE_CURVE('',#457,#455,#69,.T.);
#380=EDGE_CURVE('',#458,#457,#70,.T.);
#381=EDGE_CURVE('',#458,#456,#71,.T.);
#382=EDGE_CURVE('',#457,#459,#507,.T.);
#383=EDGE_CURVE('',#460,#459,#72,.T.);
#384=EDGE_CURVE('',#458,#460,#508,.T.);
#385=EDGE_CURVE('',#461,#459,#73,.T.);
#386=EDGE_CURVE('',#462,#461,#74,.T.);
#387=EDGE_CURVE('',#462,#460,#75,.T.);
#388=EDGE_CURVE('',#461,#463,#509,.T.);
#389=EDGE_CURVE('',#464,#463,#76,.T.);
#390=EDGE_CURVE('',#462,#464,#510,.T.);
#391=EDGE_CURVE('',#465,#463,#77,.T.);
#392=EDGE_CURVE('',#466,#465,#78,.T.);
#393=EDGE_CURVE('',#466,#464,#79,.T.);
#394=EDGE_CURVE('',#467,#465,#511,.T.);
#395=EDGE_CURVE('',#468,#467,#80,.T.);
#396=EDGE_CURVE('',#468,#466,#512,.T.);
#397=EDGE_CURVE('',#469,#467,#81,.T.);
#398=EDGE_CURVE('',#470,#469,#82,.T.);
#399=EDGE_CURVE('',#470,#468,#83,.T.);
#400=EDGE_CURVE('',#469,#471,#513,.T.);
#401=EDGE_CURVE('',#472,#471,#84,.T.);
#402=EDGE_CURVE('',#470,#472,#514,.T.);
#403=EDGE_CURVE('',#421,#471,#85,.T.);
#404=EDGE_CURVE('',#424,#472,#86,.T.);
#405=EDGE_CURVE('',#473,#473,#515,.F.);
#406=EDGE_CURVE('',#474,#474,#516,.F.);
#407=EDGE_CURVE('',#475,#475,#517,.F.);
#408=EDGE_CURVE('',#476,#476,#518,.F.);
#409=EDGE_CURVE('',#477,#477,#519,.F.);
#410=EDGE_CURVE('',#478,#478,#520,.T.);
#411=EDGE_CURVE('',#479,#479,#521,.T.);
#412=EDGE_CURVE('',#480,#480,#522,.F.);
#413=EDGE_CURVE('',#481,#481,#523,.T.);
#414=EDGE_CURVE('',#482,#482,#524,.T.);
#415=EDGE_CURVE('',#483,#483,#525,.F.);
#416=EDGE_CURVE('',#484,#484,#526,.T.);
#417=EDGE_CURVE('',#485,#485,#527,.T.);
#418=EDGE_CURVE('',#486,#486,#528,.F.);
#419=EDGE_CURVE('',#487,#487,#529,.T.);
#420=EDGE_CURVE('',#488,#488,#530,.T.);
#421=VERTEX_POINT('',#1044);
#422=VERTEX_POINT('',#1045);
#423=VERTEX_POINT('',#1047);
#424=VERTEX_POINT('',#1049);
#425=VERTEX_POINT('',#1053);
#426=VERTEX_POINT('',#1055);
#427=VERTEX_POINT('',#1059);
#428=VERTEX_POINT('',#1061);
#429=VERTEX_POINT('',#1065);
#430=VERTEX_POINT('',#1067);
#431=VERTEX_POINT('',#1071);
#432=VERTEX_POINT('',#1073);
#433=VERTEX_POINT('',#1077);
#434=VERTEX_POINT('',#1079);
#435=VERTEX_POINT('',#1083);
#436=VERTEX_POINT('',#1085);
#437=VERTEX_POINT('',#1089);
#438=VERTEX_POINT('',#1091);
#439=VERTEX_POINT('',#1095);
#440=VERTEX_POINT('',#1097);
#441=VERTEX_POINT('',#1101);
#442=VERTEX_POINT('',#1103);
#443=VERTEX_POINT('',#1107);
#444=VERTEX_POINT('',#1109);
#445=VERTEX_POINT('',#1113);
#446=VERTEX_POINT('',#1115);
#447=VERTEX_POINT('',#1119);
#448=VERTEX_POINT('',#1121);
#449=VERTEX_POINT('',#1125);
#450=VERTEX_POINT('',#1127);
#451=VERTEX_POINT('',#1131);
#452=VERTEX_POINT('',#1133);
#453=VERTEX_POINT('',#1137);
#454=VERTEX_POINT('',#1139);
#455=VERTEX_POINT('',#1143);
#456=VERTEX_POINT('',#1145);
#457=VERTEX_POINT('',#1149);
#458=VERTEX_POINT('',#1151);
#459=VERTEX_POINT('',#1155);
#460=VERTEX_POINT('',#1157);
#461=VERTEX_POINT('',#1161);
#462=VERTEX_POINT('',#1163);
#463=VERTEX_POINT('',#1167);
#464=VERTEX_POINT('',#1169);
#465=VERTEX_POINT('',#1173);
#466=VERTEX_POINT('',#1175);
#467=VERTEX_POINT('',#1179);
#468=VERTEX_POINT('',#1181);
#469=VERTEX_POINT('',#1185);
#470=VERTEX_POINT('',#1187);
#471=VERTEX_POINT('',#1191);
#472=VERTEX_POINT('',#1193);
#473=VERTEX_POINT('',#1200);
#474=VERTEX_POINT('',#1202);
#475=VERTEX_POINT('',#1204);
#476=VERTEX_POINT('',#1206);
#477=VERTEX_POINT('',#1210);
#478=VERTEX_POINT('',#1212);
#479=VERTEX_POINT('',#1215);
#480=VERTEX_POINT('',#1220);
#481=VERTEX_POINT('',#1222);
#482=VERTEX_POINT('',#1225);
#483=VERTEX_POINT('',#1230);
#484=VERTEX_POINT('',#1232);
#485=VERTEX_POINT('',#1235);
#486=VERTEX_POINT('',#1240);
#487=VERTEX_POINT('',#1242);
#488=VERTEX_POINT('',#1245);
#489=CIRCLE('',#730,0.00600001021235972);
#490=CIRCLE('',#731,0.00600001021235972);
#491=CIRCLE('',#734,0.00599940000007059);
#492=CIRCLE('',#735,0.00599940000007059);
#493=CIRCLE('',#738,0.00600001006599332);
#494=CIRCLE('',#739,0.00600001006599332);
#495=CIRCLE('',#742,0.00599994337904301);
#496=CIRCLE('',#743,0.00599994337904301);
#497=CIRCLE('',#746,0.00599996276287192);
#498=CIRCLE('',#747,0.00599996276287192);
#499=CIRCLE('',#750,0.00600000000002383);
#500=CIRCLE('',#751,0.00600000000002383);
#501=CIRCLE('',#754,0.00600040000009613);
#502=CIRCLE('',#755,0.00600040000009613);
#503=CIRCLE('',#758,0.00599996279424643);
#504=CIRCLE('',#759,0.00599996279424643);
#505=CIRCLE('',#762,0.00599990000000338);
#506=CIRCLE('',#763,0.00599990000000338);
#507=CIRCLE('',#766,0.00600000949091333);
#508=CIRCLE('',#767,0.00600000949091333);
#509=CIRCLE('',#770,0.00600005660948638);
#510=CIRCLE('',#771,0.00600005660948638);
#511=CIRCLE('',#774,0.00599997117644554);
#512=CIRCLE('',#775,0.00599997117644554);
#513=CIRCLE('',#778,0.00600050000025815);
#514=CIRCLE('',#779,0.00600050000025815);
#515=CIRCLE('',#782,0.002);
#516=CIRCLE('',#783,0.002);
#517=CIRCLE('',#784,0.002);
#518=CIRCLE('',#785,0.002);
#519=CIRCLE('',#788,0.001);
#520=CIRCLE('',#789,0.001);
#521=CIRCLE('',#791,0.002);
#522=CIRCLE('',#795,0.001);
#523=CIRCLE('',#796,0.001);
#524=CIRCLE('',#798,0.002);
#525=CIRCLE('',#802,0.001);
#526=CIRCLE('',#803,0.001);
#527=CIRCLE('',#805,0.002);
#528=CIRCLE('',#809,0.001);
#529=CIRCLE('',#810,0.001);
#530=CIRCLE('',#812,0.002);
#531=EDGE_LOOP('',(#139,#140,#141,#142));
#532=EDGE_LOOP('',(#143,#144,#145,#146));
#533=EDGE_LOOP('',(#147,#148,#149,#150));
#534=EDGE_LOOP('',(#151,#152,#153,#154));
#535=EDGE_LOOP('',(#155,#156,#157,#158));
#536=EDGE_LOOP('',(#159,#160,#161,#162));
#537=EDGE_LOOP('',(#163,#164,#165,#166));
#538=EDGE_LOOP('',(#167,#168,#169,#170));
#539=EDGE_LOOP('',(#171,#172,#173,#174));
#540=EDGE_LOOP('',(#175,#176,#177,#178));
#541=EDGE_LOOP('',(#179,#180,#181,#182));
#542=EDGE_LOOP('',(#183,#184,#185,#186));
#543=EDGE_LOOP('',(#187,#188,#189,#190));
#544=EDGE_LOOP('',(#191,#192,#193,#194));
#545=EDGE_LOOP('',(#195,#196,#197,#198));
#546=EDGE_LOOP('',(#199,#200,#201,#202));
#547=EDGE_LOOP('',(#203,#204,#205,#206));
#548=EDGE_LOOP('',(#207,#208,#209,#210));
#549=EDGE_LOOP('',(#211,#212,#213,#214));
#550=EDGE_LOOP('',(#215,#216,#217,#218));
#551=EDGE_LOOP('',(#219,#220,#221,#222));
#552=EDGE_LOOP('',(#223,#224,#225,#226));
#553=EDGE_LOOP('',(#227,#228,#229,#230));
#554=EDGE_LOOP('',(#231,#232,#233,#234));
#555=EDGE_LOOP('',(#235,#236,#237,#238));
#556=EDGE_LOOP('',(#239,#240,#241,#242));
#557=EDGE_LOOP('',(#243));
#558=EDGE_LOOP('',(#244));
#559=EDGE_LOOP('',(#245));
#560=EDGE_LOOP('',(#246));
#561=EDGE_LOOP('',(#247,#248,#249,#250,#251,#252,#253,#254,#255,#256,#257,#258,#259,#260,#261,#262,#263,#264,#265,#266,#267,#268,#269,#270,#271,#272));
#562=EDGE_LOOP('',(#273,#274,#275,#276,#277,#278,#279,#280,#281,#282,#283,#284,#285,#286,#287,#288,#289,#290,#291,#292,#293,#294,#295,#296,#297,#298));
#563=EDGE_LOOP('',(#299));
#564=EDGE_LOOP('',(#300));
#565=EDGE_LOOP('',(#301));
#566=EDGE_LOOP('',(#302));
#567=EDGE_LOOP('',(#303));
#568=EDGE_LOOP('',(#304));
#569=EDGE_LOOP('',(#305));
#570=EDGE_LOOP('',(#306));
#571=EDGE_LOOP('',(#307));
#572=EDGE_LOOP('',(#308));
#573=EDGE_LOOP('',(#309));
#574=EDGE_LOOP('',(#310));
#575=EDGE_LOOP('',(#311));
#576=EDGE_LOOP('',(#312));
#577=EDGE_LOOP('',(#313));
#578=EDGE_LOOP('',(#314));
#579=EDGE_LOOP('',(#315));
#580=EDGE_LOOP('',(#316));
#581=EDGE_LOOP('',(#317));
#582=EDGE_LOOP('',(#318));
#583=EDGE_LOOP('',(#319));
#584=EDGE_LOOP('',(#320));
#585=EDGE_LOOP('',(#321));
#586=EDGE_LOOP('',(#322));
#587=EDGE_LOOP('',(#323));
#588=EDGE_LOOP('',(#324));
#589=EDGE_LOOP('',(#325));
#590=EDGE_LOOP('',(#326));
#591=FACE_BOUND('',#531,.T.);
#592=FACE_BOUND('',#532,.T.);
#593=FACE_BOUND('',#533,.T.);
#594=FACE_BOUND('',#534,.T.);
#595=FACE_BOUND('',#535,.T.);
#596=FACE_BOUND('',#536,.T.);
#597=FACE_BOUND('',#537,.T.);
#598=FACE_BOUND('',#538,.T.);
#599=FACE_BOUND('',#539,.T.);
#600=FACE_BOUND('',#540,.T.);
#601=FACE_BOUND('',#541,.T.);
#602=FACE_BOUND('',#542,.T.);
#603=FACE_BOUND('',#543,.T.);
#604=FACE_BOUND('',#544,.T.);
#605=FACE_BOUND('',#545,.T.);
#606=FACE_BOUND('',#546,.T.);
#607=FACE_BOUND('',#547,.T.);
#608=FACE_BOUND('',#548,.T.);
#609=FACE_BOUND('',#549,.T.);
#610=FACE_BOUND('',#550,.T.);
#611=FACE_BOUND('',#551,.T.);
#612=FACE_BOUND('',#552,.T.);
#613=FACE_BOUND('',#553,.T.);
#614=FACE_BOUND('',#554,.T.);
#615=FACE_BOUND('',#555,.T.);
#616=FACE_BOUND('',#556,.T.);
#617=FACE_BOUND('',#557,.T.);
#618=FACE_BOUND('',#558,.T.);
#619=FACE_BOUND('',#559,.T.);
#620=FACE_BOUND('',#560,.T.);
#621=FACE_BOUND('',#561,.T.);
#622=FACE_BOUND('',#562,.T.);
#623=FACE_BOUND('',#563,.T.);
#624=FACE_BOUND('',#564,.T.);
#625=FACE_BOUND('',#565,.T.);
#626=FACE_BOUND('',#566,.T.);
#627=FACE_BOUND('',#567,.T.);
#628=FACE_BOUND('',#568,.T.);
#629=FACE_BOUND('',#569,.T.);
#630=FACE_BOUND('',#570,.T.);
#631=FACE_BOUND('',#571,.T.);
#632=FACE_BOUND('',#572,.T.);
#633=FACE_BOUND('',#573,.T.);
#634=FACE_BOUND('',#574,.T.);
#635=FACE_BOUND('',#575,.T.);
#636=FACE_BOUND('',#576,.T.);
#637=FACE_BOUND('',#577,.T.);
#638=FACE_BOUND('',#578,.T.);
#639=FACE_BOUND('',#579,.T.);
#640=FACE_BOUND('',#580,.T.);
#641=FACE_BOUND('',#581,.T.);
#642=FACE_BOUND('',#582,.T.);
#643=FACE_BOUND('',#583,.T.);
#644=FACE_BOUND('',#584,.T.);
#645=FACE_BOUND('',#585,.T.);
#646=FACE_BOUND('',#586,.T.);
#647=FACE_BOUND('',#587,.T.);
#648=FACE_BOUND('',#588,.T.);
#649=FACE_BOUND('',#589,.T.);
#650=FACE_BOUND('',#590,.T.);
#651=CYLINDRICAL_SURFACE('',#729,0.00600001021235972);
#652=CYLINDRICAL_SURFACE('',#733,0.00599940000007059);
#653=CYLINDRICAL_SURFACE('',#737,0.00600001006599332);
#654=CYLINDRICAL_SURFACE('',#741,0.00599994337904301);
#655=CYLINDRICAL_SURFACE('',#745,0.00599996276287192);
#656=CYLINDRICAL_SURFACE('',#749,0.00600000000002383);
#657=CYLINDRICAL_SURFACE('',#753,0.00600040000009613);
#658=CYLINDRICAL_SURFACE('',#757,0.00599996279424643);
#659=CYLINDRICAL_SURFACE('',#761,0.00599990000000338);
#660=CYLINDRICAL_SURFACE('',#765,0.00600000949091333);
#661=CYLINDRICAL_SURFACE('',#769,0.00600005660948638);
#662=CYLINDRICAL_SURFACE('',#773,0.00599997117644554);
#663=CYLINDRICAL_SURFACE('',#777,0.00600050000025815);
#664=CYLINDRICAL_SURFACE('',#787,0.001);
#665=CYLINDRICAL_SURFACE('',#790,0.002);
#666=CYLINDRICAL_SURFACE('',#794,0.001);
#667=CYLINDRICAL_SURFACE('',#797,0.002);
#668=CYLINDRICAL_SURFACE('',#801,0.001);
#669=CYLINDRICAL_SURFACE('',#804,0.002);
#670=CYLINDRICAL_SURFACE('',#808,0.001);
#671=CYLINDRICAL_SURFACE('',#811,0.002);
#672=ADVANCED_FACE('',(#591),#651,.T.);
#673=ADVANCED_FACE('',(#592),#12,.T.);
#674=ADVANCED_FACE('',(#593),#652,.T.);
#675=ADVANCED_FACE('',(#594),#13,.T.);
#676=ADVANCED_FACE('',(#595),#653,.T.);
#677=ADVANCED_FACE('',(#596),#14,.T.);
#678=ADVANCED_FACE('',(#597),#654,.T.);
#679=ADVANCED_FACE('',(#598),#15,.T.);
#680=ADVANCED_FACE('',(#599),#655,.T.);
#681=ADVANCED_FACE('',(#600),#16,.T.);
#682=ADVANCED_FACE('',(#601),#656,.T.);
#683=ADVANCED_FACE('',(#602),#17,.T.);
#684=ADVANCED_FACE('',(#603),#657,.F.);
#685=ADVANCED_FACE('',(#604),#18,.T.);
#686=ADVANCED_FACE('',(#605),#658,.F.);
#687=ADVANCED_FACE('',(#606),#19,.T.);
#688=ADVANCED_FACE('',(#607),#659,.T.);
#689=ADVANCED_FACE('',(#608),#20,.T.);
#690=ADVANCED_FACE('',(#609),#660,.T.);
#691=ADVANCED_FACE('',(#610),#21,.T.);
#692=ADVANCED_FACE('',(#611),#661,.T.);
#693=ADVANCED_FACE('',(#612),#22,.T.);
#694=ADVANCED_FACE('',(#613),#662,.F.);
#695=ADVANCED_FACE('',(#614),#23,.T.);
#696=ADVANCED_FACE('',(#615),#663,.T.);
#697=ADVANCED_FACE('',(#616),#24,.T.);
#698=ADVANCED_FACE('',(#617,#618,#619,#620,#621),#25,.T.);
#699=ADVANCED_FACE('',(#622),#26,.F.);
#700=ADVANCED_FACE('',(#623,#624),#664,.F.);
#701=ADVANCED_FACE('',(#625,#626),#665,.T.);
#702=ADVANCED_FACE('',(#627,#628),#27,.T.);
#703=ADVANCED_FACE('',(#629),#28,.T.);
#704=ADVANCED_FACE('',(#630,#631),#666,.F.);
#705=ADVANCED_FACE('',(#632,#633),#667,.T.);
#706=ADVANCED_FACE('',(#634,#635),#29,.T.);
#707=ADVANCED_FACE('',(#636),#30,.T.);
#708=ADVANCED_FACE('',(#637,#638),#668,.F.);
#709=ADVANCED_FACE('',(#639,#640),#669,.T.);
#710=ADVANCED_FACE('',(#641,#642),#31,.T.);
#711=ADVANCED_FACE('',(#643),#32,.T.);
#712=ADVANCED_FACE('',(#644,#645),#670,.F.);
#713=ADVANCED_FACE('',(#646,#647),#671,.T.);
#714=ADVANCED_FACE('',(#648,#649),#33,.T.);
#715=ADVANCED_FACE('',(#650),#34,.T.);
#716=CLOSED_SHELL('',(#672,#673,#674,#675,#676,#677,#678,#679,#680,#681,#682,#683,#684,#685,#686,#687,#688,#689,#690,#691,#692,#693,#694,#695,#696,#697,#698,#699,#700,#701,#702,#703,#704,#705,#706,#707,#708,#709,#710,#711,#712,#713,#714,#715));
#717=STYLED_ITEM('',(#718),#725);
#718=PRESENTATION_STYLE_ASSIGNMENT((#719));
#719=SURFACE_STYLE_USAGE(.BOTH.,#720);
#720=SURFACE_SIDE_STYLE('',(#721));
#721=SURFACE_STYLE_FILL_AREA(#722);
#722=FILL_AREA_STYLE('',(#723));
#723=FILL_AREA_STYLE_COLOUR('',#724);
#724=COLOUR_RGB('',0.615686274509804,0.811764705882353,0.929411764705882);
#725=MANIFOLD_SOLID_BREP('Part 2',#716);
#726=SHAPE_DEFINITION_REPRESENTATION(#1254,#727);
#727=SHAPE_REPRESENTATION('Part 2',(#728),#1249);
#728=AXIS2_PLACEMENT_3D('',#1041,#815,#816);
#729=AXIS2_PLACEMENT_3D('',#1042,#817,#818);
#730=AXIS2_PLACEMENT_3D('',#1043,#819,#820);
#731=AXIS2_PLACEMENT_3D('',#1048,#822,#823);
#732=AXIS2_PLACEMENT_3D('',#1051,#825,#826);
#733=AXIS2_PLACEMENT_3D('',#1057,#830,#831);
#734=AXIS2_PLACEMENT_3D('',#1058,#832,#833);
#735=AXIS2_PLACEMENT_3D('',#1062,#835,#836);
#736=AXIS2_PLACEMENT_3D('',#1063,#837,#838);
#737=AXIS2_PLACEMENT_3D('',#1069,#842,#843);
#738=AXIS2_PLACEMENT_3D('',#1070,#844,#845);
#739=AXIS2_PLACEMENT_3D('',#1074,#847,#848);
#740=AXIS2_PLACEMENT_3D('',#1075,#849,#850);
#741=AXIS2_PLACEMENT_3D('',#1081,#854,#855);
#742=AXIS2_PLACEMENT_3D('',#1082,#856,#857);
#743=AXIS2_PLACEMENT_3D('',#1086,#859,#860);
#744=AXIS2_PLACEMENT_3D('',#1087,#861,#862);
#745=AXIS2_PLACEMENT_3D('',#1093,#866,#867);
#746=AXIS2_PLACEMENT_3D('',#1094,#868,#869);
#747=AXIS2_PLACEMENT_3D('',#1098,#871,#872);
#748=AXIS2_PLACEMENT_3D('',#1099,#873,#874);
#749=AXIS2_PLACEMENT_3D('',#1105,#878,#879);
#750=AXIS2_PLACEMENT_3D('',#1106,#880,#881);
#751=AXIS2_PLACEMENT_3D('',#1110,#883,#884);
#752=AXIS2_PLACEMENT_3D('',#1111,#885,#886);
#753=AXIS2_PLACEMENT_3D('',#1117,#890,#891);
#754=AXIS2_PLACEMENT_3D('',#1118,#892,#893);
#755=AXIS2_PLACEMENT_3D('',#1122,#895,#896);
#756=AXIS2_PLACEMENT_3D('',#1123,#897,#898);
#757=AXIS2_PLACEMENT_3D('',#1129,#902,#903);
#758=AXIS2_PLACEMENT_3D('',#1130,#904,#905);
#759=AXIS2_PLACEMENT_3D('',#1134,#907,#908);
#760=AXIS2_PLACEMENT_3D('',#1135,#909,#910);
#761=AXIS2_PLACEMENT_3D('',#1141,#914,#915);
#762=AXIS2_PLACEMENT_3D('',#1142,#916,#917);
#763=AXIS2_PLACEMENT_3D('',#1146,#919,#920);
#764=AXIS2_PLACEMENT_3D('',#1147,#921,#922);
#765=AXIS2_PLACEMENT_3D('',#1153,#926,#927);
#766=AXIS2_PLACEMENT_3D('',#1154,#928,#929);
#767=AXIS2_PLACEMENT_3D('',#1158,#931,#932);
#768=AXIS2_PLACEMENT_3D('',#1159,#933,#934);
#769=AXIS2_PLACEMENT_3D('',#1165,#938,#939);
#770=AXIS2_PLACEMENT_3D('',#1166,#940,#941);
#771=AXIS2_PLACEMENT_3D('',#1170,#943,#944);
#772=AXIS2_PLACEMENT_3D('',#1171,#945,#946);
#773=AXIS2_PLACEMENT_3D('',#1177,#950,#951);
#774=AXIS2_PLACEMENT_3D('',#1178,#952,#953);
#775=AXIS2_PLACEMENT_3D('',#1182,#955,#956);
#776=AXIS2_PLACEMENT_3D('',#1183,#957,#958);
#777=AXIS2_PLACEMENT_3D('',#1189,#962,#963);
#778=AXIS2_PLACEMENT_3D('',#1190,#964,#965);
#779=AXIS2_PLACEMENT_3D('',#1194,#967,#968);
#780=AXIS2_PLACEMENT_3D('',#1195,#969,#970);
#781=AXIS2_PLACEMENT_3D('',#1198,#973,#974);
#782=AXIS2_PLACEMENT_3D('',#1199,#975,#976);
#783=AXIS2_PLACEMENT_3D('',#1201,#977,#978);
#784=AXIS2_PLACEMENT_3D('',#1203,#979,#980);
#785=AXIS2_PLACEMENT_3D('',#1205,#981,#982);
#786=AXIS2_PLACEMENT_3D('',#1207,#983,#984);
#787=AXIS2_PLACEMENT_3D('',#1208,#985,#986);
#788=AXIS2_PLACEMENT_3D('',#1209,#987,#988);
#789=AXIS2_PLACEMENT_3D('',#1211,#989,#990);
#790=AXIS2_PLACEMENT_3D('',#1213,#991,#992);
#791=AXIS2_PLACEMENT_3D('',#1214,#993,#994);
#792=AXIS2_PLACEMENT_3D('',#1216,#995,#996);
#793=AXIS2_PLACEMENT_3D('',#1217,#997,#998);
#794=AXIS2_PLACEMENT_3D('',#1218,#999,#1000);
#795=AXIS2_PLACEMENT_3D('',#1219,#1001,#1002);
#796=AXIS2_PLACEMENT_3D('',#1221,#1003,#1004);
#797=AXIS2_PLACEMENT_3D('',#1223,#1005,#1006);
#798=AXIS2_PLACEMENT_3D('',#1224,#1007,#1008);
#799=AXIS2_PLACEMENT_3D('',#1226,#1009,#1010);
#800=AXIS2_PLACEMENT_3D('',#1227,#1011,#1012);
#801=AXIS2_PLACEMENT_3D('',#1228,#1013,#1014);
#802=AXIS2_PLACEMENT_3D('',#1229,#1015,#1016);
#803=AXIS2_PLACEMENT_3D('',#1231,#1017,#1018);
#804=AXIS2_PLACEMENT_3D('',#1233,#1019,#1020);
#805=AXIS2_PLACEMENT_3D('',#1234,#1021,#1022);
#806=AXIS2_PLACEMENT_3D('',#1236,#1023,#1024);
#807=AXIS2_PLACEMENT_3D('',#1237,#1025,#1026);
#808=AXIS2_PLACEMENT_3D('',#1238,#1027,#1028);
#809=AXIS2_PLACEMENT_3D('',#1239,#1029,#1030);
#810=AXIS2_PLACEMENT_3D('',#1241,#1031,#1032);
#811=AXIS2_PLACEMENT_3D('',#1243,#1033,#1034);
#812=AXIS2_PLACEMENT_3D('',#1244,#1035,#1036);
#813=AXIS2_PLACEMENT_3D('',#1246,#1037,#1038);
#814=AXIS2_PLACEMENT_3D('',#1247,#1039,#1040);
#815=DIRECTION('',(0.,0.,1.));
#816=DIRECTION('',(1.,0.,0.));
#817=DIRECTION('',(0.,0.,-1.));
#818=DIRECTION('',(-1.,0.,0.));
#819=DIRECTION('',(0.,0.,1.));
#820=DIRECTION('',(1.,0.,0.));
#821=DIRECTION('',(0.,0.,-1.));
#822=DIRECTION('',(0.,0.,1.));
#823=DIRECTION('',(1.,0.,0.));
#824=DIRECTION('',(0.,0.,-1.));
#825=DIRECTION('',(0.175731582801066,0.984438119338251,0.));
#826=DIRECTION('',(-0.984438119338251,0.175731582801066,0.));
#827=DIRECTION('',(0.984438119338251,-0.175731582801066,0.));
#828=DIRECTION('',(0.,0.,-1.));
#829=DIRECTION('',(0.984438119338251,-0.175731582801066,0.));
#830=DIRECTION('',(0.,0.,-1.));
#831=DIRECTION('',(-1.,0.,0.));
#832=DIRECTION('',(0.,0.,1.));
#833=DIRECTION('',(1.,0.,0.));
#834=DIRECTION('',(0.,0.,-1.));
#835=DIRECTION('',(0.,0.,1.));
#836=DIRECTION('',(1.,0.,0.));
#837=DIRECTION('',(0.,1.,0.));
#838=DIRECTION('',(0.,0.,1.));
#839=DIRECTION('',(1.,0.,0.));
#840=DIRECTION('',(0.,0.,-1.));
#841=DIRECTION('',(1.,0.,0.));
#842=DIRECTION('',(0.,0.,-1.));
#843=DIRECTION('',(-1.,0.,0.));
#844=DIRECTION('',(0.,0.,1.));
#845=DIRECTION('',(1.,0.,0.));
#846=DIRECTION('',(0.,0.,-1.));
#847=DIRECTION('',(0.,0.,1.));
#848=DIRECTION('',(1.,0.,0.));
#849=DIRECTION('',(-0.234152207073905,0.972199950587542,0.));
#850=DIRECTION('',(-0.972199950587542,-0.234152207073905,0.));
#851=DIRECTION('',(0.972199950587542,0.234152207073905,0.));
#852=DIRECTION('',(0.,0.,-1.));
#853=DIRECTION('',(0.972199950587542,0.234152207073905,0.));
#854=DIRECTION('',(0.,0.,-1.));
#855=DIRECTION('',(-1.,0.,0.));
#856=DIRECTION('',(0.,0.,1.));
#857=DIRECTION('',(1.,0.,0.));
#858=DIRECTION('',(0.,0.,-1.));
#859=DIRECTION('',(0.,0.,1.));
#860=DIRECTION('',(1.,0.,0.));
#861=DIRECTION('',(-0.999999279423201,-0.00120048035361513,0.));
#862=DIRECTION('',(0.00120048035361513,-0.999999279423201,0.));
#863=DIRECTION('',(-0.00120048035361513,0.999999279423201,0.));
#864=DIRECTION('',(0.,0.,-1.));
#865=DIRECTION('',(-0.00120048035361513,0.999999279423201,0.));
#866=DIRECTION('',(0.,0.,-1.));
#867=DIRECTION('',(-1.,0.,0.));
#868=DIRECTION('',(0.,0.,1.));
#869=DIRECTION('',(1.,0.,0.));
#870=DIRECTION('',(0.,0.,-1.));
#871=DIRECTION('',(0.,0.,1.));
#872=DIRECTION('',(1.,0.,0.));
#873=DIRECTION('',(-0.442292485979019,-0.896870869661012,0.));
#874=DIRECTION('',(0.896870869661012,-0.442292485979019,0.));
#875=DIRECTION('',(-0.896870869661012,0.442292485979019,0.));
#876=DIRECTION('',(0.,0.,-1.));
#877=DIRECTION('',(-0.896870869661012,0.442292485979019,0.));
#878=DIRECTION('',(0.,0.,-1.));
#879=DIRECTION('',(-1.,0.,0.));
#880=DIRECTION('',(0.,0.,1.));
#881=DIRECTION('',(1.,0.,0.));
#882=DIRECTION('',(0.,0.,-1.));
#883=DIRECTION('',(0.,0.,1.));
#884=DIRECTION('',(1.,0.,0.));
#885=DIRECTION('',(0.,-1.,0.));
#886=DIRECTION('',(0.,0.,-1.));
#887=DIRECTION('',(-1.,0.,0.));
#888=DIRECTION('',(0.,0.,-1.));
#889=DIRECTION('',(-1.,0.,0.));
#890=DIRECTION('',(0.,0.,-1.));
#891=DIRECTION('',(-1.,0.,0.));
#892=DIRECTION('',(0.,0.,1.));
#893=DIRECTION('',(1.,0.,0.));
#894=DIRECTION('',(0.,0.,-1.));
#895=DIRECTION('',(0.,0.,1.));
#896=DIRECTION('',(1.,0.,0.));
#897=DIRECTION('',(-0.29827497816818,-0.954479982712457,0.));
#898=DIRECTION('',(0.954479982712457,-0.29827497816818,0.));
#899=DIRECTION('',(-0.954479982712457,0.29827497816818,0.));
#900=DIRECTION('',(0.,0.,-1.));
#901=DIRECTION('',(-0.954479982712457,0.29827497816818,0.));
#902=DIRECTION('',(0.,0.,-1.));
#903=DIRECTION('',(-1.,0.,0.));
#904=DIRECTION('',(0.,0.,1.));
#905=DIRECTION('',(1.,0.,0.));
#906=DIRECTION('',(0.,0.,-1.));
#907=DIRECTION('',(0.,0.,1.));
#908=DIRECTION('',(1.,0.,0.));
#909=DIRECTION('',(-0.490261210243729,-0.871575553655765,0.));
#910=DIRECTION('',(0.871575553655765,-0.490261210243729,0.));
#911=DIRECTION('',(-0.871575553655765,0.490261210243729,0.));
#912=DIRECTION('',(0.,0.,-1.));
#913=DIRECTION('',(-0.871575553655765,0.490261210243729,0.));
#914=DIRECTION('',(0.,0.,-1.));
#915=DIRECTION('',(-1.,0.,0.));
#916=DIRECTION('',(0.,0.,1.));
#917=DIRECTION('',(1.,0.,0.));
#918=DIRECTION('',(0.,0.,-1.));
#919=DIRECTION('',(0.,0.,1.));
#920=DIRECTION('',(1.,0.,0.));
#921=DIRECTION('',(0.,-1.,0.));
#922=DIRECTION('',(0.,0.,-1.));
#923=DIRECTION('',(-1.,0.,0.));
#924=DIRECTION('',(0.,0.,-1.));
#925=DIRECTION('',(-1.,0.,0.));
#926=DIRECTION('',(0.,0.,-1.));
#927=DIRECTION('',(-1.,0.,0.));
#928=DIRECTION('',(0.,0.,1.));
#929=DIRECTION('',(1.,0.,0.));
#930=DIRECTION('',(0.,0.,-1.));
#931=DIRECTION('',(0.,0.,1.));
#932=DIRECTION('',(1.,0.,0.));
#933=DIRECTION('',(0.88318032570084,-0.469033593994033,0.));
#934=DIRECTION('',(0.469033593994033,0.88318032570084,0.));
#935=DIRECTION('',(-0.469033593994033,-0.88318032570084,0.));
#936=DIRECTION('',(0.,0.,-1.));
#937=DIRECTION('',(-0.469033593994033,-0.88318032570084,0.));
#938=DIRECTION('',(0.,0.,-1.));
#939=DIRECTION('',(-1.,0.,0.));
#940=DIRECTION('',(0.,0.,1.));
#941=DIRECTION('',(1.,0.,0.));
#942=DIRECTION('',(0.,0.,-1.));
#943=DIRECTION('',(0.,0.,1.));
#944=DIRECTION('',(1.,0.,0.));
#945=DIRECTION('',(0.965443969309978,0.260610709916141,0.));
#946=DIRECTION('',(-0.260610709916141,0.965443969309978,0.));
#947=DIRECTION('',(0.260610709916141,-0.965443969309978,0.));
#948=DIRECTION('',(0.,0.,-1.));
#949=DIRECTION('',(0.260610709916141,-0.965443969309978,0.));
#950=DIRECTION('',(0.,0.,-1.));
#951=DIRECTION('',(-1.,0.,0.));
#952=DIRECTION('',(0.,0.,1.));
#953=DIRECTION('',(1.,0.,0.));
#954=DIRECTION('',(0.,0.,-1.));
#955=DIRECTION('',(0.,0.,1.));
#956=DIRECTION('',(1.,0.,0.));
#957=DIRECTION('',(0.998542273110113,-0.0539752611118108,0.));
#958=DIRECTION('',(0.0539752611118108,0.998542273110113,0.));
#959=DIRECTION('',(-0.0539752611118108,-0.998542273110113,0.));
#960=DIRECTION('',(0.,0.,-1.));
#961=DIRECTION('',(-0.0539752611118108,-0.998542273110113,0.));
#962=DIRECTION('',(0.,0.,-1.));
#963=DIRECTION('',(-1.,0.,0.));
#964=DIRECTION('',(0.,0.,1.));
#965=DIRECTION('',(1.,0.,0.));
#966=DIRECTION('',(0.,0.,-1.));
#967=DIRECTION('',(0.,0.,1.));
#968=DIRECTION('',(1.,0.,0.));
#969=DIRECTION('',(1.,0.,0.));
#970=DIRECTION('',(0.,0.,-1.));
#971=DIRECTION('',(0.,-1.,0.));
#972=DIRECTION('',(0.,-1.,0.));
#973=DIRECTION('',(0.,0.,1.));
#974=DIRECTION('',(1.,0.,0.));
#975=DIRECTION('',(0.,0.,1.));
#976=DIRECTION('',(1.,0.,0.));
#977=DIRECTION('',(0.,0.,1.));
#978=DIRECTION('',(1.,0.,0.));
#979=DIRECTION('',(0.,0.,1.));
#980=DIRECTION('',(1.,0.,0.));
#981=DIRECTION('',(0.,0.,1.));
#982=DIRECTION('',(1.,0.,0.));
#983=DIRECTION('',(0.,0.,1.));
#984=DIRECTION('',(1.,0.,0.));
#985=DIRECTION('',(0.,0.,-1.));
#986=DIRECTION('',(-1.,0.,0.));
#987=DIRECTION('',(0.,0.,1.));
#988=DIRECTION('',(1.,0.,0.));
#989=DIRECTION('',(0.,0.,1.));
#990=DIRECTION('',(1.,0.,0.));
#991=DIRECTION('',(0.,0.,-1.));
#992=DIRECTION('',(-1.,0.,0.));
#993=DIRECTION('',(0.,0.,1.));
#994=DIRECTION('',(1.,0.,0.));
#995=DIRECTION('',(0.,0.,1.));
#996=DIRECTION('',(1.,0.,0.));
#997=DIRECTION('',(0.,0.,1.));
#998=DIRECTION('',(1.,0.,0.));
#999=DIRECTION('',(0.,0.,-1.));
#1000=DIRECTION('',(-1.,0.,0.));
#1001=DIRECTION('',(0.,0.,1.));
#1002=DIRECTION('',(1.,0.,0.));
#1003=DIRECTION('',(0.,0.,1.));
#1004=DIRECTION('',(1.,0.,0.));
#1005=DIRECTION('',(0.,0.,-1.));
#1006=DIRECTION('',(-1.,0.,0.));
#1007=DIRECTION('',(0.,0.,1.));
#1008=DIRECTION('',(1.,0.,0.));
#1009=DIRECTION('',(0.,0.,1.));
#1010=DIRECTION('',(1.,0.,0.));
#1011=DIRECTION('',(0.,0.,1.));
#1012=DIRECTION('',(1.,0.,0.));
#1013=DIRECTION('',(0.,0.,-1.));
#1014=DIRECTION('',(-1.,0.,0.));
#1015=DIRECTION('',(0.,0.,1.));
#1016=DIRECTION('',(1.,0.,0.));
#1017=DIRECTION('',(0.,0.,1.));
#1018=DIRECTION('',(1.,0.,0.));
#1019=DIRECTION('',(0.,0.,-1.));
#1020=DIRECTION('',(-1.,0.,0.));
#1021=DIRECTION('',(0.,0.,1.));
#1022=DIRECTION('',(1.,0.,0.));
#1023=DIRECTION('',(0.,0.,1.));
#1024=DIRECTION('',(1.,0.,0.));
#1025=DIRECTION('',(0.,0.,1.));
#1026=DIRECTION('',(1.,0.,0.));
#1027=DIRECTION('',(0.,0.,-1.));
#1028=DIRECTION('',(-1.,0.,0.));
#1029=DIRECTION('',(0.,0.,1.));
#1030=DIRECTION('',(1.,0.,0.));
#1031=DIRECTION('',(0.,0.,1.));
#1032=DIRECTION('',(1.,0.,0.));
#1033=DIRECTION('',(0.,0.,-1.));
#1034=DIRECTION('',(-1.,0.,0.));
#1035=DIRECTION('',(0.,0.,1.));
#1036=DIRECTION('',(1.,0.,0.));
#1037=DIRECTION('',(0.,0.,1.));
#1038=DIRECTION('',(1.,0.,0.));
#1039=DIRECTION('',(0.,0.,1.));
#1040=DIRECTION('',(1.,0.,0.));
#1041=CARTESIAN_POINT('',(0.,0.,0.));
#1042=CARTESIAN_POINT('',(-0.01800001677295,0.0485783317963369,-0.0105));
#1043=CARTESIAN_POINT('',(-0.01800001677295,0.0485783317963369,-0.0125));
#1044=CARTESIAN_POINT('',(-0.0120000116667743,0.0485783417961901,-0.0125));
#1045=CARTESIAN_POINT('',(-0.0169456267729652,0.0544849707963396,-0.0125));
#1046=CARTESIAN_POINT('',(-0.0169456267729652,0.0544849707963396,-0.0105));
#1047=CARTESIAN_POINT('',(-0.0169456267729652,0.0544849707963396,-0.0105));
#1048=CARTESIAN_POINT('',(-0.01800001677295,0.0485783317963369,-0.0105));
#1049=CARTESIAN_POINT('',(-0.0120000116667743,0.0485783417961901,-0.0105));
#1050=CARTESIAN_POINT('',(-0.0120000116667743,0.0485783417961901,-0.0105));
#1051=CARTESIAN_POINT('',(-0.04838848677295,0.0600978208547099,-0.0105));
#1052=CARTESIAN_POINT('',(-0.04838848677295,0.0600978208547099,-0.0125));
#1053=CARTESIAN_POINT('',(-0.06917695677295,0.0638087607963369,-0.0125));
#1054=CARTESIAN_POINT('',(-0.06917695677295,0.0638087607963369,-0.0105));
#1055=CARTESIAN_POINT('',(-0.06917695677295,0.0638087607963369,-0.0105));
#1056=CARTESIAN_POINT('',(-0.04838848677295,0.0600978208547099,-0.0105));
#1057=CARTESIAN_POINT('',(-0.0702313167729502,0.0579027317963364,-0.0105));
#1058=CARTESIAN_POINT('',(-0.0702313167729502,0.0579027317963364,-0.0125));
#1059=CARTESIAN_POINT('',(-0.0702313457732331,0.0639021317963369,-0.0125));
#1060=CARTESIAN_POINT('',(-0.0702313457732331,0.0639021317963369,-0.0105));
#1061=CARTESIAN_POINT('',(-0.0702313457732331,0.0639021317963369,-0.0105));
#1062=CARTESIAN_POINT('',(-0.0702313167729502,0.0579027317963364,-0.0105));
#1063=CARTESIAN_POINT('',(-0.08710950227295,0.0639021317963369,-0.0105));
#1064=CARTESIAN_POINT('',(-0.08710950227295,0.0639021317963369,-0.0125));
#1065=CARTESIAN_POINT('',(-0.103987658772961,0.0639021368292602,-0.0125));
#1066=CARTESIAN_POINT('',(-0.103987658772961,0.0639021368292602,-0.0105));
#1067=CARTESIAN_POINT('',(-0.103987658772961,0.0639021368292602,-0.0105));
#1068=CARTESIAN_POINT('',(-0.08710950227295,0.0639021317963369,-0.0105));
#1069=CARTESIAN_POINT('',(-0.10398761677295,0.0579021317963372,-0.0105));
#1070=CARTESIAN_POINT('',(-0.10398761677295,0.0579021317963372,-0.0125));
#1071=CARTESIAN_POINT('',(-0.105392571773065,0.0637353317963092,-0.0125));
#1072=CARTESIAN_POINT('',(-0.105392571773065,0.0637353317963092,-0.0105));
#1073=CARTESIAN_POINT('',(-0.105392571773065,0.0637353317963092,-0.0105));
#1074=CARTESIAN_POINT('',(-0.10398761677295,0.0579021317963372,-0.0105));
#1075=CARTESIAN_POINT('',(-0.12869591227295,0.0581227737963369,-0.0105));
#1076=CARTESIAN_POINT('',(-0.12869591227295,0.0581227737963369,-0.0125));
#1077=CARTESIAN_POINT('',(-0.15199925277295,0.0525102157963369,-0.0125));
#1078=CARTESIAN_POINT('',(-0.15199925277295,0.0525102157963369,-0.0105));
#1079=CARTESIAN_POINT('',(-0.15199925277295,0.0525102157963369,-0.0105));
#1080=CARTESIAN_POINT('',(-0.12869591227295,0.0581227737963369,-0.0105));
#1081=CARTESIAN_POINT('',(-0.15059439677295,0.0466770617963369,-0.0105));
#1082=CARTESIAN_POINT('',(-0.15059439677295,0.0466770617963369,-0.0125));
#1083=CARTESIAN_POINT('',(-0.15659433577295,0.0466698127964457,-0.0125));
#1084=CARTESIAN_POINT('',(-0.15659433577295,0.0466698127964457,-0.0105));
#1085=CARTESIAN_POINT('',(-0.15659433577295,0.0466698127964457,-0.0105));
#1086=CARTESIAN_POINT('',(-0.15059439677295,0.0466770617963369,-0.0105));
#1087=CARTESIAN_POINT('',(-0.15654941277295,0.00924898579633686,-0.0105));
#1088=CARTESIAN_POINT('',(-0.15654941277295,0.00924898579633686,-0.0125));
#1089=CARTESIAN_POINT('',(-0.156504482510552,-0.0281718411949802,-0.0125));
#1090=CARTESIAN_POINT('',(-0.156504482510552,-0.0281718411949802,-0.0105));
#1091=CARTESIAN_POINT('',(-0.156504482510552,-0.0281718411949802,-0.0105));
#1092=CARTESIAN_POINT('',(-0.15654941277295,0.00924898579633686,-0.0105));
#1093=CARTESIAN_POINT('',(-0.15050451677295,-0.0281646682036631,-0.0105));
#1094=CARTESIAN_POINT('',(-0.15050451677295,-0.0281646682036631,-0.0125));
#1095=CARTESIAN_POINT('',(-0.153158248772633,-0.0335458632038195,-0.0125));
#1096=CARTESIAN_POINT('',(-0.153158248772633,-0.0335458632038195,-0.0105));
#1097=CARTESIAN_POINT('',(-0.153158248772633,-0.0335458632038195,-0.0105));
#1098=CARTESIAN_POINT('',(-0.15050451677295,-0.0281646682036631,-0.0105));
#1099=CARTESIAN_POINT('',(-0.13720650177295,-0.0414124782036632,-0.0105));
#1100=CARTESIAN_POINT('',(-0.13720650177295,-0.0414124782036632,-0.0125));
#1101=CARTESIAN_POINT('',(-0.12125475477295,-0.0492790932036631,-0.0125));
#1102=CARTESIAN_POINT('',(-0.12125475477295,-0.0492790932036631,-0.0105));
#1103=CARTESIAN_POINT('',(-0.12125475477295,-0.0492790932036631,-0.0105));
#1104=CARTESIAN_POINT('',(-0.13720650177295,-0.0414124782036632,-0.0105));
#1105=CARTESIAN_POINT('',(-0.11860101677295,-0.0438978682036634,-0.0105));
#1106=CARTESIAN_POINT('',(-0.11860101677295,-0.0438978682036634,-0.0125));
#1107=CARTESIAN_POINT('',(-0.118600999772745,-0.0498978682036631,-0.0125));
#1108=CARTESIAN_POINT('',(-0.118600999772745,-0.0498978682036631,-0.0105));
#1109=CARTESIAN_POINT('',(-0.118600999772745,-0.0498978682036631,-0.0105));
#1110=CARTESIAN_POINT('',(-0.11860101677295,-0.0438978682036634,-0.0105));
#1111=CARTESIAN_POINT('',(-0.09025834127295,-0.0498978682036631,-0.0105));
#1112=CARTESIAN_POINT('',(-0.09025834127295,-0.0498978682036631,-0.0125));
#1113=CARTESIAN_POINT('',(-0.06191568277295,-0.0498978682036631,-0.0125));
#1114=CARTESIAN_POINT('',(-0.06191568277295,-0.0498978682036631,-0.0105));
#1115=CARTESIAN_POINT('',(-0.06191568277295,-0.0498978682036631,-0.0105));
#1116=CARTESIAN_POINT('',(-0.09025834127295,-0.0498978682036631,-0.0105));
#1117=CARTESIAN_POINT('',(-0.06191571677295,-0.0558982682036629,-0.0105));
#1118=CARTESIAN_POINT('',(-0.06191571677295,-0.0558982682036629,-0.0125));
#1119=CARTESIAN_POINT('',(-0.0601260304083929,-0.0501709806364395,-0.0125));
#1120=CARTESIAN_POINT('',(-0.0601260304083929,-0.0501709806364395,-0.0105));
#1121=CARTESIAN_POINT('',(-0.0601260304083929,-0.0501709806364395,-0.0105));
#1122=CARTESIAN_POINT('',(-0.06191571677295,-0.0558982682036629,-0.0105));
#1123=CARTESIAN_POINT('',(-0.0528640787729501,-0.0524403487036631,-0.0105));
#1124=CARTESIAN_POINT('',(-0.0528640787729501,-0.0524403487036631,-0.0125));
#1125=CARTESIAN_POINT('',(-0.0456021247729501,-0.0547097092036631,-0.0125));
#1126=CARTESIAN_POINT('',(-0.0456021247729501,-0.0547097092036631,-0.0105));
#1127=CARTESIAN_POINT('',(-0.0456021247729501,-0.0547097092036631,-0.0105));
#1128=CARTESIAN_POINT('',(-0.0528640787729501,-0.0524403487036631,-0.0105));
#1129=CARTESIAN_POINT('',(-0.0473917167729499,-0.0604365682036629,-0.0105));
#1130=CARTESIAN_POINT('',(-0.0473917167729499,-0.0604365682036629,-0.0125));
#1131=CARTESIAN_POINT('',(-0.0444502028995671,-0.0552071275390184,-0.0125));
#1132=CARTESIAN_POINT('',(-0.0444502028995671,-0.0552071275390184,-0.0105));
#1133=CARTESIAN_POINT('',(-0.0444502028995671,-0.0552071275390184,-0.0105));
#1134=CARTESIAN_POINT('',(-0.0473917167729499,-0.0604365682036629,-0.0105));
#1135=CARTESIAN_POINT('',(-0.03741004277295,-0.0591672287036631,-0.0105));
#1136=CARTESIAN_POINT('',(-0.03741004277295,-0.0591672287036631,-0.0125));
#1137=CARTESIAN_POINT('',(-0.03036987777295,-0.0631273212036631,-0.0125));
#1138=CARTESIAN_POINT('',(-0.03036987777295,-0.0631273212036631,-0.0105));
#1139=CARTESIAN_POINT('',(-0.03036987777295,-0.0631273212036631,-0.0105));
#1140=CARTESIAN_POINT('',(-0.03741004277295,-0.0591672287036631,-0.0105));
#1141=CARTESIAN_POINT('',(-0.0274283167729499,-0.0578979682036628,-0.0105));
#1142=CARTESIAN_POINT('',(-0.0274283167729499,-0.0578979682036628,-0.0125));
#1143=CARTESIAN_POINT('',(-0.0274283107726081,-0.0638978682036631,-0.0125));
#1144=CARTESIAN_POINT('',(-0.0274283107726081,-0.0638978682036631,-0.0105));
#1145=CARTESIAN_POINT('',(-0.0274283107726081,-0.0638978682036631,-0.0105));
#1146=CARTESIAN_POINT('',(-0.0274283167729499,-0.0578979682036628,-0.0105));
#1147=CARTESIAN_POINT('',(-0.02451775827295,-0.0638978682036631,-0.0105));
#1148=CARTESIAN_POINT('',(-0.02451775827295,-0.0638978682036631,-0.0125));
#1149=CARTESIAN_POINT('',(-0.02160720577295,-0.0638978682036631,-0.0125));
#1150=CARTESIAN_POINT('',(-0.02160720577295,-0.0638978682036631,-0.0105));
#1151=CARTESIAN_POINT('',(-0.02160720577295,-0.0638978682036631,-0.0105));
#1152=CARTESIAN_POINT('',(-0.02451775827295,-0.0638978682036631,-0.0105));
#1153=CARTESIAN_POINT('',(-0.02160721677295,-0.0578978682036631,-0.0105));
#1154=CARTESIAN_POINT('',(-0.02160721677295,-0.0578978682036631,-0.0125));
#1155=CARTESIAN_POINT('',(-0.0163081237728916,-0.0607120692035532,-0.0125));
#1156=CARTESIAN_POINT('',(-0.0163081237728916,-0.0607120692035532,-0.0105));
#1157=CARTESIAN_POINT('',(-0.0163081237728916,-0.0607120692035532,-0.0105));
#1158=CARTESIAN_POINT('',(-0.02160721677295,-0.0578978682036631,-0.0105));
#1159=CARTESIAN_POINT('',(-0.01300944727295,-0.0545007312036631,-0.0105));
#1160=CARTESIAN_POINT('',(-0.01300944727295,-0.0545007312036631,-0.0125));
#1161=CARTESIAN_POINT('',(-0.00971077560699377,-0.0482893906365438,-0.0125));
#1162=CARTESIAN_POINT('',(-0.00971077560699377,-0.0482893906365438,-0.0105));
#1163=CARTESIAN_POINT('',(-0.00971077560699377,-0.0482893906365438,-0.0105));
#1164=CARTESIAN_POINT('',(-0.01300944727295,-0.0545007312036631,-0.0105));
#1165=CARTESIAN_POINT('',(-0.01500991677295,-0.0454751682036632,-0.0105));
#1166=CARTESIAN_POINT('',(-0.01500991677295,-0.0454751682036632,-0.0125));
#1167=CARTESIAN_POINT('',(-0.00921718777283645,-0.043911528204084,-0.0125));
#1168=CARTESIAN_POINT('',(-0.00921718777283645,-0.043911528204084,-0.0105));
#1169=CARTESIAN_POINT('',(-0.00921718777283645,-0.043911528204084,-0.0105));
#1170=CARTESIAN_POINT('',(-0.01500991677295,-0.0454751682036632,-0.0105));
#1171=CARTESIAN_POINT('',(-0.01098337077295,-0.0373686247036632,-0.0105));
#1172=CARTESIAN_POINT('',(-0.01098337077295,-0.0373686247036632,-0.0125));
#1173=CARTESIAN_POINT('',(-0.01274955377295,-0.0308257212036631,-0.0125));
#1174=CARTESIAN_POINT('',(-0.01274955377295,-0.0308257212036631,-0.0105));
#1175=CARTESIAN_POINT('',(-0.01274955377295,-0.0308257212036631,-0.0105));
#1176=CARTESIAN_POINT('',(-0.01098337077295,-0.0373686247036632,-0.0105));
#1177=CARTESIAN_POINT('',(-0.00695691677295011,-0.0292620682036632,-0.0105));
#1178=CARTESIAN_POINT('',(-0.00695691677295011,-0.0292620682036632,-0.0125));
#1179=CARTESIAN_POINT('',(-0.012948140933344,-0.0289382053035183,-0.0125));
#1180=CARTESIAN_POINT('',(-0.012948140933344,-0.0289382053035183,-0.0105));
#1181=CARTESIAN_POINT('',(-0.012948140933344,-0.0289382053035183,-0.0105));
#1182=CARTESIAN_POINT('',(-0.00695691677295011,-0.0292620682036632,-0.0105));
#1183=CARTESIAN_POINT('',(-0.01247845277295,-0.0202489407036631,-0.0105));
#1184=CARTESIAN_POINT('',(-0.01247845277295,-0.0202489407036631,-0.0125));
#1185=CARTESIAN_POINT('',(-0.01200876277295,-0.0115596762036631,-0.0125));
#1186=CARTESIAN_POINT('',(-0.01200876277295,-0.0115596762036631,-0.0105));
#1187=CARTESIAN_POINT('',(-0.01200876277295,-0.0115596762036631,-0.0105));
#1188=CARTESIAN_POINT('',(-0.01247845277295,-0.0202489407036631,-0.0105));
#1189=CARTESIAN_POINT('',(-0.0180005167729469,-0.0112357682036632,-0.0105));
#1190=CARTESIAN_POINT('',(-0.0180005167729469,-0.0112357682036632,-0.0125));
#1191=CARTESIAN_POINT('',(-0.01200001677295,-0.0112358242040769,-0.0125));
#1192=CARTESIAN_POINT('',(-0.01200001677295,-0.0112358242040769,-0.0105));
#1193=CARTESIAN_POINT('',(-0.01200001677295,-0.0112358242040769,-0.0105));
#1194=CARTESIAN_POINT('',(-0.0180005167729469,-0.0112357682036632,-0.0105));
#1195=CARTESIAN_POINT('',(-0.01200001677295,-0.00476684620366313,-0.0105));
#1196=CARTESIAN_POINT('',(-0.01200001677295,-0.00476684620366313,-0.0125));
#1197=CARTESIAN_POINT('',(-0.01200001677295,-0.00476684620366313,-0.0105));
#1198=CARTESIAN_POINT('',(-0.0828021001577284,2.12705091524878E-06,-0.0105));
#1199=CARTESIAN_POINT('',(-0.03700001677295,-0.0396978682036632,-0.0105));
#1200=CARTESIAN_POINT('',(-0.03500001677295,-0.0396978682036632,-0.0105));
#1201=CARTESIAN_POINT('',(-0.12460001677295,-0.0318978682036632,-0.0105));
#1202=CARTESIAN_POINT('',(-0.12260001677295,-0.0318978682036632,-0.0105));
#1203=CARTESIAN_POINT('',(-0.05770001677295,0.0561021317963369,-0.0105));
#1204=CARTESIAN_POINT('',(-0.05570001677295,0.0561021317963369,-0.0105));
#1205=CARTESIAN_POINT('',(-0.11430001677295,0.0551021317963369,-0.0105));
#1206=CARTESIAN_POINT('',(-0.11230001677295,0.0551021317963369,-0.0105));
#1207=CARTESIAN_POINT('',(-0.0828021001577284,2.12705091524878E-06,-0.0125));
#1208=CARTESIAN_POINT('',(-0.11430001677295,0.0551021317963369,-0.0025));
#1209=CARTESIAN_POINT('',(-0.11430001677295,0.0551021317963369,-0.0105));
#1210=CARTESIAN_POINT('',(-0.11330001677295,0.0551021317963369,-0.0105));
#1211=CARTESIAN_POINT('',(-0.11430001677295,0.0551021317963369,-0.0025));
#1212=CARTESIAN_POINT('',(-0.11330001677295,0.0551021317963369,-0.0025));
#1213=CARTESIAN_POINT('',(-0.11430001677295,0.0551021317963369,-0.0025));
#1214=CARTESIAN_POINT('',(-0.11430001677295,0.0551021317963369,-0.0025));
#1215=CARTESIAN_POINT('',(-0.11230001677295,0.0551021317963369,-0.0025));
#1216=CARTESIAN_POINT('',(-0.0828021001577284,2.12705091524878E-06,-0.0025));
#1217=CARTESIAN_POINT('',(-0.0828021001577284,2.12705091524878E-06,-0.0105));
#1218=CARTESIAN_POINT('',(-0.05770001677295,0.0561021317963369,-0.0025));
#1219=CARTESIAN_POINT('',(-0.05770001677295,0.0561021317963369,-0.0105));
#1220=CARTESIAN_POINT('',(-0.05670001677295,0.0561021317963369,-0.0105));
#1221=CARTESIAN_POINT('',(-0.05770001677295,0.0561021317963369,-0.0025));
#1222=CARTESIAN_POINT('',(-0.05670001677295,0.0561021317963369,-0.0025));
#1223=CARTESIAN_POINT('',(-0.05770001677295,0.0561021317963369,-0.0025));
#1224=CARTESIAN_POINT('',(-0.05770001677295,0.0561021317963369,-0.0025));
#1225=CARTESIAN_POINT('',(-0.05570001677295,0.0561021317963369,-0.0025));
#1226=CARTESIAN_POINT('',(-0.0828021001577284,2.12705091524878E-06,-0.0025));
#1227=CARTESIAN_POINT('',(-0.0828021001577284,2.12705091524878E-06,-0.0105));
#1228=CARTESIAN_POINT('',(-0.12460001677295,-0.0318978682036632,-0.0025));
#1229=CARTESIAN_POINT('',(-0.12460001677295,-0.0318978682036632,-0.0105));
#1230=CARTESIAN_POINT('',(-0.12360001677295,-0.0318978682036632,-0.0105));
#1231=CARTESIAN_POINT('',(-0.12460001677295,-0.0318978682036632,-0.0025));
#1232=CARTESIAN_POINT('',(-0.12360001677295,-0.0318978682036632,-0.0025));
#1233=CARTESIAN_POINT('',(-0.12460001677295,-0.0318978682036632,-0.0025));
#1234=CARTESIAN_POINT('',(-0.12460001677295,-0.0318978682036632,-0.0025));
#1235=CARTESIAN_POINT('',(-0.12260001677295,-0.0318978682036632,-0.0025));
#1236=CARTESIAN_POINT('',(-0.0828021001577284,2.12705091524878E-06,-0.0025));
#1237=CARTESIAN_POINT('',(-0.0828021001577284,2.12705091524878E-06,-0.0105));
#1238=CARTESIAN_POINT('',(-0.03700001677295,-0.0396978682036632,-0.0025));
#1239=CARTESIAN_POINT('',(-0.03700001677295,-0.0396978682036632,-0.0105));
#1240=CARTESIAN_POINT('',(-0.03600001677295,-0.0396978682036632,-0.0105));
#1241=CARTESIAN_POINT('',(-0.03700001677295,-0.0396978682036632,-0.0025));
#1242=CARTESIAN_POINT('',(-0.03600001677295,-0.0396978682036632,-0.0025));
#1243=CARTESIAN_POINT('',(-0.03700001677295,-0.0396978682036632,-0.0025));
#1244=CARTESIAN_POINT('',(-0.03700001677295,-0.0396978682036632,-0.0025));
#1245=CARTESIAN_POINT('',(-0.03500001677295,-0.0396978682036632,-0.0025));
#1246=CARTESIAN_POINT('',(-0.0828021001577284,2.12705091524878E-06,-0.0025));
#1247=CARTESIAN_POINT('',(-0.0828021001577284,2.12705091524878E-06,-0.0105));
#1248=MECHANICAL_DESIGN_GEOMETRIC_PRESENTATION_REPRESENTATION('',(#717),#1249);
#1249=(
GEOMETRIC_REPRESENTATION_CONTEXT(3)
GLOBAL_UNCERTAINTY_ASSIGNED_CONTEXT((#1250))
GLOBAL_UNIT_ASSIGNED_CONTEXT((#1253,#1252,#1251))
REPRESENTATION_CONTEXT('Part 2','TOP_LEVEL_ASSEMBLY_PART')
);
#1250=UNCERTAINTY_MEASURE_WITH_UNIT(LENGTH_MEASURE(2.2E-07),#1253,'DISTANCE_ACCURACY_VALUE','Maximum Tolerance applied to model');
#1251=(
NAMED_UNIT(*)
SI_UNIT($,.STERADIAN.)
SOLID_ANGLE_UNIT()
);
#1252=(
NAMED_UNIT(*)
PLANE_ANGLE_UNIT()
SI_UNIT($,.RADIAN.)
);
#1253=(
LENGTH_UNIT()
NAMED_UNIT(*)
SI_UNIT($,.METRE.)
);
#1254=PRODUCT_DEFINITION_SHAPE('','',#1255);
#1255=PRODUCT_DEFINITION('','',#1257,#1256);
#1256=PRODUCT_DEFINITION_CONTEXT('',#1263,'design');
#1257=PRODUCT_DEFINITION_FORMATION_WITH_SPECIFIED_SOURCE('','',#1259,.NOT_KNOWN.);
#1258=PRODUCT_RELATED_PRODUCT_CATEGORY('','',(#1259));
#1259=PRODUCT('Part 2','Part 2','Part 2',(#1261));
#1260=PRODUCT_CATEGORY('','');
#1261=PRODUCT_CONTEXT('',#1263,'mechanical');
#1262=APPLICATION_PROTOCOL_DEFINITION('international standard','ap242_managed_model_based_3d_engineering',2020,#1263);
#1263=APPLICATION_CONTEXT('managed model based 3d engineering');
ENDSEC;
END-ISO-10303-21;
