<?xml version="1.0" standalone="no"?>
 <!DOCTYPE svg PUBLIC "-//W3C//DTD SVG 1.1//EN" 
 "http://www.w3.org/Graphics/SVG/1.1/DTD/svg11.dtd"> 
<svg
  xmlns:svg="http://www.w3.org/2000/svg"
  xmlns="http://www.w3.org/2000/svg"
  xmlns:xlink="http://www.w3.org/1999/xlink"
  version="1.1"
  width="297.0022mm" height="210.0072mm" viewBox="0.0000 0.0000 297.0022 210.0072">
<title>SVG Image created as keeby-right-OLED_SSD1306.svg date 2025/12/16 19:51:02 </title>
  <desc>Image generated by Eeschema-SVG </desc>
<g style="fill:#000000; fill-opacity:1.0000;stroke:#000000; stroke-opacity:1.0000;
stroke-linecap:round; stroke-linejoin:round;"
 transform="translate(0 0) scale(1 1)">
</g>
<g style="fill:none; 
stroke:#840000; stroke-width:0.1524; stroke-opacity:1; 
stroke-linecap:round; stroke-linejoin:round;">
<path d="M177.0022 166.0072
L285.0022 166.0072
L285.0022 198.0072
L177.0022 198.0072
L177.0022 166.0072
" />
<path d="M10.0000 10.0000
L287.0022 10.0000
L287.0022 200.0072
L10.0000 200.0072
L10.0000 10.0000
" />
<path d="M12.0000 12.0000
L285.0022 12.0000
L285.0022 198.0072
L12.0000 198.0072
L12.0000 12.0000
" />
<path d="M60.0000 12.0000
L60.0000 10.0000
" />
<path d="M110.0000 12.0000
L110.0000 10.0000
" />
<path d="M160.0000 12.0000
L160.0000 10.0000
" />
<path d="M210.0000 12.0000
L210.0000 10.0000
" />
<path d="M260.0000 12.0000
L260.0000 10.0000
" />
<text x="35.0000" y="11.6500"
textLength="1.4353" font-size="1.7333" lengthAdjust="spacingAndGlyphs"
text-anchor="start" opacity="0" stroke-opacity="0">1</text>
<g class="stroked-text"><desc>1</desc>
<path d="M36.0906 11.5935
L35.3478 11.5935
" />
<path d="M35.7192 11.5935
L35.7192 10.2935
" />
<path d="M35.7192 10.2935
L35.5954 10.4792
" />
<path d="M35.5954 10.4792
L35.4716 10.6030
" />
<path d="M35.4716 10.6030
L35.3478 10.6649
" />
</g><text x="85.0000" y="11.6500"
textLength="1.4353" font-size="1.7333" lengthAdjust="spacingAndGlyphs"
text-anchor="start" opacity="0" stroke-opacity="0">2</text>
<g class="stroked-text"><desc>2</desc>
<path d="M85.3478 10.4173
L85.4097 10.3554
" />
<path d="M85.4097 10.3554
L85.5335 10.2935
" />
<path d="M85.5335 10.2935
L85.8430 10.2935
" />
<path d="M85.8430 10.2935
L85.9668 10.3554
" />
<path d="M85.9668 10.3554
L86.0287 10.4173
" />
<path d="M86.0287 10.4173
L86.0906 10.5411
" />
<path d="M86.0906 10.5411
L86.0906 10.6649
" />
<path d="M86.0906 10.6649
L86.0287 10.8506
" />
<path d="M86.0287 10.8506
L85.2859 11.5935
" />
<path d="M85.2859 11.5935
L86.0906 11.5935
" />
</g><text x="135.0000" y="11.6500"
textLength="1.4353" font-size="1.7333" lengthAdjust="spacingAndGlyphs"
text-anchor="start" opacity="0" stroke-opacity="0">3</text>
<g class="stroked-text"><desc>3</desc>
<path d="M135.2859 10.2935
L136.0906 10.2935
" />
<path d="M136.0906 10.2935
L135.6573 10.7887
" />
<path d="M135.6573 10.7887
L135.8430 10.7887
" />
<path d="M135.8430 10.7887
L135.9668 10.8506
" />
<path d="M135.9668 10.8506
L136.0287 10.9125
" />
<path d="M136.0287 10.9125
L136.0906 11.0363
" />
<path d="M136.0906 11.0363
L136.0906 11.3458
" />
<path d="M136.0906 11.3458
L136.0287 11.4696
" />
<path d="M136.0287 11.4696
L135.9668 11.5316
" />
<path d="M135.9668 11.5316
L135.8430 11.5935
" />
<path d="M135.8430 11.5935
L135.4716 11.5935
" />
<path d="M135.4716 11.5935
L135.3478 11.5316
" />
<path d="M135.3478 11.5316
L135.2859 11.4696
" />
</g><text x="185.0000" y="11.6500"
textLength="1.4353" font-size="1.7333" lengthAdjust="spacingAndGlyphs"
text-anchor="start" opacity="0" stroke-opacity="0">4</text>
<g class="stroked-text"><desc>4</desc>
<path d="M185.9668 10.7268
L185.9668 11.5935
" />
<path d="M185.6573 10.2316
L185.3478 11.1601
" />
<path d="M185.3478 11.1601
L186.1525 11.1601
" />
</g><text x="235.0000" y="11.6500"
textLength="1.4353" font-size="1.7333" lengthAdjust="spacingAndGlyphs"
text-anchor="start" opacity="0" stroke-opacity="0">5</text>
<g class="stroked-text"><desc>5</desc>
<path d="M236.0287 10.2935
L235.4097 10.2935
" />
<path d="M235.4097 10.2935
L235.3478 10.9125
" />
<path d="M235.3478 10.9125
L235.4097 10.8506
" />
<path d="M235.4097 10.8506
L235.5335 10.7887
" />
<path d="M235.5335 10.7887
L235.8430 10.7887
" />
<path d="M235.8430 10.7887
L235.9668 10.8506
" />
<path d="M235.9668 10.8506
L236.0287 10.9125
" />
<path d="M236.0287 10.9125
L236.0906 11.0363
" />
<path d="M236.0906 11.0363
L236.0906 11.3458
" />
<path d="M236.0906 11.3458
L236.0287 11.4696
" />
<path d="M236.0287 11.4696
L235.9668 11.5316
" />
<path d="M235.9668 11.5316
L235.8430 11.5935
" />
<path d="M235.8430 11.5935
L235.5335 11.5935
" />
<path d="M235.5335 11.5935
L235.4097 11.5316
" />
<path d="M235.4097 11.5316
L235.3478 11.4696
" />
</g><text x="285.0000" y="11.6500"
textLength="1.4353" font-size="1.7333" lengthAdjust="spacingAndGlyphs"
text-anchor="start" opacity="0" stroke-opacity="0">6</text>
<g class="stroked-text"><desc>6</desc>
<path d="M285.9668 10.2935
L285.7192 10.2935
" />
<path d="M285.7192 10.2935
L285.5954 10.3554
" />
<path d="M285.5954 10.3554
L285.5335 10.4173
" />
<path d="M285.5335 10.4173
L285.4097 10.6030
" />
<path d="M285.4097 10.6030
L285.3478 10.8506
" />
<path d="M285.3478 10.8506
L285.3478 11.3458
" />
<path d="M285.3478 11.3458
L285.4097 11.4696
" />
<path d="M285.4097 11.4696
L285.4716 11.5316
" />
<path d="M285.4716 11.5316
L285.5954 11.5935
" />
<path d="M285.5954 11.5935
L285.8430 11.5935
" />
<path d="M285.8430 11.5935
L285.9668 11.5316
" />
<path d="M285.9668 11.5316
L286.0287 11.4696
" />
<path d="M286.0287 11.4696
L286.0906 11.3458
" />
<path d="M286.0906 11.3458
L286.0906 11.0363
" />
<path d="M286.0906 11.0363
L286.0287 10.9125
" />
<path d="M286.0287 10.9125
L285.9668 10.8506
" />
<path d="M285.9668 10.8506
L285.8430 10.7887
" />
<path d="M285.8430 10.7887
L285.5954 10.7887
" />
<path d="M285.5954 10.7887
L285.4716 10.8506
" />
<path d="M285.4716 10.8506
L285.4097 10.9125
" />
<path d="M285.4097 10.9125
L285.3478 11.0363
" />
</g><path d="M60.0000 198.0072
L60.0000 200.0072
" />
<path d="M110.0000 198.0072
L110.0000 200.0072
" />
<path d="M160.0000 198.0072
L160.0000 200.0072
" />
<path d="M210.0000 198.0072
L210.0000 200.0072
" />
<path d="M260.0000 198.0072
L260.0000 200.0072
" />
<text x="35.0000" y="199.6572"
textLength="1.4353" font-size="1.7333" lengthAdjust="spacingAndGlyphs"
text-anchor="start" opacity="0" stroke-opacity="0">1</text>
<g class="stroked-text"><desc>1</desc>
<path d="M36.0906 199.6007
L35.3478 199.6007
" />
<path d="M35.7192 199.6007
L35.7192 198.3007
" />
<path d="M35.7192 198.3007
L35.5954 198.4864
" />
<path d="M35.5954 198.4864
L35.4716 198.6102
" />
<path d="M35.4716 198.6102
L35.3478 198.6721
" />
</g><text x="85.0000" y="199.6572"
textLength="1.4353" font-size="1.7333" lengthAdjust="spacingAndGlyphs"
text-anchor="start" opacity="0" stroke-opacity="0">2</text>
<g class="stroked-text"><desc>2</desc>
<path d="M85.3478 198.4245
L85.4097 198.3626
" />
<path d="M85.4097 198.3626
L85.5335 198.3007
" />
<path d="M85.5335 198.3007
L85.8430 198.3007
" />
<path d="M85.8430 198.3007
L85.9668 198.3626
" />
<path d="M85.9668 198.3626
L86.0287 198.4245
" />
<path d="M86.0287 198.4245
L86.0906 198.5483
" />
<path d="M86.0906 198.5483
L86.0906 198.6721
" />
<path d="M86.0906 198.6721
L86.0287 198.8578
" />
<path d="M86.0287 198.8578
L85.2859 199.6007
" />
<path d="M85.2859 199.6007
L86.0906 199.6007
" />
</g><text x="135.0000" y="199.6572"
textLength="1.4353" font-size="1.7333" lengthAdjust="spacingAndGlyphs"
text-anchor="start" opacity="0" stroke-opacity="0">3</text>
<g class="stroked-text"><desc>3</desc>
<path d="M135.2859 198.3007
L136.0906 198.3007
" />
<path d="M136.0906 198.3007
L135.6573 198.7959
" />
<path d="M135.6573 198.7959
L135.8430 198.7959
" />
<path d="M135.8430 198.7959
L135.9668 198.8578
" />
<path d="M135.9668 198.8578
L136.0287 198.9197
" />
<path d="M136.0287 198.9197
L136.0906 199.0435
" />
<path d="M136.0906 199.0435
L136.0906 199.3530
" />
<path d="M136.0906 199.3530
L136.0287 199.4768
" />
<path d="M136.0287 199.4768
L135.9668 199.5388
" />
<path d="M135.9668 199.5388
L135.8430 199.6007
" />
<path d="M135.8430 199.6007
L135.4716 199.6007
" />
<path d="M135.4716 199.6007
L135.3478 199.5388
" />
<path d="M135.3478 199.5388
L135.2859 199.4768
" />
</g><text x="185.0000" y="199.6572"
textLength="1.4353" font-size="1.7333" lengthAdjust="spacingAndGlyphs"
text-anchor="start" opacity="0" stroke-opacity="0">4</text>
<g class="stroked-text"><desc>4</desc>
<path d="M185.9668 198.7340
L185.9668 199.6007
" />
<path d="M185.6573 198.2388
L185.3478 199.1673
" />
<path d="M185.3478 199.1673
L186.1525 199.1673
" />
</g><text x="235.0000" y="199.6572"
textLength="1.4353" font-size="1.7333" lengthAdjust="spacingAndGlyphs"
text-anchor="start" opacity="0" stroke-opacity="0">5</text>
<g class="stroked-text"><desc>5</desc>
<path d="M236.0287 198.3007
L235.4097 198.3007
" />
<path d="M235.4097 198.3007
L235.3478 198.9197
" />
<path d="M235.3478 198.9197
L235.4097 198.8578
" />
<path d="M235.4097 198.8578
L235.5335 198.7959
" />
<path d="M235.5335 198.7959
L235.8430 198.7959
" />
<path d="M235.8430 198.7959
L235.9668 198.8578
" />
<path d="M235.9668 198.8578
L236.0287 198.9197
" />
<path d="M236.0287 198.9197
L236.0906 199.0435
" />
<path d="M236.0906 199.0435
L236.0906 199.3530
" />
<path d="M236.0906 199.3530
L236.0287 199.4768
" />
<path d="M236.0287 199.4768
L235.9668 199.5388
" />
<path d="M235.9668 199.5388
L235.8430 199.6007
" />
<path d="M235.8430 199.6007
L235.5335 199.6007
" />
<path d="M235.5335 199.6007
L235.4097 199.5388
" />
<path d="M235.4097 199.5388
L235.3478 199.4768
" />
</g><text x="285.0000" y="199.6572"
textLength="1.4353" font-size="1.7333" lengthAdjust="spacingAndGlyphs"
text-anchor="start" opacity="0" stroke-opacity="0">6</text>
<g class="stroked-text"><desc>6</desc>
<path d="M285.9668 198.3007
L285.7192 198.3007
" />
<path d="M285.7192 198.3007
L285.5954 198.3626
" />
<path d="M285.5954 198.3626
L285.5335 198.4245
" />
<path d="M285.5335 198.4245
L285.4097 198.6102
" />
<path d="M285.4097 198.6102
L285.3478 198.8578
" />
<path d="M285.3478 198.8578
L285.3478 199.3530
" />
<path d="M285.3478 199.3530
L285.4097 199.4768
" />
<path d="M285.4097 199.4768
L285.4716 199.5388
" />
<path d="M285.4716 199.5388
L285.5954 199.6007
" />
<path d="M285.5954 199.6007
L285.8430 199.6007
" />
<path d="M285.8430 199.6007
L285.9668 199.5388
" />
<path d="M285.9668 199.5388
L286.0287 199.4768
" />
<path d="M286.0287 199.4768
L286.0906 199.3530
" />
<path d="M286.0906 199.3530
L286.0906 199.0435
" />
<path d="M286.0906 199.0435
L286.0287 198.9197
" />
<path d="M286.0287 198.9197
L285.9668 198.8578
" />
<path d="M285.9668 198.8578
L285.8430 198.7959
" />
<path d="M285.8430 198.7959
L285.5954 198.7959
" />
<path d="M285.5954 198.7959
L285.4716 198.8578
" />
<path d="M285.4716 198.8578
L285.4097 198.9197
" />
<path d="M285.4097 198.9197
L285.3478 199.0435
" />
</g><path d="M10.0000 60.0000
L12.0000 60.0000
" />
<path d="M10.0000 110.0000
L12.0000 110.0000
" />
<path d="M10.0000 160.0000
L12.0000 160.0000
" />
<text x="11.0000" y="35.6500"
textLength="1.3115" font-size="1.7333" lengthAdjust="spacingAndGlyphs"
text-anchor="middle" opacity="0" stroke-opacity="0">A</text>
<g class="stroked-text"><desc>A</desc>
<path d="M10.6905 35.2220
L11.3095 35.2220
" />
<path d="M10.5667 35.5935
L11.0000 34.2935
" />
<path d="M11.0000 34.2935
L11.4333 35.5935
" />
</g><text x="11.0000" y="85.6500"
textLength="1.4972" font-size="1.7333" lengthAdjust="spacingAndGlyphs"
text-anchor="middle" opacity="0" stroke-opacity="0">B</text>
<g class="stroked-text"><desc>B</desc>
<path d="M11.0928 84.9125
L11.2785 84.9744
" />
<path d="M11.2785 84.9744
L11.3404 85.0363
" />
<path d="M11.3404 85.0363
L11.4023 85.1601
" />
<path d="M11.4023 85.1601
L11.4023 85.3458
" />
<path d="M11.4023 85.3458
L11.3404 85.4696
" />
<path d="M11.3404 85.4696
L11.2785 85.5316
" />
<path d="M11.2785 85.5316
L11.1547 85.5935
" />
<path d="M11.1547 85.5935
L10.6595 85.5935
" />
<path d="M10.6595 85.5935
L10.6595 84.2935
" />
<path d="M10.6595 84.2935
L11.0928 84.2935
" />
<path d="M11.0928 84.2935
L11.2166 84.3554
" />
<path d="M11.2166 84.3554
L11.2785 84.4173
" />
<path d="M11.2785 84.4173
L11.3404 84.5411
" />
<path d="M11.3404 84.5411
L11.3404 84.6649
" />
<path d="M11.3404 84.6649
L11.2785 84.7887
" />
<path d="M11.2785 84.7887
L11.2166 84.8506
" />
<path d="M11.2166 84.8506
L11.0928 84.9125
" />
<path d="M11.0928 84.9125
L10.6595 84.9125
" />
</g><text x="11.0000" y="135.6500"
textLength="1.4972" font-size="1.7333" lengthAdjust="spacingAndGlyphs"
text-anchor="middle" opacity="0" stroke-opacity="0">C</text>
<g class="stroked-text"><desc>C</desc>
<path d="M11.4023 135.4696
L11.3404 135.5316
" />
<path d="M11.3404 135.5316
L11.1547 135.5935
" />
<path d="M11.1547 135.5935
L11.0309 135.5935
" />
<path d="M11.0309 135.5935
L10.8452 135.5316
" />
<path d="M10.8452 135.5316
L10.7214 135.4077
" />
<path d="M10.7214 135.4077
L10.6595 135.2839
" />
<path d="M10.6595 135.2839
L10.5976 135.0363
" />
<path d="M10.5976 135.0363
L10.5976 134.8506
" />
<path d="M10.5976 134.8506
L10.6595 134.6030
" />
<path d="M10.6595 134.6030
L10.7214 134.4792
" />
<path d="M10.7214 134.4792
L10.8452 134.3554
" />
<path d="M10.8452 134.3554
L11.0309 134.2935
" />
<path d="M11.0309 134.2935
L11.1547 134.2935
" />
<path d="M11.1547 134.2935
L11.3404 134.3554
" />
<path d="M11.3404 134.3554
L11.4023 134.4173
" />
</g><text x="11.0000" y="185.6500"
textLength="1.4972" font-size="1.7333" lengthAdjust="spacingAndGlyphs"
text-anchor="middle" opacity="0" stroke-opacity="0">D</text>
<g class="stroked-text"><desc>D</desc>
<path d="M10.6595 185.5935
L10.6595 184.2935
" />
<path d="M10.6595 184.2935
L10.9690 184.2935
" />
<path d="M10.9690 184.2935
L11.1547 184.3554
" />
<path d="M11.1547 184.3554
L11.2785 184.4792
" />
<path d="M11.2785 184.4792
L11.3404 184.6030
" />
<path d="M11.3404 184.6030
L11.4023 184.8506
" />
<path d="M11.4023 184.8506
L11.4023 185.0363
" />
<path d="M11.4023 185.0363
L11.3404 185.2839
" />
<path d="M11.3404 185.2839
L11.2785 185.4077
" />
<path d="M11.2785 185.4077
L11.1547 185.5316
" />
<path d="M11.1547 185.5316
L10.9690 185.5935
" />
<path d="M10.9690 185.5935
L10.6595 185.5935
" />
</g><path d="M287.0022 60.0000
L285.0022 60.0000
" />
<path d="M287.0022 110.0000
L285.0022 110.0000
" />
<path d="M287.0022 160.0000
L285.0022 160.0000
" />
<text x="286.0022" y="35.6500"
textLength="1.3115" font-size="1.7333" lengthAdjust="spacingAndGlyphs"
text-anchor="middle" opacity="0" stroke-opacity="0">A</text>
<g class="stroked-text"><desc>A</desc>
<path d="M285.6927 35.2220
L286.3117 35.2220
" />
<path d="M285.5689 35.5935
L286.0022 34.2935
" />
<path d="M286.0022 34.2935
L286.4355 35.5935
" />
</g><text x="286.0022" y="85.6500"
textLength="1.4972" font-size="1.7333" lengthAdjust="spacingAndGlyphs"
text-anchor="middle" opacity="0" stroke-opacity="0">B</text>
<g class="stroked-text"><desc>B</desc>
<path d="M286.0950 84.9125
L286.2807 84.9744
" />
<path d="M286.2807 84.9744
L286.3426 85.0363
" />
<path d="M286.3426 85.0363
L286.4045 85.1601
" />
<path d="M286.4045 85.1601
L286.4045 85.3458
" />
<path d="M286.4045 85.3458
L286.3426 85.4696
" />
<path d="M286.3426 85.4696
L286.2807 85.5316
" />
<path d="M286.2807 85.5316
L286.1569 85.5935
" />
<path d="M286.1569 85.5935
L285.6617 85.5935
" />
<path d="M285.6617 85.5935
L285.6617 84.2935
" />
<path d="M285.6617 84.2935
L286.0950 84.2935
" />
<path d="M286.0950 84.2935
L286.2188 84.3554
" />
<path d="M286.2188 84.3554
L286.2807 84.4173
" />
<path d="M286.2807 84.4173
L286.3426 84.5411
" />
<path d="M286.3426 84.5411
L286.3426 84.6649
" />
<path d="M286.3426 84.6649
L286.2807 84.7887
" />
<path d="M286.2807 84.7887
L286.2188 84.8506
" />
<path d="M286.2188 84.8506
L286.0950 84.9125
" />
<path d="M286.0950 84.9125
L285.6617 84.9125
" />
</g><text x="286.0022" y="135.6500"
textLength="1.4972" font-size="1.7333" lengthAdjust="spacingAndGlyphs"
text-anchor="middle" opacity="0" stroke-opacity="0">C</text>
<g class="stroked-text"><desc>C</desc>
<path d="M286.4045 135.4696
L286.3426 135.5316
" />
<path d="M286.3426 135.5316
L286.1569 135.5935
" />
<path d="M286.1569 135.5935
L286.0331 135.5935
" />
<path d="M286.0331 135.5935
L285.8474 135.5316
" />
<path d="M285.8474 135.5316
L285.7236 135.4077
" />
<path d="M285.7236 135.4077
L285.6617 135.2839
" />
<path d="M285.6617 135.2839
L285.5998 135.0363
" />
<path d="M285.5998 135.0363
L285.5998 134.8506
" />
<path d="M285.5998 134.8506
L285.6617 134.6030
" />
<path d="M285.6617 134.6030
L285.7236 134.4792
" />
<path d="M285.7236 134.4792
L285.8474 134.3554
" />
<path d="M285.8474 134.3554
L286.0331 134.2935
" />
<path d="M286.0331 134.2935
L286.1569 134.2935
" />
<path d="M286.1569 134.2935
L286.3426 134.3554
" />
<path d="M286.3426 134.3554
L286.4045 134.4173
" />
</g><text x="286.0022" y="185.6500"
textLength="1.4972" font-size="1.7333" lengthAdjust="spacingAndGlyphs"
text-anchor="middle" opacity="0" stroke-opacity="0">D</text>
<g class="stroked-text"><desc>D</desc>
<path d="M285.6617 185.5935
L285.6617 184.2935
" />
<path d="M285.6617 184.2935
L285.9712 184.2935
" />
<path d="M285.9712 184.2935
L286.1569 184.3554
" />
<path d="M286.1569 184.3554
L286.2807 184.4792
" />
<path d="M286.2807 184.4792
L286.3426 184.6030
" />
<path d="M286.3426 184.6030
L286.4045 184.8506
" />
<path d="M286.4045 184.8506
L286.4045 185.0363
" />
<path d="M286.4045 185.0363
L286.3426 185.2839
" />
<path d="M286.3426 185.2839
L286.2807 185.4077
" />
<path d="M286.2807 185.4077
L286.1569 185.5316
" />
<path d="M286.1569 185.5316
L285.9712 185.5935
" />
<path d="M285.9712 185.5935
L285.6617 185.5935
" />
</g><text x="200.0022" y="193.8572"
textLength="7.0143" font-size="2.0000" lengthAdjust="spacingAndGlyphs"
text-anchor="start" opacity="0" stroke-opacity="0">Date: </text>
<g class="stroked-text"><desc>Date: </desc>
<path d="M200.4595 193.7931
L200.4595 192.2931
" />
<path d="M200.4595 192.2931
L200.8166 192.2931
" />
<path d="M200.8166 192.2931
L201.0309 192.3645
" />
<path d="M201.0309 192.3645
L201.1738 192.5074
" />
<path d="M201.1738 192.5074
L201.2452 192.6502
" />
<path d="M201.2452 192.6502
L201.3166 192.9359
" />
<path d="M201.3166 192.9359
L201.3166 193.1502
" />
<path d="M201.3166 193.1502
L201.2452 193.4359
" />
<path d="M201.2452 193.4359
L201.1738 193.5788
" />
<path d="M201.1738 193.5788
L201.0309 193.7217
" />
<path d="M201.0309 193.7217
L200.8166 193.7931
" />
<path d="M200.8166 193.7931
L200.4595 193.7931
" />
<path d="M202.6024 193.7931
L202.6024 193.0074
" />
<path d="M202.6024 193.0074
L202.5309 192.8645
" />
<path d="M202.5309 192.8645
L202.3881 192.7931
" />
<path d="M202.3881 192.7931
L202.1024 192.7931
" />
<path d="M202.1024 192.7931
L201.9595 192.8645
" />
<path d="M202.6024 193.7217
L202.4595 193.7931
" />
<path d="M202.4595 193.7931
L202.1024 193.7931
" />
<path d="M202.1024 193.7931
L201.9595 193.7217
" />
<path d="M201.9595 193.7217
L201.8881 193.5788
" />
<path d="M201.8881 193.5788
L201.8881 193.4359
" />
<path d="M201.8881 193.4359
L201.9595 193.2931
" />
<path d="M201.9595 193.2931
L202.1024 193.2217
" />
<path d="M202.1024 193.2217
L202.4595 193.2217
" />
<path d="M202.4595 193.2217
L202.6024 193.1502
" />
<path d="M203.1023 192.7931
L203.6737 192.7931
" />
<path d="M203.3166 192.2931
L203.3166 193.5788
" />
<path d="M203.3166 193.5788
L203.3880 193.7217
" />
<path d="M203.3880 193.7217
L203.5309 193.7931
" />
<path d="M203.5309 193.7931
L203.6737 193.7931
" />
<path d="M204.7451 193.7217
L204.6023 193.7931
" />
<path d="M204.6023 193.7931
L204.3166 193.7931
" />
<path d="M204.3166 193.7931
L204.1737 193.7217
" />
<path d="M204.1737 193.7217
L204.1023 193.5788
" />
<path d="M204.1023 193.5788
L204.1023 193.0074
" />
<path d="M204.1023 193.0074
L204.1737 192.8645
" />
<path d="M204.1737 192.8645
L204.3166 192.7931
" />
<path d="M204.3166 192.7931
L204.6023 192.7931
" />
<path d="M204.6023 192.7931
L204.7451 192.8645
" />
<path d="M204.7451 192.8645
L204.8166 193.0074
" />
<path d="M204.8166 193.0074
L204.8166 193.1502
" />
<path d="M204.8166 193.1502
L204.1023 193.2931
" />
<path d="M205.4594 193.6502
L205.5308 193.7217
" />
<path d="M205.5308 193.7217
L205.4594 193.7931
" />
<path d="M205.4594 193.7931
L205.3880 193.7217
" />
<path d="M205.3880 193.7217
L205.4594 193.6502
" />
<path d="M205.4594 193.6502
L205.4594 193.7931
" />
<path d="M205.4594 192.8645
L205.5308 192.9359
" />
<path d="M205.5308 192.9359
L205.4594 193.0074
" />
<path d="M205.4594 193.0074
L205.3880 192.9359
" />
<path d="M205.3880 192.9359
L205.4594 192.8645
" />
<path d="M205.4594 192.8645
L205.4594 193.0074
" />
</g><path d="M177.0022 194.5072
L285.0022 194.5072
" />
<text x="178.0022" y="196.6572"
textLength="20.8716" font-size="2.0000" lengthAdjust="spacingAndGlyphs"
text-anchor="start" opacity="0" stroke-opacity="0">KiCad E.D.A. 9.0.6</text>
<g class="stroked-text"><desc>KiCad E.D.A. 9.0.6</desc>
<path d="M178.4595 196.5931
L178.4595 195.0931
" />
<path d="M179.3166 196.5931
L178.6738 195.7359
" />
<path d="M179.3166 195.0931
L178.4595 195.9502
" />
<path d="M179.9595 196.5931
L179.9595 195.5931
" />
<path d="M179.9595 195.0931
L179.8881 195.1645
" />
<path d="M179.8881 195.1645
L179.9595 195.2359
" />
<path d="M179.9595 195.2359
L180.0309 195.1645
" />
<path d="M180.0309 195.1645
L179.9595 195.0931
" />
<path d="M179.9595 195.0931
L179.9595 195.2359
" />
<path d="M181.5309 196.4502
L181.4595 196.5217
" />
<path d="M181.4595 196.5217
L181.2452 196.5931
" />
<path d="M181.2452 196.5931
L181.1024 196.5931
" />
<path d="M181.1024 196.5931
L180.8881 196.5217
" />
<path d="M180.8881 196.5217
L180.7452 196.3788
" />
<path d="M180.7452 196.3788
L180.6738 196.2359
" />
<path d="M180.6738 196.2359
L180.6024 195.9502
" />
<path d="M180.6024 195.9502
L180.6024 195.7359
" />
<path d="M180.6024 195.7359
L180.6738 195.4502
" />
<path d="M180.6738 195.4502
L180.7452 195.3074
" />
<path d="M180.7452 195.3074
L180.8881 195.1645
" />
<path d="M180.8881 195.1645
L181.1024 195.0931
" />
<path d="M181.1024 195.0931
L181.2452 195.0931
" />
<path d="M181.2452 195.0931
L181.4595 195.1645
" />
<path d="M181.4595 195.1645
L181.5309 195.2359
" />
<path d="M182.8167 196.5931
L182.8167 195.8074
" />
<path d="M182.8167 195.8074
L182.7452 195.6645
" />
<path d="M182.7452 195.6645
L182.6024 195.5931
" />
<path d="M182.6024 195.5931
L182.3167 195.5931
" />
<path d="M182.3167 195.5931
L182.1738 195.6645
" />
<path d="M182.8167 196.5217
L182.6738 196.5931
" />
<path d="M182.6738 196.5931
L182.3167 196.5931
" />
<path d="M182.3167 196.5931
L182.1738 196.5217
" />
<path d="M182.1738 196.5217
L182.1024 196.3788
" />
<path d="M182.1024 196.3788
L182.1024 196.2359
" />
<path d="M182.1024 196.2359
L182.1738 196.0931
" />
<path d="M182.1738 196.0931
L182.3167 196.0217
" />
<path d="M182.3167 196.0217
L182.6738 196.0217
" />
<path d="M182.6738 196.0217
L182.8167 195.9502
" />
<path d="M184.1738 196.5931
L184.1738 195.0931
" />
<path d="M184.1738 196.5217
L184.0309 196.5931
" />
<path d="M184.0309 196.5931
L183.7452 196.5931
" />
<path d="M183.7452 196.5931
L183.6023 196.5217
" />
<path d="M183.6023 196.5217
L183.5309 196.4502
" />
<path d="M183.5309 196.4502
L183.4595 196.3074
" />
<path d="M183.4595 196.3074
L183.4595 195.8788
" />
<path d="M183.4595 195.8788
L183.5309 195.7359
" />
<path d="M183.5309 195.7359
L183.6023 195.6645
" />
<path d="M183.6023 195.6645
L183.7452 195.5931
" />
<path d="M183.7452 195.5931
L184.0309 195.5931
" />
<path d="M184.0309 195.5931
L184.1738 195.6645
" />
<path d="M186.0309 195.8074
L186.5309 195.8074
" />
<path d="M186.7452 196.5931
L186.0309 196.5931
" />
<path d="M186.0309 196.5931
L186.0309 195.0931
" />
<path d="M186.0309 195.0931
L186.7452 195.0931
" />
<path d="M187.3880 196.4502
L187.4594 196.5217
" />
<path d="M187.4594 196.5217
L187.3880 196.5931
" />
<path d="M187.3880 196.5931
L187.3166 196.5217
" />
<path d="M187.3166 196.5217
L187.3880 196.4502
" />
<path d="M187.3880 196.4502
L187.3880 196.5931
" />
<path d="M188.1023 196.5931
L188.1023 195.0931
" />
<path d="M188.1023 195.0931
L188.4594 195.0931
" />
<path d="M188.4594 195.0931
L188.6737 195.1645
" />
<path d="M188.6737 195.1645
L188.8166 195.3074
" />
<path d="M188.8166 195.3074
L188.8880 195.4502
" />
<path d="M188.8880 195.4502
L188.9594 195.7359
" />
<path d="M188.9594 195.7359
L188.9594 195.9502
" />
<path d="M188.9594 195.9502
L188.8880 196.2359
" />
<path d="M188.8880 196.2359
L188.8166 196.3788
" />
<path d="M188.8166 196.3788
L188.6737 196.5217
" />
<path d="M188.6737 196.5217
L188.4594 196.5931
" />
<path d="M188.4594 196.5931
L188.1023 196.5931
" />
<path d="M189.6023 196.4502
L189.6737 196.5217
" />
<path d="M189.6737 196.5217
L189.6023 196.5931
" />
<path d="M189.6023 196.5931
L189.5309 196.5217
" />
<path d="M189.5309 196.5217
L189.6023 196.4502
" />
<path d="M189.6023 196.4502
L189.6023 196.5931
" />
<path d="M190.2452 196.1645
L190.9595 196.1645
" />
<path d="M190.1023 196.5931
L190.6023 195.0931
" />
<path d="M190.6023 195.0931
L191.1023 196.5931
" />
<path d="M191.6023 196.4502
L191.6737 196.5217
" />
<path d="M191.6737 196.5217
L191.6023 196.5931
" />
<path d="M191.6023 196.5931
L191.5309 196.5217
" />
<path d="M191.5309 196.5217
L191.6023 196.4502
" />
<path d="M191.6023 196.4502
L191.6023 196.5931
" />
<path d="M193.5309 196.5931
L193.8166 196.5931
" />
<path d="M193.8166 196.5931
L193.9595 196.5217
" />
<path d="M193.9595 196.5217
L194.0309 196.4502
" />
<path d="M194.0309 196.4502
L194.1738 196.2359
" />
<path d="M194.1738 196.2359
L194.2452 195.9502
" />
<path d="M194.2452 195.9502
L194.2452 195.3788
" />
<path d="M194.2452 195.3788
L194.1738 195.2359
" />
<path d="M194.1738 195.2359
L194.1024 195.1645
" />
<path d="M194.1024 195.1645
L193.9595 195.0931
" />
<path d="M193.9595 195.0931
L193.6738 195.0931
" />
<path d="M193.6738 195.0931
L193.5309 195.1645
" />
<path d="M193.5309 195.1645
L193.4595 195.2359
" />
<path d="M193.4595 195.2359
L193.3881 195.3788
" />
<path d="M193.3881 195.3788
L193.3881 195.7359
" />
<path d="M193.3881 195.7359
L193.4595 195.8788
" />
<path d="M193.4595 195.8788
L193.5309 195.9502
" />
<path d="M193.5309 195.9502
L193.6738 196.0217
" />
<path d="M193.6738 196.0217
L193.9595 196.0217
" />
<path d="M193.9595 196.0217
L194.1024 195.9502
" />
<path d="M194.1024 195.9502
L194.1738 195.8788
" />
<path d="M194.1738 195.8788
L194.2452 195.7359
" />
<path d="M194.8881 196.4502
L194.9595 196.5217
" />
<path d="M194.9595 196.5217
L194.8881 196.5931
" />
<path d="M194.8881 196.5931
L194.8167 196.5217
" />
<path d="M194.8167 196.5217
L194.8881 196.4502
" />
<path d="M194.8881 196.4502
L194.8881 196.5931
" />
<path d="M195.8881 195.0931
L196.0310 195.0931
" />
<path d="M196.0310 195.0931
L196.1738 195.1645
" />
<path d="M196.1738 195.1645
L196.2453 195.2359
" />
<path d="M196.2453 195.2359
L196.3167 195.3788
" />
<path d="M196.3167 195.3788
L196.3881 195.6645
" />
<path d="M196.3881 195.6645
L196.3881 196.0217
" />
<path d="M196.3881 196.0217
L196.3167 196.3074
" />
<path d="M196.3167 196.3074
L196.2453 196.4502
" />
<path d="M196.2453 196.4502
L196.1738 196.5217
" />
<path d="M196.1738 196.5217
L196.0310 196.5931
" />
<path d="M196.0310 196.5931
L195.8881 196.5931
" />
<path d="M195.8881 196.5931
L195.7453 196.5217
" />
<path d="M195.7453 196.5217
L195.6738 196.4502
" />
<path d="M195.6738 196.4502
L195.6024 196.3074
" />
<path d="M195.6024 196.3074
L195.5310 196.0217
" />
<path d="M195.5310 196.0217
L195.5310 195.6645
" />
<path d="M195.5310 195.6645
L195.6024 195.3788
" />
<path d="M195.6024 195.3788
L195.6738 195.2359
" />
<path d="M195.6738 195.2359
L195.7453 195.1645
" />
<path d="M195.7453 195.1645
L195.8881 195.0931
" />
<path d="M197.0310 196.4502
L197.1024 196.5217
" />
<path d="M197.1024 196.5217
L197.0310 196.5931
" />
<path d="M197.0310 196.5931
L196.9596 196.5217
" />
<path d="M196.9596 196.5217
L197.0310 196.4502
" />
<path d="M197.0310 196.4502
L197.0310 196.5931
" />
<path d="M198.3882 195.0931
L198.1024 195.0931
" />
<path d="M198.1024 195.0931
L197.9596 195.1645
" />
<path d="M197.9596 195.1645
L197.8882 195.2359
" />
<path d="M197.8882 195.2359
L197.7453 195.4502
" />
<path d="M197.7453 195.4502
L197.6739 195.7359
" />
<path d="M197.6739 195.7359
L197.6739 196.3074
" />
<path d="M197.6739 196.3074
L197.7453 196.4502
" />
<path d="M197.7453 196.4502
L197.8167 196.5217
" />
<path d="M197.8167 196.5217
L197.9596 196.5931
" />
<path d="M197.9596 196.5931
L198.2453 196.5931
" />
<path d="M198.2453 196.5931
L198.3882 196.5217
" />
<path d="M198.3882 196.5217
L198.4596 196.4502
" />
<path d="M198.4596 196.4502
L198.5310 196.3074
" />
<path d="M198.5310 196.3074
L198.5310 195.9502
" />
<path d="M198.5310 195.9502
L198.4596 195.8074
" />
<path d="M198.4596 195.8074
L198.3882 195.7359
" />
<path d="M198.3882 195.7359
L198.2453 195.6645
" />
<path d="M198.2453 195.6645
L197.9596 195.6645
" />
<path d="M197.9596 195.6645
L197.8167 195.7359
" />
<path d="M197.8167 195.7359
L197.7453 195.8074
" />
<path d="M197.7453 195.8074
L197.6739 195.9502
" />
</g><path d="M177.0022 191.5072
L285.0022 191.5072
" />
</g>
<g style="fill:none; 
stroke:#840000; stroke-width:0.3000; stroke-opacity:1; 
stroke-linecap:round; stroke-linejoin:round;">
<text x="263.0022" y="193.8572"
textLength="6.3858" font-size="2.0000" lengthAdjust="spacingAndGlyphs"
text-anchor="start" opacity="0" stroke-opacity="0">Rev: </text>
<g class="stroked-text"><desc>Rev: </desc>
<path d="M264.4137 193.7855
L263.9137 193.0712
" />
<path d="M263.5566 193.7855
L263.5566 192.2855
" />
<path d="M263.5566 192.2855
L264.1280 192.2855
" />
<path d="M264.1280 192.2855
L264.2709 192.3569
" />
<path d="M264.2709 192.3569
L264.3423 192.4283
" />
<path d="M264.3423 192.4283
L264.4137 192.5712
" />
<path d="M264.4137 192.5712
L264.4137 192.7855
" />
<path d="M264.4137 192.7855
L264.3423 192.9283
" />
<path d="M264.3423 192.9283
L264.2709 192.9998
" />
<path d="M264.2709 192.9998
L264.1280 193.0712
" />
<path d="M264.1280 193.0712
L263.5566 193.0712
" />
<path d="M265.6280 193.7141
L265.4852 193.7855
" />
<path d="M265.4852 193.7855
L265.1995 193.7855
" />
<path d="M265.1995 193.7855
L265.0566 193.7141
" />
<path d="M265.0566 193.7141
L264.9852 193.5712
" />
<path d="M264.9852 193.5712
L264.9852 192.9998
" />
<path d="M264.9852 192.9998
L265.0566 192.8569
" />
<path d="M265.0566 192.8569
L265.1995 192.7855
" />
<path d="M265.1995 192.7855
L265.4852 192.7855
" />
<path d="M265.4852 192.7855
L265.6280 192.8569
" />
<path d="M265.6280 192.8569
L265.6995 192.9998
" />
<path d="M265.6995 192.9998
L265.6995 193.1426
" />
<path d="M265.6995 193.1426
L264.9852 193.2855
" />
<path d="M266.1994 192.7855
L266.5566 193.7855
" />
<path d="M266.5566 193.7855
L266.9137 192.7855
" />
<path d="M267.4852 193.6426
L267.5566 193.7141
" />
<path d="M267.5566 193.7141
L267.4852 193.7855
" />
<path d="M267.4852 193.7855
L267.4138 193.7141
" />
<path d="M267.4138 193.7141
L267.4852 193.6426
" />
<path d="M267.4852 193.6426
L267.4852 193.7855
" />
<path d="M267.4852 192.8569
L267.5566 192.9283
" />
<path d="M267.5566 192.9283
L267.4852 192.9998
" />
<path d="M267.4852 192.9998
L267.4138 192.9283
" />
<path d="M267.4138 192.9283
L267.4852 192.8569
" />
<path d="M267.4852 192.8569
L267.4852 192.9998
" />
</g></g>
<g style="fill:none; 
stroke:#840000; stroke-width:0.1524; stroke-opacity:1; 
stroke-linecap:round; stroke-linejoin:round;">
<text x="178.0022" y="193.8572"
textLength="9.3716" font-size="2.0000" lengthAdjust="spacingAndGlyphs"
text-anchor="start" opacity="0" stroke-opacity="0">Size: A4</text>
<g class="stroked-text"><desc>Size: A4</desc>
<path d="M178.3881 193.7217
L178.6024 193.7931
" />
<path d="M178.6024 193.7931
L178.9595 193.7931
" />
<path d="M178.9595 193.7931
L179.1024 193.7217
" />
<path d="M179.1024 193.7217
L179.1738 193.6502
" />
<path d="M179.1738 193.6502
L179.2452 193.5074
" />
<path d="M179.2452 193.5074
L179.2452 193.3645
" />
<path d="M179.2452 193.3645
L179.1738 193.2217
" />
<path d="M179.1738 193.2217
L179.1024 193.1502
" />
<path d="M179.1024 193.1502
L178.9595 193.0788
" />
<path d="M178.9595 193.0788
L178.6738 193.0074
" />
<path d="M178.6738 193.0074
L178.5309 192.9359
" />
<path d="M178.5309 192.9359
L178.4595 192.8645
" />
<path d="M178.4595 192.8645
L178.3881 192.7217
" />
<path d="M178.3881 192.7217
L178.3881 192.5788
" />
<path d="M178.3881 192.5788
L178.4595 192.4359
" />
<path d="M178.4595 192.4359
L178.5309 192.3645
" />
<path d="M178.5309 192.3645
L178.6738 192.2931
" />
<path d="M178.6738 192.2931
L179.0309 192.2931
" />
<path d="M179.0309 192.2931
L179.2452 192.3645
" />
<path d="M179.8881 193.7931
L179.8881 192.7931
" />
<path d="M179.8881 192.2931
L179.8167 192.3645
" />
<path d="M179.8167 192.3645
L179.8881 192.4359
" />
<path d="M179.8881 192.4359
L179.9595 192.3645
" />
<path d="M179.9595 192.3645
L179.8881 192.2931
" />
<path d="M179.8881 192.2931
L179.8881 192.4359
" />
<path d="M180.4595 192.7931
L181.2453 192.7931
" />
<path d="M181.2453 192.7931
L180.4595 193.7931
" />
<path d="M180.4595 193.7931
L181.2453 193.7931
" />
<path d="M182.3881 193.7217
L182.2453 193.7931
" />
<path d="M182.2453 193.7931
L181.9596 193.7931
" />
<path d="M181.9596 193.7931
L181.8167 193.7217
" />
<path d="M181.8167 193.7217
L181.7453 193.5788
" />
<path d="M181.7453 193.5788
L181.7453 193.0074
" />
<path d="M181.7453 193.0074
L181.8167 192.8645
" />
<path d="M181.8167 192.8645
L181.9596 192.7931
" />
<path d="M181.9596 192.7931
L182.2453 192.7931
" />
<path d="M182.2453 192.7931
L182.3881 192.8645
" />
<path d="M182.3881 192.8645
L182.4596 193.0074
" />
<path d="M182.4596 193.0074
L182.4596 193.1502
" />
<path d="M182.4596 193.1502
L181.7453 193.2931
" />
<path d="M183.1024 193.6502
L183.1738 193.7217
" />
<path d="M183.1738 193.7217
L183.1024 193.7931
" />
<path d="M183.1024 193.7931
L183.0310 193.7217
" />
<path d="M183.0310 193.7217
L183.1024 193.6502
" />
<path d="M183.1024 193.6502
L183.1024 193.7931
" />
<path d="M183.1024 192.8645
L183.1738 192.9359
" />
<path d="M183.1738 192.9359
L183.1024 193.0074
" />
<path d="M183.1024 193.0074
L183.0310 192.9359
" />
<path d="M183.0310 192.9359
L183.1024 192.8645
" />
<path d="M183.1024 192.8645
L183.1024 193.0074
" />
<path d="M184.8882 193.3645
L185.6025 193.3645
" />
<path d="M184.7453 193.7931
L185.2453 192.2931
" />
<path d="M185.2453 192.2931
L185.7453 193.7931
" />
<path d="M186.8882 192.7931
L186.8882 193.7931
" />
<path d="M186.5310 192.2217
L186.1739 193.2931
" />
<path d="M186.1739 193.2931
L187.1024 193.2931
" />
</g><text x="263.0022" y="196.6572"
textLength="8.5144" font-size="2.0000" lengthAdjust="spacingAndGlyphs"
text-anchor="start" opacity="0" stroke-opacity="0">Id: 5/5</text>
<g class="stroked-text"><desc>Id: 5/5</desc>
<path d="M263.4595 196.5931
L263.4595 195.0931
" />
<path d="M264.8167 196.5931
L264.8167 195.0931
" />
<path d="M264.8167 196.5217
L264.6738 196.5931
" />
<path d="M264.6738 196.5931
L264.3881 196.5931
" />
<path d="M264.3881 196.5931
L264.2452 196.5217
" />
<path d="M264.2452 196.5217
L264.1738 196.4502
" />
<path d="M264.1738 196.4502
L264.1024 196.3074
" />
<path d="M264.1024 196.3074
L264.1024 195.8788
" />
<path d="M264.1024 195.8788
L264.1738 195.7359
" />
<path d="M264.1738 195.7359
L264.2452 195.6645
" />
<path d="M264.2452 195.6645
L264.3881 195.5931
" />
<path d="M264.3881 195.5931
L264.6738 195.5931
" />
<path d="M264.6738 195.5931
L264.8167 195.6645
" />
<path d="M265.5309 196.4502
L265.6023 196.5217
" />
<path d="M265.6023 196.5217
L265.5309 196.5931
" />
<path d="M265.5309 196.5931
L265.4595 196.5217
" />
<path d="M265.4595 196.5217
L265.5309 196.4502
" />
<path d="M265.5309 196.4502
L265.5309 196.5931
" />
<path d="M265.5309 195.6645
L265.6023 195.7359
" />
<path d="M265.6023 195.7359
L265.5309 195.8074
" />
<path d="M265.5309 195.8074
L265.4595 195.7359
" />
<path d="M265.4595 195.7359
L265.5309 195.6645
" />
<path d="M265.5309 195.6645
L265.5309 195.8074
" />
<path d="M268.1024 195.0931
L267.3881 195.0931
" />
<path d="M267.3881 195.0931
L267.3167 195.8074
" />
<path d="M267.3167 195.8074
L267.3881 195.7359
" />
<path d="M267.3881 195.7359
L267.5310 195.6645
" />
<path d="M267.5310 195.6645
L267.8881 195.6645
" />
<path d="M267.8881 195.6645
L268.0310 195.7359
" />
<path d="M268.0310 195.7359
L268.1024 195.8074
" />
<path d="M268.1024 195.8074
L268.1738 195.9502
" />
<path d="M268.1738 195.9502
L268.1738 196.3074
" />
<path d="M268.1738 196.3074
L268.1024 196.4502
" />
<path d="M268.1024 196.4502
L268.0310 196.5217
" />
<path d="M268.0310 196.5217
L267.8881 196.5931
" />
<path d="M267.8881 196.5931
L267.5310 196.5931
" />
<path d="M267.5310 196.5931
L267.3881 196.5217
" />
<path d="M267.3881 196.5217
L267.3167 196.4502
" />
<path d="M269.8881 195.0217
L268.6024 196.9502
" />
<path d="M271.1024 195.0931
L270.3881 195.0931
" />
<path d="M270.3881 195.0931
L270.3167 195.8074
" />
<path d="M270.3167 195.8074
L270.3881 195.7359
" />
<path d="M270.3881 195.7359
L270.5310 195.6645
" />
<path d="M270.5310 195.6645
L270.8881 195.6645
" />
<path d="M270.8881 195.6645
L271.0310 195.7359
" />
<path d="M271.0310 195.7359
L271.1024 195.8074
" />
<path d="M271.1024 195.8074
L271.1738 195.9502
" />
<path d="M271.1738 195.9502
L271.1738 196.3074
" />
<path d="M271.1738 196.3074
L271.1024 196.4502
" />
<path d="M271.1024 196.4502
L271.0310 196.5217
" />
<path d="M271.0310 196.5217
L270.8881 196.5931
" />
<path d="M270.8881 196.5931
L270.5310 196.5931
" />
<path d="M270.5310 196.5931
L270.3881 196.5217
" />
<path d="M270.3881 196.5217
L270.3167 196.4502
" />
</g><path d="M177.0022 187.5072
L285.0022 187.5072
" />
</g>
<g style="fill:none; 
stroke:#840000; stroke-width:0.4000; stroke-opacity:1; 
stroke-linecap:round; stroke-linejoin:round;">
<text x="178.0022" y="190.3072"
textLength="9.6572" font-size="2.6666" lengthAdjust="spacingAndGlyphs"
text-anchor="start" opacity="0" stroke-opacity="0">Title: </text>
<g class="stroked-text"><desc>Title: </desc>
<path d="M178.6938 188.2116
L179.8367 188.2116
" />
<path d="M179.0153 190.2116
L179.2653 188.2116
" />
<path d="M180.2533 190.2116
L180.4200 188.8783
" />
<path d="M180.5033 188.2116
L180.3962 188.3068
" />
<path d="M180.3962 188.3068
L180.4795 188.4021
" />
<path d="M180.4795 188.4021
L180.5867 188.3068
" />
<path d="M180.5867 188.3068
L180.5033 188.2116
" />
<path d="M180.5033 188.2116
L180.4795 188.4021
" />
<path d="M181.0867 188.8783
L181.8486 188.8783
" />
<path d="M181.4557 188.2116
L181.2415 189.9259
" />
<path d="M181.2415 189.9259
L181.3129 190.1164
" />
<path d="M181.3129 190.1164
L181.4915 190.2116
" />
<path d="M181.4915 190.2116
L181.6819 190.2116
" />
<path d="M182.6344 190.2116
L182.4558 190.1164
" />
<path d="M182.4558 190.1164
L182.3844 189.9259
" />
<path d="M182.3844 189.9259
L182.5986 188.2116
" />
<path d="M184.1700 190.1164
L183.9677 190.2116
" />
<path d="M183.9677 190.2116
L183.5867 190.2116
" />
<path d="M183.5867 190.2116
L183.4081 190.1164
" />
<path d="M183.4081 190.1164
L183.3367 189.9259
" />
<path d="M183.3367 189.9259
L183.4320 189.1640
" />
<path d="M183.4320 189.1640
L183.5510 188.9735
" />
<path d="M183.5510 188.9735
L183.7534 188.8783
" />
<path d="M183.7534 188.8783
L184.1343 188.8783
" />
<path d="M184.1343 188.8783
L184.3129 188.9735
" />
<path d="M184.3129 188.9735
L184.3843 189.1640
" />
<path d="M184.3843 189.1640
L184.3605 189.3544
" />
<path d="M184.3605 189.3544
L183.3843 189.5449
" />
<path d="M185.1343 190.0211
L185.2177 190.1164
" />
<path d="M185.2177 190.1164
L185.1105 190.2116
" />
<path d="M185.1105 190.2116
L185.0272 190.1164
" />
<path d="M185.0272 190.1164
L185.1343 190.0211
" />
<path d="M185.1343 190.0211
L185.1105 190.2116
" />
<path d="M185.2653 188.9735
L185.3486 189.0687
" />
<path d="M185.3486 189.0687
L185.2415 189.1640
" />
<path d="M185.2415 189.1640
L185.1582 189.0687
" />
<path d="M185.1582 189.0687
L185.2653 188.9735
" />
<path d="M185.2653 188.9735
L185.2415 189.1640
" />
</g></g>
<g style="fill:none; 
stroke:#840000; stroke-width:0.1524; stroke-opacity:1; 
stroke-linecap:round; stroke-linejoin:round;">
<text x="178.0022" y="186.4572"
textLength="26.2999" font-size="2.0000" lengthAdjust="spacingAndGlyphs"
text-anchor="start" opacity="0" stroke-opacity="0">File: oledssd.kicad_sch</text>
<g class="stroked-text"><desc>File: oledssd.kicad_sch</desc>
<path d="M178.9595 185.6074
L178.4595 185.6074
" />
<path d="M178.4595 186.3931
L178.4595 184.8931
" />
<path d="M178.4595 184.8931
L179.1738 184.8931
" />
<path d="M179.7452 186.3931
L179.7452 185.3931
" />
<path d="M179.7452 184.8931
L179.6738 184.9645
" />
<path d="M179.6738 184.9645
L179.7452 185.0359
" />
<path d="M179.7452 185.0359
L179.8166 184.9645
" />
<path d="M179.8166 184.9645
L179.7452 184.8931
" />
<path d="M179.7452 184.8931
L179.7452 185.0359
" />
<path d="M180.6738 186.3931
L180.5309 186.3217
" />
<path d="M180.5309 186.3217
L180.4595 186.1788
" />
<path d="M180.4595 186.1788
L180.4595 184.8931
" />
<path d="M181.8166 186.3217
L181.6738 186.3931
" />
<path d="M181.6738 186.3931
L181.3881 186.3931
" />
<path d="M181.3881 186.3931
L181.2452 186.3217
" />
<path d="M181.2452 186.3217
L181.1738 186.1788
" />
<path d="M181.1738 186.1788
L181.1738 185.6074
" />
<path d="M181.1738 185.6074
L181.2452 185.4645
" />
<path d="M181.2452 185.4645
L181.3881 185.3931
" />
<path d="M181.3881 185.3931
L181.6738 185.3931
" />
<path d="M181.6738 185.3931
L181.8166 185.4645
" />
<path d="M181.8166 185.4645
L181.8881 185.6074
" />
<path d="M181.8881 185.6074
L181.8881 185.7502
" />
<path d="M181.8881 185.7502
L181.1738 185.8931
" />
<path d="M182.5309 186.2502
L182.6023 186.3217
" />
<path d="M182.6023 186.3217
L182.5309 186.3931
" />
<path d="M182.5309 186.3931
L182.4595 186.3217
" />
<path d="M182.4595 186.3217
L182.5309 186.2502
" />
<path d="M182.5309 186.2502
L182.5309 186.3931
" />
<path d="M182.5309 185.4645
L182.6023 185.5359
" />
<path d="M182.6023 185.5359
L182.5309 185.6074
" />
<path d="M182.5309 185.6074
L182.4595 185.5359
" />
<path d="M182.4595 185.5359
L182.5309 185.4645
" />
<path d="M182.5309 185.4645
L182.5309 185.6074
" />
<path d="M184.6024 186.3931
L184.4595 186.3217
" />
<path d="M184.4595 186.3217
L184.3881 186.2502
" />
<path d="M184.3881 186.2502
L184.3167 186.1074
" />
<path d="M184.3167 186.1074
L184.3167 185.6788
" />
<path d="M184.3167 185.6788
L184.3881 185.5359
" />
<path d="M184.3881 185.5359
L184.4595 185.4645
" />
<path d="M184.4595 185.4645
L184.6024 185.3931
" />
<path d="M184.6024 185.3931
L184.8167 185.3931
" />
<path d="M184.8167 185.3931
L184.9595 185.4645
" />
<path d="M184.9595 185.4645
L185.0310 185.5359
" />
<path d="M185.0310 185.5359
L185.1024 185.6788
" />
<path d="M185.1024 185.6788
L185.1024 186.1074
" />
<path d="M185.1024 186.1074
L185.0310 186.2502
" />
<path d="M185.0310 186.2502
L184.9595 186.3217
" />
<path d="M184.9595 186.3217
L184.8167 186.3931
" />
<path d="M184.8167 186.3931
L184.6024 186.3931
" />
<path d="M185.9595 186.3931
L185.8166 186.3217
" />
<path d="M185.8166 186.3217
L185.7452 186.1788
" />
<path d="M185.7452 186.1788
L185.7452 184.8931
" />
<path d="M187.1023 186.3217
L186.9595 186.3931
" />
<path d="M186.9595 186.3931
L186.6738 186.3931
" />
<path d="M186.6738 186.3931
L186.5309 186.3217
" />
<path d="M186.5309 186.3217
L186.4595 186.1788
" />
<path d="M186.4595 186.1788
L186.4595 185.6074
" />
<path d="M186.4595 185.6074
L186.5309 185.4645
" />
<path d="M186.5309 185.4645
L186.6738 185.3931
" />
<path d="M186.6738 185.3931
L186.9595 185.3931
" />
<path d="M186.9595 185.3931
L187.1023 185.4645
" />
<path d="M187.1023 185.4645
L187.1738 185.6074
" />
<path d="M187.1738 185.6074
L187.1738 185.7502
" />
<path d="M187.1738 185.7502
L186.4595 185.8931
" />
<path d="M188.4595 186.3931
L188.4595 184.8931
" />
<path d="M188.4595 186.3217
L188.3166 186.3931
" />
<path d="M188.3166 186.3931
L188.0309 186.3931
" />
<path d="M188.0309 186.3931
L187.8880 186.3217
" />
<path d="M187.8880 186.3217
L187.8166 186.2502
" />
<path d="M187.8166 186.2502
L187.7452 186.1074
" />
<path d="M187.7452 186.1074
L187.7452 185.6788
" />
<path d="M187.7452 185.6788
L187.8166 185.5359
" />
<path d="M187.8166 185.5359
L187.8880 185.4645
" />
<path d="M187.8880 185.4645
L188.0309 185.3931
" />
<path d="M188.0309 185.3931
L188.3166 185.3931
" />
<path d="M188.3166 185.3931
L188.4595 185.4645
" />
<path d="M189.1023 186.3217
L189.2451 186.3931
" />
<path d="M189.2451 186.3931
L189.5308 186.3931
" />
<path d="M189.5308 186.3931
L189.6737 186.3217
" />
<path d="M189.6737 186.3217
L189.7451 186.1788
" />
<path d="M189.7451 186.1788
L189.7451 186.1074
" />
<path d="M189.7451 186.1074
L189.6737 185.9645
" />
<path d="M189.6737 185.9645
L189.5308 185.8931
" />
<path d="M189.5308 185.8931
L189.3166 185.8931
" />
<path d="M189.3166 185.8931
L189.1737 185.8217
" />
<path d="M189.1737 185.8217
L189.1023 185.6788
" />
<path d="M189.1023 185.6788
L189.1023 185.6074
" />
<path d="M189.1023 185.6074
L189.1737 185.4645
" />
<path d="M189.1737 185.4645
L189.3166 185.3931
" />
<path d="M189.3166 185.3931
L189.5308 185.3931
" />
<path d="M189.5308 185.3931
L189.6737 185.4645
" />
<path d="M190.3166 186.3217
L190.4594 186.3931
" />
<path d="M190.4594 186.3931
L190.7451 186.3931
" />
<path d="M190.7451 186.3931
L190.8880 186.3217
" />
<path d="M190.8880 186.3217
L190.9594 186.1788
" />
<path d="M190.9594 186.1788
L190.9594 186.1074
" />
<path d="M190.9594 186.1074
L190.8880 185.9645
" />
<path d="M190.8880 185.9645
L190.7451 185.8931
" />
<path d="M190.7451 185.8931
L190.5309 185.8931
" />
<path d="M190.5309 185.8931
L190.3880 185.8217
" />
<path d="M190.3880 185.8217
L190.3166 185.6788
" />
<path d="M190.3166 185.6788
L190.3166 185.6074
" />
<path d="M190.3166 185.6074
L190.3880 185.4645
" />
<path d="M190.3880 185.4645
L190.5309 185.3931
" />
<path d="M190.5309 185.3931
L190.7451 185.3931
" />
<path d="M190.7451 185.3931
L190.8880 185.4645
" />
<path d="M192.2452 186.3931
L192.2452 184.8931
" />
<path d="M192.2452 186.3217
L192.1023 186.3931
" />
<path d="M192.1023 186.3931
L191.8166 186.3931
" />
<path d="M191.8166 186.3931
L191.6737 186.3217
" />
<path d="M191.6737 186.3217
L191.6023 186.2502
" />
<path d="M191.6023 186.2502
L191.5309 186.1074
" />
<path d="M191.5309 186.1074
L191.5309 185.6788
" />
<path d="M191.5309 185.6788
L191.6023 185.5359
" />
<path d="M191.6023 185.5359
L191.6737 185.4645
" />
<path d="M191.6737 185.4645
L191.8166 185.3931
" />
<path d="M191.8166 185.3931
L192.1023 185.3931
" />
<path d="M192.1023 185.3931
L192.2452 185.4645
" />
<path d="M192.9594 186.2502
L193.0308 186.3217
" />
<path d="M193.0308 186.3217
L192.9594 186.3931
" />
<path d="M192.9594 186.3931
L192.8880 186.3217
" />
<path d="M192.8880 186.3217
L192.9594 186.2502
" />
<path d="M192.9594 186.2502
L192.9594 186.3931
" />
<path d="M193.6737 186.3931
L193.6737 184.8931
" />
<path d="M193.8166 185.8217
L194.2451 186.3931
" />
<path d="M194.2451 185.3931
L193.6737 185.9645
" />
<path d="M194.8880 186.3931
L194.8880 185.3931
" />
<path d="M194.8880 184.8931
L194.8166 184.9645
" />
<path d="M194.8166 184.9645
L194.8880 185.0359
" />
<path d="M194.8880 185.0359
L194.9594 184.9645
" />
<path d="M194.9594 184.9645
L194.8880 184.8931
" />
<path d="M194.8880 184.8931
L194.8880 185.0359
" />
<path d="M196.2452 186.3217
L196.1023 186.3931
" />
<path d="M196.1023 186.3931
L195.8166 186.3931
" />
<path d="M195.8166 186.3931
L195.6737 186.3217
" />
<path d="M195.6737 186.3217
L195.6023 186.2502
" />
<path d="M195.6023 186.2502
L195.5309 186.1074
" />
<path d="M195.5309 186.1074
L195.5309 185.6788
" />
<path d="M195.5309 185.6788
L195.6023 185.5359
" />
<path d="M195.6023 185.5359
L195.6737 185.4645
" />
<path d="M195.6737 185.4645
L195.8166 185.3931
" />
<path d="M195.8166 185.3931
L196.1023 185.3931
" />
<path d="M196.1023 185.3931
L196.2452 185.4645
" />
<path d="M197.5309 186.3931
L197.5309 185.6074
" />
<path d="M197.5309 185.6074
L197.4594 185.4645
" />
<path d="M197.4594 185.4645
L197.3166 185.3931
" />
<path d="M197.3166 185.3931
L197.0309 185.3931
" />
<path d="M197.0309 185.3931
L196.8880 185.4645
" />
<path d="M197.5309 186.3217
L197.3880 186.3931
" />
<path d="M197.3880 186.3931
L197.0309 186.3931
" />
<path d="M197.0309 186.3931
L196.8880 186.3217
" />
<path d="M196.8880 186.3217
L196.8166 186.1788
" />
<path d="M196.8166 186.1788
L196.8166 186.0359
" />
<path d="M196.8166 186.0359
L196.8880 185.8931
" />
<path d="M196.8880 185.8931
L197.0309 185.8217
" />
<path d="M197.0309 185.8217
L197.3880 185.8217
" />
<path d="M197.3880 185.8217
L197.5309 185.7502
" />
<path d="M198.8880 186.3931
L198.8880 184.8931
" />
<path d="M198.8880 186.3217
L198.7451 186.3931
" />
<path d="M198.7451 186.3931
L198.4594 186.3931
" />
<path d="M198.4594 186.3931
L198.3165 186.3217
" />
<path d="M198.3165 186.3217
L198.2451 186.2502
" />
<path d="M198.2451 186.2502
L198.1737 186.1074
" />
<path d="M198.1737 186.1074
L198.1737 185.6788
" />
<path d="M198.1737 185.6788
L198.2451 185.5359
" />
<path d="M198.2451 185.5359
L198.3165 185.4645
" />
<path d="M198.3165 185.4645
L198.4594 185.3931
" />
<path d="M198.4594 185.3931
L198.7451 185.3931
" />
<path d="M198.7451 185.3931
L198.8880 185.4645
" />
<path d="M199.2451 186.5359
L200.3879 186.5359
" />
<path d="M200.6737 186.3217
L200.8165 186.3931
" />
<path d="M200.8165 186.3931
L201.1022 186.3931
" />
<path d="M201.1022 186.3931
L201.2451 186.3217
" />
<path d="M201.2451 186.3217
L201.3165 186.1788
" />
<path d="M201.3165 186.1788
L201.3165 186.1074
" />
<path d="M201.3165 186.1074
L201.2451 185.9645
" />
<path d="M201.2451 185.9645
L201.1022 185.8931
" />
<path d="M201.1022 185.8931
L200.8880 185.8931
" />
<path d="M200.8880 185.8931
L200.7451 185.8217
" />
<path d="M200.7451 185.8217
L200.6737 185.6788
" />
<path d="M200.6737 185.6788
L200.6737 185.6074
" />
<path d="M200.6737 185.6074
L200.7451 185.4645
" />
<path d="M200.7451 185.4645
L200.8880 185.3931
" />
<path d="M200.8880 185.3931
L201.1022 185.3931
" />
<path d="M201.1022 185.3931
L201.2451 185.4645
" />
<path d="M202.6023 186.3217
L202.4594 186.3931
" />
<path d="M202.4594 186.3931
L202.1737 186.3931
" />
<path d="M202.1737 186.3931
L202.0308 186.3217
" />
<path d="M202.0308 186.3217
L201.9594 186.2502
" />
<path d="M201.9594 186.2502
L201.8880 186.1074
" />
<path d="M201.8880 186.1074
L201.8880 185.6788
" />
<path d="M201.8880 185.6788
L201.9594 185.5359
" />
<path d="M201.9594 185.5359
L202.0308 185.4645
" />
<path d="M202.0308 185.4645
L202.1737 185.3931
" />
<path d="M202.1737 185.3931
L202.4594 185.3931
" />
<path d="M202.4594 185.3931
L202.6023 185.4645
" />
<path d="M203.2451 186.3931
L203.2451 184.8931
" />
<path d="M203.8880 186.3931
L203.8880 185.6074
" />
<path d="M203.8880 185.6074
L203.8165 185.4645
" />
<path d="M203.8165 185.4645
L203.6737 185.3931
" />
<path d="M203.6737 185.3931
L203.4594 185.3931
" />
<path d="M203.4594 185.3931
L203.3165 185.4645
" />
<path d="M203.3165 185.4645
L203.2451 185.5359
" />
</g><path d="M177.0022 181.5072
L285.0022 181.5072
" />
<text x="178.0022" y="183.7572"
textLength="35.0143" font-size="2.0000" lengthAdjust="spacingAndGlyphs"
text-anchor="start" opacity="0" stroke-opacity="0">Sheet: /right/OLED_SSD1306/</text>
<g class="stroked-text"><desc>Sheet: /right/OLED_SSD1306/</desc>
<path d="M178.3881 183.6217
L178.6024 183.6931
" />
<path d="M178.6024 183.6931
L178.9595 183.6931
" />
<path d="M178.9595 183.6931
L179.1024 183.6217
" />
<path d="M179.1024 183.6217
L179.1738 183.5502
" />
<path d="M179.1738 183.5502
L179.2452 183.4074
" />
<path d="M179.2452 183.4074
L179.2452 183.2645
" />
<path d="M179.2452 183.2645
L179.1738 183.1217
" />
<path d="M179.1738 183.1217
L179.1024 183.0502
" />
<path d="M179.1024 183.0502
L178.9595 182.9788
" />
<path d="M178.9595 182.9788
L178.6738 182.9074
" />
<path d="M178.6738 182.9074
L178.5309 182.8359
" />
<path d="M178.5309 182.8359
L178.4595 182.7645
" />
<path d="M178.4595 182.7645
L178.3881 182.6217
" />
<path d="M178.3881 182.6217
L178.3881 182.4788
" />
<path d="M178.3881 182.4788
L178.4595 182.3359
" />
<path d="M178.4595 182.3359
L178.5309 182.2645
" />
<path d="M178.5309 182.2645
L178.6738 182.1931
" />
<path d="M178.6738 182.1931
L179.0309 182.1931
" />
<path d="M179.0309 182.1931
L179.2452 182.2645
" />
<path d="M179.8881 183.6931
L179.8881 182.1931
" />
<path d="M180.5310 183.6931
L180.5310 182.9074
" />
<path d="M180.5310 182.9074
L180.4595 182.7645
" />
<path d="M180.4595 182.7645
L180.3167 182.6931
" />
<path d="M180.3167 182.6931
L180.1024 182.6931
" />
<path d="M180.1024 182.6931
L179.9595 182.7645
" />
<path d="M179.9595 182.7645
L179.8881 182.8359
" />
<path d="M181.8166 183.6217
L181.6738 183.6931
" />
<path d="M181.6738 183.6931
L181.3881 183.6931
" />
<path d="M181.3881 183.6931
L181.2452 183.6217
" />
<path d="M181.2452 183.6217
L181.1738 183.4788
" />
<path d="M181.1738 183.4788
L181.1738 182.9074
" />
<path d="M181.1738 182.9074
L181.2452 182.7645
" />
<path d="M181.2452 182.7645
L181.3881 182.6931
" />
<path d="M181.3881 182.6931
L181.6738 182.6931
" />
<path d="M181.6738 182.6931
L181.8166 182.7645
" />
<path d="M181.8166 182.7645
L181.8881 182.9074
" />
<path d="M181.8881 182.9074
L181.8881 183.0502
" />
<path d="M181.8881 183.0502
L181.1738 183.1931
" />
<path d="M183.1023 183.6217
L182.9595 183.6931
" />
<path d="M182.9595 183.6931
L182.6738 183.6931
" />
<path d="M182.6738 183.6931
L182.5309 183.6217
" />
<path d="M182.5309 183.6217
L182.4595 183.4788
" />
<path d="M182.4595 183.4788
L182.4595 182.9074
" />
<path d="M182.4595 182.9074
L182.5309 182.7645
" />
<path d="M182.5309 182.7645
L182.6738 182.6931
" />
<path d="M182.6738 182.6931
L182.9595 182.6931
" />
<path d="M182.9595 182.6931
L183.1023 182.7645
" />
<path d="M183.1023 182.7645
L183.1738 182.9074
" />
<path d="M183.1738 182.9074
L183.1738 183.0502
" />
<path d="M183.1738 183.0502
L182.4595 183.1931
" />
<path d="M183.6023 182.6931
L184.1737 182.6931
" />
<path d="M183.8166 182.1931
L183.8166 183.4788
" />
<path d="M183.8166 183.4788
L183.8880 183.6217
" />
<path d="M183.8880 183.6217
L184.0309 183.6931
" />
<path d="M184.0309 183.6931
L184.1737 183.6931
" />
<path d="M184.6737 183.5502
L184.7451 183.6217
" />
<path d="M184.7451 183.6217
L184.6737 183.6931
" />
<path d="M184.6737 183.6931
L184.6023 183.6217
" />
<path d="M184.6023 183.6217
L184.6737 183.5502
" />
<path d="M184.6737 183.5502
L184.6737 183.6931
" />
<path d="M184.6737 182.7645
L184.7451 182.8359
" />
<path d="M184.7451 182.8359
L184.6737 182.9074
" />
<path d="M184.6737 182.9074
L184.6023 182.8359
" />
<path d="M184.6023 182.8359
L184.6737 182.7645
" />
<path d="M184.6737 182.7645
L184.6737 182.9074
" />
<path d="M187.6023 182.1217
L186.3166 184.0502
" />
<path d="M188.1023 183.6931
L188.1023 182.6931
" />
<path d="M188.1023 182.9788
L188.1737 182.8359
" />
<path d="M188.1737 182.8359
L188.2452 182.7645
" />
<path d="M188.2452 182.7645
L188.3880 182.6931
" />
<path d="M188.3880 182.6931
L188.5309 182.6931
" />
<path d="M189.0309 183.6931
L189.0309 182.6931
" />
<path d="M189.0309 182.1931
L188.9595 182.2645
" />
<path d="M188.9595 182.2645
L189.0309 182.3359
" />
<path d="M189.0309 182.3359
L189.1023 182.2645
" />
<path d="M189.1023 182.2645
L189.0309 182.1931
" />
<path d="M189.0309 182.1931
L189.0309 182.3359
" />
<path d="M190.3881 182.6931
L190.3881 183.9074
" />
<path d="M190.3881 183.9074
L190.3166 184.0502
" />
<path d="M190.3166 184.0502
L190.2452 184.1217
" />
<path d="M190.2452 184.1217
L190.1023 184.1931
" />
<path d="M190.1023 184.1931
L189.8881 184.1931
" />
<path d="M189.8881 184.1931
L189.7452 184.1217
" />
<path d="M190.3881 183.6217
L190.2452 183.6931
" />
<path d="M190.2452 183.6931
L189.9595 183.6931
" />
<path d="M189.9595 183.6931
L189.8166 183.6217
" />
<path d="M189.8166 183.6217
L189.7452 183.5502
" />
<path d="M189.7452 183.5502
L189.6738 183.4074
" />
<path d="M189.6738 183.4074
L189.6738 182.9788
" />
<path d="M189.6738 182.9788
L189.7452 182.8359
" />
<path d="M189.7452 182.8359
L189.8166 182.7645
" />
<path d="M189.8166 182.7645
L189.9595 182.6931
" />
<path d="M189.9595 182.6931
L190.2452 182.6931
" />
<path d="M190.2452 182.6931
L190.3881 182.7645
" />
<path d="M191.1023 183.6931
L191.1023 182.1931
" />
<path d="M191.7452 183.6931
L191.7452 182.9074
" />
<path d="M191.7452 182.9074
L191.6737 182.7645
" />
<path d="M191.6737 182.7645
L191.5309 182.6931
" />
<path d="M191.5309 182.6931
L191.3166 182.6931
" />
<path d="M191.3166 182.6931
L191.1737 182.7645
" />
<path d="M191.1737 182.7645
L191.1023 182.8359
" />
<path d="M192.2451 182.6931
L192.8165 182.6931
" />
<path d="M192.4594 182.1931
L192.4594 183.4788
" />
<path d="M192.4594 183.4788
L192.5308 183.6217
" />
<path d="M192.5308 183.6217
L192.6737 183.6931
" />
<path d="M192.6737 183.6931
L192.8165 183.6931
" />
<path d="M194.3879 182.1217
L193.1022 184.0502
" />
<path d="M195.1736 182.1931
L195.4593 182.1931
" />
<path d="M195.4593 182.1931
L195.6022 182.2645
" />
<path d="M195.6022 182.2645
L195.7450 182.4074
" />
<path d="M195.7450 182.4074
L195.8165 182.6931
" />
<path d="M195.8165 182.6931
L195.8165 183.1931
" />
<path d="M195.8165 183.1931
L195.7450 183.4788
" />
<path d="M195.7450 183.4788
L195.6022 183.6217
" />
<path d="M195.6022 183.6217
L195.4593 183.6931
" />
<path d="M195.4593 183.6931
L195.1736 183.6931
" />
<path d="M195.1736 183.6931
L195.0308 183.6217
" />
<path d="M195.0308 183.6217
L194.8879 183.4788
" />
<path d="M194.8879 183.4788
L194.8165 183.1931
" />
<path d="M194.8165 183.1931
L194.8165 182.6931
" />
<path d="M194.8165 182.6931
L194.8879 182.4074
" />
<path d="M194.8879 182.4074
L195.0308 182.2645
" />
<path d="M195.0308 182.2645
L195.1736 182.1931
" />
<path d="M197.1736 183.6931
L196.4593 183.6931
" />
<path d="M196.4593 183.6931
L196.4593 182.1931
" />
<path d="M197.6736 182.9074
L198.1736 182.9074
" />
<path d="M198.3879 183.6931
L197.6736 183.6931
" />
<path d="M197.6736 183.6931
L197.6736 182.1931
" />
<path d="M197.6736 182.1931
L198.3879 182.1931
" />
<path d="M199.0307 183.6931
L199.0307 182.1931
" />
<path d="M199.0307 182.1931
L199.3878 182.1931
" />
<path d="M199.3878 182.1931
L199.6021 182.2645
" />
<path d="M199.6021 182.2645
L199.7450 182.4074
" />
<path d="M199.7450 182.4074
L199.8164 182.5502
" />
<path d="M199.8164 182.5502
L199.8878 182.8359
" />
<path d="M199.8878 182.8359
L199.8878 183.0502
" />
<path d="M199.8878 183.0502
L199.8164 183.3359
" />
<path d="M199.8164 183.3359
L199.7450 183.4788
" />
<path d="M199.7450 183.4788
L199.6021 183.6217
" />
<path d="M199.6021 183.6217
L199.3878 183.6931
" />
<path d="M199.3878 183.6931
L199.0307 183.6931
" />
<path d="M200.1736 183.8359
L201.3164 183.8359
" />
<path d="M201.6022 183.6217
L201.8165 183.6931
" />
<path d="M201.8165 183.6931
L202.1736 183.6931
" />
<path d="M202.1736 183.6931
L202.3165 183.6217
" />
<path d="M202.3165 183.6217
L202.3879 183.5502
" />
<path d="M202.3879 183.5502
L202.4593 183.4074
" />
<path d="M202.4593 183.4074
L202.4593 183.2645
" />
<path d="M202.4593 183.2645
L202.3879 183.1217
" />
<path d="M202.3879 183.1217
L202.3165 183.0502
" />
<path d="M202.3165 183.0502
L202.1736 182.9788
" />
<path d="M202.1736 182.9788
L201.8879 182.9074
" />
<path d="M201.8879 182.9074
L201.7450 182.8359
" />
<path d="M201.7450 182.8359
L201.6736 182.7645
" />
<path d="M201.6736 182.7645
L201.6022 182.6217
" />
<path d="M201.6022 182.6217
L201.6022 182.4788
" />
<path d="M201.6022 182.4788
L201.6736 182.3359
" />
<path d="M201.6736 182.3359
L201.7450 182.2645
" />
<path d="M201.7450 182.2645
L201.8879 182.1931
" />
<path d="M201.8879 182.1931
L202.2450 182.1931
" />
<path d="M202.2450 182.1931
L202.4593 182.2645
" />
<path d="M203.0308 183.6217
L203.2451 183.6931
" />
<path d="M203.2451 183.6931
L203.6022 183.6931
" />
<path d="M203.6022 183.6931
L203.7451 183.6217
" />
<path d="M203.7451 183.6217
L203.8165 183.5502
" />
<path d="M203.8165 183.5502
L203.8879 183.4074
" />
<path d="M203.8879 183.4074
L203.8879 183.2645
" />
<path d="M203.8879 183.2645
L203.8165 183.1217
" />
<path d="M203.8165 183.1217
L203.7451 183.0502
" />
<path d="M203.7451 183.0502
L203.6022 182.9788
" />
<path d="M203.6022 182.9788
L203.3165 182.9074
" />
<path d="M203.3165 182.9074
L203.1736 182.8359
" />
<path d="M203.1736 182.8359
L203.1022 182.7645
" />
<path d="M203.1022 182.7645
L203.0308 182.6217
" />
<path d="M203.0308 182.6217
L203.0308 182.4788
" />
<path d="M203.0308 182.4788
L203.1022 182.3359
" />
<path d="M203.1022 182.3359
L203.1736 182.2645
" />
<path d="M203.1736 182.2645
L203.3165 182.1931
" />
<path d="M203.3165 182.1931
L203.6736 182.1931
" />
<path d="M203.6736 182.1931
L203.8879 182.2645
" />
<path d="M204.5308 183.6931
L204.5308 182.1931
" />
<path d="M204.5308 182.1931
L204.8879 182.1931
" />
<path d="M204.8879 182.1931
L205.1022 182.2645
" />
<path d="M205.1022 182.2645
L205.2451 182.4074
" />
<path d="M205.2451 182.4074
L205.3165 182.5502
" />
<path d="M205.3165 182.5502
L205.3879 182.8359
" />
<path d="M205.3879 182.8359
L205.3879 183.0502
" />
<path d="M205.3879 183.0502
L205.3165 183.3359
" />
<path d="M205.3165 183.3359
L205.2451 183.4788
" />
<path d="M205.2451 183.4788
L205.1022 183.6217
" />
<path d="M205.1022 183.6217
L204.8879 183.6931
" />
<path d="M204.8879 183.6931
L204.5308 183.6931
" />
<path d="M206.8165 183.6931
L205.9594 183.6931
" />
<path d="M206.3879 183.6931
L206.3879 182.1931
" />
<path d="M206.3879 182.1931
L206.2451 182.4074
" />
<path d="M206.2451 182.4074
L206.1022 182.5502
" />
<path d="M206.1022 182.5502
L205.9594 182.6217
" />
<path d="M207.3165 182.1931
L208.2451 182.1931
" />
<path d="M208.2451 182.1931
L207.7451 182.7645
" />
<path d="M207.7451 182.7645
L207.9594 182.7645
" />
<path d="M207.9594 182.7645
L208.1023 182.8359
" />
<path d="M208.1023 182.8359
L208.1737 182.9074
" />
<path d="M208.1737 182.9074
L208.2451 183.0502
" />
<path d="M208.2451 183.0502
L208.2451 183.4074
" />
<path d="M208.2451 183.4074
L208.1737 183.5502
" />
<path d="M208.1737 183.5502
L208.1023 183.6217
" />
<path d="M208.1023 183.6217
L207.9594 183.6931
" />
<path d="M207.9594 183.6931
L207.5308 183.6931
" />
<path d="M207.5308 183.6931
L207.3880 183.6217
" />
<path d="M207.3880 183.6217
L207.3165 183.5502
" />
<path d="M209.1737 182.1931
L209.3166 182.1931
" />
<path d="M209.3166 182.1931
L209.4594 182.2645
" />
<path d="M209.4594 182.2645
L209.5309 182.3359
" />
<path d="M209.5309 182.3359
L209.6023 182.4788
" />
<path d="M209.6023 182.4788
L209.6737 182.7645
" />
<path d="M209.6737 182.7645
L209.6737 183.1217
" />
<path d="M209.6737 183.1217
L209.6023 183.4074
" />
<path d="M209.6023 183.4074
L209.5309 183.5502
" />
<path d="M209.5309 183.5502
L209.4594 183.6217
" />
<path d="M209.4594 183.6217
L209.3166 183.6931
" />
<path d="M209.3166 183.6931
L209.1737 183.6931
" />
<path d="M209.1737 183.6931
L209.0309 183.6217
" />
<path d="M209.0309 183.6217
L208.9594 183.5502
" />
<path d="M208.9594 183.5502
L208.8880 183.4074
" />
<path d="M208.8880 183.4074
L208.8166 183.1217
" />
<path d="M208.8166 183.1217
L208.8166 182.7645
" />
<path d="M208.8166 182.7645
L208.8880 182.4788
" />
<path d="M208.8880 182.4788
L208.9594 182.3359
" />
<path d="M208.9594 182.3359
L209.0309 182.2645
" />
<path d="M209.0309 182.2645
L209.1737 182.1931
" />
<path d="M210.9595 182.1931
L210.6737 182.1931
" />
<path d="M210.6737 182.1931
L210.5309 182.2645
" />
<path d="M210.5309 182.2645
L210.4595 182.3359
" />
<path d="M210.4595 182.3359
L210.3166 182.5502
" />
<path d="M210.3166 182.5502
L210.2452 182.8359
" />
<path d="M210.2452 182.8359
L210.2452 183.4074
" />
<path d="M210.2452 183.4074
L210.3166 183.5502
" />
<path d="M210.3166 183.5502
L210.3880 183.6217
" />
<path d="M210.3880 183.6217
L210.5309 183.6931
" />
<path d="M210.5309 183.6931
L210.8166 183.6931
" />
<path d="M210.8166 183.6931
L210.9595 183.6217
" />
<path d="M210.9595 183.6217
L211.0309 183.5502
" />
<path d="M211.0309 183.5502
L211.1023 183.4074
" />
<path d="M211.1023 183.4074
L211.1023 183.0502
" />
<path d="M211.1023 183.0502
L211.0309 182.9074
" />
<path d="M211.0309 182.9074
L210.9595 182.8359
" />
<path d="M210.9595 182.8359
L210.8166 182.7645
" />
<path d="M210.8166 182.7645
L210.5309 182.7645
" />
<path d="M210.5309 182.7645
L210.3880 182.8359
" />
<path d="M210.3880 182.8359
L210.3166 182.9074
" />
<path d="M210.3166 182.9074
L210.2452 183.0502
" />
<path d="M212.8166 182.1217
L211.5309 184.0502
" />
</g></g>
<g style="fill:none; 
stroke:#840000; stroke-width:0.3000; stroke-opacity:1; 
stroke-linecap:round; stroke-linejoin:round;">
<text x="178.0022" y="180.7572"
textLength="0.9000" font-size="2.0000" lengthAdjust="spacingAndGlyphs"
text-anchor="start" opacity="0" stroke-opacity="0"></text>
<g class="stroked-text"><desc></desc>
</g></g>
<g style="fill:none; 
stroke:#840000; stroke-width:0.1524; stroke-opacity:1; 
stroke-linecap:round; stroke-linejoin:round;">
<text x="178.0022" y="177.7572"
textLength="0.4572" font-size="2.0000" lengthAdjust="spacingAndGlyphs"
text-anchor="start" opacity="0" stroke-opacity="0"></text>
<g class="stroked-text"><desc></desc>
</g><text x="178.0022" y="174.7572"
textLength="0.4572" font-size="2.0000" lengthAdjust="spacingAndGlyphs"
text-anchor="start" opacity="0" stroke-opacity="0"></text>
<g class="stroked-text"><desc></desc>
</g><text x="178.0022" y="171.7572"
textLength="0.4572" font-size="2.0000" lengthAdjust="spacingAndGlyphs"
text-anchor="start" opacity="0" stroke-opacity="0"></text>
<g class="stroked-text"><desc></desc>
</g><text x="178.0022" y="168.7572"
textLength="0.4572" font-size="2.0000" lengthAdjust="spacingAndGlyphs"
text-anchor="start" opacity="0" stroke-opacity="0"></text>
<g class="stroked-text"><desc></desc>
</g><path d="M197.0022 191.5072
L197.0022 194.5072
" />
<path d="M261.0022 191.5072
L261.0022 198.0072
" />
</g>
<g style="fill:#840000; fill-opacity:1.0000; 
stroke:#840000; stroke-width:0.1524; stroke-opacity:1; 
stroke-linecap:round; stroke-linejoin:round;">
<rect x="126.136400" y="91.313000" width="0.863600" height="0.254000" rx="0.000000" />
<rect x="126.136400" y="88.773000" width="0.863600" height="0.254000" rx="0.000000" />
<rect x="126.136400" y="86.233000" width="0.863600" height="0.254000" rx="0.000000" />
<rect x="126.136400" y="83.693000" width="0.863600" height="0.254000" rx="0.000000" />
<path style="fill:none; 
stroke:#840000; stroke-width:0.1524; stroke-opacity:1; 
stroke-linecap:round; stroke-linejoin:round;fill:none"
d="M 125.7300,91.4400
126.1364,91.4400
" /> 
<path style="fill:none; 
stroke:#840000; stroke-width:0.1524; stroke-opacity:1; 
stroke-linecap:round; stroke-linejoin:round;fill:none"
d="M 125.7300,88.9000
126.1364,88.9000
" /> 
<path style="fill:none; 
stroke:#840000; stroke-width:0.1524; stroke-opacity:1; 
stroke-linecap:round; stroke-linejoin:round;fill:none"
d="M 125.7300,86.3600
126.1364,86.3600
" /> 
<path style="fill:none; 
stroke:#840000; stroke-width:0.1524; stroke-opacity:1; 
stroke-linecap:round; stroke-linejoin:round;fill:none"
d="M 125.7300,83.8200
126.1364,83.8200
" /> 
</g>
<g style="fill:none; 
stroke:#840000; stroke-width:0.1524; stroke-opacity:1; 
stroke-linecap:round; stroke-linejoin:round;">
<path d="M125.7300 91.4400
L121.9200 91.4400
" />
</g>
<g style="fill:none; 
stroke:#A90000; stroke-width:0.1524; stroke-opacity:1; 
stroke-linecap:round; stroke-linejoin:round;">
<text x="123.8250" y="91.1860"
textLength="1.4127" font-size="1.6933" lengthAdjust="spacingAndGlyphs"
text-anchor="middle" opacity="0" stroke-opacity="0">1</text>
<g class="stroked-text"><desc>1</desc>
<path d="M124.1879 91.0225
L123.4622 91.0225
" />
<path d="M123.8250 91.0225
L123.8250 89.7525
" />
<path d="M123.8250 89.7525
L123.7041 89.9340
" />
<path d="M123.7041 89.9340
L123.5831 90.0549
" />
<path d="M123.5831 90.0549
L123.4622 90.1154
" />
</g></g>
<g style="fill:none; 
stroke:#840000; stroke-width:0.1524; stroke-opacity:1; 
stroke-linecap:round; stroke-linejoin:round;">
<path d="M125.7300 88.9000
L121.9200 88.9000
" />
</g>
<g style="fill:none; 
stroke:#A90000; stroke-width:0.1524; stroke-opacity:1; 
stroke-linecap:round; stroke-linejoin:round;">
<text x="123.8250" y="88.6460"
textLength="1.4127" font-size="1.6933" lengthAdjust="spacingAndGlyphs"
text-anchor="middle" opacity="0" stroke-opacity="0">2</text>
<g class="stroked-text"><desc>2</desc>
<path d="M123.4622 87.3335
L123.5226 87.2730
" />
<path d="M123.5226 87.2730
L123.6436 87.2125
" />
<path d="M123.6436 87.2125
L123.9460 87.2125
" />
<path d="M123.9460 87.2125
L124.0669 87.2730
" />
<path d="M124.0669 87.2730
L124.1274 87.3335
" />
<path d="M124.1274 87.3335
L124.1879 87.4544
" />
<path d="M124.1879 87.4544
L124.1879 87.5754
" />
<path d="M124.1879 87.5754
L124.1274 87.7568
" />
<path d="M124.1274 87.7568
L123.4017 88.4825
" />
<path d="M123.4017 88.4825
L124.1879 88.4825
" />
</g></g>
<g style="fill:none; 
stroke:#840000; stroke-width:0.1524; stroke-opacity:1; 
stroke-linecap:round; stroke-linejoin:round;">
<path d="M125.7300 86.3600
L121.9200 86.3600
" />
</g>
<g style="fill:none; 
stroke:#A90000; stroke-width:0.1524; stroke-opacity:1; 
stroke-linecap:round; stroke-linejoin:round;">
<text x="123.8250" y="86.1060"
textLength="1.4127" font-size="1.6933" lengthAdjust="spacingAndGlyphs"
text-anchor="middle" opacity="0" stroke-opacity="0">3</text>
<g class="stroked-text"><desc>3</desc>
<path d="M123.4017 84.6725
L124.1879 84.6725
" />
<path d="M124.1879 84.6725
L123.7645 85.1563
" />
<path d="M123.7645 85.1563
L123.9460 85.1563
" />
<path d="M123.9460 85.1563
L124.0669 85.2168
" />
<path d="M124.0669 85.2168
L124.1274 85.2773
" />
<path d="M124.1274 85.2773
L124.1879 85.3982
" />
<path d="M124.1879 85.3982
L124.1879 85.7006
" />
<path d="M124.1879 85.7006
L124.1274 85.8216
" />
<path d="M124.1274 85.8216
L124.0669 85.8821
" />
<path d="M124.0669 85.8821
L123.9460 85.9425
" />
<path d="M123.9460 85.9425
L123.5831 85.9425
" />
<path d="M123.5831 85.9425
L123.4622 85.8821
" />
<path d="M123.4622 85.8821
L123.4017 85.8216
" />
</g></g>
<g style="fill:none; 
stroke:#840000; stroke-width:0.1524; stroke-opacity:1; 
stroke-linecap:round; stroke-linejoin:round;">
<path d="M125.7300 83.8200
L121.9200 83.8200
" />
</g>
<g style="fill:none; 
stroke:#A90000; stroke-width:0.1524; stroke-opacity:1; 
stroke-linecap:round; stroke-linejoin:round;">
<text x="123.8250" y="83.5660"
textLength="1.4127" font-size="1.6933" lengthAdjust="spacingAndGlyphs"
text-anchor="middle" opacity="0" stroke-opacity="0">4</text>
<g class="stroked-text"><desc>4</desc>
<path d="M124.0669 82.5559
L124.0669 83.4025
" />
<path d="M123.7645 82.0721
L123.4622 82.9792
" />
<path d="M123.4622 82.9792
L124.2483 82.9792
" />
</g></g>
<g style="fill:none; 
stroke:#006464; stroke-width:0.1524; stroke-opacity:1; 
stroke-linecap:round; stroke-linejoin:round;">
<text x="128.4537" y="94.8689"
textLength="2.3803" font-size="1.6933" lengthAdjust="spacingAndGlyphs"
text-anchor="middle" opacity="0" stroke-opacity="0">J2</text>
<g class="stroked-text"><desc>J2</desc>
<path d="M128.0304 93.5434
L128.0304 94.4506
" />
<path d="M128.0304 94.4506
L127.9699 94.6320
" />
<path d="M127.9699 94.6320
L127.8490 94.7530
" />
<path d="M127.8490 94.7530
L127.6675 94.8134
" />
<path d="M127.6675 94.8134
L127.5466 94.8134
" />
<path d="M128.5747 93.6644
L128.6351 93.6039
" />
<path d="M128.6351 93.6039
L128.7561 93.5434
" />
<path d="M128.7561 93.5434
L129.0585 93.5434
" />
<path d="M129.0585 93.5434
L129.1794 93.6039
" />
<path d="M129.1794 93.6039
L129.2399 93.6644
" />
<path d="M129.2399 93.6644
L129.3004 93.7853
" />
<path d="M129.3004 93.7853
L129.3004 93.9063
" />
<path d="M129.3004 93.9063
L129.2399 94.0877
" />
<path d="M129.2399 94.0877
L128.5142 94.8134
" />
<path d="M128.5142 94.8134
L129.3004 94.8134
" />
</g><text x="123.9602" y="97.1549"
textLength="15.7453" font-size="1.6933" lengthAdjust="spacingAndGlyphs"
text-anchor="middle" opacity="0" stroke-opacity="0">Conn_01x04_Pin</text>
<g class="stroked-text"><desc>Conn_01x04_Pin</desc>
<path d="M117.2172 96.9785
L117.1568 97.0390
" />
<path d="M117.1568 97.0390
L116.9753 97.0994
" />
<path d="M116.9753 97.0994
L116.8544 97.0994
" />
<path d="M116.8544 97.0994
L116.6730 97.0390
" />
<path d="M116.6730 97.0390
L116.5520 96.9180
" />
<path d="M116.5520 96.9180
L116.4915 96.7970
" />
<path d="M116.4915 96.7970
L116.4311 96.5551
" />
<path d="M116.4311 96.5551
L116.4311 96.3737
" />
<path d="M116.4311 96.3737
L116.4915 96.1318
" />
<path d="M116.4915 96.1318
L116.5520 96.0109
" />
<path d="M116.5520 96.0109
L116.6730 95.8899
" />
<path d="M116.6730 95.8899
L116.8544 95.8294
" />
<path d="M116.8544 95.8294
L116.9753 95.8294
" />
<path d="M116.9753 95.8294
L117.1568 95.8899
" />
<path d="M117.1568 95.8899
L117.2172 95.9504
" />
<path d="M117.9430 97.0994
L117.8220 97.0390
" />
<path d="M117.8220 97.0390
L117.7615 96.9785
" />
<path d="M117.7615 96.9785
L117.7011 96.8575
" />
<path d="M117.7011 96.8575
L117.7011 96.4947
" />
<path d="M117.7011 96.4947
L117.7615 96.3737
" />
<path d="M117.7615 96.3737
L117.8220 96.3132
" />
<path d="M117.8220 96.3132
L117.9430 96.2528
" />
<path d="M117.9430 96.2528
L118.1244 96.2528
" />
<path d="M118.1244 96.2528
L118.2453 96.3132
" />
<path d="M118.2453 96.3132
L118.3058 96.3737
" />
<path d="M118.3058 96.3737
L118.3663 96.4947
" />
<path d="M118.3663 96.4947
L118.3663 96.8575
" />
<path d="M118.3663 96.8575
L118.3058 96.9785
" />
<path d="M118.3058 96.9785
L118.2453 97.0390
" />
<path d="M118.2453 97.0390
L118.1244 97.0994
" />
<path d="M118.1244 97.0994
L117.9430 97.0994
" />
<path d="M118.9105 96.2528
L118.9105 97.0994
" />
<path d="M118.9105 96.3737
L118.9710 96.3132
" />
<path d="M118.9710 96.3132
L119.0920 96.2528
" />
<path d="M119.0920 96.2528
L119.2734 96.2528
" />
<path d="M119.2734 96.2528
L119.3943 96.3132
" />
<path d="M119.3943 96.3132
L119.4548 96.4342
" />
<path d="M119.4548 96.4342
L119.4548 97.0994
" />
<path d="M120.0595 96.2528
L120.0595 97.0994
" />
<path d="M120.0595 96.3737
L120.1200 96.3132
" />
<path d="M120.1200 96.3132
L120.2410 96.2528
" />
<path d="M120.2410 96.2528
L120.4224 96.2528
" />
<path d="M120.4224 96.2528
L120.5433 96.3132
" />
<path d="M120.5433 96.3132
L120.6038 96.4342
" />
<path d="M120.6038 96.4342
L120.6038 97.0994
" />
<path d="M120.9062 97.2204
L121.8738 97.2204
" />
<path d="M122.4180 95.8294
L122.5390 95.8294
" />
<path d="M122.5390 95.8294
L122.6599 95.8899
" />
<path d="M122.6599 95.8899
L122.7204 95.9504
" />
<path d="M122.7204 95.9504
L122.7809 96.0713
" />
<path d="M122.7809 96.0713
L122.8414 96.3132
" />
<path d="M122.8414 96.3132
L122.8414 96.6156
" />
<path d="M122.8414 96.6156
L122.7809 96.8575
" />
<path d="M122.7809 96.8575
L122.7204 96.9785
" />
<path d="M122.7204 96.9785
L122.6599 97.0390
" />
<path d="M122.6599 97.0390
L122.5390 97.0994
" />
<path d="M122.5390 97.0994
L122.4180 97.0994
" />
<path d="M122.4180 97.0994
L122.2971 97.0390
" />
<path d="M122.2971 97.0390
L122.2366 96.9785
" />
<path d="M122.2366 96.9785
L122.1761 96.8575
" />
<path d="M122.1761 96.8575
L122.1157 96.6156
" />
<path d="M122.1157 96.6156
L122.1157 96.3132
" />
<path d="M122.1157 96.3132
L122.1761 96.0713
" />
<path d="M122.1761 96.0713
L122.2366 95.9504
" />
<path d="M122.2366 95.9504
L122.2971 95.8899
" />
<path d="M122.2971 95.8899
L122.4180 95.8294
" />
<path d="M124.0509 97.0994
L123.3252 97.0994
" />
<path d="M123.6880 97.0994
L123.6880 95.8294
" />
<path d="M123.6880 95.8294
L123.5671 96.0109
" />
<path d="M123.5671 96.0109
L123.4461 96.1318
" />
<path d="M123.4461 96.1318
L123.3252 96.1923
" />
<path d="M124.4742 97.0994
L125.1394 96.2528
" />
<path d="M124.4742 96.2528
L125.1394 97.0994
" />
<path d="M125.8651 95.8294
L125.9861 95.8294
" />
<path d="M125.9861 95.8294
L126.1070 95.8899
" />
<path d="M126.1070 95.8899
L126.1675 95.9504
" />
<path d="M126.1675 95.9504
L126.2280 96.0713
" />
<path d="M126.2280 96.0713
L126.2885 96.3132
" />
<path d="M126.2885 96.3132
L126.2885 96.6156
" />
<path d="M126.2885 96.6156
L126.2280 96.8575
" />
<path d="M126.2280 96.8575
L126.1675 96.9785
" />
<path d="M126.1675 96.9785
L126.1070 97.0390
" />
<path d="M126.1070 97.0390
L125.9861 97.0994
" />
<path d="M125.9861 97.0994
L125.8651 97.0994
" />
<path d="M125.8651 97.0994
L125.7442 97.0390
" />
<path d="M125.7442 97.0390
L125.6837 96.9785
" />
<path d="M125.6837 96.9785
L125.6232 96.8575
" />
<path d="M125.6232 96.8575
L125.5628 96.6156
" />
<path d="M125.5628 96.6156
L125.5628 96.3132
" />
<path d="M125.5628 96.3132
L125.6232 96.0713
" />
<path d="M125.6232 96.0713
L125.6837 95.9504
" />
<path d="M125.6837 95.9504
L125.7442 95.8899
" />
<path d="M125.7442 95.8899
L125.8651 95.8294
" />
<path d="M127.3770 96.2528
L127.3770 97.0994
" />
<path d="M127.0746 95.7690
L126.7723 96.6761
" />
<path d="M126.7723 96.6761
L127.5584 96.6761
" />
<path d="M127.7399 97.2204
L128.7075 97.2204
" />
<path d="M129.0098 97.0994
L129.0098 95.8294
" />
<path d="M129.0098 95.8294
L129.4936 95.8294
" />
<path d="M129.4936 95.8294
L129.6146 95.8899
" />
<path d="M129.6146 95.8899
L129.6751 95.9504
" />
<path d="M129.6751 95.9504
L129.7355 96.0713
" />
<path d="M129.7355 96.0713
L129.7355 96.2528
" />
<path d="M129.7355 96.2528
L129.6751 96.3737
" />
<path d="M129.6751 96.3737
L129.6146 96.4342
" />
<path d="M129.6146 96.4342
L129.4936 96.4947
" />
<path d="M129.4936 96.4947
L129.0098 96.4947
" />
<path d="M130.2798 97.0994
L130.2798 96.2528
" />
<path d="M130.2798 95.8294
L130.2194 95.8899
" />
<path d="M130.2194 95.8899
L130.2798 95.9504
" />
<path d="M130.2798 95.9504
L130.3403 95.8899
" />
<path d="M130.3403 95.8899
L130.2798 95.8294
" />
<path d="M130.2798 95.8294
L130.2798 95.9504
" />
<path d="M130.8846 96.2528
L130.8846 97.0994
" />
<path d="M130.8846 96.3737
L130.9451 96.3132
" />
<path d="M130.9451 96.3132
L131.0661 96.2528
" />
<path d="M131.0661 96.2528
L131.2475 96.2528
" />
<path d="M131.2475 96.2528
L131.3684 96.3132
" />
<path d="M131.3684 96.3132
L131.4289 96.4342
" />
<path d="M131.4289 96.4342
L131.4289 97.0994
" />
</g></g>
<g style="fill:none; 
stroke:#725600; stroke-width:0.1524; stroke-opacity:1; 
stroke-linecap:round; stroke-linejoin:round;">
<text x="106.4895" y="89.5350"
textLength="3.4690" font-size="1.6933" lengthAdjust="spacingAndGlyphs"
text-anchor="end" opacity="0" stroke-opacity="0">Vcc</text>
<g class="stroked-text"><desc>Vcc</desc>
<path d="M103.2444 88.2095
L103.6677 89.4795
" />
<path d="M103.6677 89.4795
L104.0911 88.2095
" />
<path d="M105.0587 89.4191
L104.9378 89.4795
" />
<path d="M104.9378 89.4795
L104.6959 89.4795
" />
<path d="M104.6959 89.4795
L104.5749 89.4191
" />
<path d="M104.5749 89.4191
L104.5144 89.3586
" />
<path d="M104.5144 89.3586
L104.4540 89.2376
" />
<path d="M104.4540 89.2376
L104.4540 88.8748
" />
<path d="M104.4540 88.8748
L104.5144 88.7538
" />
<path d="M104.5144 88.7538
L104.5749 88.6933
" />
<path d="M104.5749 88.6933
L104.6959 88.6329
" />
<path d="M104.6959 88.6329
L104.9378 88.6329
" />
<path d="M104.9378 88.6329
L105.0587 88.6933
" />
<path d="M106.1473 89.4191
L106.0264 89.4795
" />
<path d="M106.0264 89.4795
L105.7845 89.4795
" />
<path d="M105.7845 89.4795
L105.6635 89.4191
" />
<path d="M105.6635 89.4191
L105.6030 89.3586
" />
<path d="M105.6030 89.3586
L105.5426 89.2376
" />
<path d="M105.5426 89.2376
L105.5426 88.8748
" />
<path d="M105.5426 88.8748
L105.6030 88.7538
" />
<path d="M105.6030 88.7538
L105.6635 88.6933
" />
<path d="M105.6635 88.6933
L105.7845 88.6329
" />
<path d="M105.7845 88.6329
L106.0264 88.6329
" />
<path d="M106.0264 88.6329
L106.1473 88.6933
" />
</g><path style="fill:none; 
stroke:#725600; stroke-width:0.1524; stroke-opacity:1; 
stroke-linecap:round; stroke-linejoin:round;fill:none"
d="M 107.9500,88.9000
107.3150,88.2650
106.6800,88.2650
106.6800,89.5350
107.3150,89.5350
Z" /> 
</g>
<g style="fill:none; 
stroke:#725600; stroke-width:0.1524; stroke-opacity:1; 
stroke-linecap:round; stroke-linejoin:round;">
<text x="106.4895" y="86.9950"
textLength="3.7108" font-size="1.6933" lengthAdjust="spacingAndGlyphs"
text-anchor="end" opacity="0" stroke-opacity="0">SCL</text>
<g class="stroked-text"><desc>SCL</desc>
<path d="M103.1236 86.8791
L103.3050 86.9395
" />
<path d="M103.3050 86.9395
L103.6074 86.9395
" />
<path d="M103.6074 86.9395
L103.7283 86.8791
" />
<path d="M103.7283 86.8791
L103.7888 86.8186
" />
<path d="M103.7888 86.8186
L103.8493 86.6976
" />
<path d="M103.8493 86.6976
L103.8493 86.5767
" />
<path d="M103.8493 86.5767
L103.7888 86.4557
" />
<path d="M103.7888 86.4557
L103.7283 86.3952
" />
<path d="M103.7283 86.3952
L103.6074 86.3348
" />
<path d="M103.6074 86.3348
L103.3655 86.2743
" />
<path d="M103.3655 86.2743
L103.2445 86.2138
" />
<path d="M103.2445 86.2138
L103.1840 86.1533
" />
<path d="M103.1840 86.1533
L103.1236 86.0324
" />
<path d="M103.1236 86.0324
L103.1236 85.9114
" />
<path d="M103.1236 85.9114
L103.1840 85.7905
" />
<path d="M103.1840 85.7905
L103.2445 85.7300
" />
<path d="M103.2445 85.7300
L103.3655 85.6695
" />
<path d="M103.3655 85.6695
L103.6678 85.6695
" />
<path d="M103.6678 85.6695
L103.8493 85.7300
" />
<path d="M105.1192 86.8186
L105.0588 86.8791
" />
<path d="M105.0588 86.8791
L104.8773 86.9395
" />
<path d="M104.8773 86.9395
L104.7564 86.9395
" />
<path d="M104.7564 86.9395
L104.5750 86.8791
" />
<path d="M104.5750 86.8791
L104.4540 86.7581
" />
<path d="M104.4540 86.7581
L104.3935 86.6371
" />
<path d="M104.3935 86.6371
L104.3331 86.3952
" />
<path d="M104.3331 86.3952
L104.3331 86.2138
" />
<path d="M104.3331 86.2138
L104.3935 85.9719
" />
<path d="M104.3935 85.9719
L104.4540 85.8510
" />
<path d="M104.4540 85.8510
L104.5750 85.7300
" />
<path d="M104.5750 85.7300
L104.7564 85.6695
" />
<path d="M104.7564 85.6695
L104.8773 85.6695
" />
<path d="M104.8773 85.6695
L105.0588 85.7300
" />
<path d="M105.0588 85.7300
L105.1192 85.7905
" />
<path d="M106.2683 86.9395
L105.6635 86.9395
" />
<path d="M105.6635 86.9395
L105.6635 85.6695
" />
</g><path style="fill:none; 
stroke:#725600; stroke-width:0.1524; stroke-opacity:1; 
stroke-linecap:round; stroke-linejoin:round;fill:none"
d="M 107.9500,86.3600
107.3150,85.7250
106.6800,85.7250
106.6800,86.9950
107.3150,86.9950
Z" /> 
</g>
<g style="fill:none; 
stroke:#725600; stroke-width:0.1524; stroke-opacity:1; 
stroke-linecap:round; stroke-linejoin:round;">
<text x="106.4895" y="92.0750"
textLength="4.0737" font-size="1.6933" lengthAdjust="spacingAndGlyphs"
text-anchor="end" opacity="0" stroke-opacity="0">GND</text>
<g class="stroked-text"><desc>GND</desc>
<path d="M103.4864 90.8100
L103.3654 90.7495
" />
<path d="M103.3654 90.7495
L103.1840 90.7495
" />
<path d="M103.1840 90.7495
L103.0026 90.8100
" />
<path d="M103.0026 90.8100
L102.8816 90.9310
" />
<path d="M102.8816 90.9310
L102.8211 91.0519
" />
<path d="M102.8211 91.0519
L102.7607 91.2938
" />
<path d="M102.7607 91.2938
L102.7607 91.4752
" />
<path d="M102.7607 91.4752
L102.8211 91.7171
" />
<path d="M102.8211 91.7171
L102.8816 91.8381
" />
<path d="M102.8816 91.8381
L103.0026 91.9591
" />
<path d="M103.0026 91.9591
L103.1840 92.0195
" />
<path d="M103.1840 92.0195
L103.3049 92.0195
" />
<path d="M103.3049 92.0195
L103.4864 91.9591
" />
<path d="M103.4864 91.9591
L103.5468 91.8986
" />
<path d="M103.5468 91.8986
L103.5468 91.4752
" />
<path d="M103.5468 91.4752
L103.3049 91.4752
" />
<path d="M104.0911 92.0195
L104.0911 90.7495
" />
<path d="M104.0911 90.7495
L104.8168 92.0195
" />
<path d="M104.8168 92.0195
L104.8168 90.7495
" />
<path d="M105.4216 92.0195
L105.4216 90.7495
" />
<path d="M105.4216 90.7495
L105.7240 90.7495
" />
<path d="M105.7240 90.7495
L105.9054 90.8100
" />
<path d="M105.9054 90.8100
L106.0264 90.9310
" />
<path d="M106.0264 90.9310
L106.0869 91.0519
" />
<path d="M106.0869 91.0519
L106.1473 91.2938
" />
<path d="M106.1473 91.2938
L106.1473 91.4752
" />
<path d="M106.1473 91.4752
L106.0869 91.7171
" />
<path d="M106.0869 91.7171
L106.0264 91.8381
" />
<path d="M106.0264 91.8381
L105.9054 91.9591
" />
<path d="M105.9054 91.9591
L105.7240 92.0195
" />
<path d="M105.7240 92.0195
L105.4216 92.0195
" />
</g><path style="fill:none; 
stroke:#725600; stroke-width:0.1524; stroke-opacity:1; 
stroke-linecap:round; stroke-linejoin:round;fill:none"
d="M 107.9500,91.4400
107.3150,90.8050
106.6800,90.8050
106.6800,92.0750
107.3150,92.0750
Z" /> 
</g>
<g style="fill:none; 
stroke:#725600; stroke-width:0.1524; stroke-opacity:1; 
stroke-linecap:round; stroke-linejoin:round;">
<text x="106.4895" y="84.4550"
textLength="3.7713" font-size="1.6933" lengthAdjust="spacingAndGlyphs"
text-anchor="end" opacity="0" stroke-opacity="0">SDA</text>
<g class="stroked-text"><desc>SDA</desc>
<path d="M103.0631 84.3391
L103.2445 84.3995
" />
<path d="M103.2445 84.3995
L103.5469 84.3995
" />
<path d="M103.5469 84.3995
L103.6678 84.3391
" />
<path d="M103.6678 84.3391
L103.7283 84.2786
" />
<path d="M103.7283 84.2786
L103.7888 84.1576
" />
<path d="M103.7888 84.1576
L103.7888 84.0367
" />
<path d="M103.7888 84.0367
L103.7283 83.9157
" />
<path d="M103.7283 83.9157
L103.6678 83.8552
" />
<path d="M103.6678 83.8552
L103.5469 83.7948
" />
<path d="M103.5469 83.7948
L103.3050 83.7343
" />
<path d="M103.3050 83.7343
L103.1840 83.6738
" />
<path d="M103.1840 83.6738
L103.1235 83.6133
" />
<path d="M103.1235 83.6133
L103.0631 83.4924
" />
<path d="M103.0631 83.4924
L103.0631 83.3714
" />
<path d="M103.0631 83.3714
L103.1235 83.2505
" />
<path d="M103.1235 83.2505
L103.1840 83.1900
" />
<path d="M103.1840 83.1900
L103.3050 83.1295
" />
<path d="M103.3050 83.1295
L103.6073 83.1295
" />
<path d="M103.6073 83.1295
L103.7888 83.1900
" />
<path d="M104.3330 84.3995
L104.3330 83.1295
" />
<path d="M104.3330 83.1295
L104.6354 83.1295
" />
<path d="M104.6354 83.1295
L104.8168 83.1900
" />
<path d="M104.8168 83.1900
L104.9378 83.3110
" />
<path d="M104.9378 83.3110
L104.9983 83.4319
" />
<path d="M104.9983 83.4319
L105.0587 83.6738
" />
<path d="M105.0587 83.6738
L105.0587 83.8552
" />
<path d="M105.0587 83.8552
L104.9983 84.0971
" />
<path d="M104.9983 84.0971
L104.9378 84.2181
" />
<path d="M104.9378 84.2181
L104.8168 84.3391
" />
<path d="M104.8168 84.3391
L104.6354 84.3995
" />
<path d="M104.6354 84.3995
L104.3330 84.3995
" />
<path d="M105.5426 84.0367
L106.1473 84.0367
" />
<path d="M105.4216 84.3995
L105.8449 83.1295
" />
<path d="M105.8449 83.1295
L106.2683 84.3995
" />
</g><path style="fill:none; 
stroke:#725600; stroke-width:0.1524; stroke-opacity:1; 
stroke-linecap:round; stroke-linejoin:round;fill:none"
d="M 107.9500,83.8200
107.3150,83.1850
106.6800,83.1850
106.6800,84.4550
107.3150,84.4550
Z" /> 
</g>
<g style="fill:none; 
stroke:#009600; stroke-width:0.1524; stroke-opacity:1; 
stroke-linecap:round; stroke-linejoin:round;">
<path d="M107.9500 83.8200
L121.9200 83.8200
" />
<path d="M107.9500 86.3600
L121.9200 86.3600
" />
<path d="M107.9500 91.4400
L121.9200 91.4400
" />
<path d="M107.9500 88.9000
L121.9200 88.9000
" />
</g> 
</svg>
