<?xml version="1.0" standalone="no"?>
 <!DOCTYPE svg PUBLIC "-//W3C//DTD SVG 1.1//EN" 
 "http://www.w3.org/Graphics/SVG/1.1/DTD/svg11.dtd"> 
<svg
  xmlns:svg="http://www.w3.org/2000/svg"
  xmlns="http://www.w3.org/2000/svg"
  xmlns:xlink="http://www.w3.org/1999/xlink"
  version="1.1"
  width="297.0022mm" height="210.0072mm" viewBox="0.0000 0.0000 297.0022 210.0072">
<title>SVG Image created as keeby.svg date 2025/12/16 19:51:02 </title>
  <desc>Image generated by Eeschema-SVG </desc>
<g style="fill:#000000; fill-opacity:1.0000;stroke:#000000; stroke-opacity:1.0000;
stroke-linecap:round; stroke-linejoin:round;"
 transform="translate(0 0) scale(1 1)">
</g>
<g style="fill:none; 
stroke:#840000; stroke-width:0.1524; stroke-opacity:1; 
stroke-linecap:round; stroke-linejoin:round;">
<path d="M177.0022 166.0072
L285.0022 166.0072
L285.0022 198.0072
L177.0022 198.0072
L177.0022 166.0072
" />
<path d="M10.0000 10.0000
L287.0022 10.0000
L287.0022 200.0072
L10.0000 200.0072
L10.0000 10.0000
" />
<path d="M12.0000 12.0000
L285.0022 12.0000
L285.0022 198.0072
L12.0000 198.0072
L12.0000 12.0000
" />
<path d="M60.0000 12.0000
L60.0000 10.0000
" />
<path d="M110.0000 12.0000
L110.0000 10.0000
" />
<path d="M160.0000 12.0000
L160.0000 10.0000
" />
<path d="M210.0000 12.0000
L210.0000 10.0000
" />
<path d="M260.0000 12.0000
L260.0000 10.0000
" />
<text x="35.0000" y="11.6500"
textLength="1.4353" font-size="1.7333" lengthAdjust="spacingAndGlyphs"
text-anchor="start" opacity="0" stroke-opacity="0">1</text>
<g class="stroked-text"><desc>1</desc>
<path d="M36.0906 11.5935
L35.3478 11.5935
" />
<path d="M35.7192 11.5935
L35.7192 10.2935
" />
<path d="M35.7192 10.2935
L35.5954 10.4792
" />
<path d="M35.5954 10.4792
L35.4716 10.6030
" />
<path d="M35.4716 10.6030
L35.3478 10.6649
" />
</g><text x="85.0000" y="11.6500"
textLength="1.4353" font-size="1.7333" lengthAdjust="spacingAndGlyphs"
text-anchor="start" opacity="0" stroke-opacity="0">2</text>
<g class="stroked-text"><desc>2</desc>
<path d="M85.3478 10.4173
L85.4097 10.3554
" />
<path d="M85.4097 10.3554
L85.5335 10.2935
" />
<path d="M85.5335 10.2935
L85.8430 10.2935
" />
<path d="M85.8430 10.2935
L85.9668 10.3554
" />
<path d="M85.9668 10.3554
L86.0287 10.4173
" />
<path d="M86.0287 10.4173
L86.0906 10.5411
" />
<path d="M86.0906 10.5411
L86.0906 10.6649
" />
<path d="M86.0906 10.6649
L86.0287 10.8506
" />
<path d="M86.0287 10.8506
L85.2859 11.5935
" />
<path d="M85.2859 11.5935
L86.0906 11.5935
" />
</g><text x="135.0000" y="11.6500"
textLength="1.4353" font-size="1.7333" lengthAdjust="spacingAndGlyphs"
text-anchor="start" opacity="0" stroke-opacity="0">3</text>
<g class="stroked-text"><desc>3</desc>
<path d="M135.2859 10.2935
L136.0906 10.2935
" />
<path d="M136.0906 10.2935
L135.6573 10.7887
" />
<path d="M135.6573 10.7887
L135.8430 10.7887
" />
<path d="M135.8430 10.7887
L135.9668 10.8506
" />
<path d="M135.9668 10.8506
L136.0287 10.9125
" />
<path d="M136.0287 10.9125
L136.0906 11.0363
" />
<path d="M136.0906 11.0363
L136.0906 11.3458
" />
<path d="M136.0906 11.3458
L136.0287 11.4696
" />
<path d="M136.0287 11.4696
L135.9668 11.5316
" />
<path d="M135.9668 11.5316
L135.8430 11.5935
" />
<path d="M135.8430 11.5935
L135.4716 11.5935
" />
<path d="M135.4716 11.5935
L135.3478 11.5316
" />
<path d="M135.3478 11.5316
L135.2859 11.4696
" />
</g><text x="185.0000" y="11.6500"
textLength="1.4353" font-size="1.7333" lengthAdjust="spacingAndGlyphs"
text-anchor="start" opacity="0" stroke-opacity="0">4</text>
<g class="stroked-text"><desc>4</desc>
<path d="M185.9668 10.7268
L185.9668 11.5935
" />
<path d="M185.6573 10.2316
L185.3478 11.1601
" />
<path d="M185.3478 11.1601
L186.1525 11.1601
" />
</g><text x="235.0000" y="11.6500"
textLength="1.4353" font-size="1.7333" lengthAdjust="spacingAndGlyphs"
text-anchor="start" opacity="0" stroke-opacity="0">5</text>
<g class="stroked-text"><desc>5</desc>
<path d="M236.0287 10.2935
L235.4097 10.2935
" />
<path d="M235.4097 10.2935
L235.3478 10.9125
" />
<path d="M235.3478 10.9125
L235.4097 10.8506
" />
<path d="M235.4097 10.8506
L235.5335 10.7887
" />
<path d="M235.5335 10.7887
L235.8430 10.7887
" />
<path d="M235.8430 10.7887
L235.9668 10.8506
" />
<path d="M235.9668 10.8506
L236.0287 10.9125
" />
<path d="M236.0287 10.9125
L236.0906 11.0363
" />
<path d="M236.0906 11.0363
L236.0906 11.3458
" />
<path d="M236.0906 11.3458
L236.0287 11.4696
" />
<path d="M236.0287 11.4696
L235.9668 11.5316
" />
<path d="M235.9668 11.5316
L235.8430 11.5935
" />
<path d="M235.8430 11.5935
L235.5335 11.5935
" />
<path d="M235.5335 11.5935
L235.4097 11.5316
" />
<path d="M235.4097 11.5316
L235.3478 11.4696
" />
</g><text x="285.0000" y="11.6500"
textLength="1.4353" font-size="1.7333" lengthAdjust="spacingAndGlyphs"
text-anchor="start" opacity="0" stroke-opacity="0">6</text>
<g class="stroked-text"><desc>6</desc>
<path d="M285.9668 10.2935
L285.7192 10.2935
" />
<path d="M285.7192 10.2935
L285.5954 10.3554
" />
<path d="M285.5954 10.3554
L285.5335 10.4173
" />
<path d="M285.5335 10.4173
L285.4097 10.6030
" />
<path d="M285.4097 10.6030
L285.3478 10.8506
" />
<path d="M285.3478 10.8506
L285.3478 11.3458
" />
<path d="M285.3478 11.3458
L285.4097 11.4696
" />
<path d="M285.4097 11.4696
L285.4716 11.5316
" />
<path d="M285.4716 11.5316
L285.5954 11.5935
" />
<path d="M285.5954 11.5935
L285.8430 11.5935
" />
<path d="M285.8430 11.5935
L285.9668 11.5316
" />
<path d="M285.9668 11.5316
L286.0287 11.4696
" />
<path d="M286.0287 11.4696
L286.0906 11.3458
" />
<path d="M286.0906 11.3458
L286.0906 11.0363
" />
<path d="M286.0906 11.0363
L286.0287 10.9125
" />
<path d="M286.0287 10.9125
L285.9668 10.8506
" />
<path d="M285.9668 10.8506
L285.8430 10.7887
" />
<path d="M285.8430 10.7887
L285.5954 10.7887
" />
<path d="M285.5954 10.7887
L285.4716 10.8506
" />
<path d="M285.4716 10.8506
L285.4097 10.9125
" />
<path d="M285.4097 10.9125
L285.3478 11.0363
" />
</g><path d="M60.0000 198.0072
L60.0000 200.0072
" />
<path d="M110.0000 198.0072
L110.0000 200.0072
" />
<path d="M160.0000 198.0072
L160.0000 200.0072
" />
<path d="M210.0000 198.0072
L210.0000 200.0072
" />
<path d="M260.0000 198.0072
L260.0000 200.0072
" />
<text x="35.0000" y="199.6572"
textLength="1.4353" font-size="1.7333" lengthAdjust="spacingAndGlyphs"
text-anchor="start" opacity="0" stroke-opacity="0">1</text>
<g class="stroked-text"><desc>1</desc>
<path d="M36.0906 199.6007
L35.3478 199.6007
" />
<path d="M35.7192 199.6007
L35.7192 198.3007
" />
<path d="M35.7192 198.3007
L35.5954 198.4864
" />
<path d="M35.5954 198.4864
L35.4716 198.6102
" />
<path d="M35.4716 198.6102
L35.3478 198.6721
" />
</g><text x="85.0000" y="199.6572"
textLength="1.4353" font-size="1.7333" lengthAdjust="spacingAndGlyphs"
text-anchor="start" opacity="0" stroke-opacity="0">2</text>
<g class="stroked-text"><desc>2</desc>
<path d="M85.3478 198.4245
L85.4097 198.3626
" />
<path d="M85.4097 198.3626
L85.5335 198.3007
" />
<path d="M85.5335 198.3007
L85.8430 198.3007
" />
<path d="M85.8430 198.3007
L85.9668 198.3626
" />
<path d="M85.9668 198.3626
L86.0287 198.4245
" />
<path d="M86.0287 198.4245
L86.0906 198.5483
" />
<path d="M86.0906 198.5483
L86.0906 198.6721
" />
<path d="M86.0906 198.6721
L86.0287 198.8578
" />
<path d="M86.0287 198.8578
L85.2859 199.6007
" />
<path d="M85.2859 199.6007
L86.0906 199.6007
" />
</g><text x="135.0000" y="199.6572"
textLength="1.4353" font-size="1.7333" lengthAdjust="spacingAndGlyphs"
text-anchor="start" opacity="0" stroke-opacity="0">3</text>
<g class="stroked-text"><desc>3</desc>
<path d="M135.2859 198.3007
L136.0906 198.3007
" />
<path d="M136.0906 198.3007
L135.6573 198.7959
" />
<path d="M135.6573 198.7959
L135.8430 198.7959
" />
<path d="M135.8430 198.7959
L135.9668 198.8578
" />
<path d="M135.9668 198.8578
L136.0287 198.9197
" />
<path d="M136.0287 198.9197
L136.0906 199.0435
" />
<path d="M136.0906 199.0435
L136.0906 199.3530
" />
<path d="M136.0906 199.3530
L136.0287 199.4768
" />
<path d="M136.0287 199.4768
L135.9668 199.5388
" />
<path d="M135.9668 199.5388
L135.8430 199.6007
" />
<path d="M135.8430 199.6007
L135.4716 199.6007
" />
<path d="M135.4716 199.6007
L135.3478 199.5388
" />
<path d="M135.3478 199.5388
L135.2859 199.4768
" />
</g><text x="185.0000" y="199.6572"
textLength="1.4353" font-size="1.7333" lengthAdjust="spacingAndGlyphs"
text-anchor="start" opacity="0" stroke-opacity="0">4</text>
<g class="stroked-text"><desc>4</desc>
<path d="M185.9668 198.7340
L185.9668 199.6007
" />
<path d="M185.6573 198.2388
L185.3478 199.1673
" />
<path d="M185.3478 199.1673
L186.1525 199.1673
" />
</g><text x="235.0000" y="199.6572"
textLength="1.4353" font-size="1.7333" lengthAdjust="spacingAndGlyphs"
text-anchor="start" opacity="0" stroke-opacity="0">5</text>
<g class="stroked-text"><desc>5</desc>
<path d="M236.0287 198.3007
L235.4097 198.3007
" />
<path d="M235.4097 198.3007
L235.3478 198.9197
" />
<path d="M235.3478 198.9197
L235.4097 198.8578
" />
<path d="M235.4097 198.8578
L235.5335 198.7959
" />
<path d="M235.5335 198.7959
L235.8430 198.7959
" />
<path d="M235.8430 198.7959
L235.9668 198.8578
" />
<path d="M235.9668 198.8578
L236.0287 198.9197
" />
<path d="M236.0287 198.9197
L236.0906 199.0435
" />
<path d="M236.0906 199.0435
L236.0906 199.3530
" />
<path d="M236.0906 199.3530
L236.0287 199.4768
" />
<path d="M236.0287 199.4768
L235.9668 199.5388
" />
<path d="M235.9668 199.5388
L235.8430 199.6007
" />
<path d="M235.8430 199.6007
L235.5335 199.6007
" />
<path d="M235.5335 199.6007
L235.4097 199.5388
" />
<path d="M235.4097 199.5388
L235.3478 199.4768
" />
</g><text x="285.0000" y="199.6572"
textLength="1.4353" font-size="1.7333" lengthAdjust="spacingAndGlyphs"
text-anchor="start" opacity="0" stroke-opacity="0">6</text>
<g class="stroked-text"><desc>6</desc>
<path d="M285.9668 198.3007
L285.7192 198.3007
" />
<path d="M285.7192 198.3007
L285.5954 198.3626
" />
<path d="M285.5954 198.3626
L285.5335 198.4245
" />
<path d="M285.5335 198.4245
L285.4097 198.6102
" />
<path d="M285.4097 198.6102
L285.3478 198.8578
" />
<path d="M285.3478 198.8578
L285.3478 199.3530
" />
<path d="M285.3478 199.3530
L285.4097 199.4768
" />
<path d="M285.4097 199.4768
L285.4716 199.5388
" />
<path d="M285.4716 199.5388
L285.5954 199.6007
" />
<path d="M285.5954 199.6007
L285.8430 199.6007
" />
<path d="M285.8430 199.6007
L285.9668 199.5388
" />
<path d="M285.9668 199.5388
L286.0287 199.4768
" />
<path d="M286.0287 199.4768
L286.0906 199.3530
" />
<path d="M286.0906 199.3530
L286.0906 199.0435
" />
<path d="M286.0906 199.0435
L286.0287 198.9197
" />
<path d="M286.0287 198.9197
L285.9668 198.8578
" />
<path d="M285.9668 198.8578
L285.8430 198.7959
" />
<path d="M285.8430 198.7959
L285.5954 198.7959
" />
<path d="M285.5954 198.7959
L285.4716 198.8578
" />
<path d="M285.4716 198.8578
L285.4097 198.9197
" />
<path d="M285.4097 198.9197
L285.3478 199.0435
" />
</g><path d="M10.0000 60.0000
L12.0000 60.0000
" />
<path d="M10.0000 110.0000
L12.0000 110.0000
" />
<path d="M10.0000 160.0000
L12.0000 160.0000
" />
<text x="11.0000" y="35.6500"
textLength="1.3115" font-size="1.7333" lengthAdjust="spacingAndGlyphs"
text-anchor="middle" opacity="0" stroke-opacity="0">A</text>
<g class="stroked-text"><desc>A</desc>
<path d="M10.6905 35.2220
L11.3095 35.2220
" />
<path d="M10.5667 35.5935
L11.0000 34.2935
" />
<path d="M11.0000 34.2935
L11.4333 35.5935
" />
</g><text x="11.0000" y="85.6500"
textLength="1.4972" font-size="1.7333" lengthAdjust="spacingAndGlyphs"
text-anchor="middle" opacity="0" stroke-opacity="0">B</text>
<g class="stroked-text"><desc>B</desc>
<path d="M11.0928 84.9125
L11.2785 84.9744
" />
<path d="M11.2785 84.9744
L11.3404 85.0363
" />
<path d="M11.3404 85.0363
L11.4023 85.1601
" />
<path d="M11.4023 85.1601
L11.4023 85.3458
" />
<path d="M11.4023 85.3458
L11.3404 85.4696
" />
<path d="M11.3404 85.4696
L11.2785 85.5316
" />
<path d="M11.2785 85.5316
L11.1547 85.5935
" />
<path d="M11.1547 85.5935
L10.6595 85.5935
" />
<path d="M10.6595 85.5935
L10.6595 84.2935
" />
<path d="M10.6595 84.2935
L11.0928 84.2935
" />
<path d="M11.0928 84.2935
L11.2166 84.3554
" />
<path d="M11.2166 84.3554
L11.2785 84.4173
" />
<path d="M11.2785 84.4173
L11.3404 84.5411
" />
<path d="M11.3404 84.5411
L11.3404 84.6649
" />
<path d="M11.3404 84.6649
L11.2785 84.7887
" />
<path d="M11.2785 84.7887
L11.2166 84.8506
" />
<path d="M11.2166 84.8506
L11.0928 84.9125
" />
<path d="M11.0928 84.9125
L10.6595 84.9125
" />
</g><text x="11.0000" y="135.6500"
textLength="1.4972" font-size="1.7333" lengthAdjust="spacingAndGlyphs"
text-anchor="middle" opacity="0" stroke-opacity="0">C</text>
<g class="stroked-text"><desc>C</desc>
<path d="M11.4023 135.4696
L11.3404 135.5316
" />
<path d="M11.3404 135.5316
L11.1547 135.5935
" />
<path d="M11.1547 135.5935
L11.0309 135.5935
" />
<path d="M11.0309 135.5935
L10.8452 135.5316
" />
<path d="M10.8452 135.5316
L10.7214 135.4077
" />
<path d="M10.7214 135.4077
L10.6595 135.2839
" />
<path d="M10.6595 135.2839
L10.5976 135.0363
" />
<path d="M10.5976 135.0363
L10.5976 134.8506
" />
<path d="M10.5976 134.8506
L10.6595 134.6030
" />
<path d="M10.6595 134.6030
L10.7214 134.4792
" />
<path d="M10.7214 134.4792
L10.8452 134.3554
" />
<path d="M10.8452 134.3554
L11.0309 134.2935
" />
<path d="M11.0309 134.2935
L11.1547 134.2935
" />
<path d="M11.1547 134.2935
L11.3404 134.3554
" />
<path d="M11.3404 134.3554
L11.4023 134.4173
" />
</g><text x="11.0000" y="185.6500"
textLength="1.4972" font-size="1.7333" lengthAdjust="spacingAndGlyphs"
text-anchor="middle" opacity="0" stroke-opacity="0">D</text>
<g class="stroked-text"><desc>D</desc>
<path d="M10.6595 185.5935
L10.6595 184.2935
" />
<path d="M10.6595 184.2935
L10.9690 184.2935
" />
<path d="M10.9690 184.2935
L11.1547 184.3554
" />
<path d="M11.1547 184.3554
L11.2785 184.4792
" />
<path d="M11.2785 184.4792
L11.3404 184.6030
" />
<path d="M11.3404 184.6030
L11.4023 184.8506
" />
<path d="M11.4023 184.8506
L11.4023 185.0363
" />
<path d="M11.4023 185.0363
L11.3404 185.2839
" />
<path d="M11.3404 185.2839
L11.2785 185.4077
" />
<path d="M11.2785 185.4077
L11.1547 185.5316
" />
<path d="M11.1547 185.5316
L10.9690 185.5935
" />
<path d="M10.9690 185.5935
L10.6595 185.5935
" />
</g><path d="M287.0022 60.0000
L285.0022 60.0000
" />
<path d="M287.0022 110.0000
L285.0022 110.0000
" />
<path d="M287.0022 160.0000
L285.0022 160.0000
" />
<text x="286.0022" y="35.6500"
textLength="1.3115" font-size="1.7333" lengthAdjust="spacingAndGlyphs"
text-anchor="middle" opacity="0" stroke-opacity="0">A</text>
<g class="stroked-text"><desc>A</desc>
<path d="M285.6927 35.2220
L286.3117 35.2220
" />
<path d="M285.5689 35.5935
L286.0022 34.2935
" />
<path d="M286.0022 34.2935
L286.4355 35.5935
" />
</g><text x="286.0022" y="85.6500"
textLength="1.4972" font-size="1.7333" lengthAdjust="spacingAndGlyphs"
text-anchor="middle" opacity="0" stroke-opacity="0">B</text>
<g class="stroked-text"><desc>B</desc>
<path d="M286.0950 84.9125
L286.2807 84.9744
" />
<path d="M286.2807 84.9744
L286.3426 85.0363
" />
<path d="M286.3426 85.0363
L286.4045 85.1601
" />
<path d="M286.4045 85.1601
L286.4045 85.3458
" />
<path d="M286.4045 85.3458
L286.3426 85.4696
" />
<path d="M286.3426 85.4696
L286.2807 85.5316
" />
<path d="M286.2807 85.5316
L286.1569 85.5935
" />
<path d="M286.1569 85.5935
L285.6617 85.5935
" />
<path d="M285.6617 85.5935
L285.6617 84.2935
" />
<path d="M285.6617 84.2935
L286.0950 84.2935
" />
<path d="M286.0950 84.2935
L286.2188 84.3554
" />
<path d="M286.2188 84.3554
L286.2807 84.4173
" />
<path d="M286.2807 84.4173
L286.3426 84.5411
" />
<path d="M286.3426 84.5411
L286.3426 84.6649
" />
<path d="M286.3426 84.6649
L286.2807 84.7887
" />
<path d="M286.2807 84.7887
L286.2188 84.8506
" />
<path d="M286.2188 84.8506
L286.0950 84.9125
" />
<path d="M286.0950 84.9125
L285.6617 84.9125
" />
</g><text x="286.0022" y="135.6500"
textLength="1.4972" font-size="1.7333" lengthAdjust="spacingAndGlyphs"
text-anchor="middle" opacity="0" stroke-opacity="0">C</text>
<g class="stroked-text"><desc>C</desc>
<path d="M286.4045 135.4696
L286.3426 135.5316
" />
<path d="M286.3426 135.5316
L286.1569 135.5935
" />
<path d="M286.1569 135.5935
L286.0331 135.5935
" />
<path d="M286.0331 135.5935
L285.8474 135.5316
" />
<path d="M285.8474 135.5316
L285.7236 135.4077
" />
<path d="M285.7236 135.4077
L285.6617 135.2839
" />
<path d="M285.6617 135.2839
L285.5998 135.0363
" />
<path d="M285.5998 135.0363
L285.5998 134.8506
" />
<path d="M285.5998 134.8506
L285.6617 134.6030
" />
<path d="M285.6617 134.6030
L285.7236 134.4792
" />
<path d="M285.7236 134.4792
L285.8474 134.3554
" />
<path d="M285.8474 134.3554
L286.0331 134.2935
" />
<path d="M286.0331 134.2935
L286.1569 134.2935
" />
<path d="M286.1569 134.2935
L286.3426 134.3554
" />
<path d="M286.3426 134.3554
L286.4045 134.4173
" />
</g><text x="286.0022" y="185.6500"
textLength="1.4972" font-size="1.7333" lengthAdjust="spacingAndGlyphs"
text-anchor="middle" opacity="0" stroke-opacity="0">D</text>
<g class="stroked-text"><desc>D</desc>
<path d="M285.6617 185.5935
L285.6617 184.2935
" />
<path d="M285.6617 184.2935
L285.9712 184.2935
" />
<path d="M285.9712 184.2935
L286.1569 184.3554
" />
<path d="M286.1569 184.3554
L286.2807 184.4792
" />
<path d="M286.2807 184.4792
L286.3426 184.6030
" />
<path d="M286.3426 184.6030
L286.4045 184.8506
" />
<path d="M286.4045 184.8506
L286.4045 185.0363
" />
<path d="M286.4045 185.0363
L286.3426 185.2839
" />
<path d="M286.3426 185.2839
L286.2807 185.4077
" />
<path d="M286.2807 185.4077
L286.1569 185.5316
" />
<path d="M286.1569 185.5316
L285.9712 185.5935
" />
<path d="M285.9712 185.5935
L285.6617 185.5935
" />
</g><text x="200.0022" y="193.8572"
textLength="7.0143" font-size="2.0000" lengthAdjust="spacingAndGlyphs"
text-anchor="start" opacity="0" stroke-opacity="0">Date: </text>
<g class="stroked-text"><desc>Date: </desc>
<path d="M200.4595 193.7931
L200.4595 192.2931
" />
<path d="M200.4595 192.2931
L200.8166 192.2931
" />
<path d="M200.8166 192.2931
L201.0309 192.3645
" />
<path d="M201.0309 192.3645
L201.1738 192.5074
" />
<path d="M201.1738 192.5074
L201.2452 192.6502
" />
<path d="M201.2452 192.6502
L201.3166 192.9359
" />
<path d="M201.3166 192.9359
L201.3166 193.1502
" />
<path d="M201.3166 193.1502
L201.2452 193.4359
" />
<path d="M201.2452 193.4359
L201.1738 193.5788
" />
<path d="M201.1738 193.5788
L201.0309 193.7217
" />
<path d="M201.0309 193.7217
L200.8166 193.7931
" />
<path d="M200.8166 193.7931
L200.4595 193.7931
" />
<path d="M202.6024 193.7931
L202.6024 193.0074
" />
<path d="M202.6024 193.0074
L202.5309 192.8645
" />
<path d="M202.5309 192.8645
L202.3881 192.7931
" />
<path d="M202.3881 192.7931
L202.1024 192.7931
" />
<path d="M202.1024 192.7931
L201.9595 192.8645
" />
<path d="M202.6024 193.7217
L202.4595 193.7931
" />
<path d="M202.4595 193.7931
L202.1024 193.7931
" />
<path d="M202.1024 193.7931
L201.9595 193.7217
" />
<path d="M201.9595 193.7217
L201.8881 193.5788
" />
<path d="M201.8881 193.5788
L201.8881 193.4359
" />
<path d="M201.8881 193.4359
L201.9595 193.2931
" />
<path d="M201.9595 193.2931
L202.1024 193.2217
" />
<path d="M202.1024 193.2217
L202.4595 193.2217
" />
<path d="M202.4595 193.2217
L202.6024 193.1502
" />
<path d="M203.1023 192.7931
L203.6737 192.7931
" />
<path d="M203.3166 192.2931
L203.3166 193.5788
" />
<path d="M203.3166 193.5788
L203.3880 193.7217
" />
<path d="M203.3880 193.7217
L203.5309 193.7931
" />
<path d="M203.5309 193.7931
L203.6737 193.7931
" />
<path d="M204.7451 193.7217
L204.6023 193.7931
" />
<path d="M204.6023 193.7931
L204.3166 193.7931
" />
<path d="M204.3166 193.7931
L204.1737 193.7217
" />
<path d="M204.1737 193.7217
L204.1023 193.5788
" />
<path d="M204.1023 193.5788
L204.1023 193.0074
" />
<path d="M204.1023 193.0074
L204.1737 192.8645
" />
<path d="M204.1737 192.8645
L204.3166 192.7931
" />
<path d="M204.3166 192.7931
L204.6023 192.7931
" />
<path d="M204.6023 192.7931
L204.7451 192.8645
" />
<path d="M204.7451 192.8645
L204.8166 193.0074
" />
<path d="M204.8166 193.0074
L204.8166 193.1502
" />
<path d="M204.8166 193.1502
L204.1023 193.2931
" />
<path d="M205.4594 193.6502
L205.5308 193.7217
" />
<path d="M205.5308 193.7217
L205.4594 193.7931
" />
<path d="M205.4594 193.7931
L205.3880 193.7217
" />
<path d="M205.3880 193.7217
L205.4594 193.6502
" />
<path d="M205.4594 193.6502
L205.4594 193.7931
" />
<path d="M205.4594 192.8645
L205.5308 192.9359
" />
<path d="M205.5308 192.9359
L205.4594 193.0074
" />
<path d="M205.4594 193.0074
L205.3880 192.9359
" />
<path d="M205.3880 192.9359
L205.4594 192.8645
" />
<path d="M205.4594 192.8645
L205.4594 193.0074
" />
</g><path d="M177.0022 194.5072
L285.0022 194.5072
" />
<text x="178.0022" y="196.6572"
textLength="20.8716" font-size="2.0000" lengthAdjust="spacingAndGlyphs"
text-anchor="start" opacity="0" stroke-opacity="0">KiCad E.D.A. 9.0.6</text>
<g class="stroked-text"><desc>KiCad E.D.A. 9.0.6</desc>
<path d="M178.4595 196.5931
L178.4595 195.0931
" />
<path d="M179.3166 196.5931
L178.6738 195.7359
" />
<path d="M179.3166 195.0931
L178.4595 195.9502
" />
<path d="M179.9595 196.5931
L179.9595 195.5931
" />
<path d="M179.9595 195.0931
L179.8881 195.1645
" />
<path d="M179.8881 195.1645
L179.9595 195.2359
" />
<path d="M179.9595 195.2359
L180.0309 195.1645
" />
<path d="M180.0309 195.1645
L179.9595 195.0931
" />
<path d="M179.9595 195.0931
L179.9595 195.2359
" />
<path d="M181.5309 196.4502
L181.4595 196.5217
" />
<path d="M181.4595 196.5217
L181.2452 196.5931
" />
<path d="M181.2452 196.5931
L181.1024 196.5931
" />
<path d="M181.1024 196.5931
L180.8881 196.5217
" />
<path d="M180.8881 196.5217
L180.7452 196.3788
" />
<path d="M180.7452 196.3788
L180.6738 196.2359
" />
<path d="M180.6738 196.2359
L180.6024 195.9502
" />
<path d="M180.6024 195.9502
L180.6024 195.7359
" />
<path d="M180.6024 195.7359
L180.6738 195.4502
" />
<path d="M180.6738 195.4502
L180.7452 195.3074
" />
<path d="M180.7452 195.3074
L180.8881 195.1645
" />
<path d="M180.8881 195.1645
L181.1024 195.0931
" />
<path d="M181.1024 195.0931
L181.2452 195.0931
" />
<path d="M181.2452 195.0931
L181.4595 195.1645
" />
<path d="M181.4595 195.1645
L181.5309 195.2359
" />
<path d="M182.8167 196.5931
L182.8167 195.8074
" />
<path d="M182.8167 195.8074
L182.7452 195.6645
" />
<path d="M182.7452 195.6645
L182.6024 195.5931
" />
<path d="M182.6024 195.5931
L182.3167 195.5931
" />
<path d="M182.3167 195.5931
L182.1738 195.6645
" />
<path d="M182.8167 196.5217
L182.6738 196.5931
" />
<path d="M182.6738 196.5931
L182.3167 196.5931
" />
<path d="M182.3167 196.5931
L182.1738 196.5217
" />
<path d="M182.1738 196.5217
L182.1024 196.3788
" />
<path d="M182.1024 196.3788
L182.1024 196.2359
" />
<path d="M182.1024 196.2359
L182.1738 196.0931
" />
<path d="M182.1738 196.0931
L182.3167 196.0217
" />
<path d="M182.3167 196.0217
L182.6738 196.0217
" />
<path d="M182.6738 196.0217
L182.8167 195.9502
" />
<path d="M184.1738 196.5931
L184.1738 195.0931
" />
<path d="M184.1738 196.5217
L184.0309 196.5931
" />
<path d="M184.0309 196.5931
L183.7452 196.5931
" />
<path d="M183.7452 196.5931
L183.6023 196.5217
" />
<path d="M183.6023 196.5217
L183.5309 196.4502
" />
<path d="M183.5309 196.4502
L183.4595 196.3074
" />
<path d="M183.4595 196.3074
L183.4595 195.8788
" />
<path d="M183.4595 195.8788
L183.5309 195.7359
" />
<path d="M183.5309 195.7359
L183.6023 195.6645
" />
<path d="M183.6023 195.6645
L183.7452 195.5931
" />
<path d="M183.7452 195.5931
L184.0309 195.5931
" />
<path d="M184.0309 195.5931
L184.1738 195.6645
" />
<path d="M186.0309 195.8074
L186.5309 195.8074
" />
<path d="M186.7452 196.5931
L186.0309 196.5931
" />
<path d="M186.0309 196.5931
L186.0309 195.0931
" />
<path d="M186.0309 195.0931
L186.7452 195.0931
" />
<path d="M187.3880 196.4502
L187.4594 196.5217
" />
<path d="M187.4594 196.5217
L187.3880 196.5931
" />
<path d="M187.3880 196.5931
L187.3166 196.5217
" />
<path d="M187.3166 196.5217
L187.3880 196.4502
" />
<path d="M187.3880 196.4502
L187.3880 196.5931
" />
<path d="M188.1023 196.5931
L188.1023 195.0931
" />
<path d="M188.1023 195.0931
L188.4594 195.0931
" />
<path d="M188.4594 195.0931
L188.6737 195.1645
" />
<path d="M188.6737 195.1645
L188.8166 195.3074
" />
<path d="M188.8166 195.3074
L188.8880 195.4502
" />
<path d="M188.8880 195.4502
L188.9594 195.7359
" />
<path d="M188.9594 195.7359
L188.9594 195.9502
" />
<path d="M188.9594 195.9502
L188.8880 196.2359
" />
<path d="M188.8880 196.2359
L188.8166 196.3788
" />
<path d="M188.8166 196.3788
L188.6737 196.5217
" />
<path d="M188.6737 196.5217
L188.4594 196.5931
" />
<path d="M188.4594 196.5931
L188.1023 196.5931
" />
<path d="M189.6023 196.4502
L189.6737 196.5217
" />
<path d="M189.6737 196.5217
L189.6023 196.5931
" />
<path d="M189.6023 196.5931
L189.5309 196.5217
" />
<path d="M189.5309 196.5217
L189.6023 196.4502
" />
<path d="M189.6023 196.4502
L189.6023 196.5931
" />
<path d="M190.2452 196.1645
L190.9595 196.1645
" />
<path d="M190.1023 196.5931
L190.6023 195.0931
" />
<path d="M190.6023 195.0931
L191.1023 196.5931
" />
<path d="M191.6023 196.4502
L191.6737 196.5217
" />
<path d="M191.6737 196.5217
L191.6023 196.5931
" />
<path d="M191.6023 196.5931
L191.5309 196.5217
" />
<path d="M191.5309 196.5217
L191.6023 196.4502
" />
<path d="M191.6023 196.4502
L191.6023 196.5931
" />
<path d="M193.5309 196.5931
L193.8166 196.5931
" />
<path d="M193.8166 196.5931
L193.9595 196.5217
" />
<path d="M193.9595 196.5217
L194.0309 196.4502
" />
<path d="M194.0309 196.4502
L194.1738 196.2359
" />
<path d="M194.1738 196.2359
L194.2452 195.9502
" />
<path d="M194.2452 195.9502
L194.2452 195.3788
" />
<path d="M194.2452 195.3788
L194.1738 195.2359
" />
<path d="M194.1738 195.2359
L194.1024 195.1645
" />
<path d="M194.1024 195.1645
L193.9595 195.0931
" />
<path d="M193.9595 195.0931
L193.6738 195.0931
" />
<path d="M193.6738 195.0931
L193.5309 195.1645
" />
<path d="M193.5309 195.1645
L193.4595 195.2359
" />
<path d="M193.4595 195.2359
L193.3881 195.3788
" />
<path d="M193.3881 195.3788
L193.3881 195.7359
" />
<path d="M193.3881 195.7359
L193.4595 195.8788
" />
<path d="M193.4595 195.8788
L193.5309 195.9502
" />
<path d="M193.5309 195.9502
L193.6738 196.0217
" />
<path d="M193.6738 196.0217
L193.9595 196.0217
" />
<path d="M193.9595 196.0217
L194.1024 195.9502
" />
<path d="M194.1024 195.9502
L194.1738 195.8788
" />
<path d="M194.1738 195.8788
L194.2452 195.7359
" />
<path d="M194.8881 196.4502
L194.9595 196.5217
" />
<path d="M194.9595 196.5217
L194.8881 196.5931
" />
<path d="M194.8881 196.5931
L194.8167 196.5217
" />
<path d="M194.8167 196.5217
L194.8881 196.4502
" />
<path d="M194.8881 196.4502
L194.8881 196.5931
" />
<path d="M195.8881 195.0931
L196.0310 195.0931
" />
<path d="M196.0310 195.0931
L196.1738 195.1645
" />
<path d="M196.1738 195.1645
L196.2453 195.2359
" />
<path d="M196.2453 195.2359
L196.3167 195.3788
" />
<path d="M196.3167 195.3788
L196.3881 195.6645
" />
<path d="M196.3881 195.6645
L196.3881 196.0217
" />
<path d="M196.3881 196.0217
L196.3167 196.3074
" />
<path d="M196.3167 196.3074
L196.2453 196.4502
" />
<path d="M196.2453 196.4502
L196.1738 196.5217
" />
<path d="M196.1738 196.5217
L196.0310 196.5931
" />
<path d="M196.0310 196.5931
L195.8881 196.5931
" />
<path d="M195.8881 196.5931
L195.7453 196.5217
" />
<path d="M195.7453 196.5217
L195.6738 196.4502
" />
<path d="M195.6738 196.4502
L195.6024 196.3074
" />
<path d="M195.6024 196.3074
L195.5310 196.0217
" />
<path d="M195.5310 196.0217
L195.5310 195.6645
" />
<path d="M195.5310 195.6645
L195.6024 195.3788
" />
<path d="M195.6024 195.3788
L195.6738 195.2359
" />
<path d="M195.6738 195.2359
L195.7453 195.1645
" />
<path d="M195.7453 195.1645
L195.8881 195.0931
" />
<path d="M197.0310 196.4502
L197.1024 196.5217
" />
<path d="M197.1024 196.5217
L197.0310 196.5931
" />
<path d="M197.0310 196.5931
L196.9596 196.5217
" />
<path d="M196.9596 196.5217
L197.0310 196.4502
" />
<path d="M197.0310 196.4502
L197.0310 196.5931
" />
<path d="M198.3882 195.0931
L198.1024 195.0931
" />
<path d="M198.1024 195.0931
L197.9596 195.1645
" />
<path d="M197.9596 195.1645
L197.8882 195.2359
" />
<path d="M197.8882 195.2359
L197.7453 195.4502
" />
<path d="M197.7453 195.4502
L197.6739 195.7359
" />
<path d="M197.6739 195.7359
L197.6739 196.3074
" />
<path d="M197.6739 196.3074
L197.7453 196.4502
" />
<path d="M197.7453 196.4502
L197.8167 196.5217
" />
<path d="M197.8167 196.5217
L197.9596 196.5931
" />
<path d="M197.9596 196.5931
L198.2453 196.5931
" />
<path d="M198.2453 196.5931
L198.3882 196.5217
" />
<path d="M198.3882 196.5217
L198.4596 196.4502
" />
<path d="M198.4596 196.4502
L198.5310 196.3074
" />
<path d="M198.5310 196.3074
L198.5310 195.9502
" />
<path d="M198.5310 195.9502
L198.4596 195.8074
" />
<path d="M198.4596 195.8074
L198.3882 195.7359
" />
<path d="M198.3882 195.7359
L198.2453 195.6645
" />
<path d="M198.2453 195.6645
L197.9596 195.6645
" />
<path d="M197.9596 195.6645
L197.8167 195.7359
" />
<path d="M197.8167 195.7359
L197.7453 195.8074
" />
<path d="M197.7453 195.8074
L197.6739 195.9502
" />
</g><path d="M177.0022 191.5072
L285.0022 191.5072
" />
</g>
<g style="fill:none; 
stroke:#840000; stroke-width:0.3000; stroke-opacity:1; 
stroke-linecap:round; stroke-linejoin:round;">
<text x="263.0022" y="193.8572"
textLength="6.3858" font-size="2.0000" lengthAdjust="spacingAndGlyphs"
text-anchor="start" opacity="0" stroke-opacity="0">Rev: </text>
<g class="stroked-text"><desc>Rev: </desc>
<path d="M264.4137 193.7855
L263.9137 193.0712
" />
<path d="M263.5566 193.7855
L263.5566 192.2855
" />
<path d="M263.5566 192.2855
L264.1280 192.2855
" />
<path d="M264.1280 192.2855
L264.2709 192.3569
" />
<path d="M264.2709 192.3569
L264.3423 192.4283
" />
<path d="M264.3423 192.4283
L264.4137 192.5712
" />
<path d="M264.4137 192.5712
L264.4137 192.7855
" />
<path d="M264.4137 192.7855
L264.3423 192.9283
" />
<path d="M264.3423 192.9283
L264.2709 192.9998
" />
<path d="M264.2709 192.9998
L264.1280 193.0712
" />
<path d="M264.1280 193.0712
L263.5566 193.0712
" />
<path d="M265.6280 193.7141
L265.4852 193.7855
" />
<path d="M265.4852 193.7855
L265.1995 193.7855
" />
<path d="M265.1995 193.7855
L265.0566 193.7141
" />
<path d="M265.0566 193.7141
L264.9852 193.5712
" />
<path d="M264.9852 193.5712
L264.9852 192.9998
" />
<path d="M264.9852 192.9998
L265.0566 192.8569
" />
<path d="M265.0566 192.8569
L265.1995 192.7855
" />
<path d="M265.1995 192.7855
L265.4852 192.7855
" />
<path d="M265.4852 192.7855
L265.6280 192.8569
" />
<path d="M265.6280 192.8569
L265.6995 192.9998
" />
<path d="M265.6995 192.9998
L265.6995 193.1426
" />
<path d="M265.6995 193.1426
L264.9852 193.2855
" />
<path d="M266.1994 192.7855
L266.5566 193.7855
" />
<path d="M266.5566 193.7855
L266.9137 192.7855
" />
<path d="M267.4852 193.6426
L267.5566 193.7141
" />
<path d="M267.5566 193.7141
L267.4852 193.7855
" />
<path d="M267.4852 193.7855
L267.4138 193.7141
" />
<path d="M267.4138 193.7141
L267.4852 193.6426
" />
<path d="M267.4852 193.6426
L267.4852 193.7855
" />
<path d="M267.4852 192.8569
L267.5566 192.9283
" />
<path d="M267.5566 192.9283
L267.4852 192.9998
" />
<path d="M267.4852 192.9998
L267.4138 192.9283
" />
<path d="M267.4138 192.9283
L267.4852 192.8569
" />
<path d="M267.4852 192.8569
L267.4852 192.9998
" />
</g></g>
<g style="fill:none; 
stroke:#840000; stroke-width:0.1524; stroke-opacity:1; 
stroke-linecap:round; stroke-linejoin:round;">
<text x="178.0022" y="193.8572"
textLength="9.3716" font-size="2.0000" lengthAdjust="spacingAndGlyphs"
text-anchor="start" opacity="0" stroke-opacity="0">Size: A4</text>
<g class="stroked-text"><desc>Size: A4</desc>
<path d="M178.3881 193.7217
L178.6024 193.7931
" />
<path d="M178.6024 193.7931
L178.9595 193.7931
" />
<path d="M178.9595 193.7931
L179.1024 193.7217
" />
<path d="M179.1024 193.7217
L179.1738 193.6502
" />
<path d="M179.1738 193.6502
L179.2452 193.5074
" />
<path d="M179.2452 193.5074
L179.2452 193.3645
" />
<path d="M179.2452 193.3645
L179.1738 193.2217
" />
<path d="M179.1738 193.2217
L179.1024 193.1502
" />
<path d="M179.1024 193.1502
L178.9595 193.0788
" />
<path d="M178.9595 193.0788
L178.6738 193.0074
" />
<path d="M178.6738 193.0074
L178.5309 192.9359
" />
<path d="M178.5309 192.9359
L178.4595 192.8645
" />
<path d="M178.4595 192.8645
L178.3881 192.7217
" />
<path d="M178.3881 192.7217
L178.3881 192.5788
" />
<path d="M178.3881 192.5788
L178.4595 192.4359
" />
<path d="M178.4595 192.4359
L178.5309 192.3645
" />
<path d="M178.5309 192.3645
L178.6738 192.2931
" />
<path d="M178.6738 192.2931
L179.0309 192.2931
" />
<path d="M179.0309 192.2931
L179.2452 192.3645
" />
<path d="M179.8881 193.7931
L179.8881 192.7931
" />
<path d="M179.8881 192.2931
L179.8167 192.3645
" />
<path d="M179.8167 192.3645
L179.8881 192.4359
" />
<path d="M179.8881 192.4359
L179.9595 192.3645
" />
<path d="M179.9595 192.3645
L179.8881 192.2931
" />
<path d="M179.8881 192.2931
L179.8881 192.4359
" />
<path d="M180.4595 192.7931
L181.2453 192.7931
" />
<path d="M181.2453 192.7931
L180.4595 193.7931
" />
<path d="M180.4595 193.7931
L181.2453 193.7931
" />
<path d="M182.3881 193.7217
L182.2453 193.7931
" />
<path d="M182.2453 193.7931
L181.9596 193.7931
" />
<path d="M181.9596 193.7931
L181.8167 193.7217
" />
<path d="M181.8167 193.7217
L181.7453 193.5788
" />
<path d="M181.7453 193.5788
L181.7453 193.0074
" />
<path d="M181.7453 193.0074
L181.8167 192.8645
" />
<path d="M181.8167 192.8645
L181.9596 192.7931
" />
<path d="M181.9596 192.7931
L182.2453 192.7931
" />
<path d="M182.2453 192.7931
L182.3881 192.8645
" />
<path d="M182.3881 192.8645
L182.4596 193.0074
" />
<path d="M182.4596 193.0074
L182.4596 193.1502
" />
<path d="M182.4596 193.1502
L181.7453 193.2931
" />
<path d="M183.1024 193.6502
L183.1738 193.7217
" />
<path d="M183.1738 193.7217
L183.1024 193.7931
" />
<path d="M183.1024 193.7931
L183.0310 193.7217
" />
<path d="M183.0310 193.7217
L183.1024 193.6502
" />
<path d="M183.1024 193.6502
L183.1024 193.7931
" />
<path d="M183.1024 192.8645
L183.1738 192.9359
" />
<path d="M183.1738 192.9359
L183.1024 193.0074
" />
<path d="M183.1024 193.0074
L183.0310 192.9359
" />
<path d="M183.0310 192.9359
L183.1024 192.8645
" />
<path d="M183.1024 192.8645
L183.1024 193.0074
" />
<path d="M184.8882 193.3645
L185.6025 193.3645
" />
<path d="M184.7453 193.7931
L185.2453 192.2931
" />
<path d="M185.2453 192.2931
L185.7453 193.7931
" />
<path d="M186.8882 192.7931
L186.8882 193.7931
" />
<path d="M186.5310 192.2217
L186.1739 193.2931
" />
<path d="M186.1739 193.2931
L187.1024 193.2931
" />
</g><text x="263.0022" y="196.6572"
textLength="8.5144" font-size="2.0000" lengthAdjust="spacingAndGlyphs"
text-anchor="start" opacity="0" stroke-opacity="0">Id: 1/5</text>
<g class="stroked-text"><desc>Id: 1/5</desc>
<path d="M263.4595 196.5931
L263.4595 195.0931
" />
<path d="M264.8167 196.5931
L264.8167 195.0931
" />
<path d="M264.8167 196.5217
L264.6738 196.5931
" />
<path d="M264.6738 196.5931
L264.3881 196.5931
" />
<path d="M264.3881 196.5931
L264.2452 196.5217
" />
<path d="M264.2452 196.5217
L264.1738 196.4502
" />
<path d="M264.1738 196.4502
L264.1024 196.3074
" />
<path d="M264.1024 196.3074
L264.1024 195.8788
" />
<path d="M264.1024 195.8788
L264.1738 195.7359
" />
<path d="M264.1738 195.7359
L264.2452 195.6645
" />
<path d="M264.2452 195.6645
L264.3881 195.5931
" />
<path d="M264.3881 195.5931
L264.6738 195.5931
" />
<path d="M264.6738 195.5931
L264.8167 195.6645
" />
<path d="M265.5309 196.4502
L265.6023 196.5217
" />
<path d="M265.6023 196.5217
L265.5309 196.5931
" />
<path d="M265.5309 196.5931
L265.4595 196.5217
" />
<path d="M265.4595 196.5217
L265.5309 196.4502
" />
<path d="M265.5309 196.4502
L265.5309 196.5931
" />
<path d="M265.5309 195.6645
L265.6023 195.7359
" />
<path d="M265.6023 195.7359
L265.5309 195.8074
" />
<path d="M265.5309 195.8074
L265.4595 195.7359
" />
<path d="M265.4595 195.7359
L265.5309 195.6645
" />
<path d="M265.5309 195.6645
L265.5309 195.8074
" />
<path d="M268.1738 196.5931
L267.3167 196.5931
" />
<path d="M267.7452 196.5931
L267.7452 195.0931
" />
<path d="M267.7452 195.0931
L267.6024 195.3074
" />
<path d="M267.6024 195.3074
L267.4595 195.4502
" />
<path d="M267.4595 195.4502
L267.3167 195.5217
" />
<path d="M269.8881 195.0217
L268.6024 196.9502
" />
<path d="M271.1024 195.0931
L270.3881 195.0931
" />
<path d="M270.3881 195.0931
L270.3167 195.8074
" />
<path d="M270.3167 195.8074
L270.3881 195.7359
" />
<path d="M270.3881 195.7359
L270.5310 195.6645
" />
<path d="M270.5310 195.6645
L270.8881 195.6645
" />
<path d="M270.8881 195.6645
L271.0310 195.7359
" />
<path d="M271.0310 195.7359
L271.1024 195.8074
" />
<path d="M271.1024 195.8074
L271.1738 195.9502
" />
<path d="M271.1738 195.9502
L271.1738 196.3074
" />
<path d="M271.1738 196.3074
L271.1024 196.4502
" />
<path d="M271.1024 196.4502
L271.0310 196.5217
" />
<path d="M271.0310 196.5217
L270.8881 196.5931
" />
<path d="M270.8881 196.5931
L270.5310 196.5931
" />
<path d="M270.5310 196.5931
L270.3881 196.5217
" />
<path d="M270.3881 196.5217
L270.3167 196.4502
" />
</g><path d="M177.0022 187.5072
L285.0022 187.5072
" />
</g>
<g style="fill:none; 
stroke:#840000; stroke-width:0.4000; stroke-opacity:1; 
stroke-linecap:round; stroke-linejoin:round;">
<text x="178.0022" y="190.3072"
textLength="9.6572" font-size="2.6666" lengthAdjust="spacingAndGlyphs"
text-anchor="start" opacity="0" stroke-opacity="0">Title: </text>
<g class="stroked-text"><desc>Title: </desc>
<path d="M178.6938 188.2116
L179.8367 188.2116
" />
<path d="M179.0153 190.2116
L179.2653 188.2116
" />
<path d="M180.2533 190.2116
L180.4200 188.8783
" />
<path d="M180.5033 188.2116
L180.3962 188.3068
" />
<path d="M180.3962 188.3068
L180.4795 188.4021
" />
<path d="M180.4795 188.4021
L180.5867 188.3068
" />
<path d="M180.5867 188.3068
L180.5033 188.2116
" />
<path d="M180.5033 188.2116
L180.4795 188.4021
" />
<path d="M181.0867 188.8783
L181.8486 188.8783
" />
<path d="M181.4557 188.2116
L181.2415 189.9259
" />
<path d="M181.2415 189.9259
L181.3129 190.1164
" />
<path d="M181.3129 190.1164
L181.4915 190.2116
" />
<path d="M181.4915 190.2116
L181.6819 190.2116
" />
<path d="M182.6344 190.2116
L182.4558 190.1164
" />
<path d="M182.4558 190.1164
L182.3844 189.9259
" />
<path d="M182.3844 189.9259
L182.5986 188.2116
" />
<path d="M184.1700 190.1164
L183.9677 190.2116
" />
<path d="M183.9677 190.2116
L183.5867 190.2116
" />
<path d="M183.5867 190.2116
L183.4081 190.1164
" />
<path d="M183.4081 190.1164
L183.3367 189.9259
" />
<path d="M183.3367 189.9259
L183.4320 189.1640
" />
<path d="M183.4320 189.1640
L183.5510 188.9735
" />
<path d="M183.5510 188.9735
L183.7534 188.8783
" />
<path d="M183.7534 188.8783
L184.1343 188.8783
" />
<path d="M184.1343 188.8783
L184.3129 188.9735
" />
<path d="M184.3129 188.9735
L184.3843 189.1640
" />
<path d="M184.3843 189.1640
L184.3605 189.3544
" />
<path d="M184.3605 189.3544
L183.3843 189.5449
" />
<path d="M185.1343 190.0211
L185.2177 190.1164
" />
<path d="M185.2177 190.1164
L185.1105 190.2116
" />
<path d="M185.1105 190.2116
L185.0272 190.1164
" />
<path d="M185.0272 190.1164
L185.1343 190.0211
" />
<path d="M185.1343 190.0211
L185.1105 190.2116
" />
<path d="M185.2653 188.9735
L185.3486 189.0687
" />
<path d="M185.3486 189.0687
L185.2415 189.1640
" />
<path d="M185.2415 189.1640
L185.1582 189.0687
" />
<path d="M185.1582 189.0687
L185.2653 188.9735
" />
<path d="M185.2653 188.9735
L185.2415 189.1640
" />
</g></g>
<g style="fill:none; 
stroke:#840000; stroke-width:0.1524; stroke-opacity:1; 
stroke-linecap:round; stroke-linejoin:round;">
<text x="178.0022" y="186.4572"
textLength="24.0143" font-size="2.0000" lengthAdjust="spacingAndGlyphs"
text-anchor="start" opacity="0" stroke-opacity="0">File: keeby.kicad_sch</text>
<g class="stroked-text"><desc>File: keeby.kicad_sch</desc>
<path d="M178.9595 185.6074
L178.4595 185.6074
" />
<path d="M178.4595 186.3931
L178.4595 184.8931
" />
<path d="M178.4595 184.8931
L179.1738 184.8931
" />
<path d="M179.7452 186.3931
L179.7452 185.3931
" />
<path d="M179.7452 184.8931
L179.6738 184.9645
" />
<path d="M179.6738 184.9645
L179.7452 185.0359
" />
<path d="M179.7452 185.0359
L179.8166 184.9645
" />
<path d="M179.8166 184.9645
L179.7452 184.8931
" />
<path d="M179.7452 184.8931
L179.7452 185.0359
" />
<path d="M180.6738 186.3931
L180.5309 186.3217
" />
<path d="M180.5309 186.3217
L180.4595 186.1788
" />
<path d="M180.4595 186.1788
L180.4595 184.8931
" />
<path d="M181.8166 186.3217
L181.6738 186.3931
" />
<path d="M181.6738 186.3931
L181.3881 186.3931
" />
<path d="M181.3881 186.3931
L181.2452 186.3217
" />
<path d="M181.2452 186.3217
L181.1738 186.1788
" />
<path d="M181.1738 186.1788
L181.1738 185.6074
" />
<path d="M181.1738 185.6074
L181.2452 185.4645
" />
<path d="M181.2452 185.4645
L181.3881 185.3931
" />
<path d="M181.3881 185.3931
L181.6738 185.3931
" />
<path d="M181.6738 185.3931
L181.8166 185.4645
" />
<path d="M181.8166 185.4645
L181.8881 185.6074
" />
<path d="M181.8881 185.6074
L181.8881 185.7502
" />
<path d="M181.8881 185.7502
L181.1738 185.8931
" />
<path d="M182.5309 186.2502
L182.6023 186.3217
" />
<path d="M182.6023 186.3217
L182.5309 186.3931
" />
<path d="M182.5309 186.3931
L182.4595 186.3217
" />
<path d="M182.4595 186.3217
L182.5309 186.2502
" />
<path d="M182.5309 186.2502
L182.5309 186.3931
" />
<path d="M182.5309 185.4645
L182.6023 185.5359
" />
<path d="M182.6023 185.5359
L182.5309 185.6074
" />
<path d="M182.5309 185.6074
L182.4595 185.5359
" />
<path d="M182.4595 185.5359
L182.5309 185.4645
" />
<path d="M182.5309 185.4645
L182.5309 185.6074
" />
<path d="M184.3881 186.3931
L184.3881 184.8931
" />
<path d="M184.5310 185.8217
L184.9595 186.3931
" />
<path d="M184.9595 185.3931
L184.3881 185.9645
" />
<path d="M186.1738 186.3217
L186.0310 186.3931
" />
<path d="M186.0310 186.3931
L185.7453 186.3931
" />
<path d="M185.7453 186.3931
L185.6024 186.3217
" />
<path d="M185.6024 186.3217
L185.5310 186.1788
" />
<path d="M185.5310 186.1788
L185.5310 185.6074
" />
<path d="M185.5310 185.6074
L185.6024 185.4645
" />
<path d="M185.6024 185.4645
L185.7453 185.3931
" />
<path d="M185.7453 185.3931
L186.0310 185.3931
" />
<path d="M186.0310 185.3931
L186.1738 185.4645
" />
<path d="M186.1738 185.4645
L186.2453 185.6074
" />
<path d="M186.2453 185.6074
L186.2453 185.7502
" />
<path d="M186.2453 185.7502
L185.5310 185.8931
" />
<path d="M187.4595 186.3217
L187.3167 186.3931
" />
<path d="M187.3167 186.3931
L187.0310 186.3931
" />
<path d="M187.0310 186.3931
L186.8881 186.3217
" />
<path d="M186.8881 186.3217
L186.8167 186.1788
" />
<path d="M186.8167 186.1788
L186.8167 185.6074
" />
<path d="M186.8167 185.6074
L186.8881 185.4645
" />
<path d="M186.8881 185.4645
L187.0310 185.3931
" />
<path d="M187.0310 185.3931
L187.3167 185.3931
" />
<path d="M187.3167 185.3931
L187.4595 185.4645
" />
<path d="M187.4595 185.4645
L187.5310 185.6074
" />
<path d="M187.5310 185.6074
L187.5310 185.7502
" />
<path d="M187.5310 185.7502
L186.8167 185.8931
" />
<path d="M188.1738 186.3931
L188.1738 184.8931
" />
<path d="M188.1738 185.4645
L188.3167 185.3931
" />
<path d="M188.3167 185.3931
L188.6024 185.3931
" />
<path d="M188.6024 185.3931
L188.7452 185.4645
" />
<path d="M188.7452 185.4645
L188.8167 185.5359
" />
<path d="M188.8167 185.5359
L188.8881 185.6788
" />
<path d="M188.8881 185.6788
L188.8881 186.1074
" />
<path d="M188.8881 186.1074
L188.8167 186.2502
" />
<path d="M188.8167 186.2502
L188.7452 186.3217
" />
<path d="M188.7452 186.3217
L188.6024 186.3931
" />
<path d="M188.6024 186.3931
L188.3167 186.3931
" />
<path d="M188.3167 186.3931
L188.1738 186.3217
" />
<path d="M189.3880 185.3931
L189.7452 186.3931
" />
<path d="M190.1023 185.3931
L189.7452 186.3931
" />
<path d="M189.7452 186.3931
L189.6023 186.7502
" />
<path d="M189.6023 186.7502
L189.5309 186.8217
" />
<path d="M189.5309 186.8217
L189.3880 186.8931
" />
<path d="M190.6738 186.2502
L190.7452 186.3217
" />
<path d="M190.7452 186.3217
L190.6738 186.3931
" />
<path d="M190.6738 186.3931
L190.6024 186.3217
" />
<path d="M190.6024 186.3217
L190.6738 186.2502
" />
<path d="M190.6738 186.2502
L190.6738 186.3931
" />
<path d="M191.3881 186.3931
L191.3881 184.8931
" />
<path d="M191.5310 185.8217
L191.9595 186.3931
" />
<path d="M191.9595 185.3931
L191.3881 185.9645
" />
<path d="M192.6024 186.3931
L192.6024 185.3931
" />
<path d="M192.6024 184.8931
L192.5310 184.9645
" />
<path d="M192.5310 184.9645
L192.6024 185.0359
" />
<path d="M192.6024 185.0359
L192.6738 184.9645
" />
<path d="M192.6738 184.9645
L192.6024 184.8931
" />
<path d="M192.6024 184.8931
L192.6024 185.0359
" />
<path d="M193.9596 186.3217
L193.8167 186.3931
" />
<path d="M193.8167 186.3931
L193.5310 186.3931
" />
<path d="M193.5310 186.3931
L193.3881 186.3217
" />
<path d="M193.3881 186.3217
L193.3167 186.2502
" />
<path d="M193.3167 186.2502
L193.2453 186.1074
" />
<path d="M193.2453 186.1074
L193.2453 185.6788
" />
<path d="M193.2453 185.6788
L193.3167 185.5359
" />
<path d="M193.3167 185.5359
L193.3881 185.4645
" />
<path d="M193.3881 185.4645
L193.5310 185.3931
" />
<path d="M193.5310 185.3931
L193.8167 185.3931
" />
<path d="M193.8167 185.3931
L193.9596 185.4645
" />
<path d="M195.2453 186.3931
L195.2453 185.6074
" />
<path d="M195.2453 185.6074
L195.1738 185.4645
" />
<path d="M195.1738 185.4645
L195.0310 185.3931
" />
<path d="M195.0310 185.3931
L194.7453 185.3931
" />
<path d="M194.7453 185.3931
L194.6024 185.4645
" />
<path d="M195.2453 186.3217
L195.1024 186.3931
" />
<path d="M195.1024 186.3931
L194.7453 186.3931
" />
<path d="M194.7453 186.3931
L194.6024 186.3217
" />
<path d="M194.6024 186.3217
L194.5310 186.1788
" />
<path d="M194.5310 186.1788
L194.5310 186.0359
" />
<path d="M194.5310 186.0359
L194.6024 185.8931
" />
<path d="M194.6024 185.8931
L194.7453 185.8217
" />
<path d="M194.7453 185.8217
L195.1024 185.8217
" />
<path d="M195.1024 185.8217
L195.2453 185.7502
" />
<path d="M196.6024 186.3931
L196.6024 184.8931
" />
<path d="M196.6024 186.3217
L196.4595 186.3931
" />
<path d="M196.4595 186.3931
L196.1738 186.3931
" />
<path d="M196.1738 186.3931
L196.0309 186.3217
" />
<path d="M196.0309 186.3217
L195.9595 186.2502
" />
<path d="M195.9595 186.2502
L195.8881 186.1074
" />
<path d="M195.8881 186.1074
L195.8881 185.6788
" />
<path d="M195.8881 185.6788
L195.9595 185.5359
" />
<path d="M195.9595 185.5359
L196.0309 185.4645
" />
<path d="M196.0309 185.4645
L196.1738 185.3931
" />
<path d="M196.1738 185.3931
L196.4595 185.3931
" />
<path d="M196.4595 185.3931
L196.6024 185.4645
" />
<path d="M196.9595 186.5359
L198.1023 186.5359
" />
<path d="M198.3881 186.3217
L198.5309 186.3931
" />
<path d="M198.5309 186.3931
L198.8166 186.3931
" />
<path d="M198.8166 186.3931
L198.9595 186.3217
" />
<path d="M198.9595 186.3217
L199.0309 186.1788
" />
<path d="M199.0309 186.1788
L199.0309 186.1074
" />
<path d="M199.0309 186.1074
L198.9595 185.9645
" />
<path d="M198.9595 185.9645
L198.8166 185.8931
" />
<path d="M198.8166 185.8931
L198.6024 185.8931
" />
<path d="M198.6024 185.8931
L198.4595 185.8217
" />
<path d="M198.4595 185.8217
L198.3881 185.6788
" />
<path d="M198.3881 185.6788
L198.3881 185.6074
" />
<path d="M198.3881 185.6074
L198.4595 185.4645
" />
<path d="M198.4595 185.4645
L198.6024 185.3931
" />
<path d="M198.6024 185.3931
L198.8166 185.3931
" />
<path d="M198.8166 185.3931
L198.9595 185.4645
" />
<path d="M200.3167 186.3217
L200.1738 186.3931
" />
<path d="M200.1738 186.3931
L199.8881 186.3931
" />
<path d="M199.8881 186.3931
L199.7452 186.3217
" />
<path d="M199.7452 186.3217
L199.6738 186.2502
" />
<path d="M199.6738 186.2502
L199.6024 186.1074
" />
<path d="M199.6024 186.1074
L199.6024 185.6788
" />
<path d="M199.6024 185.6788
L199.6738 185.5359
" />
<path d="M199.6738 185.5359
L199.7452 185.4645
" />
<path d="M199.7452 185.4645
L199.8881 185.3931
" />
<path d="M199.8881 185.3931
L200.1738 185.3931
" />
<path d="M200.1738 185.3931
L200.3167 185.4645
" />
<path d="M200.9595 186.3931
L200.9595 184.8931
" />
<path d="M201.6024 186.3931
L201.6024 185.6074
" />
<path d="M201.6024 185.6074
L201.5309 185.4645
" />
<path d="M201.5309 185.4645
L201.3881 185.3931
" />
<path d="M201.3881 185.3931
L201.1738 185.3931
" />
<path d="M201.1738 185.3931
L201.0309 185.4645
" />
<path d="M201.0309 185.4645
L200.9595 185.5359
" />
</g><path d="M177.0022 181.5072
L285.0022 181.5072
" />
<text x="178.0022" y="183.7572"
textLength="9.8000" font-size="2.0000" lengthAdjust="spacingAndGlyphs"
text-anchor="start" opacity="0" stroke-opacity="0">Sheet: /</text>
<g class="stroked-text"><desc>Sheet: /</desc>
<path d="M178.3881 183.6217
L178.6024 183.6931
" />
<path d="M178.6024 183.6931
L178.9595 183.6931
" />
<path d="M178.9595 183.6931
L179.1024 183.6217
" />
<path d="M179.1024 183.6217
L179.1738 183.5502
" />
<path d="M179.1738 183.5502
L179.2452 183.4074
" />
<path d="M179.2452 183.4074
L179.2452 183.2645
" />
<path d="M179.2452 183.2645
L179.1738 183.1217
" />
<path d="M179.1738 183.1217
L179.1024 183.0502
" />
<path d="M179.1024 183.0502
L178.9595 182.9788
" />
<path d="M178.9595 182.9788
L178.6738 182.9074
" />
<path d="M178.6738 182.9074
L178.5309 182.8359
" />
<path d="M178.5309 182.8359
L178.4595 182.7645
" />
<path d="M178.4595 182.7645
L178.3881 182.6217
" />
<path d="M178.3881 182.6217
L178.3881 182.4788
" />
<path d="M178.3881 182.4788
L178.4595 182.3359
" />
<path d="M178.4595 182.3359
L178.5309 182.2645
" />
<path d="M178.5309 182.2645
L178.6738 182.1931
" />
<path d="M178.6738 182.1931
L179.0309 182.1931
" />
<path d="M179.0309 182.1931
L179.2452 182.2645
" />
<path d="M179.8881 183.6931
L179.8881 182.1931
" />
<path d="M180.5310 183.6931
L180.5310 182.9074
" />
<path d="M180.5310 182.9074
L180.4595 182.7645
" />
<path d="M180.4595 182.7645
L180.3167 182.6931
" />
<path d="M180.3167 182.6931
L180.1024 182.6931
" />
<path d="M180.1024 182.6931
L179.9595 182.7645
" />
<path d="M179.9595 182.7645
L179.8881 182.8359
" />
<path d="M181.8166 183.6217
L181.6738 183.6931
" />
<path d="M181.6738 183.6931
L181.3881 183.6931
" />
<path d="M181.3881 183.6931
L181.2452 183.6217
" />
<path d="M181.2452 183.6217
L181.1738 183.4788
" />
<path d="M181.1738 183.4788
L181.1738 182.9074
" />
<path d="M181.1738 182.9074
L181.2452 182.7645
" />
<path d="M181.2452 182.7645
L181.3881 182.6931
" />
<path d="M181.3881 182.6931
L181.6738 182.6931
" />
<path d="M181.6738 182.6931
L181.8166 182.7645
" />
<path d="M181.8166 182.7645
L181.8881 182.9074
" />
<path d="M181.8881 182.9074
L181.8881 183.0502
" />
<path d="M181.8881 183.0502
L181.1738 183.1931
" />
<path d="M183.1023 183.6217
L182.9595 183.6931
" />
<path d="M182.9595 183.6931
L182.6738 183.6931
" />
<path d="M182.6738 183.6931
L182.5309 183.6217
" />
<path d="M182.5309 183.6217
L182.4595 183.4788
" />
<path d="M182.4595 183.4788
L182.4595 182.9074
" />
<path d="M182.4595 182.9074
L182.5309 182.7645
" />
<path d="M182.5309 182.7645
L182.6738 182.6931
" />
<path d="M182.6738 182.6931
L182.9595 182.6931
" />
<path d="M182.9595 182.6931
L183.1023 182.7645
" />
<path d="M183.1023 182.7645
L183.1738 182.9074
" />
<path d="M183.1738 182.9074
L183.1738 183.0502
" />
<path d="M183.1738 183.0502
L182.4595 183.1931
" />
<path d="M183.6023 182.6931
L184.1737 182.6931
" />
<path d="M183.8166 182.1931
L183.8166 183.4788
" />
<path d="M183.8166 183.4788
L183.8880 183.6217
" />
<path d="M183.8880 183.6217
L184.0309 183.6931
" />
<path d="M184.0309 183.6931
L184.1737 183.6931
" />
<path d="M184.6737 183.5502
L184.7451 183.6217
" />
<path d="M184.7451 183.6217
L184.6737 183.6931
" />
<path d="M184.6737 183.6931
L184.6023 183.6217
" />
<path d="M184.6023 183.6217
L184.6737 183.5502
" />
<path d="M184.6737 183.5502
L184.6737 183.6931
" />
<path d="M184.6737 182.7645
L184.7451 182.8359
" />
<path d="M184.7451 182.8359
L184.6737 182.9074
" />
<path d="M184.6737 182.9074
L184.6023 182.8359
" />
<path d="M184.6023 182.8359
L184.6737 182.7645
" />
<path d="M184.6737 182.7645
L184.6737 182.9074
" />
<path d="M187.6023 182.1217
L186.3166 184.0502
" />
</g></g>
<g style="fill:none; 
stroke:#840000; stroke-width:0.3000; stroke-opacity:1; 
stroke-linecap:round; stroke-linejoin:round;">
<text x="178.0022" y="180.7572"
textLength="0.9000" font-size="2.0000" lengthAdjust="spacingAndGlyphs"
text-anchor="start" opacity="0" stroke-opacity="0"></text>
<g class="stroked-text"><desc></desc>
</g></g>
<g style="fill:none; 
stroke:#840000; stroke-width:0.1524; stroke-opacity:1; 
stroke-linecap:round; stroke-linejoin:round;">
<text x="178.0022" y="177.7572"
textLength="0.4572" font-size="2.0000" lengthAdjust="spacingAndGlyphs"
text-anchor="start" opacity="0" stroke-opacity="0"></text>
<g class="stroked-text"><desc></desc>
</g><text x="178.0022" y="174.7572"
textLength="0.4572" font-size="2.0000" lengthAdjust="spacingAndGlyphs"
text-anchor="start" opacity="0" stroke-opacity="0"></text>
<g class="stroked-text"><desc></desc>
</g><text x="178.0022" y="171.7572"
textLength="0.4572" font-size="2.0000" lengthAdjust="spacingAndGlyphs"
text-anchor="start" opacity="0" stroke-opacity="0"></text>
<g class="stroked-text"><desc></desc>
</g><text x="178.0022" y="168.7572"
textLength="0.4572" font-size="2.0000" lengthAdjust="spacingAndGlyphs"
text-anchor="start" opacity="0" stroke-opacity="0"></text>
<g class="stroked-text"><desc></desc>
</g><path d="M197.0022 191.5072
L197.0022 194.5072
" />
<path d="M261.0022 191.5072
L261.0022 198.0072
" />
<rect x="40.640000" y="38.100000" width="90.170000" height="49.530000" rx="0.000000" />
<rect x="158.750000" y="38.100000" width="90.424000" height="48.260000" rx="0.000000" />
<rect x="40.640000" y="38.100000" width="90.170000" height="49.530000" rx="0.000000" />
</g>
<g style="fill:none; 
stroke:#006464; stroke-width:0.1524; stroke-opacity:1; 
stroke-linecap:round; stroke-linejoin:round;">
<text x="40.6400" y="37.3884"
textLength="3.4084" font-size="1.6933" lengthAdjust="spacingAndGlyphs"
text-anchor="start" opacity="0" stroke-opacity="0">left</text>
<g class="stroked-text"><desc>left</desc>
<path d="M41.2240 37.2249
L41.1030 37.1645
" />
<path d="M41.1030 37.1645
L41.0425 37.0435
" />
<path d="M41.0425 37.0435
L41.0425 35.9549
" />
<path d="M42.1915 37.1645
L42.0706 37.2249
" />
<path d="M42.0706 37.2249
L41.8287 37.2249
" />
<path d="M41.8287 37.2249
L41.7077 37.1645
" />
<path d="M41.7077 37.1645
L41.6473 37.0435
" />
<path d="M41.6473 37.0435
L41.6473 36.5597
" />
<path d="M41.6473 36.5597
L41.7077 36.4387
" />
<path d="M41.7077 36.4387
L41.8287 36.3783
" />
<path d="M41.8287 36.3783
L42.0706 36.3783
" />
<path d="M42.0706 36.3783
L42.1915 36.4387
" />
<path d="M42.1915 36.4387
L42.2520 36.5597
" />
<path d="M42.2520 36.5597
L42.2520 36.6806
" />
<path d="M42.2520 36.6806
L41.6473 36.8016
" />
<path d="M42.6149 36.3783
L43.0987 36.3783
" />
<path d="M42.7963 37.2249
L42.7963 36.1364
" />
<path d="M42.7963 36.1364
L42.8568 36.0154
" />
<path d="M42.8568 36.0154
L42.9778 35.9549
" />
<path d="M42.9778 35.9549
L43.0987 35.9549
" />
<path d="M43.3406 36.3783
L43.8244 36.3783
" />
<path d="M43.5220 35.9549
L43.5220 37.0435
" />
<path d="M43.5220 37.0435
L43.5825 37.1645
" />
<path d="M43.5825 37.1645
L43.7035 37.2249
" />
<path d="M43.7035 37.2249
L43.8244 37.2249
" />
</g></g>
<g style="fill:none; 
stroke:#725600; stroke-width:0.1524; stroke-opacity:1; 
stroke-linecap:round; stroke-linejoin:round;">
<text x="40.6400" y="89.4846"
textLength="18.7693" font-size="1.6933" lengthAdjust="spacingAndGlyphs"
text-anchor="start" opacity="0" stroke-opacity="0">File: half.kicad_sch</text>
<g class="stroked-text"><desc>File: half.kicad_sch</desc>
<path d="M41.4659 88.8718
L41.0425 88.8718
" />
<path d="M41.0425 89.5370
L41.0425 88.2670
" />
<path d="M41.0425 88.2670
L41.6473 88.2670
" />
<path d="M42.1311 89.5370
L42.1311 88.6904
" />
<path d="M42.1311 88.2670
L42.0707 88.3275
" />
<path d="M42.0707 88.3275
L42.1311 88.3880
" />
<path d="M42.1311 88.3880
L42.1916 88.3275
" />
<path d="M42.1916 88.3275
L42.1311 88.2670
" />
<path d="M42.1311 88.2670
L42.1311 88.3880
" />
<path d="M42.9174 89.5370
L42.7964 89.4766
" />
<path d="M42.7964 89.4766
L42.7359 89.3556
" />
<path d="M42.7359 89.3556
L42.7359 88.2670
" />
<path d="M43.8849 89.4766
L43.7640 89.5370
" />
<path d="M43.7640 89.5370
L43.5221 89.5370
" />
<path d="M43.5221 89.5370
L43.4011 89.4766
" />
<path d="M43.4011 89.4766
L43.3407 89.3556
" />
<path d="M43.3407 89.3556
L43.3407 88.8718
" />
<path d="M43.3407 88.8718
L43.4011 88.7508
" />
<path d="M43.4011 88.7508
L43.5221 88.6904
" />
<path d="M43.5221 88.6904
L43.7640 88.6904
" />
<path d="M43.7640 88.6904
L43.8849 88.7508
" />
<path d="M43.8849 88.7508
L43.9454 88.8718
" />
<path d="M43.9454 88.8718
L43.9454 88.9927
" />
<path d="M43.9454 88.9927
L43.3407 89.1137
" />
<path d="M44.4897 89.4161
L44.5502 89.4766
" />
<path d="M44.5502 89.4766
L44.4897 89.5370
" />
<path d="M44.4897 89.5370
L44.4293 89.4766
" />
<path d="M44.4293 89.4766
L44.4897 89.4161
" />
<path d="M44.4897 89.4161
L44.4897 89.5370
" />
<path d="M44.4897 88.7508
L44.5502 88.8113
" />
<path d="M44.5502 88.8113
L44.4897 88.8718
" />
<path d="M44.4897 88.8718
L44.4293 88.8113
" />
<path d="M44.4293 88.8113
L44.4897 88.7508
" />
<path d="M44.4897 88.7508
L44.4897 88.8718
" />
<path d="M46.0621 89.5370
L46.0621 88.2670
" />
<path d="M46.6064 89.5370
L46.6064 88.8718
" />
<path d="M46.6064 88.8718
L46.5459 88.7508
" />
<path d="M46.5459 88.7508
L46.4250 88.6904
" />
<path d="M46.4250 88.6904
L46.2436 88.6904
" />
<path d="M46.2436 88.6904
L46.1226 88.7508
" />
<path d="M46.1226 88.7508
L46.0621 88.8113
" />
<path d="M47.7554 89.5370
L47.7554 88.8718
" />
<path d="M47.7554 88.8718
L47.6949 88.7508
" />
<path d="M47.6949 88.7508
L47.5740 88.6904
" />
<path d="M47.5740 88.6904
L47.3321 88.6904
" />
<path d="M47.3321 88.6904
L47.2111 88.7508
" />
<path d="M47.7554 89.4766
L47.6345 89.5370
" />
<path d="M47.6345 89.5370
L47.3321 89.5370
" />
<path d="M47.3321 89.5370
L47.2111 89.4766
" />
<path d="M47.2111 89.4766
L47.1507 89.3556
" />
<path d="M47.1507 89.3556
L47.1507 89.2346
" />
<path d="M47.1507 89.2346
L47.2111 89.1137
" />
<path d="M47.2111 89.1137
L47.3321 89.0532
" />
<path d="M47.3321 89.0532
L47.6345 89.0532
" />
<path d="M47.6345 89.0532
L47.7554 88.9927
" />
<path d="M48.5416 89.5370
L48.4206 89.4766
" />
<path d="M48.4206 89.4766
L48.3601 89.3556
" />
<path d="M48.3601 89.3556
L48.3601 88.2670
" />
<path d="M48.8439 88.6904
L49.3277 88.6904
" />
<path d="M49.0253 89.5370
L49.0253 88.4485
" />
<path d="M49.0253 88.4485
L49.0858 88.3275
" />
<path d="M49.0858 88.3275
L49.2068 88.2670
" />
<path d="M49.2068 88.2670
L49.3277 88.2670
" />
<path d="M49.7510 89.4161
L49.8115 89.4766
" />
<path d="M49.8115 89.4766
L49.7510 89.5370
" />
<path d="M49.7510 89.5370
L49.6906 89.4766
" />
<path d="M49.6906 89.4766
L49.7510 89.4161
" />
<path d="M49.7510 89.4161
L49.7510 89.5370
" />
<path d="M50.3558 89.5370
L50.3558 88.2670
" />
<path d="M50.4768 89.0532
L50.8396 89.5370
" />
<path d="M50.8396 88.6904
L50.3558 89.1742
" />
<path d="M51.3839 89.5370
L51.3839 88.6904
" />
<path d="M51.3839 88.2670
L51.3235 88.3275
" />
<path d="M51.3235 88.3275
L51.3839 88.3880
" />
<path d="M51.3839 88.3880
L51.4444 88.3275
" />
<path d="M51.4444 88.3275
L51.3839 88.2670
" />
<path d="M51.3839 88.2670
L51.3839 88.3880
" />
<path d="M52.5330 89.4766
L52.4121 89.5370
" />
<path d="M52.4121 89.5370
L52.1702 89.5370
" />
<path d="M52.1702 89.5370
L52.0492 89.4766
" />
<path d="M52.0492 89.4766
L51.9887 89.4161
" />
<path d="M51.9887 89.4161
L51.9283 89.2951
" />
<path d="M51.9283 89.2951
L51.9283 88.9323
" />
<path d="M51.9283 88.9323
L51.9887 88.8113
" />
<path d="M51.9887 88.8113
L52.0492 88.7508
" />
<path d="M52.0492 88.7508
L52.1702 88.6904
" />
<path d="M52.1702 88.6904
L52.4121 88.6904
" />
<path d="M52.4121 88.6904
L52.5330 88.7508
" />
<path d="M53.6216 89.5370
L53.6216 88.8718
" />
<path d="M53.6216 88.8718
L53.5611 88.7508
" />
<path d="M53.5611 88.7508
L53.4402 88.6904
" />
<path d="M53.4402 88.6904
L53.1983 88.6904
" />
<path d="M53.1983 88.6904
L53.0773 88.7508
" />
<path d="M53.6216 89.4766
L53.5007 89.5370
" />
<path d="M53.5007 89.5370
L53.1983 89.5370
" />
<path d="M53.1983 89.5370
L53.0773 89.4766
" />
<path d="M53.0773 89.4766
L53.0169 89.3556
" />
<path d="M53.0169 89.3556
L53.0169 89.2346
" />
<path d="M53.0169 89.2346
L53.0773 89.1137
" />
<path d="M53.0773 89.1137
L53.1983 89.0532
" />
<path d="M53.1983 89.0532
L53.5007 89.0532
" />
<path d="M53.5007 89.0532
L53.6216 88.9927
" />
<path d="M54.7706 89.5370
L54.7706 88.2670
" />
<path d="M54.7706 89.4766
L54.6497 89.5370
" />
<path d="M54.6497 89.5370
L54.4078 89.5370
" />
<path d="M54.4078 89.5370
L54.2868 89.4766
" />
<path d="M54.2868 89.4766
L54.2263 89.4161
" />
<path d="M54.2263 89.4161
L54.1659 89.2951
" />
<path d="M54.1659 89.2951
L54.1659 88.9323
" />
<path d="M54.1659 88.9323
L54.2263 88.8113
" />
<path d="M54.2263 88.8113
L54.2868 88.7508
" />
<path d="M54.2868 88.7508
L54.4078 88.6904
" />
<path d="M54.4078 88.6904
L54.6497 88.6904
" />
<path d="M54.6497 88.6904
L54.7706 88.7508
" />
<path d="M55.0730 89.6580
L56.0406 89.6580
" />
<path d="M56.2825 89.4766
L56.4034 89.5370
" />
<path d="M56.4034 89.5370
L56.6453 89.5370
" />
<path d="M56.6453 89.5370
L56.7663 89.4766
" />
<path d="M56.7663 89.4766
L56.8267 89.3556
" />
<path d="M56.8267 89.3556
L56.8267 89.2951
" />
<path d="M56.8267 89.2951
L56.7663 89.1742
" />
<path d="M56.7663 89.1742
L56.6453 89.1137
" />
<path d="M56.6453 89.1137
L56.4639 89.1137
" />
<path d="M56.4639 89.1137
L56.3429 89.0532
" />
<path d="M56.3429 89.0532
L56.2825 88.9323
" />
<path d="M56.2825 88.9323
L56.2825 88.8718
" />
<path d="M56.2825 88.8718
L56.3429 88.7508
" />
<path d="M56.3429 88.7508
L56.4639 88.6904
" />
<path d="M56.4639 88.6904
L56.6453 88.6904
" />
<path d="M56.6453 88.6904
L56.7663 88.7508
" />
<path d="M57.9153 89.4766
L57.7944 89.5370
" />
<path d="M57.7944 89.5370
L57.5525 89.5370
" />
<path d="M57.5525 89.5370
L57.4315 89.4766
" />
<path d="M57.4315 89.4766
L57.3710 89.4161
" />
<path d="M57.3710 89.4161
L57.3106 89.2951
" />
<path d="M57.3106 89.2951
L57.3106 88.9323
" />
<path d="M57.3106 88.9323
L57.3710 88.8113
" />
<path d="M57.3710 88.8113
L57.4315 88.7508
" />
<path d="M57.4315 88.7508
L57.5525 88.6904
" />
<path d="M57.5525 88.6904
L57.7944 88.6904
" />
<path d="M57.7944 88.6904
L57.9153 88.7508
" />
<path d="M58.4596 89.5370
L58.4596 88.2670
" />
<path d="M59.0039 89.5370
L59.0039 88.8718
" />
<path d="M59.0039 88.8718
L58.9434 88.7508
" />
<path d="M58.9434 88.7508
L58.8225 88.6904
" />
<path d="M58.8225 88.6904
L58.6411 88.6904
" />
<path d="M58.6411 88.6904
L58.5201 88.7508
" />
<path d="M58.5201 88.7508
L58.4596 88.8113
" />
</g></g>
<g style="fill:none; 
stroke:#840000; stroke-width:0.1524; stroke-opacity:1; 
stroke-linecap:round; stroke-linejoin:round;">
<rect x="158.750000" y="38.100000" width="90.424000" height="48.260000" rx="0.000000" />
</g>
<g style="fill:none; 
stroke:#006464; stroke-width:0.1524; stroke-opacity:1; 
stroke-linecap:round; stroke-linejoin:round;">
<text x="158.7500" y="37.3884"
textLength="4.6179" font-size="1.6933" lengthAdjust="spacingAndGlyphs"
text-anchor="start" opacity="0" stroke-opacity="0">right</text>
<g class="stroked-text"><desc>right</desc>
<path d="M159.1525 37.2249
L159.1525 36.3783
" />
<path d="M159.1525 36.6202
L159.2130 36.4992
" />
<path d="M159.2130 36.4992
L159.2735 36.4387
" />
<path d="M159.2735 36.4387
L159.3944 36.3783
" />
<path d="M159.3944 36.3783
L159.5154 36.3783
" />
<path d="M159.9387 37.2249
L159.9387 36.3783
" />
<path d="M159.9387 35.9549
L159.8783 36.0154
" />
<path d="M159.8783 36.0154
L159.9387 36.0759
" />
<path d="M159.9387 36.0759
L159.9992 36.0154
" />
<path d="M159.9992 36.0154
L159.9387 35.9549
" />
<path d="M159.9387 35.9549
L159.9387 36.0759
" />
<path d="M161.0878 36.3783
L161.0878 37.4064
" />
<path d="M161.0878 37.4064
L161.0273 37.5273
" />
<path d="M161.0273 37.5273
L160.9669 37.5878
" />
<path d="M160.9669 37.5878
L160.8459 37.6483
" />
<path d="M160.8459 37.6483
L160.6645 37.6483
" />
<path d="M160.6645 37.6483
L160.5435 37.5878
" />
<path d="M161.0878 37.1645
L160.9669 37.2249
" />
<path d="M160.9669 37.2249
L160.7250 37.2249
" />
<path d="M160.7250 37.2249
L160.6040 37.1645
" />
<path d="M160.6040 37.1645
L160.5435 37.1040
" />
<path d="M160.5435 37.1040
L160.4831 36.9830
" />
<path d="M160.4831 36.9830
L160.4831 36.6202
" />
<path d="M160.4831 36.6202
L160.5435 36.4992
" />
<path d="M160.5435 36.4992
L160.6040 36.4387
" />
<path d="M160.6040 36.4387
L160.7250 36.3783
" />
<path d="M160.7250 36.3783
L160.9669 36.3783
" />
<path d="M160.9669 36.3783
L161.0878 36.4387
" />
<path d="M161.6925 37.2249
L161.6925 35.9549
" />
<path d="M162.2368 37.2249
L162.2368 36.5597
" />
<path d="M162.2368 36.5597
L162.1763 36.4387
" />
<path d="M162.1763 36.4387
L162.0554 36.3783
" />
<path d="M162.0554 36.3783
L161.8740 36.3783
" />
<path d="M161.8740 36.3783
L161.7530 36.4387
" />
<path d="M161.7530 36.4387
L161.6925 36.4992
" />
<path d="M162.6601 36.3783
L163.1439 36.3783
" />
<path d="M162.8415 35.9549
L162.8415 37.0435
" />
<path d="M162.8415 37.0435
L162.9020 37.1645
" />
<path d="M162.9020 37.1645
L163.0230 37.2249
" />
<path d="M163.0230 37.2249
L163.1439 37.2249
" />
</g></g>
<g style="fill:none; 
stroke:#725600; stroke-width:0.1524; stroke-opacity:1; 
stroke-linecap:round; stroke-linejoin:round;">
<text x="158.7500" y="88.2146"
textLength="18.7693" font-size="1.6933" lengthAdjust="spacingAndGlyphs"
text-anchor="start" opacity="0" stroke-opacity="0">File: half.kicad_sch</text>
<g class="stroked-text"><desc>File: half.kicad_sch</desc>
<path d="M159.5759 87.6018
L159.1525 87.6018
" />
<path d="M159.1525 88.2670
L159.1525 86.9970
" />
<path d="M159.1525 86.9970
L159.7573 86.9970
" />
<path d="M160.2411 88.2670
L160.2411 87.4204
" />
<path d="M160.2411 86.9970
L160.1807 87.0575
" />
<path d="M160.1807 87.0575
L160.2411 87.1180
" />
<path d="M160.2411 87.1180
L160.3016 87.0575
" />
<path d="M160.3016 87.0575
L160.2411 86.9970
" />
<path d="M160.2411 86.9970
L160.2411 87.1180
" />
<path d="M161.0274 88.2670
L160.9064 88.2066
" />
<path d="M160.9064 88.2066
L160.8459 88.0856
" />
<path d="M160.8459 88.0856
L160.8459 86.9970
" />
<path d="M161.9949 88.2066
L161.8740 88.2670
" />
<path d="M161.8740 88.2670
L161.6321 88.2670
" />
<path d="M161.6321 88.2670
L161.5111 88.2066
" />
<path d="M161.5111 88.2066
L161.4507 88.0856
" />
<path d="M161.4507 88.0856
L161.4507 87.6018
" />
<path d="M161.4507 87.6018
L161.5111 87.4808
" />
<path d="M161.5111 87.4808
L161.6321 87.4204
" />
<path d="M161.6321 87.4204
L161.8740 87.4204
" />
<path d="M161.8740 87.4204
L161.9949 87.4808
" />
<path d="M161.9949 87.4808
L162.0554 87.6018
" />
<path d="M162.0554 87.6018
L162.0554 87.7227
" />
<path d="M162.0554 87.7227
L161.4507 87.8437
" />
<path d="M162.5997 88.1461
L162.6602 88.2066
" />
<path d="M162.6602 88.2066
L162.5997 88.2670
" />
<path d="M162.5997 88.2670
L162.5393 88.2066
" />
<path d="M162.5393 88.2066
L162.5997 88.1461
" />
<path d="M162.5997 88.1461
L162.5997 88.2670
" />
<path d="M162.5997 87.4808
L162.6602 87.5413
" />
<path d="M162.6602 87.5413
L162.5997 87.6018
" />
<path d="M162.5997 87.6018
L162.5393 87.5413
" />
<path d="M162.5393 87.5413
L162.5997 87.4808
" />
<path d="M162.5997 87.4808
L162.5997 87.6018
" />
<path d="M164.1721 88.2670
L164.1721 86.9970
" />
<path d="M164.7164 88.2670
L164.7164 87.6018
" />
<path d="M164.7164 87.6018
L164.6559 87.4808
" />
<path d="M164.6559 87.4808
L164.5350 87.4204
" />
<path d="M164.5350 87.4204
L164.3536 87.4204
" />
<path d="M164.3536 87.4204
L164.2326 87.4808
" />
<path d="M164.2326 87.4808
L164.1721 87.5413
" />
<path d="M165.8654 88.2670
L165.8654 87.6018
" />
<path d="M165.8654 87.6018
L165.8049 87.4808
" />
<path d="M165.8049 87.4808
L165.6840 87.4204
" />
<path d="M165.6840 87.4204
L165.4421 87.4204
" />
<path d="M165.4421 87.4204
L165.3211 87.4808
" />
<path d="M165.8654 88.2066
L165.7445 88.2670
" />
<path d="M165.7445 88.2670
L165.4421 88.2670
" />
<path d="M165.4421 88.2670
L165.3211 88.2066
" />
<path d="M165.3211 88.2066
L165.2607 88.0856
" />
<path d="M165.2607 88.0856
L165.2607 87.9646
" />
<path d="M165.2607 87.9646
L165.3211 87.8437
" />
<path d="M165.3211 87.8437
L165.4421 87.7832
" />
<path d="M165.4421 87.7832
L165.7445 87.7832
" />
<path d="M165.7445 87.7832
L165.8654 87.7227
" />
<path d="M166.6516 88.2670
L166.5306 88.2066
" />
<path d="M166.5306 88.2066
L166.4701 88.0856
" />
<path d="M166.4701 88.0856
L166.4701 86.9970
" />
<path d="M166.9539 87.4204
L167.4377 87.4204
" />
<path d="M167.1353 88.2670
L167.1353 87.1785
" />
<path d="M167.1353 87.1785
L167.1958 87.0575
" />
<path d="M167.1958 87.0575
L167.3168 86.9970
" />
<path d="M167.3168 86.9970
L167.4377 86.9970
" />
<path d="M167.8610 88.1461
L167.9215 88.2066
" />
<path d="M167.9215 88.2066
L167.8610 88.2670
" />
<path d="M167.8610 88.2670
L167.8006 88.2066
" />
<path d="M167.8006 88.2066
L167.8610 88.1461
" />
<path d="M167.8610 88.1461
L167.8610 88.2670
" />
<path d="M168.4658 88.2670
L168.4658 86.9970
" />
<path d="M168.5868 87.7832
L168.9496 88.2670
" />
<path d="M168.9496 87.4204
L168.4658 87.9042
" />
<path d="M169.4939 88.2670
L169.4939 87.4204
" />
<path d="M169.4939 86.9970
L169.4335 87.0575
" />
<path d="M169.4335 87.0575
L169.4939 87.1180
" />
<path d="M169.4939 87.1180
L169.5544 87.0575
" />
<path d="M169.5544 87.0575
L169.4939 86.9970
" />
<path d="M169.4939 86.9970
L169.4939 87.1180
" />
<path d="M170.6430 88.2066
L170.5221 88.2670
" />
<path d="M170.5221 88.2670
L170.2802 88.2670
" />
<path d="M170.2802 88.2670
L170.1592 88.2066
" />
<path d="M170.1592 88.2066
L170.0987 88.1461
" />
<path d="M170.0987 88.1461
L170.0383 88.0251
" />
<path d="M170.0383 88.0251
L170.0383 87.6623
" />
<path d="M170.0383 87.6623
L170.0987 87.5413
" />
<path d="M170.0987 87.5413
L170.1592 87.4808
" />
<path d="M170.1592 87.4808
L170.2802 87.4204
" />
<path d="M170.2802 87.4204
L170.5221 87.4204
" />
<path d="M170.5221 87.4204
L170.6430 87.4808
" />
<path d="M171.7316 88.2670
L171.7316 87.6018
" />
<path d="M171.7316 87.6018
L171.6711 87.4808
" />
<path d="M171.6711 87.4808
L171.5502 87.4204
" />
<path d="M171.5502 87.4204
L171.3083 87.4204
" />
<path d="M171.3083 87.4204
L171.1873 87.4808
" />
<path d="M171.7316 88.2066
L171.6107 88.2670
" />
<path d="M171.6107 88.2670
L171.3083 88.2670
" />
<path d="M171.3083 88.2670
L171.1873 88.2066
" />
<path d="M171.1873 88.2066
L171.1269 88.0856
" />
<path d="M171.1269 88.0856
L171.1269 87.9646
" />
<path d="M171.1269 87.9646
L171.1873 87.8437
" />
<path d="M171.1873 87.8437
L171.3083 87.7832
" />
<path d="M171.3083 87.7832
L171.6107 87.7832
" />
<path d="M171.6107 87.7832
L171.7316 87.7227
" />
<path d="M172.8806 88.2670
L172.8806 86.9970
" />
<path d="M172.8806 88.2066
L172.7597 88.2670
" />
<path d="M172.7597 88.2670
L172.5178 88.2670
" />
<path d="M172.5178 88.2670
L172.3968 88.2066
" />
<path d="M172.3968 88.2066
L172.3363 88.1461
" />
<path d="M172.3363 88.1461
L172.2759 88.0251
" />
<path d="M172.2759 88.0251
L172.2759 87.6623
" />
<path d="M172.2759 87.6623
L172.3363 87.5413
" />
<path d="M172.3363 87.5413
L172.3968 87.4808
" />
<path d="M172.3968 87.4808
L172.5178 87.4204
" />
<path d="M172.5178 87.4204
L172.7597 87.4204
" />
<path d="M172.7597 87.4204
L172.8806 87.4808
" />
<path d="M173.1830 88.3880
L174.1506 88.3880
" />
<path d="M174.3925 88.2066
L174.5134 88.2670
" />
<path d="M174.5134 88.2670
L174.7553 88.2670
" />
<path d="M174.7553 88.2670
L174.8763 88.2066
" />
<path d="M174.8763 88.2066
L174.9367 88.0856
" />
<path d="M174.9367 88.0856
L174.9367 88.0251
" />
<path d="M174.9367 88.0251
L174.8763 87.9042
" />
<path d="M174.8763 87.9042
L174.7553 87.8437
" />
<path d="M174.7553 87.8437
L174.5739 87.8437
" />
<path d="M174.5739 87.8437
L174.4529 87.7832
" />
<path d="M174.4529 87.7832
L174.3925 87.6623
" />
<path d="M174.3925 87.6623
L174.3925 87.6018
" />
<path d="M174.3925 87.6018
L174.4529 87.4808
" />
<path d="M174.4529 87.4808
L174.5739 87.4204
" />
<path d="M174.5739 87.4204
L174.7553 87.4204
" />
<path d="M174.7553 87.4204
L174.8763 87.4808
" />
<path d="M176.0253 88.2066
L175.9044 88.2670
" />
<path d="M175.9044 88.2670
L175.6625 88.2670
" />
<path d="M175.6625 88.2670
L175.5415 88.2066
" />
<path d="M175.5415 88.2066
L175.4810 88.1461
" />
<path d="M175.4810 88.1461
L175.4206 88.0251
" />
<path d="M175.4206 88.0251
L175.4206 87.6623
" />
<path d="M175.4206 87.6623
L175.4810 87.5413
" />
<path d="M175.4810 87.5413
L175.5415 87.4808
" />
<path d="M175.5415 87.4808
L175.6625 87.4204
" />
<path d="M175.6625 87.4204
L175.9044 87.4204
" />
<path d="M175.9044 87.4204
L176.0253 87.4808
" />
<path d="M176.5696 88.2670
L176.5696 86.9970
" />
<path d="M177.1139 88.2670
L177.1139 87.6018
" />
<path d="M177.1139 87.6018
L177.0534 87.4808
" />
<path d="M177.0534 87.4808
L176.9325 87.4204
" />
<path d="M176.9325 87.4204
L176.7511 87.4204
" />
<path d="M176.7511 87.4204
L176.6301 87.4808
" />
<path d="M176.6301 87.4808
L176.5696 87.5413
" />
</g><path style="fill:#840000; fill-opacity:1.0000; 
stroke:#840000; stroke-width:0.1524; stroke-opacity:1; 
stroke-linecap:round; stroke-linejoin:round;fill-rule:evenodd;"
d="M 33.4010,192.8622
33.2994,192.8114
33.0200,192.6336
32.6644,192.4050
32.2072,192.1002
31.7754,191.7954
31.4198,191.5668
31.1658,191.3890
31.0642,191.3382
30.9880,191.3636
30.7848,191.4652
30.4800,191.6176
30.3022,191.7192
30.0228,191.8208
29.8958,191.8462
29.8704,191.8208
29.7688,191.6176
29.6164,191.2366
29.3878,190.7540
29.1592,190.1952
28.9052,189.5856
28.6258,188.9760
28.3972,188.3664
28.1686,187.8330
27.9908,187.4012
27.8892,187.0964
27.8384,186.9694
27.8638,186.9440
27.9908,186.8170
28.2448,186.6392
28.7528,186.2074
29.2862,185.5470
29.5910,184.8104
29.7180,183.9976
29.6164,183.2356
29.3116,182.5244
28.8036,181.8640
28.1940,181.3814
27.4828,181.0766
26.6700,180.9750
25.9080,181.0512
25.1714,181.3560
24.5110,181.8640
24.2316,182.1688
23.8506,182.8292
23.6220,183.5404
23.5966,183.7182
23.6474,184.5056
23.8760,185.2422
24.2824,185.9026
24.8412,186.4614
24.9174,186.5122
25.1968,186.7154
25.3746,186.8424
25.5016,186.9694
24.5110,189.3570
24.3586,189.7380
24.0792,190.3984
23.8506,190.9572
23.6474,191.4144
23.5204,191.7192
23.4442,191.8208
23.4442,191.8462
23.3680,191.8462
23.1902,191.7954
22.8346,191.6176
22.6314,191.5160
22.3774,191.3890
22.2504,191.3382
22.1488,191.3890
21.9202,191.5414
21.5646,191.7954
21.1328,192.0748
20.7264,192.3542
20.3454,192.6082
20.0660,192.7860
19.9390,192.8622
19.9136,192.8622
19.8120,192.7860
19.5834,192.6082
19.2532,192.3034
18.7960,191.8462
18.7198,191.7700
18.3388,191.3890
18.0340,191.0588
17.8308,190.8302
17.7546,190.7286
17.7546,190.7286
17.8308,190.6016
18.0086,190.3222
18.2372,189.9412
18.5420,189.5094
19.3548,188.3410
18.8976,187.2488
18.7706,186.9186
18.5928,186.5122
18.4658,186.2328
18.4150,186.1058
18.2880,186.0550
18.0086,186.0042
17.5768,185.9026
17.0434,185.8010
16.5608,185.7248
16.1290,185.6232
15.7988,185.5724
15.6464,185.5470
15.6210,185.5216
15.5956,185.4454
15.5702,185.2930
15.5702,185.0390
15.5448,184.6072
15.5448,183.9976
15.5448,183.9214
15.5702,183.3372
15.5702,182.8800
15.5956,182.6006
15.5956,182.4736
15.5956,182.4736
15.7480,182.4482
16.0528,182.3720
16.5100,182.2958
17.0180,182.1942
17.0688,182.1688
17.5768,182.0672
18.0340,181.9910
18.3388,181.9148
18.4658,181.8640
18.4912,181.8386
18.5928,181.6354
18.7452,181.3052
18.9230,180.8988
19.1008,180.4924
19.2532,180.1114
19.3548,179.8320
19.3802,179.7050
19.3802,179.7050
19.3040,179.5780
19.1262,179.3240
18.8722,178.9430
18.5420,178.4858
18.5420,178.4604
18.2372,178.0032
17.9832,177.6222
17.8308,177.3682
17.7546,177.2412
17.7546,177.2412
17.8562,177.1142
18.0848,176.8602
18.4150,176.5046
18.7960,176.1236
18.9230,175.9966
19.3548,175.5648
19.6596,175.2854
19.8374,175.1584
19.9390,175.1076
19.9390,175.1076
20.0660,175.2092
20.3454,175.3870
20.7264,175.6410
21.1836,175.9458
21.2090,175.9712
21.6662,176.2760
22.0218,176.5300
22.3012,176.7078
22.4028,176.7586
22.4282,176.7586
22.6060,176.7078
22.9362,176.6062
23.3172,176.4538
23.7236,176.2760
24.1046,176.1236
24.3840,175.9966
24.5110,175.9204
24.5110,175.9204
24.5618,175.7680
24.6380,175.4378
24.7396,174.9806
24.8412,174.4218
24.8666,174.3456
24.9682,173.8122
25.0444,173.3804
25.0952,173.0756
25.1460,172.9486
25.2222,172.9232
25.4762,172.8978
25.8572,172.8978
26.3398,172.8978
26.8224,172.8978
27.3304,172.8978
27.7368,172.9232
28.0416,172.9486
28.1686,172.9740
28.1686,172.9740
28.2194,173.1264
28.2956,173.4566
28.3718,173.9392
28.4988,174.4726
28.4988,174.5742
28.6004,175.1076
28.7020,175.5394
28.7528,175.8442
28.8036,175.9458
28.8290,175.9712
29.0576,176.0728
29.4132,176.2252
29.8450,176.4030
30.8610,176.8094
32.1310,175.9458
32.2326,175.8696
32.6898,175.5648
33.0454,175.3108
33.2994,175.1584
33.4264,175.1076
33.4264,175.1076
33.5534,175.2092
33.8074,175.4378
34.1376,175.7680
34.5186,176.1744
34.8234,176.4538
35.1536,176.8094
35.3822,177.0380
35.5092,177.1904
35.5346,177.2920
35.5346,177.3428
35.4584,177.4698
35.2806,177.7492
35.0012,178.1302
34.6964,178.5620
34.4678,178.9430
34.1884,179.3494
34.0106,179.6542
33.9598,179.8066
33.9598,179.8574
34.0614,180.1114
34.1884,180.4670
34.3916,180.9242
34.8234,181.9148
35.4584,182.0418
35.8648,182.0926
36.4236,182.2196
36.9316,182.3212
37.7698,182.4736
37.7952,185.4708
37.6682,185.5216
37.5412,185.5470
37.2364,185.6232
36.8046,185.6994
36.2966,185.8010
35.8648,185.8772
35.4076,185.9788
35.1028,186.0296
34.9504,186.0550
34.9250,186.1058
34.8234,186.3090
34.6456,186.6646
34.4932,187.0710
34.3154,187.4774
34.1630,187.8838
34.0360,188.1632
34.0106,188.3410
34.0614,188.4426
34.2392,188.6966
34.4678,189.0776
34.7726,189.5094
35.0774,189.9412
35.3314,190.3222
35.4838,190.5762
35.5600,190.7032
35.5346,190.8048
35.3568,191.0080
35.0266,191.3382
34.5440,191.8208
34.4678,191.8970
34.0614,192.2780
33.7312,192.5828
33.5026,192.7860
Z" /> 
</g> 
</svg>
