0
SECTION
2
HEADER
9
$INSUNITS
70
4
0
ENDSEC
0
SECTION
2
TABLES
0
TABLE
2
LTYPE
0
LTYPE
72
65
70
64
2
CONTINUOUS
3
______
73
0
40
0
0
ENDTAB
0
TABLE
2
LAYER
0
ENDTAB
0
ENDSEC
0
SECTION
2
ENTITIES
0
LINE
8
0
10
60.175
20
-6.335
11
73.175
21
-6.335
0
LINE
8
0
10
60.175
20
-20.335
11
73.175
21
-20.335
0
LINE
8
0
10
59.675
20
-6.835
11
59.675
21
-19.835
0
LINE
8
0
10
73.675
20
-6.835
11
73.675
21
-19.835
0
ARC
8
0
10
60.175
20
-6.835
40
0.5
50
90
51
180
0
ARC
8
0
10
73.175
20
-6.835
40
0.5
50
0
51
90
0
ARC
8
0
10
60.175
20
-19.835
40
0.5
50
180
51
270
0
ARC
8
0
10
73.175
20
-19.835
40
0.5
50
270
51
0
0
LINE
8
0
10
212.575
20
-6.335
11
225.575
21
-6.335
0
LINE
8
0
10
212.575
20
-20.335
11
225.575
21
-20.335
0
LINE
8
0
10
212.075
20
-6.835
11
212.075
21
-19.835
0
LINE
8
0
10
226.075
20
-6.835
11
226.075
21
-19.835
0
ARC
8
0
10
212.575
20
-6.835
40
0.5
50
90
51
180
0
ARC
8
0
10
225.575
20
-6.835
40
0.5
50
0
51
90
0
ARC
8
0
10
212.575
20
-19.835
40
0.5
50
180
51
270
0
ARC
8
0
10
225.575
20
-19.835
40
0.5
50
270
51
0
0
LINE
8
0
10
193.525
20
-7.2875
11
206.525
21
-7.2875
0
LINE
8
0
10
193.525
20
-21.2875
11
206.525
21
-21.2875
0
LINE
8
0
10
193.025
20
-7.7875
11
193.025
21
-20.7875
0
LINE
8
0
10
207.025
20
-7.7875
11
207.025
21
-20.7875
0
ARC
8
0
10
193.525
20
-7.7875
40
0.5
50
90
51
180
0
ARC
8
0
10
206.525
20
-7.7875
40
0.5
50
0
51
90
0
ARC
8
0
10
193.525
20
-20.7875
40
0.5
50
180
51
270
0
ARC
8
0
10
206.525
20
-20.7875
40
0.5
50
270
51
0
0
LINE
8
0
10
41.125
20
-9.1925
11
54.125
21
-9.1925
0
LINE
8
0
10
41.125
20
-23.1925
11
54.125
21
-23.1925
0
LINE
8
0
10
40.625
20
-9.6925
11
40.625
21
-22.6925
0
LINE
8
0
10
54.625
20
-9.6925
11
54.625
21
-22.6925
0
ARC
8
0
10
41.125
20
-9.6925
40
0.5
50
90
51
180
0
ARC
8
0
10
54.125
20
-9.6925
40
0.5
50
0
51
90
0
ARC
8
0
10
41.125
20
-22.6925
40
0.5
50
180
51
270
0
ARC
8
0
10
54.125
20
-22.6925
40
0.5
50
270
51
0
0
LINE
8
0
10
79.225
20
-9.1925
11
92.225
21
-9.1925
0
LINE
8
0
10
79.225
20
-23.1925
11
92.225
21
-23.1925
0
LINE
8
0
10
78.725
20
-9.6925
11
78.725
21
-22.6925
0
LINE
8
0
10
92.725
20
-9.6925
11
92.725
21
-22.6925
0
ARC
8
0
10
79.225
20
-9.6925
40
0.5
50
90
51
180
0
ARC
8
0
10
92.225
20
-9.6925
40
0.5
50
0
51
90
0
ARC
8
0
10
79.225
20
-22.6925
40
0.5
50
180
51
270
0
ARC
8
0
10
92.225
20
-22.6925
40
0.5
50
270
51
0
0
LINE
8
0
10
231.625
20
-9.1925
11
244.625
21
-9.1925
0
LINE
8
0
10
231.625
20
-23.1925
11
244.625
21
-23.1925
0
LINE
8
0
10
231.125
20
-9.6925
11
231.125
21
-22.6925
0
LINE
8
0
10
245.125
20
-9.6925
11
245.125
21
-22.6925
0
ARC
8
0
10
231.625
20
-9.6925
40
0.5
50
90
51
180
0
ARC
8
0
10
244.625
20
-9.6925
40
0.5
50
0
51
90
0
ARC
8
0
10
231.625
20
-22.6925
40
0.5
50
180
51
270
0
ARC
8
0
10
244.625
20
-22.6925
40
0.5
50
270
51
0
0
LINE
8
0
10
3.025
20
-12.05
11
16.025
21
-12.05
0
LINE
8
0
10
3.025
20
-26.05
11
16.025
21
-26.05
0
LINE
8
0
10
2.525
20
-12.55
11
2.525
21
-25.55
0
LINE
8
0
10
16.525
20
-12.55
11
16.525
21
-25.55
0
ARC
8
0
10
3.025
20
-12.55
40
0.5
50
90
51
180
0
ARC
8
0
10
16.025
20
-12.55
40
0.5
50
0
51
90
0
ARC
8
0
10
3.025
20
-25.55
40
0.5
50
180
51
270
0
ARC
8
0
10
16.025
20
-25.55
40
0.5
50
270
51
0
0
LINE
8
0
10
22.075
20
-12.05
11
35.075
21
-12.05
0
LINE
8
0
10
22.075
20
-26.05
11
35.075
21
-26.05
0
LINE
8
0
10
21.575
20
-12.55
11
21.575
21
-25.55
0
LINE
8
0
10
35.575
20
-12.55
11
35.575
21
-25.55
0
ARC
8
0
10
22.075
20
-12.55
40
0.5
50
90
51
180
0
ARC
8
0
10
35.075
20
-12.55
40
0.5
50
0
51
90
0
ARC
8
0
10
22.075
20
-25.55
40
0.5
50
180
51
270
0
ARC
8
0
10
35.075
20
-25.55
40
0.5
50
270
51
0
0
LINE
8
0
10
98.275
20
-12.05
11
111.275
21
-12.05
0
LINE
8
0
10
98.275
20
-26.05
11
111.275
21
-26.05
0
LINE
8
0
10
97.775
20
-12.55
11
97.775
21
-25.55
0
LINE
8
0
10
111.775
20
-12.55
11
111.775
21
-25.55
0
ARC
8
0
10
98.275
20
-12.55
40
0.5
50
90
51
180
0
ARC
8
0
10
111.275
20
-12.55
40
0.5
50
0
51
90
0
ARC
8
0
10
98.275
20
-25.55
40
0.5
50
180
51
270
0
ARC
8
0
10
111.275
20
-25.55
40
0.5
50
270
51
0
0
LINE
8
0
10
174.475
20
-12.05
11
187.475
21
-12.05
0
LINE
8
0
10
174.475
20
-26.05
11
187.475
21
-26.05
0
LINE
8
0
10
173.975
20
-12.55
11
173.975
21
-25.55
0
LINE
8
0
10
187.975
20
-12.55
11
187.975
21
-25.55
0
ARC
8
0
10
174.475
20
-12.55
40
0.5
50
90
51
180
0
ARC
8
0
10
187.475
20
-12.55
40
0.5
50
0
51
90
0
ARC
8
0
10
174.475
20
-25.55
40
0.5
50
180
51
270
0
ARC
8
0
10
187.475
20
-25.55
40
0.5
50
270
51
0
0
LINE
8
0
10
250.675
20
-12.05
11
263.675
21
-12.05
0
LINE
8
0
10
250.675
20
-26.05
11
263.675
21
-26.05
0
LINE
8
0
10
250.175
20
-12.55
11
250.175
21
-25.55
0
LINE
8
0
10
264.175
20
-12.55
11
264.175
21
-25.55
0
ARC
8
0
10
250.675
20
-12.55
40
0.5
50
90
51
180
0
ARC
8
0
10
263.675
20
-12.55
40
0.5
50
0
51
90
0
ARC
8
0
10
250.675
20
-25.55
40
0.5
50
180
51
270
0
ARC
8
0
10
263.675
20
-25.55
40
0.5
50
270
51
0
0
LINE
8
0
10
269.725
20
-12.05
11
282.725
21
-12.05
0
LINE
8
0
10
269.725
20
-26.05
11
282.725
21
-26.05
0
LINE
8
0
10
269.225
20
-12.55
11
269.225
21
-25.55
0
LINE
8
0
10
283.225
20
-12.55
11
283.225
21
-25.55
0
ARC
8
0
10
269.725
20
-12.55
40
0.5
50
90
51
180
0
ARC
8
0
10
282.725
20
-12.55
40
0.5
50
0
51
90
0
ARC
8
0
10
269.725
20
-25.55
40
0.5
50
180
51
270
0
ARC
8
0
10
282.725
20
-25.55
40
0.5
50
270
51
0
0
LINE
8
0
10
60.175
20
-25.385
11
73.175
21
-25.385
0
LINE
8
0
10
60.175
20
-39.385
11
73.175
21
-39.385
0
LINE
8
0
10
59.675
20
-25.885
11
59.675
21
-38.885
0
LINE
8
0
10
73.675
20
-25.885
11
73.675
21
-38.885
0
ARC
8
0
10
60.175
20
-25.885
40
0.5
50
90
51
180
0
ARC
8
0
10
73.175
20
-25.885
40
0.5
50
0
51
90
0
ARC
8
0
10
60.175
20
-38.885
40
0.5
50
180
51
270
0
ARC
8
0
10
73.175
20
-38.885
40
0.5
50
270
51
0
0
LINE
8
0
10
212.575
20
-25.385
11
225.575
21
-25.385
0
LINE
8
0
10
212.575
20
-39.385
11
225.575
21
-39.385
0
LINE
8
0
10
212.075
20
-25.885
11
212.075
21
-38.885
0
LINE
8
0
10
226.075
20
-25.885
11
226.075
21
-38.885
0
ARC
8
0
10
212.575
20
-25.885
40
0.5
50
90
51
180
0
ARC
8
0
10
225.575
20
-25.885
40
0.5
50
0
51
90
0
ARC
8
0
10
212.575
20
-38.885
40
0.5
50
180
51
270
0
ARC
8
0
10
225.575
20
-38.885
40
0.5
50
270
51
0
0
LINE
8
0
10
193.525
20
-26.3375
11
206.525
21
-26.3375
0
LINE
8
0
10
193.525
20
-40.3375
11
206.525
21
-40.3375
0
LINE
8
0
10
193.025
20
-26.8375
11
193.025
21
-39.8375
0
LINE
8
0
10
207.025
20
-26.8375
11
207.025
21
-39.8375
0
ARC
8
0
10
193.525
20
-26.8375
40
0.5
50
90
51
180
0
ARC
8
0
10
206.525
20
-26.8375
40
0.5
50
0
51
90
0
ARC
8
0
10
193.525
20
-39.8375
40
0.5
50
180
51
270
0
ARC
8
0
10
206.525
20
-39.8375
40
0.5
50
270
51
0
0
LINE
8
0
10
41.125
20
-28.2425
11
54.125
21
-28.2425
0
LINE
8
0
10
41.125
20
-42.2425
11
54.125
21
-42.2425
0
LINE
8
0
10
40.625
20
-28.7425
11
40.625
21
-41.7425
0
LINE
8
0
10
54.625
20
-28.7425
11
54.625
21
-41.7425
0
ARC
8
0
10
41.125
20
-28.7425
40
0.5
50
90
51
180
0
ARC
8
0
10
54.125
20
-28.7425
40
0.5
50
0
51
90
0
ARC
8
0
10
41.125
20
-41.7425
40
0.5
50
180
51
270
0
ARC
8
0
10
54.125
20
-41.7425
40
0.5
50
270
51
0
0
LINE
8
0
10
79.225
20
-28.2425
11
92.225
21
-28.2425
0
LINE
8
0
10
79.225
20
-42.2425
11
92.225
21
-42.2425
0
LINE
8
0
10
78.725
20
-28.7425
11
78.725
21
-41.7425
0
LINE
8
0
10
92.725
20
-28.7425
11
92.725
21
-41.7425
0
ARC
8
0
10
79.225
20
-28.7425
40
0.5
50
90
51
180
0
ARC
8
0
10
92.225
20
-28.7425
40
0.5
50
0
51
90
0
ARC
8
0
10
79.225
20
-41.7425
40
0.5
50
180
51
270
0
ARC
8
0
10
92.225
20
-41.7425
40
0.5
50
270
51
0
0
LINE
8
0
10
231.625
20
-28.2425
11
244.625
21
-28.2425
0
LINE
8
0
10
231.625
20
-42.2425
11
244.625
21
-42.2425
0
LINE
8
0
10
231.125
20
-28.7425
11
231.125
21
-41.7425
0
LINE
8
0
10
245.125
20
-28.7425
11
245.125
21
-41.7425
0
ARC
8
0
10
231.625
20
-28.7425
40
0.5
50
90
51
180
0
ARC
8
0
10
244.625
20
-28.7425
40
0.5
50
0
51
90
0
ARC
8
0
10
231.625
20
-41.7425
40
0.5
50
180
51
270
0
ARC
8
0
10
244.625
20
-41.7425
40
0.5
50
270
51
0
0
LINE
8
0
10
3.025
20
-31.1
11
16.025
21
-31.1
0
LINE
8
0
10
3.025
20
-45.1
11
16.025
21
-45.1
0
LINE
8
0
10
2.525
20
-31.6
11
2.525
21
-44.6
0
LINE
8
0
10
16.525
20
-31.6
11
16.525
21
-44.6
0
ARC
8
0
10
3.025
20
-31.6
40
0.5
50
90
51
180
0
ARC
8
0
10
16.025
20
-31.6
40
0.5
50
0
51
90
0
ARC
8
0
10
3.025
20
-44.6
40
0.5
50
180
51
270
0
ARC
8
0
10
16.025
20
-44.6
40
0.5
50
270
51
0
0
LINE
8
0
10
22.075
20
-31.1
11
35.075
21
-31.1
0
LINE
8
0
10
22.075
20
-45.1
11
35.075
21
-45.1
0
LINE
8
0
10
21.575
20
-31.6
11
21.575
21
-44.6
0
LINE
8
0
10
35.575
20
-31.6
11
35.575
21
-44.6
0
ARC
8
0
10
22.075
20
-31.6
40
0.5
50
90
51
180
0
ARC
8
0
10
35.075
20
-31.6
40
0.5
50
0
51
90
0
ARC
8
0
10
22.075
20
-44.6
40
0.5
50
180
51
270
0
ARC
8
0
10
35.075
20
-44.6
40
0.5
50
270
51
0
0
LINE
8
0
10
98.275
20
-31.1
11
111.275
21
-31.1
0
LINE
8
0
10
98.275
20
-45.1
11
111.275
21
-45.1
0
LINE
8
0
10
97.775
20
-31.6
11
97.775
21
-44.6
0
LINE
8
0
10
111.775
20
-31.6
11
111.775
21
-44.6
0
ARC
8
0
10
98.275
20
-31.6
40
0.5
50
90
51
180
0
ARC
8
0
10
111.275
20
-31.6
40
0.5
50
0
51
90
0
ARC
8
0
10
98.275
20
-44.6
40
0.5
50
180
51
270
0
ARC
8
0
10
111.275
20
-44.6
40
0.5
50
270
51
0
0
LINE
8
0
10
174.475
20
-31.1
11
187.475
21
-31.1
0
LINE
8
0
10
174.475
20
-45.1
11
187.475
21
-45.1
0
LINE
8
0
10
173.975
20
-31.6
11
173.975
21
-44.6
0
LINE
8
0
10
187.975
20
-31.6
11
187.975
21
-44.6
0
ARC
8
0
10
174.475
20
-31.6
40
0.5
50
90
51
180
0
ARC
8
0
10
187.475
20
-31.6
40
0.5
50
0
51
90
0
ARC
8
0
10
174.475
20
-44.6
40
0.5
50
180
51
270
0
ARC
8
0
10
187.475
20
-44.6
40
0.5
50
270
51
0
0
LINE
8
0
10
250.675
20
-31.1
11
263.675
21
-31.1
0
LINE
8
0
10
250.675
20
-45.1
11
263.675
21
-45.1
0
LINE
8
0
10
250.175
20
-31.6
11
250.175
21
-44.6
0
LINE
8
0
10
264.175
20
-31.6
11
264.175
21
-44.6
0
ARC
8
0
10
250.675
20
-31.6
40
0.5
50
90
51
180
0
ARC
8
0
10
263.675
20
-31.6
40
0.5
50
0
51
90
0
ARC
8
0
10
250.675
20
-44.6
40
0.5
50
180
51
270
0
ARC
8
0
10
263.675
20
-44.6
40
0.5
50
270
51
0
0
LINE
8
0
10
269.725
20
-31.1
11
282.725
21
-31.1
0
LINE
8
0
10
269.725
20
-45.1
11
282.725
21
-45.1
0
LINE
8
0
10
269.225
20
-31.6
11
269.225
21
-44.6
0
LINE
8
0
10
283.225
20
-31.6
11
283.225
21
-44.6
0
ARC
8
0
10
269.725
20
-31.6
40
0.5
50
90
51
180
0
ARC
8
0
10
282.725
20
-31.6
40
0.5
50
0
51
90
0
ARC
8
0
10
269.725
20
-44.6
40
0.5
50
180
51
270
0
ARC
8
0
10
282.725
20
-44.6
40
0.5
50
270
51
0
0
LINE
8
0
10
60.175
20
-44.435
11
73.175
21
-44.435
0
LINE
8
0
10
60.175
20
-58.435
11
73.175
21
-58.435
0
LINE
8
0
10
59.675
20
-44.935
11
59.675
21
-57.935
0
LINE
8
0
10
73.675
20
-44.935
11
73.675
21
-57.935
0
ARC
8
0
10
60.175
20
-44.935
40
0.5
50
90
51
180
0
ARC
8
0
10
73.175
20
-44.935
40
0.5
50
0
51
90
0
ARC
8
0
10
60.175
20
-57.935
40
0.5
50
180
51
270
0
ARC
8
0
10
73.175
20
-57.935
40
0.5
50
270
51
0
0
LINE
8
0
10
212.575
20
-44.435
11
225.575
21
-44.435
0
LINE
8
0
10
212.575
20
-58.435
11
225.575
21
-58.435
0
LINE
8
0
10
212.075
20
-44.935
11
212.075
21
-57.935
0
LINE
8
0
10
226.075
20
-44.935
11
226.075
21
-57.935
0
ARC
8
0
10
212.575
20
-44.935
40
0.5
50
90
51
180
0
ARC
8
0
10
225.575
20
-44.935
40
0.5
50
0
51
90
0
ARC
8
0
10
212.575
20
-57.935
40
0.5
50
180
51
270
0
ARC
8
0
10
225.575
20
-57.935
40
0.5
50
270
51
0
0
LINE
8
0
10
41.125
20
-47.2925
11
54.125
21
-47.2925
0
LINE
8
0
10
41.125
20
-61.2925
11
54.125
21
-61.2925
0
LINE
8
0
10
40.625
20
-47.7925
11
40.625
21
-60.7925
0
LINE
8
0
10
54.625
20
-47.7925
11
54.625
21
-60.7925
0
ARC
8
0
10
41.125
20
-47.7925
40
0.5
50
90
51
180
0
ARC
8
0
10
54.125
20
-47.7925
40
0.5
50
0
51
90
0
ARC
8
0
10
41.125
20
-60.7925
40
0.5
50
180
51
270
0
ARC
8
0
10
54.125
20
-60.7925
40
0.5
50
270
51
0
0
LINE
8
0
10
79.225
20
-47.2925
11
92.225
21
-47.2925
0
LINE
8
0
10
79.225
20
-61.2925
11
92.225
21
-61.2925
0
LINE
8
0
10
78.725
20
-47.7925
11
78.725
21
-60.7925
0
LINE
8
0
10
92.725
20
-47.7925
11
92.725
21
-60.7925
0
ARC
8
0
10
79.225
20
-47.7925
40
0.5
50
90
51
180
0
ARC
8
0
10
92.225
20
-47.7925
40
0.5
50
0
51
90
0
ARC
8
0
10
79.225
20
-60.7925
40
0.5
50
180
51
270
0
ARC
8
0
10
92.225
20
-60.7925
40
0.5
50
270
51
0
0
LINE
8
0
10
193.525
20
-47.2925
11
206.525
21
-47.2925
0
LINE
8
0
10
193.525
20
-61.2925
11
206.525
21
-61.2925
0
LINE
8
0
10
193.025
20
-47.7925
11
193.025
21
-60.7925
0
LINE
8
0
10
207.025
20
-47.7925
11
207.025
21
-60.7925
0
ARC
8
0
10
193.525
20
-47.7925
40
0.5
50
90
51
180
0
ARC
8
0
10
206.525
20
-47.7925
40
0.5
50
0
51
90
0
ARC
8
0
10
193.525
20
-60.7925
40
0.5
50
180
51
270
0
ARC
8
0
10
206.525
20
-60.7925
40
0.5
50
270
51
0
0
LINE
8
0
10
231.625
20
-47.2925
11
244.625
21
-47.2925
0
LINE
8
0
10
231.625
20
-61.2925
11
244.625
21
-61.2925
0
LINE
8
0
10
231.125
20
-47.7925
11
231.125
21
-60.7925
0
LINE
8
0
10
245.125
20
-47.7925
11
245.125
21
-60.7925
0
ARC
8
0
10
231.625
20
-47.7925
40
0.5
50
90
51
180
0
ARC
8
0
10
244.625
20
-47.7925
40
0.5
50
0
51
90
0
ARC
8
0
10
231.625
20
-60.7925
40
0.5
50
180
51
270
0
ARC
8
0
10
244.625
20
-60.7925
40
0.5
50
270
51
0
0
LINE
8
0
10
3.025
20
-50.15
11
16.025
21
-50.15
0
LINE
8
0
10
3.025
20
-64.15
11
16.025
21
-64.15
0
LINE
8
0
10
2.525
20
-50.65
11
2.525
21
-63.65
0
LINE
8
0
10
16.525
20
-50.65
11
16.525
21
-63.65
0
ARC
8
0
10
3.025
20
-50.65
40
0.5
50
90
51
180
0
ARC
8
0
10
16.025
20
-50.65
40
0.5
50
0
51
90
0
ARC
8
0
10
3.025
20
-63.65
40
0.5
50
180
51
270
0
ARC
8
0
10
16.025
20
-63.65
40
0.5
50
270
51
0
0
LINE
8
0
10
22.075
20
-50.15
11
35.075
21
-50.15
0
LINE
8
0
10
22.075
20
-64.15
11
35.075
21
-64.15
0
LINE
8
0
10
21.575
20
-50.65
11
21.575
21
-63.65
0
LINE
8
0
10
35.575
20
-50.65
11
35.575
21
-63.65
0
ARC
8
0
10
22.075
20
-50.65
40
0.5
50
90
51
180
0
ARC
8
0
10
35.075
20
-50.65
40
0.5
50
0
51
90
0
ARC
8
0
10
22.075
20
-63.65
40
0.5
50
180
51
270
0
ARC
8
0
10
35.075
20
-63.65
40
0.5
50
270
51
0
0
LINE
8
0
10
98.275
20
-50.15
11
111.275
21
-50.15
0
LINE
8
0
10
98.275
20
-64.15
11
111.275
21
-64.15
0
LINE
8
0
10
97.775
20
-50.65
11
97.775
21
-63.65
0
LINE
8
0
10
111.775
20
-50.65
11
111.775
21
-63.65
0
ARC
8
0
10
98.275
20
-50.65
40
0.5
50
90
51
180
0
ARC
8
0
10
111.275
20
-50.65
40
0.5
50
0
51
90
0
ARC
8
0
10
98.275
20
-63.65
40
0.5
50
180
51
270
0
ARC
8
0
10
111.275
20
-63.65
40
0.5
50
270
51
0
0
LINE
8
0
10
174.475
20
-50.15
11
187.475
21
-50.15
0
LINE
8
0
10
174.475
20
-64.15
11
187.475
21
-64.15
0
LINE
8
0
10
173.975
20
-50.65
11
173.975
21
-63.65
0
LINE
8
0
10
187.975
20
-50.65
11
187.975
21
-63.65
0
ARC
8
0
10
174.475
20
-50.65
40
0.5
50
90
51
180
0
ARC
8
0
10
187.475
20
-50.65
40
0.5
50
0
51
90
0
ARC
8
0
10
174.475
20
-63.65
40
0.5
50
180
51
270
0
ARC
8
0
10
187.475
20
-63.65
40
0.5
50
270
51
0
0
LINE
8
0
10
250.675
20
-50.15
11
263.675
21
-50.15
0
LINE
8
0
10
250.675
20
-64.15
11
263.675
21
-64.15
0
LINE
8
0
10
250.175
20
-50.65
11
250.175
21
-63.65
0
LINE
8
0
10
264.175
20
-50.65
11
264.175
21
-63.65
0
ARC
8
0
10
250.675
20
-50.65
40
0.5
50
90
51
180
0
ARC
8
0
10
263.675
20
-50.65
40
0.5
50
0
51
90
0
ARC
8
0
10
250.675
20
-63.65
40
0.5
50
180
51
270
0
ARC
8
0
10
263.675
20
-63.65
40
0.5
50
270
51
0
0
LINE
8
0
10
269.725
20
-50.15
11
282.725
21
-50.15
0
LINE
8
0
10
269.725
20
-64.15
11
282.725
21
-64.15
0
LINE
8
0
10
269.225
20
-50.65
11
269.225
21
-63.65
0
LINE
8
0
10
283.225
20
-50.65
11
283.225
21
-63.65
0
ARC
8
0
10
269.725
20
-50.65
40
0.5
50
90
51
180
0
ARC
8
0
10
282.725
20
-50.65
40
0.5
50
0
51
90
0
ARC
8
0
10
269.725
20
-63.65
40
0.5
50
180
51
270
0
ARC
8
0
10
282.725
20
-63.65
40
0.5
50
270
51
0
0
LINE
8
0
10
60.175
20
-63.485
11
73.175
21
-63.485
0
LINE
8
0
10
60.175
20
-77.485
11
73.175
21
-77.485
0
LINE
8
0
10
59.675
20
-63.985
11
59.675
21
-76.985
0
LINE
8
0
10
73.675
20
-63.985
11
73.675
21
-76.985
0
ARC
8
0
10
60.175
20
-63.985
40
0.5
50
90
51
180
0
ARC
8
0
10
73.175
20
-63.985
40
0.5
50
0
51
90
0
ARC
8
0
10
60.175
20
-76.985
40
0.5
50
180
51
270
0
ARC
8
0
10
73.175
20
-76.985
40
0.5
50
270
51
0
0
LINE
8
0
10
212.575
20
-63.485
11
225.575
21
-63.485
0
LINE
8
0
10
212.575
20
-77.485
11
225.575
21
-77.485
0
LINE
8
0
10
212.075
20
-63.985
11
212.075
21
-76.985
0
LINE
8
0
10
226.075
20
-63.985
11
226.075
21
-76.985
0
ARC
8
0
10
212.575
20
-63.985
40
0.5
50
90
51
180
0
ARC
8
0
10
225.575
20
-63.985
40
0.5
50
0
51
90
0
ARC
8
0
10
212.575
20
-76.985
40
0.5
50
180
51
270
0
ARC
8
0
10
225.575
20
-76.985
40
0.5
50
270
51
0
0
LINE
8
0
10
41.125
20
-66.3425
11
54.125
21
-66.3425
0
LINE
8
0
10
41.125
20
-80.3425
11
54.125
21
-80.3425
0
LINE
8
0
10
40.625
20
-66.8425
11
40.625
21
-79.8425
0
LINE
8
0
10
54.625
20
-66.8425
11
54.625
21
-79.8425
0
ARC
8
0
10
41.125
20
-66.8425
40
0.5
50
90
51
180
0
ARC
8
0
10
54.125
20
-66.8425
40
0.5
50
0
51
90
0
ARC
8
0
10
41.125
20
-79.8425
40
0.5
50
180
51
270
0
ARC
8
0
10
54.125
20
-79.8425
40
0.5
50
270
51
0
0
LINE
8
0
10
79.225
20
-66.3425
11
92.225
21
-66.3425
0
LINE
8
0
10
79.225
20
-80.3425
11
92.225
21
-80.3425
0
LINE
8
0
10
78.725
20
-66.8425
11
78.725
21
-79.8425
0
LINE
8
0
10
92.725
20
-66.8425
11
92.725
21
-79.8425
0
ARC
8
0
10
79.225
20
-66.8425
40
0.5
50
90
51
180
0
ARC
8
0
10
92.225
20
-66.8425
40
0.5
50
0
51
90
0
ARC
8
0
10
79.225
20
-79.8425
40
0.5
50
180
51
270
0
ARC
8
0
10
92.225
20
-79.8425
40
0.5
50
270
51
0
0
LINE
8
0
10
193.525
20
-66.3425
11
206.525
21
-66.3425
0
LINE
8
0
10
193.525
20
-80.3425
11
206.525
21
-80.3425
0
LINE
8
0
10
193.025
20
-66.8425
11
193.025
21
-79.8425
0
LINE
8
0
10
207.025
20
-66.8425
11
207.025
21
-79.8425
0
ARC
8
0
10
193.525
20
-66.8425
40
0.5
50
90
51
180
0
ARC
8
0
10
206.525
20
-66.8425
40
0.5
50
0
51
90
0
ARC
8
0
10
193.525
20
-79.8425
40
0.5
50
180
51
270
0
ARC
8
0
10
206.525
20
-79.8425
40
0.5
50
270
51
0
0
LINE
8
0
10
231.625
20
-66.3425
11
244.625
21
-66.3425
0
LINE
8
0
10
231.625
20
-80.3425
11
244.625
21
-80.3425
0
LINE
8
0
10
231.125
20
-66.8425
11
231.125
21
-79.8425
0
LINE
8
0
10
245.125
20
-66.8425
11
245.125
21
-79.8425
0
ARC
8
0
10
231.625
20
-66.8425
40
0.5
50
90
51
180
0
ARC
8
0
10
244.625
20
-66.8425
40
0.5
50
0
51
90
0
ARC
8
0
10
231.625
20
-79.8425
40
0.5
50
180
51
270
0
ARC
8
0
10
244.625
20
-79.8425
40
0.5
50
270
51
0
0
LINE
8
0
10
3.025
20
-69.2
11
16.025
21
-69.2
0
LINE
8
0
10
3.025
20
-83.2
11
16.025
21
-83.2
0
LINE
8
0
10
2.525
20
-69.7
11
2.525
21
-82.7
0
LINE
8
0
10
16.525
20
-69.7
11
16.525
21
-82.7
0
ARC
8
0
10
3.025
20
-69.7
40
0.5
50
90
51
180
0
ARC
8
0
10
16.025
20
-69.7
40
0.5
50
0
51
90
0
ARC
8
0
10
3.025
20
-82.7
40
0.5
50
180
51
270
0
ARC
8
0
10
16.025
20
-82.7
40
0.5
50
270
51
0
0
LINE
8
0
10
22.075
20
-69.2
11
35.075
21
-69.2
0
LINE
8
0
10
22.075
20
-83.2
11
35.075
21
-83.2
0
LINE
8
0
10
21.575
20
-69.7
11
21.575
21
-82.7
0
LINE
8
0
10
35.575
20
-69.7
11
35.575
21
-82.7
0
ARC
8
0
10
22.075
20
-69.7
40
0.5
50
90
51
180
0
ARC
8
0
10
35.075
20
-69.7
40
0.5
50
0
51
90
0
ARC
8
0
10
22.075
20
-82.7
40
0.5
50
180
51
270
0
ARC
8
0
10
35.075
20
-82.7
40
0.5
50
270
51
0
0
LINE
8
0
10
98.275
20
-69.2
11
111.275
21
-69.2
0
LINE
8
0
10
98.275
20
-83.2
11
111.275
21
-83.2
0
LINE
8
0
10
97.775
20
-69.7
11
97.775
21
-82.7
0
LINE
8
0
10
111.775
20
-69.7
11
111.775
21
-82.7
0
ARC
8
0
10
98.275
20
-69.7
40
0.5
50
90
51
180
0
ARC
8
0
10
111.275
20
-69.7
40
0.5
50
0
51
90
0
ARC
8
0
10
98.275
20
-82.7
40
0.5
50
180
51
270
0
ARC
8
0
10
111.275
20
-82.7
40
0.5
50
270
51
0
0
LINE
8
0
10
174.475
20
-69.2
11
187.475
21
-69.2
0
LINE
8
0
10
174.475
20
-83.2
11
187.475
21
-83.2
0
LINE
8
0
10
173.975
20
-69.7
11
173.975
21
-82.7
0
LINE
8
0
10
187.975
20
-69.7
11
187.975
21
-82.7
0
ARC
8
0
10
174.475
20
-69.7
40
0.5
50
90
51
180
0
ARC
8
0
10
187.475
20
-69.7
40
0.5
50
0
51
90
0
ARC
8
0
10
174.475
20
-82.7
40
0.5
50
180
51
270
0
ARC
8
0
10
187.475
20
-82.7
40
0.5
50
270
51
0
0
LINE
8
0
10
250.675
20
-69.2
11
263.675
21
-69.2
0
LINE
8
0
10
250.675
20
-83.2
11
263.675
21
-83.2
0
LINE
8
0
10
250.175
20
-69.7
11
250.175
21
-82.7
0
LINE
8
0
10
264.175
20
-69.7
11
264.175
21
-82.7
0
ARC
8
0
10
250.675
20
-69.7
40
0.5
50
90
51
180
0
ARC
8
0
10
263.675
20
-69.7
40
0.5
50
0
51
90
0
ARC
8
0
10
250.675
20
-82.7
40
0.5
50
180
51
270
0
ARC
8
0
10
263.675
20
-82.7
40
0.5
50
270
51
0
0
LINE
8
0
10
269.725
20
-69.2
11
282.725
21
-69.2
0
LINE
8
0
10
269.725
20
-83.2
11
282.725
21
-83.2
0
LINE
8
0
10
269.225
20
-69.7
11
269.225
21
-82.7
0
LINE
8
0
10
283.225
20
-69.7
11
283.225
21
-82.7
0
ARC
8
0
10
269.725
20
-69.7
40
0.5
50
90
51
180
0
ARC
8
0
10
282.725
20
-69.7
40
0.5
50
0
51
90
0
ARC
8
0
10
269.725
20
-82.7
40
0.5
50
180
51
270
0
ARC
8
0
10
282.725
20
-82.7
40
0.5
50
270
51
0
0
LINE
8
0
10
55.4125
20
-85.3925
11
68.4125
21
-85.3925
0
LINE
8
0
10
55.4125
20
-99.3925
11
68.4125
21
-99.3925
0
LINE
8
0
10
54.9125
20
-85.8925
11
54.9125
21
-98.8925
0
LINE
8
0
10
68.9125
20
-85.8925
11
68.9125
21
-98.8925
0
ARC
8
0
10
55.4125
20
-85.8925
40
0.5
50
90
51
180
0
ARC
8
0
10
68.4125
20
-85.8925
40
0.5
50
0
51
90
0
ARC
8
0
10
55.4125
20
-98.8925
40
0.5
50
180
51
270
0
ARC
8
0
10
68.4125
20
-98.8925
40
0.5
50
270
51
0
0
LINE
8
0
10
74.4625
20
-85.3925
11
87.4625
21
-85.3925
0
LINE
8
0
10
74.4625
20
-99.3925
11
87.4625
21
-99.3925
0
LINE
8
0
10
73.9625
20
-85.8925
11
73.9625
21
-98.8925
0
LINE
8
0
10
87.9625
20
-85.8925
11
87.9625
21
-98.8925
0
ARC
8
0
10
74.4625
20
-85.8925
40
0.5
50
90
51
180
0
ARC
8
0
10
87.4625
20
-85.8925
40
0.5
50
0
51
90
0
ARC
8
0
10
74.4625
20
-98.8925
40
0.5
50
180
51
270
0
ARC
8
0
10
87.4625
20
-98.8925
40
0.5
50
270
51
0
0
LINE
8
0
10
198.2875
20
-85.3925
11
211.2875
21
-85.3925
0
LINE
8
0
10
198.2875
20
-99.3925
11
211.2875
21
-99.3925
0
LINE
8
0
10
197.7875
20
-85.8925
11
197.7875
21
-98.8925
0
LINE
8
0
10
211.7875
20
-85.8925
11
211.7875
21
-98.8925
0
ARC
8
0
10
198.2875
20
-85.8925
40
0.5
50
90
51
180
0
ARC
8
0
10
211.2875
20
-85.8925
40
0.5
50
0
51
90
0
ARC
8
0
10
198.2875
20
-98.8925
40
0.5
50
180
51
270
0
ARC
8
0
10
211.2875
20
-98.8925
40
0.5
50
270
51
0
0
LINE
8
0
10
36.3625
20
-88.25
11
49.3625
21
-88.25
0
LINE
8
0
10
36.3625
20
-102.25
11
49.3625
21
-102.25
0
LINE
8
0
10
35.8625
20
-88.75
11
35.8625
21
-101.75
0
LINE
8
0
10
49.8625
20
-88.75
11
49.8625
21
-101.75
0
ARC
8
0
10
36.3625
20
-88.75
40
0.5
50
90
51
180
0
ARC
8
0
10
49.3625
20
-88.75
40
0.5
50
0
51
90
0
ARC
8
0
10
36.3625
20
-101.75
40
0.5
50
180
51
270
0
ARC
8
0
10
49.3625
20
-101.75
40
0.5
50
270
51
0
0
LINE
8
0
10
217.3375
20
-85.3925
11
230.3375
21
-85.3925
0
LINE
8
0
10
217.3375
20
-99.3925
11
230.3375
21
-99.3925
0
LINE
8
0
10
216.8375
20
-85.8925
11
216.8375
21
-98.8925
0
LINE
8
0
10
230.8375
20
-85.8925
11
230.8375
21
-98.8925
0
ARC
8
0
10
217.3375
20
-85.8925
40
0.5
50
90
51
180
0
ARC
8
0
10
230.3375
20
-85.8925
40
0.5
50
0
51
90
0
ARC
8
0
10
217.3375
20
-98.8925
40
0.5
50
180
51
270
0
ARC
8
0
10
230.3375
20
-98.8925
40
0.5
50
270
51
0
0
LINE
8
0
10
236.3875
20
-88.25
11
249.3875
21
-88.25
0
LINE
8
0
10
236.3875
20
-102.25
11
249.3875
21
-102.25
0
LINE
8
0
10
235.8875
20
-88.75
11
235.8875
21
-101.75
0
LINE
8
0
10
249.8875
20
-88.75
11
249.8875
21
-101.75
0
ARC
8
0
10
236.3875
20
-88.75
40
0.5
50
90
51
180
0
ARC
8
0
10
249.3875
20
-88.75
40
0.5
50
0
51
90
0
ARC
8
0
10
236.3875
20
-101.75
40
0.5
50
180
51
270
0
ARC
8
0
10
249.3875
20
-101.75
40
0.5
50
270
51
0
0
LINE
8
0
10
97.1364301
20
-88.9099128
11
109.6934659
21
-92.2745604
0
LINE
8
0
10
93.5129635
20
-102.4328744
11
106.0699993
21
-105.797522
0
LINE
8
0
10
96.5240577
20
-89.2634662
11
93.1594101
21
-101.820502
0
LINE
8
0
10
110.0470193
20
-92.8869328
11
106.6823717
21
-105.4439686
0
ARC
8
0
10
97.0070206
20
-89.3928757
40
0.5
50
75
51
165
0
ARC
8
0
10
109.5640564
20
-92.7575233
40
0.5
50
345
51
75
0
ARC
8
0
10
93.642373
20
-101.9499115
40
0.5
50
165
51
255
0
ARC
8
0
10
106.1994088
20
-105.3145591
40
0.5
50
255
51
345
0
LINE
8
0
10
132.5601453
20
-98.7240932
11
126.0601453
21
-109.9824234
0
LINE
8
0
10
120.4357897
20
-91.7240932
11
113.9357897
21
-102.9824234
0
LINE
8
0
10
132.3771326
20
-98.0410805
11
121.1188024
21
-91.5410805
0
LINE
8
0
10
125.3771326
20
-110.1654361
11
114.1188024
21
-103.6654361
0
ARC
8
0
10
132.1271326
20
-98.4740932
40
0.5
50
330
51
60
0
ARC
8
0
10
125.6271326
20
-109.7324234
40
0.5
50
240
51
330
0
ARC
8
0
10
120.8688024
20
-91.9740932
40
0.5
50
60
51
150
0
ARC
8
0
10
114.3688024
20
-103.2324234
40
0.5
50
150
51
240
0
LINE
8
0
10
164.3677596
20
-92.2705268
11
170.8677596
21
-103.528857
0
LINE
8
0
10
152.243404
20
-99.2705268
11
158.743404
21
-110.528857
0
LINE
8
0
10
163.6847469
20
-92.0875141
11
152.4264167
21
-98.5875141
0
LINE
8
0
10
170.6847469
20
-104.2118697
11
159.4264167
21
-110.7118697
0
ARC
8
0
10
163.9347469
20
-92.5205268
40
0.5
50
30
51
120
0
ARC
8
0
10
170.4347469
20
-103.778857
40
0.5
50
300
51
30
0
ARC
8
0
10
152.6764167
20
-99.0205268
40
0.5
50
120
51
210
0
ARC
8
0
10
159.1764167
20
-110.278857
40
0.5
50
210
51
300
0
LINE
8
0
10
175.6025655
20
-91.6433843
11
188.1596013
21
-88.2787367
0
LINE
8
0
10
179.2260321
20
-105.1663459
11
191.7830679
21
-101.8016983
0
LINE
8
0
10
175.2490121
20
-92.2557567
11
178.6136597
21
-104.8127925
0
LINE
8
0
10
188.7719737
20
-88.6322901
11
192.1366213
21
-101.1893259
0
ARC
8
0
10
175.731975
20
-92.1263472
40
0.5
50
105
51
195
0
ARC
8
0
10
188.2890108
20
-88.7616996
40
0.5
50
15
51
105
0
ARC
8
0
10
179.0966226
20
-104.683383
40
0.5
50
195
51
285
0
ARC
8
0
10
191.6536584
20
-101.3187354
40
0.5
50
285
51
15
0
LINE
8
0
10
0
20
-115.6871919
11
285.75
21
-115.6871919
0
LINE
8
0
10
0
20
-3.81
11
285.75
21
-3.81
0
LINE
8
0
10
0
20
-115.6871919
11
0
21
-3.81
0
LINE
8
0
10
285.75
20
-115.6871919
11
285.75
21
-3.81
0
ENDSEC
0
EOF