0
SECTION
2
HEADER
9
$INSUNITS
70
4
0
ENDSEC
0
SECTION
2
TABLES
0
TABLE
2
LTYPE
0
LTYPE
72
65
70
0
2
CONTINUOUS
3
______
73
0
40
0
0
LTYPE
72
65
70
0
2
DASHED
3
_ _ _ 
73
2
40
7.5
49
5
49
-2.5
0
LTYPE
72
65
70
0
2
DOTTED
3
. . . 
73
2
40
1.5
49
0.5
49
-1
0
ENDTAB
0
TABLE
2
LAYER
0
ENDTAB
0
ENDSEC
0
SECTION
2
ENTITIES
0
POLYLINE
8
0
6
CONTINUOUS
66
1
70
1
0
VERTEX
8
0
10
129.665747
20
-95.8380987
42
0.4142136
0
VERTEX
8
0
10
130.2781194
20
-96.1916521
0
VERTEX
8
0
10
142.8351552
20
-92.8270045
42
0.4142136
0
VERTEX
8
0
10
143.1887086
20
-92.2146321
0
VERTEX
8
0
10
139.824061
20
-79.6575963
42
0.4142136
0
VERTEX
8
0
10
139.2116886
20
-79.3040429
0
VERTEX
8
0
10
126.6546528
20
-82.6686905
42
0.4142136
0
VERTEX
8
0
10
126.3010994
20
-83.2810629
0
SEQEND
0
POLYLINE
8
0
6
CONTINUOUS
66
1
70
1
0
VERTEX
8
0
10
45.1489065
20
-83.2810587
42
0.4142136
0
VERTEX
8
0
10
44.7953531
20
-82.6686863
0
VERTEX
8
0
10
32.2383173
20
-79.3040387
42
0.4142136
0
VERTEX
8
0
10
31.6259448
20
-79.6575921
0
VERTEX
8
0
10
28.2612973
20
-92.2146279
42
0.4142136
0
VERTEX
8
0
10
28.6148507
20
-92.8270003
0
VERTEX
8
0
10
41.1718865
20
-96.1916479
42
0.4142136
0
VERTEX
8
0
10
41.7842589
20
-95.8380945
0
SEQEND
0
POLYLINE
8
0
6
CONTINUOUS
66
1
70
1
0
VERTEX
8
0
10
7
20
6.5
42
0.4142136
0
VERTEX
8
0
10
6.5
20
7
0
VERTEX
8
0
10
-6.5
20
7
42
0.4142136
0
VERTEX
8
0
10
-7
20
6.5
0
VERTEX
8
0
10
-7
20
-6.5
42
0.4142136
0
VERTEX
8
0
10
-6.5
20
-7
0
VERTEX
8
0
10
6.5
20
-7
42
0.4142136
0
VERTEX
8
0
10
7
20
-6.5
0
SEQEND
0
POLYLINE
8
0
6
CONTINUOUS
66
1
70
1
0
VERTEX
8
0
10
164.45
20
-6.5
42
0.4142136
0
VERTEX
8
0
10
164.95
20
-7
0
VERTEX
8
0
10
177.95
20
-7
42
0.4142136
0
VERTEX
8
0
10
178.45
20
-6.5
0
VERTEX
8
0
10
178.45
20
6.5
42
0.4142136
0
VERTEX
8
0
10
177.95
20
7
0
VERTEX
8
0
10
164.95
20
7
42
0.4142136
0
VERTEX
8
0
10
164.45
20
6.5
0
SEQEND
0
POLYLINE
8
0
6
CONTINUOUS
66
1
70
1
0
VERTEX
8
0
10
-12.05
20
3.6425
42
0.4142136
0
VERTEX
8
0
10
-12.55
20
4.1425
0
VERTEX
8
0
10
-25.55
20
4.1425
42
0.4142136
0
VERTEX
8
0
10
-26.05
20
3.6425
0
VERTEX
8
0
10
-26.05
20
-9.3575
42
0.4142136
0
VERTEX
8
0
10
-25.55
20
-9.8575
0
VERTEX
8
0
10
-12.55
20
-9.8575
42
0.4142136
0
VERTEX
8
0
10
-12.05
20
-9.3575
0
SEQEND
0
POLYLINE
8
0
6
CONTINUOUS
66
1
70
1
0
VERTEX
8
0
10
26.05
20
3.6425
42
0.4142136
0
VERTEX
8
0
10
25.55
20
4.1425
0
VERTEX
8
0
10
12.55
20
4.1425
42
0.4142136
0
VERTEX
8
0
10
12.05
20
3.6425
0
VERTEX
8
0
10
12.05
20
-9.3575
42
0.4142136
0
VERTEX
8
0
10
12.55
20
-9.8575
0
VERTEX
8
0
10
25.55
20
-9.8575
42
0.4142136
0
VERTEX
8
0
10
26.05
20
-9.3575
0
SEQEND
0
POLYLINE
8
0
6
CONTINUOUS
66
1
70
1
0
VERTEX
8
0
10
145.4
20
-9.3575
42
0.4142136
0
VERTEX
8
0
10
145.9
20
-9.8575
0
VERTEX
8
0
10
158.9
20
-9.8575
42
0.4142136
0
VERTEX
8
0
10
159.4
20
-9.3575
0
VERTEX
8
0
10
159.4
20
3.6425
42
0.4142136
0
VERTEX
8
0
10
158.9
20
4.1425
0
VERTEX
8
0
10
145.9
20
4.1425
42
0.4142136
0
VERTEX
8
0
10
145.4
20
3.6425
0
SEQEND
0
POLYLINE
8
0
6
CONTINUOUS
66
1
70
1
0
VERTEX
8
0
10
183.5
20
-9.3575
42
0.4142136
0
VERTEX
8
0
10
184
20
-9.8575
0
VERTEX
8
0
10
197
20
-9.8575
42
0.4142136
0
VERTEX
8
0
10
197.5
20
-9.3575
0
VERTEX
8
0
10
197.5
20
3.6425
42
0.4142136
0
VERTEX
8
0
10
197
20
4.1425
0
VERTEX
8
0
10
184
20
4.1425
42
0.4142136
0
VERTEX
8
0
10
183.5
20
3.6425
0
SEQEND
0
POLYLINE
8
0
6
CONTINUOUS
66
1
70
1
0
VERTEX
8
0
10
-31.1
20
0.785
42
0.4142136
0
VERTEX
8
0
10
-31.6
20
1.285
0
VERTEX
8
0
10
-44.6
20
1.285
42
0.4142136
0
VERTEX
8
0
10
-45.1
20
0.785
0
VERTEX
8
0
10
-45.1
20
-12.215
42
0.4142136
0
VERTEX
8
0
10
-44.6
20
-12.715
0
VERTEX
8
0
10
-31.6
20
-12.715
42
0.4142136
0
VERTEX
8
0
10
-31.1
20
-12.215
0
SEQEND
0
POLYLINE
8
0
6
CONTINUOUS
66
1
70
1
0
VERTEX
8
0
10
45.1
20
0.785
42
0.4142136
0
VERTEX
8
0
10
44.6
20
1.285
0
VERTEX
8
0
10
31.6
20
1.285
42
0.4142136
0
VERTEX
8
0
10
31.1
20
0.785
0
VERTEX
8
0
10
31.1
20
-12.215
42
0.4142136
0
VERTEX
8
0
10
31.6
20
-12.715
0
VERTEX
8
0
10
44.6
20
-12.715
42
0.4142136
0
VERTEX
8
0
10
45.1
20
-12.215
0
SEQEND
0
POLYLINE
8
0
6
CONTINUOUS
66
1
70
1
0
VERTEX
8
0
10
126.35
20
-12.215
42
0.4142136
0
VERTEX
8
0
10
126.85
20
-12.715
0
VERTEX
8
0
10
139.85
20
-12.715
42
0.4142136
0
VERTEX
8
0
10
140.35
20
-12.215
0
VERTEX
8
0
10
140.35
20
0.785
42
0.4142136
0
VERTEX
8
0
10
139.85
20
1.285
0
VERTEX
8
0
10
126.85
20
1.285
42
0.4142136
0
VERTEX
8
0
10
126.35
20
0.785
0
SEQEND
0
POLYLINE
8
0
6
CONTINUOUS
66
1
70
1
0
VERTEX
8
0
10
202.55
20
-12.215
42
0.4142136
0
VERTEX
8
0
10
203.05
20
-12.715
0
VERTEX
8
0
10
216.05
20
-12.715
42
0.4142136
0
VERTEX
8
0
10
216.55
20
-12.215
0
VERTEX
8
0
10
216.55
20
0.785
42
0.4142136
0
VERTEX
8
0
10
216.05
20
1.285
0
VERTEX
8
0
10
203.05
20
1.285
42
0.4142136
0
VERTEX
8
0
10
202.55
20
0.785
0
SEQEND
0
POLYLINE
8
0
6
CONTINUOUS
66
1
70
1
0
VERTEX
8
0
10
-50.15
20
-3.9775
42
0.4142136
0
VERTEX
8
0
10
-50.65
20
-3.4775
0
VERTEX
8
0
10
-63.65
20
-3.4775
42
0.4142136
0
VERTEX
8
0
10
-64.15
20
-3.9775
0
VERTEX
8
0
10
-64.15
20
-16.9775
42
0.4142136
0
VERTEX
8
0
10
-63.65
20
-17.4775
0
VERTEX
8
0
10
-50.65
20
-17.4775
42
0.4142136
0
VERTEX
8
0
10
-50.15
20
-16.9775
0
SEQEND
0
POLYLINE
8
0
6
CONTINUOUS
66
1
70
1
0
VERTEX
8
0
10
221.6
20
-16.9775
42
0.4142136
0
VERTEX
8
0
10
222.1
20
-17.4775
0
VERTEX
8
0
10
235.1
20
-17.4775
42
0.4142136
0
VERTEX
8
0
10
235.6
20
-16.9775
0
VERTEX
8
0
10
235.6
20
-3.9775
42
0.4142136
0
VERTEX
8
0
10
235.1
20
-3.4775
0
VERTEX
8
0
10
222.1
20
-3.4775
42
0.4142136
0
VERTEX
8
0
10
221.6
20
-3.9775
0
SEQEND
0
POLYLINE
8
0
6
CONTINUOUS
66
1
70
1
0
VERTEX
8
0
10
7
20
-12.55
42
0.4142136
0
VERTEX
8
0
10
6.5
20
-12.05
0
VERTEX
8
0
10
-6.5
20
-12.05
42
0.4142136
0
VERTEX
8
0
10
-7
20
-12.55
0
VERTEX
8
0
10
-7
20
-25.55
42
0.4142136
0
VERTEX
8
0
10
-6.5
20
-26.05
0
VERTEX
8
0
10
6.5
20
-26.05
42
0.4142136
0
VERTEX
8
0
10
7
20
-25.55
0
SEQEND
0
POLYLINE
8
0
6
CONTINUOUS
66
1
70
1
0
VERTEX
8
0
10
164.45
20
-25.55
42
0.4142136
0
VERTEX
8
0
10
164.95
20
-26.05
0
VERTEX
8
0
10
177.95
20
-26.05
42
0.4142136
0
VERTEX
8
0
10
178.45
20
-25.55
0
VERTEX
8
0
10
178.45
20
-12.55
42
0.4142136
0
VERTEX
8
0
10
177.95
20
-12.05
0
VERTEX
8
0
10
164.95
20
-12.05
42
0.4142136
0
VERTEX
8
0
10
164.45
20
-12.55
0
SEQEND
0
POLYLINE
8
0
6
CONTINUOUS
66
1
70
1
0
VERTEX
8
0
10
-12.05
20
-15.4075
42
0.4142136
0
VERTEX
8
0
10
-12.55
20
-14.9075
0
VERTEX
8
0
10
-25.55
20
-14.9075
42
0.4142136
0
VERTEX
8
0
10
-26.05
20
-15.4075
0
VERTEX
8
0
10
-26.05
20
-28.4075
42
0.4142136
0
VERTEX
8
0
10
-25.55
20
-28.9075
0
VERTEX
8
0
10
-12.55
20
-28.9075
42
0.4142136
0
VERTEX
8
0
10
-12.05
20
-28.4075
0
SEQEND
0
POLYLINE
8
0
6
CONTINUOUS
66
1
70
1
0
VERTEX
8
0
10
26.05
20
-15.4075
42
0.4142136
0
VERTEX
8
0
10
25.55
20
-14.9075
0
VERTEX
8
0
10
12.55
20
-14.9075
42
0.4142136
0
VERTEX
8
0
10
12.05
20
-15.4075
0
VERTEX
8
0
10
12.05
20
-28.4075
42
0.4142136
0
VERTEX
8
0
10
12.55
20
-28.9075
0
VERTEX
8
0
10
25.55
20
-28.9075
42
0.4142136
0
VERTEX
8
0
10
26.05
20
-28.4075
0
SEQEND
0
POLYLINE
8
0
6
CONTINUOUS
66
1
70
1
0
VERTEX
8
0
10
145.4
20
-28.4075
42
0.4142136
0
VERTEX
8
0
10
145.9
20
-28.9075
0
VERTEX
8
0
10
158.9
20
-28.9075
42
0.4142136
0
VERTEX
8
0
10
159.4
20
-28.4075
0
VERTEX
8
0
10
159.4
20
-15.4075
42
0.4142136
0
VERTEX
8
0
10
158.9
20
-14.9075
0
VERTEX
8
0
10
145.9
20
-14.9075
42
0.4142136
0
VERTEX
8
0
10
145.4
20
-15.4075
0
SEQEND
0
POLYLINE
8
0
6
CONTINUOUS
66
1
70
1
0
VERTEX
8
0
10
183.5
20
-28.4075
42
0.4142136
0
VERTEX
8
0
10
184
20
-28.9075
0
VERTEX
8
0
10
197
20
-28.9075
42
0.4142136
0
VERTEX
8
0
10
197.5
20
-28.4075
0
VERTEX
8
0
10
197.5
20
-15.4075
42
0.4142136
0
VERTEX
8
0
10
197
20
-14.9075
0
VERTEX
8
0
10
184
20
-14.9075
42
0.4142136
0
VERTEX
8
0
10
183.5
20
-15.4075
0
SEQEND
0
POLYLINE
8
0
6
CONTINUOUS
66
1
70
1
0
VERTEX
8
0
10
-31.1
20
-18.265
42
0.4142136
0
VERTEX
8
0
10
-31.6
20
-17.765
0
VERTEX
8
0
10
-44.6
20
-17.765
42
0.4142136
0
VERTEX
8
0
10
-45.1
20
-18.265
0
VERTEX
8
0
10
-45.1
20
-31.265
42
0.4142136
0
VERTEX
8
0
10
-44.6
20
-31.765
0
VERTEX
8
0
10
-31.6
20
-31.765
42
0.4142136
0
VERTEX
8
0
10
-31.1
20
-31.265
0
SEQEND
0
POLYLINE
8
0
6
CONTINUOUS
66
1
70
1
0
VERTEX
8
0
10
45.1
20
-18.265
42
0.4142136
0
VERTEX
8
0
10
44.6
20
-17.765
0
VERTEX
8
0
10
31.6
20
-17.765
42
0.4142136
0
VERTEX
8
0
10
31.1
20
-18.265
0
VERTEX
8
0
10
31.1
20
-31.265
42
0.4142136
0
VERTEX
8
0
10
31.6
20
-31.765
0
VERTEX
8
0
10
44.6
20
-31.765
42
0.4142136
0
VERTEX
8
0
10
45.1
20
-31.265
0
SEQEND
0
POLYLINE
8
0
6
CONTINUOUS
66
1
70
1
0
VERTEX
8
0
10
126.35
20
-31.265
42
0.4142136
0
VERTEX
8
0
10
126.85
20
-31.765
0
VERTEX
8
0
10
139.85
20
-31.765
42
0.4142136
0
VERTEX
8
0
10
140.35
20
-31.265
0
VERTEX
8
0
10
140.35
20
-18.265
42
0.4142136
0
VERTEX
8
0
10
139.85
20
-17.765
0
VERTEX
8
0
10
126.85
20
-17.765
42
0.4142136
0
VERTEX
8
0
10
126.35
20
-18.265
0
SEQEND
0
POLYLINE
8
0
6
CONTINUOUS
66
1
70
1
0
VERTEX
8
0
10
202.55
20
-31.265
42
0.4142136
0
VERTEX
8
0
10
203.05
20
-31.765
0
VERTEX
8
0
10
216.05
20
-31.765
42
0.4142136
0
VERTEX
8
0
10
216.55
20
-31.265
0
VERTEX
8
0
10
216.55
20
-18.265
42
0.4142136
0
VERTEX
8
0
10
216.05
20
-17.765
0
VERTEX
8
0
10
203.05
20
-17.765
42
0.4142136
0
VERTEX
8
0
10
202.55
20
-18.265
0
SEQEND
0
POLYLINE
8
0
6
CONTINUOUS
66
1
70
1
0
VERTEX
8
0
10
-50.15
20
-23.0275
42
0.4142136
0
VERTEX
8
0
10
-50.65
20
-22.5275
0
VERTEX
8
0
10
-63.65
20
-22.5275
42
0.4142136
0
VERTEX
8
0
10
-64.15
20
-23.0275
0
VERTEX
8
0
10
-64.15
20
-36.0275
42
0.4142136
0
VERTEX
8
0
10
-63.65
20
-36.5275
0
VERTEX
8
0
10
-50.65
20
-36.5275
42
0.4142136
0
VERTEX
8
0
10
-50.15
20
-36.0275
0
SEQEND
0
POLYLINE
8
0
6
CONTINUOUS
66
1
70
1
0
VERTEX
8
0
10
221.6
20
-36.0275
42
0.4142136
0
VERTEX
8
0
10
222.1
20
-36.5275
0
VERTEX
8
0
10
235.1
20
-36.5275
42
0.4142136
0
VERTEX
8
0
10
235.6
20
-36.0275
0
VERTEX
8
0
10
235.6
20
-23.0275
42
0.4142136
0
VERTEX
8
0
10
235.1
20
-22.5275
0
VERTEX
8
0
10
222.1
20
-22.5275
42
0.4142136
0
VERTEX
8
0
10
221.6
20
-23.0275
0
SEQEND
0
POLYLINE
8
0
6
CONTINUOUS
66
1
70
1
0
VERTEX
8
0
10
7
20
-31.6
42
0.4142136
0
VERTEX
8
0
10
6.5
20
-31.1
0
VERTEX
8
0
10
-6.5
20
-31.1
42
0.4142136
0
VERTEX
8
0
10
-7
20
-31.6
0
VERTEX
8
0
10
-7
20
-44.6
42
0.4142136
0
VERTEX
8
0
10
-6.5
20
-45.1
0
VERTEX
8
0
10
6.5
20
-45.1
42
0.4142136
0
VERTEX
8
0
10
7
20
-44.6
0
SEQEND
0
POLYLINE
8
0
6
CONTINUOUS
66
1
70
1
0
VERTEX
8
0
10
164.45
20
-44.6
42
0.4142136
0
VERTEX
8
0
10
164.95
20
-45.1
0
VERTEX
8
0
10
177.95
20
-45.1
42
0.4142136
0
VERTEX
8
0
10
178.45
20
-44.6
0
VERTEX
8
0
10
178.45
20
-31.6
42
0.4142136
0
VERTEX
8
0
10
177.95
20
-31.1
0
VERTEX
8
0
10
164.95
20
-31.1
42
0.4142136
0
VERTEX
8
0
10
164.45
20
-31.6
0
SEQEND
0
POLYLINE
8
0
6
CONTINUOUS
66
1
70
1
0
VERTEX
8
0
10
-12.05
20
-34.4575
42
0.4142136
0
VERTEX
8
0
10
-12.55
20
-33.9575
0
VERTEX
8
0
10
-25.55
20
-33.9575
42
0.4142136
0
VERTEX
8
0
10
-26.05
20
-34.4575
0
VERTEX
8
0
10
-26.05
20
-47.4575
42
0.4142136
0
VERTEX
8
0
10
-25.55
20
-47.9575
0
VERTEX
8
0
10
-12.55
20
-47.9575
42
0.4142136
0
VERTEX
8
0
10
-12.05
20
-47.4575
0
SEQEND
0
POLYLINE
8
0
6
CONTINUOUS
66
1
70
1
0
VERTEX
8
0
10
26.05
20
-34.4575
42
0.4142136
0
VERTEX
8
0
10
25.55
20
-33.9575
0
VERTEX
8
0
10
12.55
20
-33.9575
42
0.4142136
0
VERTEX
8
0
10
12.05
20
-34.4575
0
VERTEX
8
0
10
12.05
20
-47.4575
42
0.4142136
0
VERTEX
8
0
10
12.55
20
-47.9575
0
VERTEX
8
0
10
25.55
20
-47.9575
42
0.4142136
0
VERTEX
8
0
10
26.05
20
-47.4575
0
SEQEND
0
POLYLINE
8
0
6
CONTINUOUS
66
1
70
1
0
VERTEX
8
0
10
145.4
20
-47.4575
42
0.4142136
0
VERTEX
8
0
10
145.9
20
-47.9575
0
VERTEX
8
0
10
158.9
20
-47.9575
42
0.4142136
0
VERTEX
8
0
10
159.4
20
-47.4575
0
VERTEX
8
0
10
159.4
20
-34.4575
42
0.4142136
0
VERTEX
8
0
10
158.9
20
-33.9575
0
VERTEX
8
0
10
145.9
20
-33.9575
42
0.4142136
0
VERTEX
8
0
10
145.4
20
-34.4575
0
SEQEND
0
POLYLINE
8
0
6
CONTINUOUS
66
1
70
1
0
VERTEX
8
0
10
183.5
20
-47.4575
42
0.4142136
0
VERTEX
8
0
10
184
20
-47.9575
0
VERTEX
8
0
10
197
20
-47.9575
42
0.4142136
0
VERTEX
8
0
10
197.5
20
-47.4575
0
VERTEX
8
0
10
197.5
20
-34.4575
42
0.4142136
0
VERTEX
8
0
10
197
20
-33.9575
0
VERTEX
8
0
10
184
20
-33.9575
42
0.4142136
0
VERTEX
8
0
10
183.5
20
-34.4575
0
SEQEND
0
POLYLINE
8
0
6
CONTINUOUS
66
1
70
1
0
VERTEX
8
0
10
-31.1
20
-37.315
42
0.4142136
0
VERTEX
8
0
10
-31.6
20
-36.815
0
VERTEX
8
0
10
-44.6
20
-36.815
42
0.4142136
0
VERTEX
8
0
10
-45.1
20
-37.315
0
VERTEX
8
0
10
-45.1
20
-50.315
42
0.4142136
0
VERTEX
8
0
10
-44.6
20
-50.815
0
VERTEX
8
0
10
-31.6
20
-50.815
42
0.4142136
0
VERTEX
8
0
10
-31.1
20
-50.315
0
SEQEND
0
POLYLINE
8
0
6
CONTINUOUS
66
1
70
1
0
VERTEX
8
0
10
45.1
20
-37.315
42
0.4142136
0
VERTEX
8
0
10
44.6
20
-36.815
0
VERTEX
8
0
10
31.6
20
-36.815
42
0.4142136
0
VERTEX
8
0
10
31.1
20
-37.315
0
VERTEX
8
0
10
31.1
20
-50.315
42
0.4142136
0
VERTEX
8
0
10
31.6
20
-50.815
0
VERTEX
8
0
10
44.6
20
-50.815
42
0.4142136
0
VERTEX
8
0
10
45.1
20
-50.315
0
SEQEND
0
POLYLINE
8
0
6
CONTINUOUS
66
1
70
1
0
VERTEX
8
0
10
126.35
20
-50.315
42
0.4142136
0
VERTEX
8
0
10
126.85
20
-50.815
0
VERTEX
8
0
10
139.85
20
-50.815
42
0.4142136
0
VERTEX
8
0
10
140.35
20
-50.315
0
VERTEX
8
0
10
140.35
20
-37.315
42
0.4142136
0
VERTEX
8
0
10
139.85
20
-36.815
0
VERTEX
8
0
10
126.85
20
-36.815
42
0.4142136
0
VERTEX
8
0
10
126.35
20
-37.315
0
SEQEND
0
POLYLINE
8
0
6
CONTINUOUS
66
1
70
1
0
VERTEX
8
0
10
202.55
20
-50.315
42
0.4142136
0
VERTEX
8
0
10
203.05
20
-50.815
0
VERTEX
8
0
10
216.05
20
-50.815
42
0.4142136
0
VERTEX
8
0
10
216.55
20
-50.315
0
VERTEX
8
0
10
216.55
20
-37.315
42
0.4142136
0
VERTEX
8
0
10
216.05
20
-36.815
0
VERTEX
8
0
10
203.05
20
-36.815
42
0.4142136
0
VERTEX
8
0
10
202.55
20
-37.315
0
SEQEND
0
POLYLINE
8
0
6
CONTINUOUS
66
1
70
1
0
VERTEX
8
0
10
-50.15
20
-42.0775
42
0.4142136
0
VERTEX
8
0
10
-50.65
20
-41.5775
0
VERTEX
8
0
10
-63.65
20
-41.5775
42
0.4142136
0
VERTEX
8
0
10
-64.15
20
-42.0775
0
VERTEX
8
0
10
-64.15
20
-55.0775
42
0.4142136
0
VERTEX
8
0
10
-63.65
20
-55.5775
0
VERTEX
8
0
10
-50.65
20
-55.5775
42
0.4142136
0
VERTEX
8
0
10
-50.15
20
-55.0775
0
SEQEND
0
POLYLINE
8
0
6
CONTINUOUS
66
1
70
1
0
VERTEX
8
0
10
221.6
20
-55.0775
42
0.4142136
0
VERTEX
8
0
10
222.1
20
-55.5775
0
VERTEX
8
0
10
235.1
20
-55.5775
42
0.4142136
0
VERTEX
8
0
10
235.6
20
-55.0775
0
VERTEX
8
0
10
235.6
20
-42.0775
42
0.4142136
0
VERTEX
8
0
10
235.1
20
-41.5775
0
VERTEX
8
0
10
222.1
20
-41.5775
42
0.4142136
0
VERTEX
8
0
10
221.6
20
-42.0775
0
SEQEND
0
POLYLINE
8
0
6
CONTINUOUS
66
1
70
1
0
VERTEX
8
0
10
7
20
-50.65
42
0.4142136
0
VERTEX
8
0
10
6.5
20
-50.15
0
VERTEX
8
0
10
-6.5
20
-50.15
42
0.4142136
0
VERTEX
8
0
10
-7
20
-50.65
0
VERTEX
8
0
10
-7
20
-63.65
42
0.4142136
0
VERTEX
8
0
10
-6.5
20
-64.15
0
VERTEX
8
0
10
6.5
20
-64.15
42
0.4142136
0
VERTEX
8
0
10
7
20
-63.65
0
SEQEND
0
POLYLINE
8
0
6
CONTINUOUS
66
1
70
1
0
VERTEX
8
0
10
164.45
20
-63.65
42
0.4142136
0
VERTEX
8
0
10
164.95
20
-64.15
0
VERTEX
8
0
10
177.95
20
-64.15
42
0.4142136
0
VERTEX
8
0
10
178.45
20
-63.65
0
VERTEX
8
0
10
178.45
20
-50.65
42
0.4142136
0
VERTEX
8
0
10
177.95
20
-50.15
0
VERTEX
8
0
10
164.95
20
-50.15
42
0.4142136
0
VERTEX
8
0
10
164.45
20
-50.65
0
SEQEND
0
POLYLINE
8
0
6
CONTINUOUS
66
1
70
1
0
VERTEX
8
0
10
-12.05
20
-53.5075
42
0.4142136
0
VERTEX
8
0
10
-12.55
20
-53.0075
0
VERTEX
8
0
10
-25.55
20
-53.0075
42
0.4142136
0
VERTEX
8
0
10
-26.05
20
-53.5075
0
VERTEX
8
0
10
-26.05
20
-66.5075
42
0.4142136
0
VERTEX
8
0
10
-25.55
20
-67.0075
0
VERTEX
8
0
10
-12.55
20
-67.0075
42
0.4142136
0
VERTEX
8
0
10
-12.05
20
-66.5075
0
SEQEND
0
POLYLINE
8
0
6
CONTINUOUS
66
1
70
1
0
VERTEX
8
0
10
26.05
20
-53.5075
42
0.4142136
0
VERTEX
8
0
10
25.55
20
-53.0075
0
VERTEX
8
0
10
12.55
20
-53.0075
42
0.4142136
0
VERTEX
8
0
10
12.05
20
-53.5075
0
VERTEX
8
0
10
12.05
20
-66.5075
42
0.4142136
0
VERTEX
8
0
10
12.55
20
-67.0075
0
VERTEX
8
0
10
25.55
20
-67.0075
42
0.4142136
0
VERTEX
8
0
10
26.05
20
-66.5075
0
SEQEND
0
POLYLINE
8
0
6
CONTINUOUS
66
1
70
1
0
VERTEX
8
0
10
145.4
20
-66.5075
42
0.4142136
0
VERTEX
8
0
10
145.9
20
-67.0075
0
VERTEX
8
0
10
158.9
20
-67.0075
42
0.4142136
0
VERTEX
8
0
10
159.4
20
-66.5075
0
VERTEX
8
0
10
159.4
20
-53.5075
42
0.4142136
0
VERTEX
8
0
10
158.9
20
-53.0075
0
VERTEX
8
0
10
145.9
20
-53.0075
42
0.4142136
0
VERTEX
8
0
10
145.4
20
-53.5075
0
SEQEND
0
POLYLINE
8
0
6
CONTINUOUS
66
1
70
1
0
VERTEX
8
0
10
183.5
20
-66.5075
42
0.4142136
0
VERTEX
8
0
10
184
20
-67.0075
0
VERTEX
8
0
10
197
20
-67.0075
42
0.4142136
0
VERTEX
8
0
10
197.5
20
-66.5075
0
VERTEX
8
0
10
197.5
20
-53.5075
42
0.4142136
0
VERTEX
8
0
10
197
20
-53.0075
0
VERTEX
8
0
10
184
20
-53.0075
42
0.4142136
0
VERTEX
8
0
10
183.5
20
-53.5075
0
SEQEND
0
POLYLINE
8
0
6
CONTINUOUS
66
1
70
1
0
VERTEX
8
0
10
126.35
20
-69.365
42
0.4142136
0
VERTEX
8
0
10
126.85
20
-69.865
0
VERTEX
8
0
10
139.85
20
-69.865
42
0.4142136
0
VERTEX
8
0
10
140.35
20
-69.365
0
VERTEX
8
0
10
140.35
20
-56.365
42
0.4142136
0
VERTEX
8
0
10
139.85
20
-55.865
0
VERTEX
8
0
10
126.85
20
-55.865
42
0.4142136
0
VERTEX
8
0
10
126.35
20
-56.365
0
SEQEND
0
POLYLINE
8
0
6
CONTINUOUS
66
1
70
1
0
VERTEX
8
0
10
202.55
20
-69.365
42
0.4142136
0
VERTEX
8
0
10
203.05
20
-69.865
0
VERTEX
8
0
10
216.05
20
-69.865
42
0.4142136
0
VERTEX
8
0
10
216.55
20
-69.365
0
VERTEX
8
0
10
216.55
20
-56.365
42
0.4142136
0
VERTEX
8
0
10
216.05
20
-55.865
0
VERTEX
8
0
10
203.05
20
-55.865
42
0.4142136
0
VERTEX
8
0
10
202.55
20
-56.365
0
SEQEND
0
POLYLINE
8
0
6
CONTINUOUS
66
1
70
1
0
VERTEX
8
0
10
-31.1
20
-56.365
42
0.4142136
0
VERTEX
8
0
10
-31.6
20
-55.865
0
VERTEX
8
0
10
-44.6
20
-55.865
42
0.4142136
0
VERTEX
8
0
10
-45.1
20
-56.365
0
VERTEX
8
0
10
-45.1
20
-69.365
42
0.4142136
0
VERTEX
8
0
10
-44.6
20
-69.865
0
VERTEX
8
0
10
-31.6
20
-69.865
42
0.4142136
0
VERTEX
8
0
10
-31.1
20
-69.365
0
SEQEND
0
POLYLINE
8
0
6
CONTINUOUS
66
1
70
1
0
VERTEX
8
0
10
45.1
20
-56.365
42
0.4142136
0
VERTEX
8
0
10
44.6
20
-55.865
0
VERTEX
8
0
10
31.6
20
-55.865
42
0.4142136
0
VERTEX
8
0
10
31.1
20
-56.365
0
VERTEX
8
0
10
31.1
20
-69.365
42
0.4142136
0
VERTEX
8
0
10
31.6
20
-69.865
0
VERTEX
8
0
10
44.6
20
-69.865
42
0.4142136
0
VERTEX
8
0
10
45.1
20
-69.365
0
SEQEND
0
POLYLINE
8
0
6
CONTINUOUS
66
1
70
1
0
VERTEX
8
0
10
-50.15
20
-61.1275
42
0.4142136
0
VERTEX
8
0
10
-50.65
20
-60.6275
0
VERTEX
8
0
10
-63.65
20
-60.6275
42
0.4142136
0
VERTEX
8
0
10
-64.15
20
-61.1275
0
VERTEX
8
0
10
-64.15
20
-74.1275
42
0.4142136
0
VERTEX
8
0
10
-63.65
20
-74.6275
0
VERTEX
8
0
10
-50.65
20
-74.6275
42
0.4142136
0
VERTEX
8
0
10
-50.15
20
-74.1275
0
SEQEND
0
POLYLINE
8
0
6
CONTINUOUS
66
1
70
1
0
VERTEX
8
0
10
221.6
20
-74.1275
42
0.4142136
0
VERTEX
8
0
10
222.1
20
-74.6275
0
VERTEX
8
0
10
235.1
20
-74.6275
42
0.4142136
0
VERTEX
8
0
10
235.6
20
-74.1275
0
VERTEX
8
0
10
235.6
20
-61.1275
42
0.4142136
0
VERTEX
8
0
10
235.1
20
-60.6275
0
VERTEX
8
0
10
222.1
20
-60.6275
42
0.4142136
0
VERTEX
8
0
10
221.6
20
-61.1275
0
SEQEND
0
POLYLINE
8
0
6
CONTINUOUS
66
1
70
1
0
VERTEX
8
0
10
2.2375
20
-72.5575
42
0.4142136
0
VERTEX
8
0
10
1.7375
20
-72.0575
0
VERTEX
8
0
10
-11.2625
20
-72.0575
42
0.4142136
0
VERTEX
8
0
10
-11.7625
20
-72.5575
0
VERTEX
8
0
10
-11.7625
20
-85.5575
42
0.4142136
0
VERTEX
8
0
10
-11.2625
20
-86.0575
0
VERTEX
8
0
10
1.7375
20
-86.0575
42
0.4142136
0
VERTEX
8
0
10
2.2375
20
-85.5575
0
SEQEND
0
POLYLINE
8
0
6
CONTINUOUS
66
1
70
1
0
VERTEX
8
0
10
21.2875
20
-72.5575
42
0.4142136
0
VERTEX
8
0
10
20.7875
20
-72.0575
0
VERTEX
8
0
10
7.7875
20
-72.0575
42
0.4142136
0
VERTEX
8
0
10
7.2875
20
-72.5575
0
VERTEX
8
0
10
7.2875
20
-85.5575
42
0.4142136
0
VERTEX
8
0
10
7.7875
20
-86.0575
0
VERTEX
8
0
10
20.7875
20
-86.0575
42
0.4142136
0
VERTEX
8
0
10
21.2875
20
-85.5575
0
SEQEND
0
POLYLINE
8
0
6
CONTINUOUS
66
1
70
1
0
VERTEX
8
0
10
150.1625
20
-85.5575
42
0.4142136
0
VERTEX
8
0
10
150.6625
20
-86.0575
0
VERTEX
8
0
10
163.6625
20
-86.0575
42
0.4142136
0
VERTEX
8
0
10
164.1625
20
-85.5575
0
VERTEX
8
0
10
164.1625
20
-72.5575
42
0.4142136
0
VERTEX
8
0
10
163.6625
20
-72.0575
0
VERTEX
8
0
10
150.6625
20
-72.0575
42
0.4142136
0
VERTEX
8
0
10
150.1625
20
-72.5575
0
SEQEND
0
POLYLINE
8
0
6
CONTINUOUS
66
1
70
1
0
VERTEX
8
0
10
169.2125
20
-85.5575
42
0.4142136
0
VERTEX
8
0
10
169.7125
20
-86.0575
0
VERTEX
8
0
10
182.7125
20
-86.0575
42
0.4142136
0
VERTEX
8
0
10
183.2125
20
-85.5575
0
VERTEX
8
0
10
183.2125
20
-72.5575
42
0.4142136
0
VERTEX
8
0
10
182.7125
20
-72.0575
0
VERTEX
8
0
10
169.7125
20
-72.0575
42
0.4142136
0
VERTEX
8
0
10
169.2125
20
-72.5575
0
SEQEND
0
POLYLINE
8
0
6
CONTINUOUS
66
1
70
1
0
VERTEX
8
0
10
-16.8125
20
-75.415
42
0.4142136
0
VERTEX
8
0
10
-17.3125
20
-74.915
0
VERTEX
8
0
10
-30.3125
20
-74.915
42
0.4142136
0
VERTEX
8
0
10
-30.8125
20
-75.415
0
VERTEX
8
0
10
-30.8125
20
-88.415
42
0.4142136
0
VERTEX
8
0
10
-30.3125
20
-88.915
0
VERTEX
8
0
10
-17.3125
20
-88.915
42
0.4142136
0
VERTEX
8
0
10
-16.8125
20
-88.415
0
SEQEND
0
POLYLINE
8
0
6
CONTINUOUS
66
1
70
1
0
VERTEX
8
0
10
188.2625
20
-88.415
42
0.4142136
0
VERTEX
8
0
10
188.7625
20
-88.915
0
VERTEX
8
0
10
201.7625
20
-88.915
42
0.4142136
0
VERTEX
8
0
10
202.2625
20
-88.415
0
VERTEX
8
0
10
202.2625
20
-75.415
42
0.4142136
0
VERTEX
8
0
10
201.7625
20
-74.915
0
VERTEX
8
0
10
188.7625
20
-74.915
42
0.4142136
0
VERTEX
8
0
10
188.2625
20
-75.415
0
SEQEND
0
POLYLINE
8
0
6
CONTINUOUS
66
1
70
1
0
VERTEX
8
0
10
108.6394842
20
-106.4368071
42
0.4142136
0
VERTEX
8
0
10
109.3224969
20
-106.6198198
0
VERTEX
8
0
10
120.5808271
20
-100.1198198
42
0.4142136
0
VERTEX
8
0
10
120.7638398
20
-99.4368071
0
VERTEX
8
0
10
114.2638398
20
-88.1784769
42
0.4142136
0
VERTEX
8
0
10
113.5808271
20
-87.9954642
0
VERTEX
8
0
10
102.3224969
20
-94.4954642
42
0.4142136
0
VERTEX
8
0
10
102.1394842
20
-95.1784769
0
SEQEND
0
POLYLINE
8
0
6
CONTINUOUS
66
1
70
1
0
VERTEX
8
0
10
69.3105148
20
-95.1784826
42
0.4142136
0
VERTEX
8
0
10
69.1275021
20
-94.4954699
0
VERTEX
8
0
10
57.8691719
20
-87.9954699
42
0.4142136
0
VERTEX
8
0
10
57.1861592
20
-88.1784826
0
VERTEX
8
0
10
50.6861592
20
-99.4368127
42
0.4142136
0
VERTEX
8
0
10
50.8691719
20
-100.1198255
0
VERTEX
8
0
10
62.1275021
20
-106.6198255
42
0.4142136
0
VERTEX
8
0
10
62.8105148
20
-106.4368127
0
SEQEND
0
POLYLINE
8
outline
6
CONTINUOUS
66
1
70
1
0
VERTEX
8
outline
10
-69.15
20
-110.6868127
42
0.4142136
0
VERTEX
8
outline
10
-68.15
20
-111.6868127
0
VERTEX
8
outline
10
239.6
20
-111.6868127
42
0.4142136
0
VERTEX
8
outline
10
240.6
20
-110.6868127
0
VERTEX
8
outline
10
240.6
20
11
42
0.4142136
0
VERTEX
8
outline
10
239.6
20
12
0
VERTEX
8
outline
10
-68.15
20
12
42
0.4142136
0
VERTEX
8
outline
10
-69.15
20
11
0
SEQEND
0
ENDSEC
0
EOF