999
"DXF R12 Output" (www.mydxf.blogspot.com)
 0 
SECTION
 2 
HEADER
 9 
$ACADVER
 1 
AC1009
 9 
$EXTMIN
 10 
 0 
 20 
 0 
 9 
$EXTMAX
 10 
 8.5 
 20 
 11 
 0 
ENDSEC
 0 
SECTION
 2 
ENTITIES
0
POLYLINE
8
BLACK
62
7
70
0
10
0.000000
20
0.000000
66
1
0
VERTEX
8
BLACK
10
8.643359
20
201.985104
70
0
0
VERTEX
8
BLACK
10
8.239463
20
201.964652
70
0
0
SEQEND
8
BLACK
0
POLYLINE
8
BLACK
62
7
70
0
10
0.000000
20
0.000000
66
1
0
VERTEX
8
BLACK
10
89.328383
20
190.513338
70
0
0
VERTEX
8
BLACK
10
89.066582
20
191.932606
70
0
0
VERTEX
8
BLACK
10
88.345473
20
193.133863
70
0
0
VERTEX
8
BLACK
10
87.255089
20
194.013680
70
0
0
VERTEX
8
BLACK
10
85.885459
20
194.468627
70
0
0
SEQEND
8
BLACK
0
POLYLINE
8
BLACK
62
7
70
0
10
0.000000
20
0.000000
66
1
0
VERTEX
8
BLACK
10
32.718014
20
201.947311
70
0
0
VERTEX
8
BLACK
10
85.885438
20
194.467550
70
0
0
SEQEND
8
BLACK
0
POLYLINE
8
BLACK
62
7
70
0
10
0.000000
20
0.000000
66
1
0
VERTEX
8
BLACK
10
36.711854
20
95.907554
70
0
0
VERTEX
8
BLACK
10
35.927390
20
95.985235
70
0
0
SEQEND
8
BLACK
0
POLYLINE
8
BLACK
62
7
70
0
10
0.000000
20
0.000000
66
1
0
VERTEX
8
BLACK
10
35.927405
20
95.984465
70
0
0
VERTEX
8
BLACK
10
-12.772534
20
95.984465
70
0
0
SEQEND
8
BLACK
0
POLYLINE
8
BLACK
62
7
70
0
10
0.000000
20
0.000000
66
1
0
VERTEX
8
BLACK
10
-15.877151
20
97.463484
70
0
0
VERTEX
8
BLACK
10
-26.475818
20
110.507426
70
0
0
SEQEND
8
BLACK
0
POLYLINE
8
BLACK
62
7
70
0
10
0.000000
20
0.000000
66
1
0
VERTEX
8
BLACK
10
-50.676431
20
115.985210
70
0
0
VERTEX
8
BLACK
10
-50.598862
20
115.201204
70
0
0
VERTEX
8
BLACK
10
-50.371949
20
114.454476
70
0
0
VERTEX
8
BLACK
10
-50.004384
20
113.766008
70
0
0
VERTEX
8
BLACK
10
-49.504857
20
113.156783
70
0
0
VERTEX
8
BLACK
10
-48.895631
20
112.657258
70
0
0
VERTEX
8
BLACK
10
-48.207163
20
112.289694
70
0
0
VERTEX
8
BLACK
10
-47.460434
20
112.062783
70
0
0
VERTEX
8
BLACK
10
-46.676428
20
111.985215
70
0
0
SEQEND
8
BLACK
0
POLYLINE
8
BLACK
62
7
70
0
10
0.000000
20
0.000000
66
1
0
VERTEX
8
BLACK
10
91.391411
20
102.374145
70
0
0
VERTEX
8
BLACK
10
82.957034
20
87.806205
70
0
0
SEQEND
8
BLACK
0
POLYLINE
8
BLACK
62
7
70
0
10
0.000000
20
0.000000
66
1
0
VERTEX
8
BLACK
10
-26.475868
20
110.507598
70
0
0
VERTEX
8
BLACK
10
-27.112000
20
111.132855
70
0
0
VERTEX
8
BLACK
10
-27.861247
20
111.596964
70
0
0
VERTEX
8
BLACK
10
-28.693921
20
111.885794
70
0
0
VERTEX
8
BLACK
10
-29.580332
20
111.985215
70
0
0
SEQEND
8
BLACK
0
POLYLINE
8
BLACK
62
7
70
0
10
0.000000
20
0.000000
66
1
0
VERTEX
8
BLACK
10
206.641913
20
97.463484
70
0
0
VERTEX
8
BLACK
10
217.241108
20
110.507426
70
0
0
SEQEND
8
BLACK
0
POLYLINE
8
BLACK
62
7
70
0
10
0.000000
20
0.000000
66
1
0
VERTEX
8
BLACK
10
-50.676431
20
115.984294
70
0
0
VERTEX
8
BLACK
10
-50.676431
20
192.369406
70
0
0
SEQEND
8
BLACK
0
POLYLINE
8
BLACK
62
7
70
0
10
0.000000
20
0.000000
66
1
0
VERTEX
8
BLACK
10
-29.580435
20
111.986445
70
0
0
VERTEX
8
BLACK
10
-46.676466
20
111.986445
70
0
0
SEQEND
8
BLACK
0
POLYLINE
8
BLACK
62
7
70
0
10
0.000000
20
0.000000
66
1
0
VERTEX
8
BLACK
10
66.079284
20
90.033994
70
0
0
VERTEX
8
BLACK
10
36.711894
20
95.907736
70
0
0
SEQEND
8
BLACK
0
POLYLINE
8
BLACK
62
7
70
0
10
0.000000
20
0.000000
66
1
0
VERTEX
8
BLACK
10
-47.080325
20
196.350084
70
0
0
VERTEX
8
BLACK
10
-48.503788
20
195.929503
70
0
0
VERTEX
8
BLACK
10
-49.644216
20
195.052360
70
0
0
VERTEX
8
BLACK
10
-50.401723
20
193.829192
70
0
0
VERTEX
8
BLACK
10
-50.676423
20
192.370536
70
0
0
SEQEND
8
BLACK
0
POLYLINE
8
BLACK
62
7
70
0
10
0.000000
20
0.000000
66
1
0
VERTEX
8
BLACK
10
89.676648
20
111.330279
70
0
0
VERTEX
8
BLACK
10
91.692771
20
105.734349
70
0
0
SEQEND
8
BLACK
0
POLYLINE
8
BLACK
62
7
70
0
10
0.000000
20
0.000000
66
1
0
VERTEX
8
BLACK
10
66.559680
20
89.906489
70
0
0
VERTEX
8
BLACK
10
66.079236
20
90.034081
70
0
0
SEQEND
8
BLACK
0
POLYLINE
8
BLACK
62
7
70
0
10
0.000000
20
0.000000
66
1
0
VERTEX
8
BLACK
10
112.533709
20
86.014978
70
0
0
VERTEX
8
BLACK
10
124.204465
20
89.906994
70
0
0
SEQEND
8
BLACK
0
POLYLINE
8
BLACK
62
7
70
0
10
0.000000
20
0.000000
66
1
0
VERTEX
8
BLACK
10
241.439869
20
115.984294
70
0
0
VERTEX
8
BLACK
10
241.439869
20
192.369406
70
0
0
SEQEND
8
BLACK
0
POLYLINE
8
BLACK
62
7
70
0
10
0.000000
20
0.000000
66
1
0
VERTEX
8
BLACK
10
8.643343
20
201.984353
70
0
0
VERTEX
8
BLACK
10
32.161066
20
201.984353
70
0
0
SEQEND
8
BLACK
0
POLYLINE
8
BLACK
62
7
70
0
10
0.000000
20
0.000000
66
1
0
VERTEX
8
BLACK
10
182.524715
20
201.964662
70
0
0
VERTEX
8
BLACK
10
182.120819
20
201.985088
70
0
0
SEQEND
8
BLACK
0
POLYLINE
8
BLACK
62
7
70
0
10
0.000000
20
0.000000
66
1
0
VERTEX
8
BLACK
10
104.878719
20
194.468608
70
0
0
VERTEX
8
BLACK
10
103.509095
20
194.013665
70
0
0
VERTEX
8
BLACK
10
102.418713
20
193.133853
70
0
0
VERTEX
8
BLACK
10
101.697607
20
191.932601
70
0
0
VERTEX
8
BLACK
10
101.435807
20
190.513338
70
0
0
SEQEND
8
BLACK
0
POLYLINE
8
BLACK
62
7
70
0
10
0.000000
20
0.000000
66
1
0
VERTEX
8
BLACK
10
-15.877036
20
97.462868
70
0
0
VERTEX
8
BLACK
10
-15.240913
20
96.837603
70
0
0
VERTEX
8
BLACK
10
-14.491671
20
96.373488
70
0
0
VERTEX
8
BLACK
10
-13.658999
20
96.084655
70
0
0
VERTEX
8
BLACK
10
-12.772588
20
95.985235
70
0
0
SEQEND
8
BLACK
0
POLYLINE
8
BLACK
62
7
70
0
10
0.000000
20
0.000000
66
1
0
VERTEX
8
BLACK
10
220.344667
20
111.986445
70
0
0
VERTEX
8
BLACK
10
237.439374
20
111.986445
70
0
0
SEQEND
8
BLACK
0
POLYLINE
8
BLACK
62
7
70
0
10
0.000000
20
0.000000
66
1
0
VERTEX
8
BLACK
10
237.844186
20
196.351381
70
0
0
VERTEX
8
BLACK
10
182.525173
20
201.965832
70
0
0
SEQEND
8
BLACK
0
POLYLINE
8
BLACK
62
7
70
0
10
0.000000
20
0.000000
66
1
0
VERTEX
8
BLACK
10
182.120361
20
201.984353
70
0
0
VERTEX
8
BLACK
10
158.604224
20
201.984353
70
0
0
SEQEND
8
BLACK
0
POLYLINE
8
BLACK
62
7
70
0
10
0.000000
20
0.000000
66
1
0
VERTEX
8
BLACK
10
101.087584
20
111.330279
70
0
0
VERTEX
8
BLACK
10
99.071461
20
105.734349
70
0
0
SEQEND
8
BLACK
0
POLYLINE
8
BLACK
62
7
70
0
10
0.000000
20
0.000000
66
1
0
VERTEX
8
BLACK
10
154.836787
20
95.985243
70
0
0
VERTEX
8
BLACK
10
154.052322
20
95.907559
70
0
0
SEQEND
8
BLACK
0
POLYLINE
8
BLACK
62
7
70
0
10
0.000000
20
0.000000
66
1
0
VERTEX
8
BLACK
10
237.440605
20
111.985215
70
0
0
VERTEX
8
BLACK
10
238.224609
20
112.062784
70
0
0
VERTEX
8
BLACK
10
238.971337
20
112.289696
70
0
0
VERTEX
8
BLACK
10
239.659804
20
112.657261
70
0
0
VERTEX
8
BLACK
10
240.269028
20
113.156786
70
0
0
VERTEX
8
BLACK
10
240.768554
20
113.766011
70
0
0
VERTEX
8
BLACK
10
241.136118
20
114.454478
70
0
0
VERTEX
8
BLACK
10
241.363031
20
115.201205
70
0
0
VERTEX
8
BLACK
10
241.440600
20
115.985210
70
0
0
SEQEND
8
BLACK
0
POLYLINE
8
BLACK
62
7
70
0
10
0.000000
20
0.000000
66
1
0
VERTEX
8
BLACK
10
101.435775
20
190.512034
70
0
0
VERTEX
8
BLACK
10
101.324386
20
112.679653
70
0
0
SEQEND
8
BLACK
0
POLYLINE
8
BLACK
62
7
70
0
10
0.000000
20
0.000000
66
1
0
VERTEX
8
BLACK
10
89.439809
20
112.680931
70
0
0
VERTEX
8
BLACK
10
89.676632
20
111.330692
70
0
0
SEQEND
8
BLACK
0
POLYLINE
8
BLACK
62
7
70
0
10
0.000000
20
0.000000
66
1
0
VERTEX
8
BLACK
10
91.391313
20
102.375277
70
0
0
VERTEX
8
BLACK
10
91.743968
20
103.174893
70
0
0
VERTEX
8
BLACK
10
91.913605
20
104.021992
70
0
0
VERTEX
8
BLACK
10
91.897461
20
104.885759
70
0
0
VERTEX
8
BLACK
10
91.692771
20
105.735378
70
0
0
SEQEND
8
BLACK
0
POLYLINE
8
BLACK
62
7
70
0
10
0.000000
20
0.000000
66
1
0
VERTEX
8
BLACK
10
158.603218
20
201.985101
70
0
0
VERTEX
8
BLACK
10
158.046139
20
201.946120
70
0
0
SEQEND
8
BLACK
0
POLYLINE
8
BLACK
62
7
70
0
10
0.000000
20
0.000000
66
1
0
VERTEX
8
BLACK
10
124.684942
20
90.034078
70
0
0
VERTEX
8
BLACK
10
124.204497
20
89.906494
70
0
0
SEQEND
8
BLACK
0
POLYLINE
8
BLACK
62
7
70
0
10
0.000000
20
0.000000
66
1
0
VERTEX
8
BLACK
10
78.230258
20
86.014978
70
0
0
VERTEX
8
BLACK
10
66.559767
20
89.906994
70
0
0
SEQEND
8
BLACK
0
POLYLINE
8
BLACK
62
7
70
0
10
0.000000
20
0.000000
66
1
0
VERTEX
8
BLACK
10
124.684948
20
90.033994
70
0
0
VERTEX
8
BLACK
10
154.053396
20
95.907736
70
0
0
SEQEND
8
BLACK
0
POLYLINE
8
BLACK
62
7
70
0
10
0.000000
20
0.000000
66
1
0
VERTEX
8
BLACK
10
99.372821
20
102.374145
70
0
0
VERTEX
8
BLACK
10
107.807198
20
87.806205
70
0
0
SEQEND
8
BLACK
0
POLYLINE
8
BLACK
62
7
70
0
10
0.000000
20
0.000000
66
1
0
VERTEX
8
BLACK
10
78.230356
20
86.016256
70
0
0
VERTEX
8
BLACK
10
79.594861
20
85.811809
70
0
0
VERTEX
8
BLACK
10
80.912304
20
86.070444
70
0
0
VERTEX
8
BLACK
10
82.070426
20
86.749634
70
0
0
VERTEX
8
BLACK
10
82.956970
20
87.806853
70
0
0
SEQEND
8
BLACK
0
POLYLINE
8
BLACK
62
7
70
0
10
0.000000
20
0.000000
66
1
0
VERTEX
8
BLACK
10
89.328457
20
190.512034
70
0
0
VERTEX
8
BLACK
10
89.439846
20
112.679653
70
0
0
SEQEND
8
BLACK
0
POLYLINE
8
BLACK
62
7
70
0
10
0.000000
20
0.000000
66
1
0
VERTEX
8
BLACK
10
99.071398
20
105.735381
70
0
0
VERTEX
8
BLACK
10
98.866706
20
104.885760
70
0
0
VERTEX
8
BLACK
10
98.850562
20
104.021990
70
0
0
VERTEX
8
BLACK
10
99.020201
20
103.174889
70
0
0
VERTEX
8
BLACK
10
99.372858
20
102.375272
70
0
0
SEQEND
8
BLACK
0
POLYLINE
8
BLACK
62
7
70
0
10
0.000000
20
0.000000
66
1
0
VERTEX
8
BLACK
10
107.807143
20
87.806816
70
0
0
VERTEX
8
BLACK
10
108.693696
20
86.749581
70
0
0
VERTEX
8
BLACK
10
109.851837
20
86.070392
70
0
0
VERTEX
8
BLACK
10
111.169300
20
85.811777
70
0
0
VERTEX
8
BLACK
10
112.533817
20
86.016266
70
0
0
SEQEND
8
BLACK
0
POLYLINE
8
BLACK
62
7
70
0
10
0.000000
20
0.000000
66
1
0
VERTEX
8
BLACK
10
241.440623
20
192.370536
70
0
0
VERTEX
8
BLACK
10
241.165916
20
193.829195
70
0
0
VERTEX
8
BLACK
10
240.408403
20
195.052363
70
0
0
VERTEX
8
BLACK
10
239.267969
20
195.929506
70
0
0
VERTEX
8
BLACK
10
237.844501
20
196.350087
70
0
0
SEQEND
8
BLACK
0
POLYLINE
8
BLACK
62
7
70
0
10
0.000000
20
0.000000
66
1
0
VERTEX
8
BLACK
10
203.536765
20
95.985222
70
0
0
VERTEX
8
BLACK
10
204.423177
20
96.084643
70
0
0
VERTEX
8
BLACK
10
205.255851
20
96.373478
70
0
0
VERTEX
8
BLACK
10
206.005094
20
96.837595
70
0
0
VERTEX
8
BLACK
10
206.641217
20
97.462863
70
0
0
SEQEND
8
BLACK
0
POLYLINE
8
BLACK
62
7
70
0
10
0.000000
20
0.000000
66
1
0
VERTEX
8
BLACK
10
220.344508
20
111.985228
70
0
0
VERTEX
8
BLACK
10
219.458095
20
111.885807
70
0
0
VERTEX
8
BLACK
10
218.625422
20
111.596972
70
0
0
VERTEX
8
BLACK
10
217.876179
20
111.132855
70
0
0
VERTEX
8
BLACK
10
217.240055
20
110.507588
70
0
0
SEQEND
8
BLACK
0
POLYLINE
8
BLACK
62
7
70
0
10
0.000000
20
0.000000
66
1
0
VERTEX
8
BLACK
10
158.045954
20
201.947311
70
0
0
VERTEX
8
BLACK
10
104.878794
20
194.467550
70
0
0
SEQEND
8
BLACK
0
POLYLINE
8
BLACK
62
7
70
0
10
0.000000
20
0.000000
66
1
0
VERTEX
8
BLACK
10
-47.080219
20
196.351381
70
0
0
VERTEX
8
BLACK
10
8.239589
20
201.965832
70
0
0
SEQEND
8
BLACK
0
POLYLINE
8
BLACK
62
7
70
0
10
0.000000
20
0.000000
66
1
0
VERTEX
8
BLACK
10
154.836562
20
95.984465
70
0
0
VERTEX
8
BLACK
10
203.535709
20
95.984465
70
0
0
SEQEND
8
BLACK
0
POLYLINE
8
BLACK
62
7
70
0
10
0.000000
20
0.000000
66
1
0
VERTEX
8
BLACK
10
32.718037
20
201.946120
70
0
0
VERTEX
8
BLACK
10
32.160958
20
201.985101
70
0
0
SEQEND
8
BLACK
0
POLYLINE
8
BLACK
62
7
70
0
10
0.000000
20
0.000000
66
1
0
VERTEX
8
BLACK
10
101.087557
20
111.330687
70
0
0
VERTEX
8
BLACK
10
101.324383
20
112.680931
70
0
0
SEQEND
8
BLACK
 0 
ENDSEC
 0 
EOF