  0
SECTION
  2
HEADER
  9
$ACADVER
  1
AC1014
  9
$HANDSEED
  5
FFFF
  9
$INSUNITS
 70
     0
  9
$MEASUREMENT
 70
     1
  0
ENDSEC
  0
SECTION
  2
TABLES
  0
TABLE
  2
VPORT
  5
8
330
0
100
AcDbSymbolTable
 70
     4
  0
VPORT
  5
2E
330
8
100
AcDbSymbolTableRecord
100
AcDbViewportTableRecord
  2
*ACTIVE
 70
     0
 10
0.0
 20
0.0
 11
1.0
 21
1.0
 12
210.0
 22
148.5
 13
0.0
 23
0.0
 14
10.0
 24
10.0
 15
10.0
 25
10.0
 16
0.0
 26
0.0
 36
1.0
 17
0.0
 27
0.0
 37
0.0
 40
341.0
 41
1.24
 42
50.0
 43
0.0
 44
0.0
 50
0.0
 51
0.0
 71
     0
 72
   100
 73
     1
 74
     3
 75
     0
 76
     0
 77
     0
 78
     0
  0
ENDTAB
  0
TABLE
  2
LTYPE
  5
5
330
0
100
AcDbSymbolTable
 70
     1
  0
LTYPE
  5
14
330
5
100
AcDbSymbolTableRecord
100
AcDbLinetypeTableRecord
  2
BYBLOCK
 70
     0
  3

 72
    65
 73
     0
 40
0.0
  0
LTYPE
  5
15
330
5
100
AcDbSymbolTableRecord
100
AcDbLinetypeTableRecord
  2
BYLAYER
 70
     0
  3

 72
    65
 73
     0
 40
0.0
  0
LTYPE
  5
16
330
5
100
AcDbSymbolTableRecord
100
AcDbLinetypeTableRecord
  2
CONTINUOUS
 70
     0
  3
Solid line
 72
    65
 73
     0
 40
0.0
  0
ENDTAB
  0
TABLE
  2
LAYER
  5
2
100
AcDbSymbolTable
 70
2
  0
LAYER
  5
50
100
AcDbSymbolTableRecord
100
AcDbLayerTableRecord
  2
0
 70
0
  6
CONTINUOUS
  0
LAYER
  5
51
100
AcDbSymbolTableRecord
100
AcDbLayerTableRecord
  2
BLACK
 70
0
  6
CONTINUOUS
  0
ENDTAB
  0
TABLE
  2
STYLE
  5
3
330
0
100
AcDbSymbolTable
 70
     1
  0
STYLE
  5
11
330
3
100
AcDbSymbolTableRecord
100
AcDbTextStyleTableRecord
  2
STANDARD
 70
     0
 40
0.0
 41
1.0
 50
0.0
 71
     0
 42
2.5
  3
txt
  4

  0
ENDTAB
  0
TABLE
  2
VIEW
  5
6
330
0
100
AcDbSymbolTable
 70
     0
  0
ENDTAB
  0
TABLE
  2
UCS
  5
7
330
0
100
AcDbSymbolTable
 70
     0
  0
ENDTAB
  0
TABLE
  2
APPID
  5
9
330
0
100
AcDbSymbolTable
 70
     2
  0
APPID
  5
12
330
9
100
AcDbSymbolTableRecord
100
AcDbRegAppTableRecord
  2
ACAD
 70
     0
  0
ENDTAB
  0
TABLE
  2
DIMSTYLE
  5
A
330
0
100
AcDbSymbolTable
 70
     1
  0
DIMSTYLE
105
27
330
A
100
AcDbSymbolTableRecord
100
AcDbDimStyleTableRecord
  2
ISO-25
 70
     0
  3

  4

  5

  6

  7

 40
1.0
 41
2.5
 42
0.625
 43
3.75
 44
1.25
 45
0.0
 46
0.0
 47
0.0
 48
0.0
140
2.5
141
2.5
142
0.0
143
0.03937007874016
144
1.0
145
0.0
146
1.0
147
0.625
 71
     0
 72
     0
 73
     0
 74
     0
 75
     0
 76
     0
 77
     1
 78
     8
170
     0
171
     3
172
     1
173
     0
174
     0
175
     0
176
     0
177
     0
178
     0
270
     2
271
     2
272
     2
273
     2
274
     3
340
11
275
     0
280
     0
281
     0
282
     0
283
     0
284
     8
285
     0
286
     0
287
     3
288
     0
  0
ENDTAB
  0
TABLE
  2
BLOCK_RECORD
  5
1
330
0
100
AcDbSymbolTable
 70
     1
  0
BLOCK_RECORD
  5
1F
330
1
100
AcDbSymbolTableRecord
100
AcDbBlockTableRecord
  2
*MODEL_SPACE
  0
BLOCK_RECORD
  5
1B
330
1
100
AcDbSymbolTableRecord
100
AcDbBlockTableRecord
  2
*PAPER_SPACE
  0
ENDTAB
  0
ENDSEC
  0
SECTION
  2
BLOCKS
  0
BLOCK
  5
20
330
1F
100
AcDbEntity
  8
0
100
AcDbBlockBegin
  2
*MODEL_SPACE
 70
     0
 10
0.0
 20
0.0
 30
0.0
  3
*MODEL_SPACE
  1

  0
ENDBLK
  5
21
330
1F
100
AcDbEntity
  8
0
100
AcDbBlockEnd
  0
BLOCK
  5
1C
330
1B
100
AcDbEntity
 67
     1
  8
0
100
AcDbBlockBegin
  2
*PAPER_SPACE
  1

  0
ENDBLK
  5
1D
330
1B
100
AcDbEntity
 67
     1
  8
0
100
AcDbBlockEnd
  0
ENDSEC
  0
SECTION
  2
ENTITIES
  0
LINE
  5
100
100
AcDbEntity
  8
BLACK
 62
7
100
AcDbLine
 10
224.700814
 20
439.587570
 30
0.0
 11
223.174277
 21
439.510270
 31
0.0
  0
LINE
  5
101
100
AcDbEntity
  8
BLACK
 62
7
100
AcDbLine
 10
529.652080
 20
396.229720
 30
0.0
 11
528.662600
 21
401.593880
 31
0.0
  0
LINE
  5
102
100
AcDbEntity
  8
BLACK
 62
7
100
AcDbLine
 10
528.662600
 20
401.593880
 30
0.0
 11
525.937150
 21
406.134060
 31
0.0
  0
LINE
  5
103
100
AcDbEntity
  8
BLACK
 62
7
100
AcDbLine
 10
525.937150
 20
406.134060
 30
0.0
 11
521.816010
 21
409.459350
 31
0.0
  0
LINE
  5
104
100
AcDbEntity
  8
BLACK
 62
7
100
AcDbLine
 10
521.816010
 20
409.459350
 30
0.0
 11
516.639460
 21
411.178840
 31
0.0
  0
LINE
  5
105
100
AcDbEntity
  8
BLACK
 62
7
100
AcDbLine
 10
315.691640
 20
439.444730
 30
0.0
 11
516.639380
 21
411.174770
 31
0.0
  0
LINE
  5
106
100
AcDbEntity
  8
BLACK
 62
7
100
AcDbLine
 10
330.786460
 20
38.664550
 30
0.0
 11
327.821560
 21
38.958150
 31
0.0
  0
LINE
  5
107
100
AcDbEntity
  8
BLACK
 62
7
100
AcDbLine
 10
327.821620
 20
38.955240
 30
0.0
 11
143.758856
 21
38.955240
 31
0.0
  0
LINE
  5
108
100
AcDbEntity
  8
BLACK
 62
7
100
AcDbLine
 10
132.024870
 20
44.545230
 30
0.0
 11
91.966920
 21
93.845170
 31
0.0
  0
LINE
  5
109
100
AcDbEntity
  8
BLACK
 62
7
100
AcDbLine
 10
0.500030
 20
114.548600
 30
0.0
 11
0.793210
 21
111.585430
 31
0.0
  0
LINE
  5
10a
100
AcDbEntity
  8
BLACK
 62
7
100
AcDbLine
 10
0.793210
 20
111.585430
 30
0.0
 11
1.650830
 21
108.763150
 31
0.0
  0
LINE
  5
10b
100
AcDbEntity
  8
BLACK
 62
7
100
AcDbLine
 10
1.650830
 20
108.763150
 30
0.0
 11
3.040050
 21
106.161070
 31
0.0
  0
LINE
  5
10c
100
AcDbEntity
  8
BLACK
 62
7
100
AcDbLine
 10
3.040050
 20
106.161070
 30
0.0
 11
4.928030
 21
103.858490
 31
0.0
  0
LINE
  5
10d
100
AcDbEntity
  8
BLACK
 62
7
100
AcDbLine
 10
4.928030
 20
103.858490
 30
0.0
 11
7.230620
 21
101.970520
 31
0.0
  0
LINE
  5
10e
100
AcDbEntity
  8
BLACK
 62
7
100
AcDbLine
 10
7.230620
 20
101.970520
 30
0.0
 11
9.832700
 21
100.581300
 31
0.0
  0
LINE
  5
10f
100
AcDbEntity
  8
BLACK
 62
7
100
AcDbLine
 10
9.832700
 20
100.581300
 30
0.0
 11
12.654980
 21
99.723680
 31
0.0
  0
LINE
  5
110
100
AcDbEntity
  8
BLACK
 62
7
100
AcDbLine
 10
12.654980
 20
99.723680
 30
0.0
 11
15.618150
 21
99.430510
 31
0.0
  0
LINE
  5
111
100
AcDbEntity
  8
BLACK
 62
7
100
AcDbLine
 10
537.449360
 20
63.105210
 30
0.0
 11
505.571400
 21
8.045280
 31
0.0
  0
LINE
  5
112
100
AcDbEntity
  8
BLACK
 62
7
100
AcDbLine
 10
91.966730
 20
93.845820
 30
0.0
 11
89.562450
 21
96.208990
 31
0.0
  0
LINE
  5
113
100
AcDbEntity
  8
BLACK
 62
7
100
AcDbLine
 10
89.562450
 20
96.208990
 30
0.0
 11
86.730650
 21
97.963110
 31
0.0
  0
LINE
  5
114
100
AcDbEntity
  8
BLACK
 62
7
100
AcDbLine
 10
86.730650
 20
97.963110
 30
0.0
 11
83.583530
 21
99.054750
 31
0.0
  0
LINE
  5
115
100
AcDbEntity
  8
BLACK
 62
7
100
AcDbLine
 10
83.583530
 20
99.054750
 30
0.0
 11
80.233320
 21
99.430510
 31
0.0
  0
LINE
  5
116
100
AcDbEntity
  8
BLACK
 62
7
100
AcDbLine
 10
973.041810
 20
44.545230
 30
0.0
 11
1013.101750
 21
93.845170
 31
0.0
  0
LINE
  5
117
100
AcDbEntity
  8
BLACK
 62
7
100
AcDbLine
 10
0.500030
 20
114.545140
 30
0.0
 11
0.500030
 21
403.244780
 31
0.0
  0
LINE
  5
118
100
AcDbEntity
  8
BLACK
 62
7
100
AcDbLine
 10
80.232930
 20
99.435160
 30
0.0
 11
15.618010
 21
99.435160
 31
0.0
  0
LINE
  5
119
100
AcDbEntity
  8
BLACK
 62
7
100
AcDbLine
 10
441.781480
 20
16.465270
 30
0.0
 11
330.786610
 21
38.665240
 31
0.0
  0
LINE
  5
11a
100
AcDbEntity
  8
BLACK
 62
7
100
AcDbLine
 10
14.091610
 20
418.289860
 30
0.0
 11
8.711600
 21
416.700260
 31
0.0
  0
LINE
  5
11b
100
AcDbEntity
  8
BLACK
 62
7
100
AcDbLine
 10
8.711600
 20
416.700260
 30
0.0
 11
4.401320
 21
413.385080
 31
0.0
  0
LINE
  5
11c
100
AcDbEntity
  8
BLACK
 62
7
100
AcDbLine
 10
4.401320
 20
413.385080
 30
0.0
 11
1.538300
 21
408.762080
 31
0.0
  0
LINE
  5
11d
100
AcDbEntity
  8
BLACK
 62
7
100
AcDbLine
 10
1.538300
 20
408.762080
 30
0.0
 11
0.500060
 21
403.249050
 31
0.0
  0
LINE
  5
11e
100
AcDbEntity
  8
BLACK
 62
7
100
AcDbLine
 10
530.968360
 20
96.955160
 30
0.0
 11
538.588360
 21
75.805190
 31
0.0
  0
LINE
  5
11f
100
AcDbEntity
  8
BLACK
 62
7
100
AcDbLine
 10
443.597140
 20
15.983360
 30
0.0
 11
441.781290
 21
16.465600
 31
0.0
  0
LINE
  5
120
100
AcDbEntity
  8
BLACK
 62
7
100
AcDbLine
 10
617.357250
 20
1.275280
 30
0.0
 11
661.467200
 21
15.985270
 31
0.0
  0
LINE
  5
121
100
AcDbEntity
  8
BLACK
 62
7
100
AcDbLine
 10
1104.561640
 20
114.545140
 30
0.0
 11
1104.561640
 21
403.244780
 31
0.0
  0
LINE
  5
122
100
AcDbEntity
  8
BLACK
 62
7
100
AcDbLine
 10
224.700753
 20
439.584730
 30
0.0
 11
313.586640
 21
439.584730
 31
0.0
  0
LINE
  5
123
100
AcDbEntity
  8
BLACK
 62
7
100
AcDbLine
 10
881.890190
 20
439.510310
 30
0.0
 11
880.363650
 21
439.587510
 31
0.0
  0
LINE
  5
124
100
AcDbEntity
  8
BLACK
 62
7
100
AcDbLine
 10
588.425010
 20
411.178770
 30
0.0
 11
583.248480
 21
409.459300
 31
0.0
  0
LINE
  5
125
100
AcDbEntity
  8
BLACK
 62
7
100
AcDbLine
 10
583.248480
 20
409.459300
 30
0.0
 11
579.127350
 21
406.134030
 31
0.0
  0
LINE
  5
126
100
AcDbEntity
  8
BLACK
 62
7
100
AcDbLine
 10
579.127350
 20
406.134030
 30
0.0
 11
576.401910
 21
401.593860
 31
0.0
  0
LINE
  5
127
100
AcDbEntity
  8
BLACK
 62
7
100
AcDbLine
 10
576.401910
 20
401.593860
 30
0.0
 11
575.412430
 21
396.229720
 31
0.0
  0
LINE
  5
128
100
AcDbEntity
  8
BLACK
 62
7
100
AcDbLine
 10
132.025305
 20
44.542900
 30
0.0
 11
134.429549
 21
42.179690
 31
0.0
  0
LINE
  5
129
100
AcDbEntity
  8
BLACK
 62
7
100
AcDbLine
 10
134.429549
 20
42.179690
 30
0.0
 11
137.261330
 21
40.425560
 31
0.0
  0
LINE
  5
12a
100
AcDbEntity
  8
BLACK
 62
7
100
AcDbLine
 10
137.261330
 20
40.425560
 30
0.0
 11
140.408437
 21
39.333910
 31
0.0
  0
LINE
  5
12b
100
AcDbEntity
  8
BLACK
 62
7
100
AcDbLine
 10
140.408437
 20
39.333910
 30
0.0
 11
143.758652
 21
38.958150
 31
0.0
  0
LINE
  5
12c
100
AcDbEntity
  8
BLACK
 62
7
100
AcDbLine
 10
1024.831740
 20
99.435160
 30
0.0
 11
1089.441660
 21
99.435160
 31
0.0
  0
LINE
  5
12d
100
AcDbEntity
  8
BLACK
 62
7
100
AcDbLine
 10
1090.971660
 20
418.294760
 30
0.0
 11
881.891920
 21
439.514730
 31
0.0
  0
LINE
  5
12e
100
AcDbEntity
  8
BLACK
 62
7
100
AcDbLine
 10
880.361920
 20
439.584730
 30
0.0
 11
791.482040
 21
439.584730
 31
0.0
  0
LINE
  5
12f
100
AcDbEntity
  8
BLACK
 62
7
100
AcDbLine
 10
574.096310
 20
96.955160
 30
0.0
 11
566.476320
 21
75.805190
 31
0.0
  0
LINE
  5
130
100
AcDbEntity
  8
BLACK
 62
7
100
AcDbLine
 10
777.242900
 20
38.958180
 30
0.0
 11
774.278000
 21
38.664570
 31
0.0
  0
LINE
  5
131
100
AcDbEntity
  8
BLACK
 62
7
100
AcDbLine
 10
1089.446310
 20
99.430510
 30
0.0
 11
1092.409480
 21
99.723680
 31
0.0
  0
LINE
  5
132
100
AcDbEntity
  8
BLACK
 62
7
100
AcDbLine
 10
1092.409480
 20
99.723680
 30
0.0
 11
1095.231750
 21
100.581310
 31
0.0
  0
LINE
  5
133
100
AcDbEntity
  8
BLACK
 62
7
100
AcDbLine
 10
1095.231750
 20
100.581310
 30
0.0
 11
1097.833830
 21
101.970530
 31
0.0
  0
LINE
  5
134
100
AcDbEntity
  8
BLACK
 62
7
100
AcDbLine
 10
1097.833830
 20
101.970530
 30
0.0
 11
1100.136410
 21
103.858500
 31
0.0
  0
LINE
  5
135
100
AcDbEntity
  8
BLACK
 62
7
100
AcDbLine
 10
1100.136410
 20
103.858500
 30
0.0
 11
1102.024390
 21
106.161080
 31
0.0
  0
LINE
  5
136
100
AcDbEntity
  8
BLACK
 62
7
100
AcDbLine
 10
1102.024390
 20
106.161080
 30
0.0
 11
1103.413600
 21
108.763160
 31
0.0
  0
LINE
  5
137
100
AcDbEntity
  8
BLACK
 62
7
100
AcDbLine
 10
1103.413600
 20
108.763160
 30
0.0
 11
1104.271230
 21
111.585430
 31
0.0
  0
LINE
  5
138
100
AcDbEntity
  8
BLACK
 62
7
100
AcDbLine
 10
1104.271230
 20
111.585430
 30
0.0
 11
1104.564400
 21
114.548600
 31
0.0
  0
LINE
  5
139
100
AcDbEntity
  8
BLACK
 62
7
100
AcDbLine
 10
575.412310
 20
396.224790
 30
0.0
 11
574.991310
 21
102.055160
 31
0.0
  0
LINE
  5
13a
100
AcDbEntity
  8
BLACK
 62
7
100
AcDbLine
 10
530.073220
 20
102.059990
 30
0.0
 11
530.968300
 21
96.956720
 31
0.0
  0
LINE
  5
13b
100
AcDbEntity
  8
BLACK
 62
7
100
AcDbLine
 10
537.448990
 20
63.109490
 30
0.0
 11
538.781850
 21
66.131660
 31
0.0
  0
LINE
  5
13c
100
AcDbEntity
  8
BLACK
 62
7
100
AcDbLine
 10
538.781850
 20
66.131660
 30
0.0
 11
539.423000
 21
69.333290
 31
0.0
  0
LINE
  5
13d
100
AcDbEntity
  8
BLACK
 62
7
100
AcDbLine
 10
539.423000
 20
69.333290
 30
0.0
 11
539.362000
 21
72.597920
 31
0.0
  0
LINE
  5
13e
100
AcDbEntity
  8
BLACK
 62
7
100
AcDbLine
 10
539.362000
 20
72.597920
 30
0.0
 11
538.588370
 21
75.809080
 31
0.0
  0
LINE
  5
13f
100
AcDbEntity
  8
BLACK
 62
7
100
AcDbLine
 10
791.478230
 20
439.587560
 30
0.0
 11
789.372740
 21
439.440230
 31
0.0
  0
LINE
  5
140
100
AcDbEntity
  8
BLACK
 62
7
100
AcDbLine
 10
663.283170
 20
16.465580
 30
0.0
 11
661.467320
 21
15.983380
 31
0.0
  0
LINE
  5
141
100
AcDbEntity
  8
BLACK
 62
7
100
AcDbLine
 10
487.706420
 20
1.275280
 30
0.0
 11
443.597470
 21
15.985270
 31
0.0
  0
LINE
  5
142
100
AcDbEntity
  8
BLACK
 62
7
100
AcDbLine
 10
663.283200
 20
16.465270
 30
0.0
 11
774.282060
 21
38.665240
 31
0.0
  0
LINE
  5
143
100
AcDbEntity
  8
BLACK
 62
7
100
AcDbLine
 10
567.615320
 20
63.105210
 30
0.0
 11
599.493280
 21
8.045280
 31
0.0
  0
LINE
  5
144
100
AcDbEntity
  8
BLACK
 62
7
100
AcDbLine
 10
487.706790
 20
1.280120
 30
0.0
 11
492.863970
 21
0.507400
 31
0.0
  0
LINE
  5
145
100
AcDbEntity
  8
BLACK
 62
7
100
AcDbLine
 10
492.863970
 20
0.507400
 30
0.0
 11
497.843280
 21
1.484920
 31
0.0
  0
LINE
  5
146
100
AcDbEntity
  8
BLACK
 62
7
100
AcDbLine
 10
497.843280
 20
1.484920
 30
0.0
 11
502.220440
 21
4.051940
 31
0.0
  0
LINE
  5
147
100
AcDbEntity
  8
BLACK
 62
7
100
AcDbLine
 10
502.220440
 20
4.051940
 30
0.0
 11
505.571150
 21
8.047730
 31
0.0
  0
LINE
  5
148
100
AcDbEntity
  8
BLACK
 62
7
100
AcDbLine
 10
529.652370
 20
396.224790
 30
0.0
 11
530.073360
 21
102.055160
 31
0.0
  0
LINE
  5
149
100
AcDbEntity
  8
BLACK
 62
7
100
AcDbLine
 10
566.476080
 20
75.809090
 30
0.0
 11
565.702440
 21
72.597930
 31
0.0
  0
LINE
  5
14a
100
AcDbEntity
  8
BLACK
 62
7
100
AcDbLine
 10
565.702440
 20
72.597930
 30
0.0
 11
565.641440
 21
69.333280
 31
0.0
  0
LINE
  5
14b
100
AcDbEntity
  8
BLACK
 62
7
100
AcDbLine
 10
565.641440
 20
69.333280
 30
0.0
 11
566.282600
 21
66.131640
 31
0.0
  0
LINE
  5
14c
100
AcDbEntity
  8
BLACK
 62
7
100
AcDbLine
 10
566.282600
 20
66.131640
 30
0.0
 11
567.615470
 21
63.109470
 31
0.0
  0
LINE
  5
14d
100
AcDbEntity
  8
BLACK
 62
7
100
AcDbLine
 10
599.493070
 20
8.047590
 30
0.0
 11
602.843820
 21
4.051740
 31
0.0
  0
LINE
  5
14e
100
AcDbEntity
  8
BLACK
 62
7
100
AcDbLine
 10
602.843820
 20
4.051740
 30
0.0
 11
607.221040
 21
1.484720
 31
0.0
  0
LINE
  5
14f
100
AcDbEntity
  8
BLACK
 62
7
100
AcDbLine
 10
607.221040
 20
1.484720
 30
0.0
 11
612.200430
 21
0.507280
 31
0.0
  0
LINE
  5
150
100
AcDbEntity
  8
BLACK
 62
7
100
AcDbLine
 10
612.200430
 20
0.507280
 30
0.0
 11
617.357660
 21
1.280150
 31
0.0
  0
LINE
  5
151
100
AcDbEntity
  8
BLACK
 62
7
100
AcDbLine
 10
1104.564490
 20
403.249050
 30
0.0
 11
1103.526230
 21
408.762090
 31
0.0
  0
LINE
  5
152
100
AcDbEntity
  8
BLACK
 62
7
100
AcDbLine
 10
1103.526230
 20
408.762090
 30
0.0
 11
1100.663180
 21
413.385090
 31
0.0
  0
LINE
  5
153
100
AcDbEntity
  8
BLACK
 62
7
100
AcDbLine
 10
1100.663180
 20
413.385090
 30
0.0
 11
1096.352880
 21
416.700270
 31
0.0
  0
LINE
  5
154
100
AcDbEntity
  8
BLACK
 62
7
100
AcDbLine
 10
1096.352880
 20
416.700270
 30
0.0
 11
1090.972850
 21
418.289870
 31
0.0
  0
LINE
  5
155
100
AcDbEntity
  8
BLACK
 62
7
100
AcDbLine
 10
961.305810
 20
38.958100
 30
0.0
 11
964.656030
 21
39.333860
 31
0.0
  0
LINE
  5
156
100
AcDbEntity
  8
BLACK
 62
7
100
AcDbLine
 10
964.656030
 20
39.333860
 30
0.0
 11
967.803150
 21
40.425520
 31
0.0
  0
LINE
  5
157
100
AcDbEntity
  8
BLACK
 62
7
100
AcDbLine
 10
967.803150
 20
40.425520
 30
0.0
 11
970.634930
 21
42.179660
 31
0.0
  0
LINE
  5
158
100
AcDbEntity
  8
BLACK
 62
7
100
AcDbLine
 10
970.634930
 20
42.179660
 30
0.0
 11
973.039170
 21
44.542880
 31
0.0
  0
LINE
  5
159
100
AcDbEntity
  8
BLACK
 62
7
100
AcDbLine
 10
1024.831140
 20
99.430560
 30
0.0
 11
1021.480920
 21
99.054800
 31
0.0
  0
LINE
  5
15a
100
AcDbEntity
  8
BLACK
 62
7
100
AcDbLine
 10
1021.480920
 20
99.054800
 30
0.0
 11
1018.333810
 21
97.963140
 31
0.0
  0
LINE
  5
15b
100
AcDbEntity
  8
BLACK
 62
7
100
AcDbLine
 10
1018.333810
 20
97.963140
 30
0.0
 11
1015.502020
 21
96.208990
 31
0.0
  0
LINE
  5
15c
100
AcDbEntity
  8
BLACK
 62
7
100
AcDbLine
 10
1015.502020
 20
96.208990
 30
0.0
 11
1013.097780
 21
93.845780
 31
0.0
  0
LINE
  5
15d
100
AcDbEntity
  8
BLACK
 62
7
100
AcDbLine
 10
789.372040
 20
439.444730
 30
0.0
 11
588.425290
 21
411.174770
 31
0.0
  0
LINE
  5
15e
100
AcDbEntity
  8
BLACK
 62
7
100
AcDbLine
 10
14.092020
 20
418.294760
 30
0.0
 11
223.174754
 21
439.514730
 31
0.0
  0
LINE
  5
15f
100
AcDbEntity
  8
BLACK
 62
7
100
AcDbLine
 10
777.242050
 20
38.955240
 30
0.0
 11
961.301820
 21
38.955240
 31
0.0
  0
LINE
  5
160
100
AcDbEntity
  8
BLACK
 62
7
100
AcDbLine
 10
315.691720
 20
439.440230
 30
0.0
 11
313.586230
 21
439.587560
 31
0.0
  0
LINE
  5
161
100
AcDbEntity
  8
BLACK
 62
7
100
AcDbLine
 10
574.096210
 20
96.956700
 30
0.0
 11
574.991300
 21
102.059990
 31
0.0
  0
ENDSEC
  0
SECTION
  2
OBJECTS
  0
DICTIONARY
  5
C
330
0
100
AcDbDictionary
  3
ACAD_GROUP
350
D
  3
ACAD_MLINESTYLE
350
17
  0
DICTIONARY
  5
D
330
C
100
AcDbDictionary
  0
DICTIONARY
  5
1A
330
C
100
AcDbDictionary
  0
DICTIONARY
  5
17
330
C
100
AcDbDictionary
  3
STANDARD
350
18
  0
DICTIONARY
  5
19
330
C
100
AcDbDictionary
  0
ENDSEC
  0
EOF
