  0
SECTION
  2
HEADER
  9
$ANGBASE
  50
0.0
  9
$ANGDIR
  70
1
  9
$MEASUREMENT
  70
1
  0
ENDSEC
  0
SECTION
  2
TABLES
  0
TABLE
  2
LTYPE
  70
4
  0
LTYPE
  5
40F
  2
CONTINUOUS
  70
0
  3
Solid line
  72
65
  73
0
  40
0.0
  0
LTYPE
  5
410
  2
DASHDOT
 70
0
  3
Dash Dot ____ _ ____ _
 72
65
 73
4
 40
2.0
 49
1.25
 49
-0.25
 49
0.25
 49
-0.25
  0
LTYPE
  5
411
  2
DASHED
 70
0
  3
Dashed __ __ __ __ __
 72
65
 73
2
 40
0.75
 49
0.5
 49
-0.25
  0
LTYPE
  5
43B
  2
DOTTED
 70
0
  3
Dotted .  .  .  .
 72
65
 73
2
 40
0.2
 49
0.0
 49
-0.2
  0
ENDTAB
  0
TABLE
  2
STYLE
  70
4
  0
STYLE
  2
KICAD
  70
0
  40
0
  41
1
  42
1
  50
0
  71
0
  3
isocp.shx
  0
STYLE
  2
KICADB
  70
0
  40
0
  41
1
  42
1
  50
0
  71
0
  3
isocp.shx
  0
STYLE
  2
KICADI
  70
0
  40
0
  41
1
  42
1
  50
15
  71
0
  3
isocp.shx
  0
STYLE
  2
KICADBI
  70
0
  40
0
  41
1
  42
1
  50
15
  71
0
  3
isocp.shx
  0
ENDTAB
  0
TABLE
  2
LAYER
  70
1
  0
LAYER
  2
BLACK
  70
0
  62
7
  6
CONTINUOUS
  0
ENDTAB
  0
ENDSEC
  0
SECTION
  2
ENTITIES
0
CIRCLE
8
BLACK
10
94.
20
-180.
40
1.118034
0
CIRCLE
8
BLACK
10
196.
20
-179.
40
1.118034
0
CIRCLE
8
BLACK
10
164.
20
-96.
40
1.118034
0
CIRCLE
8
BLACK
10
100.
20
-96.
40
1.118034
0
ARC
8
BLACK
10
121.2023999999999972
20
-93.9981999999999971
40
3.998202380082454
50
89.99905419
51
95.79693873
0
ARC
8
BLACK
10
197.887599999999992
20
-101.477499999999992
40
3.9999950162870204
50
0.08197629
51
81.99461489
0
LINE
8
BLACK
6
CONTINUOUS
10
145.2771759999999972
20
-90.0389819999999901
11
198.4446639999999888
21
-97.5164849999999888
0
ARC
8
BLACK
10
148.4865000000000066
20
-200.0001000000000033
40
4.0001000001279969
50
78.68989336
51
89.99954165
0
LINE
8
BLACK
6
CONTINUOUS
10
148.4865319999999826
20
-196.
11
99.7864919999999955
21
-196.
0
LINE
8
BLACK
6
CONTINUOUS
10
96.6820359999999965
20
-194.5223699999999951
11
86.0831840000000028
21
-181.477628999999979
0
ARC
8
BLACK
10
65.8825999999999965
20
-176.
40
4.0000000000125002
50
-180.00000000
51
-89.99985676
0
LINE
8
BLACK
6
CONTINUOUS
10
203.9505309999999838
20
-189.6099549999999851
11
195.5161709999999857
21
-204.1783939999999973
0
ARC
8
BLACK
10
82.9786999999999892
20
-184.0001000000000033
40
4.0001000000979969
50
39.09472322
51
89.99959894
0
LINE
8
BLACK
6
CONTINUOUS
10
319.2005739999999605
20
-194.5223709999999926
11
329.7994259999999827
21
-181.4776300000000049
0
LINE
8
BLACK
6
CONTINUOUS
10
61.8826099999999997
20
-176.
11
61.8826099999999997
21
-99.614576999999997
0
LINE
8
BLACK
6
CONTINUOUS
10
82.9787279999999896
20
-180.
11
65.8826099999999997
21
-180.
0
LINE
8
BLACK
6
CONTINUOUS
10
178.6384149999999806
20
-201.9511609999999848
11
149.2709969999999942
21
-196.0776769999999942
0
ARC
8
BLACK
10
65.8826099999999997
20
-99.6145799999999895
40
4.0000000000011244
50
95.79527076
51
179.99995703
0
LINE
8
BLACK
6
CONTINUOUS
10
202.235841999999991
20
-180.6545229999999833
11
204.2519829999999956
21
-186.2498449999999934
0
ARC
8
BLACK
10
177.8538999999999817
20
-205.8734999999999786
40
4.000025876934548
50
71.56444874
51
78.68940457
0
LINE
8
BLACK
6
CONTINUOUS
10
225.0930549999999926
20
-205.9689819999999827
11
236.76374899999999
21
-202.0787499999999852
0
LINE
8
BLACK
6
CONTINUOUS
10
354.
20
-176.
11
354.
21
-99.614576999999997
0
LINE
8
BLACK
6
CONTINUOUS
10
121.2024660000000011
20
-90.
11
144.7200959999999839
21
-90.
0
ARC
8
BLACK
10
294.6802000000000135
20
-93.9997999999999934
40
3.9998000003920198
50
84.20523370
51
90.00080218
0
ARC
8
BLACK
10
217.9949999999999761
20
-101.477499999999992
40
3.9999740941197355
50
98.00524326
51
179.91802350
0
ARC
8
BLACK
10
99.7864999999999895
20
-192.
40
4.0000000000079998
50
-140.90621893
51
-90.00011459
0
LINE
8
BLACK
6
CONTINUOUS
10
332.9038820000000101
20
-180.
11
350.
21
-180.
0
LINE
8
BLACK
6
CONTINUOUS
10
350.4038969999999722
20
-95.6350209999999947
11
295.0840410000000134
21
-90.0204439999999977
0
LINE
8
BLACK
6
CONTINUOUS
10
294.6801439999999843
20
-90.
11
271.1625139999999874
21
-90.
0
LINE
8
BLACK
6
CONTINUOUS
10
213.6467679999999802
20
-180.6545229999999833
11
211.630627000000004
21
-186.2498449999999934
0
ARC
8
BLACK
10
267.3960999999999899
20
-199.9998999999999967
40
3.9999066382726984
50
90.00031513
51
101.31052803
0
ARC
8
BLACK
10
350.
20
-176.
40
4.
50
-90.00000000
51
-0.00000000
0
LINE
8
BLACK
6
CONTINUOUS
10
213.9950299999999856
20
-101.4717769999999888
11
213.8836059999999861
21
-179.3042839999999956
0
ARC
8
BLACK
10
205.9989999999999952
20
-179.2985999999999933
40
3.9999856643359362
50
-179.91858267
51
-160.18513799
0
ARC
8
BLACK
10
200.4887999999999977
20
-187.6057999999999879
40
4.0000200316390915
50
-30.06852019
51
19.81517185
0
ARC
8
BLACK
10
271.1624999999999659
20
-93.9998999999999967
40
3.9998992401159308
50
89.99979946
51
98.00560698
0
ARC
8
BLACK
10
238.0283999999999764
20
-205.8725999999999772
40
3.9990798909625447
50
101.30876922
51
108.43541548
0
LINE
8
BLACK
6
CONTINUOUS
10
190.7895549999999787
20
-205.9689819999999827
11
179.1188609999999812
21
-202.0787499999999852
0
LINE
8
BLACK
6
CONTINUOUS
10
237.2441949999999906
20
-201.9511609999999848
11
266.6116129999999771
21
-196.0776769999999942
0
LINE
8
BLACK
6
CONTINUOUS
10
211.9320789999999874
20
-189.6099549999999851
11
220.3664389999999855
21
-204.1783939999999973
0
ARC
8
BLACK
10
192.0543999999999869
20
-202.1740999999999815
40
4.0001316096944857
50
-108.43337709
51
-30.06995616
0
LINE
8
BLACK
6
CONTINUOUS
10
201.8875799999999856
20
-101.4717769999999888
11
201.9990039999999851
21
-179.3042839999999956
0
ARC
8
BLACK
10
215.3937999999999988
20
-187.6057999999999879
40
4.0000186931895705
50
-199.81522040
51
-149.93140804
0
ARC
8
BLACK
10
223.8280999999999779
20
-202.1741999999999848
40
4.0000601969906651
50
-149.93049398
51
-71.56467522
0
ARC
8
BLACK
10
350.
20
-99.6145999999999958
40
4.0000227254166942
50
0.00032945
51
84.20475816
0
ARC
8
BLACK
10
316.0960999999999785
20
-192.
40
4.0000142847641182
50
-89.99974217
51
-39.09370186
0
ARC
8
BLACK
10
332.9038999999999646
20
-184.
40
4.0000136541736957
50
90.00025783
51
140.90630926
0
LINE
8
BLACK
6
CONTINUOUS
10
270.6054340000000025
20
-90.0389819999999901
11
217.4379459999999824
21
-97.5164849999999888
0
LINE
8
BLACK
6
CONTINUOUS
10
65.4787129999999991
20
-95.6350209999999947
11
120.7985690000000005
21
-90.0204439999999977
0
LINE
8
BLACK
6
CONTINUOUS
10
267.3960779999999886
20
-196.
11
316.0961179999999899
21
-196.
0
ARC
8
BLACK
10
144.7201000000000022
20
-93.9998999999999967
40
3.999900000002
50
81.99425117
51
90.00005730
0
ARC
8
BLACK
10
209.8836000000000013
20
-179.2985999999999933
40
4.0000100384739037
50
-19.81481346
51
-0.08141713
0
LINE
8
BLACK
6
CONTINUOUS
10
263.9000009999999747
20
-158.810340999999994
11
263.9000009999999747
21
-157.4046569999999861
0
LINE
8
BLACK
6
CONTINUOUS
10
264.8055479999999875
20
-156.6074999999999875
11
266.3944529999999986
21
-156.6074999999999875
0
LINE
8
BLACK
6
CONTINUOUS
10
266.3944520000000011
20
-159.60749899999999
11
264.8055479999999875
21
-159.60749899999999
0
LINE
8
BLACK
6
CONTINUOUS
10
267.2999990000000139
20
-157.4046569999999861
11
267.2999990000000139
21
-158.810340999999994
0
ARC
8
BLACK
10
263.3999999999999773
20
-157.4045999999999879
40
0.4999760117215625
50
-0.00653171
51
25.70023661
0
ARC
8
BLACK
10
264.3010299999999688
20
-156.9709000000000003
40
0.4999993648365966
50
-300.29939530
51
-154.29367517
0
ARC
8
BLACK
10
263.3996399999999767
20
-158.8102599999999995
40
0.5003610067191487
50
-25.69659863
51
-0.00938973
0
ARC
8
BLACK
10
264.3010299999999688
20
-159.2441000000000031
40
0.4999960394813143
50
-205.70653133
51
-59.70037344
0
ARC
8
BLACK
10
264.8055499999999824
20
-160.1075099999999907
40
0.5000103584367028
50
90.00022918
51
120.29880049
0
ARC
8
BLACK
10
264.8055499999999824
20
-156.1074899999999843
40
0.5000090000089998
50
-120.29901505
51
-90.00034377
0
ARC
8
BLACK
10
266.3944500000000062
20
-160.1075079999999957
40
0.5000090000039998
50
59.70098495
51
89.99977082
0
ARC
8
BLACK
10
266.3944500000000062
20
-156.1074909999999818
40
0.500009136137531
50
-89.99965623
51
-59.70098495
0
ARC
8
BLACK
10
266.8989689999999655
20
-156.9709009999999978
40
0.499998988562977
50
-25.70617187
51
120.29929636
0
ARC
8
BLACK
10
267.7999889999999823
20
-157.4046549999999911
40
0.499990000001
50
-205.70646243
51
-179.99988541
0
ARC
8
BLACK
10
266.898969999999963
20
-159.2440979999999797
40
0.4999997985959594
50
-120.29939530
51
25.70642808
0
ARC
8
BLACK
10
267.7999889999999823
20
-158.8103429999999889
40
0.4999899543000839
50
-180.00022919
51
-154.29353757
0
LINE
8
BLACK
6
CONTINUOUS
10
340.1000009999999634
20
-142.6178409999999985
11
340.1000009999999634
21
-141.2121569999999906
0
LINE
8
BLACK
6
CONTINUOUS
10
341.0055479999999761
20
-140.414999999999992
11
342.5944529999999872
21
-140.414999999999992
0
LINE
8
BLACK
6
CONTINUOUS
10
342.5944519999999898
20
-143.4149989999999946
11
341.0055479999999761
21
-143.4149989999999946
0
LINE
8
BLACK
6
CONTINUOUS
10
343.4999990000000025
20
-141.2121569999999906
11
343.4999990000000025
21
-142.6178409999999985
0
ARC
8
BLACK
10
339.5999999999999659
20
-141.2120999999999924
40
0.4999760117215625
50
-0.00653171
51
25.70023661
0
ARC
8
BLACK
10
340.5010299999999575
20
-140.7784000000000049
40
0.4999993648365966
50
-300.29939530
51
-154.29367517
0
ARC
8
BLACK
10
339.5996399999999653
20
-142.6177600000000041
40
0.5003610067191487
50
-25.69659863
51
-0.00938973
0
ARC
8
BLACK
10
340.5010299999999575
20
-143.0516000000000076
40
0.4999960394813143
50
-205.70653133
51
-59.70037344
0
ARC
8
BLACK
10
341.0055499999999711
20
-143.9150099999999952
40
0.5000103584367028
50
90.00022918
51
120.29880049
0
ARC
8
BLACK
10
341.0055499999999711
20
-139.9149899999999889
40
0.5000090000089998
50
-120.29901505
51
-90.00034377
0
ARC
8
BLACK
10
342.5944499999999948
20
-143.9150080000000003
40
0.5000090000039998
50
59.70098495
51
89.99977082
0
ARC
8
BLACK
10
342.5944499999999948
20
-139.9149909999999863
40
0.500009136137531
50
-89.99965623
51
-59.70098495
0
ARC
8
BLACK
10
343.098969000000011
20
-140.7784010000000023
40
0.499998988562977
50
-25.70617187
51
120.29929636
0
ARC
8
BLACK
10
343.9999889999999709
20
-141.2121549999999957
40
0.499990000001
50
-205.70646243
51
-179.99988541
0
ARC
8
BLACK
10
343.0989700000000084
20
-143.0515979999999843
40
0.4999997985959594
50
-120.29939530
51
25.70642808
0
ARC
8
BLACK
10
343.9999889999999709
20
-142.6178429999999935
40
0.4999899543000839
50
-180.00022919
51
-154.29353757
0
LINE
8
BLACK
6
CONTINUOUS
10
168.6500010000000032
20
-161.6678409999999815
11
168.6500010000000032
21
-160.262157000000002
0
LINE
8
BLACK
6
CONTINUOUS
10
169.5555479999999875
20
-159.4650000000000034
11
171.1444529999999986
21
-159.4650000000000034
0
LINE
8
BLACK
6
CONTINUOUS
10
171.1444520000000011
20
-162.4649990000000059
11
169.5555479999999875
21
-162.4649990000000059
0
LINE
8
BLACK
6
CONTINUOUS
10
172.0499989999999855
20
-160.262157000000002
11
172.0499989999999855
21
-161.6678409999999815
0
ARC
8
BLACK
10
168.1500000000000057
20
-160.2621000000000038
40
0.4999760117215625
50
-0.00653171
51
25.70023661
0
ARC
8
BLACK
10
169.0510299999999972
20
-159.8283999999999878
40
0.4999993648365966
50
-300.29939530
51
-154.29367517
0
ARC
8
BLACK
10
168.1496400000000051
20
-161.667759999999987
40
0.5003610067191487
50
-25.69659863
51
-0.00938973
0
ARC
8
BLACK
10
169.0510299999999972
20
-162.1015999999999906
40
0.4999960394813143
50
-205.70653133
51
-59.70037344
0
ARC
8
BLACK
10
169.5555499999999824
20
-162.9650100000000066
40
0.5000103584367028
50
90.00022918
51
120.29880049
0
ARC
8
BLACK
10
169.5555499999999824
20
-158.9649900000000002
40
0.5000090000089998
50
-120.29901505
51
-90.00034377
0
ARC
8
BLACK
10
171.1444500000000062
20
-162.9650079999999832
40
0.5000090000039998
50
59.70098495
51
89.99977082
0
ARC
8
BLACK
10
171.1444500000000062
20
-158.9649909999999977
40
0.500009136137531
50
-89.99965623
51
-59.70098495
0
ARC
8
BLACK
10
171.6489689999999939
20
-159.8284009999999853
40
0.499998988562977
50
-25.70617187
51
120.29929636
0
ARC
8
BLACK
10
172.5499889999999823
20
-160.2621549999999786
40
0.499990000001
50
-205.70646243
51
-179.99988541
0
ARC
8
BLACK
10
171.6489699999999914
20
-162.1015979999999956
40
0.4999997985959594
50
-120.29939530
51
25.70642808
0
ARC
8
BLACK
10
172.5499889999999823
20
-161.6678430000000048
40
0.4999899543000839
50
-180.00022919
51
-154.29353757
0
LINE
8
BLACK
6
CONTINUOUS
10
111.5000009999999975
20
-120.7103409999999997
11
111.5000009999999975
21
-119.3046569999999917
0
LINE
8
BLACK
6
CONTINUOUS
10
112.405547999999996
20
-118.5074999999999932
11
113.9944529999999929
21
-118.5074999999999932
0
LINE
8
BLACK
6
CONTINUOUS
10
113.9944519999999955
20
-121.5074989999999957
11
112.405547999999996
21
-121.5074989999999957
0
LINE
8
BLACK
6
CONTINUOUS
10
114.899998999999994
20
-119.3046569999999917
11
114.899998999999994
21
-120.7103409999999997
0
ARC
8
BLACK
10
111.
20
-119.3045999999999935
40
0.4999760117215625
50
-0.00653171
51
25.70023661
0
ARC
8
BLACK
10
111.9010299999999916
20
-118.8708999999999918
40
0.4999993648365966
50
-300.29939530
51
-154.29367517
0
ARC
8
BLACK
10
110.9996399999999994
20
-120.710259999999991
40
0.5003610067191487
50
-25.69659863
51
-0.00938973
0
ARC
8
BLACK
10
111.9010299999999916
20
-121.1440999999999946
40
0.4999960394813143
50
-205.70653133
51
-59.70037344
0
ARC
8
BLACK
10
112.405549999999991
20
-122.0075099999999964
40
0.5000103584367028
50
90.00022918
51
120.29880049
0
ARC
8
BLACK
10
112.405549999999991
20
-118.00748999999999
40
0.5000090000089998
50
-120.29901505
51
-90.00034377
0
ARC
8
BLACK
10
113.9944500000000005
20
-122.0075080000000014
40
0.5000090000039998
50
59.70098495
51
89.99977082
0
ARC
8
BLACK
10
113.9944500000000005
20
-118.0074910000000017
40
0.500009136137531
50
-89.99965623
51
-59.70098495
0
ARC
8
BLACK
10
114.4989689999999882
20
-118.8709009999999893
40
0.499998988562977
50
-25.70617187
51
120.29929636
0
ARC
8
BLACK
10
115.3999889999999908
20
-119.3046549999999968
40
0.499990000001
50
-205.70646243
51
-179.99988541
0
ARC
8
BLACK
10
114.4989699999999999
20
-121.1440979999999996
40
0.4999997985959594
50
-120.29939530
51
25.70642808
0
ARC
8
BLACK
10
115.3999889999999908
20
-120.7103429999999946
40
0.4999899543000839
50
-180.00022919
51
-154.29353757
0
LINE
8
BLACK
6
CONTINUOUS
10
168.6500010000000032
20
-123.5678410000000014
11
168.6500010000000032
21
-122.1621569999999934
0
LINE
8
BLACK
6
CONTINUOUS
10
169.5555479999999875
20
-121.3649999999999949
11
171.1444529999999986
21
-121.3649999999999949
0
LINE
8
BLACK
6
CONTINUOUS
10
171.1444520000000011
20
-124.3649989999999974
11
169.5555479999999875
21
-124.3649989999999974
0
LINE
8
BLACK
6
CONTINUOUS
10
172.0499989999999855
20
-122.1621569999999934
11
172.0499989999999855
21
-123.5678410000000014
0
ARC
8
BLACK
10
168.1500000000000057
20
-122.1620999999999952
40
0.4999760117215625
50
-0.00653171
51
25.70023661
0
ARC
8
BLACK
10
169.0510299999999972
20
-121.7283999999999935
40
0.4999993648365966
50
-300.29939530
51
-154.29367517
0
ARC
8
BLACK
10
168.1496400000000051
20
-123.5677599999999927
40
0.5003610067191487
50
-25.69659863
51
-0.00938973
0
ARC
8
BLACK
10
169.0510299999999972
20
-124.0015999999999963
40
0.4999960394813143
50
-205.70653133
51
-59.70037344
0
ARC
8
BLACK
10
169.5555499999999824
20
-124.8650099999999981
40
0.5000103584367028
50
90.00022918
51
120.29880049
0
ARC
8
BLACK
10
169.5555499999999824
20
-120.8649899999999917
40
0.5000090000089998
50
-120.29901505
51
-90.00034377
0
ARC
8
BLACK
10
171.1444500000000062
20
-124.8650079999999889
40
0.5000090000039998
50
59.70098495
51
89.99977082
0
ARC
8
BLACK
10
171.1444500000000062
20
-120.8649909999999892
40
0.500009136137531
50
-89.99965623
51
-59.70098495
0
ARC
8
BLACK
10
171.6489689999999939
20
-121.728400999999991
40
0.499998988562977
50
-25.70617187
51
120.29929636
0
ARC
8
BLACK
10
172.5499889999999823
20
-122.1621549999999985
40
0.499990000001
50
-205.70646243
51
-179.99988541
0
ARC
8
BLACK
10
171.6489699999999914
20
-124.0015980000000013
40
0.4999997985959594
50
-120.29939530
51
25.70642808
0
ARC
8
BLACK
10
172.5499889999999823
20
-123.5678429999999963
40
0.4999899543000839
50
-180.00022919
51
-154.29353757
0
LINE
8
BLACK
6
CONTINUOUS
10
73.4000010000000032
20
-142.6178409999999985
11
73.4000010000000032
21
-141.2121569999999906
0
LINE
8
BLACK
6
CONTINUOUS
10
74.3055480000000017
20
-140.414999999999992
11
75.8944529999999986
21
-140.414999999999992
0
LINE
8
BLACK
6
CONTINUOUS
10
75.8944520000000011
20
-143.4149989999999946
11
74.3055480000000017
21
-143.4149989999999946
0
LINE
8
BLACK
6
CONTINUOUS
10
76.7999989999999997
20
-141.2121569999999906
11
76.7999989999999997
21
-142.6178409999999985
0
ARC
8
BLACK
10
72.8999999999999915
20
-141.2120999999999924
40
0.4999760117215625
50
-0.00653171
51
25.70023661
0
ARC
8
BLACK
10
73.8010299999999972
20
-140.7784000000000049
40
0.4999993648365966
50
-300.29939530
51
-154.29367517
0
ARC
8
BLACK
10
72.8996399999999909
20
-142.6177600000000041
40
0.5003610067191487
50
-25.69659863
51
-0.00938973
0
ARC
8
BLACK
10
73.8010299999999972
20
-143.0516000000000076
40
0.4999960394813143
50
-205.70653133
51
-59.70037344
0
ARC
8
BLACK
10
74.3055499999999967
20
-143.9150099999999952
40
0.5000103584367028
50
90.00022918
51
120.29880049
0
ARC
8
BLACK
10
74.3055499999999967
20
-139.9149899999999889
40
0.5000090000089998
50
-120.29901505
51
-90.00034377
0
ARC
8
BLACK
10
75.894449999999992
20
-143.9150080000000003
40
0.5000090000039998
50
59.70098495
51
89.99977082
0
ARC
8
BLACK
10
75.894449999999992
20
-139.9149909999999863
40
0.500009136137531
50
-89.99965623
51
-59.70098495
0
ARC
8
BLACK
10
76.3989689999999939
20
-140.7784010000000023
40
0.499998988562977
50
-25.70617187
51
120.29929636
0
ARC
8
BLACK
10
77.2999889999999965
20
-141.2121549999999957
40
0.499990000001
50
-205.70646243
51
-179.99988541
0
ARC
8
BLACK
10
76.3989699999999914
20
-143.0515979999999843
40
0.4999997985959594
50
-120.29939530
51
25.70642808
0
ARC
8
BLACK
10
77.2999889999999965
20
-142.6178429999999935
40
0.4999899543000839
50
-180.00022919
51
-154.29353757
0
LINE
8
BLACK
6
CONTINUOUS
10
282.9500009999999861
20
-155.9528410000000065
11
282.9500009999999861
21
-154.5471569999999986
0
LINE
8
BLACK
6
CONTINUOUS
10
283.8555479999999989
20
-153.75
11
285.44445300000001
21
-153.75
0
LINE
8
BLACK
6
CONTINUOUS
10
285.4444520000000125
20
-156.7499990000000025
11
283.8555479999999989
21
-156.7499990000000025
0
LINE
8
BLACK
6
CONTINUOUS
10
286.3499989999999684
20
-154.5471569999999986
11
286.3499989999999684
21
-155.9528410000000065
0
ARC
8
BLACK
10
282.4499999999999886
20
-154.5471000000000004
40
0.4999760117215625
50
-0.00653171
51
25.70023661
0
ARC
8
BLACK
10
283.3510299999999802
20
-154.1133999999999844
40
0.4999993648365966
50
-300.29939530
51
-154.29367517
0
ARC
8
BLACK
10
282.449639999999988
20
-155.9527599999999836
40
0.5003610067191487
50
-25.69659863
51
-0.00938973
0
ARC
8
BLACK
10
283.3510299999999802
20
-156.3865999999999872
40
0.4999960394813143
50
-205.70653133
51
-59.70037344
0
ARC
8
BLACK
10
283.8555499999999938
20
-157.2500100000000032
40
0.5000103584367028
50
90.00022918
51
120.29880049
0
ARC
8
BLACK
10
283.8555499999999938
20
-153.2499899999999968
40
0.5000090000089998
50
-120.29901505
51
-90.00034377
0
ARC
8
BLACK
10
285.4444499999999607
20
-157.2500079999999798
40
0.5000090000039998
50
59.70098495
51
89.99977082
0
ARC
8
BLACK
10
285.4444499999999607
20
-153.2499909999999943
40
0.500009136137531
50
-89.99965623
51
-59.70098495
0
ARC
8
BLACK
10
285.9489689999999769
20
-154.1134009999999819
40
0.499998988562977
50
-25.70617187
51
120.29929636
0
ARC
8
BLACK
10
286.8499889999999937
20
-154.5471550000000036
40
0.499990000001
50
-205.70646243
51
-179.99988541
0
ARC
8
BLACK
10
285.9489699999999743
20
-156.3865979999999922
40
0.4999997985959594
50
-120.29939530
51
25.70642808
0
ARC
8
BLACK
10
286.8499889999999937
20
-155.9528430000000014
40
0.4999899543000839
50
-180.00022919
51
-154.29353757
0
LINE
8
BLACK
6
CONTINUOUS
10
168.6500010000000032
20
-104.51784099999999
11
168.6500010000000032
21
-103.1121569999999963
0
LINE
8
BLACK
6
CONTINUOUS
10
169.5555479999999875
20
-102.3149999999999977
11
171.1444529999999986
21
-102.3149999999999977
0
LINE
8
BLACK
6
CONTINUOUS
10
171.1444520000000011
20
-105.3149990000000003
11
169.5555479999999875
21
-105.3149990000000003
0
LINE
8
BLACK
6
CONTINUOUS
10
172.0499989999999855
20
-103.1121569999999963
11
172.0499989999999855
21
-104.51784099999999
0
ARC
8
BLACK
10
168.1500000000000057
20
-103.1120999999999981
40
0.4999760117215625
50
-0.00653171
51
25.70023661
0
ARC
8
BLACK
10
169.0510299999999972
20
-102.6783999999999963
40
0.4999993648365966
50
-300.29939530
51
-154.29367517
0
ARC
8
BLACK
10
168.1496400000000051
20
-104.5177599999999956
40
0.5003610067191487
50
-25.69659863
51
-0.00938973
0
ARC
8
BLACK
10
169.0510299999999972
20
-104.9515999999999991
40
0.4999960394813143
50
-205.70653133
51
-59.70037344
0
ARC
8
BLACK
10
169.5555499999999824
20
-105.8150100000000009
40
0.5000103584367028
50
90.00022918
51
120.29880049
0
ARC
8
BLACK
10
169.5555499999999824
20
-101.8149899999999946
40
0.5000090000089998
50
-120.29901505
51
-90.00034377
0
ARC
8
BLACK
10
171.1444500000000062
20
-105.8150079999999917
40
0.5000090000039998
50
59.70098495
51
89.99977082
0
ARC
8
BLACK
10
171.1444500000000062
20
-101.814990999999992
40
0.500009136137531
50
-89.99965623
51
-59.70098495
0
ARC
8
BLACK
10
171.6489689999999939
20
-102.6784009999999938
40
0.499998988562977
50
-25.70617187
51
120.29929636
0
ARC
8
BLACK
10
172.5499889999999823
20
-103.1121550000000013
40
0.499990000001
50
-205.70646243
51
-179.99988541
0
ARC
8
BLACK
10
171.6489699999999914
20
-104.95159799999999
40
0.4999997985959594
50
-120.29939530
51
25.70642808
0
ARC
8
BLACK
10
172.5499889999999823
20
-104.5178429999999992
40
0.4999899543000839
50
-180.00022919
51
-154.29353757
0
LINE
8
BLACK
6
CONTINUOUS
10
144.8375010000000032
20
-177.8603410000000054
11
144.8375010000000032
21
-176.4546569999999974
0
LINE
8
BLACK
6
CONTINUOUS
10
145.7430479999999875
20
-175.6574999999999989
11
147.3319529999999986
21
-175.6574999999999989
0
LINE
8
BLACK
6
CONTINUOUS
10
147.3319520000000011
20
-178.6574990000000014
11
145.7430479999999875
21
-178.6574990000000014
0
LINE
8
BLACK
6
CONTINUOUS
10
148.2374989999999855
20
-176.4546569999999974
11
148.2374989999999855
21
-177.8603410000000054
0
ARC
8
BLACK
10
144.3375000000000057
20
-176.4545999999999992
40
0.4999760117215625
50
-0.00653171
51
25.70023661
0
ARC
8
BLACK
10
145.2385299999999972
20
-176.0208999999999833
40
0.4999993648365966
50
-300.29939530
51
-154.29367517
0
ARC
8
BLACK
10
144.3371400000000051
20
-177.8602599999999825
40
0.5003610067191487
50
-25.69659863
51
-0.00938973
0
ARC
8
BLACK
10
145.2385299999999972
20
-178.294099999999986
40
0.4999960394813143
50
-205.70653133
51
-59.70037344
0
ARC
8
BLACK
10
145.7430499999999824
20
-179.157510000000002
40
0.5000103584367028
50
90.00022918
51
120.29880049
0
ARC
8
BLACK
10
145.7430499999999824
20
-175.1574899999999957
40
0.5000090000089998
50
-120.29901505
51
-90.00034377
0
ARC
8
BLACK
10
147.3319500000000062
20
-179.1575079999999787
40
0.5000090000039998
50
59.70098495
51
89.99977082
0
ARC
8
BLACK
10
147.3319500000000062
20
-175.1574909999999932
40
0.500009136137531
50
-89.99965623
51
-59.70098495
0
ARC
8
BLACK
10
147.8364689999999939
20
-176.0209009999999807
40
0.499998988562977
50
-25.70617187
51
120.29929636
0
ARC
8
BLACK
10
148.7374889999999823
20
-176.4546550000000025
40
0.499990000001
50
-205.70646243
51
-179.99988541
0
ARC
8
BLACK
10
147.8364699999999914
20
-178.2940979999999911
40
0.4999997985959594
50
-120.29939530
51
25.70642808
0
ARC
8
BLACK
10
148.7374889999999823
20
-177.8603430000000003
40
0.4999899543000839
50
-180.00022919
51
-154.29353757
0
LINE
8
BLACK
6
CONTINUOUS
10
92.4500010000000003
20
-161.6678409999999815
11
92.4500010000000003
21
-160.262157000000002
0
LINE
8
BLACK
6
CONTINUOUS
10
93.3555479999999989
20
-159.4650000000000034
11
94.9444529999999958
21
-159.4650000000000034
0
LINE
8
BLACK
6
CONTINUOUS
10
94.9444519999999983
20
-162.4649990000000059
11
93.3555479999999989
21
-162.4649990000000059
0
LINE
8
BLACK
6
CONTINUOUS
10
95.8499989999999968
20
-160.262157000000002
11
95.8499989999999968
21
-161.6678409999999815
0
ARC
8
BLACK
10
91.9500000000000028
20
-160.2621000000000038
40
0.4999760117215625
50
-0.00653171
51
25.70023661
0
ARC
8
BLACK
10
92.8510299999999944
20
-159.8283999999999878
40
0.4999993648365966
50
-300.29939530
51
-154.29367517
0
ARC
8
BLACK
10
91.9496400000000023
20
-161.667759999999987
40
0.5003610067191487
50
-25.69659863
51
-0.00938973
0
ARC
8
BLACK
10
92.8510299999999944
20
-162.1015999999999906
40
0.4999960394813143
50
-205.70653133
51
-59.70037344
0
ARC
8
BLACK
10
93.3555499999999938
20
-162.9650100000000066
40
0.5000103584367028
50
90.00022918
51
120.29880049
0
ARC
8
BLACK
10
93.3555499999999938
20
-158.9649900000000002
40
0.5000090000089998
50
-120.29901505
51
-90.00034377
0
ARC
8
BLACK
10
94.9444499999999891
20
-162.9650079999999832
40
0.5000090000039998
50
59.70098495
51
89.99977082
0
ARC
8
BLACK
10
94.9444499999999891
20
-158.9649909999999977
40
0.500009136137531
50
-89.99965623
51
-59.70098495
0
ARC
8
BLACK
10
95.4489689999999911
20
-159.8284009999999853
40
0.499998988562977
50
-25.70617187
51
120.29929636
0
ARC
8
BLACK
10
96.3499889999999937
20
-160.2621549999999786
40
0.499990000001
50
-205.70646243
51
-179.99988541
0
ARC
8
BLACK
10
95.4489700000000028
20
-162.1015979999999956
40
0.4999997985959594
50
-120.29939530
51
25.70642808
0
ARC
8
BLACK
10
96.3499889999999937
20
-161.6678430000000048
40
0.4999899543000839
50
-180.00022919
51
-154.29353757
0
LINE
8
BLACK
6
CONTINUOUS
10
130.5500009999999804
20
-98.8028410000000008
11
130.5500009999999804
21
-97.3971569999999929
0
LINE
8
BLACK
6
CONTINUOUS
10
131.4555479999999932
20
-96.5999999999999943
11
133.0444530000000043
21
-96.5999999999999943
0
LINE
8
BLACK
6
CONTINUOUS
10
133.0444520000000068
20
-99.5999989999999968
11
131.4555479999999932
21
-99.5999989999999968
0
LINE
8
BLACK
6
CONTINUOUS
10
133.9499989999999912
20
-97.3971569999999929
11
133.9499989999999912
21
-98.8028410000000008
0
ARC
8
BLACK
10
130.0499999999999829
20
-97.3970999999999947
40
0.4999760117215625
50
-0.00653171
51
25.70023661
0
ARC
8
BLACK
10
130.9510300000000029
20
-96.9633999999999929
40
0.4999993648365966
50
-300.29939530
51
-154.29367517
0
ARC
8
BLACK
10
130.0496399999999824
20
-98.8027599999999921
40
0.5003610067191487
50
-25.69659863
51
-0.00938973
0
ARC
8
BLACK
10
130.9510300000000029
20
-99.2365999999999957
40
0.4999960394813143
50
-205.70653133
51
-59.70037344
0
ARC
8
BLACK
10
131.4555499999999881
20
-100.1000099999999975
40
0.5000103584367028
50
90.00022918
51
120.29880049
0
ARC
8
BLACK
10
131.4555499999999881
20
-96.0999899999999911
40
0.5000090000089998
50
-120.29901505
51
-90.00034377
0
ARC
8
BLACK
10
133.0444499999999834
20
-100.1000080000000025
40
0.5000090000039998
50
59.70098495
51
89.99977082
0
ARC
8
BLACK
10
133.0444499999999834
20
-96.0999909999999886
40
0.500009136137531
50
-89.99965623
51
-59.70098495
0
ARC
8
BLACK
10
133.5489689999999996
20
-96.9634009999999904
40
0.499998988562977
50
-25.70617187
51
120.29929636
0
ARC
8
BLACK
10
134.449988999999988
20
-97.3971549999999979
40
0.499990000001
50
-205.70646243
51
-179.99988541
0
ARC
8
BLACK
10
133.5489699999999971
20
-99.2365980000000008
40
0.4999997985959594
50
-120.29939530
51
25.70642808
0
ARC
8
BLACK
10
134.449988999999988
20
-98.8028429999999958
40
0.4999899543000839
50
-180.00022919
51
-154.29353757
0
LINE
8
BLACK
6
CONTINUOUS
10
111.5000009999999975
20
-139.7603409999999826
11
111.5000009999999975
21
-138.3546570000000031
0
LINE
8
BLACK
6
CONTINUOUS
10
112.405547999999996
20
-137.5575000000000045
11
113.9944529999999929
21
-137.5575000000000045
0
LINE
8
BLACK
6
CONTINUOUS
10
113.9944519999999955
20
-140.5574990000000071
11
112.405547999999996
21
-140.5574990000000071
0
LINE
8
BLACK
6
CONTINUOUS
10
114.899998999999994
20
-138.3546570000000031
11
114.899998999999994
21
-139.7603409999999826
0
ARC
8
BLACK
10
111.
20
-138.3546000000000049
40
0.4999760117215625
50
-0.00653171
51
25.70023661
0
ARC
8
BLACK
10
111.9010299999999916
20
-137.9208999999999889
40
0.4999993648365966
50
-300.29939530
51
-154.29367517
0
ARC
8
BLACK
10
110.9996399999999994
20
-139.7602599999999882
40
0.5003610067191487
50
-25.69659863
51
-0.00938973
0
ARC
8
BLACK
10
111.9010299999999916
20
-140.1940999999999917
40
0.4999960394813143
50
-205.70653133
51
-59.70037344
0
ARC
8
BLACK
10
112.405549999999991
20
-141.0575100000000077
40
0.5000103584367028
50
90.00022918
51
120.29880049
0
ARC
8
BLACK
10
112.405549999999991
20
-137.0574900000000014
40
0.5000090000089998
50
-120.29901505
51
-90.00034377
0
ARC
8
BLACK
10
113.9944500000000005
20
-141.0575079999999843
40
0.5000090000039998
50
59.70098495
51
89.99977082
0
ARC
8
BLACK
10
113.9944500000000005
20
-137.0574909999999988
40
0.500009136137531
50
-89.99965623
51
-59.70098495
0
ARC
8
BLACK
10
114.4989689999999882
20
-137.9209009999999864
40
0.499998988562977
50
-25.70617187
51
120.29929636
0
ARC
8
BLACK
10
115.3999889999999908
20
-138.3546549999999797
40
0.499990000001
50
-205.70646243
51
-179.99988541
0
ARC
8
BLACK
10
114.4989699999999999
20
-140.1940979999999968
40
0.4999997985959594
50
-120.29939530
51
25.70642808
0
ARC
8
BLACK
10
115.3999889999999908
20
-139.760343000000006
40
0.4999899543000839
50
-180.00022919
51
-154.29353757
0
LINE
8
BLACK
6
CONTINUOUS
10
244.8500009999999918
20
-104.51784099999999
11
244.8500009999999918
21
-103.1121569999999963
0
LINE
8
BLACK
6
CONTINUOUS
10
245.7555479999999761
20
-102.3149999999999977
11
247.3444529999999872
21
-102.3149999999999977
0
LINE
8
BLACK
6
CONTINUOUS
10
247.3444519999999898
20
-105.3149990000000003
11
245.7555479999999761
21
-105.3149990000000003
0
LINE
8
BLACK
6
CONTINUOUS
10
248.2499990000000025
20
-103.1121569999999963
11
248.2499990000000025
21
-104.51784099999999
0
ARC
8
BLACK
10
244.3499999999999943
20
-103.1120999999999981
40
0.4999760117215625
50
-0.00653171
51
25.70023661
0
ARC
8
BLACK
10
245.2510299999999859
20
-102.6783999999999963
40
0.4999993648365966
50
-300.29939530
51
-154.29367517
0
ARC
8
BLACK
10
244.3496399999999937
20
-104.5177599999999956
40
0.5003610067191487
50
-25.69659863
51
-0.00938973
0
ARC
8
BLACK
10
245.2510299999999859
20
-104.9515999999999991
40
0.4999960394813143
50
-205.70653133
51
-59.70037344
0
ARC
8
BLACK
10
245.7555499999999995
20
-105.8150100000000009
40
0.5000103584367028
50
90.00022918
51
120.29880049
0
ARC
8
BLACK
10
245.7555499999999995
20
-101.8149899999999946
40
0.5000090000089998
50
-120.29901505
51
-90.00034377
0
ARC
8
BLACK
10
247.3444499999999948
20
-105.8150079999999917
40
0.5000090000039998
50
59.70098495
51
89.99977082
0
ARC
8
BLACK
10
247.3444499999999948
20
-101.814990999999992
40
0.500009136137531
50
-89.99965623
51
-59.70098495
0
ARC
8
BLACK
10
247.8489689999999825
20
-102.6784009999999938
40
0.499998988562977
50
-25.70617187
51
120.29929636
0
ARC
8
BLACK
10
248.7499889999999994
20
-103.1121550000000013
40
0.499990000001
50
-205.70646243
51
-179.99988541
0
ARC
8
BLACK
10
247.84896999999998
20
-104.95159799999999
40
0.4999997985959594
50
-120.29939530
51
25.70642808
0
ARC
8
BLACK
10
248.7499889999999994
20
-104.5178429999999992
40
0.4999899543000839
50
-180.00022919
51
-154.29353757
0
LINE
8
BLACK
6
CONTINUOUS
10
263.9000009999999747
20
-118.8053409999999985
11
263.9000009999999747
21
-117.3996569999999906
0
LINE
8
BLACK
6
CONTINUOUS
10
264.8055479999999875
20
-116.602499999999992
11
266.3944529999999986
21
-116.602499999999992
0
LINE
8
BLACK
6
CONTINUOUS
10
266.3944520000000011
20
-119.6024989999999946
11
264.8055479999999875
21
-119.6024989999999946
0
LINE
8
BLACK
6
CONTINUOUS
10
267.2999990000000139
20
-117.3996569999999906
11
267.2999990000000139
21
-118.8053409999999985
0
ARC
8
BLACK
10
263.3999999999999773
20
-117.3995999999999924
40
0.4999760117215625
50
-0.00653171
51
25.70023661
0
ARC
8
BLACK
10
264.3010299999999688
20
-116.9658999999999907
40
0.4999993648365966
50
-300.29939530
51
-154.29367517
0
ARC
8
BLACK
10
263.3996399999999767
20
-118.8052599999999899
40
0.5003610067191487
50
-25.69659863
51
-0.00938973
0
ARC
8
BLACK
10
264.3010299999999688
20
-119.2390999999999934
40
0.4999960394813143
50
-205.70653133
51
-59.70037344
0
ARC
8
BLACK
10
264.8055499999999824
20
-120.1025099999999952
40
0.5000103584367028
50
90.00022918
51
120.29880049
0
ARC
8
BLACK
10
264.8055499999999824
20
-116.1024899999999889
40
0.5000090000089998
50
-120.29901505
51
-90.00034377
0
ARC
8
BLACK
10
266.3944500000000062
20
-120.1025080000000003
40
0.5000090000039998
50
59.70098495
51
89.99977082
0
ARC
8
BLACK
10
266.3944500000000062
20
-116.1024910000000006
40
0.500009136137531
50
-89.99965623
51
-59.70098495
0
ARC
8
BLACK
10
266.8989689999999655
20
-116.9659009999999881
40
0.499998988562977
50
-25.70617187
51
120.29929636
0
ARC
8
BLACK
10
267.7999889999999823
20
-117.3996549999999957
40
0.499990000001
50
-205.70646243
51
-179.99988541
0
ARC
8
BLACK
10
266.898969999999963
20
-119.2390979999999985
40
0.4999997985959594
50
-120.29939530
51
25.70642808
0
ARC
8
BLACK
10
267.7999889999999823
20
-118.8053429999999935
40
0.4999899543000839
50
-180.00022919
51
-154.29353757
0
LINE
8
BLACK
6
CONTINUOUS
10
282.9500009999999861
20
-117.852840999999998
11
282.9500009999999861
21
-116.44715699999999
0
LINE
8
BLACK
6
CONTINUOUS
10
283.8555479999999989
20
-115.6499999999999915
11
285.44445300000001
21
-115.6499999999999915
0
LINE
8
BLACK
6
CONTINUOUS
10
285.4444520000000125
20
-118.649998999999994
11
283.8555479999999989
21
-118.649998999999994
0
LINE
8
BLACK
6
CONTINUOUS
10
286.3499989999999684
20
-116.44715699999999
11
286.3499989999999684
21
-117.852840999999998
0
ARC
8
BLACK
10
282.4499999999999886
20
-116.4470999999999918
40
0.4999760117215625
50
-0.00653171
51
25.70023661
0
ARC
8
BLACK
10
283.3510299999999802
20
-116.0133999999999901
40
0.4999993648365966
50
-300.29939530
51
-154.29367517
0
ARC
8
BLACK
10
282.449639999999988
20
-117.8527599999999893
40
0.5003610067191487
50
-25.69659863
51
-0.00938973
0
ARC
8
BLACK
10
283.3510299999999802
20
-118.2865999999999929
40
0.4999960394813143
50
-205.70653133
51
-59.70037344
0
ARC
8
BLACK
10
283.8555499999999938
20
-119.1500099999999946
40
0.5000103584367028
50
90.00022918
51
120.29880049
0
ARC
8
BLACK
10
283.8555499999999938
20
-115.1499899999999883
40
0.5000090000089998
50
-120.29901505
51
-90.00034377
0
ARC
8
BLACK
10
285.4444499999999607
20
-119.1500079999999997
40
0.5000090000039998
50
59.70098495
51
89.99977082
0
ARC
8
BLACK
10
285.4444499999999607
20
-115.149991
40
0.500009136137531
50
-89.99965623
51
-59.70098495
0
ARC
8
BLACK
10
285.9489689999999769
20
-116.0134010000000018
40
0.499998988562977
50
-25.70617187
51
120.29929636
0
ARC
8
BLACK
10
286.8499889999999937
20
-116.4471549999999951
40
0.499990000001
50
-205.70646243
51
-179.99988541
0
ARC
8
BLACK
10
285.9489699999999743
20
-118.2865979999999979
40
0.4999997985959594
50
-120.29939530
51
25.70642808
0
ARC
8
BLACK
10
286.8499889999999937
20
-117.8528429999999929
40
0.4999899543000839
50
-180.00022919
51
-154.29353757
0
LINE
8
BLACK
6
CONTINUOUS
10
340.1000009999999634
20
-104.51784099999999
11
340.1000009999999634
21
-103.1121569999999963
0
LINE
8
BLACK
6
CONTINUOUS
10
341.0055479999999761
20
-102.3149999999999977
11
342.5944529999999872
21
-102.3149999999999977
0
LINE
8
BLACK
6
CONTINUOUS
10
342.5944519999999898
20
-105.3149990000000003
11
341.0055479999999761
21
-105.3149990000000003
0
LINE
8
BLACK
6
CONTINUOUS
10
343.4999990000000025
20
-103.1121569999999963
11
343.4999990000000025
21
-104.51784099999999
0
ARC
8
BLACK
10
339.5999999999999659
20
-103.1120999999999981
40
0.4999760117215625
50
-0.00653171
51
25.70023661
0
ARC
8
BLACK
10
340.5010299999999575
20
-102.6783999999999963
40
0.4999993648365966
50
-300.29939530
51
-154.29367517
0
ARC
8
BLACK
10
339.5996399999999653
20
-104.5177599999999956
40
0.5003610067191487
50
-25.69659863
51
-0.00938973
0
ARC
8
BLACK
10
340.5010299999999575
20
-104.9515999999999991
40
0.4999960394813143
50
-205.70653133
51
-59.70037344
0
ARC
8
BLACK
10
341.0055499999999711
20
-105.8150100000000009
40
0.5000103584367028
50
90.00022918
51
120.29880049
0
ARC
8
BLACK
10
341.0055499999999711
20
-101.8149899999999946
40
0.5000090000089998
50
-120.29901505
51
-90.00034377
0
ARC
8
BLACK
10
342.5944499999999948
20
-105.8150079999999917
40
0.5000090000039998
50
59.70098495
51
89.99977082
0
ARC
8
BLACK
10
342.5944499999999948
20
-101.814990999999992
40
0.500009136137531
50
-89.99965623
51
-59.70098495
0
ARC
8
BLACK
10
343.098969000000011
20
-102.6784009999999938
40
0.499998988562977
50
-25.70617187
51
120.29929636
0
ARC
8
BLACK
10
343.9999889999999709
20
-103.1121550000000013
40
0.499990000001
50
-205.70646243
51
-179.99988541
0
ARC
8
BLACK
10
343.0989700000000084
20
-104.95159799999999
40
0.4999997985959594
50
-120.29939530
51
25.70642808
0
ARC
8
BLACK
10
343.9999889999999709
20
-104.5178429999999992
40
0.4999899543000839
50
-180.00022919
51
-154.29353757
0
LINE
8
BLACK
6
CONTINUOUS
10
321.0500010000000088
20
-142.6178409999999985
11
321.0500010000000088
21
-141.2121569999999906
0
LINE
8
BLACK
6
CONTINUOUS
10
321.9555479999999648
20
-140.414999999999992
11
323.5444529999999759
21
-140.414999999999992
0
LINE
8
BLACK
6
CONTINUOUS
10
323.5444519999999784
20
-143.4149989999999946
11
321.9555479999999648
21
-143.4149989999999946
0
LINE
8
BLACK
6
CONTINUOUS
10
324.4499989999999912
20
-141.2121569999999906
11
324.4499989999999912
21
-142.6178409999999985
0
ARC
8
BLACK
10
320.5500000000000114
20
-141.2120999999999924
40
0.4999760117215625
50
-0.00653171
51
25.70023661
0
ARC
8
BLACK
10
321.4510300000000029
20
-140.7784000000000049
40
0.4999993648365966
50
-300.29939530
51
-154.29367517
0
ARC
8
BLACK
10
320.5496400000000108
20
-142.6177600000000041
40
0.5003610067191487
50
-25.69659863
51
-0.00938973
0
ARC
8
BLACK
10
321.4510300000000029
20
-143.0516000000000076
40
0.4999960394813143
50
-205.70653133
51
-59.70037344
0
ARC
8
BLACK
10
321.9555499999999597
20
-143.9150099999999952
40
0.5000103584367028
50
90.00022918
51
120.29880049
0
ARC
8
BLACK
10
321.9555499999999597
20
-139.9149899999999889
40
0.5000090000089998
50
-120.29901505
51
-90.00034377
0
ARC
8
BLACK
10
323.5444499999999834
20
-143.9150080000000003
40
0.5000090000039998
50
59.70098495
51
89.99977082
0
ARC
8
BLACK
10
323.5444499999999834
20
-139.9149909999999863
40
0.500009136137531
50
-89.99965623
51
-59.70098495
0
ARC
8
BLACK
10
324.0489689999999996
20
-140.7784010000000023
40
0.499998988562977
50
-25.70617187
51
120.29929636
0
ARC
8
BLACK
10
324.9499889999999596
20
-141.2121549999999957
40
0.499990000001
50
-205.70646243
51
-179.99988541
0
ARC
8
BLACK
10
324.0489699999999971
20
-143.0515979999999843
40
0.4999997985959594
50
-120.29939530
51
25.70642808
0
ARC
8
BLACK
10
324.9499889999999596
20
-142.6178429999999935
40
0.4999899543000839
50
-180.00022919
51
-154.29353757
0
LINE
8
BLACK
6
CONTINUOUS
10
340.1000009999999634
20
-123.5678410000000014
11
340.1000009999999634
21
-122.1621569999999934
0
LINE
8
BLACK
6
CONTINUOUS
10
341.0055479999999761
20
-121.3649999999999949
11
342.5944529999999872
21
-121.3649999999999949
0
LINE
8
BLACK
6
CONTINUOUS
10
342.5944519999999898
20
-124.3649989999999974
11
341.0055479999999761
21
-124.3649989999999974
0
LINE
8
BLACK
6
CONTINUOUS
10
343.4999990000000025
20
-122.1621569999999934
11
343.4999990000000025
21
-123.5678410000000014
0
ARC
8
BLACK
10
339.5999999999999659
20
-122.1620999999999952
40
0.4999760117215625
50
-0.00653171
51
25.70023661
0
ARC
8
BLACK
10
340.5010299999999575
20
-121.7283999999999935
40
0.4999993648365966
50
-300.29939530
51
-154.29367517
0
ARC
8
BLACK
10
339.5996399999999653
20
-123.5677599999999927
40
0.5003610067191487
50
-25.69659863
51
-0.00938973
0
ARC
8
BLACK
10
340.5010299999999575
20
-124.0015999999999963
40
0.4999960394813143
50
-205.70653133
51
-59.70037344
0
ARC
8
BLACK
10
341.0055499999999711
20
-124.8650099999999981
40
0.5000103584367028
50
90.00022918
51
120.29880049
0
ARC
8
BLACK
10
341.0055499999999711
20
-120.8649899999999917
40
0.5000090000089998
50
-120.29901505
51
-90.00034377
0
ARC
8
BLACK
10
342.5944499999999948
20
-124.8650079999999889
40
0.5000090000039998
50
59.70098495
51
89.99977082
0
ARC
8
BLACK
10
342.5944499999999948
20
-120.8649909999999892
40
0.500009136137531
50
-89.99965623
51
-59.70098495
0
ARC
8
BLACK
10
343.098969000000011
20
-121.728400999999991
40
0.499998988562977
50
-25.70617187
51
120.29929636
0
ARC
8
BLACK
10
343.9999889999999709
20
-122.1621549999999985
40
0.499990000001
50
-205.70646243
51
-179.99988541
0
ARC
8
BLACK
10
343.0989700000000084
20
-124.0015980000000013
40
0.4999997985959594
50
-120.29939530
51
25.70642808
0
ARC
8
BLACK
10
343.9999889999999709
20
-123.5678429999999963
40
0.4999899543000839
50
-180.00022919
51
-154.29353757
0
LINE
8
BLACK
6
CONTINUOUS
10
149.6000009999999918
20
-158.810340999999994
11
149.6000009999999918
21
-157.4046569999999861
0
LINE
8
BLACK
6
CONTINUOUS
10
150.5055480000000045
20
-156.6074999999999875
11
152.0944529999999872
21
-156.6074999999999875
0
LINE
8
BLACK
6
CONTINUOUS
10
152.0944519999999898
20
-159.60749899999999
11
150.5055480000000045
21
-159.60749899999999
0
LINE
8
BLACK
6
CONTINUOUS
10
152.9999990000000025
20
-157.4046569999999861
11
152.9999990000000025
21
-158.810340999999994
0
ARC
8
BLACK
10
149.0999999999999943
20
-157.4045999999999879
40
0.4999760117215625
50
-0.00653171
51
25.70023661
0
ARC
8
BLACK
10
150.0010299999999859
20
-156.9709000000000003
40
0.4999993648365966
50
-300.29939530
51
-154.29367517
0
ARC
8
BLACK
10
149.0996399999999937
20
-158.8102599999999995
40
0.5003610067191487
50
-25.69659863
51
-0.00938973
0
ARC
8
BLACK
10
150.0010299999999859
20
-159.2441000000000031
40
0.4999960394813143
50
-205.70653133
51
-59.70037344
0
ARC
8
BLACK
10
150.5055499999999995
20
-160.1075099999999907
40
0.5000103584367028
50
90.00022918
51
120.29880049
0
ARC
8
BLACK
10
150.5055499999999995
20
-156.1074899999999843
40
0.5000090000089998
50
-120.29901505
51
-90.00034377
0
ARC
8
BLACK
10
152.0944499999999948
20
-160.1075079999999957
40
0.5000090000039998
50
59.70098495
51
89.99977082
0
ARC
8
BLACK
10
152.0944499999999948
20
-156.1074909999999818
40
0.500009136137531
50
-89.99965623
51
-59.70098495
0
ARC
8
BLACK
10
152.5989689999999825
20
-156.9709009999999978
40
0.499998988562977
50
-25.70617187
51
120.29929636
0
ARC
8
BLACK
10
153.4999889999999994
20
-157.4046549999999911
40
0.499990000001
50
-205.70646243
51
-179.99988541
0
ARC
8
BLACK
10
152.59896999999998
20
-159.2440979999999797
40
0.4999997985959594
50
-120.29939530
51
25.70642808
0
ARC
8
BLACK
10
153.4999889999999994
20
-158.8103429999999889
40
0.4999899543000839
50
-180.00022919
51
-154.29353757
0
LINE
8
BLACK
6
CONTINUOUS
10
223.1925669999999968
20
-185.9327529999999911
11
224.5685989999999777
21
-185.1383009999999842
0
LINE
8
BLACK
6
CONTINUOUS
10
223.5097609999999975
20
-188.2932429999999897
11
222.8069189999999935
21
-187.0758849999999995
0
LINE
8
BLACK
6
CONTINUOUS
10
225.7514039999999795
20
-185.37588599999998
11
226.4542459999999835
21
-186.5932439999999986
0
LINE
8
BLACK
6
CONTINUOUS
10
226.0685979999999802
20
-187.7363759999999786
11
224.6925669999999968
21
-188.5308279999999854
0
ARC
8
BLACK
10
222.3739640000000009
20
-187.3257859999999937
40
0.4998862123343671
50
29.99348010
51
55.70525860
0
ARC
8
BLACK
10
222.937342000000001
20
-186.4997259999999812
40
0.4999987283283828
50
-270.29942921
51
-124.29371538
0
ARC
8
BLACK
10
222.942563999999976
20
-185.499730999999997
40
0.5000090524060539
50
-90.29896547
51
-60.00033426
0
ARC
8
BLACK
10
223.0764609999999948
20
-188.543327000000005
40
0.5002925446776116
50
4.30099625
51
29.99176535
0
ARC
8
BLACK
10
224.0739419999999882
20
-188.468373999999983
40
0.4999966930710642
50
-175.70647868
51
-29.70043590
0
ARC
8
BLACK
10
224.942592999999988
20
-188.9638619999999776
40
0.500032532721622
50
120.00135984
51
150.29860868
0
ARC
8
BLACK
10
224.3186129999999991
20
-184.7053009999999915
40
0.4999818103541368
50
-60.00066161
51
-29.70022137
0
ARC
8
BLACK
10
225.1872239999999863
20
-185.200759000000005
40
0.5000000390399985
50
4.29410125
51
150.29912318
0
ARC
8
BLACK
10
226.1844069999999931
20
-185.1258890000000008
40
0.4999904639410636
50
-175.70650716
51
-149.99989837
0
ARC
8
BLACK
10
226.3186079999999833
20
-188.169415999999984
40
0.5000286408797
50
89.70184798
51
119.99942836
0
ARC
8
BLACK
10
226.3238249999999994
20
-187.1694029999999884
40
0.4999992537854431
50
-90.29965899
51
55.70660309
0
ARC
8
BLACK
10
226.887250999999992
20
-186.3432499999999834
40
0.4999903907576624
50
-150.00015415
51
-124.29353474
0
LINE
8
BLACK
6
CONTINUOUS
10
149.6000009999999918
20
-120.7103409999999997
11
149.6000009999999918
21
-119.3046569999999917
0
LINE
8
BLACK
6
CONTINUOUS
10
150.5055480000000045
20
-118.5074999999999932
11
152.0944529999999872
21
-118.5074999999999932
0
LINE
8
BLACK
6
CONTINUOUS
10
152.0944519999999898
20
-121.5074989999999957
11
150.5055480000000045
21
-121.5074989999999957
0
LINE
8
BLACK
6
CONTINUOUS
10
152.9999990000000025
20
-119.3046569999999917
11
152.9999990000000025
21
-120.7103409999999997
0
ARC
8
BLACK
10
149.0999999999999943
20
-119.3045999999999935
40
0.4999760117215625
50
-0.00653171
51
25.70023661
0
ARC
8
BLACK
10
150.0010299999999859
20
-118.8708999999999918
40
0.4999993648365966
50
-300.29939530
51
-154.29367517
0
ARC
8
BLACK
10
149.0996399999999937
20
-120.710259999999991
40
0.5003610067191487
50
-25.69659863
51
-0.00938973
0
ARC
8
BLACK
10
150.0010299999999859
20
-121.1440999999999946
40
0.4999960394813143
50
-205.70653133
51
-59.70037344
0
ARC
8
BLACK
10
150.5055499999999995
20
-122.0075099999999964
40
0.5000103584367028
50
90.00022918
51
120.29880049
0
ARC
8
BLACK
10
150.5055499999999995
20
-118.00748999999999
40
0.5000090000089998
50
-120.29901505
51
-90.00034377
0
ARC
8
BLACK
10
152.0944499999999948
20
-122.0075080000000014
40
0.5000090000039998
50
59.70098495
51
89.99977082
0
ARC
8
BLACK
10
152.0944499999999948
20
-118.0074910000000017
40
0.500009136137531
50
-89.99965623
51
-59.70098495
0
ARC
8
BLACK
10
152.5989689999999825
20
-118.8709009999999893
40
0.499998988562977
50
-25.70617187
51
120.29929636
0
ARC
8
BLACK
10
153.4999889999999994
20
-119.3046549999999968
40
0.499990000001
50
-205.70646243
51
-179.99988541
0
ARC
8
BLACK
10
152.59896999999998
20
-121.1440979999999996
40
0.4999997985959594
50
-120.29939530
51
25.70642808
0
ARC
8
BLACK
10
153.4999889999999994
20
-120.7103429999999946
40
0.4999899543000839
50
-180.00022919
51
-154.29353757
0
LINE
8
BLACK
6
CONTINUOUS
10
92.4500010000000003
20
-104.51784099999999
11
92.4500010000000003
21
-103.1121569999999963
0
LINE
8
BLACK
6
CONTINUOUS
10
93.3555479999999989
20
-102.3149999999999977
11
94.9444529999999958
21
-102.3149999999999977
0
LINE
8
BLACK
6
CONTINUOUS
10
94.9444519999999983
20
-105.3149990000000003
11
93.3555479999999989
21
-105.3149990000000003
0
LINE
8
BLACK
6
CONTINUOUS
10
95.8499989999999968
20
-103.1121569999999963
11
95.8499989999999968
21
-104.51784099999999
0
ARC
8
BLACK
10
91.9500000000000028
20
-103.1120999999999981
40
0.4999760117215625
50
-0.00653171
51
25.70023661
0
ARC
8
BLACK
10
92.8510299999999944
20
-102.6783999999999963
40
0.4999993648365966
50
-300.29939530
51
-154.29367517
0
ARC
8
BLACK
10
91.9496400000000023
20
-104.5177599999999956
40
0.5003610067191487
50
-25.69659863
51
-0.00938973
0
ARC
8
BLACK
10
92.8510299999999944
20
-104.9515999999999991
40
0.4999960394813143
50
-205.70653133
51
-59.70037344
0
ARC
8
BLACK
10
93.3555499999999938
20
-105.8150100000000009
40
0.5000103584367028
50
90.00022918
51
120.29880049
0
ARC
8
BLACK
10
93.3555499999999938
20
-101.8149899999999946
40
0.5000090000089998
50
-120.29901505
51
-90.00034377
0
ARC
8
BLACK
10
94.9444499999999891
20
-105.8150079999999917
40
0.5000090000039998
50
59.70098495
51
89.99977082
0
ARC
8
BLACK
10
94.9444499999999891
20
-101.814990999999992
40
0.500009136137531
50
-89.99965623
51
-59.70098495
0
ARC
8
BLACK
10
95.4489689999999911
20
-102.6784009999999938
40
0.499998988562977
50
-25.70617187
51
120.29929636
0
ARC
8
BLACK
10
96.3499889999999937
20
-103.1121550000000013
40
0.499990000001
50
-205.70646243
51
-179.99988541
0
ARC
8
BLACK
10
95.4489700000000028
20
-104.95159799999999
40
0.4999997985959594
50
-120.29939530
51
25.70642808
0
ARC
8
BLACK
10
96.3499889999999937
20
-104.5178429999999992
40
0.4999899543000839
50
-180.00022919
51
-154.29353757
0
LINE
8
BLACK
6
CONTINUOUS
10
111.5000009999999975
20
-101.6603409999999883
11
111.5000009999999975
21
-100.2546569999999946
0
LINE
8
BLACK
6
CONTINUOUS
10
112.405547999999996
20
-99.457499999999996
11
113.9944529999999929
21
-99.457499999999996
0
LINE
8
BLACK
6
CONTINUOUS
10
113.9944519999999955
20
-102.4574989999999985
11
112.405547999999996
21
-102.4574989999999985
0
LINE
8
BLACK
6
CONTINUOUS
10
114.899998999999994
20
-100.2546569999999946
11
114.899998999999994
21
-101.6603409999999883
0
ARC
8
BLACK
10
111.
20
-100.2545999999999964
40
0.4999760117215625
50
-0.00653171
51
25.70023661
0
ARC
8
BLACK
10
111.9010299999999916
20
-99.8208999999999946
40
0.4999993648365966
50
-300.29939530
51
-154.29367517
0
ARC
8
BLACK
10
110.9996399999999994
20
-101.6602599999999939
40
0.5003610067191487
50
-25.69659863
51
-0.00938973
0
ARC
8
BLACK
10
111.9010299999999916
20
-102.0940999999999974
40
0.4999960394813143
50
-205.70653133
51
-59.70037344
0
ARC
8
BLACK
10
112.405549999999991
20
-102.9575099999999992
40
0.5000103584367028
50
90.00022918
51
120.29880049
0
ARC
8
BLACK
10
112.405549999999991
20
-98.9574899999999928
40
0.5000090000089998
50
-120.29901505
51
-90.00034377
0
ARC
8
BLACK
10
113.9944500000000005
20
-102.95750799999999
40
0.5000090000039998
50
59.70098495
51
89.99977082
0
ARC
8
BLACK
10
113.9944500000000005
20
-98.9574909999999903
40
0.500009136137531
50
-89.99965623
51
-59.70098495
0
ARC
8
BLACK
10
114.4989689999999882
20
-99.8209009999999921
40
0.499998988562977
50
-25.70617187
51
120.29929636
0
ARC
8
BLACK
10
115.3999889999999908
20
-100.2546549999999996
40
0.499990000001
50
-205.70646243
51
-179.99988541
0
ARC
8
BLACK
10
114.4989699999999999
20
-102.0940980000000025
40
0.4999997985959594
50
-120.29939530
51
25.70642808
0
ARC
8
BLACK
10
115.3999889999999908
20
-101.6603429999999975
40
0.4999899543000839
50
-180.00022919
51
-154.29353757
0
LINE
8
BLACK
6
CONTINUOUS
10
246.5135579999999891
20
-182.7767959999999903
11
246.14973999999998
21
-181.4190099999999859
0
LINE
8
BLACK
6
CONTINUOUS
10
246.8181119999999851
20
-180.4146429999999839
11
248.3528759999999806
21
-180.0034039999999891
0
LINE
8
BLACK
6
CONTINUOUS
10
249.1293319999999767
20
-182.9011799999999823
11
247.5945689999999786
21
-183.3124190000000056
0
LINE
8
BLACK
6
CONTINUOUS
10
249.4338860000000011
20
-180.5390259999999785
11
249.7977039999999818
21
-181.8968119999999828
0
ARC
8
BLACK
10
245.6667609999999797
20
-181.5483649999999898
40
0.4999762069628914
50
14.99348797
51
40.70019854
0
ARC
8
BLACK
10
246.424839999999989
20
-180.89623899999998
40
0.4999998392419742
50
-285.29935029
51
-139.29366610
0
ARC
8
BLACK
10
246.0302149999999983
20
-182.9062239999999804
40
0.5003716658425015
50
-10.69624945
51
14.99066866
0
ARC
8
BLACK
10
246.6887019999999779
20
-179.9316689999999994
40
0.5000096079176879
50
-105.29904793
51
-75.00035699
0
ARC
8
BLACK
10
247.0131839999999954
20
-183.0919719999999984
40
0.500004848816489
50
-190.70533871
51
-44.70084444
0
ARC
8
BLACK
10
247.7239799999999832
20
-183.7953819999999894
40
0.5000013244112459
50
105.00016096
51
135.29940076
0
ARC
8
BLACK
10
248.223464999999976
20
-179.5204399999999794
40
0.5000020278138879
50
-74.99986870
51
-44.70068069
0
ARC
8
BLACK
10
248.9342559999999764
20
-180.2238459999999804
40
0.4999998954449891
50
-10.70592915
51
135.29907750
0
ARC
8
BLACK
10
249.2587419999999838
20
-183.3841529999999977
40
0.5000098667316476
50
74.70095207
51
104.99975369
0
ARC
8
BLACK
10
249.916877999999997
20
-180.4096159999999998
40
0.5000279605632069
50
-190.70551574
51
-165.00092046
0
ARC
8
BLACK
10
249.5226059999999961
20
-182.4195849999999837
40
0.4999988694317218
50
-105.29963183
51
40.70673184
0
ARC
8
BLACK
10
250.2806659999999965
20
-181.7674049999999966
40
0.4999985348798534
50
-165.00025213
51
-139.29383983
0
LINE
8
BLACK
6
CONTINUOUS
10
268.6625009999999634
20
-177.8603410000000054
11
268.6625009999999634
21
-176.4546569999999974
0
LINE
8
BLACK
6
CONTINUOUS
10
269.5680479999999761
20
-175.6574999999999989
11
271.1569529999999872
21
-175.6574999999999989
0
LINE
8
BLACK
6
CONTINUOUS
10
271.1569519999999898
20
-178.6574990000000014
11
269.5680479999999761
21
-178.6574990000000014
0
LINE
8
BLACK
6
CONTINUOUS
10
272.0624990000000025
20
-176.4546569999999974
11
272.0624990000000025
21
-177.8603410000000054
0
ARC
8
BLACK
10
268.1624999999999659
20
-176.4545999999999992
40
0.4999760117215625
50
-0.00653171
51
25.70023661
0
ARC
8
BLACK
10
269.0635300000000143
20
-176.0208999999999833
40
0.4999993648365966
50
-300.29939530
51
-154.29367517
0
ARC
8
BLACK
10
268.1621399999999653
20
-177.8602599999999825
40
0.5003610067191487
50
-25.69659863
51
-0.00938973
0
ARC
8
BLACK
10
269.0635300000000143
20
-178.294099999999986
40
0.4999960394813143
50
-205.70653133
51
-59.70037344
0
ARC
8
BLACK
10
269.5680499999999711
20
-179.157510000000002
40
0.5000103584367028
50
90.00022918
51
120.29880049
0
ARC
8
BLACK
10
269.5680499999999711
20
-175.1574899999999957
40
0.5000090000089998
50
-120.29901505
51
-90.00034377
0
ARC
8
BLACK
10
271.1569499999999948
20
-179.1575079999999787
40
0.5000090000039998
50
59.70098495
51
89.99977082
0
ARC
8
BLACK
10
271.1569499999999948
20
-175.1574909999999932
40
0.500009136137531
50
-89.99965623
51
-59.70098495
0
ARC
8
BLACK
10
271.661469000000011
20
-176.0209009999999807
40
0.499998988562977
50
-25.70617187
51
120.29929636
0
ARC
8
BLACK
10
272.5624889999999709
20
-176.4546550000000025
40
0.499990000001
50
-205.70646243
51
-179.99988541
0
ARC
8
BLACK
10
271.6614700000000084
20
-178.2940979999999911
40
0.4999997985959594
50
-120.29939530
51
25.70642808
0
ARC
8
BLACK
10
272.5624889999999709
20
-177.8603430000000003
40
0.4999899543000839
50
-180.00022919
51
-154.29353757
0
LINE
8
BLACK
6
CONTINUOUS
10
263.9000009999999747
20
-139.7603409999999826
11
263.9000009999999747
21
-138.3546570000000031
0
LINE
8
BLACK
6
CONTINUOUS
10
264.8055479999999875
20
-137.5575000000000045
11
266.3944529999999986
21
-137.5575000000000045
0
LINE
8
BLACK
6
CONTINUOUS
10
266.3944520000000011
20
-140.5574990000000071
11
264.8055479999999875
21
-140.5574990000000071
0
LINE
8
BLACK
6
CONTINUOUS
10
267.2999990000000139
20
-138.3546570000000031
11
267.2999990000000139
21
-139.7603409999999826
0
ARC
8
BLACK
10
263.3999999999999773
20
-138.3546000000000049
40
0.4999760117215625
50
-0.00653171
51
25.70023661
0
ARC
8
BLACK
10
264.3010299999999688
20
-137.9208999999999889
40
0.4999993648365966
50
-300.29939530
51
-154.29367517
0
ARC
8
BLACK
10
263.3996399999999767
20
-139.7602599999999882
40
0.5003610067191487
50
-25.69659863
51
-0.00938973
0
ARC
8
BLACK
10
264.3010299999999688
20
-140.1940999999999917
40
0.4999960394813143
50
-205.70653133
51
-59.70037344
0
ARC
8
BLACK
10
264.8055499999999824
20
-141.0575100000000077
40
0.5000103584367028
50
90.00022918
51
120.29880049
0
ARC
8
BLACK
10
264.8055499999999824
20
-137.0574900000000014
40
0.5000090000089998
50
-120.29901505
51
-90.00034377
0
ARC
8
BLACK
10
266.3944500000000062
20
-141.0575079999999843
40
0.5000090000039998
50
59.70098495
51
89.99977082
0
ARC
8
BLACK
10
266.3944500000000062
20
-137.0574909999999988
40
0.500009136137531
50
-89.99965623
51
-59.70098495
0
ARC
8
BLACK
10
266.8989689999999655
20
-137.9209009999999864
40
0.499998988562977
50
-25.70617187
51
120.29929636
0
ARC
8
BLACK
10
267.7999889999999823
20
-138.3546549999999797
40
0.499990000001
50
-205.70646243
51
-179.99988541
0
ARC
8
BLACK
10
266.898969999999963
20
-140.1940979999999968
40
0.4999997985959594
50
-120.29939530
51
25.70642808
0
ARC
8
BLACK
10
267.7999889999999823
20
-139.760343000000006
40
0.4999899543000839
50
-180.00022919
51
-154.29353757
0
LINE
8
BLACK
6
CONTINUOUS
10
189.4993039999999951
20
-186.0468099999999936
11
190.202145999999999
21
-184.8294520000000034
0
LINE
8
BLACK
6
CONTINUOUS
10
191.2609829999999818
20
-187.9843939999999805
11
189.8849519999999984
21
-187.1899420000000021
0
LINE
8
BLACK
6
CONTINUOUS
10
191.3849510000000009
20
-184.5918669999999793
11
192.7609839999999792
21
-185.3863189999999861
0
LINE
8
BLACK
6
CONTINUOUS
10
193.1466309999999851
20
-186.5294509999999946
11
192.4437889999999811
21
-187.7468089999999847
0
ARC
8
BLACK
10
189.0660279999999887
20
-185.7965639999999894
40
0.5003506636689912
50
-55.69708625
51
-30.00947686
0
ARC
8
BLACK
10
189.6297260000000051
20
-186.6229699999999809
40
0.4999968383150037
50
-235.70650842
51
-89.70033981
0
ARC
8
BLACK
10
189.6349349999999845
20
-187.6230269999999791
40
0.500071727916106
50
60.00245496
51
90.29720920
0
ARC
8
BLACK
10
189.7692480000000046
20
-184.5794520000000034
40
0.4998856704777603
50
-30.00657324
51
-4.29473673
0
ARC
8
BLACK
10
190.7663259999999923
20
-184.6543219999999792
40
0.499999350440578
50
29.70062096
51
175.70624156
0
ARC
8
BLACK
10
191.0109949999999799
20
-188.417398999999989
40
0.4999873300084713
50
29.70054874
51
60.00074960
0
ARC
8
BLACK
10
191.6349579999999833
20
-184.1588469999999802
40
0.50000895432982
50
-150.29902294
51
-120.00033381
0
ARC
8
BLACK
10
192.8767919999999947
20
-187.9968049999999948
40
0.4999901510959991
50
149.99984108
51
175.70650716
0
ARC
8
BLACK
10
191.8796099999999853
20
-187.9219410000000039
40
0.4999990509760993
50
-150.29967765
51
-4.29330136
0
ARC
8
BLACK
10
193.0109819999999843
20
-184.9533199999999908
40
0.4999868279954983
50
-120.00058660
51
-89.70056300
0
ARC
8
BLACK
10
193.0162069999999801
20
-185.9532920000000047
40
0.4999988226066137
50
-55.70618995
51
90.29931522
0
ARC
8
BLACK
10
193.5796359999999936
20
-186.7794439999999838
40
0.4999903299674904
50
124.29353474
51
150.00015415
0
LINE
8
BLACK
6
CONTINUOUS
10
287.7125009999999747
20
-177.8603410000000054
11
287.7125009999999747
21
-176.4546569999999974
0
LINE
8
BLACK
6
CONTINUOUS
10
288.6180479999999875
20
-175.6574999999999989
11
290.2069529999999986
21
-175.6574999999999989
0
LINE
8
BLACK
6
CONTINUOUS
10
290.2069520000000011
20
-178.6574990000000014
11
288.6180479999999875
21
-178.6574990000000014
0
LINE
8
BLACK
6
CONTINUOUS
10
291.1124990000000139
20
-176.4546569999999974
11
291.1124990000000139
21
-177.8603410000000054
0
ARC
8
BLACK
10
287.2124999999999773
20
-176.4545999999999992
40
0.4999760117215625
50
-0.00653171
51
25.70023661
0
ARC
8
BLACK
10
288.1135299999999688
20
-176.0208999999999833
40
0.4999993648365966
50
-300.29939530
51
-154.29367517
0
ARC
8
BLACK
10
287.2121399999999767
20
-177.8602599999999825
40
0.5003610067191487
50
-25.69659863
51
-0.00938973
0
ARC
8
BLACK
10
288.1135299999999688
20
-178.294099999999986
40
0.4999960394813143
50
-205.70653133
51
-59.70037344
0
ARC
8
BLACK
10
288.6180499999999824
20
-179.157510000000002
40
0.5000103584367028
50
90.00022918
51
120.29880049
0
ARC
8
BLACK
10
288.6180499999999824
20
-175.1574899999999957
40
0.5000090000089998
50
-120.29901505
51
-90.00034377
0
ARC
8
BLACK
10
290.2069500000000062
20
-179.1575079999999787
40
0.5000090000039998
50
59.70098495
51
89.99977082
0
ARC
8
BLACK
10
290.2069500000000062
20
-175.1574909999999932
40
0.500009136137531
50
-89.99965623
51
-59.70098495
0
ARC
8
BLACK
10
290.7114689999999655
20
-176.0209009999999807
40
0.499998988562977
50
-25.70617187
51
120.29929636
0
ARC
8
BLACK
10
291.6124889999999823
20
-176.4546550000000025
40
0.499990000001
50
-205.70646243
51
-179.99988541
0
ARC
8
BLACK
10
290.711469999999963
20
-178.2940979999999911
40
0.4999997985959594
50
-120.29939530
51
25.70642808
0
ARC
8
BLACK
10
291.6124889999999823
20
-177.8603430000000003
40
0.4999899543000839
50
-180.00022919
51
-154.29353757
0
LINE
8
BLACK
6
CONTINUOUS
10
302.0000009999999975
20
-158.810340999999994
11
302.0000009999999975
21
-157.4046569999999861
0
LINE
8
BLACK
6
CONTINUOUS
10
302.9055480000000102
20
-156.6074999999999875
11
304.4944529999999645
21
-156.6074999999999875
0
LINE
8
BLACK
6
CONTINUOUS
10
304.494451999999967
20
-159.60749899999999
11
302.9055480000000102
21
-159.60749899999999
0
LINE
8
BLACK
6
CONTINUOUS
10
305.3999989999999798
20
-157.4046569999999861
11
305.3999989999999798
21
-158.810340999999994
0
ARC
8
BLACK
10
301.5
20
-157.4045999999999879
40
0.4999760117215625
50
-0.00653171
51
25.70023661
0
ARC
8
BLACK
10
302.4010299999999916
20
-156.9709000000000003
40
0.4999993648365966
50
-300.29939530
51
-154.29367517
0
ARC
8
BLACK
10
301.4996399999999994
20
-158.8102599999999995
40
0.5003610067191487
50
-25.69659863
51
-0.00938973
0
ARC
8
BLACK
10
302.4010299999999916
20
-159.2441000000000031
40
0.4999960394813143
50
-205.70653133
51
-59.70037344
0
ARC
8
BLACK
10
302.9055500000000052
20
-160.1075099999999907
40
0.5000103584367028
50
90.00022918
51
120.29880049
0
ARC
8
BLACK
10
302.9055500000000052
20
-156.1074899999999843
40
0.5000090000089998
50
-120.29901505
51
-90.00034377
0
ARC
8
BLACK
10
304.4944499999999721
20
-160.1075079999999957
40
0.5000090000039998
50
59.70098495
51
89.99977082
0
ARC
8
BLACK
10
304.4944499999999721
20
-156.1074909999999818
40
0.500009136137531
50
-89.99965623
51
-59.70098495
0
ARC
8
BLACK
10
304.9989689999999882
20
-156.9709009999999978
40
0.499998988562977
50
-25.70617187
51
120.29929636
0
ARC
8
BLACK
10
305.899989000000005
20
-157.4046549999999911
40
0.499990000001
50
-205.70646243
51
-179.99988541
0
ARC
8
BLACK
10
304.9989699999999857
20
-159.2440979999999797
40
0.4999997985959594
50
-120.29939530
51
25.70642808
0
ARC
8
BLACK
10
305.899989000000005
20
-158.8103429999999889
40
0.4999899543000839
50
-180.00022919
51
-154.29353757
0
LINE
8
BLACK
6
CONTINUOUS
10
149.6000009999999918
20
-101.6603409999999883
11
149.6000009999999918
21
-100.2546569999999946
0
LINE
8
BLACK
6
CONTINUOUS
10
150.5055480000000045
20
-99.457499999999996
11
152.0944529999999872
21
-99.457499999999996
0
LINE
8
BLACK
6
CONTINUOUS
10
152.0944519999999898
20
-102.4574989999999985
11
150.5055480000000045
21
-102.4574989999999985
0
LINE
8
BLACK
6
CONTINUOUS
10
152.9999990000000025
20
-100.2546569999999946
11
152.9999990000000025
21
-101.6603409999999883
0
ARC
8
BLACK
10
149.0999999999999943
20
-100.2545999999999964
40
0.4999760117215625
50
-0.00653171
51
25.70023661
0
ARC
8
BLACK
10
150.0010299999999859
20
-99.8208999999999946
40
0.4999993648365966
50
-300.29939530
51
-154.29367517
0
ARC
8
BLACK
10
149.0996399999999937
20
-101.6602599999999939
40
0.5003610067191487
50
-25.69659863
51
-0.00938973
0
ARC
8
BLACK
10
150.0010299999999859
20
-102.0940999999999974
40
0.4999960394813143
50
-205.70653133
51
-59.70037344
0
ARC
8
BLACK
10
150.5055499999999995
20
-102.9575099999999992
40
0.5000103584367028
50
90.00022918
51
120.29880049
0
ARC
8
BLACK
10
150.5055499999999995
20
-98.9574899999999928
40
0.5000090000089998
50
-120.29901505
51
-90.00034377
0
ARC
8
BLACK
10
152.0944499999999948
20
-102.95750799999999
40
0.5000090000039998
50
59.70098495
51
89.99977082
0
ARC
8
BLACK
10
152.0944499999999948
20
-98.9574909999999903
40
0.500009136137531
50
-89.99965623
51
-59.70098495
0
ARC
8
BLACK
10
152.5989689999999825
20
-99.8209009999999921
40
0.499998988562977
50
-25.70617187
51
120.29929636
0
ARC
8
BLACK
10
153.4999889999999994
20
-100.2546549999999996
40
0.499990000001
50
-205.70646243
51
-179.99988541
0
ARC
8
BLACK
10
152.59896999999998
20
-102.0940980000000025
40
0.4999997985959594
50
-120.29939530
51
25.70642808
0
ARC
8
BLACK
10
153.4999889999999994
20
-101.6603429999999975
40
0.4999899543000839
50
-180.00022919
51
-154.29353757
0
LINE
8
BLACK
6
CONTINUOUS
10
73.4000010000000032
20
-123.5678410000000014
11
73.4000010000000032
21
-122.1621569999999934
0
LINE
8
BLACK
6
CONTINUOUS
10
74.3055480000000017
20
-121.3649999999999949
11
75.8944529999999986
21
-121.3649999999999949
0
LINE
8
BLACK
6
CONTINUOUS
10
75.8944520000000011
20
-124.3649989999999974
11
74.3055480000000017
21
-124.3649989999999974
0
LINE
8
BLACK
6
CONTINUOUS
10
76.7999989999999997
20
-122.1621569999999934
11
76.7999989999999997
21
-123.5678410000000014
0
ARC
8
BLACK
10
72.8999999999999915
20
-122.1620999999999952
40
0.4999760117215625
50
-0.00653171
51
25.70023661
0
ARC
8
BLACK
10
73.8010299999999972
20
-121.7283999999999935
40
0.4999993648365966
50
-300.29939530
51
-154.29367517
0
ARC
8
BLACK
10
72.8996399999999909
20
-123.5677599999999927
40
0.5003610067191487
50
-25.69659863
51
-0.00938973
0
ARC
8
BLACK
10
73.8010299999999972
20
-124.0015999999999963
40
0.4999960394813143
50
-205.70653133
51
-59.70037344
0
ARC
8
BLACK
10
74.3055499999999967
20
-124.8650099999999981
40
0.5000103584367028
50
90.00022918
51
120.29880049
0
ARC
8
BLACK
10
74.3055499999999967
20
-120.8649899999999917
40
0.5000090000089998
50
-120.29901505
51
-90.00034377
0
ARC
8
BLACK
10
75.894449999999992
20
-124.8650079999999889
40
0.5000090000039998
50
59.70098495
51
89.99977082
0
ARC
8
BLACK
10
75.894449999999992
20
-120.8649909999999892
40
0.500009136137531
50
-89.99965623
51
-59.70098495
0
ARC
8
BLACK
10
76.3989689999999939
20
-121.728400999999991
40
0.499998988562977
50
-25.70617187
51
120.29929636
0
ARC
8
BLACK
10
77.2999889999999965
20
-122.1621549999999985
40
0.499990000001
50
-205.70646243
51
-179.99988541
0
ARC
8
BLACK
10
76.3989699999999914
20
-124.0015980000000013
40
0.4999997985959594
50
-120.29939530
51
25.70642808
0
ARC
8
BLACK
10
77.2999889999999965
20
-123.5678429999999963
40
0.4999899543000839
50
-180.00022919
51
-154.29353757
0
LINE
8
BLACK
6
CONTINUOUS
10
321.0500010000000088
20
-123.5678410000000014
11
321.0500010000000088
21
-122.1621569999999934
0
LINE
8
BLACK
6
CONTINUOUS
10
321.9555479999999648
20
-121.3649999999999949
11
323.5444529999999759
21
-121.3649999999999949
0
LINE
8
BLACK
6
CONTINUOUS
10
323.5444519999999784
20
-124.3649989999999974
11
321.9555479999999648
21
-124.3649989999999974
0
LINE
8
BLACK
6
CONTINUOUS
10
324.4499989999999912
20
-122.1621569999999934
11
324.4499989999999912
21
-123.5678410000000014
0
ARC
8
BLACK
10
320.5500000000000114
20
-122.1620999999999952
40
0.4999760117215625
50
-0.00653171
51
25.70023661
0
ARC
8
BLACK
10
321.4510300000000029
20
-121.7283999999999935
40
0.4999993648365966
50
-300.29939530
51
-154.29367517
0
ARC
8
BLACK
10
320.5496400000000108
20
-123.5677599999999927
40
0.5003610067191487
50
-25.69659863
51
-0.00938973
0
ARC
8
BLACK
10
321.4510300000000029
20
-124.0015999999999963
40
0.4999960394813143
50
-205.70653133
51
-59.70037344
0
ARC
8
BLACK
10
321.9555499999999597
20
-124.8650099999999981
40
0.5000103584367028
50
90.00022918
51
120.29880049
0
ARC
8
BLACK
10
321.9555499999999597
20
-120.8649899999999917
40
0.5000090000089998
50
-120.29901505
51
-90.00034377
0
ARC
8
BLACK
10
323.5444499999999834
20
-124.8650079999999889
40
0.5000090000039998
50
59.70098495
51
89.99977082
0
ARC
8
BLACK
10
323.5444499999999834
20
-120.8649909999999892
40
0.500009136137531
50
-89.99965623
51
-59.70098495
0
ARC
8
BLACK
10
324.0489689999999996
20
-121.728400999999991
40
0.499998988562977
50
-25.70617187
51
120.29929636
0
ARC
8
BLACK
10
324.9499889999999596
20
-122.1621549999999985
40
0.499990000001
50
-205.70646243
51
-179.99988541
0
ARC
8
BLACK
10
324.0489699999999971
20
-124.0015980000000013
40
0.4999997985959594
50
-120.29939530
51
25.70642808
0
ARC
8
BLACK
10
324.9499889999999596
20
-123.5678429999999963
40
0.4999899543000839
50
-180.00022919
51
-154.29353757
0
LINE
8
BLACK
6
CONTINUOUS
10
73.4000010000000032
20
-104.51784099999999
11
73.4000010000000032
21
-103.1121569999999963
0
LINE
8
BLACK
6
CONTINUOUS
10
74.3055480000000017
20
-102.3149999999999977
11
75.8944529999999986
21
-102.3149999999999977
0
LINE
8
BLACK
6
CONTINUOUS
10
75.8944520000000011
20
-105.3149990000000003
11
74.3055480000000017
21
-105.3149990000000003
0
LINE
8
BLACK
6
CONTINUOUS
10
76.7999989999999997
20
-103.1121569999999963
11
76.7999989999999997
21
-104.51784099999999
0
ARC
8
BLACK
10
72.8999999999999915
20
-103.1120999999999981
40
0.4999760117215625
50
-0.00653171
51
25.70023661
0
ARC
8
BLACK
10
73.8010299999999972
20
-102.6783999999999963
40
0.4999993648365966
50
-300.29939530
51
-154.29367517
0
ARC
8
BLACK
10
72.8996399999999909
20
-104.5177599999999956
40
0.5003610067191487
50
-25.69659863
51
-0.00938973
0
ARC
8
BLACK
10
73.8010299999999972
20
-104.9515999999999991
40
0.4999960394813143
50
-205.70653133
51
-59.70037344
0
ARC
8
BLACK
10
74.3055499999999967
20
-105.8150100000000009
40
0.5000103584367028
50
90.00022918
51
120.29880049
0
ARC
8
BLACK
10
74.3055499999999967
20
-101.8149899999999946
40
0.5000090000089998
50
-120.29901505
51
-90.00034377
0
ARC
8
BLACK
10
75.894449999999992
20
-105.8150079999999917
40
0.5000090000039998
50
59.70098495
51
89.99977082
0
ARC
8
BLACK
10
75.894449999999992
20
-101.814990999999992
40
0.500009136137531
50
-89.99965623
51
-59.70098495
0
ARC
8
BLACK
10
76.3989689999999939
20
-102.6784009999999938
40
0.499998988562977
50
-25.70617187
51
120.29929636
0
ARC
8
BLACK
10
77.2999889999999965
20
-103.1121550000000013
40
0.499990000001
50
-205.70646243
51
-179.99988541
0
ARC
8
BLACK
10
76.3989699999999914
20
-104.95159799999999
40
0.4999997985959594
50
-120.29939530
51
25.70642808
0
ARC
8
BLACK
10
77.2999889999999965
20
-104.5178429999999992
40
0.4999899543000839
50
-180.00022919
51
-154.29353757
0
LINE
8
BLACK
6
CONTINUOUS
10
92.4500010000000003
20
-142.6178409999999985
11
92.4500010000000003
21
-141.2121569999999906
0
LINE
8
BLACK
6
CONTINUOUS
10
93.3555479999999989
20
-140.414999999999992
11
94.9444529999999958
21
-140.414999999999992
0
LINE
8
BLACK
6
CONTINUOUS
10
94.9444519999999983
20
-143.4149989999999946
11
93.3555479999999989
21
-143.4149989999999946
0
LINE
8
BLACK
6
CONTINUOUS
10
95.8499989999999968
20
-141.2121569999999906
11
95.8499989999999968
21
-142.6178409999999985
0
ARC
8
BLACK
10
91.9500000000000028
20
-141.2120999999999924
40
0.4999760117215625
50
-0.00653171
51
25.70023661
0
ARC
8
BLACK
10
92.8510299999999944
20
-140.7784000000000049
40
0.4999993648365966
50
-300.29939530
51
-154.29367517
0
ARC
8
BLACK
10
91.9496400000000023
20
-142.6177600000000041
40
0.5003610067191487
50
-25.69659863
51
-0.00938973
0
ARC
8
BLACK
10
92.8510299999999944
20
-143.0516000000000076
40
0.4999960394813143
50
-205.70653133
51
-59.70037344
0
ARC
8
BLACK
10
93.3555499999999938
20
-143.9150099999999952
40
0.5000103584367028
50
90.00022918
51
120.29880049
0
ARC
8
BLACK
10
93.3555499999999938
20
-139.9149899999999889
40
0.5000090000089998
50
-120.29901505
51
-90.00034377
0
ARC
8
BLACK
10
94.9444499999999891
20
-143.9150080000000003
40
0.5000090000039998
50
59.70098495
51
89.99977082
0
ARC
8
BLACK
10
94.9444499999999891
20
-139.9149909999999863
40
0.500009136137531
50
-89.99965623
51
-59.70098495
0
ARC
8
BLACK
10
95.4489689999999911
20
-140.7784010000000023
40
0.499998988562977
50
-25.70617187
51
120.29929636
0
ARC
8
BLACK
10
96.3499889999999937
20
-141.2121549999999957
40
0.499990000001
50
-205.70646243
51
-179.99988541
0
ARC
8
BLACK
10
95.4489700000000028
20
-143.0515979999999843
40
0.4999997985959594
50
-120.29939530
51
25.70642808
0
ARC
8
BLACK
10
96.3499889999999937
20
-142.6178429999999935
40
0.4999899543000839
50
-180.00022919
51
-154.29353757
0
LINE
8
BLACK
6
CONTINUOUS
10
302.0000009999999975
20
-120.7103409999999997
11
302.0000009999999975
21
-119.3046569999999917
0
LINE
8
BLACK
6
CONTINUOUS
10
302.9055480000000102
20
-118.5074999999999932
11
304.4944529999999645
21
-118.5074999999999932
0
LINE
8
BLACK
6
CONTINUOUS
10
304.494451999999967
20
-121.5074989999999957
11
302.9055480000000102
21
-121.5074989999999957
0
LINE
8
BLACK
6
CONTINUOUS
10
305.3999989999999798
20
-119.3046569999999917
11
305.3999989999999798
21
-120.7103409999999997
0
ARC
8
BLACK
10
301.5
20
-119.3045999999999935
40
0.4999760117215625
50
-0.00653171
51
25.70023661
0
ARC
8
BLACK
10
302.4010299999999916
20
-118.8708999999999918
40
0.4999993648365966
50
-300.29939530
51
-154.29367517
0
ARC
8
BLACK
10
301.4996399999999994
20
-120.710259999999991
40
0.5003610067191487
50
-25.69659863
51
-0.00938973
0
ARC
8
BLACK
10
302.4010299999999916
20
-121.1440999999999946
40
0.4999960394813143
50
-205.70653133
51
-59.70037344
0
ARC
8
BLACK
10
302.9055500000000052
20
-122.0075099999999964
40
0.5000103584367028
50
90.00022918
51
120.29880049
0
ARC
8
BLACK
10
302.9055500000000052
20
-118.00748999999999
40
0.5000090000089998
50
-120.29901505
51
-90.00034377
0
ARC
8
BLACK
10
304.4944499999999721
20
-122.0075080000000014
40
0.5000090000039998
50
59.70098495
51
89.99977082
0
ARC
8
BLACK
10
304.4944499999999721
20
-118.0074910000000017
40
0.500009136137531
50
-89.99965623
51
-59.70098495
0
ARC
8
BLACK
10
304.9989689999999882
20
-118.8709009999999893
40
0.499998988562977
50
-25.70617187
51
120.29929636
0
ARC
8
BLACK
10
305.899989000000005
20
-119.3046549999999968
40
0.499990000001
50
-205.70646243
51
-179.99988541
0
ARC
8
BLACK
10
304.9989699999999857
20
-121.1440979999999996
40
0.4999997985959594
50
-120.29939530
51
25.70642808
0
ARC
8
BLACK
10
305.899989000000005
20
-120.7103429999999946
40
0.4999899543000839
50
-180.00022919
51
-154.29353757
0
LINE
8
BLACK
6
CONTINUOUS
10
149.6000009999999918
20
-139.7603409999999826
11
149.6000009999999918
21
-138.3546570000000031
0
LINE
8
BLACK
6
CONTINUOUS
10
150.5055480000000045
20
-137.5575000000000045
11
152.0944529999999872
21
-137.5575000000000045
0
LINE
8
BLACK
6
CONTINUOUS
10
152.0944519999999898
20
-140.5574990000000071
11
150.5055480000000045
21
-140.5574990000000071
0
LINE
8
BLACK
6
CONTINUOUS
10
152.9999990000000025
20
-138.3546570000000031
11
152.9999990000000025
21
-139.7603409999999826
0
ARC
8
BLACK
10
149.0999999999999943
20
-138.3546000000000049
40
0.4999760117215625
50
-0.00653171
51
25.70023661
0
ARC
8
BLACK
10
150.0010299999999859
20
-137.9208999999999889
40
0.4999993648365966
50
-300.29939530
51
-154.29367517
0
ARC
8
BLACK
10
149.0996399999999937
20
-139.7602599999999882
40
0.5003610067191487
50
-25.69659863
51
-0.00938973
0
ARC
8
BLACK
10
150.0010299999999859
20
-140.1940999999999917
40
0.4999960394813143
50
-205.70653133
51
-59.70037344
0
ARC
8
BLACK
10
150.5055499999999995
20
-141.0575100000000077
40
0.5000103584367028
50
90.00022918
51
120.29880049
0
ARC
8
BLACK
10
150.5055499999999995
20
-137.0574900000000014
40
0.5000090000089998
50
-120.29901505
51
-90.00034377
0
ARC
8
BLACK
10
152.0944499999999948
20
-141.0575079999999843
40
0.5000090000039998
50
59.70098495
51
89.99977082
0
ARC
8
BLACK
10
152.0944499999999948
20
-137.0574909999999988
40
0.500009136137531
50
-89.99965623
51
-59.70098495
0
ARC
8
BLACK
10
152.5989689999999825
20
-137.9209009999999864
40
0.499998988562977
50
-25.70617187
51
120.29929636
0
ARC
8
BLACK
10
153.4999889999999994
20
-138.3546549999999797
40
0.499990000001
50
-205.70646243
51
-179.99988541
0
ARC
8
BLACK
10
152.59896999999998
20
-140.1940979999999968
40
0.4999997985959594
50
-120.29939530
51
25.70642808
0
ARC
8
BLACK
10
153.4999889999999994
20
-139.760343000000006
40
0.4999899543000839
50
-180.00022919
51
-154.29353757
0
LINE
8
BLACK
6
CONTINUOUS
10
168.6500010000000032
20
-142.6178409999999985
11
168.6500010000000032
21
-141.2121569999999906
0
LINE
8
BLACK
6
CONTINUOUS
10
169.5555479999999875
20
-140.414999999999992
11
171.1444529999999986
21
-140.414999999999992
0
LINE
8
BLACK
6
CONTINUOUS
10
171.1444520000000011
20
-143.4149989999999946
11
169.5555479999999875
21
-143.4149989999999946
0
LINE
8
BLACK
6
CONTINUOUS
10
172.0499989999999855
20
-141.2121569999999906
11
172.0499989999999855
21
-142.6178409999999985
0
ARC
8
BLACK
10
168.1500000000000057
20
-141.2120999999999924
40
0.4999760117215625
50
-0.00653171
51
25.70023661
0
ARC
8
BLACK
10
169.0510299999999972
20
-140.7784000000000049
40
0.4999993648365966
50
-300.29939530
51
-154.29367517
0
ARC
8
BLACK
10
168.1496400000000051
20
-142.6177600000000041
40
0.5003610067191487
50
-25.69659863
51
-0.00938973
0
ARC
8
BLACK
10
169.0510299999999972
20
-143.0516000000000076
40
0.4999960394813143
50
-205.70653133
51
-59.70037344
0
ARC
8
BLACK
10
169.5555499999999824
20
-143.9150099999999952
40
0.5000103584367028
50
90.00022918
51
120.29880049
0
ARC
8
BLACK
10
169.5555499999999824
20
-139.9149899999999889
40
0.5000090000089998
50
-120.29901505
51
-90.00034377
0
ARC
8
BLACK
10
171.1444500000000062
20
-143.9150080000000003
40
0.5000090000039998
50
59.70098495
51
89.99977082
0
ARC
8
BLACK
10
171.1444500000000062
20
-139.9149909999999863
40
0.500009136137531
50
-89.99965623
51
-59.70098495
0
ARC
8
BLACK
10
171.6489689999999939
20
-140.7784010000000023
40
0.499998988562977
50
-25.70617187
51
120.29929636
0
ARC
8
BLACK
10
172.5499889999999823
20
-141.2121549999999957
40
0.499990000001
50
-205.70646243
51
-179.99988541
0
ARC
8
BLACK
10
171.6489699999999914
20
-143.0515979999999843
40
0.4999997985959594
50
-120.29939530
51
25.70642808
0
ARC
8
BLACK
10
172.5499889999999823
20
-142.6178429999999935
40
0.4999899543000839
50
-180.00022919
51
-154.29353757
0
LINE
8
BLACK
6
CONTINUOUS
10
321.0500010000000088
20
-161.6678409999999815
11
321.0500010000000088
21
-160.262157000000002
0
LINE
8
BLACK
6
CONTINUOUS
10
321.9555479999999648
20
-159.4650000000000034
11
323.5444529999999759
21
-159.4650000000000034
0
LINE
8
BLACK
6
CONTINUOUS
10
323.5444519999999784
20
-162.4649990000000059
11
321.9555479999999648
21
-162.4649990000000059
0
LINE
8
BLACK
6
CONTINUOUS
10
324.4499989999999912
20
-160.262157000000002
11
324.4499989999999912
21
-161.6678409999999815
0
ARC
8
BLACK
10
320.5500000000000114
20
-160.2621000000000038
40
0.4999760117215625
50
-0.00653171
51
25.70023661
0
ARC
8
BLACK
10
321.4510300000000029
20
-159.8283999999999878
40
0.4999993648365966
50
-300.29939530
51
-154.29367517
0
ARC
8
BLACK
10
320.5496400000000108
20
-161.667759999999987
40
0.5003610067191487
50
-25.69659863
51
-0.00938973
0
ARC
8
BLACK
10
321.4510300000000029
20
-162.1015999999999906
40
0.4999960394813143
50
-205.70653133
51
-59.70037344
0
ARC
8
BLACK
10
321.9555499999999597
20
-162.9650100000000066
40
0.5000103584367028
50
90.00022918
51
120.29880049
0
ARC
8
BLACK
10
321.9555499999999597
20
-158.9649900000000002
40
0.5000090000089998
50
-120.29901505
51
-90.00034377
0
ARC
8
BLACK
10
323.5444499999999834
20
-162.9650079999999832
40
0.5000090000039998
50
59.70098495
51
89.99977082
0
ARC
8
BLACK
10
323.5444499999999834
20
-158.9649909999999977
40
0.500009136137531
50
-89.99965623
51
-59.70098495
0
ARC
8
BLACK
10
324.0489689999999996
20
-159.8284009999999853
40
0.499998988562977
50
-25.70617187
51
120.29929636
0
ARC
8
BLACK
10
324.9499889999999596
20
-160.2621549999999786
40
0.499990000001
50
-205.70646243
51
-179.99988541
0
ARC
8
BLACK
10
324.0489699999999971
20
-162.1015979999999956
40
0.4999997985959594
50
-120.29939530
51
25.70642808
0
ARC
8
BLACK
10
324.9499889999999596
20
-161.6678430000000048
40
0.4999899543000839
50
-180.00022919
51
-154.29353757
0
LINE
8
BLACK
6
CONTINUOUS
10
263.9000009999999747
20
-99.7553410000000014
11
263.9000009999999747
21
-98.3496569999999934
0
LINE
8
BLACK
6
CONTINUOUS
10
264.8055479999999875
20
-97.5524999999999949
11
266.3944529999999986
21
-97.5524999999999949
0
LINE
8
BLACK
6
CONTINUOUS
10
266.3944520000000011
20
-100.5524989999999974
11
264.8055479999999875
21
-100.5524989999999974
0
LINE
8
BLACK
6
CONTINUOUS
10
267.2999990000000139
20
-98.3496569999999934
11
267.2999990000000139
21
-99.7553410000000014
0
ARC
8
BLACK
10
263.3999999999999773
20
-98.3495999999999952
40
0.4999760117215625
50
-0.00653171
51
25.70023661
0
ARC
8
BLACK
10
264.3010299999999688
20
-97.9158999999999935
40
0.4999993648365966
50
-300.29939530
51
-154.29367517
0
ARC
8
BLACK
10
263.3996399999999767
20
-99.7552599999999927
40
0.5003610067191487
50
-25.69659863
51
-0.00938973
0
ARC
8
BLACK
10
264.3010299999999688
20
-100.1890999999999963
40
0.4999960394813143
50
-205.70653133
51
-59.70037344
0
ARC
8
BLACK
10
264.8055499999999824
20
-101.0525099999999981
40
0.5000103584367028
50
90.00022918
51
120.29880049
0
ARC
8
BLACK
10
264.8055499999999824
20
-97.0524899999999917
40
0.5000090000089998
50
-120.29901505
51
-90.00034377
0
ARC
8
BLACK
10
266.3944500000000062
20
-101.0525079999999889
40
0.5000090000039998
50
59.70098495
51
89.99977082
0
ARC
8
BLACK
10
266.3944500000000062
20
-97.0524909999999892
40
0.500009136137531
50
-89.99965623
51
-59.70098495
0
ARC
8
BLACK
10
266.8989689999999655
20
-97.915900999999991
40
0.499998988562977
50
-25.70617187
51
120.29929636
0
ARC
8
BLACK
10
267.7999889999999823
20
-98.3496549999999985
40
0.499990000001
50
-205.70646243
51
-179.99988541
0
ARC
8
BLACK
10
266.898969999999963
20
-100.1890980000000013
40
0.4999997985959594
50
-120.29939530
51
25.70642808
0
ARC
8
BLACK
10
267.7999889999999823
20
-99.7553429999999963
40
0.4999899543000839
50
-180.00022919
51
-154.29353757
0
LINE
8
BLACK
6
CONTINUOUS
10
244.8500009999999918
20
-123.5678410000000014
11
244.8500009999999918
21
-122.1621569999999934
0
LINE
8
BLACK
6
CONTINUOUS
10
245.7555479999999761
20
-121.3649999999999949
11
247.3444529999999872
21
-121.3649999999999949
0
LINE
8
BLACK
6
CONTINUOUS
10
247.3444519999999898
20
-124.3649989999999974
11
245.7555479999999761
21
-124.3649989999999974
0
LINE
8
BLACK
6
CONTINUOUS
10
248.2499990000000025
20
-122.1621569999999934
11
248.2499990000000025
21
-123.5678410000000014
0
ARC
8
BLACK
10
244.3499999999999943
20
-122.1620999999999952
40
0.4999760117215625
50
-0.00653171
51
25.70023661
0
ARC
8
BLACK
10
245.2510299999999859
20
-121.7283999999999935
40
0.4999993648365966
50
-300.29939530
51
-154.29367517
0
ARC
8
BLACK
10
244.3496399999999937
20
-123.5677599999999927
40
0.5003610067191487
50
-25.69659863
51
-0.00938973
0
ARC
8
BLACK
10
245.2510299999999859
20
-124.0015999999999963
40
0.4999960394813143
50
-205.70653133
51
-59.70037344
0
ARC
8
BLACK
10
245.7555499999999995
20
-124.8650099999999981
40
0.5000103584367028
50
90.00022918
51
120.29880049
0
ARC
8
BLACK
10
245.7555499999999995
20
-120.8649899999999917
40
0.5000090000089998
50
-120.29901505
51
-90.00034377
0
ARC
8
BLACK
10
247.3444499999999948
20
-124.8650079999999889
40
0.5000090000039998
50
59.70098495
51
89.99977082
0
ARC
8
BLACK
10
247.3444499999999948
20
-120.8649909999999892
40
0.500009136137531
50
-89.99965623
51
-59.70098495
0
ARC
8
BLACK
10
247.8489689999999825
20
-121.728400999999991
40
0.499998988562977
50
-25.70617187
51
120.29929636
0
ARC
8
BLACK
10
248.7499889999999994
20
-122.1621549999999985
40
0.499990000001
50
-205.70646243
51
-179.99988541
0
ARC
8
BLACK
10
247.84896999999998
20
-124.0015980000000013
40
0.4999997985959594
50
-120.29939530
51
25.70642808
0
ARC
8
BLACK
10
248.7499889999999994
20
-123.5678429999999963
40
0.4999899543000839
50
-180.00022919
51
-154.29353757
0
LINE
8
BLACK
6
CONTINUOUS
10
340.1000009999999634
20
-161.6678409999999815
11
340.1000009999999634
21
-160.262157000000002
0
LINE
8
BLACK
6
CONTINUOUS
10
341.0055479999999761
20
-159.4650000000000034
11
342.5944529999999872
21
-159.4650000000000034
0
LINE
8
BLACK
6
CONTINUOUS
10
342.5944519999999898
20
-162.4649990000000059
11
341.0055479999999761
21
-162.4649990000000059
0
LINE
8
BLACK
6
CONTINUOUS
10
343.4999990000000025
20
-160.262157000000002
11
343.4999990000000025
21
-161.6678409999999815
0
ARC
8
BLACK
10
339.5999999999999659
20
-160.2621000000000038
40
0.4999760117215625
50
-0.00653171
51
25.70023661
0
ARC
8
BLACK
10
340.5010299999999575
20
-159.8283999999999878
40
0.4999993648365966
50
-300.29939530
51
-154.29367517
0
ARC
8
BLACK
10
339.5996399999999653
20
-161.667759999999987
40
0.5003610067191487
50
-25.69659863
51
-0.00938973
0
ARC
8
BLACK
10
340.5010299999999575
20
-162.1015999999999906
40
0.4999960394813143
50
-205.70653133
51
-59.70037344
0
ARC
8
BLACK
10
341.0055499999999711
20
-162.9650100000000066
40
0.5000103584367028
50
90.00022918
51
120.29880049
0
ARC
8
BLACK
10
341.0055499999999711
20
-158.9649900000000002
40
0.5000090000089998
50
-120.29901505
51
-90.00034377
0
ARC
8
BLACK
10
342.5944499999999948
20
-162.9650079999999832
40
0.5000090000039998
50
59.70098495
51
89.99977082
0
ARC
8
BLACK
10
342.5944499999999948
20
-158.9649909999999977
40
0.500009136137531
50
-89.99965623
51
-59.70098495
0
ARC
8
BLACK
10
343.098969000000011
20
-159.8284009999999853
40
0.499998988562977
50
-25.70617187
51
120.29929636
0
ARC
8
BLACK
10
343.9999889999999709
20
-160.2621549999999786
40
0.499990000001
50
-205.70646243
51
-179.99988541
0
ARC
8
BLACK
10
343.0989700000000084
20
-162.1015979999999956
40
0.4999997985959594
50
-120.29939530
51
25.70642808
0
ARC
8
BLACK
10
343.9999889999999709
20
-161.6678430000000048
40
0.4999899543000839
50
-180.00022919
51
-154.29353757
0
LINE
8
BLACK
6
CONTINUOUS
10
130.5500009999999804
20
-117.852840999999998
11
130.5500009999999804
21
-116.44715699999999
0
LINE
8
BLACK
6
CONTINUOUS
10
131.4555479999999932
20
-115.6499999999999915
11
133.0444530000000043
21
-115.6499999999999915
0
LINE
8
BLACK
6
CONTINUOUS
10
133.0444520000000068
20
-118.649998999999994
11
131.4555479999999932
21
-118.649998999999994
0
LINE
8
BLACK
6
CONTINUOUS
10
133.9499989999999912
20
-116.44715699999999
11
133.9499989999999912
21
-117.852840999999998
0
ARC
8
BLACK
10
130.0499999999999829
20
-116.4470999999999918
40
0.4999760117215625
50
-0.00653171
51
25.70023661
0
ARC
8
BLACK
10
130.9510300000000029
20
-116.0133999999999901
40
0.4999993648365966
50
-300.29939530
51
-154.29367517
0
ARC
8
BLACK
10
130.0496399999999824
20
-117.8527599999999893
40
0.5003610067191487
50
-25.69659863
51
-0.00938973
0
ARC
8
BLACK
10
130.9510300000000029
20
-118.2865999999999929
40
0.4999960394813143
50
-205.70653133
51
-59.70037344
0
ARC
8
BLACK
10
131.4555499999999881
20
-119.1500099999999946
40
0.5000103584367028
50
90.00022918
51
120.29880049
0
ARC
8
BLACK
10
131.4555499999999881
20
-115.1499899999999883
40
0.5000090000089998
50
-120.29901505
51
-90.00034377
0
ARC
8
BLACK
10
133.0444499999999834
20
-119.1500079999999997
40
0.5000090000039998
50
59.70098495
51
89.99977082
0
ARC
8
BLACK
10
133.0444499999999834
20
-115.149991
40
0.500009136137531
50
-89.99965623
51
-59.70098495
0
ARC
8
BLACK
10
133.5489689999999996
20
-116.0134010000000018
40
0.499998988562977
50
-25.70617187
51
120.29929636
0
ARC
8
BLACK
10
134.449988999999988
20
-116.4471549999999951
40
0.499990000001
50
-205.70646243
51
-179.99988541
0
ARC
8
BLACK
10
133.5489699999999971
20
-118.2865979999999979
40
0.4999997985959594
50
-120.29939530
51
25.70642808
0
ARC
8
BLACK
10
134.449988999999988
20
-117.8528429999999929
40
0.4999899543000839
50
-180.00022919
51
-154.29353757
0
LINE
8
BLACK
6
CONTINUOUS
10
106.7375009999999946
20
-180.7178409999999928
11
106.7375009999999946
21
-179.3121569999999849
0
LINE
8
BLACK
6
CONTINUOUS
10
107.6430479999999932
20
-178.5149999999999864
11
109.2319529999999901
21
-178.5149999999999864
0
LINE
8
BLACK
6
CONTINUOUS
10
109.2319519999999926
20
-181.5149989999999889
11
107.6430479999999932
21
-181.5149989999999889
0
LINE
8
BLACK
6
CONTINUOUS
10
110.1374989999999912
20
-179.3121569999999849
11
110.1374989999999912
21
-180.7178409999999928
0
ARC
8
BLACK
10
106.2374999999999972
20
-179.3120999999999867
40
0.4999760117215625
50
-0.00653171
51
25.70023661
0
ARC
8
BLACK
10
107.1385299999999887
20
-178.8783999999999992
40
0.4999993648365966
50
-300.29939530
51
-154.29367517
0
ARC
8
BLACK
10
106.2371399999999966
20
-180.7177599999999984
40
0.5003610067191487
50
-25.69659863
51
-0.00938973
0
ARC
8
BLACK
10
107.1385299999999887
20
-181.151600000000002
40
0.4999960394813143
50
-205.70653133
51
-59.70037344
0
ARC
8
BLACK
10
107.6430499999999881
20
-182.0150099999999895
40
0.5000103584367028
50
90.00022918
51
120.29880049
0
ARC
8
BLACK
10
107.6430499999999881
20
-178.0149899999999832
40
0.5000090000089998
50
-120.29901505
51
-90.00034377
0
ARC
8
BLACK
10
109.2319499999999977
20
-182.0150079999999946
40
0.5000090000039998
50
59.70098495
51
89.99977082
0
ARC
8
BLACK
10
109.2319499999999977
20
-178.0149909999999807
40
0.500009136137531
50
-89.99965623
51
-59.70098495
0
ARC
8
BLACK
10
109.7364689999999996
20
-178.8784009999999967
40
0.499998988562977
50
-25.70617187
51
120.29929636
0
ARC
8
BLACK
10
110.637488999999988
20
-179.31215499999999
40
0.499990000001
50
-205.70646243
51
-179.99988541
0
ARC
8
BLACK
10
109.7364699999999971
20
-181.1515979999999786
40
0.4999997985959594
50
-120.29939530
51
25.70642808
0
ARC
8
BLACK
10
110.637488999999988
20
-180.7178429999999878
40
0.4999899543000839
50
-180.00022919
51
-154.29353757
0
LINE
8
BLACK
6
CONTINUOUS
10
282.9500009999999861
20
-136.9028409999999951
11
282.9500009999999861
21
-135.4971569999999872
0
LINE
8
BLACK
6
CONTINUOUS
10
283.8555479999999989
20
-134.6999999999999886
11
285.44445300000001
21
-134.6999999999999886
0
LINE
8
BLACK
6
CONTINUOUS
10
285.4444520000000125
20
-137.6999989999999912
11
283.8555479999999989
21
-137.6999989999999912
0
LINE
8
BLACK
6
CONTINUOUS
10
286.3499989999999684
20
-135.4971569999999872
11
286.3499989999999684
21
-136.9028409999999951
0
ARC
8
BLACK
10
282.4499999999999886
20
-135.497099999999989
40
0.4999760117215625
50
-0.00653171
51
25.70023661
0
ARC
8
BLACK
10
283.3510299999999802
20
-135.0634000000000015
40
0.4999993648365966
50
-300.29939530
51
-154.29367517
0
ARC
8
BLACK
10
282.449639999999988
20
-136.9027600000000007
40
0.5003610067191487
50
-25.69659863
51
-0.00938973
0
ARC
8
BLACK
10
283.3510299999999802
20
-137.3366000000000042
40
0.4999960394813143
50
-205.70653133
51
-59.70037344
0
ARC
8
BLACK
10
283.8555499999999938
20
-138.2000099999999918
40
0.5000103584367028
50
90.00022918
51
120.29880049
0
ARC
8
BLACK
10
283.8555499999999938
20
-134.1999899999999855
40
0.5000090000089998
50
-120.29901505
51
-90.00034377
0
ARC
8
BLACK
10
285.4444499999999607
20
-138.2000079999999969
40
0.5000090000039998
50
59.70098495
51
89.99977082
0
ARC
8
BLACK
10
285.4444499999999607
20
-134.1999909999999829
40
0.500009136137531
50
-89.99965623
51
-59.70098495
0
ARC
8
BLACK
10
285.9489689999999769
20
-135.0634009999999989
40
0.499998988562977
50
-25.70617187
51
120.29929636
0
ARC
8
BLACK
10
286.8499889999999937
20
-135.4971549999999922
40
0.499990000001
50
-205.70646243
51
-179.99988541
0
ARC
8
BLACK
10
285.9489699999999743
20
-137.3365979999999809
40
0.4999997985959594
50
-120.29939530
51
25.70642808
0
ARC
8
BLACK
10
286.8499889999999937
20
-136.9028429999999901
40
0.4999899543000839
50
-180.00022919
51
-154.29353757
0
LINE
8
BLACK
6
CONTINUOUS
10
130.5500009999999804
20
-136.9028409999999951
11
130.5500009999999804
21
-135.4971569999999872
0
LINE
8
BLACK
6
CONTINUOUS
10
131.4555479999999932
20
-134.6999999999999886
11
133.0444530000000043
21
-134.6999999999999886
0
LINE
8
BLACK
6
CONTINUOUS
10
133.0444520000000068
20
-137.6999989999999912
11
131.4555479999999932
21
-137.6999989999999912
0
LINE
8
BLACK
6
CONTINUOUS
10
133.9499989999999912
20
-135.4971569999999872
11
133.9499989999999912
21
-136.9028409999999951
0
ARC
8
BLACK
10
130.0499999999999829
20
-135.497099999999989
40
0.4999760117215625
50
-0.00653171
51
25.70023661
0
ARC
8
BLACK
10
130.9510300000000029
20
-135.0634000000000015
40
0.4999993648365966
50
-300.29939530
51
-154.29367517
0
ARC
8
BLACK
10
130.0496399999999824
20
-136.9027600000000007
40
0.5003610067191487
50
-25.69659863
51
-0.00938973
0
ARC
8
BLACK
10
130.9510300000000029
20
-137.3366000000000042
40
0.4999960394813143
50
-205.70653133
51
-59.70037344
0
ARC
8
BLACK
10
131.4555499999999881
20
-138.2000099999999918
40
0.5000103584367028
50
90.00022918
51
120.29880049
0
ARC
8
BLACK
10
131.4555499999999881
20
-134.1999899999999855
40
0.5000090000089998
50
-120.29901505
51
-90.00034377
0
ARC
8
BLACK
10
133.0444499999999834
20
-138.2000079999999969
40
0.5000090000039998
50
59.70098495
51
89.99977082
0
ARC
8
BLACK
10
133.0444499999999834
20
-134.1999909999999829
40
0.500009136137531
50
-89.99965623
51
-59.70098495
0
ARC
8
BLACK
10
133.5489689999999996
20
-135.0634009999999989
40
0.499998988562977
50
-25.70617187
51
120.29929636
0
ARC
8
BLACK
10
134.449988999999988
20
-135.4971549999999922
40
0.499990000001
50
-205.70646243
51
-179.99988541
0
ARC
8
BLACK
10
133.5489699999999971
20
-137.3365979999999809
40
0.4999997985959594
50
-120.29939530
51
25.70642808
0
ARC
8
BLACK
10
134.449988999999988
20
-136.9028429999999901
40
0.4999899543000839
50
-180.00022919
51
-154.29353757
0
LINE
8
BLACK
6
CONTINUOUS
10
282.9500009999999861
20
-98.8028410000000008
11
282.9500009999999861
21
-97.3971569999999929
0
LINE
8
BLACK
6
CONTINUOUS
10
283.8555479999999989
20
-96.5999999999999943
11
285.44445300000001
21
-96.5999999999999943
0
LINE
8
BLACK
6
CONTINUOUS
10
285.4444520000000125
20
-99.5999989999999968
11
283.8555479999999989
21
-99.5999989999999968
0
LINE
8
BLACK
6
CONTINUOUS
10
286.3499989999999684
20
-97.3971569999999929
11
286.3499989999999684
21
-98.8028410000000008
0
ARC
8
BLACK
10
282.4499999999999886
20
-97.3970999999999947
40
0.4999760117215625
50
-0.00653171
51
25.70023661
0
ARC
8
BLACK
10
283.3510299999999802
20
-96.9633999999999929
40
0.4999993648365966
50
-300.29939530
51
-154.29367517
0
ARC
8
BLACK
10
282.449639999999988
20
-98.8027599999999921
40
0.5003610067191487
50
-25.69659863
51
-0.00938973
0
ARC
8
BLACK
10
283.3510299999999802
20
-99.2365999999999957
40
0.4999960394813143
50
-205.70653133
51
-59.70037344
0
ARC
8
BLACK
10
283.8555499999999938
20
-100.1000099999999975
40
0.5000103584367028
50
90.00022918
51
120.29880049
0
ARC
8
BLACK
10
283.8555499999999938
20
-96.0999899999999911
40
0.5000090000089998
50
-120.29901505
51
-90.00034377
0
ARC
8
BLACK
10
285.4444499999999607
20
-100.1000080000000025
40
0.5000090000039998
50
59.70098495
51
89.99977082
0
ARC
8
BLACK
10
285.4444499999999607
20
-96.0999909999999886
40
0.500009136137531
50
-89.99965623
51
-59.70098495
0
ARC
8
BLACK
10
285.9489689999999769
20
-96.9634009999999904
40
0.499998988562977
50
-25.70617187
51
120.29929636
0
ARC
8
BLACK
10
286.8499889999999937
20
-97.3971549999999979
40
0.499990000001
50
-205.70646243
51
-179.99988541
0
ARC
8
BLACK
10
285.9489699999999743
20
-99.2365980000000008
40
0.4999997985959594
50
-120.29939530
51
25.70642808
0
ARC
8
BLACK
10
286.8499889999999937
20
-98.8028429999999958
40
0.4999899543000839
50
-180.00022919
51
-154.29353757
0
LINE
8
BLACK
6
CONTINUOUS
10
130.5500009999999804
20
-155.9528410000000065
11
130.5500009999999804
21
-154.5471569999999986
0
LINE
8
BLACK
6
CONTINUOUS
10
131.4555479999999932
20
-153.75
11
133.0444530000000043
21
-153.75
0
LINE
8
BLACK
6
CONTINUOUS
10
133.0444520000000068
20
-156.7499990000000025
11
131.4555479999999932
21
-156.7499990000000025
0
LINE
8
BLACK
6
CONTINUOUS
10
133.9499989999999912
20
-154.5471569999999986
11
133.9499989999999912
21
-155.9528410000000065
0
ARC
8
BLACK
10
130.0499999999999829
20
-154.5471000000000004
40
0.4999760117215625
50
-0.00653171
51
25.70023661
0
ARC
8
BLACK
10
130.9510300000000029
20
-154.1133999999999844
40
0.4999993648365966
50
-300.29939530
51
-154.29367517
0
ARC
8
BLACK
10
130.0496399999999824
20
-155.9527599999999836
40
0.5003610067191487
50
-25.69659863
51
-0.00938973
0
ARC
8
BLACK
10
130.9510300000000029
20
-156.3865999999999872
40
0.4999960394813143
50
-205.70653133
51
-59.70037344
0
ARC
8
BLACK
10
131.4555499999999881
20
-157.2500100000000032
40
0.5000103584367028
50
90.00022918
51
120.29880049
0
ARC
8
BLACK
10
131.4555499999999881
20
-153.2499899999999968
40
0.5000090000089998
50
-120.29901505
51
-90.00034377
0
ARC
8
BLACK
10
133.0444499999999834
20
-157.2500079999999798
40
0.5000090000039998
50
59.70098495
51
89.99977082
0
ARC
8
BLACK
10
133.0444499999999834
20
-153.2499909999999943
40
0.500009136137531
50
-89.99965623
51
-59.70098495
0
ARC
8
BLACK
10
133.5489689999999996
20
-154.1134009999999819
40
0.499998988562977
50
-25.70617187
51
120.29929636
0
ARC
8
BLACK
10
134.449988999999988
20
-154.5471550000000036
40
0.499990000001
50
-205.70646243
51
-179.99988541
0
ARC
8
BLACK
10
133.5489699999999971
20
-156.3865979999999922
40
0.4999997985959594
50
-120.29939530
51
25.70642808
0
ARC
8
BLACK
10
134.449988999999988
20
-155.9528430000000014
40
0.4999899543000839
50
-180.00022919
51
-154.29353757
0
LINE
8
BLACK
6
CONTINUOUS
10
244.8500009999999918
20
-161.6678409999999815
11
244.8500009999999918
21
-160.262157000000002
0
LINE
8
BLACK
6
CONTINUOUS
10
245.7555479999999761
20
-159.4650000000000034
11
247.3444529999999872
21
-159.4650000000000034
0
LINE
8
BLACK
6
CONTINUOUS
10
247.3444519999999898
20
-162.4649990000000059
11
245.7555479999999761
21
-162.4649990000000059
0
LINE
8
BLACK
6
CONTINUOUS
10
248.2499990000000025
20
-160.262157000000002
11
248.2499990000000025
21
-161.6678409999999815
0
ARC
8
BLACK
10
244.3499999999999943
20
-160.2621000000000038
40
0.4999760117215625
50
-0.00653171
51
25.70023661
0
ARC
8
BLACK
10
245.2510299999999859
20
-159.8283999999999878
40
0.4999993648365966
50
-300.29939530
51
-154.29367517
0
ARC
8
BLACK
10
244.3496399999999937
20
-161.667759999999987
40
0.5003610067191487
50
-25.69659863
51
-0.00938973
0
ARC
8
BLACK
10
245.2510299999999859
20
-162.1015999999999906
40
0.4999960394813143
50
-205.70653133
51
-59.70037344
0
ARC
8
BLACK
10
245.7555499999999995
20
-162.9650100000000066
40
0.5000103584367028
50
90.00022918
51
120.29880049
0
ARC
8
BLACK
10
245.7555499999999995
20
-158.9649900000000002
40
0.5000090000089998
50
-120.29901505
51
-90.00034377
0
ARC
8
BLACK
10
247.3444499999999948
20
-162.9650079999999832
40
0.5000090000039998
50
59.70098495
51
89.99977082
0
ARC
8
BLACK
10
247.3444499999999948
20
-158.9649909999999977
40
0.500009136137531
50
-89.99965623
51
-59.70098495
0
ARC
8
BLACK
10
247.8489689999999825
20
-159.8284009999999853
40
0.499998988562977
50
-25.70617187
51
120.29929636
0
ARC
8
BLACK
10
248.7499889999999994
20
-160.2621549999999786
40
0.499990000001
50
-205.70646243
51
-179.99988541
0
ARC
8
BLACK
10
247.84896999999998
20
-162.1015979999999956
40
0.4999997985959594
50
-120.29939530
51
25.70642808
0
ARC
8
BLACK
10
248.7499889999999994
20
-161.6678430000000048
40
0.4999899543000839
50
-180.00022919
51
-154.29353757
0
LINE
8
BLACK
6
CONTINUOUS
10
73.4000010000000032
20
-161.6678409999999815
11
73.4000010000000032
21
-160.262157000000002
0
LINE
8
BLACK
6
CONTINUOUS
10
74.3055480000000017
20
-159.4650000000000034
11
75.8944529999999986
21
-159.4650000000000034
0
LINE
8
BLACK
6
CONTINUOUS
10
75.8944520000000011
20
-162.4649990000000059
11
74.3055480000000017
21
-162.4649990000000059
0
LINE
8
BLACK
6
CONTINUOUS
10
76.7999989999999997
20
-160.262157000000002
11
76.7999989999999997
21
-161.6678409999999815
0
ARC
8
BLACK
10
72.8999999999999915
20
-160.2621000000000038
40
0.4999760117215625
50
-0.00653171
51
25.70023661
0
ARC
8
BLACK
10
73.8010299999999972
20
-159.8283999999999878
40
0.4999993648365966
50
-300.29939530
51
-154.29367517
0
ARC
8
BLACK
10
72.8996399999999909
20
-161.667759999999987
40
0.5003610067191487
50
-25.69659863
51
-0.00938973
0
ARC
8
BLACK
10
73.8010299999999972
20
-162.1015999999999906
40
0.4999960394813143
50
-205.70653133
51
-59.70037344
0
ARC
8
BLACK
10
74.3055499999999967
20
-162.9650100000000066
40
0.5000103584367028
50
90.00022918
51
120.29880049
0
ARC
8
BLACK
10
74.3055499999999967
20
-158.9649900000000002
40
0.5000090000089998
50
-120.29901505
51
-90.00034377
0
ARC
8
BLACK
10
75.894449999999992
20
-162.9650079999999832
40
0.5000090000039998
50
59.70098495
51
89.99977082
0
ARC
8
BLACK
10
75.894449999999992
20
-158.9649909999999977
40
0.500009136137531
50
-89.99965623
51
-59.70098495
0
ARC
8
BLACK
10
76.3989689999999939
20
-159.8284009999999853
40
0.499998988562977
50
-25.70617187
51
120.29929636
0
ARC
8
BLACK
10
77.2999889999999965
20
-160.2621549999999786
40
0.499990000001
50
-205.70646243
51
-179.99988541
0
ARC
8
BLACK
10
76.3989699999999914
20
-162.1015979999999956
40
0.4999997985959594
50
-120.29939530
51
25.70642808
0
ARC
8
BLACK
10
77.2999889999999965
20
-161.6678430000000048
40
0.4999899543000839
50
-180.00022919
51
-154.29353757
0
LINE
8
BLACK
6
CONTINUOUS
10
302.0000009999999975
20
-139.7603409999999826
11
302.0000009999999975
21
-138.3546570000000031
0
LINE
8
BLACK
6
CONTINUOUS
10
302.9055480000000102
20
-137.5575000000000045
11
304.4944529999999645
21
-137.5575000000000045
0
LINE
8
BLACK
6
CONTINUOUS
10
304.494451999999967
20
-140.5574990000000071
11
302.9055480000000102
21
-140.5574990000000071
0
LINE
8
BLACK
6
CONTINUOUS
10
305.3999989999999798
20
-138.3546570000000031
11
305.3999989999999798
21
-139.7603409999999826
0
ARC
8
BLACK
10
301.5
20
-138.3546000000000049
40
0.4999760117215625
50
-0.00653171
51
25.70023661
0
ARC
8
BLACK
10
302.4010299999999916
20
-137.9208999999999889
40
0.4999993648365966
50
-300.29939530
51
-154.29367517
0
ARC
8
BLACK
10
301.4996399999999994
20
-139.7602599999999882
40
0.5003610067191487
50
-25.69659863
51
-0.00938973
0
ARC
8
BLACK
10
302.4010299999999916
20
-140.1940999999999917
40
0.4999960394813143
50
-205.70653133
51
-59.70037344
0
ARC
8
BLACK
10
302.9055500000000052
20
-141.0575100000000077
40
0.5000103584367028
50
90.00022918
51
120.29880049
0
ARC
8
BLACK
10
302.9055500000000052
20
-137.0574900000000014
40
0.5000090000089998
50
-120.29901505
51
-90.00034377
0
ARC
8
BLACK
10
304.4944499999999721
20
-141.0575079999999843
40
0.5000090000039998
50
59.70098495
51
89.99977082
0
ARC
8
BLACK
10
304.4944499999999721
20
-137.0574909999999988
40
0.500009136137531
50
-89.99965623
51
-59.70098495
0
ARC
8
BLACK
10
304.9989689999999882
20
-137.9209009999999864
40
0.499998988562977
50
-25.70617187
51
120.29929636
0
ARC
8
BLACK
10
305.899989000000005
20
-138.3546549999999797
40
0.499990000001
50
-205.70646243
51
-179.99988541
0
ARC
8
BLACK
10
304.9989699999999857
20
-140.1940979999999968
40
0.4999997985959594
50
-120.29939530
51
25.70642808
0
ARC
8
BLACK
10
305.899989000000005
20
-139.760343000000006
40
0.4999899543000839
50
-180.00022919
51
-154.29353757
0
LINE
8
BLACK
6
CONTINUOUS
10
244.8500009999999918
20
-142.6178409999999985
11
244.8500009999999918
21
-141.2121569999999906
0
LINE
8
BLACK
6
CONTINUOUS
10
245.7555479999999761
20
-140.414999999999992
11
247.3444529999999872
21
-140.414999999999992
0
LINE
8
BLACK
6
CONTINUOUS
10
247.3444519999999898
20
-143.4149989999999946
11
245.7555479999999761
21
-143.4149989999999946
0
LINE
8
BLACK
6
CONTINUOUS
10
248.2499990000000025
20
-141.2121569999999906
11
248.2499990000000025
21
-142.6178409999999985
0
ARC
8
BLACK
10
244.3499999999999943
20
-141.2120999999999924
40
0.4999760117215625
50
-0.00653171
51
25.70023661
0
ARC
8
BLACK
10
245.2510299999999859
20
-140.7784000000000049
40
0.4999993648365966
50
-300.29939530
51
-154.29367517
0
ARC
8
BLACK
10
244.3496399999999937
20
-142.6177600000000041
40
0.5003610067191487
50
-25.69659863
51
-0.00938973
0
ARC
8
BLACK
10
245.2510299999999859
20
-143.0516000000000076
40
0.4999960394813143
50
-205.70653133
51
-59.70037344
0
ARC
8
BLACK
10
245.7555499999999995
20
-143.9150099999999952
40
0.5000103584367028
50
90.00022918
51
120.29880049
0
ARC
8
BLACK
10
245.7555499999999995
20
-139.9149899999999889
40
0.5000090000089998
50
-120.29901505
51
-90.00034377
0
ARC
8
BLACK
10
247.3444499999999948
20
-143.9150080000000003
40
0.5000090000039998
50
59.70098495
51
89.99977082
0
ARC
8
BLACK
10
247.3444499999999948
20
-139.9149909999999863
40
0.500009136137531
50
-89.99965623
51
-59.70098495
0
ARC
8
BLACK
10
247.8489689999999825
20
-140.7784010000000023
40
0.499998988562977
50
-25.70617187
51
120.29929636
0
ARC
8
BLACK
10
248.7499889999999994
20
-141.2121549999999957
40
0.499990000001
50
-205.70646243
51
-179.99988541
0
ARC
8
BLACK
10
247.84896999999998
20
-143.0515979999999843
40
0.4999997985959594
50
-120.29939530
51
25.70642808
0
ARC
8
BLACK
10
248.7499889999999994
20
-142.6178429999999935
40
0.4999899543000839
50
-180.00022919
51
-154.29353757
0
LINE
8
BLACK
6
CONTINUOUS
10
321.0500010000000088
20
-104.51784099999999
11
321.0500010000000088
21
-103.1121569999999963
0
LINE
8
BLACK
6
CONTINUOUS
10
321.9555479999999648
20
-102.3149999999999977
11
323.5444529999999759
21
-102.3149999999999977
0
LINE
8
BLACK
6
CONTINUOUS
10
323.5444519999999784
20
-105.3149990000000003
11
321.9555479999999648
21
-105.3149990000000003
0
LINE
8
BLACK
6
CONTINUOUS
10
324.4499989999999912
20
-103.1121569999999963
11
324.4499989999999912
21
-104.51784099999999
0
ARC
8
BLACK
10
320.5500000000000114
20
-103.1120999999999981
40
0.4999760117215625
50
-0.00653171
51
25.70023661
0
ARC
8
BLACK
10
321.4510300000000029
20
-102.6783999999999963
40
0.4999993648365966
50
-300.29939530
51
-154.29367517
0
ARC
8
BLACK
10
320.5496400000000108
20
-104.5177599999999956
40
0.5003610067191487
50
-25.69659863
51
-0.00938973
0
ARC
8
BLACK
10
321.4510300000000029
20
-104.9515999999999991
40
0.4999960394813143
50
-205.70653133
51
-59.70037344
0
ARC
8
BLACK
10
321.9555499999999597
20
-105.8150100000000009
40
0.5000103584367028
50
90.00022918
51
120.29880049
0
ARC
8
BLACK
10
321.9555499999999597
20
-101.8149899999999946
40
0.5000090000089998
50
-120.29901505
51
-90.00034377
0
ARC
8
BLACK
10
323.5444499999999834
20
-105.8150079999999917
40
0.5000090000039998
50
59.70098495
51
89.99977082
0
ARC
8
BLACK
10
323.5444499999999834
20
-101.814990999999992
40
0.500009136137531
50
-89.99965623
51
-59.70098495
0
ARC
8
BLACK
10
324.0489689999999996
20
-102.6784009999999938
40
0.499998988562977
50
-25.70617187
51
120.29929636
0
ARC
8
BLACK
10
324.9499889999999596
20
-103.1121550000000013
40
0.499990000001
50
-205.70646243
51
-179.99988541
0
ARC
8
BLACK
10
324.0489699999999971
20
-104.95159799999999
40
0.4999997985959594
50
-120.29939530
51
25.70642808
0
ARC
8
BLACK
10
324.9499889999999596
20
-104.5178429999999992
40
0.4999899543000839
50
-180.00022919
51
-154.29353757
0
LINE
8
BLACK
6
CONTINUOUS
10
111.5000009999999975
20
-158.810340999999994
11
111.5000009999999975
21
-157.4046569999999861
0
LINE
8
BLACK
6
CONTINUOUS
10
112.405547999999996
20
-156.6074999999999875
11
113.9944529999999929
21
-156.6074999999999875
0
LINE
8
BLACK
6
CONTINUOUS
10
113.9944519999999955
20
-159.60749899999999
11
112.405547999999996
21
-159.60749899999999
0
LINE
8
BLACK
6
CONTINUOUS
10
114.899998999999994
20
-157.4046569999999861
11
114.899998999999994
21
-158.810340999999994
0
ARC
8
BLACK
10
111.
20
-157.4045999999999879
40
0.4999760117215625
50
-0.00653171
51
25.70023661
0
ARC
8
BLACK
10
111.9010299999999916
20
-156.9709000000000003
40
0.4999993648365966
50
-300.29939530
51
-154.29367517
0
ARC
8
BLACK
10
110.9996399999999994
20
-158.8102599999999995
40
0.5003610067191487
50
-25.69659863
51
-0.00938973
0
ARC
8
BLACK
10
111.9010299999999916
20
-159.2441000000000031
40
0.4999960394813143
50
-205.70653133
51
-59.70037344
0
ARC
8
BLACK
10
112.405549999999991
20
-160.1075099999999907
40
0.5000103584367028
50
90.00022918
51
120.29880049
0
ARC
8
BLACK
10
112.405549999999991
20
-156.1074899999999843
40
0.5000090000089998
50
-120.29901505
51
-90.00034377
0
ARC
8
BLACK
10
113.9944500000000005
20
-160.1075079999999957
40
0.5000090000039998
50
59.70098495
51
89.99977082
0
ARC
8
BLACK
10
113.9944500000000005
20
-156.1074909999999818
40
0.500009136137531
50
-89.99965623
51
-59.70098495
0
ARC
8
BLACK
10
114.4989689999999882
20
-156.9709009999999978
40
0.499998988562977
50
-25.70617187
51
120.29929636
0
ARC
8
BLACK
10
115.3999889999999908
20
-157.4046549999999911
40
0.499990000001
50
-205.70646243
51
-179.99988541
0
ARC
8
BLACK
10
114.4989699999999999
20
-159.2440979999999797
40
0.4999997985959594
50
-120.29939530
51
25.70642808
0
ARC
8
BLACK
10
115.3999889999999908
20
-158.8103429999999889
40
0.4999899543000839
50
-180.00022919
51
-154.29353757
0
LINE
8
BLACK
6
CONTINUOUS
10
92.4500010000000003
20
-123.5678410000000014
11
92.4500010000000003
21
-122.1621569999999934
0
LINE
8
BLACK
6
CONTINUOUS
10
93.3555479999999989
20
-121.3649999999999949
11
94.9444529999999958
21
-121.3649999999999949
0
LINE
8
BLACK
6
CONTINUOUS
10
94.9444519999999983
20
-124.3649989999999974
11
93.3555479999999989
21
-124.3649989999999974
0
LINE
8
BLACK
6
CONTINUOUS
10
95.8499989999999968
20
-122.1621569999999934
11
95.8499989999999968
21
-123.5678410000000014
0
ARC
8
BLACK
10
91.9500000000000028
20
-122.1620999999999952
40
0.4999760117215625
50
-0.00653171
51
25.70023661
0
ARC
8
BLACK
10
92.8510299999999944
20
-121.7283999999999935
40
0.4999993648365966
50
-300.29939530
51
-154.29367517
0
ARC
8
BLACK
10
91.9496400000000023
20
-123.5677599999999927
40
0.5003610067191487
50
-25.69659863
51
-0.00938973
0
ARC
8
BLACK
10
92.8510299999999944
20
-124.0015999999999963
40
0.4999960394813143
50
-205.70653133
51
-59.70037344
0
ARC
8
BLACK
10
93.3555499999999938
20
-124.8650099999999981
40
0.5000103584367028
50
90.00022918
51
120.29880049
0
ARC
8
BLACK
10
93.3555499999999938
20
-120.8649899999999917
40
0.5000090000089998
50
-120.29901505
51
-90.00034377
0
ARC
8
BLACK
10
94.9444499999999891
20
-124.8650079999999889
40
0.5000090000039998
50
59.70098495
51
89.99977082
0
ARC
8
BLACK
10
94.9444499999999891
20
-120.8649909999999892
40
0.500009136137531
50
-89.99965623
51
-59.70098495
0
ARC
8
BLACK
10
95.4489689999999911
20
-121.728400999999991
40
0.499998988562977
50
-25.70617187
51
120.29929636
0
ARC
8
BLACK
10
96.3499889999999937
20
-122.1621549999999985
40
0.499990000001
50
-205.70646243
51
-179.99988541
0
ARC
8
BLACK
10
95.4489700000000028
20
-124.0015980000000013
40
0.4999997985959594
50
-120.29939530
51
25.70642808
0
ARC
8
BLACK
10
96.3499889999999937
20
-123.5678429999999963
40
0.4999899543000839
50
-180.00022919
51
-154.29353757
0
LINE
8
BLACK
6
CONTINUOUS
10
125.7875009999999918
20
-177.8603410000000054
11
125.7875009999999918
21
-176.4546569999999974
0
LINE
8
BLACK
6
CONTINUOUS
10
126.6930479999999903
20
-175.6574999999999989
11
128.2819529999999872
21
-175.6574999999999989
0
LINE
8
BLACK
6
CONTINUOUS
10
128.2819519999999898
20
-178.6574990000000014
11
126.6930479999999903
21
-178.6574990000000014
0
LINE
8
BLACK
6
CONTINUOUS
10
129.1874990000000025
20
-176.4546569999999974
11
129.1874990000000025
21
-177.8603410000000054
0
ARC
8
BLACK
10
125.2874999999999943
20
-176.4545999999999992
40
0.4999760117215625
50
-0.00653171
51
25.70023661
0
ARC
8
BLACK
10
126.1885300000000001
20
-176.0208999999999833
40
0.4999993648365966
50
-300.29939530
51
-154.29367517
0
ARC
8
BLACK
10
125.2871399999999937
20
-177.8602599999999825
40
0.5003610067191487
50
-25.69659863
51
-0.00938973
0
ARC
8
BLACK
10
126.1885300000000001
20
-178.294099999999986
40
0.4999960394813143
50
-205.70653133
51
-59.70037344
0
ARC
8
BLACK
10
126.6930499999999995
20
-179.157510000000002
40
0.5000103584367028
50
90.00022918
51
120.29880049
0
ARC
8
BLACK
10
126.6930499999999995
20
-175.1574899999999957
40
0.5000090000089998
50
-120.29901505
51
-90.00034377
0
ARC
8
BLACK
10
128.2819499999999948
20
-179.1575079999999787
40
0.5000090000039998
50
59.70098495
51
89.99977082
0
ARC
8
BLACK
10
128.2819499999999948
20
-175.1574909999999932
40
0.500009136137531
50
-89.99965623
51
-59.70098495
0
ARC
8
BLACK
10
128.7864689999999825
20
-176.0209009999999807
40
0.499998988562977
50
-25.70617187
51
120.29929636
0
ARC
8
BLACK
10
129.6874889999999994
20
-176.4546550000000025
40
0.499990000001
50
-205.70646243
51
-179.99988541
0
ARC
8
BLACK
10
128.78646999999998
20
-178.2940979999999911
40
0.4999997985959594
50
-120.29939530
51
25.70642808
0
ARC
8
BLACK
10
129.6874889999999994
20
-177.8603430000000003
40
0.4999899543000839
50
-180.00022919
51
-154.29353757
0
LINE
8
BLACK
6
CONTINUOUS
10
306.7625009999999861
20
-180.7178409999999928
11
306.7625009999999861
21
-179.3121569999999849
0
LINE
8
BLACK
6
CONTINUOUS
10
307.6680479999999989
20
-178.5149999999999864
11
309.25695300000001
21
-178.5149999999999864
0
LINE
8
BLACK
6
CONTINUOUS
10
309.2569520000000125
20
-181.5149989999999889
11
307.6680479999999989
21
-181.5149989999999889
0
LINE
8
BLACK
6
CONTINUOUS
10
310.1624989999999684
20
-179.3121569999999849
11
310.1624989999999684
21
-180.7178409999999928
0
ARC
8
BLACK
10
306.2624999999999886
20
-179.3120999999999867
40
0.4999760117215625
50
-0.00653171
51
25.70023661
0
ARC
8
BLACK
10
307.1635299999999802
20
-178.8783999999999992
40
0.4999993648365966
50
-300.29939530
51
-154.29367517
0
ARC
8
BLACK
10
306.262139999999988
20
-180.7177599999999984
40
0.5003610067191487
50
-25.69659863
51
-0.00938973
0
ARC
8
BLACK
10
307.1635299999999802
20
-181.151600000000002
40
0.4999960394813143
50
-205.70653133
51
-59.70037344
0
ARC
8
BLACK
10
307.6680499999999938
20
-182.0150099999999895
40
0.5000103584367028
50
90.00022918
51
120.29880049
0
ARC
8
BLACK
10
307.6680499999999938
20
-178.0149899999999832
40
0.5000090000089998
50
-120.29901505
51
-90.00034377
0
ARC
8
BLACK
10
309.2569499999999607
20
-182.0150079999999946
40
0.5000090000039998
50
59.70098495
51
89.99977082
0
ARC
8
BLACK
10
309.2569499999999607
20
-178.0149909999999807
40
0.500009136137531
50
-89.99965623
51
-59.70098495
0
ARC
8
BLACK
10
309.7614689999999769
20
-178.8784009999999967
40
0.499998988562977
50
-25.70617187
51
120.29929636
0
ARC
8
BLACK
10
310.6624889999999937
20
-179.31215499999999
40
0.499990000001
50
-205.70646243
51
-179.99988541
0
ARC
8
BLACK
10
309.7614699999999743
20
-181.1515979999999786
40
0.4999997985959594
50
-120.29939530
51
25.70642808
0
ARC
8
BLACK
10
310.6624889999999937
20
-180.7178429999999878
40
0.4999899543000839
50
-180.00022919
51
-154.29353757
0
LINE
8
BLACK
6
CONTINUOUS
10
302.0000009999999975
20
-101.6603409999999883
11
302.0000009999999975
21
-100.2546569999999946
0
LINE
8
BLACK
6
CONTINUOUS
10
302.9055480000000102
20
-99.457499999999996
11
304.4944529999999645
21
-99.457499999999996
0
LINE
8
BLACK
6
CONTINUOUS
10
304.494451999999967
20
-102.4574989999999985
11
302.9055480000000102
21
-102.4574989999999985
0
LINE
8
BLACK
6
CONTINUOUS
10
305.3999989999999798
20
-100.2546569999999946
11
305.3999989999999798
21
-101.6603409999999883
0
ARC
8
BLACK
10
301.5
20
-100.2545999999999964
40
0.4999760117215625
50
-0.00653171
51
25.70023661
0
ARC
8
BLACK
10
302.4010299999999916
20
-99.8208999999999946
40
0.4999993648365966
50
-300.29939530
51
-154.29367517
0
ARC
8
BLACK
10
301.4996399999999994
20
-101.6602599999999939
40
0.5003610067191487
50
-25.69659863
51
-0.00938973
0
ARC
8
BLACK
10
302.4010299999999916
20
-102.0940999999999974
40
0.4999960394813143
50
-205.70653133
51
-59.70037344
0
ARC
8
BLACK
10
302.9055500000000052
20
-102.9575099999999992
40
0.5000103584367028
50
90.00022918
51
120.29880049
0
ARC
8
BLACK
10
302.9055500000000052
20
-98.9574899999999928
40
0.5000090000089998
50
-120.29901505
51
-90.00034377
0
ARC
8
BLACK
10
304.4944499999999721
20
-102.95750799999999
40
0.5000090000039998
50
59.70098495
51
89.99977082
0
ARC
8
BLACK
10
304.4944499999999721
20
-98.9574909999999903
40
0.500009136137531
50
-89.99965623
51
-59.70098495
0
ARC
8
BLACK
10
304.9989689999999882
20
-99.8209009999999921
40
0.499998988562977
50
-25.70617187
51
120.29929636
0
ARC
8
BLACK
10
305.899989000000005
20
-100.2546549999999996
40
0.499990000001
50
-205.70646243
51
-179.99988541
0
ARC
8
BLACK
10
304.9989699999999857
20
-102.0940980000000025
40
0.4999997985959594
50
-120.29939530
51
25.70642808
0
ARC
8
BLACK
10
305.899989000000005
20
-101.6603429999999975
40
0.4999899543000839
50
-180.00022919
51
-154.29353757
0
LINE
8
BLACK
6
CONTINUOUS
10
166.6483279999999922
20
-182.5279879999999935
11
167.0121460000000013
21
-181.1702019999999891
0
LINE
8
BLACK
6
CONTINUOUS
10
168.0931569999999908
20
-180.6345799999999997
11
169.6279209999999864
21
-181.0458189999999945
0
LINE
8
BLACK
6
CONTINUOUS
10
168.8514629999999954
20
-183.9435949999999877
11
167.3166999999999973
21
-183.5323559999999929
0
LINE
8
BLACK
6
CONTINUOUS
10
170.296291999999994
20
-182.0501859999999965
11
169.9324739999999849
21
-183.4079720000000009
0
ARC
8
BLACK
10
166.1650280000000066
20
-182.3984039999999993
40
0.5003710245657715
50
-40.69628288
51
-15.00941859
0
ARC
8
BLACK
10
166.529293999999993
20
-181.0407629999999983
40
0.4998860960708949
50
-15.00655359
51
10.70523050
0
ARC
8
BLACK
10
167.5117750000000001
20
-180.8550189999999986
40
0.4999987717924915
50
-315.29940161
51
-169.29371177
0
ARC
8
BLACK
10
166.9234299999999962
20
-183.0507509999999911
40
0.5000053106677967
50
-220.70531575
51
-74.70094165
0
ARC
8
BLACK
10
167.1872899999999902
20
-184.0153310000000033
40
0.5000110980408334
50
75.00030562
51
105.29887694
0
ARC
8
BLACK
10
168.2225709999999879
20
-180.1516079999999818
40
0.5000092289808259
50
-135.29899097
51
-105.00036643
0
ARC
8
BLACK
10
168.7220499999999959
20
-184.4265659999999798
40
0.5000087113341126
50
44.70100903
51
74.99985494
0
ARC
8
BLACK
10
169.7573299999999961
20
-180.5628459999999791
40
0.5000094327720228
50
-104.99964301
51
-74.70095207
0
ARC
8
BLACK
10
170.0211899999999901
20
-181.5274169999999856
40
0.5000002240019498
50
-40.70601070
51
105.29909900
0
ARC
8
BLACK
10
170.4153969999999845
20
-183.5373819999999796
40
0.499961619119908
50
-195.00123671
51
-169.29279015
0
ARC
8
BLACK
10
169.4328469999999811
20
-183.7231579999999838
40
0.4999985323148459
50
-135.29972656
51
10.70675991
0
ARC
8
BLACK
10
170.7792110000000037
20
-182.179571999999979
40
0.4999517540023237
50
139.29262410
51
165.00119067
  0
ENDSEC
  0
EOF
