  0
SECTION
  2
HEADER
  9
$ANGBASE
  50
0.0
  9
$ANGDIR
  70
1
  9
$MEASUREMENT
  70
1
  0
ENDSEC
  0
SECTION
  2
TABLES
  0
TABLE
  2
LTYPE
  70
4
  0
LTYPE
  5
40F
  2
CONTINUOUS
  70
0
  3
Solid line
  72
65
  73
0
  40
0.0
  0
LTYPE
  5
410
  2
DASHDOT
 70
0
  3
Dash Dot ____ _ ____ _
 72
65
 73
4
 40
2.0
 49
1.25
 49
-0.25
 49
0.25
 49
-0.25
  0
LTYPE
  5
411
  2
DASHED
 70
0
  3
Dashed __ __ __ __ __
 72
65
 73
2
 40
0.75
 49
0.5
 49
-0.25
  0
LTYPE
  5
43B
  2
DOTTED
 70
0
  3
Dotted .  .  .  .
 72
65
 73
2
 40
0.2
 49
0.0
 49
-0.2
  0
ENDTAB
  0
TABLE
  2
STYLE
  70
4
  0
STYLE
  2
KICAD
  70
0
  40
0
  41
1
  42
1
  50
0
  71
0
  3
isocp.shx
  0
STYLE
  2
KICADB
  70
0
  40
0
  41
1
  42
1
  50
0
  71
0
  3
isocp.shx
  0
STYLE
  2
KICADI
  70
0
  40
0
  41
1
  42
1
  50
15
  71
0
  3
isocp.shx
  0
STYLE
  2
KICADBI
  70
0
  40
0
  41
1
  42
1
  50
15
  71
0
  3
isocp.shx
  0
ENDTAB
  0
TABLE
  2
LAYER
  70
1
  0
LAYER
  2
BLACK
  70
0
  62
7
  6
CONTINUOUS
  0
ENDTAB
  0
ENDSEC
  0
SECTION
  2
ENTITIES
0
ARC
8
BLACK
10
228.3920999999999992
20
-148.5675999999999988
40
6.000876287268218
50
107.35402293
51
119.35775302
0
LINE
8
BLACK
6
CONTINUOUS
10
193.7462720000000047
20
-118.96801099999999
11
190.2171709999999791
21
-132.0417249999999854
0
ARC
8
BLACK
10
299.6007999999999925
20
-132.0276000000000067
40
6.0004980473464862
50
-89.85871029
51
-63.74975962
0
LINE
8
BLACK
6
CONTINUOUS
10
168.2504610000000014
20
-118.9040569999999946
11
171.7828159999999968
21
-131.9898220000000038
0
ARC
8
BLACK
10
202.6071999999999775
20
-146.0278999999999883
40
6.000165
50
-151.86552466
51
-90.00000000
0
ARC
8
BLACK
10
284.9875000000000114
20
-30.2295999999999978
40
6.0015349999999996
50
76.56889255
51
90.00000000
0
LINE
8
BLACK
6
CONTINUOUS
10
193.0087439999999788
20
-99.689832999999993
11
193.9481289999999944
21
-117.0684499999999986
0
ARC
8
BLACK
10
187.9564000000000021
20
-117.3921999999999883
40
6.0004691876503289
50
-15.22522552
51
3.09284484
0
ARC
8
BLACK
10
163.
20
-39.5
40
6.0000003679784051
50
0.00000000
51
79.87876124
0
LINE
8
BLACK
6
CONTINUOUS
10
135.397798999999992
20
-142.7880219999999838
11
120.8626379999999898
21
-138.2457849999999837
0
LINE
8
BLACK
6
CONTINUOUS
10
171.2892459999999915
20
-136.3677349999999819
11
164.6918939999999907
21
-148.7904079999999851
0
ARC
8
BLACK
10
242.9158999999999935
20
-144.0290999999999997
40
6.0010580001683866
50
89.90740697
51
107.35407931
0
LINE
8
BLACK
6
CONTINUOUS
10
284.9875000000000114
20
-24.2280649999999973
11
251.2313289999999881
21
-24.2280649999999973
0
ARC
8
BLACK
10
110.7686999999999955
20
-30.1755999999999993
40
5.99939
50
79.87801954
51
90.00000000
0
LINE
8
BLACK
6
CONTINUOUS
10
202.6071999999999775
20
-152.028064999999998
11
208.428293999999994
21
-152.028064999999998
0
ARC
8
BLACK
10
174.0430999999999813
20
-117.3403999999999883
40
5.9999741497751469
50
-183.09405754
51
-164.89370258
0
LINE
8
BLACK
6
CONTINUOUS
10
168.9912510000000054
20
-99.638077999999993
11
168.051873999999998
21
-117.0165499999999952
0
LINE
8
BLACK
6
CONTINUOUS
10
59.7364579999999989
20
-137.3530930000000012
11
27.8417579999999987
21
-121.6241999999999877
0
ARC
8
BLACK
10
208.4283999999999821
20
-146.0283000000000015
40
5.9997425853883097
50
-90.00101227
51
-60.64224906
0
ARC
8
BLACK
10
30.4954999999999998
20
-116.242999999999995
40
5.9999716701467847
50
-179.93140713
51
-116.25023838
0
ARC
8
BLACK
10
62.3989999999999938
20
-131.9761000000000024
40
6.0001099999999994
50
-116.34337298
51
-90.00000000
0
ARC
8
BLACK
10
159.392799999999994
20
-145.9762000000000057
40
6.0000136573261225
50
-90.00000000
51
-27.97158363
0
ARC
8
BLACK
10
77.0125000000000028
20
-30.1769999999999996
40
6.0008014073262741
50
89.89125751
51
103.54079036
0
ARC
8
BLACK
10
196.0097999999999843
20
-133.605400000000003
40
5.9999626574052103
50
-195.10648825
51
-152.02841723
0
LINE
8
BLACK
6
CONTINUOUS
10
119.0841999999999956
20
-137.9762099999999805
11
62.3989999999999938
21
-137.9762099999999805
0
LINE
8
BLACK
6
CONTINUOUS
10
242.9255979999999795
20
-138.028064999999998
11
299.6155969999999797
21
-138.028064999999998
0
LINE
8
BLACK
6
CONTINUOUS
10
190.7107509999999877
20
-136.4195839999999862
11
197.3160419999999817
21
-148.8572079999999858
0
LINE
8
BLACK
6
CONTINUOUS
10
24.4955269999999992
20
-116.2501829999999927
11
24.4056809999999977
21
-41.4084829999999968
0
ARC
8
BLACK
10
162.9990999999999985
20
-99.3141999999999996
40
6.0008999999999997
50
-3.09384780
51
-0.00000000
0
ARC
8
BLACK
10
165.9901999999999873
20
-133.5534999999999854
40
5.9999574174438939
50
-27.97202657
51
15.10654826
0
ARC
8
BLACK
10
251.2312000000000012
20
-30.226899999999997
40
5.9988301287065129
50
89.99876790
51
100.12140028
0
LINE
8
BLACK
6
CONTINUOUS
10
159.392799999999994
20
-151.9762099999999805
11
153.5716999999999928
21
-151.9762099999999805
0
ARC
8
BLACK
10
30.405619999999999
20
-41.4012799999999999
40
5.9999433236431488
50
-256.45834259
51
-179.93121575
0
LINE
8
BLACK
6
CONTINUOUS
10
150.6301389999999856
20
-151.2056629999999871
11
136.5407830000000047
21
-143.280399999999986
0
LINE
8
BLACK
6
CONTINUOUS
10
250.176998999999995
20
-24.3214259999999989
11
197.9456099999999878
21
-33.645226000000001
0
LINE
8
BLACK
6
CONTINUOUS
10
226.602187999999984
20
-142.8398809999999912
11
241.1259289999999851
21
-138.3012119999999925
0
LINE
8
BLACK
6
CONTINUOUS
10
29.0007199999999976
20
-35.5681370000000001
11
75.6074869999999919
21
-24.343
0
LINE
8
BLACK
6
CONTINUOUS
10
337.5044729999999618
20
-116.3020029999999991
11
337.5943189999999845
21
-41.4603839999999977
0
ARC
8
BLACK
10
331.5043999999999755
20
-116.2947999999999951
40
6.0000773235465887
50
-63.52990337
51
-0.06878271
0
ARC
8
BLACK
10
199.
20
-39.5518999999999963
40
6.
50
100.12116325
51
180.00000000
0
LINE
8
BLACK
6
CONTINUOUS
10
111.8230599999999981
20
-24.2695809999999987
11
164.0543899999999837
21
-33.5933709999999977
0
LINE
8
BLACK
6
CONTINUOUS
10
169.
20
-39.5
11
169.
21
-99.3141999999999996
0
LINE
8
BLACK
6
CONTINUOUS
10
302.2547749999999951
20
-137.4092719999999872
11
334.1788329999999974
21
-121.665900999999991
0
ARC
8
BLACK
10
133.6080000000000041
20
-148.5156999999999812
40
6.0008062568362428
50
60.74271799
51
72.64689012
0
ARC
8
BLACK
10
119.0841999999999956
20
-143.9771999999999821
40
6.0009899999999998
50
72.76106647
51
90.00000000
0
ARC
8
BLACK
10
331.5944000000000074
20
-41.4530999999999992
40
5.9999036933201682
50
-0.06955798
51
76.45834341
0
ARC
8
BLACK
10
198.9975999999999772
20
-99.3660999999999888
40
5.9975994567847728
50
-180.00000000
51
-176.90583649
0
LINE
8
BLACK
6
CONTINUOUS
10
77.0238889999999969
20
-24.1762099999999975
11
110.7686999999999955
21
-24.1762099999999975
0
LINE
8
BLACK
6
CONTINUOUS
10
211.3698409999999797
20
-151.2575290000000052
11
225.4501029999999844
21
-143.3373829999999884
0
ARC
8
BLACK
10
153.5716999999999928
20
-145.9762999999999806
40
5.9999099999999999
50
-119.35812236
51
-90.00000000
0
LINE
8
BLACK
6
CONTINUOUS
10
332.9992909999999711
20
-35.6199939999999984
11
286.381512999999984
21
-24.3922059999999981
0
LINE
8
BLACK
6
CONTINUOUS
10
193.
20
-39.5518999999999963
11
193.
21
-99.3660999999999888
0
LINE
8
BLACK
6
CONTINUOUS
10
303.1000009999999634
20
-106.3678429999999935
11
303.1000009999999634
21
-104.9621589999999998
0
LINE
8
BLACK
6
CONTINUOUS
10
304.0055479999999761
20
-104.1650009999999895
11
305.5944519999999898
21
-104.1650009999999895
0
LINE
8
BLACK
6
CONTINUOUS
10
305.5944519999999898
20
-107.164999999999992
11
304.0055469999999787
21
-107.164999999999992
0
LINE
8
BLACK
6
CONTINUOUS
10
306.4999990000000025
20
-104.9621589999999998
11
306.4999990000000025
21
-106.3678429999999935
0
ARC
8
BLACK
10
302.600010999999995
20
-104.9621569999999906
40
0.4999899543000839
50
-0.00022919
51
25.70646243
0
ARC
8
BLACK
10
303.5010300000000143
20
-104.5284019999999998
40
0.4999997985959594
50
-300.29939530
51
-154.29357192
0
ARC
8
BLACK
10
302.600010999999995
20
-106.3678449999999884
40
0.499990000001
50
-25.70646243
51
0.00011459
0
ARC
8
BLACK
10
303.5010310000000118
20
-106.801598999999996
40
0.499998988562977
50
-205.70617187
51
-59.70070364
0
ARC
8
BLACK
10
304.0055499999999711
20
-107.6650089999999977
40
0.500009136137531
50
90.00034377
51
120.29901505
0
ARC
8
BLACK
10
304.0055499999999711
20
-103.664991999999998
40
0.5000090000039998
50
-120.29901505
51
-90.00022918
0
ARC
8
BLACK
10
305.5944499999999948
20
-107.6650099999999952
40
0.5000090000089998
50
59.70098495
51
89.99965623
0
ARC
8
BLACK
10
305.5944499999999948
20
-103.6649899999999889
40
0.5000103584367028
50
-89.99977082
51
-59.70119951
0
ARC
8
BLACK
10
306.0989700000000084
20
-104.5283999999999907
40
0.4999960394813143
50
-25.70653133
51
120.29962656
0
ARC
8
BLACK
10
307.0003600000000006
20
-104.9622399999999942
40
0.5003610067191487
50
154.30340137
51
179.99061027
0
ARC
8
BLACK
10
306.0989700000000084
20
-106.8015999999999934
40
0.4999993648365966
50
-120.29939530
51
25.70632483
0
ARC
8
BLACK
10
307.
20
-106.3678999999999917
40
0.4999760117215625
50
-180.00653171
51
-154.29976339
0
LINE
8
BLACK
6
CONTINUOUS
10
226.9000010000000032
20
-87.3178429999999963
11
226.9000010000000032
21
-85.9121590000000026
0
LINE
8
BLACK
6
CONTINUOUS
10
227.8055479999999875
20
-85.1150009999999924
11
229.3944520000000011
21
-85.1150009999999924
0
LINE
8
BLACK
6
CONTINUOUS
10
229.3944520000000011
20
-88.1149999999999949
11
227.80554699999999
21
-88.1149999999999949
0
LINE
8
BLACK
6
CONTINUOUS
10
230.2999989999999855
20
-85.9121590000000026
11
230.2999989999999855
21
-87.3178429999999963
0
ARC
8
BLACK
10
226.4000109999999779
20
-85.9121569999999934
40
0.4999899543000839
50
-0.00022919
51
25.70646243
0
ARC
8
BLACK
10
227.3010299999999972
20
-85.4784020000000027
40
0.4999997985959594
50
-300.29939530
51
-154.29357192
0
ARC
8
BLACK
10
226.4000109999999779
20
-87.3178449999999913
40
0.499990000001
50
-25.70646243
51
0.00011459
0
ARC
8
BLACK
10
227.3010309999999947
20
-87.7515989999999988
40
0.499998988562977
50
-205.70617187
51
-59.70070364
0
ARC
8
BLACK
10
227.8055499999999824
20
-88.6150090000000006
40
0.500009136137531
50
90.00034377
51
120.29901505
0
ARC
8
BLACK
10
227.8055499999999824
20
-84.6149920000000009
40
0.5000090000039998
50
-120.29901505
51
-90.00022918
0
ARC
8
BLACK
10
229.3944499999999778
20
-88.6150099999999981
40
0.5000090000089998
50
59.70098495
51
89.99965623
0
ARC
8
BLACK
10
229.3944499999999778
20
-84.6149899999999917
40
0.5000103584367028
50
-89.99977082
51
-59.70119951
0
ARC
8
BLACK
10
229.8989699999999914
20
-85.4783999999999935
40
0.4999960394813143
50
-25.70653133
51
120.29962656
0
ARC
8
BLACK
10
230.8003599999999835
20
-85.9122399999999971
40
0.5003610067191487
50
154.30340137
51
179.99061027
0
ARC
8
BLACK
10
229.8989699999999914
20
-87.7515999999999963
40
0.4999993648365966
50
-120.29939530
51
25.70632483
0
ARC
8
BLACK
10
230.7999999999999829
20
-87.3178999999999945
40
0.4999760117215625
50
-180.00653171
51
-154.29976339
0
LINE
8
BLACK
6
CONTINUOUS
10
131.6500010000000032
20
-96.9678409999999928
11
131.6500010000000032
21
-95.5621569999999991
0
LINE
8
BLACK
6
CONTINUOUS
10
132.5555479999999875
20
-94.7650000000000006
11
134.1444529999999986
21
-94.7650000000000006
0
LINE
8
BLACK
6
CONTINUOUS
10
134.1444520000000011
20
-97.7649989999999889
11
132.5555479999999875
21
-97.7649989999999889
0
LINE
8
BLACK
6
CONTINUOUS
10
135.0499989999999855
20
-95.5621569999999991
11
135.0499989999999855
21
-96.9678409999999928
0
ARC
8
BLACK
10
131.1500000000000057
20
-95.5621000000000009
40
0.4999760117215625
50
-0.00653171
51
25.70023661
0
ARC
8
BLACK
10
132.0510299999999972
20
-95.1283999999999992
40
0.4999993648365966
50
-300.29939530
51
-154.29367517
0
ARC
8
BLACK
10
131.1496400000000051
20
-96.9677599999999984
40
0.5003610067191487
50
-25.69659863
51
-0.00938973
0
ARC
8
BLACK
10
132.0510299999999972
20
-97.401600000000002
40
0.4999960394813143
50
-205.70653133
51
-59.70037344
0
ARC
8
BLACK
10
132.5555499999999824
20
-98.2650099999999895
40
0.5000103584367028
50
90.00022918
51
120.29880049
0
ARC
8
BLACK
10
132.5555499999999824
20
-94.2649899999999974
40
0.5000090000089998
50
-120.29901505
51
-90.00034377
0
ARC
8
BLACK
10
134.1444500000000062
20
-98.2650079999999946
40
0.5000090000039998
50
59.70098495
51
89.99977082
0
ARC
8
BLACK
10
134.1444500000000062
20
-94.2649909999999949
40
0.500009136137531
50
-89.99965623
51
-59.70098495
0
ARC
8
BLACK
10
134.6489689999999939
20
-95.1284009999999967
40
0.499998988562977
50
-25.70617187
51
120.29929636
0
ARC
8
BLACK
10
135.5499889999999823
20
-95.56215499999999
40
0.499990000001
50
-205.70646243
51
-179.99988541
0
ARC
8
BLACK
10
134.6489699999999914
20
-97.4015979999999928
40
0.4999997985959594
50
-120.29939530
51
25.70642808
0
ARC
8
BLACK
10
135.5499889999999823
20
-96.967843000000002
40
0.4999899543000839
50
-180.00022919
51
-154.29353757
0
LINE
8
BLACK
6
CONTINUOUS
10
74.5000009999999975
20
-56.0103409999999968
11
74.5000009999999975
21
-54.604656999999996
0
LINE
8
BLACK
6
CONTINUOUS
10
75.405547999999996
20
-53.8074999999999974
11
76.9944529999999929
21
-53.8074999999999974
0
LINE
8
BLACK
6
CONTINUOUS
10
76.9944519999999955
20
-56.807499
11
75.405547999999996
21
-56.807499
0
LINE
8
BLACK
6
CONTINUOUS
10
77.899998999999994
20
-54.604656999999996
11
77.899998999999994
21
-56.0103409999999968
0
ARC
8
BLACK
10
74.
20
-54.6045999999999978
40
0.4999760117215625
50
-0.00653171
51
25.70023661
0
ARC
8
BLACK
10
74.9010299999999916
20
-54.1708999999999961
40
0.4999993648365966
50
-300.29939530
51
-154.29367517
0
ARC
8
BLACK
10
73.9996399999999994
20
-56.0102599999999953
40
0.5003610067191487
50
-25.69659863
51
-0.00938973
0
ARC
8
BLACK
10
74.9010299999999916
20
-56.4440999999999988
40
0.4999960394813143
50
-205.70653133
51
-59.70037344
0
ARC
8
BLACK
10
75.405549999999991
20
-57.3075100000000006
40
0.5000103584367028
50
90.00022918
51
120.29880049
0
ARC
8
BLACK
10
75.405549999999991
20
-53.3074899999999943
40
0.5000090000089998
50
-120.29901505
51
-90.00034377
0
ARC
8
BLACK
10
76.9944500000000005
20
-57.3075079999999986
40
0.5000090000039998
50
59.70098495
51
89.99977082
0
ARC
8
BLACK
10
76.9944500000000005
20
-53.3074909999999988
40
0.500009136137531
50
-89.99965623
51
-59.70098495
0
ARC
8
BLACK
10
77.4989690000000024
20
-54.1709010000000006
40
0.499998988562977
50
-25.70617187
51
120.29929636
0
ARC
8
BLACK
10
78.3999889999999908
20
-54.6046550000000011
40
0.499990000001
50
-205.70646243
51
-179.99988541
0
ARC
8
BLACK
10
77.4989699999999999
20
-56.4440979999999968
40
0.4999997985959594
50
-120.29939530
51
25.70642808
0
ARC
8
BLACK
10
78.3999889999999908
20
-56.0103429999999989
40
0.4999899543000839
50
-180.00022919
51
-154.29353757
0
LINE
8
BLACK
6
CONTINUOUS
10
131.6500010000000032
20
-58.8678409999999985
11
131.6500010000000032
21
-57.4621569999999977
0
LINE
8
BLACK
6
CONTINUOUS
10
132.5555479999999875
20
-56.6649999999999991
11
134.1444529999999986
21
-56.6649999999999991
0
LINE
8
BLACK
6
CONTINUOUS
10
134.1444520000000011
20
-59.6649989999999946
11
132.5555479999999875
21
-59.6649989999999946
0
LINE
8
BLACK
6
CONTINUOUS
10
135.0499989999999855
20
-57.4621569999999977
11
135.0499989999999855
21
-58.8678409999999985
0
ARC
8
BLACK
10
131.1500000000000057
20
-57.4620999999999995
40
0.4999760117215625
50
-0.00653171
51
25.70023661
0
ARC
8
BLACK
10
132.0510299999999972
20
-57.0283999999999978
40
0.4999993648365966
50
-300.29939530
51
-154.29367517
0
ARC
8
BLACK
10
131.1496400000000051
20
-58.867759999999997
40
0.5003610067191487
50
-25.69659863
51
-0.00938973
0
ARC
8
BLACK
10
132.0510299999999972
20
-59.3016000000000005
40
0.4999960394813143
50
-205.70653133
51
-59.70037344
0
ARC
8
BLACK
10
132.5555499999999824
20
-60.1650099999999952
40
0.5000103584367028
50
90.00022918
51
120.29880049
0
ARC
8
BLACK
10
132.5555499999999824
20
-56.164989999999996
40
0.5000090000089998
50
-120.29901505
51
-90.00034377
0
ARC
8
BLACK
10
134.1444500000000062
20
-60.1650080000000003
40
0.5000090000039998
50
59.70098495
51
89.99977082
0
ARC
8
BLACK
10
134.1444500000000062
20
-56.1649910000000006
40
0.500009136137531
50
-89.99965623
51
-59.70098495
0
ARC
8
BLACK
10
134.6489689999999939
20
-57.0284009999999952
40
0.499998988562977
50
-25.70617187
51
120.29929636
0
ARC
8
BLACK
10
135.5499889999999823
20
-57.4621549999999957
40
0.499990000001
50
-205.70646243
51
-179.99988541
0
ARC
8
BLACK
10
134.6489699999999914
20
-59.3015979999999985
40
0.4999997985959594
50
-120.29939530
51
25.70642808
0
ARC
8
BLACK
10
135.5499889999999823
20
-58.8678430000000006
40
0.4999899543000839
50
-180.00022919
51
-154.29353757
0
LINE
8
BLACK
6
CONTINUOUS
10
36.4000009999999961
20
-82.6803409999999985
11
36.4000009999999961
21
-81.2746569999999906
0
LINE
8
BLACK
6
CONTINUOUS
10
37.3055480000000017
20
-80.477499999999992
11
38.8944529999999986
21
-80.477499999999992
0
LINE
8
BLACK
6
CONTINUOUS
10
38.8944520000000011
20
-83.4774989999999946
11
37.3055480000000017
21
-83.4774989999999946
0
LINE
8
BLACK
6
CONTINUOUS
10
39.7999989999999997
20
-81.2746569999999906
11
39.7999989999999997
21
-82.6803409999999985
0
ARC
8
BLACK
10
35.8999999999999986
20
-81.2745999999999924
40
0.4999760117215625
50
-0.00653171
51
25.70023661
0
ARC
8
BLACK
10
36.8010299999999972
20
-80.8408999999999907
40
0.4999993648365966
50
-300.29939530
51
-154.29367517
0
ARC
8
BLACK
10
35.899639999999998
20
-82.6802599999999899
40
0.5003610067191487
50
-25.69659863
51
-0.00938973
0
ARC
8
BLACK
10
36.8010299999999972
20
-83.1140999999999934
40
0.4999960394813143
50
-205.70653133
51
-59.70037344
0
ARC
8
BLACK
10
37.3055499999999967
20
-83.9775099999999952
40
0.5000103584367028
50
90.00022918
51
120.29880049
0
ARC
8
BLACK
10
37.3055499999999967
20
-79.9774900000000031
40
0.5000090000089998
50
-120.29901505
51
-90.00034377
0
ARC
8
BLACK
10
38.8944499999999991
20
-83.9775080000000003
40
0.5000090000039998
50
59.70098495
51
89.99977082
0
ARC
8
BLACK
10
38.8944499999999991
20
-79.9774910000000006
40
0.500009136137531
50
-89.99965623
51
-59.70098495
0
ARC
8
BLACK
10
39.398969000000001
20
-80.8409010000000023
40
0.499998988562977
50
-25.70617187
51
120.29929636
0
ARC
8
BLACK
10
40.2999889999999965
20
-81.2746549999999957
40
0.499990000001
50
-205.70646243
51
-179.99988541
0
ARC
8
BLACK
10
39.3989699999999985
20
-83.1140979999999985
40
0.4999997985959594
50
-120.29939530
51
25.70642808
0
ARC
8
BLACK
10
40.2999889999999965
20
-82.6803429999999935
40
0.4999899543000839
50
-180.00022919
51
-154.29353757
0
LINE
8
BLACK
6
CONTINUOUS
10
284.0500010000000088
20
-103.5103429999999918
11
284.0500010000000088
21
-102.1046589999999981
0
LINE
8
BLACK
6
CONTINUOUS
10
284.9555479999999648
20
-101.307501000000002
11
286.5444519999999784
21
-101.307501000000002
0
LINE
8
BLACK
6
CONTINUOUS
10
286.5444519999999784
20
-104.3074999999999903
11
284.9555469999999673
21
-104.3074999999999903
0
LINE
8
BLACK
6
CONTINUOUS
10
287.4499989999999912
20
-102.1046589999999981
11
287.4499989999999912
21
-103.5103429999999918
0
ARC
8
BLACK
10
283.5500109999999836
20
-102.1046569999999889
40
0.4999899543000839
50
-0.00022919
51
25.70646243
0
ARC
8
BLACK
10
284.4510300000000029
20
-101.6709019999999981
40
0.4999997985959594
50
-300.29939530
51
-154.29357192
0
ARC
8
BLACK
10
283.5500109999999836
20
-103.5103450000000009
40
0.499990000001
50
-25.70646243
51
0.00011459
0
ARC
8
BLACK
10
284.4510310000000004
20
-103.9440989999999942
40
0.499998988562977
50
-205.70617187
51
-59.70070364
0
ARC
8
BLACK
10
284.9555499999999597
20
-104.807508999999996
40
0.500009136137531
50
90.00034377
51
120.29901505
0
ARC
8
BLACK
10
284.9555499999999597
20
-100.8074919999999963
40
0.5000090000039998
50
-120.29901505
51
-90.00022918
0
ARC
8
BLACK
10
286.5444499999999834
20
-104.8075099999999935
40
0.5000090000089998
50
59.70098495
51
89.99965623
0
ARC
8
BLACK
10
286.5444499999999834
20
-100.8074900000000014
40
0.5000103584367028
50
-89.99977082
51
-59.70119951
0
ARC
8
BLACK
10
287.0489699999999971
20
-101.6708999999999889
40
0.4999960394813143
50
-25.70653133
51
120.29962656
0
ARC
8
BLACK
10
287.9503599999999892
20
-102.1047399999999925
40
0.5003610067191487
50
154.30340137
51
179.99061027
0
ARC
8
BLACK
10
287.0489699999999971
20
-103.9440999999999917
40
0.4999993648365966
50
-120.29939530
51
25.70632483
0
ARC
8
BLACK
10
287.9499999999999886
20
-103.51039999999999
40
0.4999760117215625
50
-180.00653171
51
-154.29976339
0
LINE
8
BLACK
6
CONTINUOUS
10
131.6500010000000032
20
-39.8178410000000014
11
131.6500010000000032
21
-38.4121570000000006
0
LINE
8
BLACK
6
CONTINUOUS
10
132.5555479999999875
20
-37.6149999999999949
11
134.1444529999999986
21
-37.6149999999999949
0
LINE
8
BLACK
6
CONTINUOUS
10
134.1444520000000011
20
-40.6149989999999974
11
132.5555479999999875
21
-40.6149989999999974
0
LINE
8
BLACK
6
CONTINUOUS
10
135.0499989999999855
20
-38.4121570000000006
11
135.0499989999999855
21
-39.8178410000000014
0
ARC
8
BLACK
10
131.1500000000000057
20
-38.4120999999999952
40
0.4999760117215625
50
-0.00653171
51
25.70023661
0
ARC
8
BLACK
10
132.0510299999999972
20
-37.9784000000000006
40
0.4999993648365966
50
-300.29939530
51
-154.29367517
0
ARC
8
BLACK
10
131.1496400000000051
20
-39.8177599999999998
40
0.5003610067191487
50
-25.69659863
51
-0.00938973
0
ARC
8
BLACK
10
132.0510299999999972
20
-40.2515999999999963
40
0.4999960394813143
50
-205.70653133
51
-59.70037344
0
ARC
8
BLACK
10
132.5555499999999824
20
-41.1150099999999981
40
0.5000103584367028
50
90.00022918
51
120.29880049
0
ARC
8
BLACK
10
132.5555499999999824
20
-37.1149899999999988
40
0.5000090000089998
50
-120.29901505
51
-90.00034377
0
ARC
8
BLACK
10
134.1444500000000062
20
-41.115007999999996
40
0.5000090000039998
50
59.70098495
51
89.99977082
0
ARC
8
BLACK
10
134.1444500000000062
20
-37.1149909999999963
40
0.500009136137531
50
-89.99965623
51
-59.70098495
0
ARC
8
BLACK
10
134.6489689999999939
20
-37.9784009999999981
40
0.499998988562977
50
-25.70617187
51
120.29929636
0
ARC
8
BLACK
10
135.5499889999999823
20
-38.4121549999999985
40
0.499990000001
50
-205.70646243
51
-179.99988541
0
ARC
8
BLACK
10
134.6489699999999914
20
-40.2515980000000013
40
0.4999997985959594
50
-120.29939530
51
25.70642808
0
ARC
8
BLACK
10
135.5499889999999823
20
-39.8178429999999963
40
0.4999899543000839
50
-180.00022919
51
-154.29353757
0
LINE
8
BLACK
6
CONTINUOUS
10
107.8375009999999889
20
-113.1603409999999883
11
107.8375009999999889
21
-111.7546569999999946
0
LINE
8
BLACK
6
CONTINUOUS
10
108.7430480000000017
20
-110.957499999999996
11
110.3319529999999986
21
-110.957499999999996
0
LINE
8
BLACK
6
CONTINUOUS
10
110.3319520000000011
20
-113.9574989999999985
11
108.7430480000000017
21
-113.9574989999999985
0
LINE
8
BLACK
6
CONTINUOUS
10
111.2374989999999997
20
-111.7546569999999946
11
111.2374989999999997
21
-113.1603409999999883
0
ARC
8
BLACK
10
107.3374999999999915
20
-111.7545999999999964
40
0.4999760117215625
50
-0.00653171
51
25.70023661
0
ARC
8
BLACK
10
108.2385299999999972
20
-111.3208999999999946
40
0.4999993648365966
50
-300.29939530
51
-154.29367517
0
ARC
8
BLACK
10
107.3371399999999909
20
-113.1602599999999939
40
0.5003610067191487
50
-25.69659863
51
-0.00938973
0
ARC
8
BLACK
10
108.2385299999999972
20
-113.5940999999999974
40
0.4999960394813143
50
-205.70653133
51
-59.70037344
0
ARC
8
BLACK
10
108.7430499999999967
20
-114.4575099999999992
40
0.5000103584367028
50
90.00022918
51
120.29880049
0
ARC
8
BLACK
10
108.7430499999999967
20
-110.4574899999999928
40
0.5000090000089998
50
-120.29901505
51
-90.00034377
0
ARC
8
BLACK
10
110.331949999999992
20
-114.45750799999999
40
0.5000090000039998
50
59.70098495
51
89.99977082
0
ARC
8
BLACK
10
110.331949999999992
20
-110.4574909999999903
40
0.500009136137531
50
-89.99965623
51
-59.70098495
0
ARC
8
BLACK
10
110.8364689999999939
20
-111.3209009999999921
40
0.499998988562977
50
-25.70617187
51
120.29929636
0
ARC
8
BLACK
10
111.7374889999999965
20
-111.7546549999999996
40
0.499990000001
50
-205.70646243
51
-179.99988541
0
ARC
8
BLACK
10
110.8364699999999914
20
-113.5940979999999882
40
0.4999997985959594
50
-120.29939530
51
25.70642808
0
ARC
8
BLACK
10
111.7374889999999965
20
-113.1603429999999975
40
0.4999899543000839
50
-180.00022919
51
-154.29353757
0
LINE
8
BLACK
6
CONTINUOUS
10
55.4500010000000003
20
-96.9678409999999928
11
55.4500010000000003
21
-95.5621569999999991
0
LINE
8
BLACK
6
CONTINUOUS
10
56.3555479999999989
20
-94.7650000000000006
11
57.9444529999999958
21
-94.7650000000000006
0
LINE
8
BLACK
6
CONTINUOUS
10
57.9444519999999983
20
-97.7649989999999889
11
56.3555479999999989
21
-97.7649989999999889
0
LINE
8
BLACK
6
CONTINUOUS
10
58.8499989999999968
20
-95.5621569999999991
11
58.8499989999999968
21
-96.9678409999999928
0
ARC
8
BLACK
10
54.9499999999999957
20
-95.5621000000000009
40
0.4999760117215625
50
-0.00653171
51
25.70023661
0
ARC
8
BLACK
10
55.8510299999999944
20
-95.1283999999999992
40
0.4999993648365966
50
-300.29939530
51
-154.29367517
0
ARC
8
BLACK
10
54.9496399999999952
20
-96.9677599999999984
40
0.5003610067191487
50
-25.69659863
51
-0.00938973
0
ARC
8
BLACK
10
55.8510299999999944
20
-97.401600000000002
40
0.4999960394813143
50
-205.70653133
51
-59.70037344
0
ARC
8
BLACK
10
56.3555500000000009
20
-98.2650099999999895
40
0.5000103584367028
50
90.00022918
51
120.29880049
0
ARC
8
BLACK
10
56.3555500000000009
20
-94.2649899999999974
40
0.5000090000089998
50
-120.29901505
51
-90.00034377
0
ARC
8
BLACK
10
57.9444499999999962
20
-98.2650079999999946
40
0.5000090000039998
50
59.70098495
51
89.99977082
0
ARC
8
BLACK
10
57.9444499999999962
20
-94.2649909999999949
40
0.500009136137531
50
-89.99965623
51
-59.70098495
0
ARC
8
BLACK
10
58.4489689999999982
20
-95.1284009999999967
40
0.499998988562977
50
-25.70617187
51
120.29929636
0
ARC
8
BLACK
10
59.3499890000000008
20
-95.56215499999999
40
0.499990000001
50
-205.70646243
51
-179.99988541
0
ARC
8
BLACK
10
58.4489699999999957
20
-97.4015979999999928
40
0.4999997985959594
50
-120.29939530
51
25.70642808
0
ARC
8
BLACK
10
59.3499890000000008
20
-96.967843000000002
40
0.4999899543000839
50
-180.00022919
51
-154.29353757
0
LINE
8
BLACK
6
CONTINUOUS
10
93.5500009999999946
20
-34.102840999999998
11
93.5500009999999946
21
-32.6971569999999971
0
LINE
8
BLACK
6
CONTINUOUS
10
94.4555479999999932
20
-31.8999999999999986
11
96.0444529999999901
21
-31.8999999999999986
0
LINE
8
BLACK
6
CONTINUOUS
10
96.0444519999999926
20
-34.8999990000000011
11
94.4555479999999932
21
-34.8999990000000011
0
LINE
8
BLACK
6
CONTINUOUS
10
96.9499989999999912
20
-32.6971569999999971
11
96.9499989999999912
21
-34.102840999999998
0
ARC
8
BLACK
10
93.0499999999999972
20
-32.6970999999999989
40
0.4999760117215625
50
-0.00653171
51
25.70023661
0
ARC
8
BLACK
10
93.9510299999999887
20
-32.2633999999999972
40
0.4999993648365966
50
-300.29939530
51
-154.29367517
0
ARC
8
BLACK
10
93.0496399999999966
20
-34.1027599999999964
40
0.5003610067191487
50
-25.69659863
51
-0.00938973
0
ARC
8
BLACK
10
93.9510299999999887
20
-34.5366
40
0.4999960394813143
50
-205.70653133
51
-59.70037344
0
ARC
8
BLACK
10
94.4555500000000023
20
-35.4000100000000018
40
0.5000103584367028
50
90.00022918
51
120.29880049
0
ARC
8
BLACK
10
94.4555500000000023
20
-31.399989999999999
40
0.5000090000089998
50
-120.29901505
51
-90.00034377
0
ARC
8
BLACK
10
96.0444499999999977
20
-35.4000079999999997
40
0.5000090000039998
50
59.70098495
51
89.99977082
0
ARC
8
BLACK
10
96.0444499999999977
20
-31.399991
40
0.500009136137531
50
-89.99965623
51
-59.70098495
0
ARC
8
BLACK
10
96.5489689999999996
20
-32.2634010000000018
40
0.499998988562977
50
-25.70617187
51
120.29929636
0
ARC
8
BLACK
10
97.4499890000000022
20
-32.6971549999999951
40
0.499990000001
50
-205.70646243
51
-179.99988541
0
ARC
8
BLACK
10
96.5489699999999971
20
-34.5365979999999979
40
0.4999997985959594
50
-120.29939530
51
25.70642808
0
ARC
8
BLACK
10
97.4499890000000022
20
-34.102843
40
0.4999899543000839
50
-180.00022919
51
-154.29353757
0
LINE
8
BLACK
6
CONTINUOUS
10
74.5000009999999975
20
-75.060340999999994
11
74.5000009999999975
21
-73.6546570000000003
0
LINE
8
BLACK
6
CONTINUOUS
10
75.405547999999996
20
-72.8575000000000017
11
76.9944529999999929
21
-72.8575000000000017
0
LINE
8
BLACK
6
CONTINUOUS
10
76.9944519999999955
20
-75.85749899999999
11
75.405547999999996
21
-75.85749899999999
0
LINE
8
BLACK
6
CONTINUOUS
10
77.899998999999994
20
-73.6546570000000003
11
77.899998999999994
21
-75.060340999999994
0
ARC
8
BLACK
10
74.
20
-73.6546000000000021
40
0.4999760117215625
50
-0.00653171
51
25.70023661
0
ARC
8
BLACK
10
74.9010299999999916
20
-73.2209000000000003
40
0.4999993648365966
50
-300.29939530
51
-154.29367517
0
ARC
8
BLACK
10
73.9996399999999994
20
-75.0602599999999995
40
0.5003610067191487
50
-25.69659863
51
-0.00938973
0
ARC
8
BLACK
10
74.9010299999999916
20
-75.4941000000000031
40
0.4999960394813143
50
-205.70653133
51
-59.70037344
0
ARC
8
BLACK
10
75.405549999999991
20
-76.3575099999999907
40
0.5000103584367028
50
90.00022918
51
120.29880049
0
ARC
8
BLACK
10
75.405549999999991
20
-72.3574899999999985
40
0.5000090000089998
50
-120.29901505
51
-90.00034377
0
ARC
8
BLACK
10
76.9944500000000005
20
-76.3575079999999957
40
0.5000090000039998
50
59.70098495
51
89.99977082
0
ARC
8
BLACK
10
76.9944500000000005
20
-72.357490999999996
40
0.500009136137531
50
-89.99965623
51
-59.70098495
0
ARC
8
BLACK
10
77.4989690000000024
20
-73.2209009999999978
40
0.499998988562977
50
-25.70617187
51
120.29929636
0
ARC
8
BLACK
10
78.3999889999999908
20
-73.6546549999999911
40
0.499990000001
50
-205.70646243
51
-179.99988541
0
ARC
8
BLACK
10
77.4989699999999999
20
-75.4940979999999939
40
0.4999997985959594
50
-120.29939530
51
25.70642808
0
ARC
8
BLACK
10
78.3999889999999908
20
-75.0603430000000031
40
0.4999899543000839
50
-180.00022919
51
-154.29353757
0
LINE
8
BLACK
6
CONTINUOUS
10
322.1500009999999747
20
-53.9803429999999977
11
322.1500009999999747
21
-52.5746589999999969
0
LINE
8
BLACK
6
CONTINUOUS
10
323.0555479999999875
20
-51.7775010000000009
11
324.6444520000000011
21
-51.7775010000000009
0
LINE
8
BLACK
6
CONTINUOUS
10
324.6444520000000011
20
-54.7774999999999963
11
323.05554699999999
21
-54.7774999999999963
0
LINE
8
BLACK
6
CONTINUOUS
10
325.5499989999999571
20
-52.5746589999999969
11
325.5499989999999571
21
-53.9803429999999977
0
ARC
8
BLACK
10
321.6500110000000063
20
-52.5746569999999949
40
0.4999899543000839
50
-0.00022919
51
25.70646243
0
ARC
8
BLACK
10
322.5510299999999688
20
-52.140901999999997
40
0.4999997985959594
50
-300.29939530
51
-154.29357192
0
ARC
8
BLACK
10
321.6500110000000063
20
-53.9803449999999998
40
0.499990000001
50
-25.70646243
51
0.00011459
0
ARC
8
BLACK
10
322.5510309999999663
20
-54.4140990000000002
40
0.499998988562977
50
-205.70617187
51
-59.70070364
0
ARC
8
BLACK
10
323.0555499999999824
20
-55.2775089999999949
40
0.500009136137531
50
90.00034377
51
120.29901505
0
ARC
8
BLACK
10
323.0555499999999824
20
-51.2774919999999952
40
0.5000090000039998
50
-120.29901505
51
-90.00022918
0
ARC
8
BLACK
10
324.6444500000000062
20
-55.2775099999999995
40
0.5000090000089998
50
59.70098495
51
89.99965623
0
ARC
8
BLACK
10
324.6444500000000062
20
-51.2774900000000002
40
0.5000103584367028
50
-89.99977082
51
-59.70119951
0
ARC
8
BLACK
10
325.148969999999963
20
-52.1408999999999949
40
0.4999960394813143
50
-25.70653133
51
120.29962656
0
ARC
8
BLACK
10
326.050360000000012
20
-52.5747399999999985
40
0.5003610067191487
50
154.30340137
51
179.99061027
0
ARC
8
BLACK
10
325.148969999999963
20
-54.4140999999999977
40
0.4999993648365966
50
-120.29939530
51
25.70632483
0
ARC
8
BLACK
10
326.0500000000000114
20
-53.9803999999999959
40
0.4999760117215625
50
-180.00653171
51
-154.29976339
0
LINE
8
BLACK
6
CONTINUOUS
10
303.1000009999999634
20
-68.2678429999999992
11
303.1000009999999634
21
-66.8621589999999912
0
LINE
8
BLACK
6
CONTINUOUS
10
304.0055479999999761
20
-66.0650009999999952
11
305.5944519999999898
21
-66.0650009999999952
0
LINE
8
BLACK
6
CONTINUOUS
10
305.5944519999999898
20
-69.0649999999999977
11
304.0055469999999787
21
-69.0649999999999977
0
LINE
8
BLACK
6
CONTINUOUS
10
306.4999990000000025
20
-66.8621589999999912
11
306.4999990000000025
21
-68.2678429999999992
0
ARC
8
BLACK
10
302.600010999999995
20
-66.8621569999999963
40
0.4999899543000839
50
-0.00022919
51
25.70646243
0
ARC
8
BLACK
10
303.5010300000000143
20
-66.4284019999999913
40
0.4999997985959594
50
-300.29939530
51
-154.29357192
0
ARC
8
BLACK
10
302.600010999999995
20
-68.2678449999999941
40
0.499990000001
50
-25.70646243
51
0.00011459
0
ARC
8
BLACK
10
303.5010310000000118
20
-68.7015990000000016
40
0.499998988562977
50
-205.70617187
51
-59.70070364
0
ARC
8
BLACK
10
304.0055499999999711
20
-69.5650090000000034
40
0.500009136137531
50
90.00034377
51
120.29901505
0
ARC
8
BLACK
10
304.0055499999999711
20
-65.5649920000000037
40
0.5000090000039998
50
-120.29901505
51
-90.00022918
0
ARC
8
BLACK
10
305.5944499999999948
20
-69.5650100000000009
40
0.5000090000089998
50
59.70098495
51
89.99965623
0
ARC
8
BLACK
10
305.5944499999999948
20
-65.5649899999999946
40
0.5000103584367028
50
-89.99977082
51
-59.70119951
0
ARC
8
BLACK
10
306.0989700000000084
20
-66.4283999999999963
40
0.4999960394813143
50
-25.70653133
51
120.29962656
0
ARC
8
BLACK
10
307.0003600000000006
20
-66.8622399999999999
40
0.5003610067191487
50
154.30340137
51
179.99061027
0
ARC
8
BLACK
10
306.0989700000000084
20
-68.7015999999999991
40
0.4999993648365966
50
-120.29939530
51
25.70632483
0
ARC
8
BLACK
10
307.
20
-68.2678999999999974
40
0.4999760117215625
50
-180.00653171
51
-154.29976339
0
LINE
8
BLACK
6
CONTINUOUS
10
284.0500010000000088
20
-65.4103429999999975
11
284.0500010000000088
21
-64.0046590000000037
0
LINE
8
BLACK
6
CONTINUOUS
10
284.9555479999999648
20
-63.2075010000000006
11
286.5444519999999784
21
-63.2075010000000006
0
LINE
8
BLACK
6
CONTINUOUS
10
286.5444519999999784
20
-66.207499999999996
11
284.9555469999999673
21
-66.207499999999996
0
LINE
8
BLACK
6
CONTINUOUS
10
287.4499989999999912
20
-64.0046590000000037
11
287.4499989999999912
21
-65.4103429999999975
0
ARC
8
BLACK
10
283.5500109999999836
20
-64.0046569999999946
40
0.4999899543000839
50
-0.00022919
51
25.70646243
0
ARC
8
BLACK
10
284.4510300000000029
20
-63.5709019999999967
40
0.4999997985959594
50
-300.29939530
51
-154.29357192
0
ARC
8
BLACK
10
283.5500109999999836
20
-65.4103449999999924
40
0.499990000001
50
-25.70646243
51
0.00011459
0
ARC
8
BLACK
10
284.4510310000000004
20
-65.8440989999999999
40
0.499998988562977
50
-205.70617187
51
-59.70070364
0
ARC
8
BLACK
10
284.9555499999999597
20
-66.7075090000000017
40
0.500009136137531
50
90.00034377
51
120.29901505
0
ARC
8
BLACK
10
284.9555499999999597
20
-62.7074919999999949
40
0.5000090000039998
50
-120.29901505
51
-90.00022918
0
ARC
8
BLACK
10
286.5444499999999834
20
-66.7075099999999992
40
0.5000090000089998
50
59.70098495
51
89.99965623
0
ARC
8
BLACK
10
286.5444499999999834
20
-62.70749
40
0.5000103584367028
50
-89.99977082
51
-59.70119951
0
ARC
8
BLACK
10
287.0489699999999971
20
-63.5708999999999946
40
0.4999960394813143
50
-25.70653133
51
120.29962656
0
ARC
8
BLACK
10
287.9503599999999892
20
-64.0047399999999982
40
0.5003610067191487
50
154.30340137
51
179.99061027
0
ARC
8
BLACK
10
287.0489699999999971
20
-65.8440999999999974
40
0.4999993648365966
50
-120.29939530
51
25.70632483
0
ARC
8
BLACK
10
287.9499999999999886
20
-65.4103999999999957
40
0.4999760117215625
50
-180.00653171
51
-154.29976339
0
LINE
8
BLACK
6
CONTINUOUS
10
226.9000010000000032
20
-49.2178429999999949
11
226.9000010000000032
21
-47.8121590000000012
0
LINE
8
BLACK
6
CONTINUOUS
10
227.8055479999999875
20
-47.015000999999998
11
229.3944520000000011
21
-47.015000999999998
0
LINE
8
BLACK
6
CONTINUOUS
10
229.3944520000000011
20
-50.0150000000000006
11
227.80554699999999
21
-50.0150000000000006
0
LINE
8
BLACK
6
CONTINUOUS
10
230.2999989999999855
20
-47.8121590000000012
11
230.2999989999999855
21
-49.2178429999999949
0
ARC
8
BLACK
10
226.4000109999999779
20
-47.8121569999999991
40
0.4999899543000839
50
-0.00022919
51
25.70646243
0
ARC
8
BLACK
10
227.3010299999999972
20
-47.3784020000000012
40
0.4999997985959594
50
-300.29939530
51
-154.29357192
0
ARC
8
BLACK
10
226.4000109999999779
20
-49.217844999999997
40
0.499990000001
50
-25.70646243
51
0.00011459
0
ARC
8
BLACK
10
227.3010309999999947
20
-49.6515989999999974
40
0.499998988562977
50
-205.70617187
51
-59.70070364
0
ARC
8
BLACK
10
227.8055499999999824
20
-50.5150089999999992
40
0.500009136137531
50
90.00034377
51
120.29901505
0
ARC
8
BLACK
10
227.8055499999999824
20
-46.5149919999999995
40
0.5000090000039998
50
-120.29901505
51
-90.00022918
0
ARC
8
BLACK
10
229.3944499999999778
20
-50.5150099999999966
40
0.5000090000089998
50
59.70098495
51
89.99965623
0
ARC
8
BLACK
10
229.3944499999999778
20
-46.5149899999999974
40
0.5000103584367028
50
-89.99977082
51
-59.70119951
0
ARC
8
BLACK
10
229.8989699999999914
20
-47.3783999999999992
40
0.4999960394813143
50
-25.70653133
51
120.29962656
0
ARC
8
BLACK
10
230.8003599999999835
20
-47.8122399999999956
40
0.5003610067191487
50
154.30340137
51
179.99061027
0
ARC
8
BLACK
10
229.8989699999999914
20
-49.6515999999999948
40
0.4999993648365966
50
-120.29939530
51
25.70632483
0
ARC
8
BLACK
10
230.7999999999999829
20
-49.2179000000000002
40
0.4999760117215625
50
-180.00653171
51
-154.29976339
0
LINE
8
BLACK
6
CONTINUOUS
10
245.9500009999999861
20
-84.4603429999999946
11
245.9500009999999861
21
-83.0546590000000009
0
LINE
8
BLACK
6
CONTINUOUS
10
246.8555479999999989
20
-82.2575009999999907
11
248.4444519999999841
21
-82.2575009999999907
0
LINE
8
BLACK
6
CONTINUOUS
10
248.4444519999999841
20
-85.2574999999999932
11
246.8555470000000014
21
-85.2574999999999932
0
LINE
8
BLACK
6
CONTINUOUS
10
249.3499989999999968
20
-83.0546590000000009
11
249.3499989999999968
21
-84.4603429999999946
0
ARC
8
BLACK
10
245.4500109999999893
20
-83.0546569999999917
40
0.4999899543000839
50
-0.00022919
51
25.70646243
0
ARC
8
BLACK
10
246.3510299999999802
20
-82.620902000000001
40
0.4999997985959594
50
-300.29939530
51
-154.29357192
0
ARC
8
BLACK
10
245.4500109999999893
20
-84.4603449999999896
40
0.499990000001
50
-25.70646243
51
0.00011459
0
ARC
8
BLACK
10
246.3510309999999777
20
-84.8940989999999971
40
0.499998988562977
50
-205.70617187
51
-59.70070364
0
ARC
8
BLACK
10
246.8555499999999938
20
-85.7575089999999989
40
0.500009136137531
50
90.00034377
51
120.29901505
0
ARC
8
BLACK
10
246.8555499999999938
20
-81.7574919999999992
40
0.5000090000039998
50
-120.29901505
51
-90.00022918
0
ARC
8
BLACK
10
248.4444499999999891
20
-85.7575099999999964
40
0.5000090000089998
50
59.70098495
51
89.99965623
0
ARC
8
BLACK
10
248.4444499999999891
20
-81.75748999999999
40
0.5000103584367028
50
-89.99977082
51
-59.70119951
0
ARC
8
BLACK
10
248.9489700000000028
20
-82.6208999999999918
40
0.4999960394813143
50
-25.70653133
51
120.29962656
0
ARC
8
BLACK
10
249.8503599999999949
20
-83.0547399999999953
40
0.5003610067191487
50
154.30340137
51
179.99061027
0
ARC
8
BLACK
10
248.9489700000000028
20
-84.8940999999999946
40
0.4999993648365966
50
-120.29939530
51
25.70632483
0
ARC
8
BLACK
10
249.8499999999999943
20
-84.4603999999999928
40
0.4999760117215625
50
-180.00653171
51
-154.29976339
0
LINE
8
BLACK
6
CONTINUOUS
10
226.9000010000000032
20
-68.2678429999999992
11
226.9000010000000032
21
-66.8621589999999912
0
LINE
8
BLACK
6
CONTINUOUS
10
227.8055479999999875
20
-66.0650009999999952
11
229.3944520000000011
21
-66.0650009999999952
0
LINE
8
BLACK
6
CONTINUOUS
10
229.3944520000000011
20
-69.0649999999999977
11
227.80554699999999
21
-69.0649999999999977
0
LINE
8
BLACK
6
CONTINUOUS
10
230.2999989999999855
20
-66.8621589999999912
11
230.2999989999999855
21
-68.2678429999999992
0
ARC
8
BLACK
10
226.4000109999999779
20
-66.8621569999999963
40
0.4999899543000839
50
-0.00022919
51
25.70646243
0
ARC
8
BLACK
10
227.3010299999999972
20
-66.4284019999999913
40
0.4999997985959594
50
-300.29939530
51
-154.29357192
0
ARC
8
BLACK
10
226.4000109999999779
20
-68.2678449999999941
40
0.499990000001
50
-25.70646243
51
0.00011459
0
ARC
8
BLACK
10
227.3010309999999947
20
-68.7015990000000016
40
0.499998988562977
50
-205.70617187
51
-59.70070364
0
ARC
8
BLACK
10
227.8055499999999824
20
-69.5650090000000034
40
0.500009136137531
50
90.00034377
51
120.29901505
0
ARC
8
BLACK
10
227.8055499999999824
20
-65.5649920000000037
40
0.5000090000039998
50
-120.29901505
51
-90.00022918
0
ARC
8
BLACK
10
229.3944499999999778
20
-69.5650100000000009
40
0.5000090000089998
50
59.70098495
51
89.99965623
0
ARC
8
BLACK
10
229.3944499999999778
20
-65.5649899999999946
40
0.5000103584367028
50
-89.99977082
51
-59.70119951
0
ARC
8
BLACK
10
229.8989699999999914
20
-66.4283999999999963
40
0.4999960394813143
50
-25.70653133
51
120.29962656
0
ARC
8
BLACK
10
230.8003599999999835
20
-66.8622399999999999
40
0.5003610067191487
50
154.30340137
51
179.99061027
0
ARC
8
BLACK
10
229.8989699999999914
20
-68.7015999999999991
40
0.4999993648365966
50
-120.29939530
51
25.70632483
0
ARC
8
BLACK
10
230.7999999999999829
20
-68.2678999999999974
40
0.4999760117215625
50
-180.00653171
51
-154.29976339
0
LINE
8
BLACK
6
CONTINUOUS
10
112.6000009999999918
20
-94.1103409999999911
11
112.6000009999999918
21
-92.7046569999999974
0
LINE
8
BLACK
6
CONTINUOUS
10
113.5055479999999903
20
-91.9074999999999989
11
115.0944530000000015
21
-91.9074999999999989
0
LINE
8
BLACK
6
CONTINUOUS
10
115.0944519999999898
20
-94.9074990000000014
11
113.5055479999999903
21
-94.9074990000000014
0
LINE
8
BLACK
6
CONTINUOUS
10
115.9999989999999883
20
-92.7046569999999974
11
115.9999989999999883
21
-94.1103409999999911
0
ARC
8
BLACK
10
112.0999999999999943
20
-92.7045999999999992
40
0.4999760117215625
50
-0.00653171
51
25.70023661
0
ARC
8
BLACK
10
113.0010300000000001
20
-92.2708999999999975
40
0.4999993648365966
50
-300.29939530
51
-154.29367517
0
ARC
8
BLACK
10
112.0996399999999937
20
-94.1102599999999967
40
0.5003610067191487
50
-25.69659863
51
-0.00938973
0
ARC
8
BLACK
10
113.0010300000000001
20
-94.5441000000000003
40
0.4999960394813143
50
-205.70653133
51
-59.70037344
0
ARC
8
BLACK
10
113.5055499999999995
20
-95.407510000000002
40
0.5000103584367028
50
90.00022918
51
120.29880049
0
ARC
8
BLACK
10
113.5055499999999995
20
-91.4074899999999957
40
0.5000090000089998
50
-120.29901505
51
-90.00034377
0
ARC
8
BLACK
10
115.0944499999999948
20
-95.4075079999999929
40
0.5000090000039998
50
59.70098495
51
89.99977082
0
ARC
8
BLACK
10
115.0944499999999948
20
-91.4074909999999932
40
0.500009136137531
50
-89.99965623
51
-59.70098495
0
ARC
8
BLACK
10
115.5989689999999968
20
-92.270900999999995
40
0.499998988562977
50
-25.70617187
51
120.29929636
0
ARC
8
BLACK
10
116.4999889999999994
20
-92.7046550000000025
40
0.499990000001
50
-205.70646243
51
-179.99988541
0
ARC
8
BLACK
10
115.5989699999999942
20
-94.5440979999999911
40
0.4999997985959594
50
-120.29939530
51
25.70642808
0
ARC
8
BLACK
10
116.4999889999999994
20
-94.1103430000000003
40
0.4999899543000839
50
-180.00022919
51
-154.29353757
0
LINE
8
BLACK
6
CONTINUOUS
10
288.8125009999999975
20
-125.4178429999999906
11
288.8125009999999975
21
-124.0121589999999969
0
LINE
8
BLACK
6
CONTINUOUS
10
289.7180480000000102
20
-123.2150010000000009
11
291.306951999999967
21
-123.2150010000000009
0
LINE
8
BLACK
6
CONTINUOUS
10
291.306951999999967
20
-126.2149999999999892
11
289.7180480000000102
21
-126.2149999999999892
0
LINE
8
BLACK
6
CONTINUOUS
10
292.2124989999999798
20
-124.0121589999999969
11
292.2124989999999798
21
-125.4178429999999906
0
ARC
8
BLACK
10
288.3125109999999722
20
-124.0121569999999878
40
0.4999899543000839
50
-0.00022919
51
25.70646243
0
ARC
8
BLACK
10
289.2135279999999966
20
-123.5784009999999995
40
0.499998430302536
50
-300.29970880
51
-154.29336926
0
ARC
8
BLACK
10
288.3125109999999722
20
-125.4178449999999998
40
0.499990000001
50
-25.70646243
51
0.00011459
0
ARC
8
BLACK
10
289.2135319999999865
20
-125.8515969999999982
40
0.5000002108529555
50
-205.70591567
51
-59.70091820
0
ARC
8
BLACK
10
289.7180419999999685
20
-126.714981999999992
40
0.499981788166329
50
89.99931243
51
120.29978451
0
ARC
8
BLACK
10
289.7180529999999976
20
-122.7149730000000005
40
0.5000280000249986
50
-120.29815565
51
-90.00057293
0
ARC
8
BLACK
10
291.3069499999999721
20
-126.7150099999999924
40
0.5000090000089998
50
59.70098495
51
89.99965623
0
ARC
8
BLACK
10
291.3069399999999973
20
-122.7149699999999939
40
0.5000326716565628
50
-89.99862499
51
-59.70136636
0
ARC
8
BLACK
10
291.8114699999999857
20
-123.5783999999999878
40
0.4999960394813143
50
-25.70653133
51
120.29962656
0
ARC
8
BLACK
10
292.712789999999984
20
-124.0122299999999882
40
0.5002920051809743
50
154.30095726
51
179.99175422
0
ARC
8
BLACK
10
291.8114699999999857
20
-125.8515999999999906
40
0.4999993648365966
50
-120.29939530
51
25.70632483
0
ARC
8
BLACK
10
292.7124000000000024
20
-125.4178999999999888
40
0.4998859060795773
50
-180.00653301
51
-154.29479285
0
LINE
8
BLACK
6
CONTINUOUS
10
112.6000009999999918
20
-56.0103409999999968
11
112.6000009999999918
21
-54.604656999999996
0
LINE
8
BLACK
6
CONTINUOUS
10
113.5055479999999903
20
-53.8074999999999974
11
115.0944530000000015
21
-53.8074999999999974
0
LINE
8
BLACK
6
CONTINUOUS
10
115.0944519999999898
20
-56.807499
11
113.5055479999999903
21
-56.807499
0
LINE
8
BLACK
6
CONTINUOUS
10
115.9999989999999883
20
-54.604656999999996
11
115.9999989999999883
21
-56.0103409999999968
0
ARC
8
BLACK
10
112.0999999999999943
20
-54.6045999999999978
40
0.4999760117215625
50
-0.00653171
51
25.70023661
0
ARC
8
BLACK
10
113.0010300000000001
20
-54.1708999999999961
40
0.4999993648365966
50
-300.29939530
51
-154.29367517
0
ARC
8
BLACK
10
112.0996399999999937
20
-56.0102599999999953
40
0.5003610067191487
50
-25.69659863
51
-0.00938973
0
ARC
8
BLACK
10
113.0010300000000001
20
-56.4440999999999988
40
0.4999960394813143
50
-205.70653133
51
-59.70037344
0
ARC
8
BLACK
10
113.5055499999999995
20
-57.3075100000000006
40
0.5000103584367028
50
90.00022918
51
120.29880049
0
ARC
8
BLACK
10
113.5055499999999995
20
-53.3074899999999943
40
0.5000090000089998
50
-120.29901505
51
-90.00034377
0
ARC
8
BLACK
10
115.0944499999999948
20
-57.3075079999999986
40
0.5000090000039998
50
59.70098495
51
89.99977082
0
ARC
8
BLACK
10
115.0944499999999948
20
-53.3074909999999988
40
0.500009136137531
50
-89.99965623
51
-59.70098495
0
ARC
8
BLACK
10
115.5989689999999968
20
-54.1709010000000006
40
0.499998988562977
50
-25.70617187
51
120.29929636
0
ARC
8
BLACK
10
116.4999889999999994
20
-54.6046550000000011
40
0.499990000001
50
-205.70646243
51
-179.99988541
0
ARC
8
BLACK
10
115.5989699999999942
20
-56.4440979999999968
40
0.4999997985959594
50
-120.29939530
51
25.70642808
0
ARC
8
BLACK
10
116.4999889999999994
20
-56.0103429999999989
40
0.4999899543000839
50
-180.00022919
51
-154.29353757
0
LINE
8
BLACK
6
CONTINUOUS
10
55.4500010000000003
20
-39.8178410000000014
11
55.4500010000000003
21
-38.4121570000000006
0
LINE
8
BLACK
6
CONTINUOUS
10
56.3555479999999989
20
-37.6149999999999949
11
57.9444529999999958
21
-37.6149999999999949
0
LINE
8
BLACK
6
CONTINUOUS
10
57.9444519999999983
20
-40.6149989999999974
11
56.3555479999999989
21
-40.6149989999999974
0
LINE
8
BLACK
6
CONTINUOUS
10
58.8499989999999968
20
-38.4121570000000006
11
58.8499989999999968
21
-39.8178410000000014
0
ARC
8
BLACK
10
54.9499999999999957
20
-38.4120999999999952
40
0.4999760117215625
50
-0.00653171
51
25.70023661
0
ARC
8
BLACK
10
55.8510299999999944
20
-37.9784000000000006
40
0.4999993648365966
50
-300.29939530
51
-154.29367517
0
ARC
8
BLACK
10
54.9496399999999952
20
-39.8177599999999998
40
0.5003610067191487
50
-25.69659863
51
-0.00938973
0
ARC
8
BLACK
10
55.8510299999999944
20
-40.2515999999999963
40
0.4999960394813143
50
-205.70653133
51
-59.70037344
0
ARC
8
BLACK
10
56.3555500000000009
20
-41.1150099999999981
40
0.5000103584367028
50
90.00022918
51
120.29880049
0
ARC
8
BLACK
10
56.3555500000000009
20
-37.1149899999999988
40
0.5000090000089998
50
-120.29901505
51
-90.00034377
0
ARC
8
BLACK
10
57.9444499999999962
20
-41.115007999999996
40
0.5000090000039998
50
59.70098495
51
89.99977082
0
ARC
8
BLACK
10
57.9444499999999962
20
-37.1149909999999963
40
0.500009136137531
50
-89.99965623
51
-59.70098495
0
ARC
8
BLACK
10
58.4489689999999982
20
-37.9784009999999981
40
0.499998988562977
50
-25.70617187
51
120.29929636
0
ARC
8
BLACK
10
59.3499890000000008
20
-38.4121549999999985
40
0.499990000001
50
-205.70646243
51
-179.99988541
0
ARC
8
BLACK
10
58.4489699999999957
20
-40.2515980000000013
40
0.4999997985959594
50
-120.29939530
51
25.70642808
0
ARC
8
BLACK
10
59.3499890000000008
20
-39.8178429999999963
40
0.4999899543000839
50
-180.00022919
51
-154.29353757
0
LINE
8
BLACK
6
CONTINUOUS
10
74.5000009999999975
20
-36.9603409999999997
11
74.5000009999999975
21
-35.5546569999999988
0
LINE
8
BLACK
6
CONTINUOUS
10
75.405547999999996
20
-34.7575000000000003
11
76.9944529999999929
21
-34.7575000000000003
0
LINE
8
BLACK
6
CONTINUOUS
10
76.9944519999999955
20
-37.7574989999999957
11
75.405547999999996
21
-37.7574989999999957
0
LINE
8
BLACK
6
CONTINUOUS
10
77.899998999999994
20
-35.5546569999999988
11
77.899998999999994
21
-36.9603409999999997
0
ARC
8
BLACK
10
74.
20
-35.5546000000000006
40
0.4999760117215625
50
-0.00653171
51
25.70023661
0
ARC
8
BLACK
10
74.9010299999999916
20
-35.1208999999999989
40
0.4999993648365966
50
-300.29939530
51
-154.29367517
0
ARC
8
BLACK
10
73.9996399999999994
20
-36.9602599999999981
40
0.5003610067191487
50
-25.69659863
51
-0.00938973
0
ARC
8
BLACK
10
74.9010299999999916
20
-37.3941000000000017
40
0.4999960394813143
50
-205.70653133
51
-59.70037344
0
ARC
8
BLACK
10
75.405549999999991
20
-38.2575099999999964
40
0.5000103584367028
50
90.00022918
51
120.29880049
0
ARC
8
BLACK
10
75.405549999999991
20
-34.2574899999999971
40
0.5000090000089998
50
-120.29901505
51
-90.00034377
0
ARC
8
BLACK
10
76.9944500000000005
20
-38.2575080000000014
40
0.5000090000039998
50
59.70098495
51
89.99977082
0
ARC
8
BLACK
10
76.9944500000000005
20
-34.2574910000000017
40
0.500009136137531
50
-89.99965623
51
-59.70098495
0
ARC
8
BLACK
10
77.4989690000000024
20
-35.1209009999999964
40
0.499998988562977
50
-25.70617187
51
120.29929636
0
ARC
8
BLACK
10
78.3999889999999908
20
-35.5546549999999968
40
0.499990000001
50
-205.70646243
51
-179.99988541
0
ARC
8
BLACK
10
77.4989699999999999
20
-37.3940979999999996
40
0.4999997985959594
50
-120.29939530
51
25.70642808
0
ARC
8
BLACK
10
78.3999889999999908
20
-36.9603430000000017
40
0.4999899543000839
50
-180.00022919
51
-154.29353757
0
LINE
8
BLACK
6
CONTINUOUS
10
269.7625009999999861
20
-122.5603429999999889
11
269.7625009999999861
21
-121.1546589999999952
0
LINE
8
BLACK
6
CONTINUOUS
10
270.6680479999999989
20
-120.3575009999999992
11
272.2569520000000125
21
-120.3575009999999992
0
LINE
8
BLACK
6
CONTINUOUS
10
272.2569520000000125
20
-123.3574999999999875
11
270.6680470000000014
21
-123.3574999999999875
0
LINE
8
BLACK
6
CONTINUOUS
10
273.1624989999999684
20
-121.1546589999999952
11
273.1624989999999684
21
-122.5603429999999889
0
ARC
8
BLACK
10
269.2625019999999836
20
-121.1546570000000003
40
0.4999989310788573
50
-0.00022918
51
25.70622158
0
ARC
8
BLACK
10
270.1635279999999852
20
-120.7209000000000003
40
0.4999988640667096
50
-300.29970880
51
-154.29326601
0
ARC
8
BLACK
10
269.262473
20
-122.5603359999999924
40
0.5000280000639964
50
-25.70550293
51
-0.00091668
0
ARC
8
BLACK
10
270.1635319999999751
20
-122.9940969999999965
40
0.5000002108529555
50
-205.70591567
51
-59.70091820
0
ARC
8
BLACK
10
270.6680479999999989
20
-123.8575009999999992
40
0.5000012198835119
50
90.00011459
51
120.29927967
0
ARC
8
BLACK
10
270.6680499999999938
20
-119.8574919999999935
40
0.5000090000039998
50
-120.29901505
51
-90.00022918
0
ARC
8
BLACK
10
272.2569499999999607
20
-123.8575099999999907
40
0.5000090000089998
50
59.70098495
51
89.99965623
0
ARC
8
BLACK
10
272.2569499999999607
20
-119.8574999999999875
40
0.5000017244010264
50
-89.99977082
51
-59.70062139
0
ARC
8
BLACK
10
272.7614699999999743
20
-120.7209099999999893
40
0.5000046734951584
50
-25.70529232
51
120.29904842
0
ARC
8
BLACK
10
273.6628399999999601
20
-121.1547300000000007
40
0.5003410051804669
50
154.30323380
51
179.99175503
0
ARC
8
BLACK
10
272.7614699999999743
20
-122.9940999999999889
40
0.4999993648365966
50
-120.29939530
51
25.70632483
0
ARC
8
BLACK
10
273.6624999999999659
20
-122.560299999999998
40
0.5000193861211782
50
-179.99507257
51
-154.28943823
0
LINE
8
BLACK
6
CONTINUOUS
10
250.7125009999999747
20
-122.5603429999999889
11
250.7125009999999747
21
-121.1546589999999952
0
LINE
8
BLACK
6
CONTINUOUS
10
251.6180479999999875
20
-120.3575009999999992
11
253.2069520000000011
21
-120.3575009999999992
0
LINE
8
BLACK
6
CONTINUOUS
10
253.2069520000000011
20
-123.3574999999999875
11
251.6180479999999875
21
-123.3574999999999875
0
LINE
8
BLACK
6
CONTINUOUS
10
254.1124989999999855
20
-121.1546589999999952
11
254.1124989999999855
21
-122.5603429999999889
0
ARC
8
BLACK
10
250.2125109999999779
20
-121.1546570000000003
40
0.4999899543000839
50
-0.00022919
51
25.70646243
0
ARC
8
BLACK
10
251.1135299999999972
20
-120.7209019999999953
40
0.4999997985959594
50
-300.29939530
51
-154.29357192
0
ARC
8
BLACK
10
250.2125109999999779
20
-122.5603449999999981
40
0.499990000001
50
-25.70646243
51
0.00011459
0
ARC
8
BLACK
10
251.1135309999999947
20
-122.9940989999999914
40
0.499998988562977
50
-205.70617187
51
-59.70070364
0
ARC
8
BLACK
10
251.6180569999999932
20
-123.8575359999999961
40
0.5000359796984613
50
90.00103125
51
120.29814673
0
ARC
8
BLACK
10
251.6180499999999824
20
-119.8574919999999935
40
0.5000090000039998
50
-120.29901505
51
-90.00022918
0
ARC
8
BLACK
10
253.2069499999999778
20
-123.8575099999999907
40
0.5000090000089998
50
59.70098495
51
89.99965623
0
ARC
8
BLACK
10
253.2069499999999778
20
-119.8574899999999985
40
0.5000103584367028
50
-89.99977082
51
-59.70119951
0
ARC
8
BLACK
10
253.7114699999999914
20
-120.7209000000000003
40
0.4999960394813143
50
-25.70653133
51
120.29962656
0
ARC
8
BLACK
10
254.6128799999999899
20
-121.1547499999999928
40
0.5003820084575383
50
154.30336256
51
179.98946562
0
ARC
8
BLACK
10
253.7114699999999914
20
-122.9940999999999889
40
0.4999993648365966
50
-120.29939530
51
25.70632483
0
ARC
8
BLACK
10
254.6124999999999829
20
-122.5604000000000013
40
0.4999760117215625
50
-180.00653171
51
-154.29976339
0
LINE
8
BLACK
6
CONTINUOUS
10
303.1000009999999634
20
-87.3178429999999963
11
303.1000009999999634
21
-85.9121590000000026
0
LINE
8
BLACK
6
CONTINUOUS
10
304.0055479999999761
20
-85.1150009999999924
11
305.5944519999999898
21
-85.1150009999999924
0
LINE
8
BLACK
6
CONTINUOUS
10
305.5944519999999898
20
-88.1149999999999949
11
304.0055469999999787
21
-88.1149999999999949
0
LINE
8
BLACK
6
CONTINUOUS
10
306.4999990000000025
20
-85.9121590000000026
11
306.4999990000000025
21
-87.3178429999999963
0
ARC
8
BLACK
10
302.600010999999995
20
-85.9121569999999934
40
0.4999899543000839
50
-0.00022919
51
25.70646243
0
ARC
8
BLACK
10
303.5010300000000143
20
-85.4784020000000027
40
0.4999997985959594
50
-300.29939530
51
-154.29357192
0
ARC
8
BLACK
10
302.600010999999995
20
-87.3178449999999913
40
0.499990000001
50
-25.70646243
51
0.00011459
0
ARC
8
BLACK
10
303.5010310000000118
20
-87.7515989999999988
40
0.499998988562977
50
-205.70617187
51
-59.70070364
0
ARC
8
BLACK
10
304.0055499999999711
20
-88.6150090000000006
40
0.500009136137531
50
90.00034377
51
120.29901505
0
ARC
8
BLACK
10
304.0055499999999711
20
-84.6149920000000009
40
0.5000090000039998
50
-120.29901505
51
-90.00022918
0
ARC
8
BLACK
10
305.5944499999999948
20
-88.6150099999999981
40
0.5000090000089998
50
59.70098495
51
89.99965623
0
ARC
8
BLACK
10
305.5944499999999948
20
-84.6149899999999917
40
0.5000103584367028
50
-89.99977082
51
-59.70119951
0
ARC
8
BLACK
10
306.0989700000000084
20
-85.4783999999999935
40
0.4999960394813143
50
-25.70653133
51
120.29962656
0
ARC
8
BLACK
10
307.0003600000000006
20
-85.9122399999999971
40
0.5003610067191487
50
154.30340137
51
179.99061027
0
ARC
8
BLACK
10
306.0989700000000084
20
-87.7515999999999963
40
0.4999993648365966
50
-120.29939530
51
25.70632483
0
ARC
8
BLACK
10
307.
20
-87.3178999999999945
40
0.4999760117215625
50
-180.00653171
51
-154.29976339
0
LINE
8
BLACK
6
CONTINUOUS
10
155.7746719999999812
20
-131.096006999999986
11
156.4775139999999851
21
-129.8786489999999958
0
LINE
8
BLACK
6
CONTINUOUS
10
157.5363509999999962
20
-133.0335910000000013
11
156.1603199999999845
21
-132.2391389999999944
0
LINE
8
BLACK
6
CONTINUOUS
10
157.660318999999987
20
-129.6410640000000001
11
159.0363519999999937
21
-130.4355160000000069
0
LINE
8
BLACK
6
CONTINUOUS
10
159.4219989999999996
20
-131.578647999999987
11
158.7191569999999956
21
-132.7960060000000055
0
ARC
8
BLACK
10
155.3413960000000031
20
-130.8457609999999818
40
0.5003506636689912
50
-55.69708625
51
-30.00947686
0
ARC
8
BLACK
10
155.9050939999999912
20
-131.6721670000000017
40
0.4999968383150037
50
-235.70650842
51
-89.70033981
0
ARC
8
BLACK
10
155.910302999999999
20
-132.6722239999999999
40
0.500071727916106
50
60.00245496
51
90.29720920
0
ARC
8
BLACK
10
156.0446159999999907
20
-129.6286489999999958
40
0.4998856704777603
50
-30.00657324
51
-4.29473673
0
ARC
8
BLACK
10
157.0416940000000068
20
-129.703519
40
0.499999350440578
50
29.70062096
51
175.70624156
0
ARC
8
BLACK
10
157.2863629999999944
20
-133.4665959999999814
40
0.4999873300084713
50
29.70054874
51
60.00074960
0
ARC
8
BLACK
10
157.9103259999999977
20
-129.208044000000001
40
0.50000895432982
50
-150.29902294
51
-120.00033381
0
ARC
8
BLACK
10
159.1521599999999808
20
-133.0460019999999872
40
0.4999901510959991
50
149.99984108
51
175.70650716
0
ARC
8
BLACK
10
158.1549779999999998
20
-132.9711379999999963
40
0.4999990509760993
50
-150.29967765
51
-4.29330136
0
ARC
8
BLACK
10
159.2863499999999988
20
-130.0025169999999832
40
0.4999868279954983
50
-120.00058660
51
-89.70056300
0
ARC
8
BLACK
10
159.2915749999999946
20
-131.0024889999999971
40
0.4999988226066137
50
-55.70618995
51
90.29931522
0
ARC
8
BLACK
10
159.8550039999999797
20
-131.8286410000000046
40
0.4999903299674904
50
124.29353474
51
150.00015415
0
LINE
8
BLACK
6
CONTINUOUS
10
229.7511889999999823
20
-131.5065840000000037
11
229.3873710000000017
21
-130.1487979999999993
0
LINE
8
BLACK
6
CONTINUOUS
10
230.0557429999999783
20
-129.1444299999999998
11
231.5905059999999764
21
-128.733191000000005
0
LINE
8
BLACK
6
CONTINUOUS
10
232.3669629999999984
20
-131.6309669999999983
11
230.8321990000000028
21
-132.0422069999999906
0
LINE
8
BLACK
6
CONTINUOUS
10
232.6715169999999944
20
-129.2688139999999919
11
233.0353350000000034
21
-130.6265999999999963
0
ARC
8
BLACK
10
228.9044019999999762
20
-130.2782090000000039
40
0.5000064500513969
50
14.99998301
51
40.70598450
0
ARC
8
BLACK
10
229.6624699999999848
20
-129.6260269999999934
40
0.4999983231191881
50
-285.29960159
51
-139.29351663
0
ARC
8
BLACK
10
229.2682360000000017
20
-131.6359929999999849
40
0.4999900305736105
50
-10.70645854
51
15.00012548
0
ARC
8
BLACK
10
229.9263309999999763
20
-128.6614459999999838
40
0.5000210095585984
50
-105.29835354
51
-75.00035117
0
ARC
8
BLACK
10
230.2508189999999786
20
-131.8217659999999967
40
0.4999984886347157
50
-190.70615435
51
-44.70075960
0
ARC
8
BLACK
10
230.9615999999999758
20
-132.5251590000000022
40
0.4999871824687109
50
104.99938032
51
135.29940923
0
ARC
8
BLACK
10
231.4610919999999794
20
-128.2502179999999896
40
0.5000104908339424
50
-74.99980357
51
-44.70117192
0
ARC
8
BLACK
10
232.1718879999999956
20
-128.9536290000000065
40
0.4999963858209377
50
-10.70649214
51
135.29964681
0
ARC
8
BLACK
10
232.4963729999999771
20
-132.1139409999999828
40
0.5000096079176879
50
74.70095207
51
104.99964301
0
ARC
8
BLACK
10
233.1548090000000002
20
-129.1393899999999917
40
0.5003211082374999
50
-190.69757976
51
-165.00837375
0
ARC
8
BLACK
10
232.7602349999999944
20
-131.1493710000000021
40
0.4999998392419742
50
-105.29935029
51
40.70633390
0
ARC
8
BLACK
10
233.5182879999999841
20
-130.4971490000000074
40
0.5000191052799883
50
-164.99511499
51
-139.28951894
0
LINE
8
BLACK
6
CONTINUOUS
10
265.0000009999999975
20
-100.6528429999999901
11
265.0000009999999975
21
-99.2471589999999964
0
LINE
8
BLACK
6
CONTINUOUS
10
265.9055480000000102
20
-98.4500010000000003
11
267.494451999999967
21
-98.4500010000000003
0
LINE
8
BLACK
6
CONTINUOUS
10
267.494451999999967
20
-101.4499999999999886
11
265.9055470000000128
21
-101.4499999999999886
0
LINE
8
BLACK
6
CONTINUOUS
10
268.3999989999999798
20
-99.2471589999999964
11
268.3999989999999798
21
-100.6528429999999901
0
ARC
8
BLACK
10
264.5000109999999722
20
-99.2471570000000014
40
0.4999899543000839
50
-0.00022919
51
25.70646243
0
ARC
8
BLACK
10
265.4010299999999916
20
-98.8134019999999964
40
0.4999997985959594
50
-300.29939530
51
-154.29357192
0
ARC
8
BLACK
10
264.5000109999999722
20
-100.6528449999999992
40
0.499990000001
50
-25.70646243
51
0.00011459
0
ARC
8
BLACK
10
265.401030999999989
20
-101.0865989999999925
40
0.499998988562977
50
-205.70617187
51
-59.70070364
0
ARC
8
BLACK
10
265.9055500000000052
20
-101.9500089999999943
40
0.500009136137531
50
90.00034377
51
120.29901505
0
ARC
8
BLACK
10
265.9055500000000052
20
-97.9499919999999946
40
0.5000090000039998
50
-120.29901505
51
-90.00022918
0
ARC
8
BLACK
10
267.4944499999999721
20
-101.9500099999999918
40
0.5000090000089998
50
59.70098495
51
89.99965623
0
ARC
8
BLACK
10
267.4944499999999721
20
-97.9499899999999997
40
0.5000103584367028
50
-89.99977082
51
-59.70119951
0
ARC
8
BLACK
10
267.9989699999999857
20
-98.8134000000000015
40
0.4999960394813143
50
-25.70653133
51
120.29962656
0
ARC
8
BLACK
10
268.9003599999999778
20
-99.2472399999999908
40
0.5003610067191487
50
154.30340137
51
179.99061027
0
ARC
8
BLACK
10
267.9989699999999857
20
-101.08659999999999
40
0.4999993648365966
50
-120.29939530
51
25.70632483
0
ARC
8
BLACK
10
268.8999999999999773
20
-100.6529000000000025
40
0.4999760117215625
50
-180.00653171
51
-154.29976339
0
LINE
8
BLACK
6
CONTINUOUS
10
112.6000009999999918
20
-36.9603409999999997
11
112.6000009999999918
21
-35.5546569999999988
0
LINE
8
BLACK
6
CONTINUOUS
10
113.5055479999999903
20
-34.7575000000000003
11
115.0944530000000015
21
-34.7575000000000003
0
LINE
8
BLACK
6
CONTINUOUS
10
115.0944519999999898
20
-37.7574989999999957
11
113.5055479999999903
21
-37.7574989999999957
0
LINE
8
BLACK
6
CONTINUOUS
10
115.9999989999999883
20
-35.5546569999999988
11
115.9999989999999883
21
-36.9603409999999997
0
ARC
8
BLACK
10
112.0999999999999943
20
-35.5546000000000006
40
0.4999760117215625
50
-0.00653171
51
25.70023661
0
ARC
8
BLACK
10
113.0010300000000001
20
-35.1208999999999989
40
0.4999993648365966
50
-300.29939530
51
-154.29367517
0
ARC
8
BLACK
10
112.0996399999999937
20
-36.9602599999999981
40
0.5003610067191487
50
-25.69659863
51
-0.00938973
0
ARC
8
BLACK
10
113.0010300000000001
20
-37.3941000000000017
40
0.4999960394813143
50
-205.70653133
51
-59.70037344
0
ARC
8
BLACK
10
113.5055499999999995
20
-38.2575099999999964
40
0.5000103584367028
50
90.00022918
51
120.29880049
0
ARC
8
BLACK
10
113.5055499999999995
20
-34.2574899999999971
40
0.5000090000089998
50
-120.29901505
51
-90.00034377
0
ARC
8
BLACK
10
115.0944499999999948
20
-38.2575080000000014
40
0.5000090000039998
50
59.70098495
51
89.99977082
0
ARC
8
BLACK
10
115.0944499999999948
20
-34.2574910000000017
40
0.500009136137531
50
-89.99965623
51
-59.70098495
0
ARC
8
BLACK
10
115.5989689999999968
20
-35.1209009999999964
40
0.499998988562977
50
-25.70617187
51
120.29929636
0
ARC
8
BLACK
10
116.4999889999999994
20
-35.5546549999999968
40
0.499990000001
50
-205.70646243
51
-179.99988541
0
ARC
8
BLACK
10
115.5989699999999942
20
-37.3940979999999996
40
0.4999997985959594
50
-120.29939530
51
25.70642808
0
ARC
8
BLACK
10
116.4999889999999994
20
-36.9603430000000017
40
0.4999899543000839
50
-180.00022919
51
-154.29353757
0
LINE
8
BLACK
6
CONTINUOUS
10
36.4000009999999961
20
-63.6303409999999943
11
36.4000009999999961
21
-62.2246570000000006
0
LINE
8
BLACK
6
CONTINUOUS
10
37.3055480000000017
20
-61.4274999999999949
11
38.8944529999999986
21
-61.4274999999999949
0
LINE
8
BLACK
6
CONTINUOUS
10
38.8944520000000011
20
-64.4274989999999974
11
37.3055480000000017
21
-64.4274989999999974
0
LINE
8
BLACK
6
CONTINUOUS
10
39.7999989999999997
20
-62.2246570000000006
11
39.7999989999999997
21
-63.6303409999999943
0
ARC
8
BLACK
10
35.8999999999999986
20
-62.2245999999999952
40
0.4999760117215625
50
-0.00653171
51
25.70023661
0
ARC
8
BLACK
10
36.8010299999999972
20
-61.7909000000000006
40
0.4999993648365966
50
-300.29939530
51
-154.29367517
0
ARC
8
BLACK
10
35.899639999999998
20
-63.6302599999999998
40
0.5003610067191487
50
-25.69659863
51
-0.00938973
0
ARC
8
BLACK
10
36.8010299999999972
20
-64.0640999999999963
40
0.4999960394813143
50
-205.70653133
51
-59.70037344
0
ARC
8
BLACK
10
37.3055499999999967
20
-64.9275099999999981
40
0.5000103584367028
50
90.00022918
51
120.29880049
0
ARC
8
BLACK
10
37.3055499999999967
20
-60.9274899999999988
40
0.5000090000089998
50
-120.29901505
51
-90.00034377
0
ARC
8
BLACK
10
38.8944499999999991
20
-64.9275080000000031
40
0.5000090000039998
50
59.70098495
51
89.99977082
0
ARC
8
BLACK
10
38.8944499999999991
20
-60.9274909999999963
40
0.500009136137531
50
-89.99965623
51
-59.70098495
0
ARC
8
BLACK
10
39.398969000000001
20
-61.7909009999999981
40
0.499998988562977
50
-25.70617187
51
120.29929636
0
ARC
8
BLACK
10
40.2999889999999965
20
-62.2246549999999985
40
0.499990000001
50
-205.70646243
51
-179.99988541
0
ARC
8
BLACK
10
39.3989699999999985
20
-64.0640980000000013
40
0.4999997985959594
50
-120.29939530
51
25.70642808
0
ARC
8
BLACK
10
40.2999889999999965
20
-63.6303429999999963
40
0.4999899543000839
50
-180.00022919
51
-154.29353757
0
LINE
8
BLACK
6
CONTINUOUS
10
245.9500009999999861
20
-65.4103429999999975
11
245.9500009999999861
21
-64.0046590000000037
0
LINE
8
BLACK
6
CONTINUOUS
10
246.8555479999999989
20
-63.2075010000000006
11
248.4444519999999841
21
-63.2075010000000006
0
LINE
8
BLACK
6
CONTINUOUS
10
248.4444519999999841
20
-66.207499999999996
11
246.8555470000000014
21
-66.207499999999996
0
LINE
8
BLACK
6
CONTINUOUS
10
249.3499989999999968
20
-64.0046590000000037
11
249.3499989999999968
21
-65.4103429999999975
0
ARC
8
BLACK
10
245.4500109999999893
20
-64.0046569999999946
40
0.4999899543000839
50
-0.00022919
51
25.70646243
0
ARC
8
BLACK
10
246.3510299999999802
20
-63.5709019999999967
40
0.4999997985959594
50
-300.29939530
51
-154.29357192
0
ARC
8
BLACK
10
245.4500109999999893
20
-65.4103449999999924
40
0.499990000001
50
-25.70646243
51
0.00011459
0
ARC
8
BLACK
10
246.3510309999999777
20
-65.8440989999999999
40
0.499998988562977
50
-205.70617187
51
-59.70070364
0
ARC
8
BLACK
10
246.8555499999999938
20
-66.7075090000000017
40
0.500009136137531
50
90.00034377
51
120.29901505
0
ARC
8
BLACK
10
246.8555499999999938
20
-62.7074919999999949
40
0.5000090000039998
50
-120.29901505
51
-90.00022918
0
ARC
8
BLACK
10
248.4444499999999891
20
-66.7075099999999992
40
0.5000090000089998
50
59.70098495
51
89.99965623
0
ARC
8
BLACK
10
248.4444499999999891
20
-62.70749
40
0.5000103584367028
50
-89.99977082
51
-59.70119951
0
ARC
8
BLACK
10
248.9489700000000028
20
-63.5708999999999946
40
0.4999960394813143
50
-25.70653133
51
120.29962656
0
ARC
8
BLACK
10
249.8503599999999949
20
-64.0047399999999982
40
0.5003610067191487
50
154.30340137
51
179.99061027
0
ARC
8
BLACK
10
248.9489700000000028
20
-65.8440999999999974
40
0.4999993648365966
50
-120.29939530
51
25.70632483
0
ARC
8
BLACK
10
249.8499999999999943
20
-65.4103999999999957
40
0.4999760117215625
50
-180.00653171
51
-154.29976339
0
LINE
8
BLACK
6
CONTINUOUS
10
36.4000009999999961
20
-44.5803409999999971
11
36.4000009999999961
21
-43.1746569999999963
0
LINE
8
BLACK
6
CONTINUOUS
10
37.3055480000000017
20
-42.3774999999999977
11
38.8944529999999986
21
-42.3774999999999977
0
LINE
8
BLACK
6
CONTINUOUS
10
38.8944520000000011
20
-45.3774990000000003
11
37.3055480000000017
21
-45.3774990000000003
0
LINE
8
BLACK
6
CONTINUOUS
10
39.7999989999999997
20
-43.1746569999999963
11
39.7999989999999997
21
-44.5803409999999971
0
ARC
8
BLACK
10
35.8999999999999986
20
-43.1745999999999981
40
0.4999760117215625
50
-0.00653171
51
25.70023661
0
ARC
8
BLACK
10
36.8010299999999972
20
-42.7408999999999963
40
0.4999993648365966
50
-300.29939530
51
-154.29367517
0
ARC
8
BLACK
10
35.899639999999998
20
-44.5802599999999956
40
0.5003610067191487
50
-25.69659863
51
-0.00938973
0
ARC
8
BLACK
10
36.8010299999999972
20
-45.0140999999999991
40
0.4999960394813143
50
-205.70653133
51
-59.70037344
0
ARC
8
BLACK
10
37.3055499999999967
20
-45.8775100000000009
40
0.5000103584367028
50
90.00022918
51
120.29880049
0
ARC
8
BLACK
10
37.3055499999999967
20
-41.8774900000000017
40
0.5000090000089998
50
-120.29901505
51
-90.00034377
0
ARC
8
BLACK
10
38.8944499999999991
20
-45.8775079999999988
40
0.5000090000039998
50
59.70098495
51
89.99977082
0
ARC
8
BLACK
10
38.8944499999999991
20
-41.8774909999999991
40
0.500009136137531
50
-89.99965623
51
-59.70098495
0
ARC
8
BLACK
10
39.398969000000001
20
-42.7409010000000009
40
0.499998988562977
50
-25.70617187
51
120.29929636
0
ARC
8
BLACK
10
40.2999889999999965
20
-43.1746550000000013
40
0.499990000001
50
-205.70646243
51
-179.99988541
0
ARC
8
BLACK
10
39.3989699999999985
20
-45.0140979999999971
40
0.4999997985959594
50
-120.29939530
51
25.70642808
0
ARC
8
BLACK
10
40.2999889999999965
20
-44.5803429999999992
40
0.4999899543000839
50
-180.00022919
51
-154.29353757
0
LINE
8
BLACK
6
CONTINUOUS
10
55.4500010000000003
20
-77.9178409999999957
11
55.4500010000000003
21
-76.512157000000002
0
LINE
8
BLACK
6
CONTINUOUS
10
56.3555479999999989
20
-75.7150000000000034
11
57.9444529999999958
21
-75.7150000000000034
0
LINE
8
BLACK
6
CONTINUOUS
10
57.9444519999999983
20
-78.7149989999999917
11
56.3555479999999989
21
-78.7149989999999917
0
LINE
8
BLACK
6
CONTINUOUS
10
58.8499989999999968
20
-76.512157000000002
11
58.8499989999999968
21
-77.9178409999999957
0
ARC
8
BLACK
10
54.9499999999999957
20
-76.5120999999999896
40
0.4999760117215625
50
-0.00653171
51
25.70023661
0
ARC
8
BLACK
10
55.8510299999999944
20
-76.078400000000002
40
0.4999993648365966
50
-300.29939530
51
-154.29367517
0
ARC
8
BLACK
10
54.9496399999999952
20
-77.9177600000000012
40
0.5003610067191487
50
-25.69659863
51
-0.00938973
0
ARC
8
BLACK
10
55.8510299999999944
20
-78.3515999999999906
40
0.4999960394813143
50
-205.70653133
51
-59.70037344
0
ARC
8
BLACK
10
56.3555500000000009
20
-79.2150099999999924
40
0.5000103584367028
50
90.00022918
51
120.29880049
0
ARC
8
BLACK
10
56.3555500000000009
20
-75.2149900000000002
40
0.5000090000089998
50
-120.29901505
51
-90.00034377
0
ARC
8
BLACK
10
57.9444499999999962
20
-79.2150079999999974
40
0.5000090000039998
50
59.70098495
51
89.99977082
0
ARC
8
BLACK
10
57.9444499999999962
20
-75.2149909999999977
40
0.500009136137531
50
-89.99965623
51
-59.70098495
0
ARC
8
BLACK
10
58.4489689999999982
20
-76.0784009999999995
40
0.499998988562977
50
-25.70617187
51
120.29929636
0
ARC
8
BLACK
10
59.3499890000000008
20
-76.5121549999999928
40
0.499990000001
50
-205.70646243
51
-179.99988541
0
ARC
8
BLACK
10
58.4489699999999957
20
-78.3515979999999956
40
0.4999997985959594
50
-120.29939530
51
25.70642808
0
ARC
8
BLACK
10
59.3499890000000008
20
-77.9178429999999906
40
0.4999899543000839
50
-180.00022919
51
-154.29353757
0
LINE
8
BLACK
6
CONTINUOUS
10
265.0000009999999975
20
-62.5528429999999958
11
265.0000009999999975
21
-61.1471589999999949
0
LINE
8
BLACK
6
CONTINUOUS
10
265.9055480000000102
20
-60.3500009999999989
11
267.494451999999967
21
-60.3500009999999989
0
LINE
8
BLACK
6
CONTINUOUS
10
267.494451999999967
20
-63.3499999999999943
11
265.9055470000000128
21
-63.3499999999999943
0
LINE
8
BLACK
6
CONTINUOUS
10
268.3999989999999798
20
-61.1471589999999949
11
268.3999989999999798
21
-62.5528429999999958
0
ARC
8
BLACK
10
264.5000109999999722
20
-61.147157
40
0.4999899543000839
50
-0.00022919
51
25.70646243
0
ARC
8
BLACK
10
265.4010299999999916
20
-60.713401999999995
40
0.4999997985959594
50
-300.29939530
51
-154.29357192
0
ARC
8
BLACK
10
264.5000109999999722
20
-62.5528449999999978
40
0.499990000001
50
-25.70646243
51
0.00011459
0
ARC
8
BLACK
10
265.401030999999989
20
-62.9865989999999982
40
0.499998988562977
50
-205.70617187
51
-59.70070364
0
ARC
8
BLACK
10
265.9055500000000052
20
-63.850009
40
0.500009136137531
50
90.00034377
51
120.29901505
0
ARC
8
BLACK
10
265.9055500000000052
20
-59.8499920000000003
40
0.5000090000039998
50
-120.29901505
51
-90.00022918
0
ARC
8
BLACK
10
267.4944499999999721
20
-63.8500099999999975
40
0.5000090000089998
50
59.70098495
51
89.99965623
0
ARC
8
BLACK
10
267.4944499999999721
20
-59.8499899999999982
40
0.5000103584367028
50
-89.99977082
51
-59.70119951
0
ARC
8
BLACK
10
267.9989699999999857
20
-60.7134
40
0.4999960394813143
50
-25.70653133
51
120.29962656
0
ARC
8
BLACK
10
268.9003599999999778
20
-61.1472399999999965
40
0.5003610067191487
50
154.30340137
51
179.99061027
0
ARC
8
BLACK
10
267.9989699999999857
20
-62.9865999999999957
40
0.4999993648365966
50
-120.29939530
51
25.70632483
0
ARC
8
BLACK
10
268.8999999999999773
20
-62.552899999999994
40
0.4999760117215625
50
-180.00653171
51
-154.29976339
0
LINE
8
BLACK
6
CONTINUOUS
10
112.6000009999999918
20
-75.060340999999994
11
112.6000009999999918
21
-73.6546570000000003
0
LINE
8
BLACK
6
CONTINUOUS
10
113.5055479999999903
20
-72.8575000000000017
11
115.0944530000000015
21
-72.8575000000000017
0
LINE
8
BLACK
6
CONTINUOUS
10
115.0944519999999898
20
-75.85749899999999
11
113.5055479999999903
21
-75.85749899999999
0
LINE
8
BLACK
6
CONTINUOUS
10
115.9999989999999883
20
-73.6546570000000003
11
115.9999989999999883
21
-75.060340999999994
0
ARC
8
BLACK
10
112.0999999999999943
20
-73.6546000000000021
40
0.4999760117215625
50
-0.00653171
51
25.70023661
0
ARC
8
BLACK
10
113.0010300000000001
20
-73.2209000000000003
40
0.4999993648365966
50
-300.29939530
51
-154.29367517
0
ARC
8
BLACK
10
112.0996399999999937
20
-75.0602599999999995
40
0.5003610067191487
50
-25.69659863
51
-0.00938973
0
ARC
8
BLACK
10
113.0010300000000001
20
-75.4941000000000031
40
0.4999960394813143
50
-205.70653133
51
-59.70037344
0
ARC
8
BLACK
10
113.5055499999999995
20
-76.3575099999999907
40
0.5000103584367028
50
90.00022918
51
120.29880049
0
ARC
8
BLACK
10
113.5055499999999995
20
-72.3574899999999985
40
0.5000090000089998
50
-120.29901505
51
-90.00034377
0
ARC
8
BLACK
10
115.0944499999999948
20
-76.3575079999999957
40
0.5000090000039998
50
59.70098495
51
89.99977082
0
ARC
8
BLACK
10
115.0944499999999948
20
-72.357490999999996
40
0.500009136137531
50
-89.99965623
51
-59.70098495
0
ARC
8
BLACK
10
115.5989689999999968
20
-73.2209009999999978
40
0.499998988562977
50
-25.70617187
51
120.29929636
0
ARC
8
BLACK
10
116.4999889999999994
20
-73.6546549999999911
40
0.499990000001
50
-205.70646243
51
-179.99988541
0
ARC
8
BLACK
10
115.5989699999999942
20
-75.4940979999999939
40
0.4999997985959594
50
-120.29939530
51
25.70642808
0
ARC
8
BLACK
10
116.4999889999999994
20
-75.0603430000000031
40
0.4999899543000839
50
-180.00022919
51
-154.29353757
0
LINE
8
BLACK
6
CONTINUOUS
10
131.6500010000000032
20
-77.9178409999999957
11
131.6500010000000032
21
-76.512157000000002
0
LINE
8
BLACK
6
CONTINUOUS
10
132.5555479999999875
20
-75.7150000000000034
11
134.1444529999999986
21
-75.7150000000000034
0
LINE
8
BLACK
6
CONTINUOUS
10
134.1444520000000011
20
-78.7149989999999917
11
132.5555479999999875
21
-78.7149989999999917
0
LINE
8
BLACK
6
CONTINUOUS
10
135.0499989999999855
20
-76.512157000000002
11
135.0499989999999855
21
-77.9178409999999957
0
ARC
8
BLACK
10
131.1500000000000057
20
-76.5120999999999896
40
0.4999760117215625
50
-0.00653171
51
25.70023661
0
ARC
8
BLACK
10
132.0510299999999972
20
-76.078400000000002
40
0.4999993648365966
50
-300.29939530
51
-154.29367517
0
ARC
8
BLACK
10
131.1496400000000051
20
-77.9177600000000012
40
0.5003610067191487
50
-25.69659863
51
-0.00938973
0
ARC
8
BLACK
10
132.0510299999999972
20
-78.3515999999999906
40
0.4999960394813143
50
-205.70653133
51
-59.70037344
0
ARC
8
BLACK
10
132.5555499999999824
20
-79.2150099999999924
40
0.5000103584367028
50
90.00022918
51
120.29880049
0
ARC
8
BLACK
10
132.5555499999999824
20
-75.2149900000000002
40
0.5000090000089998
50
-120.29901505
51
-90.00034377
0
ARC
8
BLACK
10
134.1444500000000062
20
-79.2150079999999974
40
0.5000090000039998
50
59.70098495
51
89.99977082
0
ARC
8
BLACK
10
134.1444500000000062
20
-75.2149909999999977
40
0.500009136137531
50
-89.99965623
51
-59.70098495
0
ARC
8
BLACK
10
134.6489689999999939
20
-76.0784009999999995
40
0.499998988562977
50
-25.70617187
51
120.29929636
0
ARC
8
BLACK
10
135.5499889999999823
20
-76.5121549999999928
40
0.499990000001
50
-205.70646243
51
-179.99988541
0
ARC
8
BLACK
10
134.6489699999999914
20
-78.3515979999999956
40
0.4999997985959594
50
-120.29939530
51
25.70642808
0
ARC
8
BLACK
10
135.5499889999999823
20
-77.9178429999999906
40
0.4999899543000839
50
-180.00022919
51
-154.29353757
0
LINE
8
BLACK
6
CONTINUOUS
10
245.9500009999999861
20
-103.5103429999999918
11
245.9500009999999861
21
-102.1046589999999981
0
LINE
8
BLACK
6
CONTINUOUS
10
246.8555479999999989
20
-101.307501000000002
11
248.4444519999999841
21
-101.307501000000002
0
LINE
8
BLACK
6
CONTINUOUS
10
248.4444519999999841
20
-104.3074999999999903
11
246.8555470000000014
21
-104.3074999999999903
0
LINE
8
BLACK
6
CONTINUOUS
10
249.3499989999999968
20
-102.1046589999999981
11
249.3499989999999968
21
-103.5103429999999918
0
ARC
8
BLACK
10
245.4500109999999893
20
-102.1046569999999889
40
0.4999899543000839
50
-0.00022919
51
25.70646243
0
ARC
8
BLACK
10
246.3510299999999802
20
-101.6709019999999981
40
0.4999997985959594
50
-300.29939530
51
-154.29357192
0
ARC
8
BLACK
10
245.4500109999999893
20
-103.5103450000000009
40
0.499990000001
50
-25.70646243
51
0.00011459
0
ARC
8
BLACK
10
246.3510309999999777
20
-103.9440989999999942
40
0.499998988562977
50
-205.70617187
51
-59.70070364
0
ARC
8
BLACK
10
246.8555499999999938
20
-104.807508999999996
40
0.500009136137531
50
90.00034377
51
120.29901505
0
ARC
8
BLACK
10
246.8555499999999938
20
-100.8074919999999963
40
0.5000090000039998
50
-120.29901505
51
-90.00022918
0
ARC
8
BLACK
10
248.4444499999999891
20
-104.8075099999999935
40
0.5000090000089998
50
59.70098495
51
89.99965623
0
ARC
8
BLACK
10
248.4444499999999891
20
-100.8074900000000014
40
0.5000103584367028
50
-89.99977082
51
-59.70119951
0
ARC
8
BLACK
10
248.9489700000000028
20
-101.6708999999999889
40
0.4999960394813143
50
-25.70653133
51
120.29962656
0
ARC
8
BLACK
10
249.8503599999999949
20
-102.1047399999999925
40
0.5003610067191487
50
154.30340137
51
179.99061027
0
ARC
8
BLACK
10
248.9489700000000028
20
-103.9440999999999917
40
0.4999993648365966
50
-120.29939530
51
25.70632483
0
ARC
8
BLACK
10
249.8499999999999943
20
-103.51039999999999
40
0.4999760117215625
50
-180.00653171
51
-154.29976339
0
LINE
8
BLACK
6
CONTINUOUS
10
303.1000009999999634
20
-49.2178429999999949
11
303.1000009999999634
21
-47.8121590000000012
0
LINE
8
BLACK
6
CONTINUOUS
10
304.0055479999999761
20
-47.015000999999998
11
305.5944519999999898
21
-47.015000999999998
0
LINE
8
BLACK
6
CONTINUOUS
10
305.5944519999999898
20
-50.0150000000000006
11
304.0055469999999787
21
-50.0150000000000006
0
LINE
8
BLACK
6
CONTINUOUS
10
306.4999990000000025
20
-47.8121590000000012
11
306.4999990000000025
21
-49.2178429999999949
0
ARC
8
BLACK
10
302.600010999999995
20
-47.8121569999999991
40
0.4999899543000839
50
-0.00022919
51
25.70646243
0
ARC
8
BLACK
10
303.5010300000000143
20
-47.3784020000000012
40
0.4999997985959594
50
-300.29939530
51
-154.29357192
0
ARC
8
BLACK
10
302.600010999999995
20
-49.217844999999997
40
0.499990000001
50
-25.70646243
51
0.00011459
0
ARC
8
BLACK
10
303.5010310000000118
20
-49.6515989999999974
40
0.499998988562977
50
-205.70617187
51
-59.70070364
0
ARC
8
BLACK
10
304.0055499999999711
20
-50.5150089999999992
40
0.500009136137531
50
90.00034377
51
120.29901505
0
ARC
8
BLACK
10
304.0055499999999711
20
-46.5149919999999995
40
0.5000090000039998
50
-120.29901505
51
-90.00022918
0
ARC
8
BLACK
10
305.5944499999999948
20
-50.5150099999999966
40
0.5000090000089998
50
59.70098495
51
89.99965623
0
ARC
8
BLACK
10
305.5944499999999948
20
-46.5149899999999974
40
0.5000103584367028
50
-89.99977082
51
-59.70119951
0
ARC
8
BLACK
10
306.0989700000000084
20
-47.3783999999999992
40
0.4999960394813143
50
-25.70653133
51
120.29962656
0
ARC
8
BLACK
10
307.0003600000000006
20
-47.8122399999999956
40
0.5003610067191487
50
154.30340137
51
179.99061027
0
ARC
8
BLACK
10
306.0989700000000084
20
-49.6515999999999948
40
0.4999993648365966
50
-120.29939530
51
25.70632483
0
ARC
8
BLACK
10
307.
20
-49.2179000000000002
40
0.4999760117215625
50
-180.00653171
51
-154.29976339
0
LINE
8
BLACK
6
CONTINUOUS
10
322.1500009999999747
20
-73.030343000000002
11
322.1500009999999747
21
-71.6246589999999941
0
LINE
8
BLACK
6
CONTINUOUS
10
323.0555479999999875
20
-70.827500999999998
11
324.6444520000000011
21
-70.827500999999998
0
LINE
8
BLACK
6
CONTINUOUS
10
324.6444520000000011
20
-73.8275000000000006
11
323.05554699999999
21
-73.8275000000000006
0
LINE
8
BLACK
6
CONTINUOUS
10
325.5499989999999571
20
-71.6246589999999941
11
325.5499989999999571
21
-73.030343000000002
0
ARC
8
BLACK
10
321.6500110000000063
20
-71.6246569999999991
40
0.4999899543000839
50
-0.00022919
51
25.70646243
0
ARC
8
BLACK
10
322.5510299999999688
20
-71.1909019999999941
40
0.4999997985959594
50
-300.29939530
51
-154.29357192
0
ARC
8
BLACK
10
321.6500110000000063
20
-73.030344999999997
40
0.499990000001
50
-25.70646243
51
0.00011459
0
ARC
8
BLACK
10
322.5510309999999663
20
-73.4640989999999903
40
0.499998988562977
50
-205.70617187
51
-59.70070364
0
ARC
8
BLACK
10
323.0555499999999824
20
-74.3275089999999921
40
0.500009136137531
50
90.00034377
51
120.29901505
0
ARC
8
BLACK
10
323.0555499999999824
20
-70.3274919999999923
40
0.5000090000039998
50
-120.29901505
51
-90.00022918
0
ARC
8
BLACK
10
324.6444500000000062
20
-74.3275099999999895
40
0.5000090000089998
50
59.70098495
51
89.99965623
0
ARC
8
BLACK
10
324.6444500000000062
20
-70.3274899999999974
40
0.5000103584367028
50
-89.99977082
51
-59.70119951
0
ARC
8
BLACK
10
325.148969999999963
20
-71.1908999999999992
40
0.4999960394813143
50
-25.70653133
51
120.29962656
0
ARC
8
BLACK
10
326.050360000000012
20
-71.6247400000000027
40
0.5003610067191487
50
154.30340137
51
179.99061027
0
ARC
8
BLACK
10
325.148969999999963
20
-73.464100000000002
40
0.4999993648365966
50
-120.29939530
51
25.70632483
0
ARC
8
BLACK
10
326.0500000000000114
20
-73.0304000000000002
40
0.4999760117215625
50
-180.00653171
51
-154.29976339
0
LINE
8
BLACK
6
CONTINUOUS
10
226.9000010000000032
20
-106.3678429999999935
11
226.9000010000000032
21
-104.9621589999999998
0
LINE
8
BLACK
6
CONTINUOUS
10
227.8055479999999875
20
-104.1650009999999895
11
229.3944520000000011
21
-104.1650009999999895
0
LINE
8
BLACK
6
CONTINUOUS
10
229.3944520000000011
20
-107.164999999999992
11
227.80554699999999
21
-107.164999999999992
0
LINE
8
BLACK
6
CONTINUOUS
10
230.2999989999999855
20
-104.9621589999999998
11
230.2999989999999855
21
-106.3678429999999935
0
ARC
8
BLACK
10
226.4000109999999779
20
-104.9621569999999906
40
0.4999899543000839
50
-0.00022919
51
25.70646243
0
ARC
8
BLACK
10
227.3010299999999972
20
-104.5284019999999998
40
0.4999997985959594
50
-300.29939530
51
-154.29357192
0
ARC
8
BLACK
10
226.4000109999999779
20
-106.3678449999999884
40
0.499990000001
50
-25.70646243
51
0.00011459
0
ARC
8
BLACK
10
227.3010309999999947
20
-106.801598999999996
40
0.499998988562977
50
-205.70617187
51
-59.70070364
0
ARC
8
BLACK
10
227.8055499999999824
20
-107.6650089999999977
40
0.500009136137531
50
90.00034377
51
120.29901505
0
ARC
8
BLACK
10
227.8055499999999824
20
-103.664991999999998
40
0.5000090000039998
50
-120.29901505
51
-90.00022918
0
ARC
8
BLACK
10
229.3944499999999778
20
-107.6650099999999952
40
0.5000090000089998
50
59.70098495
51
89.99965623
0
ARC
8
BLACK
10
229.3944499999999778
20
-103.6649899999999889
40
0.5000103584367028
50
-89.99977082
51
-59.70119951
0
ARC
8
BLACK
10
229.8989699999999914
20
-104.5283999999999907
40
0.4999960394813143
50
-25.70653133
51
120.29962656
0
ARC
8
BLACK
10
230.8003599999999835
20
-104.9622399999999942
40
0.5003610067191487
50
154.30340137
51
179.99061027
0
ARC
8
BLACK
10
229.8989699999999914
20
-106.8015999999999934
40
0.4999993648365966
50
-120.29939530
51
25.70632483
0
ARC
8
BLACK
10
230.7999999999999829
20
-106.3678999999999917
40
0.4999760117215625
50
-180.00653171
51
-154.29976339
0
LINE
8
BLACK
6
CONTINUOUS
10
93.5500009999999946
20
-53.1528409999999951
11
93.5500009999999946
21
-51.7471569999999943
0
LINE
8
BLACK
6
CONTINUOUS
10
94.4555479999999932
20
-50.9499999999999957
11
96.0444529999999901
21
-50.9499999999999957
0
LINE
8
BLACK
6
CONTINUOUS
10
96.0444519999999926
20
-53.9499989999999983
11
94.4555479999999932
21
-53.9499989999999983
0
LINE
8
BLACK
6
CONTINUOUS
10
96.9499989999999912
20
-51.7471569999999943
11
96.9499989999999912
21
-53.1528409999999951
0
ARC
8
BLACK
10
93.0499999999999972
20
-51.7470999999999961
40
0.4999760117215625
50
-0.00653171
51
25.70023661
0
ARC
8
BLACK
10
93.9510299999999887
20
-51.3133999999999943
40
0.4999993648365966
50
-300.29939530
51
-154.29367517
0
ARC
8
BLACK
10
93.0496399999999966
20
-53.1527600000000007
40
0.5003610067191487
50
-25.69659863
51
-0.00938973
0
ARC
8
BLACK
10
93.9510299999999887
20
-53.5865999999999971
40
0.4999960394813143
50
-205.70653133
51
-59.70037344
0
ARC
8
BLACK
10
94.4555500000000023
20
-54.4500099999999989
40
0.5000103584367028
50
90.00022918
51
120.29880049
0
ARC
8
BLACK
10
94.4555500000000023
20
-50.4499899999999997
40
0.5000090000089998
50
-120.29901505
51
-90.00034377
0
ARC
8
BLACK
10
96.0444499999999977
20
-54.4500079999999969
40
0.5000090000039998
50
59.70098495
51
89.99977082
0
ARC
8
BLACK
10
96.0444499999999977
20
-50.4499909999999971
40
0.500009136137531
50
-89.99965623
51
-59.70098495
0
ARC
8
BLACK
10
96.5489689999999996
20
-51.3134009999999989
40
0.499998988562977
50
-25.70617187
51
120.29929636
0
ARC
8
BLACK
10
97.4499890000000022
20
-51.7471549999999993
40
0.499990000001
50
-205.70646243
51
-179.99988541
0
ARC
8
BLACK
10
96.5489699999999971
20
-53.5865979999999951
40
0.4999997985959594
50
-120.29939530
51
25.70642808
0
ARC
8
BLACK
10
97.4499890000000022
20
-53.1528429999999972
40
0.4999899543000839
50
-180.00022919
51
-154.29353757
0
LINE
8
BLACK
6
CONTINUOUS
10
69.7375009999999946
20
-116.01784099999999
11
69.7375009999999946
21
-114.6121569999999963
0
LINE
8
BLACK
6
CONTINUOUS
10
70.6430479999999932
20
-113.8149999999999977
11
72.2319529999999901
21
-113.8149999999999977
0
LINE
8
BLACK
6
CONTINUOUS
10
72.2319519999999926
20
-116.8149990000000003
11
70.6430479999999932
21
-116.8149990000000003
0
LINE
8
BLACK
6
CONTINUOUS
10
73.1374989999999912
20
-114.6121569999999963
11
73.1374989999999912
21
-116.01784099999999
0
ARC
8
BLACK
10
69.2374999999999972
20
-114.6120999999999981
40
0.4999760117215625
50
-0.00653171
51
25.70023661
0
ARC
8
BLACK
10
70.1385300000000029
20
-114.1783999999999963
40
0.4999993648365966
50
-300.29939530
51
-154.29367517
0
ARC
8
BLACK
10
69.2371399999999966
20
-116.0177599999999956
40
0.5003610067191487
50
-25.69659863
51
-0.00938973
0
ARC
8
BLACK
10
70.1385300000000029
20
-116.4515999999999991
40
0.4999960394813143
50
-205.70653133
51
-59.70037344
0
ARC
8
BLACK
10
70.6430500000000023
20
-117.3150100000000009
40
0.5000103584367028
50
90.00022918
51
120.29880049
0
ARC
8
BLACK
10
70.6430500000000023
20
-113.3149899999999946
40
0.5000090000089998
50
-120.29901505
51
-90.00034377
0
ARC
8
BLACK
10
72.2319499999999977
20
-117.3150079999999917
40
0.5000090000039998
50
59.70098495
51
89.99977082
0
ARC
8
BLACK
10
72.2319499999999977
20
-113.314990999999992
40
0.500009136137531
50
-89.99965623
51
-59.70098495
0
ARC
8
BLACK
10
72.7364689999999996
20
-114.1784009999999938
40
0.499998988562977
50
-25.70617187
51
120.29929636
0
ARC
8
BLACK
10
73.6374890000000022
20
-114.6121550000000013
40
0.499990000001
50
-205.70646243
51
-179.99988541
0
ARC
8
BLACK
10
72.7364699999999971
20
-116.45159799999999
40
0.4999997985959594
50
-120.29939530
51
25.70642808
0
ARC
8
BLACK
10
73.6374890000000022
20
-116.0178429999999992
40
0.4999899543000839
50
-180.00022919
51
-154.29353757
0
LINE
8
BLACK
6
CONTINUOUS
10
284.0500010000000088
20
-84.4603429999999946
11
284.0500010000000088
21
-83.0546590000000009
0
LINE
8
BLACK
6
CONTINUOUS
10
284.9555479999999648
20
-82.2575009999999907
11
286.5444519999999784
21
-82.2575009999999907
0
LINE
8
BLACK
6
CONTINUOUS
10
286.5444519999999784
20
-85.2574999999999932
11
284.9555469999999673
21
-85.2574999999999932
0
LINE
8
BLACK
6
CONTINUOUS
10
287.4499989999999912
20
-83.0546590000000009
11
287.4499989999999912
21
-84.4603429999999946
0
ARC
8
BLACK
10
283.5500109999999836
20
-83.0546569999999917
40
0.4999899543000839
50
-0.00022919
51
25.70646243
0
ARC
8
BLACK
10
284.4510300000000029
20
-82.620902000000001
40
0.4999997985959594
50
-300.29939530
51
-154.29357192
0
ARC
8
BLACK
10
283.5500109999999836
20
-84.4603449999999896
40
0.499990000001
50
-25.70646243
51
0.00011459
0
ARC
8
BLACK
10
284.4510310000000004
20
-84.8940989999999971
40
0.499998988562977
50
-205.70617187
51
-59.70070364
0
ARC
8
BLACK
10
284.9555499999999597
20
-85.7575089999999989
40
0.500009136137531
50
90.00034377
51
120.29901505
0
ARC
8
BLACK
10
284.9555499999999597
20
-81.7574919999999992
40
0.5000090000039998
50
-120.29901505
51
-90.00022918
0
ARC
8
BLACK
10
286.5444499999999834
20
-85.7575099999999964
40
0.5000090000089998
50
59.70098495
51
89.99965623
0
ARC
8
BLACK
10
286.5444499999999834
20
-81.75748999999999
40
0.5000103584367028
50
-89.99977082
51
-59.70119951
0
ARC
8
BLACK
10
287.0489699999999971
20
-82.6208999999999918
40
0.4999960394813143
50
-25.70653133
51
120.29962656
0
ARC
8
BLACK
10
287.9503599999999892
20
-83.0547399999999953
40
0.5003610067191487
50
154.30340137
51
179.99061027
0
ARC
8
BLACK
10
287.0489699999999971
20
-84.8940999999999946
40
0.4999993648365966
50
-120.29939530
51
25.70632483
0
ARC
8
BLACK
10
287.9499999999999886
20
-84.4603999999999928
40
0.4999760117215625
50
-180.00653171
51
-154.29976339
0
LINE
8
BLACK
6
CONTINUOUS
10
93.5500009999999946
20
-72.2028409999999923
11
93.5500009999999946
21
-70.7971569999999986
0
LINE
8
BLACK
6
CONTINUOUS
10
94.4555479999999932
20
-70.
11
96.0444529999999901
21
-70.
0
LINE
8
BLACK
6
CONTINUOUS
10
96.0444519999999926
20
-72.9999990000000025
11
94.4555479999999932
21
-72.9999990000000025
0
LINE
8
BLACK
6
CONTINUOUS
10
96.9499989999999912
20
-70.7971569999999986
11
96.9499989999999912
21
-72.2028409999999923
0
ARC
8
BLACK
10
93.0499999999999972
20
-70.7971000000000004
40
0.4999760117215625
50
-0.00653171
51
25.70023661
0
ARC
8
BLACK
10
93.9510299999999887
20
-70.3633999999999986
40
0.4999993648365966
50
-300.29939530
51
-154.29367517
0
ARC
8
BLACK
10
93.0496399999999966
20
-72.2027599999999978
40
0.5003610067191487
50
-25.69659863
51
-0.00938973
0
ARC
8
BLACK
10
93.9510299999999887
20
-72.6366000000000014
40
0.4999960394813143
50
-205.70653133
51
-59.70037344
0
ARC
8
BLACK
10
94.4555500000000023
20
-73.5000100000000032
40
0.5000103584367028
50
90.00022918
51
120.29880049
0
ARC
8
BLACK
10
94.4555500000000023
20
-69.4999899999999968
40
0.5000090000089998
50
-120.29901505
51
-90.00034377
0
ARC
8
BLACK
10
96.0444499999999977
20
-73.500007999999994
40
0.5000090000039998
50
59.70098495
51
89.99977082
0
ARC
8
BLACK
10
96.0444499999999977
20
-69.4999909999999943
40
0.500009136137531
50
-89.99965623
51
-59.70098495
0
ARC
8
BLACK
10
96.5489689999999996
20
-70.3634009999999961
40
0.499998988562977
50
-25.70617187
51
120.29929636
0
ARC
8
BLACK
10
97.4499890000000022
20
-70.7971550000000036
40
0.499990000001
50
-205.70646243
51
-179.99988541
0
ARC
8
BLACK
10
96.5489699999999971
20
-72.6365979999999922
40
0.4999997985959594
50
-120.29939530
51
25.70642808
0
ARC
8
BLACK
10
97.4499890000000022
20
-72.2028430000000014
40
0.4999899543000839
50
-180.00022919
51
-154.29353757
0
LINE
8
BLACK
6
CONTINUOUS
10
284.0500010000000088
20
-46.3603430000000003
11
284.0500010000000088
21
-44.9546589999999995
0
LINE
8
BLACK
6
CONTINUOUS
10
284.9555479999999648
20
-44.1575009999999963
11
286.5444519999999784
21
-44.1575009999999963
0
LINE
8
BLACK
6
CONTINUOUS
10
286.5444519999999784
20
-47.1574999999999989
11
284.9555469999999673
21
-47.1574999999999989
0
LINE
8
BLACK
6
CONTINUOUS
10
287.4499989999999912
20
-44.9546589999999995
11
287.4499989999999912
21
-46.3603430000000003
0
ARC
8
BLACK
10
283.5500109999999836
20
-44.9546569999999974
40
0.4999899543000839
50
-0.00022919
51
25.70646243
0
ARC
8
BLACK
10
284.4510300000000029
20
-44.5209019999999995
40
0.4999997985959594
50
-300.29939530
51
-154.29357192
0
ARC
8
BLACK
10
283.5500109999999836
20
-46.3603449999999953
40
0.499990000001
50
-25.70646243
51
0.00011459
0
ARC
8
BLACK
10
284.4510310000000004
20
-46.7940989999999957
40
0.499998988562977
50
-205.70617187
51
-59.70070364
0
ARC
8
BLACK
10
284.9555499999999597
20
-47.6575089999999975
40
0.500009136137531
50
90.00034377
51
120.29901505
0
ARC
8
BLACK
10
284.9555499999999597
20
-43.6574919999999977
40
0.5000090000039998
50
-120.29901505
51
-90.00022918
0
ARC
8
BLACK
10
286.5444499999999834
20
-47.6575099999999949
40
0.5000090000089998
50
59.70098495
51
89.99965623
0
ARC
8
BLACK
10
286.5444499999999834
20
-43.6574899999999957
40
0.5000103584367028
50
-89.99977082
51
-59.70119951
0
ARC
8
BLACK
10
287.0489699999999971
20
-44.5208999999999975
40
0.4999960394813143
50
-25.70653133
51
120.29962656
0
ARC
8
BLACK
10
287.9503599999999892
20
-44.954740000000001
40
0.5003610067191487
50
154.30340137
51
179.99061027
0
ARC
8
BLACK
10
287.0489699999999971
20
-46.7941000000000003
40
0.4999993648365966
50
-120.29939530
51
25.70632483
0
ARC
8
BLACK
10
287.9499999999999886
20
-46.3603999999999985
40
0.4999760117215625
50
-180.00653171
51
-154.29976339
0
LINE
8
BLACK
6
CONTINUOUS
10
93.5500009999999946
20
-91.2528409999999894
11
93.5500009999999946
21
-89.8471569999999957
0
LINE
8
BLACK
6
CONTINUOUS
10
94.4555479999999932
20
-89.0499999999999972
11
96.0444529999999901
21
-89.0499999999999972
0
LINE
8
BLACK
6
CONTINUOUS
10
96.0444519999999926
20
-92.0499989999999997
11
94.4555479999999932
21
-92.0499989999999997
0
LINE
8
BLACK
6
CONTINUOUS
10
96.9499989999999912
20
-89.8471569999999957
11
96.9499989999999912
21
-91.2528409999999894
0
ARC
8
BLACK
10
93.0499999999999972
20
-89.8470999999999975
40
0.4999760117215625
50
-0.00653171
51
25.70023661
0
ARC
8
BLACK
10
93.9510299999999887
20
-89.4133999999999958
40
0.4999993648365966
50
-300.29939530
51
-154.29367517
0
ARC
8
BLACK
10
93.0496399999999966
20
-91.252759999999995
40
0.5003610067191487
50
-25.69659863
51
-0.00938973
0
ARC
8
BLACK
10
93.9510299999999887
20
-91.6865999999999985
40
0.4999960394813143
50
-205.70653133
51
-59.70037344
0
ARC
8
BLACK
10
94.4555500000000023
20
-92.5500100000000003
40
0.5000103584367028
50
90.00022918
51
120.29880049
0
ARC
8
BLACK
10
94.4555500000000023
20
-88.549989999999994
40
0.5000090000089998
50
-120.29901505
51
-90.00034377
0
ARC
8
BLACK
10
96.0444499999999977
20
-92.5500079999999912
40
0.5000090000039998
50
59.70098495
51
89.99977082
0
ARC
8
BLACK
10
96.0444499999999977
20
-88.5499909999999915
40
0.500009136137531
50
-89.99965623
51
-59.70098495
0
ARC
8
BLACK
10
96.5489689999999996
20
-89.4134009999999932
40
0.499998988562977
50
-25.70617187
51
120.29929636
0
ARC
8
BLACK
10
97.4499890000000022
20
-89.8471550000000008
40
0.499990000001
50
-205.70646243
51
-179.99988541
0
ARC
8
BLACK
10
96.5489699999999971
20
-91.6865979999999894
40
0.4999997985959594
50
-120.29939530
51
25.70642808
0
ARC
8
BLACK
10
97.4499890000000022
20
-91.2528429999999986
40
0.4999899543000839
50
-180.00022919
51
-154.29353757
0
LINE
8
BLACK
6
CONTINUOUS
10
322.1500009999999747
20
-111.1303429999999963
11
322.1500009999999747
21
-109.7246589999999884
0
LINE
8
BLACK
6
CONTINUOUS
10
323.0555479999999875
20
-108.9275009999999924
11
324.6444520000000011
21
-108.9275009999999924
0
LINE
8
BLACK
6
CONTINUOUS
10
324.6444520000000011
20
-111.9274999999999949
11
323.05554699999999
21
-111.9274999999999949
0
LINE
8
BLACK
6
CONTINUOUS
10
325.5499989999999571
20
-109.7246589999999884
11
325.5499989999999571
21
-111.1303429999999963
0
ARC
8
BLACK
10
321.6500110000000063
20
-109.7246569999999934
40
0.4999899543000839
50
-0.00022919
51
25.70646243
0
ARC
8
BLACK
10
322.5510299999999688
20
-109.2909019999999884
40
0.4999997985959594
50
-300.29939530
51
-154.29357192
0
ARC
8
BLACK
10
321.6500110000000063
20
-111.1303449999999913
40
0.499990000001
50
-25.70646243
51
0.00011459
0
ARC
8
BLACK
10
322.5510309999999663
20
-111.5640989999999988
40
0.499998988562977
50
-205.70617187
51
-59.70070364
0
ARC
8
BLACK
10
323.0555499999999824
20
-112.4275090000000006
40
0.500009136137531
50
90.00034377
51
120.29901505
0
ARC
8
BLACK
10
323.0555499999999824
20
-108.4274920000000009
40
0.5000090000039998
50
-120.29901505
51
-90.00022918
0
ARC
8
BLACK
10
324.6444500000000062
20
-112.4275099999999981
40
0.5000090000089998
50
59.70098495
51
89.99965623
0
ARC
8
BLACK
10
324.6444500000000062
20
-108.4274899999999917
40
0.5000103584367028
50
-89.99977082
51
-59.70119951
0
ARC
8
BLACK
10
325.148969999999963
20
-109.2908999999999935
40
0.4999960394813143
50
-25.70653133
51
120.29962656
0
ARC
8
BLACK
10
326.050360000000012
20
-109.7247399999999971
40
0.5003610067191487
50
154.30340137
51
179.99061027
0
ARC
8
BLACK
10
325.148969999999963
20
-111.5640999999999963
40
0.4999993648365966
50
-120.29939530
51
25.70632483
0
ARC
8
BLACK
10
326.0500000000000114
20
-111.1303999999999945
40
0.4999760117215625
50
-180.00653171
51
-154.29976339
0
LINE
8
BLACK
6
CONTINUOUS
10
36.4000009999999961
20
-101.7303409999999957
11
36.4000009999999961
21
-100.324657000000002
0
LINE
8
BLACK
6
CONTINUOUS
10
37.3055480000000017
20
-99.5274999999999892
11
38.8944529999999986
21
-99.5274999999999892
0
LINE
8
BLACK
6
CONTINUOUS
10
38.8944520000000011
20
-102.5274989999999917
11
37.3055480000000017
21
-102.5274989999999917
0
LINE
8
BLACK
6
CONTINUOUS
10
39.7999989999999997
20
-100.324657000000002
11
39.7999989999999997
21
-101.7303409999999957
0
ARC
8
BLACK
10
35.8999999999999986
20
-100.3245999999999896
40
0.4999760117215625
50
-0.00653171
51
25.70023661
0
ARC
8
BLACK
10
36.8010299999999972
20
-99.890900000000002
40
0.4999993648365966
50
-300.29939530
51
-154.29367517
0
ARC
8
BLACK
10
35.899639999999998
20
-101.7302600000000012
40
0.5003610067191487
50
-25.69659863
51
-0.00938973
0
ARC
8
BLACK
10
36.8010299999999972
20
-102.1640999999999906
40
0.4999960394813143
50
-205.70653133
51
-59.70037344
0
ARC
8
BLACK
10
37.3055499999999967
20
-103.0275099999999924
40
0.5000103584367028
50
90.00022918
51
120.29880049
0
ARC
8
BLACK
10
37.3055499999999967
20
-99.0274900000000002
40
0.5000090000089998
50
-120.29901505
51
-90.00034377
0
ARC
8
BLACK
10
38.8944499999999991
20
-103.0275079999999974
40
0.5000090000039998
50
59.70098495
51
89.99977082
0
ARC
8
BLACK
10
38.8944499999999991
20
-99.0274909999999977
40
0.500009136137531
50
-89.99965623
51
-59.70098495
0
ARC
8
BLACK
10
39.398969000000001
20
-99.8909009999999995
40
0.499998988562977
50
-25.70617187
51
120.29929636
0
ARC
8
BLACK
10
40.2999889999999965
20
-100.3246549999999928
40
0.499990000001
50
-205.70646243
51
-179.99988541
0
ARC
8
BLACK
10
39.3989699999999985
20
-102.1640979999999956
40
0.4999997985959594
50
-120.29939530
51
25.70642808
0
ARC
8
BLACK
10
40.2999889999999965
20
-101.7303429999999906
40
0.4999899543000839
50
-180.00022919
51
-154.29353757
0
LINE
8
BLACK
6
CONTINUOUS
10
265.0000009999999975
20
-81.6028429999999929
11
265.0000009999999975
21
-80.1971589999999992
0
LINE
8
BLACK
6
CONTINUOUS
10
265.9055480000000102
20
-79.4000010000000032
11
267.494451999999967
21
-79.4000010000000032
0
LINE
8
BLACK
6
CONTINUOUS
10
267.494451999999967
20
-82.3999999999999915
11
265.9055470000000128
21
-82.3999999999999915
0
LINE
8
BLACK
6
CONTINUOUS
10
268.3999989999999798
20
-80.1971589999999992
11
268.3999989999999798
21
-81.6028429999999929
0
ARC
8
BLACK
10
264.5000109999999722
20
-80.19715699999999
40
0.4999899543000839
50
-0.00022919
51
25.70646243
0
ARC
8
BLACK
10
265.4010299999999916
20
-79.7634019999999992
40
0.4999997985959594
50
-300.29939530
51
-154.29357192
0
ARC
8
BLACK
10
264.5000109999999722
20
-81.6028450000000021
40
0.499990000001
50
-25.70646243
51
0.00011459
0
ARC
8
BLACK
10
265.401030999999989
20
-82.0365989999999954
40
0.499998988562977
50
-205.70617187
51
-59.70070364
0
ARC
8
BLACK
10
265.9055500000000052
20
-82.9000089999999972
40
0.500009136137531
50
90.00034377
51
120.29901505
0
ARC
8
BLACK
10
265.9055500000000052
20
-78.8999919999999975
40
0.5000090000039998
50
-120.29901505
51
-90.00022918
0
ARC
8
BLACK
10
267.4944499999999721
20
-82.9000099999999946
40
0.5000090000089998
50
59.70098495
51
89.99965623
0
ARC
8
BLACK
10
267.4944499999999721
20
-78.8999900000000025
40
0.5000103584367028
50
-89.99977082
51
-59.70119951
0
ARC
8
BLACK
10
267.9989699999999857
20
-79.7633999999999901
40
0.4999960394813143
50
-25.70653133
51
120.29962656
0
ARC
8
BLACK
10
268.9003599999999778
20
-80.1972399999999936
40
0.5003610067191487
50
154.30340137
51
179.99061027
0
ARC
8
BLACK
10
267.9989699999999857
20
-82.0365999999999929
40
0.4999993648365966
50
-120.29939530
51
25.70632483
0
ARC
8
BLACK
10
268.8999999999999773
20
-81.6028999999999911
40
0.4999760117215625
50
-180.00653171
51
-154.29976339
0
LINE
8
BLACK
6
CONTINUOUS
10
322.1500009999999747
20
-92.0803429999999992
11
322.1500009999999747
21
-90.6746589999999912
0
LINE
8
BLACK
6
CONTINUOUS
10
323.0555479999999875
20
-89.8775009999999952
11
324.6444520000000011
21
-89.8775009999999952
0
LINE
8
BLACK
6
CONTINUOUS
10
324.6444520000000011
20
-92.8774999999999977
11
323.05554699999999
21
-92.8774999999999977
0
LINE
8
BLACK
6
CONTINUOUS
10
325.5499989999999571
20
-90.6746589999999912
11
325.5499989999999571
21
-92.0803429999999992
0
ARC
8
BLACK
10
321.6500110000000063
20
-90.6746569999999963
40
0.4999899543000839
50
-0.00022919
51
25.70646243
0
ARC
8
BLACK
10
322.5510299999999688
20
-90.2409019999999913
40
0.4999997985959594
50
-300.29939530
51
-154.29357192
0
ARC
8
BLACK
10
321.6500110000000063
20
-92.0803449999999941
40
0.499990000001
50
-25.70646243
51
0.00011459
0
ARC
8
BLACK
10
322.5510309999999663
20
-92.5140990000000016
40
0.499998988562977
50
-205.70617187
51
-59.70070364
0
ARC
8
BLACK
10
323.0555499999999824
20
-93.3775089999999892
40
0.500009136137531
50
90.00034377
51
120.29901505
0
ARC
8
BLACK
10
323.0555499999999824
20
-89.3774919999999895
40
0.5000090000039998
50
-120.29901505
51
-90.00022918
0
ARC
8
BLACK
10
324.6444500000000062
20
-93.3775100000000009
40
0.5000090000089998
50
59.70098495
51
89.99965623
0
ARC
8
BLACK
10
324.6444500000000062
20
-89.3774899999999946
40
0.5000103584367028
50
-89.99977082
51
-59.70119951
0
ARC
8
BLACK
10
325.148969999999963
20
-90.2408999999999963
40
0.4999960394813143
50
-25.70653133
51
120.29962656
0
ARC
8
BLACK
10
326.050360000000012
20
-90.6747399999999999
40
0.5003610067191487
50
154.30340137
51
179.99061027
0
ARC
8
BLACK
10
325.148969999999963
20
-92.5140999999999991
40
0.4999993648365966
50
-120.29939530
51
25.70632483
0
ARC
8
BLACK
10
326.0500000000000114
20
-92.0803999999999974
40
0.4999760117215625
50
-180.00653171
51
-154.29976339
0
LINE
8
BLACK
6
CONTINUOUS
10
245.9500009999999861
20
-46.3603430000000003
11
245.9500009999999861
21
-44.9546589999999995
0
LINE
8
BLACK
6
CONTINUOUS
10
246.8555479999999989
20
-44.1575009999999963
11
248.4444519999999841
21
-44.1575009999999963
0
LINE
8
BLACK
6
CONTINUOUS
10
248.4444519999999841
20
-47.1574999999999989
11
246.8555470000000014
21
-47.1574999999999989
0
LINE
8
BLACK
6
CONTINUOUS
10
249.3499989999999968
20
-44.9546589999999995
11
249.3499989999999968
21
-46.3603430000000003
0
ARC
8
BLACK
10
245.4500109999999893
20
-44.9546569999999974
40
0.4999899543000839
50
-0.00022919
51
25.70646243
0
ARC
8
BLACK
10
246.3510299999999802
20
-44.5209019999999995
40
0.4999997985959594
50
-300.29939530
51
-154.29357192
0
ARC
8
BLACK
10
245.4500109999999893
20
-46.3603449999999953
40
0.499990000001
50
-25.70646243
51
0.00011459
0
ARC
8
BLACK
10
246.3510309999999777
20
-46.7940989999999957
40
0.499998988562977
50
-205.70617187
51
-59.70070364
0
ARC
8
BLACK
10
246.8555499999999938
20
-47.6575089999999975
40
0.500009136137531
50
90.00034377
51
120.29901505
0
ARC
8
BLACK
10
246.8555499999999938
20
-43.6574919999999977
40
0.5000090000039998
50
-120.29901505
51
-90.00022918
0
ARC
8
BLACK
10
248.4444499999999891
20
-47.6575099999999949
40
0.5000090000089998
50
59.70098495
51
89.99965623
0
ARC
8
BLACK
10
248.4444499999999891
20
-43.6574899999999957
40
0.5000103584367028
50
-89.99977082
51
-59.70119951
0
ARC
8
BLACK
10
248.9489700000000028
20
-44.5208999999999975
40
0.4999960394813143
50
-25.70653133
51
120.29962656
0
ARC
8
BLACK
10
249.8503599999999949
20
-44.954740000000001
40
0.5003610067191487
50
154.30340137
51
179.99061027
0
ARC
8
BLACK
10
248.9489700000000028
20
-46.7941000000000003
40
0.4999993648365966
50
-120.29939530
51
25.70632483
0
ARC
8
BLACK
10
249.8499999999999943
20
-46.3603999999999985
40
0.4999760117215625
50
-180.00653171
51
-154.29976339
0
LINE
8
BLACK
6
CONTINUOUS
10
74.5000009999999975
20
-94.1103409999999911
11
74.5000009999999975
21
-92.7046569999999974
0
LINE
8
BLACK
6
CONTINUOUS
10
75.405547999999996
20
-91.9074999999999989
11
76.9944529999999929
21
-91.9074999999999989
0
LINE
8
BLACK
6
CONTINUOUS
10
76.9944519999999955
20
-94.9074990000000014
11
75.405547999999996
21
-94.9074990000000014
0
LINE
8
BLACK
6
CONTINUOUS
10
77.899998999999994
20
-92.7046569999999974
11
77.899998999999994
21
-94.1103409999999911
0
ARC
8
BLACK
10
74.
20
-92.7045999999999992
40
0.4999760117215625
50
-0.00653171
51
25.70023661
0
ARC
8
BLACK
10
74.9010299999999916
20
-92.2708999999999975
40
0.4999993648365966
50
-300.29939530
51
-154.29367517
0
ARC
8
BLACK
10
73.9996399999999994
20
-94.1102599999999967
40
0.5003610067191487
50
-25.69659863
51
-0.00938973
0
ARC
8
BLACK
10
74.9010299999999916
20
-94.5441000000000003
40
0.4999960394813143
50
-205.70653133
51
-59.70037344
0
ARC
8
BLACK
10
75.405549999999991
20
-95.407510000000002
40
0.5000103584367028
50
90.00022918
51
120.29880049
0
ARC
8
BLACK
10
75.405549999999991
20
-91.4074899999999957
40
0.5000090000089998
50
-120.29901505
51
-90.00034377
0
ARC
8
BLACK
10
76.9944500000000005
20
-95.4075079999999929
40
0.5000090000039998
50
59.70098495
51
89.99977082
0
ARC
8
BLACK
10
76.9944500000000005
20
-91.4074909999999932
40
0.500009136137531
50
-89.99965623
51
-59.70098495
0
ARC
8
BLACK
10
77.4989690000000024
20
-92.270900999999995
40
0.499998988562977
50
-25.70617187
51
120.29929636
0
ARC
8
BLACK
10
78.3999889999999908
20
-92.7046550000000025
40
0.499990000001
50
-205.70646243
51
-179.99988541
0
ARC
8
BLACK
10
77.4989699999999999
20
-94.5440979999999911
40
0.4999997985959594
50
-120.29939530
51
25.70642808
0
ARC
8
BLACK
10
78.3999889999999908
20
-94.1103430000000003
40
0.4999899543000839
50
-180.00022919
51
-154.29353757
0
LINE
8
BLACK
6
CONTINUOUS
10
55.4500010000000003
20
-58.8678409999999985
11
55.4500010000000003
21
-57.4621569999999977
0
LINE
8
BLACK
6
CONTINUOUS
10
56.3555479999999989
20
-56.6649999999999991
11
57.9444529999999958
21
-56.6649999999999991
0
LINE
8
BLACK
6
CONTINUOUS
10
57.9444519999999983
20
-59.6649989999999946
11
56.3555479999999989
21
-59.6649989999999946
0
LINE
8
BLACK
6
CONTINUOUS
10
58.8499989999999968
20
-57.4621569999999977
11
58.8499989999999968
21
-58.8678409999999985
0
ARC
8
BLACK
10
54.9499999999999957
20
-57.4620999999999995
40
0.4999760117215625
50
-0.00653171
51
25.70023661
0
ARC
8
BLACK
10
55.8510299999999944
20
-57.0283999999999978
40
0.4999993648365966
50
-300.29939530
51
-154.29367517
0
ARC
8
BLACK
10
54.9496399999999952
20
-58.867759999999997
40
0.5003610067191487
50
-25.69659863
51
-0.00938973
0
ARC
8
BLACK
10
55.8510299999999944
20
-59.3016000000000005
40
0.4999960394813143
50
-205.70653133
51
-59.70037344
0
ARC
8
BLACK
10
56.3555500000000009
20
-60.1650099999999952
40
0.5000103584367028
50
90.00022918
51
120.29880049
0
ARC
8
BLACK
10
56.3555500000000009
20
-56.164989999999996
40
0.5000090000089998
50
-120.29901505
51
-90.00034377
0
ARC
8
BLACK
10
57.9444499999999962
20
-60.1650080000000003
40
0.5000090000039998
50
59.70098495
51
89.99977082
0
ARC
8
BLACK
10
57.9444499999999962
20
-56.1649910000000006
40
0.500009136137531
50
-89.99965623
51
-59.70098495
0
ARC
8
BLACK
10
58.4489689999999982
20
-57.0284009999999952
40
0.499998988562977
50
-25.70617187
51
120.29929636
0
ARC
8
BLACK
10
59.3499890000000008
20
-57.4621549999999957
40
0.499990000001
50
-205.70646243
51
-179.99988541
0
ARC
8
BLACK
10
58.4489699999999957
20
-59.3015979999999985
40
0.4999997985959594
50
-120.29939530
51
25.70642808
0
ARC
8
BLACK
10
59.3499890000000008
20
-58.8678430000000006
40
0.4999899543000839
50
-180.00022919
51
-154.29353757
0
LINE
8
BLACK
6
CONTINUOUS
10
88.7875009999999918
20
-113.1603409999999883
11
88.7875009999999918
21
-111.7546569999999946
0
LINE
8
BLACK
6
CONTINUOUS
10
89.6930479999999903
20
-110.957499999999996
11
91.2819530000000015
21
-110.957499999999996
0
LINE
8
BLACK
6
CONTINUOUS
10
91.2819519999999898
20
-113.9574989999999985
11
89.6930479999999903
21
-113.9574989999999985
0
LINE
8
BLACK
6
CONTINUOUS
10
92.1874990000000025
20
-111.7546569999999946
11
92.1874990000000025
21
-113.1603409999999883
0
ARC
8
BLACK
10
88.2874999999999943
20
-111.7545999999999964
40
0.4999760117215625
50
-0.00653171
51
25.70023661
0
ARC
8
BLACK
10
89.1885300000000001
20
-111.3208999999999946
40
0.4999993648365966
50
-300.29939530
51
-154.29367517
0
ARC
8
BLACK
10
88.2871399999999937
20
-113.1602599999999939
40
0.5003610067191487
50
-25.69659863
51
-0.00938973
0
ARC
8
BLACK
10
89.1885300000000001
20
-113.5940999999999974
40
0.4999960394813143
50
-205.70653133
51
-59.70037344
0
ARC
8
BLACK
10
89.6930499999999995
20
-114.4575099999999992
40
0.5000103584367028
50
90.00022918
51
120.29880049
0
ARC
8
BLACK
10
89.6930499999999995
20
-110.4574899999999928
40
0.5000090000089998
50
-120.29901505
51
-90.00034377
0
ARC
8
BLACK
10
91.2819499999999948
20
-114.45750799999999
40
0.5000090000039998
50
59.70098495
51
89.99977082
0
ARC
8
BLACK
10
91.2819499999999948
20
-110.4574909999999903
40
0.500009136137531
50
-89.99965623
51
-59.70098495
0
ARC
8
BLACK
10
91.7864689999999968
20
-111.3209009999999921
40
0.499998988562977
50
-25.70617187
51
120.29929636
0
ARC
8
BLACK
10
92.6874889999999994
20
-111.7546549999999996
40
0.499990000001
50
-205.70646243
51
-179.99988541
0
ARC
8
BLACK
10
91.7864699999999942
20
-113.5940979999999882
40
0.4999997985959594
50
-120.29939530
51
25.70642808
0
ARC
8
BLACK
10
92.6874889999999994
20
-113.1603429999999975
40
0.4999899543000839
50
-180.00022919
51
-154.29353757
0
LINE
8
BLACK
6
CONTINUOUS
10
207.6136459999999886
20
-138.5761499999999842
11
208.9896770000000004
21
-137.7816980000000058
0
LINE
8
BLACK
6
CONTINUOUS
10
207.9308399999999892
20
-140.9366399999999828
11
207.2279979999999853
21
-139.7192819999999926
0
LINE
8
BLACK
6
CONTINUOUS
10
210.1724829999999997
20
-138.0192830000000015
11
210.8753250000000037
21
-139.2366409999999917
0
LINE
8
BLACK
6
CONTINUOUS
10
210.4896770000000004
20
-140.3797730000000001
11
209.1136449999999911
21
-141.1742260000000044
0
ARC
8
BLACK
10
206.7949859999999944
20
-139.9692809999999952
40
0.4999987283283828
50
29.99994098
51
55.70628462
0
ARC
8
BLACK
10
207.3584199999999953
20
-139.1431240000000003
40
0.499998991054982
50
-270.29954380
51
-124.29355614
0
ARC
8
BLACK
10
207.3636379999999804
20
-138.1431169999999895
40
0.5000215786873603
50
-90.29838537
51
-60.00036907
0
ARC
8
BLACK
10
207.4978370000000041
20
-141.1866369999999904
40
0.4999904639410636
50
4.29349284
51
30.00010163
0
ARC
8
BLACK
10
208.4950199999999825
20
-141.1117689999999811
40
0.4999990480990938
50
-175.70612729
51
-29.70067774
0
ARC
8
BLACK
10
209.3636339999999905
20
-141.6072299999999871
40
0.4999868935612212
50
119.99940694
51
150.29945126
0
ARC
8
BLACK
10
208.7396699999999896
20
-137.3486769999999808
40
0.5000095877180757
50
-59.99978078
51
-29.70117613
0
ARC
8
BLACK
10
209.6083019999999806
20
-137.8441519999999798
40
0.4999966930710642
50
4.29352132
51
150.29956410
0
ARC
8
BLACK
10
210.6058089999999936
20
-137.7691839999999956
40
0.5003211953665365
50
-175.69751411
51
-150.00827720
0
ARC
8
BLACK
10
210.7396799999999928
20
-140.8127949999999942
40
0.5000090524060539
50
89.70103453
51
119.99966574
0
ARC
8
BLACK
10
210.7449019999999962
20
-139.8127999999999815
40
0.4999987283283828
50
-90.29942921
51
55.70628462
0
ARC
8
BLACK
10
211.3083169999999882
20
-138.9866039999999998
40
0.5000194185159212
50
-149.99514202
51
-124.28946333
0
LINE
8
BLACK
6
CONTINUOUS
10
265.0000009999999975
20
-43.5028429999999986
11
265.0000009999999975
21
-42.0971589999999978
0
LINE
8
BLACK
6
CONTINUOUS
10
265.9055480000000102
20
-41.3000009999999946
11
267.494451999999967
21
-41.3000009999999946
0
LINE
8
BLACK
6
CONTINUOUS
10
267.494451999999967
20
-44.2999999999999972
11
265.9055470000000128
21
-44.2999999999999972
0
LINE
8
BLACK
6
CONTINUOUS
10
268.3999989999999798
20
-42.0971589999999978
11
268.3999989999999798
21
-43.5028429999999986
0
ARC
8
BLACK
10
264.5000109999999722
20
-42.0971569999999957
40
0.4999899543000839
50
-0.00022919
51
25.70646243
0
ARC
8
BLACK
10
265.4010299999999916
20
-41.6634019999999978
40
0.4999997985959594
50
-300.29939530
51
-154.29357192
0
ARC
8
BLACK
10
264.5000109999999722
20
-43.5028450000000007
40
0.499990000001
50
-25.70646243
51
0.00011459
0
ARC
8
BLACK
10
265.401030999999989
20
-43.9365990000000011
40
0.499998988562977
50
-205.70617187
51
-59.70070364
0
ARC
8
BLACK
10
265.9055500000000052
20
-44.8000089999999958
40
0.500009136137531
50
90.00034377
51
120.29901505
0
ARC
8
BLACK
10
265.9055500000000052
20
-40.799991999999996
40
0.5000090000039998
50
-120.29901505
51
-90.00022918
0
ARC
8
BLACK
10
267.4944499999999721
20
-44.8000100000000003
40
0.5000090000089998
50
59.70098495
51
89.99965623
0
ARC
8
BLACK
10
267.4944499999999721
20
-40.7999900000000011
40
0.5000103584367028
50
-89.99977082
51
-59.70119951
0
ARC
8
BLACK
10
267.9989699999999857
20
-41.6633999999999958
40
0.4999960394813143
50
-25.70653133
51
120.29962656
0
ARC
8
BLACK
10
268.9003599999999778
20
-42.0972399999999993
40
0.5003610067191487
50
154.30340137
51
179.99061027
0
ARC
8
BLACK
10
267.9989699999999857
20
-43.9365999999999985
40
0.4999993648365966
50
-120.29939530
51
25.70632483
0
ARC
8
BLACK
10
268.8999999999999773
20
-43.5028999999999968
40
0.4999760117215625
50
-180.00653171
51
-154.29976339
0
LINE
8
BLACK
6
CONTINUOUS
10
131.3475679999999954
20
-121.5468919999999997
11
131.7113860000000045
21
-120.1891059999999953
0
LINE
8
BLACK
6
CONTINUOUS
10
132.792396999999994
20
-119.6534839999999917
11
134.3271609999999896
21
-120.0647230000000008
0
LINE
8
BLACK
6
CONTINUOUS
10
133.5507029999999986
20
-122.962498999999994
11
132.0159400000000005
21
-122.5512599999999992
0
LINE
8
BLACK
6
CONTINUOUS
10
134.9955319999999972
20
-121.0690899999999885
11
134.6317139999999881
21
-122.4268759999999929
0
ARC
8
BLACK
10
130.8642679999999814
20
-121.4173079999999914
40
0.5003710245657715
50
-40.69628288
51
-15.00941859
0
ARC
8
BLACK
10
131.2285339999999962
20
-120.0596669999999904
40
0.4998860960708949
50
-15.00655359
51
10.70523050
0
ARC
8
BLACK
10
132.2110150000000033
20
-119.8739229999999907
40
0.4999987717924915
50
-315.29940161
51
-169.29371177
0
ARC
8
BLACK
10
131.6226699999999994
20
-122.0696549999999974
40
0.5000053106677967
50
-220.70531575
51
-74.70094165
0
ARC
8
BLACK
10
131.8865299999999934
20
-123.0342349999999954
40
0.5000110980408334
50
75.00030562
51
105.29887694
0
ARC
8
BLACK
10
132.9218109999999911
20
-119.170511999999988
40
0.5000092289808259
50
-135.29899097
51
-105.00036643
0
ARC
8
BLACK
10
133.4212899999999991
20
-123.4454700000000003
40
0.5000087113341126
50
44.70100903
51
74.99985494
0
ARC
8
BLACK
10
134.4565699999999993
20
-119.5817499999999995
40
0.5000094327720228
50
-104.99964301
51
-74.70095207
0
ARC
8
BLACK
10
134.7204299999999932
20
-120.5463209999999918
40
0.5000002240019498
50
-40.70601070
51
105.29909900
0
ARC
8
BLACK
10
135.1146369999999877
20
-122.5562860000000001
40
0.499961619119908
50
-195.00123671
51
-169.29279015
0
ARC
8
BLACK
10
134.1320869999999843
20
-122.74206199999999
40
0.4999985323148459
50
-135.29972656
51
10.70675991
0
ARC
8
BLACK
10
135.4784510000000068
20
-121.1984759999999994
40
0.4999517540023237
50
139.29262410
51
165.00119067
0
LINE
8
BLACK
6
CONTINUOUS
10
199.
20
-39.5
11
211.
21
-39.5
0
LINE
8
BLACK
6
CONTINUOUS
10
211.
20
-39.5
11
211.
21
-69.
0
LINE
8
BLACK
6
CONTINUOUS
10
211.
20
-69.
11
199.
21
-69.
0
LINE
8
BLACK
6
CONTINUOUS
10
199.
20
-69.
11
199.
21
-39.5
0
LINE
8
BLACK
6
CONTINUOUS
10
199.
20
-36.
11
211.
21
-36.
0
LINE
8
BLACK
6
CONTINUOUS
10
211.
20
-36.
11
211.
21
-74.
0
LINE
8
BLACK
6
CONTINUOUS
10
211.
20
-74.
11
199.
21
-74.
0
LINE
8
BLACK
6
CONTINUOUS
10
199.
20
-74.
11
199.
21
-36.
0
LINE
8
BLACK
6
CONTINUOUS
10
151.
20
-36.
11
163.
21
-36.
0
LINE
8
BLACK
6
CONTINUOUS
10
163.
20
-36.
11
163.
21
-74.
0
LINE
8
BLACK
6
CONTINUOUS
10
163.
20
-74.
11
151.
21
-74.
0
LINE
8
BLACK
6
CONTINUOUS
10
151.
20
-74.
11
151.
21
-36.
0
LINE
8
BLACK
6
CONTINUOUS
10
151.
20
-39.5
11
163.
21
-39.5
0
LINE
8
BLACK
6
CONTINUOUS
10
163.
20
-39.5
11
163.
21
-69.
0
LINE
8
BLACK
6
CONTINUOUS
10
163.
20
-69.
11
151.
21
-69.
0
LINE
8
BLACK
6
CONTINUOUS
10
151.
20
-69.
11
151.
21
-39.5
0
CIRCLE
8
BLACK
10
238.6999999999999886
20
-32.
40
2.
0
CIRCLE
8
BLACK
10
295.3000000000000114
20
-33.
40
2.
0
CIRCLE
8
BLACK
10
305.5
20
-120.
40
2.
0
CIRCLE
8
BLACK
10
218.
20
-123.7999999999999972
40
2.
0
CIRCLE
8
BLACK
10
144.
20
-127.7999999999999972
40
2.
0
CIRCLE
8
BLACK
10
56.3999999999999986
20
-120.
40
2.
0
CIRCLE
8
BLACK
10
66.7000000000000028
20
-33.
40
2.
0
CIRCLE
8
BLACK
10
123.2999999999999972
20
-32.
40
2.
0
LINE
8
BLACK
6
CONTINUOUS
10
193.
20
-77.5999999999999943
11
198.3999999999999773
21
-77.5999999999999943
0
LINE
8
BLACK
6
CONTINUOUS
10
198.3999999999999773
20
-77.5999999999999943
11
198.3999999999999773
21
-86.3999999999999915
0
LINE
8
BLACK
6
CONTINUOUS
10
198.3999999999999773
20
-86.3999999999999915
11
193.
21
-86.3999999999999915
0
LINE
8
BLACK
6
CONTINUOUS
10
193.
20
-86.3999999999999915
11
193.
21
-77.5999999999999943
0
LINE
8
BLACK
6
CONTINUOUS
10
163.5999999999999943
20
-77.5999999999999943
11
169.
21
-77.5999999999999943
0
LINE
8
BLACK
6
CONTINUOUS
10
169.
20
-77.5999999999999943
11
169.
21
-86.3999999999999915
0
LINE
8
BLACK
6
CONTINUOUS
10
169.
20
-86.3999999999999915
11
163.5999999999999943
21
-86.3999999999999915
0
LINE
8
BLACK
6
CONTINUOUS
10
163.5999999999999943
20
-86.3999999999999915
11
163.5999999999999943
21
-77.5999999999999943
0
LINE
8
BLACK
6
CONTINUOUS
10
196.25
20
-34.2999999999999972
11
213.75
21
-34.2999999999999972
0
LINE
8
BLACK
6
CONTINUOUS
10
213.75
20
-34.2999999999999972
11
213.75
21
-67.0999999999999943
0
LINE
8
BLACK
6
CONTINUOUS
10
213.75
20
-67.0999999999999943
11
196.25
21
-67.0999999999999943
0
LINE
8
BLACK
6
CONTINUOUS
10
196.25
20
-67.0999999999999943
11
196.25
21
-34.2999999999999972
0
LINE
8
BLACK
6
CONTINUOUS
10
148.
20
-34.2999999999999972
11
165.7999999999999829
21
-34.2999999999999972
0
LINE
8
BLACK
6
CONTINUOUS
10
165.7999999999999829
20
-34.2999999999999972
11
165.7999999999999829
21
-67.3999999999999915
0
LINE
8
BLACK
6
CONTINUOUS
10
165.7999999999999829
20
-67.3999999999999915
11
148.
21
-67.3999999999999915
0
LINE
8
BLACK
6
CONTINUOUS
10
148.
20
-67.3999999999999915
11
148.
21
-34.2999999999999972
0
LINE
8
BLACK
6
CONTINUOUS
10
242.9156659999999874
20
-137.9762099999999805
11
299.6009829999999852
21
-137.9762099999999805
0
LINE
8
BLACK
6
CONTINUOUS
10
171.2892459999999915
20
-136.3915250000000015
11
164.6918929999999932
21
-148.8142009999999971
0
ARC
8
BLACK
10
163.
20
-39.5238000000000014
40
6.000010212359725
50
0.00009549
51
79.87877802
0
LINE
8
BLACK
6
CONTINUOUS
10
169.
20
-39.5237899999999982
11
169.
21
-99.3379559999999913
0
ARC
8
BLACK
10
119.0842999999999989
20
-144.0003999999999849
40
6.0004000000963265
50
72.64680474
51
89.99967535
0
ARC
8
BLACK
10
331.5045000000000073
20
-116.242999999999995
40
5.9999772996418912
50
-63.74986838
51
-0.06859287
0
LINE
8
BLACK
6
CONTINUOUS
10
168.9912539999999979
20
-99.6618079999999935
11
168.051873999999998
21
-117.0403369999999938
0
LINE
8
BLACK
6
CONTINUOUS
10
168.2504629999999963
20
-118.9278529999999989
11
171.7828289999999924
21
-132.0136599999999873
0
LINE
8
BLACK
6
CONTINUOUS
10
226.602107999999987
20
-142.7880509999999958
11
241.1260159999999928
21
-138.2493299999999863
0
LINE
8
BLACK
6
CONTINUOUS
10
193.7495370000000037
20
-118.9040629999999936
11
190.2171709999999791
21
-131.9898699999999963
0
LINE
8
BLACK
6
CONTINUOUS
10
135.3978919999999846
20
-142.8118409999999869
11
120.873983999999993
21
-138.2731200000000058
0
LINE
8
BLACK
6
CONTINUOUS
10
111.8230599999999981
20
-24.2933710000000005
11
164.0543899999999837
21
-33.6171609999999959
0
ARC
8
BLACK
10
187.9568999999999903
20
-117.3403999999999883
40
5.9999724789939659
50
-15.10635771
51
3.09408615
0
LINE
8
BLACK
6
CONTINUOUS
10
193.
20
-39.5
11
193.
21
-99.3141660000000002
0
ARC
8
BLACK
10
196.0097999999999843
20
-133.5534999999999854
40
5.9999839287568921
50
-195.10607338
51
-152.02797367
0
LINE
8
BLACK
6
CONTINUOUS
10
29.0007640000000002
20
-35.5919159999999977
11
75.6074449999999985
21
-24.3667999999999978
0
ARC
8
BLACK
10
331.5944000000000074
20
-41.4012999999999991
40
5.9999569249430449
50
-0.06903276
51
76.45900607
0
LINE
8
BLACK
6
CONTINUOUS
10
119.0843339999999984
20
-138.
11
62.3990170000000006
21
-138.
0
ARC
8
BLACK
10
153.5716999999999928
20
-146.0001000000000033
40
5.9999000000029996
50
-119.35816918
51
-89.99994270
0
ARC
8
BLACK
10
174.0430999999999813
20
-117.3641999999999967
40
5.9999711764456007
50
-183.09418150
51
-164.89373448
0
ARC
8
BLACK
10
30.405619999999999
20
-41.4250699999999981
40
5.999943379043005
50
-256.45877568
51
-179.93077648
0
LINE
8
BLACK
6
CONTINUOUS
10
202.6071889999999769
20
-151.9762099999999805
11
208.428293999999994
21
-151.9762099999999805
0
LINE
8
BLACK
6
CONTINUOUS
10
337.5044729999999618
20
-116.2501829999999927
11
337.5943189999999845
21
-41.4085290000000015
0
LINE
8
BLACK
6
CONTINUOUS
10
59.7452619999999968
20
-137.3812250000000006
11
27.8417679999999983
21
-121.6479949999999945
0
LINE
8
BLACK
6
CONTINUOUS
10
150.5
20
-98.3999999999999915
11
162.2999999999999829
21
-98.3999999999999915
0
LINE
8
BLACK
6
CONTINUOUS
10
162.2999999999999829
20
-98.3999999999999915
11
162.2999999999999829
21
-110.5999999999999943
0
LINE
8
BLACK
6
CONTINUOUS
10
162.2999999999999829
20
-110.5999999999999943
11
150.5
21
-110.5999999999999943
0
LINE
8
BLACK
6
CONTINUOUS
10
150.5
20
-110.5999999999999943
11
150.5
21
-98.3999999999999915
0
ARC
8
BLACK
10
284.9875999999999863
20
-30.1769999999999996
40
6.0007900001469805
50
76.45972568
51
89.99959898
0
ARC
8
BLACK
10
242.9157999999999902
20
-143.9769000000000005
40
6.0006986986146869
50
90.00127946
51
107.35328074
0
LINE
8
BLACK
6
CONTINUOUS
10
302.2547379999999748
20
-137.3574349999999811
11
334.1582319999999982
21
-121.6242049999999892
0
LINE
8
BLACK
6
CONTINUOUS
10
332.9992359999999962
20
-35.5681259999999995
11
286.3925549999999589
21
-24.3430099999999996
0
ARC
8
BLACK
10
159.392799999999994
20
-146.
40
6.0000094909133264
50
-89.99989496
51
-27.97152907
0
LINE
8
BLACK
6
CONTINUOUS
10
200.0999999999999943
20
-98.3999999999999915
11
211.8999999999999773
21
-98.3999999999999915
0
LINE
8
BLACK
6
CONTINUOUS
10
211.8999999999999773
20
-98.3999999999999915
11
211.8999999999999773
21
-110.5999999999999943
0
LINE
8
BLACK
6
CONTINUOUS
10
211.8999999999999773
20
-110.5999999999999943
11
200.0999999999999943
21
-110.5999999999999943
0
LINE
8
BLACK
6
CONTINUOUS
10
200.0999999999999943
20
-110.5999999999999943
11
200.0999999999999943
21
-98.3999999999999915
0
ARC
8
BLACK
10
208.4283999999999821
20
-145.9763999999999839
40
5.9997820241813784
50
-90.00101226
51
-60.64224178
0
ARC
8
BLACK
10
199.
20
-39.5
40
6.
50
100.12123876
51
180.00000000
0
ARC
8
BLACK
10
110.7686999999999955
20
-30.1993999999999971
40
5.9994000000700902
50
79.87803632
51
90.00027696
0
ARC
8
BLACK
10
299.6008999999999673
20
-131.9761000000000024
40
6.0001352078489862
50
-89.99920742
51
-63.74950962
0
LINE
8
BLACK
6
CONTINUOUS
10
250.1769400000000019
20
-24.2695809999999987
11
197.9456099999999878
21
-33.5933709999999977
0
LINE
8
BLACK
6
CONTINUOUS
10
150.6301389999999856
20
-151.2294530000000066
11
136.549808999999982
21
-143.309268000000003
0
LINE
8
BLACK
6
CONTINUOUS
10
24.4955269999999992
20
-116.273972999999998
11
24.4056809999999977
21
-41.4323189999999997
0
LINE
8
BLACK
6
CONTINUOUS
10
284.9876419999999939
20
-24.1762099999999975
11
251.2313289999999881
21
-24.1762099999999975
0
ARC
8
BLACK
10
228.3920999999999992
20
-148.5157999999999845
40
6.0009246610805738
50
107.35466655
51
119.35652922
0
LINE
8
BLACK
6
CONTINUOUS
10
190.7107539999999801
20
-136.3677349999999819
11
197.3081069999999784
21
-148.790411000000006
0
ARC
8
BLACK
10
30.4954999999999998
20
-116.2667999999999893
40
5.9999627628718661
50
-179.93150262
51
-116.25017385
0
ARC
8
BLACK
10
198.9977999999999838
20
-99.3141999999999996
40
5.9978017566471795
50
-180.00032480
51
-176.90512779
0
ARC
8
BLACK
10
77.0123999999999995
20
-30.1999999999999993
40
6.0000100659936395
50
90.00040107
51
103.54204057
0
ARC
8
BLACK
10
202.6071999999999775
20
-145.9762000000000057
40
6.0000100000100831
50
-152.02838659
51
-90.00010504
0
ARC
8
BLACK
10
251.2312000000000012
20
-30.1750999999999969
40
5.9988847969402617
50
89.99876791
51
100.12187950
0
ARC
8
BLACK
10
62.3989999999999938
20
-132.
40
6.000000000024083
50
-116.25009853
51
-89.99983766
0
LINE
8
BLACK
6
CONTINUOUS
10
211.369860999999986
20
-151.2056629999999871
11
225.4501909999999896
21
-143.2854779999999835
0
LINE
8
BLACK
6
CONTINUOUS
10
159.3928109999999947
20
-152.
11
153.571706000000006
21
-152.
0
LINE
8
BLACK
6
CONTINUOUS
10
193.0087460000000021
20
-99.6380180000000024
11
193.948126000000002
21
-117.0165469999999885
0
ARC
8
BLACK
10
133.6082999999999856
20
-148.5387000000000057
40
5.9999627942467271
50
60.64263348
51
72.64644420
0
LINE
8
BLACK
6
CONTINUOUS
10
77.0123579999999919
20
-24.1999999999999993
11
110.7686709999999977
21
-24.1999999999999993
0
ARC
8
BLACK
10
162.9994999999999834
20
-99.3378999999999905
40
6.0005000002613116
50
-3.09433843
51
-0.00053472
0
ARC
8
BLACK
10
165.990099999999984
20
-133.5773000000000081
40
6.0000566094863634
50
-27.97149410
51
15.10591671
  0
ENDSEC
  0
EOF
